<?xml version="1.0" encoding="UTF-8" standalone="no"?>
<!-- Generator: Adobe Illustrator 13.0.0, SVG Export Plug-In . SVG Version: 6.00 Build 14948)  -->

<svg
   version="1.2"
   id="Layer_3"
   x="0px"
   y="0px"
   width="509.189"
   height="315.26001"
   viewBox="0 0 509.18897 315.26"
   xml:space="preserve"
   sodipodi:docname="msx2.svg"
   inkscape:version="1.2.2 (732a01da63, 2022-12-09)"
   xmlns:inkscape="http://www.inkscape.org/namespaces/inkscape"
   xmlns:sodipodi="http://sodipodi.sourceforge.net/DTD/sodipodi-0.dtd"
   xmlns="http://www.w3.org/2000/svg"
   xmlns:svg="http://www.w3.org/2000/svg"
   xmlns:rdf="http://www.w3.org/1999/02/22-rdf-syntax-ns#"
   xmlns:cc="http://creativecommons.org/ns#"
   xmlns:dc="http://purl.org/dc/elements/1.1/"
   xmlns:ns="&amp;ns_sfw;"><defs
   id="defs1897" /><sodipodi:namedview
   id="namedview1895"
   pagecolor="#000000"
   bordercolor="#111111"
   borderopacity="1"
   inkscape:showpageshadow="0"
   inkscape:pageopacity="0"
   inkscape:pagecheckerboard="1"
   inkscape:deskcolor="#d1d1d1"
   showgrid="false"
   inkscape:zoom="2.0445042"
   inkscape:cx="299.58363"
   inkscape:cy="175.10357"
   inkscape:window-width="1920"
   inkscape:window-height="1009"
   inkscape:window-x="-8"
   inkscape:window-y="-8"
   inkscape:window-maximized="1"
   inkscape:current-layer="Layer_3" />
<metadata
   id="metadata55">
	<rdf:RDF>
		<cc:Work
   rdf:about="">
			<dc:format>image/svg+xml</dc:format>
			<dc:type
   rdf:resource="http://purl.org/dc/dcmitype/StillImage" />
			
		</cc:Work>
	</rdf:RDF>
	<ns:sfw>
		<ns:slices />
		<ns:sliceSourceBounds
   x="708.486"
   y="-7652"
   width="503.928"
   height="16383"
   bottomLeftOrigin="true" />
	</ns:sfw>
</metadata>
<g
   id="g3"
   transform="translate(-44,-14)">
	<path
   id="polyline5"
   fill="#f4f4f4"
   d="m 82.189,26.116 v 83.276 h -3.15 v 1.708 h 4.005 0.854 v -0.854 -84.13 z" />
	<path
   id="rect7"
   fill="#f4f4f4"
   d="m 47.081,25.262 v 0.854 84.129 0.854 h 0.854 27.768 0.854 V 110.245 26.116 25.262 H 75.703 47.935 Z m 1.708,1.709 h 26.058 v 82.42 H 48.789 Z" />
	<path
   id="rect9"
   fill="#f4f4f4"
   d="m 269.116,25.262 v 0.854 84.129 0.854 h 0.854 280.184 0.854 V 110.245 26.116 25.262 H 550.154 269.97 Z m 1.708,1.709 H 549.3 v 82.42 H 270.824 Z" />
	<path
   id="polyline11"
   fill="#f4f4f4"
   d="m 89.532,26.116 v 83.276 h -3.15 v 1.708 h 4.004 0.854 v -0.854 -84.13 z" />
	<path
   id="polyline13"
   fill="#f4f4f4"
   d="m 96.874,26.116 v 83.276 h -3.15 v 1.708 h 4.005 0.854 v -0.854 -84.13 z" />
	<path
   id="polyline15"
   fill="#f4f4f4"
   d="m 104.243,26.116 v 83.276 h -3.177 v 1.708 h 4.032 0.854 v -0.854 -84.13 z" />
	<path
   id="polyline17"
   fill="#f4f4f4"
   d="m 111.585,26.116 v 83.276 h -3.177 v 1.708 h 4.032 0.854 v -0.854 -84.13 z" />
	<path
   id="polyline19"
   fill="#f4f4f4"
   d="m 118.928,26.116 v 83.276 h -3.177 v 1.708 h 4.032 0.854 v -0.854 -84.13 z" />
	<path
   id="polyline21"
   fill="#f4f4f4"
   d="m 126.271,26.116 v 83.276 h -3.177 v 1.708 h 4.031 0.855 v -0.854 -84.13 z" />
	<path
   id="polyline23"
   fill="#f4f4f4"
   d="m 133.611,26.116 v 83.276 h -3.177 v 1.708 h 4.032 0.854 v -0.854 -84.13 z" />
	<path
   id="polyline25"
   fill="#f4f4f4"
   d="m 140.959,26.116 v 83.276 h -3.177 v 1.708 h 4.032 0.854 v -0.854 -84.13 z" />
	<path
   id="polyline27"
   fill="#f4f4f4"
   d="m 148.298,26.116 v 83.276 h -3.177 v 1.708 h 4.031 0.854 v -0.854 -84.13 z" />
	<path
   id="polyline29"
   fill="#f4f4f4"
   d="m 155.638,26.116 v 83.276 h -3.177 v 1.708 h 4.032 0.854 v -0.854 -84.13 z" />
	<path
   id="polyline31"
   fill="#f4f4f4"
   d="m 162.985,26.116 v 83.276 h -3.177 v 1.708 h 4.032 0.854 v -0.854 -84.13 z" />
	<path
   id="polyline33"
   fill="#f4f4f4"
   d="m 170.324,26.116 v 83.276 h -3.178 v 1.708 h 4.032 0.854 v -0.854 -84.13 z" />
	<path
   id="polyline35"
   fill="#f4f4f4"
   d="m 177.663,26.116 v 83.276 h -3.177 v 1.708 h 4.032 0.854 v -0.854 -84.13 z" />
	<path
   id="polyline37"
   fill="#f4f4f4"
   d="m 185.011,26.116 v 83.276 h -3.177 v 1.708 h 4.032 0.854 v -0.854 -84.13 z" />
	<path
   id="polyline39"
   fill="#f4f4f4"
   d="m 192.35,26.116 v 83.276 h -3.178 v 1.708 h 4.032 0.854 v -0.854 -84.13 z" />
	<path
   id="polyline41"
   fill="#f4f4f4"
   d="m 199.689,26.116 v 83.276 h -3.177 v 1.708 h 4.032 0.854 v -0.854 -84.13 z" />
	<path
   id="polyline43"
   fill="#f4f4f4"
   d="m 207.037,26.116 v 83.276 h -3.177 v 1.708 h 4.032 0.854 v -0.854 -84.13 z" />
	<path
   id="polyline45"
   fill="#f4f4f4"
   d="m 214.376,26.116 v 83.276 h -3.178 v 1.708 h 4.032 0.855 v -0.854 -84.13 z" />
	<path
   id="polyline47"
   fill="#f4f4f4"
   d="m 221.724,26.116 v 83.276 h -3.178 v 1.708 h 4.032 0.854 v -0.854 -84.13 z" />
	<path
   id="polyline49"
   fill="#f4f4f4"
   d="m 229.063,26.116 v 83.276 h -3.177 v 1.708 h 4.032 0.854 v -0.854 -84.13 z" />
	<path
   id="polyline51"
   fill="#f4f4f4"
   d="m 236.402,26.116 v 83.276 h -3.178 v 1.708 h 4.032 0.855 v -0.854 -84.13 z" />
	<path
   id="polyline53"
   fill="#f4f4f4"
   d="m 243.749,26.116 v 83.276 h -3.177 v 1.708 h 4.032 0.854 v -0.854 -84.13 z" />
	<path
   id="polyline55"
   fill="#f4f4f4"
   d="m 251.088,26.116 v 83.276 h -3.177 v 1.708 h 4.032 0.854 v -0.854 -84.13 z" />
	<path
   id="polyline57"
   fill="#f4f4f4"
   d="m 258.436,26.116 v 83.276 h -3.177 v 1.708 h 4.032 0.854 v -0.854 -84.13 z" />
	<path
   id="polyline59"
   fill="#f4f4f4"
   d="m 265.775,26.116 v 83.276 h -3.178 v 1.708 h 4.032 0.854 v -0.854 -84.13 z" />
	<path
   id="path61"
   fill="#f4f4f4"
   d="m 341.737,35.461 c -0.906,0 -1.656,0.749 -1.656,1.655 v 32.893 c 0,0.905 0.75,1.656 1.656,1.656 H 538.62 c 0.906,0 1.655,-0.75 1.655,-1.656 V 37.116 c 0,-0.905 -0.749,-1.655 -1.655,-1.655 z m 0.054,1.708 H 538.563 V 69.956 H 341.791 Z" />
	<path
   id="path63"
   fill="#f4f4f4"
   d="m 347.53,40.24 c -1.128,0 -2.082,0.928 -2.082,2.056 V 64.83 c 0,1.128 0.954,2.056 2.082,2.056 h 148.261 c 0.799,0 1.368,-0.527 1.708,-1.201 h 0.348 V 64.83 42.296 c 0,-1.128 -0.926,-2.056 -2.056,-2.056 z m 0,1.709 h 148.261 c 0.205,0 0.347,0.142 0.347,0.347 v 21.68 0.854 c 0,0.205 -0.142,0.347 -0.347,0.347 H 347.53 c -0.204,0 -0.373,-0.143 -0.373,-0.347 V 42.296 c 0,-0.205 0.169,-0.347 0.373,-0.347 z" />
	<path
   id="path65"
   fill="#f4f4f4"
   d="m 349.794,43.043 c -0.684,0 -1.255,0.568 -1.255,1.255 v 18.529 c 0,0.687 0.571,1.255 1.255,1.255 h 143.988 c 0.686,0 1.256,-0.571 1.256,-1.255 V 44.298 c 0,-0.685 -0.57,-1.255 -1.256,-1.255 z m 0.454,1.709 H 493.33 V 62.374 H 350.248 Z" />
	<path
   id="circle67"
   fill="#f4f4f4"
   d="m 520.482,41.842 c -6.465,0 -11.721,5.257 -11.721,11.722 0,6.464 5.255,11.721 11.721,11.721 6.465,0 11.722,-5.257 11.722,-11.721 0,-6.465 -5.257,-11.722 -11.722,-11.722 z m 0,1.709 c 5.54,0 10.013,4.471 10.013,10.013 0,5.541 -4.473,10.012 -10.013,10.012 -5.541,0 -10.012,-4.471 -10.012,-10.012 10e-4,-5.542 4.471,-10.013 10.012,-10.013 z" />
</g>
<path
   id="path69"
   fill="#f4f4f4"
   d="m 8.287,100.276 c -0.906,0 -1.682,0.748 -1.682,1.655 V 310.45 c 0,0.906 0.774,1.656 1.682,1.656 h 493.505 c 0.906,0 1.656,-0.751 1.656,-1.656 V 101.932 c 0,-0.905 -0.752,-1.655 -1.656,-1.655 H 8.287 Z m 0.026,1.709 H 501.742 V 310.4 H 8.313 Z" />
<path
   id="path71"
   fill="#f4f4f4"
   d="m 8.287,2.852 c -0.907,0 -1.682,0.749 -1.682,1.655 v 7.716 H 8.313 V 4.56 h 493.429 v 7.45 h 1.708 V 4.507 c 0,-0.906 -0.752,-1.656 -1.658,-1.656 H 8.279 Z" />
<path
   id="path73"
   fill="#f4f4f4"
   d="m 31.354,153.06 c -1.795,0 -3.284,1.487 -3.284,3.284 v 15.993 c 0,1.796 1.487,3.284 3.284,3.284 h 15.993 c 1.796,0 3.258,-1.487 3.258,-3.284 v -0.854 -15.139 c 0,-1.795 -1.462,-3.284 -3.258,-3.284 z m 0,1.708 h 15.993 c 0.874,0 1.549,0.704 1.549,1.576 v 15.993 c 0,0.872 -0.677,1.575 -1.549,1.575 H 31.354 c -0.872,0 -1.575,-0.704 -1.575,-1.575 v -15.993 c 0,-0.874 0.702,-1.576 1.575,-1.576 z" />
<path
   id="path75"
   fill="#f4f4f4"
   d="m 55.224,153.06 c -1.795,0 -3.284,1.487 -3.284,3.284 v 15.993 c 0,1.796 1.487,3.284 3.284,3.284 h 15.993 c 1.796,0 3.284,-1.487 3.284,-3.284 v -15.993 c 0,-1.796 -1.489,-3.284 -3.284,-3.284 z m 0,1.708 h 15.993 c 0.874,0 1.575,0.704 1.575,1.576 v 15.993 c 0,0.872 -0.702,1.575 -1.575,1.575 H 55.224 c -0.873,0 -1.575,-0.704 -1.575,-1.575 v -15.993 c -10e-4,-0.874 0.701,-1.576 1.575,-1.576 z" />
<path
   id="path77"
   fill="#f4f4f4"
   d="m 79.093,153.06 c -1.794,0 -3.284,1.487 -3.284,3.284 v 15.993 c 0,1.795 1.487,3.284 3.284,3.284 h 15.993 c 1.795,0 3.284,-1.487 3.284,-3.284 v -15.993 c 0,-1.795 -1.488,-3.284 -3.284,-3.284 z m 0,1.708 h 15.993 c 0.873,0 1.575,0.704 1.575,1.576 v 15.993 c 0,0.872 -0.703,1.575 -1.575,1.575 H 79.093 c -0.873,0 -1.575,-0.704 -1.575,-1.575 v -15.993 c 0,-0.874 0.703,-1.576 1.575,-1.576 z" />
<path
   id="path79"
   fill="#f4f4f4"
   d="m 102.965,153.06 c -1.794,0 -3.256,1.487 -3.256,3.284 v 15.993 c 0,1.796 1.46,3.284 3.256,3.284 h 15.994 c 1.796,0 3.284,-1.487 3.284,-3.284 v -15.993 c 0,-1.796 -1.489,-3.284 -3.284,-3.284 z m 0,1.708 h 15.994 c 0.874,0 1.575,0.704 1.575,1.576 v 15.993 c 0,0.872 -0.702,1.575 -1.575,1.575 h -15.994 c -0.872,0 -1.548,-0.704 -1.548,-1.575 v -15.993 c 0,-0.874 0.674,-1.576 1.548,-1.576 z" />
<path
   id="path81"
   fill="#f4f4f4"
   d="m 126.828,153.06 c -1.794,0 -3.257,1.487 -3.257,3.284 v 15.993 c 0,1.795 1.46,3.284 3.257,3.284 h 16.02 c 1.795,0 3.257,-1.487 3.257,-3.284 v -15.993 c 0,-1.795 -1.462,-3.284 -3.257,-3.284 z m 0,1.708 h 16.02 c 0.874,0 1.548,0.704 1.548,1.576 v 15.993 c 0,0.872 -0.676,1.575 -1.548,1.575 h -16.02 c -0.873,0 -1.548,-0.704 -1.548,-1.575 v -15.993 c 0,-0.874 0.675,-1.576 1.548,-1.576 z" />
<path
   id="path83"
   fill="#f4f4f4"
   d="m 150.699,153.06 c -1.795,0 -3.257,1.487 -3.257,3.284 v 15.993 c 0,1.796 1.461,3.284 3.257,3.284 h 16.02 c 1.796,0 3.257,-1.487 3.257,-3.284 v -15.993 c 0,-1.796 -1.462,-3.284 -3.257,-3.284 z m 0,1.708 h 16.02 c 0.874,0 1.549,0.704 1.549,1.576 v 15.993 c 0,0.872 -0.676,1.575 -1.549,1.575 h -16.02 c -0.872,0 -1.548,-0.704 -1.548,-1.575 v -15.993 c 0,-0.874 0.675,-1.576 1.548,-1.576 z" />
<path
   id="path85"
   fill="#f4f4f4"
   d="m 174.597,153.06 c -1.794,0 -3.284,1.487 -3.284,3.284 v 15.993 c 0,1.796 1.488,3.284 3.284,3.284 h 15.993 c 1.795,0 3.257,-1.487 3.257,-3.284 v -15.993 c 0,-1.796 -1.463,-3.284 -3.257,-3.284 z m 0,1.708 h 15.993 c 0.872,0 1.548,0.704 1.548,1.576 v 15.993 c 0,0.872 -0.678,1.575 -1.548,1.575 h -15.993 c -0.871,0 -1.575,-0.704 -1.575,-1.575 v -15.993 c -0.001,-0.874 0.703,-1.576 1.575,-1.576 z" />
<path
   id="path87"
   fill="#f4f4f4"
   d="m 198.468,153.06 c -1.794,0 -3.284,1.487 -3.284,3.284 v 15.993 c 0,1.796 1.489,3.284 3.284,3.284 h 15.993 c 1.795,0 3.284,-1.487 3.284,-3.284 v -15.993 c 0,-1.796 -1.49,-3.284 -3.284,-3.284 z m 0,1.708 h 15.993 c 0.871,0 1.576,0.704 1.576,1.576 v 15.993 c 0,0.872 -0.705,1.575 -1.576,1.575 h -15.993 c -0.871,0 -1.576,-0.704 -1.576,-1.575 v -15.993 c 0,-0.874 0.704,-1.576 1.576,-1.576 z" />
<path
   id="path89"
   fill="#f4f4f4"
   d="m 222.331,153.06 c -1.794,0 -3.257,1.487 -3.257,3.284 v 15.993 c 0,1.795 1.46,3.284 3.257,3.284 h 15.993 c 1.797,0 3.284,-1.487 3.284,-3.284 v -15.993 c 0,-1.796 -1.488,-3.284 -3.284,-3.284 z m 0,1.708 h 15.993 c 0.874,0 1.575,0.704 1.575,1.576 v 15.993 c 0,0.872 -0.702,1.575 -1.575,1.575 h -15.993 c -0.873,0 -1.548,-0.704 -1.548,-1.575 v -15.993 c -10e-4,-0.874 0.675,-1.576 1.548,-1.576 z" />
<path
   id="path91"
   fill="#f4f4f4"
   d="m 246.202,153.06 c -1.795,0 -3.258,1.487 -3.258,3.284 v 15.993 c 0,1.795 1.461,3.284 3.258,3.284 h 15.993 c 1.796,0 3.284,-1.487 3.284,-3.284 v -15.993 c 0,-1.795 -1.488,-3.284 -3.284,-3.284 z m 0,1.708 h 15.993 c 0.872,0 1.575,0.704 1.575,1.576 v 15.993 c 0,0.872 -0.704,1.575 -1.575,1.575 h -15.993 c -0.873,0 -1.549,-0.704 -1.549,-1.575 v -15.993 c 0,-0.874 0.676,-1.576 1.549,-1.576 z" />
<path
   id="path93"
   fill="#f4f4f4"
   d="m 410.755,118.723 c -1.795,0 -3.283,1.462 -3.283,3.257 v 16.018 c 0,1.796 1.488,3.257 3.283,3.257 h 15.993 c 1.794,0 3.284,-1.46 3.284,-3.257 V 121.98 c 0,-1.796 -1.489,-3.257 -3.284,-3.257 z m 0,1.708 h 15.993 c 0.871,0 1.575,0.677 1.575,1.549 v 16.018 c 0,0.874 -0.704,1.549 -1.575,1.549 h -15.993 c -0.875,0 -1.575,-0.675 -1.575,-1.549 V 121.98 c 0,-0.874 0.702,-1.549 1.575,-1.549 z" />
<path
   id="path95"
   fill="#f4f4f4"
   d="m 434.618,118.723 c -1.796,0 -3.258,1.461 -3.258,3.257 v 16.018 c 0,1.796 1.462,3.257 3.258,3.257 h 15.992 c 1.796,0 3.284,-1.461 3.284,-3.257 V 121.98 c 0,-1.795 -1.486,-3.257 -3.284,-3.257 z m 0,1.708 h 15.992 c 0.874,0 1.576,0.676 1.576,1.549 v 16.018 c 0,0.874 -0.702,1.549 -1.576,1.549 h -15.992 c -0.873,0 -1.549,-0.675 -1.549,-1.549 V 121.98 c 0,-0.873 0.678,-1.549 1.549,-1.549 z" />
<path
   id="path97"
   fill="#f4f4f4"
   d="m 458.489,118.723 c -1.794,0 -3.258,1.461 -3.258,3.257 v 16.018 c 0,1.796 1.464,3.257 3.258,3.257 h 16.02 c 1.794,0 3.258,-1.46 3.258,-3.257 V 121.98 c 0,-1.796 -1.463,-3.257 -3.258,-3.257 z m 0,1.708 h 16.02 c 0.871,0 1.549,0.677 1.549,1.549 v 16.018 c 0,0.874 -0.678,1.549 -1.549,1.549 h -16.02 c -0.872,0 -1.549,-0.675 -1.549,-1.549 V 121.98 c 0,-0.873 0.679,-1.549 1.549,-1.549 z" />
<path
   id="path99"
   fill="#f4f4f4"
   d="m 270.073,153.06 c -1.796,0 -3.257,1.487 -3.257,3.284 v 15.993 c 0,1.796 1.46,3.284 3.257,3.284 h 16.021 c 1.793,0 3.256,-1.487 3.256,-3.284 v -15.993 c 0,-1.796 -1.463,-3.284 -3.256,-3.284 z m 0,1.708 h 16.021 c 0.872,0 1.548,0.704 1.548,1.576 v 15.993 c 0,0.871 -0.68,1.575 -1.548,1.575 h -16.021 c -0.872,0 -1.549,-0.704 -1.549,-1.575 v -15.993 c 0,-0.872 0.677,-1.576 1.549,-1.576 z" />
<path
   id="path101"
   fill="#f4f4f4"
   d="m 293.944,153.06 c -1.794,0 -3.258,1.487 -3.258,3.284 v 15.993 c 0,1.795 1.46,3.284 3.258,3.284 h 16.02 c 1.796,0 3.258,-1.487 3.258,-3.284 v -15.993 c 0,-1.795 -1.462,-3.284 -3.258,-3.284 z m 0,1.708 h 16.02 c 0.873,0 1.549,0.704 1.549,1.576 v 15.993 c 0,0.872 -0.678,1.575 -1.549,1.575 h -16.02 c -0.873,0 -1.548,-0.704 -1.548,-1.575 v -15.993 c 0,-0.874 0.675,-1.576 1.548,-1.576 z" />
<path
   id="path103"
   fill="#f4f4f4"
   d="m 317.841,153.06 c -1.794,0 -3.284,1.487 -3.284,3.284 v 15.993 c 0,1.796 1.488,3.284 3.284,3.284 h 15.992 c 1.798,0 3.258,-1.487 3.258,-3.284 v -15.993 c 0,-1.795 -1.462,-3.284 -3.258,-3.284 z m 0,1.708 h 15.992 c 0.875,0 1.549,0.704 1.549,1.576 v 15.993 c 0,0.872 -0.675,1.575 -1.549,1.575 h -15.992 c -0.871,0 -1.576,-0.704 -1.576,-1.575 v -15.993 c 0,-0.872 0.703,-1.576 1.576,-1.576 z" />
<path
   id="path105"
   fill="#f4f4f4"
   d="m 341.703,153.06 c -1.794,0 -3.284,1.487 -3.284,3.284 v 15.993 c 0,1.795 1.489,3.284 3.284,3.284 h 15.993 c 1.797,0 3.284,-1.487 3.284,-3.284 v -15.993 c 0,-1.795 -1.488,-3.284 -3.284,-3.284 z m 0,1.708 h 15.993 c 0.874,0 1.575,0.704 1.575,1.576 v 15.993 c 0,0.872 -0.703,1.575 -1.575,1.575 h -15.993 c -0.871,0 -1.575,-0.704 -1.575,-1.575 v -15.993 c 0,-0.874 0.702,-1.576 1.575,-1.576 z" />
<path
   id="path107"
   fill="#f4f4f4"
   d="m 365.576,153.06 c -1.796,0 -3.258,1.487 -3.258,3.284 v 15.993 c 0,1.796 1.461,3.284 3.258,3.284 h 15.993 c 1.793,0 3.283,-1.487 3.283,-3.284 v -15.993 c 0,-1.796 -1.49,-3.284 -3.283,-3.284 z m 0,1.708 h 15.993 c 0.871,0 1.575,0.704 1.575,1.576 v 15.993 c 0,0.871 -0.706,1.575 -1.575,1.575 h -15.993 c -0.873,0 -1.549,-0.704 -1.549,-1.575 v -15.993 c 0,-0.872 0.676,-1.576 1.549,-1.576 z" />
<path
   id="path109"
   fill="#f4f4f4"
   d="m 43.556,200.854 c -1.795,0 -3.284,1.463 -3.284,3.258 v 15.992 c 0,1.797 1.489,3.284 3.284,3.284 h 21.227 c 1.795,0 3.284,-1.487 3.284,-3.284 v -0.854 -15.138 c 0,-1.795 -1.487,-3.258 -3.284,-3.258 z m 0,1.709 h 21.227 c 0.873,0 1.575,0.678 1.575,1.549 v 15.992 c 0,0.874 -0.702,1.576 -1.575,1.576 H 43.556 c -0.873,0 -1.575,-0.701 -1.575,-1.576 v -15.992 c -0.001,-0.873 0.704,-1.549 1.575,-1.549 z" />
<path
   id="path111"
   fill="#f4f4f4"
   d="m 72.659,200.854 c -1.796,0 -3.257,1.461 -3.257,3.258 v 15.992 c 0,1.796 1.46,3.284 3.257,3.284 h 15.993 c 1.795,0 3.285,-1.487 3.285,-3.284 v -15.992 c 0,-1.797 -1.489,-3.258 -3.285,-3.258 z m 0,1.709 h 15.993 c 0.874,0 1.576,0.676 1.576,1.549 v 15.992 c 0,0.873 -0.702,1.576 -1.576,1.576 H 72.659 c -0.873,0 -1.549,-0.704 -1.549,-1.576 v -15.992 c 0,-0.875 0.676,-1.549 1.549,-1.549 z" />
<path
   id="path113"
   fill="#f4f4f4"
   d="m 96.532,200.854 c -1.795,0 -3.258,1.461 -3.258,3.258 v 15.992 c 0,1.795 1.461,3.284 3.258,3.284 h 16.02 c 1.795,0 3.257,-1.487 3.257,-3.284 v -15.992 c 0,-1.795 -1.461,-3.258 -3.257,-3.258 z m 0,1.709 h 16.02 c 0.873,0 1.548,0.676 1.548,1.549 v 15.992 c 0,0.873 -0.676,1.576 -1.548,1.576 h -16.02 c -0.873,0 -1.549,-0.704 -1.549,-1.576 v -15.992 c 0,-0.875 0.677,-1.549 1.549,-1.549 z" />
<path
   id="path115"
   fill="#f4f4f4"
   d="m 120.395,200.854 c -1.795,0 -3.257,1.461 -3.257,3.258 v 15.992 c 0,1.796 1.461,3.284 3.257,3.284 h 16.02 c 1.796,0 3.258,-1.487 3.258,-3.284 v -15.992 c 0,-1.797 -1.462,-3.258 -3.258,-3.258 z m 0,1.709 h 16.02 c 0.874,0 1.549,0.676 1.549,1.549 v 15.992 c 0,0.873 -0.675,1.576 -1.549,1.576 h -16.02 c -0.873,0 -1.549,-0.704 -1.549,-1.576 v -15.992 c 0,-0.875 0.675,-1.549 1.549,-1.549 z" />
<path
   id="path117"
   fill="#f4f4f4"
   d="m 144.292,200.854 c -1.794,0 -3.284,1.461 -3.284,3.258 v 15.992 c 0,1.795 1.488,3.284 3.284,3.284 h 15.993 c 1.795,0 3.257,-1.487 3.257,-3.284 v -15.992 c 0,-1.795 -1.461,-3.258 -3.257,-3.258 z m 0,1.709 h 15.993 c 0.873,0 1.548,0.676 1.548,1.549 v 15.992 c 0,0.873 -0.676,1.576 -1.548,1.576 h -15.993 c -0.873,0 -1.575,-0.704 -1.575,-1.576 v -15.992 c -0.001,-0.875 0.702,-1.549 1.575,-1.549 z" />
<path
   id="path119"
   fill="#f4f4f4"
   d="m 168.163,200.854 c -1.796,0 -3.284,1.461 -3.284,3.258 v 15.992 c 0,1.796 1.487,3.284 3.284,3.284 h 15.993 c 1.796,0 3.285,-1.487 3.285,-3.284 v -15.992 c 0,-1.797 -1.488,-3.258 -3.285,-3.258 z m 0,1.709 h 15.993 c 0.874,0 1.576,0.676 1.576,1.549 v 15.992 c 0,0.873 -0.702,1.576 -1.576,1.576 h -15.993 c -0.873,0 -1.575,-0.704 -1.575,-1.576 v -15.992 c 0,-0.875 0.702,-1.549 1.575,-1.549 z" />
<path
   id="path121"
   fill="#f4f4f4"
   d="m 192.034,200.854 c -1.794,0 -3.284,1.461 -3.284,3.258 v 15.992 c 0,1.797 1.489,3.284 3.284,3.284 h 15.993 c 1.796,0 3.284,-1.487 3.284,-3.284 v -15.992 c 0,-1.797 -1.488,-3.258 -3.284,-3.258 z m 0,1.709 h 15.993 c 0.874,0 1.575,0.676 1.575,1.549 v 15.992 c 0,0.873 -0.702,1.576 -1.575,1.576 h -15.993 c -0.871,0 -1.575,-0.704 -1.575,-1.576 v -15.992 c 0,-0.875 0.704,-1.549 1.575,-1.549 z" />
<path
   id="path123"
   fill="#f4f4f4"
   d="m 215.897,200.854 c -1.794,0 -3.257,1.461 -3.257,3.258 v 15.992 c 0,1.796 1.462,3.284 3.257,3.284 h 15.993 c 1.794,0 3.284,-1.487 3.284,-3.284 v -15.992 c 0,-1.797 -1.489,-3.258 -3.284,-3.258 z m 0,1.709 h 15.993 c 0.871,0 1.576,0.676 1.576,1.549 v 15.992 c 0,0.873 -0.705,1.576 -1.576,1.576 h -15.993 c -0.871,0 -1.549,-0.704 -1.549,-1.576 v -15.992 c 0,-0.875 0.677,-1.549 1.549,-1.549 z" />
<path
   id="path125"
   fill="#f4f4f4"
   d="m 239.769,200.854 c -1.795,0 -3.258,1.461 -3.258,3.258 v 15.992 c 0,1.795 1.461,3.284 3.258,3.284 h 16.019 c 1.796,0 3.258,-1.487 3.258,-3.284 v -15.992 c 0,-1.795 -1.461,-3.258 -3.258,-3.258 z m 0,1.709 h 16.019 c 0.875,0 1.549,0.676 1.549,1.549 v 15.992 c 0,0.873 -0.676,1.576 -1.549,1.576 h -16.019 c -0.873,0 -1.549,-0.704 -1.549,-1.576 v -15.992 c 0,-0.875 0.676,-1.549 1.549,-1.549 z" />
<path
   id="path127"
   fill="#f4f4f4"
   d="m 263.64,200.854 c -1.796,0 -3.257,1.461 -3.257,3.258 v 15.992 c 0,1.795 1.461,3.284 3.257,3.284 h 16.02 c 1.795,0 3.256,-1.487 3.256,-3.284 v -15.992 c 0,-1.795 -1.46,-3.258 -3.256,-3.258 z m 0,1.709 h 16.02 c 0.874,0 1.548,0.676 1.548,1.549 v 15.992 c 0,0.873 -0.676,1.576 -1.548,1.576 h -16.02 c -0.871,0 -1.549,-0.704 -1.549,-1.576 v -15.992 c 0,-0.875 0.678,-1.549 1.549,-1.549 z" />
<path
   id="path129"
   fill="#f4f4f4"
   d="m 287.536,200.854 c -1.795,0 -3.283,1.461 -3.283,3.258 v 15.992 c 0,1.796 1.488,3.284 3.283,3.284 h 15.994 c 1.795,0 3.257,-1.487 3.257,-3.284 v -15.992 c 0,-1.797 -1.462,-3.258 -3.257,-3.258 z m 0,1.709 h 15.994 c 0.872,0 1.548,0.676 1.548,1.549 v 15.992 c 0,0.872 -0.678,1.576 -1.548,1.576 h -15.994 c -0.873,0 -1.574,-0.704 -1.574,-1.576 v -15.992 c 0,-0.875 0.701,-1.549 1.574,-1.549 z" />
<path
   id="path131"
   fill="#f4f4f4"
   d="m 311.407,200.854 c -1.794,0 -3.284,1.461 -3.284,3.258 v 15.992 c 0,1.795 1.489,3.284 3.284,3.284 H 327.4 c 1.796,0 3.284,-1.487 3.284,-3.284 v -15.992 c 0,-1.795 -1.488,-3.258 -3.284,-3.258 z m 0,1.709 H 327.4 c 0.873,0 1.575,0.676 1.575,1.549 v 15.992 c 0,0.873 -0.702,1.576 -1.575,1.576 h -15.993 c -0.872,0 -1.574,-0.704 -1.574,-1.576 v -15.992 c 0,-0.875 0.702,-1.549 1.574,-1.549 z" />
<path
   id="path133"
   fill="#f4f4f4"
   d="m 335.271,200.854 c -1.794,0 -3.258,1.461 -3.258,3.258 v 15.992 c 0,1.796 1.462,3.284 3.258,3.284 h 15.993 c 1.796,0 3.284,-1.487 3.284,-3.284 v -15.992 c 0,-1.795 -1.488,-3.258 -3.284,-3.258 z m 0,1.709 h 15.993 c 0.872,0 1.575,0.676 1.575,1.549 v 15.992 c 0,0.873 -0.703,1.576 -1.575,1.576 h -15.993 c -0.873,0 -1.549,-0.704 -1.549,-1.576 v -15.992 c 0,-0.875 0.675,-1.549 1.549,-1.549 z" />
<path
   id="path135"
   fill="#f4f4f4"
   d="m 359.141,200.854 c -1.793,0 -3.257,1.461 -3.257,3.258 v 15.992 c 0,1.795 1.462,3.284 3.257,3.284 h 16.021 c 1.796,0 3.258,-1.487 3.258,-3.284 v -15.992 c 0,-1.795 -1.462,-3.258 -3.258,-3.258 z m 0,1.709 h 16.021 c 0.872,0 1.548,0.676 1.548,1.549 v 15.992 c 0,0.873 -0.676,1.576 -1.548,1.576 h -16.021 c -0.872,0 -1.548,-0.704 -1.548,-1.576 v -15.992 c 0,-0.875 0.676,-1.549 1.548,-1.549 z" />
<path
   id="path137"
   fill="#f4f4f4"
   d="m 48.79,224.725 c -1.796,0 -3.284,1.487 -3.284,3.284 v 15.992 c 0,1.796 1.488,3.285 3.284,3.285 h 27.26 c 1.795,0 3.284,-1.488 3.284,-3.285 v -15.992 c 0,-1.796 -1.487,-3.284 -3.284,-3.284 z m 0,1.708 h 27.26 c 0.872,0 1.575,0.704 1.575,1.576 v 15.992 c 0,0.874 -0.703,1.577 -1.575,1.577 H 48.79 c -0.873,0 -1.576,-0.704 -1.576,-1.577 v -15.992 c 0,-0.872 0.704,-1.576 1.576,-1.576 z" />
<path
   id="path139"
   fill="#f4f4f4"
   d="m 83.925,224.725 c -1.795,0 -3.257,1.487 -3.257,3.284 v 15.992 c 0,1.796 1.461,3.285 3.257,3.285 h 16.02 c 1.796,0 3.257,-1.488 3.257,-3.285 v -15.992 c 0,-1.796 -1.46,-3.284 -3.257,-3.284 z m 0,1.708 h 16.02 c 0.872,0 1.548,0.704 1.548,1.576 v 15.992 c 0,0.874 -0.675,1.577 -1.548,1.577 h -16.02 c -0.873,0 -1.548,-0.704 -1.548,-1.577 v -15.992 c 0,-0.872 0.677,-1.576 1.548,-1.576 z" />
<path
   id="path141"
   fill="#f4f4f4"
   d="m 107.793,224.725 c -1.796,0 -3.257,1.487 -3.257,3.284 v 15.992 c 0,1.796 1.46,3.285 3.257,3.285 h 16.019 c 1.796,0 3.258,-1.488 3.258,-3.285 v -15.992 c 0,-1.796 -1.461,-3.284 -3.258,-3.284 z m 0,1.708 h 16.019 c 0.873,0 1.548,0.704 1.548,1.576 v 15.992 c 0,0.874 -0.675,1.577 -1.548,1.577 h -16.019 c -0.873,0 -1.549,-0.704 -1.549,-1.577 v -15.992 c 0,-0.872 0.677,-1.576 1.549,-1.576 z" />
<path
   id="path143"
   fill="#f4f4f4"
   d="m 131.69,224.725 c -1.796,0 -3.284,1.489 -3.284,3.284 v 15.992 c 0,1.796 1.488,3.285 3.284,3.285 h 15.993 c 1.796,0 3.257,-1.488 3.257,-3.285 v -15.992 c 0,-1.796 -1.46,-3.284 -3.257,-3.284 z m 0,1.708 h 15.993 c 0.873,0 1.549,0.704 1.549,1.576 v 15.992 c 0,0.874 -0.675,1.577 -1.549,1.577 H 131.69 c -0.874,0 -1.575,-0.704 -1.575,-1.577 v -15.992 c 0,-0.873 0.701,-1.576 1.575,-1.576 z" />
<path
   id="path145"
   fill="#f4f4f4"
   d="m 155.561,224.725 c -1.796,0 -3.284,1.489 -3.284,3.284 v 15.992 c 0,1.796 1.487,3.285 3.284,3.285 h 15.993 c 1.796,0 3.284,-1.488 3.284,-3.285 v -15.992 c 0,-1.796 -1.487,-3.284 -3.284,-3.284 z m 0,1.708 h 15.993 c 0.873,0 1.575,0.704 1.575,1.576 v 15.992 c 0,0.874 -0.702,1.577 -1.575,1.577 h -15.993 c -0.872,0 -1.575,-0.704 -1.575,-1.577 v -15.992 c -10e-4,-0.873 0.702,-1.576 1.575,-1.576 z" />
<path
   id="path147"
   fill="#f4f4f4"
   d="m 179.432,224.725 c -1.796,0 -3.284,1.489 -3.284,3.284 v 15.992 c 0,1.796 1.488,3.285 3.284,3.285 h 15.993 c 1.796,0 3.284,-1.488 3.284,-3.285 v -15.992 c 0,-1.796 -1.488,-3.284 -3.284,-3.284 z m 0,1.708 h 15.993 c 0.873,0 1.575,0.704 1.575,1.576 v 15.992 c 0,0.874 -0.702,1.577 -1.575,1.577 h -15.993 c -0.873,0 -1.575,-0.704 -1.575,-1.577 v -15.992 c 0,-0.873 0.702,-1.576 1.575,-1.576 z" />
<path
   id="path149"
   fill="#f4f4f4"
   d="m 203.294,224.725 c -1.795,0 -3.257,1.487 -3.257,3.284 v 15.992 c 0,1.796 1.461,3.285 3.257,3.285 h 15.994 c 1.795,0 3.284,-1.488 3.284,-3.285 v -15.992 c 0,-1.795 -1.488,-3.284 -3.284,-3.284 z m 0,1.708 h 15.994 c 0.872,0 1.576,0.704 1.576,1.576 v 15.992 c 0,0.874 -0.704,1.577 -1.576,1.577 h -15.994 c -0.873,0 -1.548,-0.704 -1.548,-1.577 v -15.992 c 0,-0.872 0.677,-1.576 1.548,-1.576 z" />
<path
   id="path151"
   fill="#f4f4f4"
   d="m 227.166,224.725 c -1.795,0 -3.257,1.487 -3.257,3.284 v 15.992 c 0,1.797 1.461,3.285 3.257,3.285 h 16.02 c 1.796,0 3.257,-1.488 3.257,-3.285 v -15.992 c 0,-1.795 -1.46,-3.284 -3.257,-3.284 z m 0,1.708 h 16.02 c 0.873,0 1.549,0.704 1.549,1.576 v 15.992 c 0,0.874 -0.677,1.577 -1.549,1.577 h -16.02 c -0.871,0 -1.548,-0.704 -1.548,-1.577 v -15.992 c 0,-0.872 0.676,-1.576 1.548,-1.576 z" />
<path
   id="path153"
   fill="#f4f4f4"
   d="m 251.063,224.725 c -1.796,0 -3.284,1.487 -3.284,3.284 v 15.992 c 0,1.796 1.487,3.285 3.284,3.285 h 15.993 c 1.795,0 3.257,-1.488 3.257,-3.285 v -15.992 c 0,-1.795 -1.46,-3.284 -3.257,-3.284 z m 0,1.708 h 15.993 c 0.872,0 1.548,0.704 1.548,1.576 v 15.992 c 0,0.874 -0.676,1.577 -1.548,1.577 h -15.993 c -0.873,0 -1.575,-0.704 -1.575,-1.577 v -15.992 c 0,-0.872 0.703,-1.576 1.575,-1.576 z" />
<path
   id="path155"
   fill="#f4f4f4"
   d="m 274.934,224.725 c -1.795,0 -3.283,1.487 -3.283,3.284 v 15.992 c 0,1.797 1.488,3.285 3.283,3.285 h 15.993 c 1.796,0 3.258,-1.488 3.258,-3.285 v -15.992 c 0,-1.795 -1.46,-3.284 -3.258,-3.284 z m 0,1.708 h 15.993 c 0.873,0 1.55,0.704 1.55,1.576 v 15.992 c 0,0.874 -0.677,1.577 -1.55,1.577 h -15.993 c -0.872,0 -1.574,-0.704 -1.574,-1.577 v -15.992 c -0.001,-0.872 0.703,-1.576 1.574,-1.576 z" />
<path
   id="path157"
   fill="#f4f4f4"
   d="m 298.797,224.725 c -1.795,0 -3.283,1.487 -3.283,3.284 v 15.992 c 0,1.796 1.488,3.285 3.283,3.285 h 15.993 c 1.796,0 3.284,-1.488 3.284,-3.285 v -0.854 -15.139 c 0,-1.795 -1.487,-3.284 -3.284,-3.284 h -15.993 z m 0,1.708 h 15.993 c 0.872,0 1.576,0.704 1.576,1.576 v 15.992 c 0,0.874 -0.704,1.577 -1.576,1.577 h -15.993 c -0.873,0 -1.575,-0.704 -1.575,-1.577 v -15.992 c 0,-0.872 0.704,-1.576 1.575,-1.576 z" />
<path
   id="path159"
   fill="#f4f4f4"
   d="m 322.669,224.725 c -1.796,0 -3.258,1.487 -3.258,3.284 v 15.992 c 0,1.797 1.462,3.285 3.258,3.285 h 15.992 c 1.795,0 3.284,-1.488 3.284,-3.285 v -15.992 c 0,-1.795 -1.487,-3.284 -3.284,-3.284 z m 0,1.708 h 15.992 c 0.873,0 1.575,0.704 1.575,1.576 v 15.992 c 0,0.874 -0.702,1.577 -1.575,1.577 h -15.992 c -0.874,0 -1.55,-0.704 -1.55,-1.577 v -15.992 c 0,-0.872 0.678,-1.576 1.55,-1.576 z" />
<path
   id="path161"
   fill="#f4f4f4"
   d="m 346.539,224.725 c -1.795,0 -3.257,1.487 -3.257,3.284 v 15.992 c 0,1.796 1.462,3.285 3.257,3.285 h 28.89 c 1.795,0 3.283,-1.488 3.283,-3.285 v -15.992 c 0,-1.795 -1.486,-3.284 -3.283,-3.284 z m 0,1.708 h 28.89 c 0.872,0 1.574,0.704 1.574,1.576 v 15.992 c 0,0.874 -0.702,1.577 -1.574,1.577 h -28.89 c -0.873,0 -1.549,-0.704 -1.549,-1.577 v -15.992 c 0,-0.872 0.678,-1.576 1.549,-1.576 z" />
<path
   id="path163"
   fill="#f4f4f4"
   d="m 83.952,248.621 c -1.795,0 -3.284,1.462 -3.284,3.258 v 16.02 c 0,1.796 1.488,3.258 3.284,3.258 h 15.993 c 1.796,0 3.284,-1.462 3.284,-3.258 v -0.854 -15.165 c 0,-1.796 -1.487,-3.258 -3.284,-3.258 H 83.952 Z m 0,1.71 h 15.993 c 0.872,0 1.575,0.677 1.575,1.548 v 16.02 c 0,0.873 -0.703,1.549 -1.575,1.549 H 83.952 c -0.872,0 -1.575,-0.678 -1.575,-1.549 v -16.02 c 0,-0.871 0.703,-1.548 1.575,-1.548 z" />
<path
   id="path165"
   fill="#f4f4f4"
   d="m 107.818,248.621 c -1.795,0 -3.284,1.462 -3.284,3.258 v 16.02 c 0,1.796 1.488,3.258 3.284,3.258 h 15.994 c 1.795,0 3.284,-1.462 3.284,-3.258 v -16.02 c 0,-1.796 -1.489,-3.258 -3.284,-3.258 z m 0,1.71 h 15.994 c 0.872,0 1.575,0.677 1.575,1.548 v 16.02 c 0,0.873 -0.704,1.549 -1.575,1.549 h -15.994 c -0.872,0 -1.575,-0.678 -1.575,-1.549 v -16.02 c 0,-0.871 0.703,-1.548 1.575,-1.548 z" />
<path
   id="path167"
   fill="#f4f4f4"
   d="m 131.69,248.621 c -1.796,0 -3.257,1.462 -3.257,3.258 v 16.02 c 0,1.796 1.461,3.258 3.257,3.258 h 186.279 c 1.796,0 3.284,-1.462 3.284,-3.258 v -16.02 c 0,-1.795 -1.486,-3.258 -3.284,-3.258 z m 0,1.71 h 186.279 c 0.873,0 1.575,0.677 1.575,1.548 v 16.02 c 0,0.873 -0.702,1.549 -1.575,1.549 H 131.69 c -0.872,0 -1.549,-0.678 -1.549,-1.549 v -16.02 c 0,-0.871 0.677,-1.548 1.549,-1.548 z" />
<path
   id="path169"
   fill="#f4f4f4"
   d="m 36.588,176.956 c -1.795,0 -3.284,1.461 -3.284,3.258 v 16.02 c 0,1.796 1.489,3.258 3.284,3.258 h 22.027 c 1.49,0 2.708,-1.032 3.097,-2.403 h 0.187 v -0.854 -16.02 c 0,-1.796 -1.487,-3.258 -3.284,-3.258 H 36.588 Z m 0,1.709 h 22.027 c 0.873,0 1.575,0.677 1.575,1.549 v 15.165 0.854 c 0,0.873 -0.702,1.549 -1.575,1.549 H 36.588 c -0.871,0 -1.575,-0.678 -1.575,-1.549 v -16.02 c 0,-0.872 0.704,-1.548 1.575,-1.548 z" />
<path
   id="path171"
   fill="#f4f4f4"
   d="m 66.491,176.956 c -1.795,0 -3.284,1.461 -3.284,3.258 v 16.02 c 0,1.796 1.488,3.258 3.284,3.258 h 15.993 c 1.796,0 3.284,-1.462 3.284,-3.258 v -16.02 c 0,-1.796 -1.487,-3.258 -3.284,-3.258 z m 0,1.709 h 15.993 c 0.873,0 1.575,0.677 1.575,1.549 v 16.02 c 0,0.873 -0.702,1.549 -1.575,1.549 H 66.491 c -0.873,0 -1.575,-0.677 -1.575,-1.549 v -16.02 c 0,-0.873 0.703,-1.549 1.575,-1.549 z" />
<path
   id="path173"
   fill="#f4f4f4"
   d="m 90.363,176.956 c -1.795,0 -3.257,1.461 -3.257,3.258 v 16.02 c 0,1.796 1.461,3.258 3.257,3.258 h 15.993 c 1.796,0 3.284,-1.462 3.284,-3.258 v -16.02 c 0,-1.796 -1.487,-3.258 -3.284,-3.258 z m 0,1.709 h 15.993 c 0.873,0 1.575,0.677 1.575,1.549 v 16.02 c 0,0.873 -0.702,1.549 -1.575,1.549 H 90.363 c -0.873,0 -1.548,-0.677 -1.548,-1.549 v -16.02 c 0,-0.873 0.676,-1.549 1.548,-1.549 z" />
<path
   id="path175"
   fill="#f4f4f4"
   d="m 114.226,176.956 c -1.796,0 -3.257,1.462 -3.257,3.258 v 16.02 c 0,1.795 1.461,3.258 3.257,3.258 h 16.02 c 1.796,0 3.257,-1.462 3.257,-3.258 v -16.02 c 0,-1.796 -1.461,-3.258 -3.257,-3.258 z m 0,1.709 h 16.02 c 0.873,0 1.548,0.677 1.548,1.549 v 16.02 c 0,0.873 -0.675,1.549 -1.548,1.549 h -16.02 c -0.873,0 -1.548,-0.676 -1.548,-1.549 v -16.02 c 0,-0.874 0.675,-1.549 1.548,-1.549 z" />
<path
   id="path177"
   fill="#f4f4f4"
   d="m 138.097,176.956 c -1.795,0 -3.257,1.461 -3.257,3.258 v 16.02 c 0,1.796 1.461,3.258 3.257,3.258 h 16.02 c 1.796,0 3.258,-1.462 3.258,-3.258 v -16.02 c 0,-1.796 -1.461,-3.258 -3.258,-3.258 z m 0,1.709 h 16.02 c 0.875,0 1.549,0.676 1.549,1.549 v 16.02 c 0,0.873 -0.675,1.549 -1.549,1.549 h -16.02 c -0.873,0 -1.548,-0.677 -1.548,-1.549 v -16.02 c 0,-0.873 0.676,-1.549 1.548,-1.549 z" />
<path
   id="path179"
   fill="#f4f4f4"
   d="m 161.994,176.956 c -1.796,0 -3.284,1.462 -3.284,3.258 v 16.02 c 0,1.795 1.487,3.258 3.284,3.258 h 15.993 c 1.796,0 3.257,-1.462 3.257,-3.258 v -16.02 c 0,-1.796 -1.461,-3.258 -3.257,-3.258 z m 0,1.709 h 15.993 c 0.873,0 1.548,0.677 1.548,1.549 v 16.02 c 0,0.873 -0.675,1.549 -1.548,1.549 h -15.993 c -0.874,0 -1.575,-0.676 -1.575,-1.549 v -16.02 c 0,-0.874 0.701,-1.549 1.575,-1.549 z" />
<path
   id="path181"
   fill="#f4f4f4"
   d="m 185.866,176.956 c -1.795,0 -3.284,1.461 -3.284,3.258 v 16.02 c 0,1.796 1.488,3.258 3.284,3.258 h 15.993 c 1.796,0 3.285,-1.462 3.285,-3.258 v -16.02 c 0,-1.796 -1.488,-3.258 -3.285,-3.258 z m 0,1.709 h 15.993 c 0.873,0 1.576,0.676 1.576,1.549 v 16.02 c 0,0.873 -0.704,1.549 -1.576,1.549 h -15.993 c -0.873,0 -1.575,-0.677 -1.575,-1.549 v -16.02 c 0,-0.873 0.703,-1.549 1.575,-1.549 z" />
<path
   id="path183"
   fill="#f4f4f4"
   d="m 209.737,176.956 c -1.795,0 -3.257,1.461 -3.257,3.258 v 16.02 c 0,1.796 1.462,3.258 3.257,3.258 h 15.993 c 1.796,0 3.284,-1.462 3.284,-3.258 v -16.02 c 0,-1.796 -1.487,-3.258 -3.284,-3.258 z m 0,1.709 h 15.993 c 0.873,0 1.575,0.677 1.575,1.549 v 16.02 c 0,0.873 -0.702,1.549 -1.575,1.549 h -15.993 c -0.872,0 -1.548,-0.678 -1.548,-1.549 v -16.02 c -0.001,-0.873 0.676,-1.549 1.548,-1.549 z" />
<path
   id="path185"
   fill="#f4f4f4"
   d="m 233.6,176.956 c -1.795,0 -3.258,1.461 -3.258,3.258 v 16.02 c 0,1.796 1.462,3.258 3.258,3.258 h 15.993 c 1.796,0 3.284,-1.462 3.284,-3.258 v -16.02 c 0,-1.796 -1.487,-3.258 -3.284,-3.258 z m 0,1.709 h 15.993 c 0.873,0 1.575,0.676 1.575,1.549 v 16.02 c 0,0.873 -0.703,1.549 -1.575,1.549 H 233.6 c -0.873,0 -1.549,-0.677 -1.549,-1.549 v -16.02 c 0,-0.873 0.677,-1.549 1.549,-1.549 z" />
<path
   id="path187"
   fill="#f4f4f4"
   d="m 257.472,176.956 c -1.796,0 -3.258,1.461 -3.258,3.258 v 16.02 c 0,1.796 1.461,3.258 3.258,3.258 h 16.02 c 1.795,0 3.257,-1.462 3.257,-3.258 v -16.02 c 0,-1.796 -1.462,-3.258 -3.257,-3.258 z m 0,1.709 h 16.02 c 0.873,0 1.548,0.676 1.548,1.549 v 16.02 c 0,0.873 -0.677,1.549 -1.548,1.549 h -16.02 c -0.873,0 -1.549,-0.678 -1.549,-1.549 v -16.02 c 0,-0.873 0.676,-1.549 1.549,-1.549 z" />
<path
   id="path189"
   fill="#f4f4f4"
   d="m 281.343,176.956 c -1.796,0 -3.258,1.461 -3.258,3.258 v 16.02 c 0,1.796 1.462,3.258 3.258,3.258 h 16.019 c 1.797,0 3.259,-1.462 3.259,-3.258 v -16.02 c 0,-1.796 -1.462,-3.258 -3.259,-3.258 z m 0,1.709 h 16.019 c 0.873,0 1.55,0.676 1.55,1.549 v 16.02 c 0,0.873 -0.677,1.549 -1.55,1.549 h -16.019 c -0.874,0 -1.55,-0.677 -1.55,-1.549 v -16.02 c 0,-0.873 0.676,-1.549 1.55,-1.549 z" />
<path
   id="path191"
   fill="#f4f4f4"
   d="m 305.24,176.956 c -1.796,0 -3.284,1.461 -3.284,3.258 v 16.02 c 0,1.796 1.486,3.258 3.284,3.258 h 15.993 c 1.794,0 3.258,-1.462 3.258,-3.258 v -16.02 c 0,-1.796 -1.462,-3.258 -3.258,-3.258 z m 0,1.709 h 15.993 c 0.872,0 1.548,0.676 1.548,1.549 v 16.02 c 0,0.873 -0.677,1.549 -1.548,1.549 H 305.24 c -0.874,0 -1.576,-0.678 -1.576,-1.549 v -16.02 c 0,-0.873 0.703,-1.549 1.576,-1.549 z" />
<path
   id="path193"
   fill="#f4f4f4"
   d="m 329.103,176.956 c -1.795,0 -3.283,1.461 -3.283,3.258 v 16.02 c 0,1.796 1.486,3.258 3.283,3.258 h 15.993 c 1.794,0 3.284,-1.461 3.284,-3.258 v -16.02 c 0,-1.796 -1.489,-3.258 -3.284,-3.258 z m 0,1.709 h 15.993 c 0.873,0 1.575,0.677 1.575,1.549 v 16.02 c 0,0.873 -0.704,1.549 -1.575,1.549 h -15.993 c -0.874,0 -1.577,-0.677 -1.577,-1.549 v -16.02 c -0.001,-0.873 0.704,-1.549 1.577,-1.549 z" />
<path
   id="path195"
   fill="#f4f4f4"
   d="m 352.974,176.956 c -1.796,0 -3.257,1.461 -3.257,3.258 v 16.02 c 0,1.796 1.46,3.258 3.257,3.258 h 28.488 c 1.794,0 3.258,-1.462 3.258,-3.258 v -16.02 c 0,-1.796 -1.462,-3.258 -3.258,-3.258 z m 0,1.709 h 28.488 c 0.873,0 1.549,0.676 1.549,1.549 v 16.02 c 0,0.873 -0.677,1.549 -1.549,1.549 h -28.488 c -0.872,0 -1.548,-0.677 -1.548,-1.549 v -16.02 c 0,-0.873 0.676,-1.549 1.548,-1.549 z" />
<path
   id="path197"
   fill="#f4f4f4"
   d="m 52.767,117.953 c -1.796,0 -3.257,1.461 -3.257,3.257 v 16.02 c 0,1.795 1.461,3.257 3.257,3.257 h 25.685 c 1.794,0 3.257,-1.461 3.257,-3.257 v -16.02 c 0,-1.796 -1.462,-3.257 -3.257,-3.257 z m 0,1.71 h 25.685 c 0.871,0 1.548,0.675 1.548,1.548 v 16.02 c 0,0.873 -0.677,1.549 -1.548,1.549 H 52.767 c -0.873,0 -1.548,-0.676 -1.548,-1.549 v -16.02 c 0,-0.874 0.676,-1.548 1.548,-1.548 z" />
<path
   id="path199"
   fill="#f4f4f4"
   d="m 87.93,117.953 c -1.796,0 -3.284,1.461 -3.284,3.257 v 16.02 c 0,1.794 1.488,3.257 3.284,3.257 h 25.658 c 1.795,0 3.284,-1.461 3.284,-3.257 v -16.02 c 0,-1.796 -1.489,-3.257 -3.284,-3.257 z m 0,1.71 h 25.658 c 0.871,0 1.575,0.675 1.575,1.548 v 16.02 c 0,0.873 -0.704,1.549 -1.575,1.549 H 87.93 c -0.873,0 -1.576,-0.676 -1.576,-1.549 v -16.02 c 0,-0.874 0.704,-1.548 1.576,-1.548 z" />
<path
   id="path201"
   fill="#f4f4f4"
   d="m 123.069,117.953 c -1.796,0 -3.257,1.462 -3.257,3.257 v 16.02 c 0,1.794 1.46,3.257 3.257,3.257 h 25.684 c 1.795,0 3.257,-1.461 3.257,-3.257 v -16.02 c 0,-1.796 -1.462,-3.257 -3.257,-3.257 z m 0,1.71 h 25.684 c 0.872,0 1.548,0.675 1.548,1.548 v 16.02 c 0,0.873 -0.677,1.549 -1.548,1.549 h -25.684 c -0.874,0 -1.549,-0.676 -1.549,-1.549 v -16.02 c 0.001,-0.875 0.677,-1.548 1.549,-1.548 z" />
<path
   id="path203"
   fill="#f4f4f4"
   d="m 158.227,117.953 c -1.796,0 -3.285,1.462 -3.285,3.257 v 16.02 c 0,1.794 1.488,3.257 3.285,3.257 h 25.657 c 1.796,0 3.285,-1.461 3.285,-3.257 v -0.854 -15.166 c 0,-1.796 -1.489,-3.257 -3.285,-3.257 z m 0,1.71 h 25.657 c 0.872,0 1.576,0.675 1.576,1.548 v 16.02 c 0,0.873 -0.703,1.549 -1.576,1.549 h -25.657 c -0.874,0 -1.576,-0.676 -1.576,-1.549 v -16.02 c 0,-0.875 0.703,-1.548 1.576,-1.548 z" />
<path
   id="path205"
   fill="#f4f4f4"
   d="m 193.367,117.953 c -1.795,0 -3.257,1.461 -3.257,3.257 v 16.02 c 0,1.794 1.461,3.257 3.257,3.257 h 25.685 c 1.795,0 3.257,-1.461 3.257,-3.257 v -16.02 c 0,-1.795 -1.461,-3.257 -3.257,-3.257 z m 0,1.71 h 25.685 c 0.873,0 1.548,0.674 1.548,1.548 v 16.02 c 0,0.873 -0.676,1.549 -1.548,1.549 h -25.685 c -0.872,0 -1.548,-0.676 -1.548,-1.549 v -16.02 c -10e-4,-0.874 0.676,-1.548 1.548,-1.548 z" />
<path
   id="path207"
   fill="#f4f4f4"
   d="m 317.919,117.953 c -1.795,0 -3.283,1.461 -3.283,3.257 v 16.02 c 0,1.796 1.488,3.257 3.283,3.257 h 25.657 c 1.797,0 3.257,-1.461 3.257,-3.257 v -16.02 c 0,-1.795 -1.46,-3.257 -3.257,-3.257 z m 0,1.71 h 25.657 c 0.874,0 1.548,0.674 1.548,1.548 v 16.02 c 0,0.873 -0.674,1.549 -1.548,1.549 h -25.657 c -0.871,0 -1.575,-0.676 -1.575,-1.549 v -16.02 c 0,-0.873 0.704,-1.548 1.575,-1.548 z" />
<path
   id="path209"
   fill="#f4f4f4"
   d="m 353.05,117.953 c -1.795,0 -3.257,1.461 -3.257,3.257 v 16.02 c 0,1.796 1.462,3.257 3.257,3.257 h 25.684 c 1.796,0 3.258,-1.461 3.258,-3.257 v -16.02 c 0,-1.794 -1.46,-3.257 -3.258,-3.257 z m 0,1.71 h 25.684 c 0.873,0 1.549,0.674 1.549,1.548 v 16.02 c 0,0.873 -0.676,1.549 -1.549,1.549 H 353.05 c -0.872,0 -1.548,-0.676 -1.548,-1.549 v -16.02 c 0,-0.873 0.678,-1.548 1.548,-1.548 z" />
<path
   id="path211"
   fill="#f4f4f4"
   d="m 442.845,170.549 c -3.623,0 -7.254,1.384 -10.013,4.135 l -24.675,24.675 c -5.514,5.513 -5.514,14.481 0,19.997 l 24.296,24.271 c 5.516,5.516 14.484,5.513 19.998,0 l 24.671,-24.671 c 5.507,-5.506 5.515,-14.453 0.026,-19.972 l -0.026,-0.026 -24.297,-24.269 c -2.757,-2.758 -6.365,-4.139 -9.986,-4.139 z m 0,1.682 c 3.181,0 6.354,1.228 8.784,3.657 l 24.297,24.297 c 4.862,4.862 4.862,12.706 0,17.568 l -24.671,24.669 c -4.861,4.862 -12.707,4.864 -17.567,0 l -24.296,-24.296 c -4.862,-4.862 -4.86,-12.709 0,-17.567 l 24.669,-24.671 c 2.431,-2.431 5.604,-3.657 8.784,-3.657 z" />
<g
   id="g213"
   transform="translate(-44,-14)">
	<path
   id="path215"
   fill="#f4f4f4"
   d="m 486.657,185.882 c -3.104,0 -6.207,1.187 -8.569,3.551 l -12.202,12.201 -0.16,0.16 -0.454,0.427 0.026,0.027 -0.16,0.133 -12.201,12.201 c -4.728,4.729 -4.728,12.413 0,17.142 l 12.201,12.201 0.16,0.134 -0.026,0.026 0.454,0.427 0.16,0.16 12.202,12.201 c 4.727,4.729 12.413,4.729 17.141,0 l 12.199,-12.201 0.16,-0.16 0.428,-0.427 0.16,-0.16 12.202,-12.201 c 4.728,-4.728 4.728,-12.412 0,-17.14 l -12.202,-12.202 -0.16,-0.16 -0.428,-0.427 -0.16,-0.161 -12.199,-12.199 c -2.364,-2.364 -5.467,-3.551 -8.571,-3.551 v -0.002 z m 0,1.709 c 2.664,0 5.332,1.007 7.369,3.044 l 11.586,11.585 -18.957,18.958 -18.955,-18.958 11.586,-11.585 c 2.038,-2.037 4.705,-3.044 7.369,-3.044 z m -20.931,16.607 18.957,18.956 -18.957,18.957 -11.588,-11.587 c -4.073,-4.075 -4.073,-10.662 0,-14.738 l 11.586,-11.594 z m 41.864,0 11.586,11.587 c 4.075,4.074 4.075,10.662 0,14.738 l -11.584,11.593 -18.96,-18.959 18.96,-18.957 z m -20.933,20.906 18.957,18.983 -11.588,11.586 c -4.073,4.077 -10.662,4.077 -14.738,0 l -11.594,-11.61 18.96,-18.959 z" />
</g>
<path
   id="path217"
   fill="#f4f4f4"
   d="m 407.628,168.438 c -3.129,0 -5.687,2.558 -5.687,5.687 v 70.061 c 0,3.129 2.558,5.687 5.687,5.687 h 70.059 c 3.132,0 5.687,-2.558 5.687,-5.687 v -70.061 c 0,-3.129 -2.555,-5.687 -5.687,-5.687 z m 0,1.708 h 70.059 c 2.207,0 3.979,1.772 3.979,3.978 v 70.061 c 0,2.206 -1.771,3.979 -3.979,3.979 h -70.059 c -2.204,0 -3.979,-1.773 -3.979,-3.979 v -70.061 c 0,-2.205 1.775,-3.978 3.979,-3.978 z" />
<path
   id="path219"
   fill="#f4f4f4"
   d="m 33.25,123.584 c -0.908,0 -1.655,0.75 -1.655,1.656 v 6.968 c 0,0.905 0.749,1.682 1.655,1.682 h 9.131 c 0.907,0 1.655,-0.776 1.655,-1.682 v -6.968 c 0,-0.906 -0.748,-1.656 -1.655,-1.656 z m 0.053,1.709 h 9.024 v 6.889 h -9.024 z" />
<path
   id="path221"
   fill="#f4f4f4"
   d="m 24.119,208.653 c -0.906,0 -1.655,0.776 -1.655,1.683 v 2.67 c 0,0.905 0.75,1.655 1.655,1.655 h 7.796 c 0.905,0 1.655,-0.747 1.655,-1.655 v -2.67 c 0,-0.907 -0.748,-1.683 -1.655,-1.683 z" />
<path
   id="path223"
   fill="#f4f4f4"
   d="m 387.789,208.653 c -0.906,0 -1.656,0.776 -1.656,1.683 v 2.67 c 0,0.905 0.751,1.655 1.656,1.655 h 7.769 c 0.906,0 1.656,-0.747 1.656,-1.655 v -2.67 c 0,-0.906 -0.748,-1.683 -1.656,-1.683 z" />
<path
   id="line233"
   fill="#f4f4f4"
   d="m 7.779,96.594 v 4.486 h 1.709 v -4.486 z" />
<path
   id="line235"
   fill="#f4f4f4"
   d="m 499.927,96.329 v 4.699 h 1.709 v -4.699 z" />
<path
   id="path237"
   fill="#f4f4f4"
   d="m 325.42,30.779 c -0.906,0 -1.655,0.775 -1.655,1.682 v 14.178 c 0,0.906 0.749,1.655 1.655,1.655 h 0.508 c 0.905,0 1.654,-0.75 1.654,-1.655 V 32.461 c 0,-0.905 -0.749,-1.682 -1.654,-1.682 z m 0.054,1.709 h 0.4 v 14.098 h -0.4 z" />
<path
   id="path239"
   fill="#f4f4f4"
   d="m 430.294,30.779 c -0.906,0 -1.655,0.777 -1.655,1.682 v 14.178 c 0,0.905 0.749,1.655 1.655,1.655 h 0.508 c 0.906,0 1.655,-0.749 1.655,-1.655 V 32.461 c 0,-0.906 -0.749,-1.682 -1.655,-1.682 z m 0.054,1.709 h 0.4 v 14.098 h -0.4 z" />
</svg>
