<?xml version="1.0" encoding="UTF-8" standalone="no"?>
<!-- Generator: Adobe Illustrator 13.0.0, SVG Export Plug-In . SVG Version: 6.00 Build 14948)  -->

<svg
   version="1.2"
   id="Layer_3"
   x="0px"
   y="0px"
   width="585.18903"
   height="221.25999"
   viewBox="0 0 585.189 221.25998"
   xml:space="preserve"
   sodipodi:docname="pc.svg"
   inkscape:version="1.2.2 (732a01da63, 2022-12-09)"
   xmlns:inkscape="http://www.inkscape.org/namespaces/inkscape"
   xmlns:sodipodi="http://sodipodi.sourceforge.net/DTD/sodipodi-0.dtd"
   xmlns="http://www.w3.org/2000/svg"
   xmlns:svg="http://www.w3.org/2000/svg"
   xmlns:rdf="http://www.w3.org/1999/02/22-rdf-syntax-ns#"
   xmlns:cc="http://creativecommons.org/ns#"
   xmlns:dc="http://purl.org/dc/elements/1.1/"
   xmlns:ns="&amp;ns_sfw;"><defs
   id="defs76" /><sodipodi:namedview
   id="namedview74"
   pagecolor="#000000"
   bordercolor="#111111"
   borderopacity="1"
   inkscape:showpageshadow="0"
   inkscape:pageopacity="0"
   inkscape:pagecheckerboard="1"
   inkscape:deskcolor="#d1d1d1"
   showgrid="false"
   inkscape:zoom="2.0445042"
   inkscape:cx="299.58363"
   inkscape:cy="175.10357"
   inkscape:window-width="1920"
   inkscape:window-height="1009"
   inkscape:window-x="-8"
   inkscape:window-y="-8"
   inkscape:window-maximized="1"
   inkscape:current-layer="Layer_3" />
<metadata
   id="metadata55">
	<rdf:RDF>
		<cc:Work
   rdf:about="">
			<dc:format>image/svg+xml</dc:format>
			<dc:type
   rdf:resource="http://purl.org/dc/dcmitype/StillImage" />
			
		</cc:Work>
	</rdf:RDF>
	<ns:sfw>
		<ns:slices />
		<ns:sliceSourceBounds
   x="-7231"
   y="-7652"
   width="16383"
   height="16383"
   bottomLeftOrigin="true" />
	</ns:sfw>
</metadata>






























































<g
   id="g413"
   transform="matrix(7.2089153,0,0,6.0664695,-67.707388,-192.77867)"
   style="stroke:#ffffff;stroke-width:0.438526;stroke-dasharray:none;stroke-opacity:1"><path
     d="m 10,58.5 c 0,2.1 1.6,3.8 3.7,3.8 h 52 c 2.1,0 3.8,-1.7 3.8,-3.8 v -26 H 10 Z m 2,-24 h 55.4 v 23.9 c 0,1 -0.8,1.8 -1.8,1.8 h -52 c -1,0 -1.7,-0.8 -1.7,-1.8 V 34.5 Z"
     id="path305"
     style="stroke:#ffffff;stroke-width:0.438526;stroke-dasharray:none;stroke-opacity:1" /><path
     d="m 41.2,37 c 0,-0.3 -0.2,-0.5 -0.5,-0.5 h -1.9 c -0.3,0 -0.5,0.2 -0.5,0.5 v 2 c 0,0.3 0.2,0.5 0.5,0.5 h 1.9 c 0.3,0 0.5,-0.2 0.5,-0.5 z"
     id="path307"
     style="stroke:#ffffff;stroke-width:0.438526;stroke-dasharray:none;stroke-opacity:1" /><path
     d="m 16.1,37 c 0,-0.3 -0.2,-0.5 -0.5,-0.5 h -1.9 c -0.3,0 -0.5,0.2 -0.5,0.5 v 2 c 0,0.3 0.2,0.5 0.5,0.5 h 1.9 c 0.3,0 0.5,-0.2 0.5,-0.5 z"
     id="path309"
     style="stroke:#ffffff;stroke-width:0.438526;stroke-dasharray:none;stroke-opacity:1" /><path
     d="m 62,37 c 0,-0.3 -0.2,-0.5 -0.5,-0.5 h -1.9 c -0.3,0 -0.5,0.2 -0.5,0.5 v 2 c 0,0.3 0.2,0.5 0.5,0.5 h 1.9 c 0.3,0 0.5,-0.2 0.5,-0.5 z"
     id="path311"
     style="stroke:#ffffff;stroke-width:0.438526;stroke-dasharray:none;stroke-opacity:1" /><path
     d="m 20.3,37 c 0,-0.3 -0.2,-0.5 -0.5,-0.5 h -1.9 c -0.3,0 -0.5,0.2 -0.5,0.5 v 2 c 0,0.3 0.2,0.5 0.5,0.5 h 1.9 c 0.3,0 0.5,-0.2 0.5,-0.5 z"
     id="path313"
     style="stroke:#ffffff;stroke-width:0.438526;stroke-dasharray:none;stroke-opacity:1" /><path
     d="m 57.8,37 c 0,-0.3 -0.2,-0.5 -0.5,-0.5 h -1.9 c -0.3,0 -0.5,0.2 -0.5,0.5 v 2 c 0,0.3 0.2,0.5 0.5,0.5 h 1.9 c 0.3,0 0.5,-0.2 0.5,-0.5 z"
     id="path315"
     style="stroke:#ffffff;stroke-width:0.438526;stroke-dasharray:none;stroke-opacity:1" /><path
     d="m 24.5,37 c 0,-0.3 -0.2,-0.5 -0.5,-0.5 h -1.9 c -0.3,0 -0.5,0.2 -0.5,0.5 v 2 c 0,0.3 0.2,0.5 0.5,0.5 H 24 c 0.3,0 0.5,-0.2 0.5,-0.5 z"
     id="path317"
     style="stroke:#ffffff;stroke-width:0.438526;stroke-dasharray:none;stroke-opacity:1" /><path
     d="m 53.7,37 c 0,-0.3 -0.2,-0.5 -0.5,-0.5 h -1.9 c -0.3,0 -0.5,0.2 -0.5,0.5 v 2 c 0,0.3 0.2,0.5 0.5,0.5 h 1.9 c 0.3,0 0.5,-0.2 0.5,-0.5 z"
     id="path319"
     style="stroke:#ffffff;stroke-width:0.438526;stroke-dasharray:none;stroke-opacity:1" /><path
     d="m 28.7,37 c 0,-0.3 -0.2,-0.5 -0.5,-0.5 h -1.9 c -0.3,0 -0.5,0.2 -0.5,0.5 v 2 c 0,0.3 0.2,0.5 0.5,0.5 h 1.9 c 0.3,0 0.5,-0.2 0.5,-0.5 z"
     id="path321"
     style="stroke:#ffffff;stroke-width:0.438526;stroke-dasharray:none;stroke-opacity:1" /><path
     d="m 49.5,37 c 0,-0.3 -0.2,-0.5 -0.5,-0.5 h -2 c -0.3,0 -0.5,0.2 -0.5,0.5 v 2 c 0,0.3 0.2,0.5 0.5,0.5 h 2 c 0.3,0 0.5,-0.2 0.5,-0.5 z"
     id="path323"
     style="stroke:#ffffff;stroke-width:0.438526;stroke-dasharray:none;stroke-opacity:1" /><path
     d="m 32.9,37 c 0,-0.3 -0.2,-0.5 -0.5,-0.5 H 30.5 C 30.2,36.5 30,36.7 30,37 v 2 c 0,0.3 0.2,0.5 0.5,0.5 h 1.9 c 0.3,0 0.5,-0.2 0.5,-0.5 z"
     id="path325"
     style="stroke:#ffffff;stroke-width:0.438526;stroke-dasharray:none;stroke-opacity:1" /><path
     d="m 37.1,37 c 0,-0.3 -0.2,-0.5 -0.5,-0.5 h -1.9 c -0.3,0 -0.5,0.2 -0.5,0.5 v 2 c 0,0.3 0.2,0.5 0.5,0.5 h 1.9 c 0.3,0 0.5,-0.2 0.5,-0.5 z"
     id="path327"
     style="stroke:#ffffff;stroke-width:0.438526;stroke-dasharray:none;stroke-opacity:1" /><path
     d="m 45.3,37 c 0,-0.3 -0.2,-0.5 -0.5,-0.5 h -1.9 c -0.3,0 -0.5,0.2 -0.5,0.5 v 2 c 0,0.3 0.2,0.5 0.5,0.5 h 1.9 c 0.3,0 0.5,-0.2 0.5,-0.5 z"
     id="path329"
     style="stroke:#ffffff;stroke-width:0.438526;stroke-dasharray:none;stroke-opacity:1" /><path
     d="m 66.1,37 c 0,-0.3 -0.2,-0.5 -0.5,-0.5 h -1.9 c -0.3,0 -0.5,0.2 -0.5,0.5 v 2 c 0,0.3 0.2,0.5 0.5,0.5 h 1.9 c 0.3,0 0.5,-0.2 0.5,-0.5 z"
     id="path331"
     style="stroke:#ffffff;stroke-width:0.438526;stroke-dasharray:none;stroke-opacity:1" /><path
     d="m 43.2,42 c 0,-0.3 -0.2,-0.5 -0.5,-0.5 h -1.9 c -0.3,0 -0.5,0.2 -0.5,0.5 v 1.9 c 0,0.3 0.2,0.5 0.5,0.5 h 1.9 c 0.3,0 0.5,-0.2 0.5,-0.5 z"
     id="path333"
     style="stroke:#ffffff;stroke-width:0.438526;stroke-dasharray:none;stroke-opacity:1" /><path
     d="m 22.4,42 c 0,-0.3 -0.2,-0.5 -0.5,-0.5 H 20 c -0.3,0 -0.5,0.2 -0.5,0.5 v 1.9 c 0,0.3 0.2,0.5 0.5,0.5 h 1.9 c 0.3,0 0.5,-0.2 0.5,-0.5 z"
     id="path335"
     style="stroke:#ffffff;stroke-width:0.438526;stroke-dasharray:none;stroke-opacity:1" /><path
     d="m 60,42 c 0,-0.3 -0.2,-0.5 -0.5,-0.5 h -1.9 c -0.3,0 -0.5,0.2 -0.5,0.5 v 1.9 c 0,0.3 0.2,0.5 0.5,0.5 h 1.9 c 0.3,0 0.5,-0.2 0.5,-0.5 z"
     id="path337"
     style="stroke:#ffffff;stroke-width:0.438526;stroke-dasharray:none;stroke-opacity:1" /><path
     d="m 26.5,42 c 0,-0.3 -0.2,-0.5 -0.5,-0.5 h -1.9 c -0.3,0 -0.5,0.2 -0.5,0.5 v 1.9 c 0,0.3 0.2,0.5 0.5,0.5 H 26 c 0.3,0 0.5,-0.2 0.5,-0.5 z"
     id="path339"
     style="stroke:#ffffff;stroke-width:0.438526;stroke-dasharray:none;stroke-opacity:1" /><path
     d="m 55.7,42 c 0,-0.3 -0.2,-0.5 -0.5,-0.5 h -1.9 c -0.3,0 -0.5,0.2 -0.5,0.5 v 1.9 c 0,0.3 0.2,0.5 0.5,0.5 h 1.9 c 0.3,0 0.5,-0.2 0.5,-0.5 z"
     id="path341"
     style="stroke:#ffffff;stroke-width:0.438526;stroke-dasharray:none;stroke-opacity:1" /><path
     d="m 30.8,42 c 0,-0.3 -0.2,-0.5 -0.5,-0.5 h -1.9 c -0.3,0 -0.5,0.2 -0.5,0.5 v 1.9 c 0,0.3 0.2,0.5 0.5,0.5 h 1.9 c 0.3,0 0.5,-0.2 0.5,-0.5 z"
     id="path343"
     style="stroke:#ffffff;stroke-width:0.438526;stroke-dasharray:none;stroke-opacity:1" /><path
     d="m 51.6,42 c 0,-0.3 -0.2,-0.5 -0.5,-0.5 h -1.9 c -0.3,0 -0.5,0.2 -0.5,0.5 v 1.9 c 0,0.3 0.2,0.5 0.5,0.5 h 1.9 c 0.3,0 0.5,-0.2 0.5,-0.5 z"
     id="path345"
     style="stroke:#ffffff;stroke-width:0.438526;stroke-dasharray:none;stroke-opacity:1" /><path
     d="m 34.9,42 c 0,-0.3 -0.2,-0.5 -0.5,-0.5 H 32.5 C 32.2,41.5 32,41.7 32,42 v 1.9 c 0,0.3 0.2,0.5 0.5,0.5 h 1.9 c 0.3,0 0.5,-0.2 0.5,-0.5 z"
     id="path347"
     style="stroke:#ffffff;stroke-width:0.438526;stroke-dasharray:none;stroke-opacity:1" /><path
     d="m 39.1,42 c 0,-0.3 -0.2,-0.5 -0.5,-0.5 h -1.9 c -0.3,0 -0.5,0.2 -0.5,0.5 v 1.9 c 0,0.3 0.2,0.5 0.5,0.5 h 1.9 c 0.3,0 0.5,-0.2 0.5,-0.5 z"
     id="path349"
     style="stroke:#ffffff;stroke-width:0.438526;stroke-dasharray:none;stroke-opacity:1" /><path
     d="m 47.3,42 c 0,-0.3 -0.2,-0.5 -0.5,-0.5 h -1.9 c -0.3,0 -0.5,0.2 -0.5,0.5 v 1.9 c 0,0.3 0.2,0.5 0.5,0.5 h 1.9 c 0.3,0 0.5,-0.2 0.5,-0.5 z"
     id="path351"
     style="stroke:#ffffff;stroke-width:0.438526;stroke-dasharray:none;stroke-opacity:1" /><path
     d="m 43.2,46.9 c 0,-0.3 -0.2,-0.5 -0.5,-0.5 h -1.9 c -0.3,0 -0.5,0.2 -0.5,0.5 v 1.9 c 0,0.3 0.2,0.5 0.5,0.5 h 1.9 c 0.3,0 0.5,-0.2 0.5,-0.5 z"
     id="path353"
     style="stroke:#ffffff;stroke-width:0.438526;stroke-dasharray:none;stroke-opacity:1" /><path
     d="m 26.5,46.9 c 0,-0.3 -0.2,-0.5 -0.5,-0.5 h -1.9 c -0.3,0 -0.5,0.2 -0.5,0.5 v 1.9 c 0,0.3 0.2,0.5 0.5,0.5 H 26 c 0.3,0 0.5,-0.2 0.5,-0.5 z"
     id="path355"
     style="stroke:#ffffff;stroke-width:0.438526;stroke-dasharray:none;stroke-opacity:1" /><path
     d="m 55.7,46.9 c 0,-0.3 -0.2,-0.5 -0.5,-0.5 h -1.9 c -0.3,0 -0.5,0.2 -0.5,0.5 v 1.9 c 0,0.3 0.2,0.5 0.5,0.5 h 1.9 c 0.3,0 0.5,-0.2 0.5,-0.5 z"
     id="path357"
     style="stroke:#ffffff;stroke-width:0.438526;stroke-dasharray:none;stroke-opacity:1" /><path
     d="m 30.8,46.9 c 0,-0.3 -0.2,-0.5 -0.5,-0.5 h -1.9 c -0.3,0 -0.5,0.2 -0.5,0.5 v 1.9 c 0,0.3 0.2,0.5 0.5,0.5 h 1.9 c 0.3,0 0.5,-0.2 0.5,-0.5 z"
     id="path359"
     style="stroke:#ffffff;stroke-width:0.438526;stroke-dasharray:none;stroke-opacity:1" /><path
     d="m 51.6,46.9 c 0,-0.3 -0.2,-0.5 -0.5,-0.5 h -1.9 c -0.3,0 -0.5,0.2 -0.5,0.5 v 1.9 c 0,0.3 0.2,0.5 0.5,0.5 h 1.9 c 0.3,0 0.5,-0.2 0.5,-0.5 z"
     id="path361"
     style="stroke:#ffffff;stroke-width:0.438526;stroke-dasharray:none;stroke-opacity:1" /><path
     d="m 34.9,46.9 c 0,-0.3 -0.2,-0.5 -0.5,-0.5 h -1.9 c -0.3,0 -0.5,0.2 -0.5,0.5 v 1.9 c 0,0.3 0.2,0.5 0.5,0.5 h 1.9 c 0.3,0 0.5,-0.2 0.5,-0.5 z"
     id="path363"
     style="stroke:#ffffff;stroke-width:0.438526;stroke-dasharray:none;stroke-opacity:1" /><path
     d="m 39.1,46.9 c 0,-0.3 -0.2,-0.5 -0.5,-0.5 h -1.9 c -0.3,0 -0.5,0.2 -0.5,0.5 v 1.9 c 0,0.3 0.2,0.5 0.5,0.5 h 1.9 c 0.3,0 0.5,-0.2 0.5,-0.5 z"
     id="path365"
     style="stroke:#ffffff;stroke-width:0.438526;stroke-dasharray:none;stroke-opacity:1" /><path
     d="m 47.3,46.9 c 0,-0.3 -0.2,-0.5 -0.5,-0.5 h -1.9 c -0.3,0 -0.5,0.2 -0.5,0.5 v 1.9 c 0,0.3 0.2,0.5 0.5,0.5 h 1.9 c 0.3,0 0.5,-0.2 0.5,-0.5 z"
     id="path367"
     style="stroke:#ffffff;stroke-width:0.438526;stroke-dasharray:none;stroke-opacity:1" /><path
     d="m 18.3,56.8 c 0,-0.3 -0.2,-0.5 -0.5,-0.5 h -1.9 c -0.3,0 -0.5,0.2 -0.5,0.5 v 1.9 c 0,0.3 0.2,0.5 0.5,0.5 h 1.9 c 0.3,0 0.5,-0.2 0.5,-0.5 z"
     id="path369"
     style="stroke:#ffffff;stroke-width:0.438526;stroke-dasharray:none;stroke-opacity:1" /><path
     d="m 64,56.8 c 0,-0.3 -0.2,-0.5 -0.5,-0.5 h -1.9 c -0.3,0 -0.5,0.2 -0.5,0.5 v 1.9 c 0,0.3 0.2,0.5 0.5,0.5 h 1.9 c 0.3,0 0.5,-0.2 0.5,-0.5 z"
     id="path371"
     style="stroke:#ffffff;stroke-width:0.438526;stroke-dasharray:none;stroke-opacity:1" /><path
     d="m 22.4,56.8 c 0,-0.3 -0.2,-0.5 -0.5,-0.5 H 20 c -0.3,0 -0.5,0.2 -0.5,0.5 v 1.9 c 0,0.3 0.2,0.5 0.5,0.5 h 1.9 c 0.3,0 0.5,-0.2 0.5,-0.5 z"
     id="path373"
     style="stroke:#ffffff;stroke-width:0.438526;stroke-dasharray:none;stroke-opacity:1" /><path
     d="m 60,56.8 c 0,-0.3 -0.2,-0.5 -0.5,-0.5 h -1.9 c -0.3,0 -0.5,0.2 -0.5,0.5 v 1.9 c 0,0.3 0.2,0.5 0.5,0.5 h 1.9 c 0.3,0 0.5,-0.2 0.5,-0.5 z"
     id="path375"
     style="stroke:#ffffff;stroke-width:0.438526;stroke-dasharray:none;stroke-opacity:1" /><path
     d="m 26.5,56.8 c 0,-0.3 -0.2,-0.5 -0.5,-0.5 h -1.9 c -0.3,0 -0.5,0.2 -0.5,0.5 v 1.9 c 0,0.3 0.2,0.5 0.5,0.5 H 26 c 0.3,0 0.5,-0.2 0.5,-0.5 z"
     id="path377"
     style="stroke:#ffffff;stroke-width:0.438526;stroke-dasharray:none;stroke-opacity:1" /><path
     d="m 55.7,56.8 c 0,-0.3 -0.2,-0.5 -0.5,-0.5 h -1.9 c -0.3,0 -0.5,0.2 -0.5,0.5 v 1.9 c 0,0.3 0.2,0.5 0.5,0.5 h 1.9 c 0.3,0 0.5,-0.2 0.5,-0.5 z"
     id="path379"
     style="stroke:#ffffff;stroke-width:0.438526;stroke-dasharray:none;stroke-opacity:1" /><path
     d="m 30.8,56.8 c 0,-0.3 -0.2,-0.5 -0.5,-0.5 h -1.9 c -0.3,0 -0.5,0.2 -0.5,0.5 v 1.9 c 0,0.3 0.2,0.5 0.5,0.5 h 1.9 c 0.3,0 0.5,-0.2 0.5,-0.5 z"
     id="path381"
     style="stroke:#ffffff;stroke-width:0.438526;stroke-dasharray:none;stroke-opacity:1" /><path
     d="m 43.2,51.8 c 0,-0.3 -0.2,-0.5 -0.5,-0.5 h -1.9 c -0.3,0 -0.5,0.2 -0.5,0.5 v 1.9 c 0,0.3 0.2,0.5 0.5,0.5 h 1.9 c 0.3,0 0.5,-0.2 0.5,-0.5 z"
     id="path383"
     style="stroke:#ffffff;stroke-width:0.438526;stroke-dasharray:none;stroke-opacity:1" /><path
     d="m 30.8,51.8 c 0,-0.3 -0.2,-0.5 -0.5,-0.5 h -1.9 c -0.3,0 -0.5,0.2 -0.5,0.5 v 1.9 c 0,0.3 0.2,0.5 0.5,0.5 h 1.9 c 0.3,0 0.5,-0.2 0.5,-0.5 z"
     id="path385"
     style="stroke:#ffffff;stroke-width:0.438526;stroke-dasharray:none;stroke-opacity:1" /><path
     d="m 51.6,51.8 c 0,-0.3 -0.2,-0.5 -0.5,-0.5 h -1.9 c -0.3,0 -0.5,0.2 -0.5,0.5 v 1.9 c 0,0.3 0.2,0.5 0.5,0.5 h 1.9 c 0.3,0 0.5,-0.2 0.5,-0.5 z"
     id="path387"
     style="stroke:#ffffff;stroke-width:0.438526;stroke-dasharray:none;stroke-opacity:1" /><path
     d="m 34.9,51.8 c 0,-0.3 -0.2,-0.5 -0.5,-0.5 h -1.9 c -0.3,0 -0.5,0.2 -0.5,0.5 v 1.9 c 0,0.3 0.2,0.5 0.5,0.5 h 1.9 c 0.3,0 0.5,-0.2 0.5,-0.5 z"
     id="path389"
     style="stroke:#ffffff;stroke-width:0.438526;stroke-dasharray:none;stroke-opacity:1" /><path
     d="m 39.1,51.8 c 0,-0.3 -0.2,-0.5 -0.5,-0.5 h -1.9 c -0.3,0 -0.5,0.2 -0.5,0.5 v 1.9 c 0,0.3 0.2,0.5 0.5,0.5 h 1.9 c 0.3,0 0.5,-0.2 0.5,-0.5 z"
     id="path391"
     style="stroke:#ffffff;stroke-width:0.438526;stroke-dasharray:none;stroke-opacity:1" /><path
     d="m 47.3,51.8 c 0,-0.3 -0.2,-0.5 -0.5,-0.5 h -1.9 c -0.3,0 -0.5,0.2 -0.5,0.5 v 1.9 c 0,0.3 0.2,0.5 0.5,0.5 h 1.9 c 0.3,0 0.5,-0.2 0.5,-0.5 z"
     id="path393"
     style="stroke:#ffffff;stroke-width:0.438526;stroke-dasharray:none;stroke-opacity:1" /><path
     d="m 18.3,42.2 c 0,-0.4 -0.3,-0.7 -0.7,-0.7 h -3.1 c -0.4,0 -0.7,0.3 -0.7,0.7 v 1.5 c 0,0.4 0.3,0.7 0.7,0.7 h 3.1 c 0.4,0 0.7,-0.3 0.7,-0.7 z"
     id="path395"
     style="stroke:#ffffff;stroke-width:0.438526;stroke-dasharray:none;stroke-opacity:1" /><path
     d="m 65.6,42.2 c 0,-0.4 -0.3,-0.7 -0.7,-0.7 h -3.1 c -0.4,0 -0.7,0.3 -0.7,0.7 v 1.5 c 0,0.4 0.3,0.7 0.7,0.7 h 3.1 c 0.4,0 0.7,-0.3 0.7,-0.7 z"
     id="path397"
     style="stroke:#ffffff;stroke-width:0.438526;stroke-dasharray:none;stroke-opacity:1" /><path
     d="m 22.4,46.9 c 0,-0.3 -0.2,-0.5 -0.5,-0.5 H 15 c -0.3,0 -0.5,0.2 -0.5,0.5 v 1.9 c 0,0.3 0.2,0.5 0.5,0.5 h 6.9 c 0.3,0 0.5,-0.2 0.5,-0.5 z"
     id="path399"
     style="stroke:#ffffff;stroke-width:0.438526;stroke-dasharray:none;stroke-opacity:1" /><path
     d="m 64.9,46.9 c 0,-0.3 -0.2,-0.5 -0.5,-0.5 h -6.9 c -0.3,0 -0.5,0.2 -0.5,0.5 v 1.9 c 0,0.3 0.2,0.5 0.5,0.5 h 6.9 c 0.3,0 0.5,-0.2 0.5,-0.5 z"
     id="path401"
     style="stroke:#ffffff;stroke-width:0.438526;stroke-dasharray:none;stroke-opacity:1" /><path
     d="m 26.7,51.8 c 0,-0.3 -0.2,-0.5 -0.5,-0.5 h -9.9 c -0.3,0 -0.5,0.2 -0.5,0.5 v 1.9 c 0,0.3 0.2,0.5 0.5,0.5 h 9.9 c 0.3,0 0.5,-0.2 0.5,-0.5 z"
     id="path403"
     style="stroke:#ffffff;stroke-width:0.438526;stroke-dasharray:none;stroke-opacity:1" /><path
     d="m 63.7,51.8 c 0,-0.3 -0.2,-0.5 -0.5,-0.5 h -9.9 c -0.3,0 -0.5,0.2 -0.5,0.5 v 1.9 c 0,0.3 0.2,0.5 0.5,0.5 h 9.9 c 0.3,0 0.5,-0.2 0.5,-0.5 z"
     id="path405"
     style="stroke:#ffffff;stroke-width:0.438526;stroke-dasharray:none;stroke-opacity:1" /><path
     d="m 51.7,56.8 c 0,-0.3 -0.2,-0.5 -0.5,-0.5 H 32.4 c -0.3,0 -0.5,0.2 -0.5,0.5 v 1.9 c 0,0.3 0.2,0.5 0.5,0.5 h 18.9 c 0.3,0 0.5,-0.2 0.5,-0.5 v -1.9 z"
     id="path407"
     style="stroke:#ffffff;stroke-width:0.438526;stroke-dasharray:none;stroke-opacity:1" /><path
     d="m 89.4,57.1 -3.6,-8.4 c -1.3,-2.9 -4.7,-4.3 -7.6,-3 L 75.1,47 c -2.9,1.3 -4.3,4.7 -3,7.6 l 3.6,8.4 c 1.6,3.8 6,5.5 9.8,3.9 v 0 c 3.8,-1.7 5.5,-6.1 3.9,-9.8 z m -8,0.2 c -0.7,0.3 -1.4,0 -1.7,-0.7 l -3.9,-9.1 2.4,-1 3.9,9.1 c 0.2,0.6 -0.1,1.4 -0.7,1.7 z"
     id="path409"
     style="stroke:#ffffff;stroke-width:0.438526;stroke-dasharray:none;stroke-opacity:1" /><path
     d="M 78.9,49.3 C 78.7,48.8 78.2,48.6 77.7,48.8 77.2,49 77,49.5 77.3,50 c 0.4,0.9 0.8,1.8 1.2,2.7 0.2,0.5 0.7,0.7 1.2,0.5 0.5,-0.2 0.7,-0.7 0.4,-1.2 -0.5,-0.9 -0.9,-1.8 -1.2,-2.7 z"
     id="path411"
     style="stroke:#ffffff;stroke-width:0.438526;stroke-dasharray:none;stroke-opacity:1" /></g></svg>
