<?xml version="1.0" encoding="utf-8"?>
<svg width="357.7079px" height="93.69617px" viewBox="0 0 357.7079 93.69617" version="1.1" xmlns:xlink="http://www.w3.org/1999/xlink" xmlns="http://www.w3.org/2000/svg">
  <g id="ES-DE-Logo">
    <g id="g897" transform="translate(0 8.21199)">
      <path d="M122.131 3.27272C122.131 1.47255 120.659 0 118.86 0L15.4865 0C13.6857 0 11.172 1.04121 9.89946 2.31429L2.31429 9.89946C1.04092 11.1725 0 13.6863 0 15.4865L0 82.21C0 84.0105 1.47284 85.4831 3.27213 85.4831L106.645 85.4831C108.444 85.4831 110.959 84.4416 112.232 83.1691L119.816 75.5865C121.089 74.3149 122.13 71.7997 122.13 69.9989L122.131 3.27272Z" id="path22" fill="#F00D46" fill-rule="evenodd" stroke="none" />
      <path d="M107.605 46.5354L100.024 38.9549C98.7516 37.6827 96.2369 36.6409 94.4371 36.6412L88.7661 36.6412C86.9653 36.6415 85.4928 36.6415 85.4928 36.6415C85.4928 36.6415 86.5334 35.6003 87.8068 34.3272L107.605 14.5304C108.877 13.2573 108.445 12.2161 106.646 12.2161L76.5544 12.2161C74.7539 12.2161 72.2402 13.2573 70.9674 14.5304L2.39977 83.09C1.86207 83.6265 1.36356 84.1253 0.964638 84.5237C1.55743 85.1162 2.37472 85.4839 3.27333 85.4839C3.27481 85.4839 3.27628 85.4839 3.27805 85.4839L32.7269 85.4839L82.2207 85.4839C84.0211 85.4839 85.4975 85.48 85.5008 85.4771C85.5052 85.4724 86.5493 84.4276 87.8224 83.1554L107.605 63.3765C108.878 62.1049 109.919 59.5897 109.919 57.7895L109.919 52.1224C109.918 50.3216 108.877 47.8067 107.605 46.5354L107.605 46.5354Z" id="path24" fill="#255685" fill-opacity="0.25" fill-rule="evenodd" stroke="none" />
      <path d="M76.5511 48.8511C74.7515 48.8511 72.2369 47.8093 70.965 46.5362L63.3901 38.959C62.117 37.6859 61.0752 35.1716 61.0729 33.3711L61.0693 27.7007C61.067 25.9006 62.1079 23.3865 63.381 22.1134L70.965 14.5306C72.238 13.2575 74.7515 12.2163 76.552 12.2163L106.645 12.2163C108.444 12.2163 108.876 13.2575 107.604 14.5306L100.02 22.1134C98.7468 23.3865 96.233 24.4277 94.4326 24.4277L76.5523 24.4277C74.7515 24.4277 73.279 25.9003 73.279 27.7004L73.279 33.3708C73.279 35.171 74.7515 36.6435 76.5511 36.6429L94.4355 36.6409C96.2348 36.6403 98.75 37.6818 100.023 38.9546L107.603 46.535C108.876 47.8061 109.917 50.3213 109.917 52.1221L109.917 57.7892C109.917 59.5891 108.876 62.1043 107.603 63.3762L100.019 70.9599C98.7462 72.2315 96.2325 73.2739 94.432 73.2739L76.5517 73.2739C74.7509 73.2739 72.2375 72.2321 70.9647 70.9599L63.3807 63.3762C62.1079 62.1046 62.5387 61.0622 64.3391 61.0622L94.4323 61.0622C96.2331 61.0622 97.7056 59.5897 97.7056 57.7895L97.7056 52.1217C97.7056 50.321 97.7056 48.8484 97.7065 48.8484C97.7077 48.8484 96.2351 48.8484 94.4352 48.8484L76.5511 48.8511Z" id="path31" fill="#001A33" fill-rule="evenodd" stroke="none" />
      <g id="g35" transform="translate(0.0029320314 12.216064)" opacity="0.25">
        <path d="M0 27.8635C0 26.0636 0 24.5524 0 24.5068C0 24.4611 1.04062 23.3819 2.314 22.1091L22.1085 2.3143C23.3816 1.04121 25.8959 0 27.6955 0L57.7916 0C59.5912 0 60.0232 1.04121 58.7501 2.3143L38.952 22.1079C37.6792 23.381 36.6383 24.4222 36.6383 24.4222C36.6383 24.4222 38.1109 24.4228 39.9116 24.424L45.5767 24.4261C47.3763 24.4272 48.744 25.8971 48.6167 27.6923L48.2885 32.2864C48.1609 34.0813 47.7855 35.821 47.4538 36.1525C47.1223 36.484 45.8109 37.7965 44.5382 39.0681L37.1133 46.493C35.8405 47.7643 34.7901 48.8162 34.7792 48.8259C34.7692 48.8359 36.2326 48.8447 38.0322 48.8441L43.3293 48.8441C45.1289 48.843 47.6851 49.8397 49.01 51.0594L56.9166 58.335C58.2415 59.5538 59.327 60.5809 59.2907 60.6183C59.2536 60.6554 58.1811 61.7267 56.9081 62.9998L46.6471 73.2675L3.27449 73.2681C1.4752 73.2681 0.00265468 71.7956 0.00265468 69.9948L0 27.8635Z" id="path33" fill="#255685" fill-rule="evenodd" stroke="none" />
      </g>
      <path d="M27.6976 61.0623C25.8983 61.0623 24.4261 59.5898 24.4261 57.7896L24.4261 52.1225C24.4261 50.3217 25.8986 48.8492 27.6976 48.8492L45.5785 48.8492C47.3781 48.8492 48.8506 47.3766 48.8506 45.5765L48.8506 39.9179C48.8506 38.1171 47.3781 36.6446 45.5785 36.6446L27.6976 36.6446C25.8983 36.6446 24.4261 35.172 24.4261 33.3718L24.4261 27.7015C24.4261 25.9013 25.8986 24.4287 27.6976 24.4287L45.5785 24.4287C47.3781 24.4287 49.8927 23.3875 51.1658 22.1147L58.7522 14.5307C60.0252 13.2583 59.5933 12.217 57.7937 12.217L27.6976 12.217C25.8983 12.217 23.3834 13.2583 22.1106 14.5313L14.5278 22.1136C13.255 23.3866 12.2129 25.9007 12.2129 27.7009L12.2129 57.7896C12.2129 59.5898 13.255 62.1047 14.5278 63.3766L22.1106 70.9603C23.3837 72.2319 25.898 73.2743 27.6976 73.2743L57.7917 73.2743C59.5924 73.2743 60.0232 72.2325 58.7501 70.96L51.1661 63.3752C49.8933 62.1021 47.379 61.0603 45.5788 61.0603L27.6976 61.0623Z" id="path42" fill="#001A33" fill-rule="evenodd" stroke="none" />
    </g>
    <g id="Group" transform="translate(141.95337 0)">
      <path d="M21.0157 32.46C20.7741 35.6028 19.7274 38.0073 17.8754 39.6733C16.0234 41.3394 13.4669 42.1724 10.2059 42.1724C7.06562 42.1724 4.5695 41.2447 2.71755 39.3893C0.905849 37.5339 0 34.9212 0 31.5512L0 21.7252C0 18.3552 0.925977 15.7425 2.77793 13.8872C4.67016 12.0318 7.20653 11.1041 10.3871 11.1041C13.6079 11.1041 16.1644 12.0318 18.0566 13.8872C19.9891 15.7425 20.9553 18.3552 20.9553 21.7252L20.9553 28.3138L3.62339 28.3138L3.62339 31.5512C3.62339 34.0125 4.20716 35.8489 5.37471 37.0606C6.54226 38.2723 8.19291 38.8782 10.3267 38.8782C12.541 38.8782 14.2118 38.367 15.339 37.3446C16.5066 36.2844 17.2111 34.6562 17.4527 32.46L21.0157 32.46ZM10.4471 14.3984C8.27304 14.3984 6.58213 15.0043 5.37433 16.216C4.20678 17.4277 3.62301 19.2641 3.62301 21.7254L3.62301 25.19L17.3919 25.19L17.3919 21.7254C17.3919 19.2641 16.788 17.4277 15.5802 16.216C14.3724 15.0043 12.6614 14.3985 10.4471 14.3985L10.4471 14.3984ZM55.8058 11.1041C58.3427 11.1041 60.3352 12.0697 61.7849 14.0008C63.2742 15.9319 64.0187 18.8097 64.0187 22.6339L64.0187 41.6045L60.456 41.6045L60.456 22.9182C60.456 19.8889 59.9932 17.6926 59.0669 16.3295C58.1412 14.9664 56.7924 14.2848 55.0206 14.2848C52.8467 14.2848 51.0956 15.1178 49.7667 16.7839C48.438 18.412 47.7741 20.6651 47.7741 23.5428L47.7741 41.6045L44.2109 41.6045L44.2109 22.9182C44.2109 19.8889 43.7275 17.6926 42.7618 16.3295C41.7954 14.9664 40.4062 14.2848 38.595 14.2848C36.461 14.2848 34.7497 15.1178 33.4614 16.7839C32.173 18.412 31.529 20.6651 31.529 23.5428L31.529 41.6045L27.9659 41.6045L27.9659 11.7856L30.9251 11.7856L31.4684 15.6479C32.2738 14.209 33.3203 13.092 34.6087 12.2969C35.9374 11.5016 37.5281 11.1041 39.3798 11.1041C41.1915 11.1041 42.7418 11.5774 44.0297 12.524C45.3585 13.4706 46.3447 14.9096 46.9891 16.8406C47.7541 15.061 48.861 13.66 50.3103 12.6377C51.8002 11.6152 53.6322 11.1041 55.8058 11.1041L55.8058 11.1041ZM91.5675 11.7853L91.5675 41.5878L88.6087 41.5878L88.0047 37.8982C87.1594 39.2982 86.0523 40.3767 84.6832 41.1337C83.3145 41.8906 81.6838 42.2688 79.7915 42.2688C77.0939 42.2688 75.0008 41.3608 73.5108 39.5443C72.0212 37.6898 71.2765 34.7949 71.2765 30.8591L71.2765 11.7853L74.8397 11.7853L74.8397 30.348C74.8397 33.3756 75.3026 35.5896 76.2288 36.9897C77.1545 38.39 78.6443 39.0901 80.6974 39.0901C82.9118 39.0901 84.6832 38.2766 86.0117 36.6492C87.3408 34.984 88.0047 32.7132 88.0047 29.8372L88.0047 11.7852L91.5675 11.7853ZM99.7252 0.543358L103.29 0.543358L103.29 41.6081L99.7252 41.6081L99.7252 0.543358ZM120.743 11.1041C123.762 11.1041 126.138 11.9934 127.869 13.7721C129.6 15.5508 130.466 17.9539 130.466 20.9814L130.466 41.5877L127.386 41.5877L127.084 38.7493C125.312 41.0957 122.877 42.2689 119.777 42.2689C116.797 42.2689 114.382 41.4552 112.53 39.8279C110.678 38.2006 109.752 35.9678 109.752 33.1295C109.752 30.2533 110.698 28.0583 112.59 26.5445C114.482 24.9929 117.16 24.2171 120.622 24.2171L126.903 24.2171L126.903 21.0382C126.903 18.8432 126.359 17.1781 125.272 16.0427C124.225 14.9074 122.675 14.3398 120.622 14.3398C118.81 14.3398 117.321 14.8128 116.153 15.7589C115.026 16.6672 114.402 17.935 114.281 19.5623L110.718 19.5623C110.839 16.9889 111.805 14.9453 113.617 13.4315C115.428 11.8799 117.804 11.1041 120.743 11.1041L120.743 11.1041ZM120.32 38.9765C122.333 38.9765 123.923 38.4088 125.09 37.2735C126.298 36.1381 126.902 34.5865 126.902 32.6186L126.902 27.3393L120.501 27.3393C118.166 27.3393 116.394 27.8502 115.187 28.872C113.979 29.856 113.375 31.2941 113.375 33.1863C113.375 35.0785 113.999 36.5166 115.247 37.5005C116.495 38.4845 118.186 38.9765 120.32 38.9765L120.32 38.9765ZM151.193 38.6918L151.193 41.8701L149.38 41.8701C146.48 41.8701 144.244 41.0762 142.673 39.4865C141.142 37.8591 140.377 35.6074 140.377 32.7311L140.377 14.9062L135.543 14.9062L135.543 11.784L140.377 11.784L140.377 4.91519L143.942 4.91519L143.942 11.784L150.468 11.784L150.468 14.9062L143.942 14.9062L143.942 32.7311C143.942 36.7051 145.755 38.6918 149.38 38.6918L151.193 38.6918ZM177.703 42.2689C174.482 42.2689 171.905 41.3417 169.973 39.4873C168.081 37.5951 167.134 34.9271 167.134 31.4832L167.134 21.8897C167.134 18.4459 168.081 15.7968 169.973 13.9424C171.905 12.0502 174.482 11.1041 177.703 11.1041C180.924 11.1041 183.48 12.0502 185.372 13.9424C187.305 15.7968 188.271 18.4459 188.271 21.8897L188.271 31.4832C188.271 34.927 187.305 37.5951 185.372 39.4873C183.48 41.3417 180.924 42.2689 177.703 42.2689L177.703 42.2689ZM177.702 38.9764C179.917 38.9764 181.628 38.3709 182.836 37.1599C184.043 35.911 184.647 34.0188 184.647 31.4832L184.647 21.8897C184.647 19.3541 184.043 17.4808 182.836 16.2698C181.628 15.0209 179.917 14.3965 177.702 14.3965C175.488 14.3965 173.777 15.0209 172.569 16.2698C171.361 17.4808 170.758 19.3541 170.758 21.8897L170.758 31.4832C170.758 34.0188 171.361 35.911 172.569 37.1599C173.777 38.3709 175.488 38.9764 177.702 38.9764L177.702 38.9764ZM207.24 11.1041C209.937 11.1041 212.031 12.0312 213.521 13.8857C215.01 15.7022 215.755 18.5785 215.755 22.5142L215.755 41.5876L212.192 41.5876L212.192 23.025C212.192 19.9976 211.729 17.7836 210.803 16.3834C209.877 14.9831 208.387 14.2831 206.334 14.2831C204.119 14.2831 202.348 15.1156 201.019 16.7807C199.691 18.4082 199.027 20.6599 199.027 23.5361L199.027 41.5876L195.464 41.5876L195.464 11.7853L198.423 11.7853L199.027 15.4751C199.872 14.0749 200.979 12.9964 202.348 12.2394C203.717 11.4824 205.348 11.1041 207.24 11.1041L207.24 11.1041ZM156.383 11.7852L159.945 11.7852L159.945 41.604L156.383 41.604L156.383 11.7852ZM156.383 -2.09808e-05L159.945 -2.09808e-05L159.945 4.65208L156.383 4.65208L156.383 -2.09808e-05Z" id="g1404" fill="#F00D46" fill-rule="evenodd" stroke="none" />
      <path d="M11.7201 93.5476C8.44194 93.5476 5.79393 92.6395 3.77664 90.8219C1.75948 89.0045 0.750565 86.5946 0.750565 83.5922L4.47012 83.5922C4.47012 85.6465 5.10049 87.2465 6.36154 88.3922C7.66464 89.538 9.45056 90.1108 11.7201 90.1108C13.7796 90.1108 15.3768 89.6566 16.5115 88.7478C17.6464 87.7996 18.2137 86.4957 18.2137 84.8365C18.2137 83.7303 17.8776 82.8217 17.2052 82.1105C16.5745 81.3597 15.7763 80.7674 14.8096 80.3325C13.8847 79.8587 12.5397 79.3055 10.7745 78.6733C8.67299 77.8832 6.99182 77.1722 5.73082 76.5399C4.47012 75.8685 3.39819 74.9598 2.51569 73.814C1.63321 72.6682 1.1918 71.1866 1.1918 69.3693C1.1918 66.8408 2.09535 64.826 3.9026 63.3245C5.75189 61.7839 8.16869 61.0135 11.1527 61.0135C14.2629 61.0135 16.7426 61.8826 18.592 63.6208C20.483 65.3594 21.429 67.6705 21.429 70.5545L17.7092 70.5545C17.7092 68.6187 17.1208 67.1172 15.9438 66.0507C14.8096 64.9446 13.2123 64.3912 11.1527 64.3912C9.21936 64.3912 7.7063 64.8457 6.61356 65.7545C5.52083 66.6237 4.97427 67.868 4.97427 69.4879C4.97427 70.9496 5.56285 72.0757 6.73988 72.8656C7.91646 73.6559 9.72372 74.4856 12.1617 75.3547C14.3047 76.1448 16.007 76.8757 17.2682 77.5473C18.5708 78.2189 19.6845 79.1671 20.609 80.392C21.534 81.5771 21.9962 83.0982 21.9962 84.9551C21.9962 87.5231 21.0507 89.5973 19.1594 91.1777C17.2678 92.7579 14.7882 93.5476 11.7201 93.5476L11.7201 93.5476ZM41.6176 89.8132L41.6176 93.1314L39.7256 93.1314C36.6977 93.1314 34.3635 92.3018 32.7238 90.6426C31.1256 88.9437 30.3266 86.5931 30.3266 83.5905L30.3266 64.9826L25.2803 64.9826L25.2803 61.7232L30.3266 61.7232L30.3266 54.5526L34.0484 54.5526L34.0484 61.7232L40.8608 61.7232L40.8608 64.9826L34.0484 64.9826L34.0484 83.5905C34.0484 87.739 35.9405 89.8132 39.7256 89.8132L41.6176 89.8132ZM56.7425 61.0135C59.8946 61.0135 62.3743 61.9424 64.1816 63.8002C65.9888 65.6581 66.8924 68.1682 66.8924 71.3305L66.8924 92.854L63.6772 92.854L63.362 89.8894C61.5127 92.3402 58.97 93.5656 55.7338 93.5656C52.6236 93.5656 50.1019 92.7157 48.1685 91.0159C46.2352 89.3162 45.2686 86.984 45.2686 84.0193C45.2686 81.0151 46.2562 78.7224 48.2316 77.1413C50.2069 75.5206 53.0019 74.7103 56.6164 74.7103L63.1729 74.7103L63.1729 71.3898C63.1729 69.0971 62.6055 67.3579 61.4707 66.172C60.378 64.9861 58.7598 64.3932 56.6164 64.3932C54.7251 64.3932 53.17 64.8873 51.9512 65.8755C50.7744 66.8242 50.1229 68.1484 49.9968 69.8482L46.2772 69.8482C46.4033 67.1602 47.412 65.0257 49.3033 63.4445C51.1946 61.8238 53.6743 61.0135 56.7424 61.0135L56.7425 61.0135ZM56.3009 90.1264C58.4023 90.1264 60.0625 89.5334 61.2813 88.3476C62.5422 87.1617 63.1726 85.541 63.1726 83.4855L63.1726 77.9712L56.49 77.9712C54.0523 77.9712 52.203 78.5049 50.9422 79.5721C49.6813 80.5999 49.0509 82.102 49.0509 84.0784C49.0509 86.0549 49.7023 87.557 51.0052 88.5847C52.3081 89.6125 54.0733 90.1264 56.3009 90.1264L56.3009 90.1264ZM88.5219 89.8132L88.5219 93.1314L86.6307 93.1314C83.6047 93.1314 81.2718 92.3018 79.6331 90.6426C78.0355 88.9437 77.2369 86.5931 77.2369 83.5905L77.2369 64.9826L72.1937 64.9826L72.1937 61.7232L77.2369 61.7232L77.2369 54.5526L80.9567 54.5526L80.9567 61.7232L87.7653 61.7232L87.7653 64.9826L80.9567 64.9826L80.9567 83.5905C80.9567 87.739 82.8479 89.8132 86.6307 89.8132L88.5219 89.8132ZM116.205 93.5656C112.843 93.5656 110.153 92.5971 108.136 90.6602C106.16 88.6837 105.173 85.8969 105.173 82.2998L105.173 72.2792C105.173 68.6821 106.16 65.915 108.136 63.9781C110.153 62.0017 112.843 61.0135 116.205 61.0135C119.568 61.0135 122.236 62.0017 124.212 63.9781C126.229 65.915 127.238 68.6821 127.238 72.2792L127.238 82.2998C127.238 85.8969 126.229 88.6837 124.212 90.6602C122.236 92.5971 119.568 93.5656 116.205 93.5656L116.205 93.5656ZM116.205 90.1266C118.517 90.1266 120.303 89.4942 121.564 88.2293C122.825 86.9248 123.455 84.9483 123.455 82.2999L123.455 72.2793C123.455 69.6309 122.825 67.6742 121.564 66.4093C120.303 65.1048 118.517 64.4526 116.205 64.4526C113.893 64.4526 112.107 65.1048 110.846 66.4093C109.585 67.6742 108.955 69.6309 108.955 72.2793L108.955 82.2999C108.955 84.9484 109.585 86.9248 110.846 88.2293C112.107 89.4942 113.893 90.1267 116.205 90.1267L116.205 90.1266ZM147.047 61.0135C149.864 61.0135 152.051 61.9821 153.607 63.9188C155.163 65.8162 155.941 68.8206 155.941 72.9317L155.941 92.854L152.219 92.854L152.219 73.4653C152.219 70.3029 151.736 67.9904 150.768 66.5279C149.802 65.0652 148.246 64.3337 146.1 64.3337C143.788 64.3337 141.938 65.2035 140.55 66.9427C139.162 68.6425 138.468 70.9945 138.468 73.9989L138.468 92.854L134.747 92.854L134.747 61.7249L137.838 61.7249L138.468 65.5792C139.352 64.1164 140.508 62.99 141.938 62.1994C143.367 61.4089 145.071 61.0135 147.047 61.0135L147.047 61.0135ZM94.1047 63.0345L97.6674 63.0345L97.6674 92.8369L94.1047 92.8369L94.1047 63.0345ZM94.1047 51.249L97.6674 51.249L97.6674 55.9011L94.1047 55.9011L94.1047 51.249Z" id="g1391" fill="#F00D46" fill-rule="evenodd" stroke="none" />
    </g>
  </g>
</svg>