<svg width="283" height="100" viewBox="0 0 283 100" fill="none" xmlns="http://www.w3.org/2000/svg">
<g clip-path="url(#clip0_4_3912)">
<path d="M30.6304 46.8521V47.1414C42.9268 47.3843 52.0071 49.9843 57.8696 54.9414C63.7321 59.8986 66.6643 65.8932 66.6643 72.9164C66.6643 80.7629 63.3321 87.2397 56.6553 92.3343C49.9911 97.445 41.1107 100 30.0429 100C20.4768 100 13.0839 97.9611 7.85 93.9004C2.61607 89.8414 0 85.22 0 80.0164C0 76.5664 1.17322 73.7682 3.51786 71.6539C5.8625 69.5396 8.68036 68.4914 11.9554 68.4914C15.0286 68.4914 17.675 69.42 19.8625 71.2575C22.0643 73.1146 23.15 75.5629 23.15 78.5896C23.15 82.6343 20.6054 86.0236 15.5 88.7629C14.5 89.2932 13.9857 89.9022 13.9857 90.5718C13.9857 91.8182 15.4143 92.9129 18.2893 93.8557C21.1482 94.7986 24.0661 95.2557 27.0678 95.2557C36.8928 95.2557 41.8125 87.5754 41.8125 72.2164C41.8125 57.0111 35.9071 49.4075 24.1089 49.4075L14.3143 49.8325C12.3393 49.8325 11.3375 49.0575 11.3375 47.5075C11.3375 45.7271 12.3821 44.8289 14.4571 44.8289L21.5929 45.1182C28.8696 45.1182 33.7464 43.4004 36.2196 39.9468C38.7089 36.5129 39.9375 31.6146 39.9375 25.2575C39.9375 18.7182 39.0089 13.8986 37.1357 10.8271C35.2625 7.73786 32.0446 6.20393 27.4964 6.20393C25.025 6.20393 22.6929 6.64679 20.5196 7.54143C18.3464 8.42715 17.2464 9.29143 17.2464 10.1593C17.2464 10.9629 17.9607 11.8004 19.3911 12.6682C23.1375 15.2075 25.025 17.9575 25.025 20.9254C25.025 23.8432 23.9804 26.1557 21.8786 27.8896C19.7768 29.6093 17.4161 30.4754 14.7839 30.4754C11.7536 30.4754 9.05178 29.4861 6.67678 27.5236C4.30357 25.5468 3.10178 23.1146 3.10178 20.1807C3.10178 15.1914 5.74821 10.8736 11.0393 7.23965C16.3286 3.58786 23.1071 1.76465 31.4018 1.76465C40.5679 1.76465 48.2893 3.83251 54.5821 7.95215C60.8875 12.0736 64.0321 17.3504 64.0321 23.8146C64.0321 36.5271 52.8929 44.2057 30.6304 46.8521Z" fill="white"/>
<path d="M89.3123 93.4895V6.05198H76.4141V1.3252H128.093C143.035 1.3252 154.875 5.82341 163.584 14.8413C172.293 23.8431 176.653 35.2181 176.653 48.9502C176.653 56.0663 175.323 62.7716 172.666 69.0216C170.003 75.2895 165.916 80.9913 160.394 86.1163C154.875 91.2395 149.212 94.5395 143.407 96.0145C137.602 97.4895 130.48 98.2216 122.016 98.2216H76.4141V93.4895H89.3123ZM114.18 6.05198V93.4895H122.228C134.541 93.4895 141.977 90.0538 144.535 83.1966C147.096 76.3216 148.369 64.5823 148.369 47.9627C148.369 34.9609 147.582 25.6073 146.01 19.9377C144.452 14.2502 142.064 10.5073 138.873 8.73055C135.685 6.94841 131.625 6.05198 126.719 6.05198H114.18Z" fill="white"/>
<path d="M191.086 49.4071C191.086 34.9143 195.575 23.0554 204.584 13.8232C213.579 4.60893 224.375 0 236.957 0C248.641 0 259.095 4.33393 268.316 13C277.541 21.6696 282.145 34.0018 282.145 49.9839C282.145 64.9625 277.798 76.975 269.075 86.0089C260.354 95.0411 249.7 99.5589 237.116 99.5589C223.518 99.5589 212.436 94.7518 203.9 85.1714C195.361 75.5911 191.086 63.6696 191.086 49.4071ZM253.861 49.8161C253.861 34.975 253.573 25.1964 253.002 20.4839C252.416 15.7536 250.929 11.9518 248.527 9.06071C246.123 6.17321 242.163 4.72857 236.659 4.72857C232.011 4.72857 228.307 5.89821 225.547 8.22679C222.789 10.5679 221.073 14.3089 220.384 19.4643C219.713 24.6196 219.37 34.6839 219.37 49.6643C219.37 64.4911 219.654 74.3143 220.243 79.1054C220.815 83.8946 222.359 87.7125 224.861 90.5572C227.365 93.3982 231.297 94.8125 236.659 94.8125C241.106 94.8125 244.738 93.6732 247.54 91.3929C250.343 89.0946 252.102 85.3839 252.804 80.2304C253.518 75.075 253.861 64.9321 253.861 49.8161Z" fill="white"/>
</g>
<defs>
<clipPath id="clip0_4_3912">
<rect width="283" height="100" fill="white"/>
</clipPath>
</defs>
</svg>
