<svg width="482" height="100" viewBox="0 0 482 100" fill="none" xmlns="http://www.w3.org/2000/svg">
<g clip-path="url(#clip0_4_3916)">
<path d="M412.927 56.8014L394.081 0.000743964H340.824C339.627 0.000743964 338.717 0.743064 338.166 1.91714L328.421 23.1565C327.894 24.3538 328.133 25.2877 329.33 25.2877H337.831C341.879 25.2877 344.201 27.6344 344.201 31.6581L344.249 98.2279C344.249 99.2097 345.04 100 346.022 100H371.212C372.194 100 372.984 99.2097 372.984 98.2279V28.2099C372.984 27.5386 373.75 27.0126 374.397 27.0126L374.373 27.0358C375.043 27.0358 375.642 27.5386 375.858 28.2099L399.11 98.7069C399.349 99.4493 400.139 100 400.93 100H425.498C426.288 100 427.078 99.4493 427.318 98.7069L449.995 28.2099C450.21 27.5386 450.808 27.0358 451.48 27.0358L451.455 27.0126C452.101 27.0126 452.868 27.5386 452.868 28.2099V98.2279C452.868 99.2097 453.659 100 454.64 100H479.831C480.813 100 481.602 99.2097 481.602 98.2279V0.000743964H431.771L412.927 56.8014Z" fill="white"/>
<path d="M281.032 27.6344C281.247 26.9647 281.846 26.4618 282.517 26.4618L282.756 26.4371L282.995 26.4618C283.666 26.4618 284.265 26.9647 284.48 27.6344L297.554 58.1427C297.985 59.1483 297.65 59.7697 296.645 59.7697H268.867C267.862 59.7697 267.527 59.1483 267.958 58.1427L281.032 27.6344ZM222.46 100H249.998L256.894 83.9076H308.618L315.514 100H343.052C344.033 100 344.824 99.2097 344.824 98.2279L302.007 0.000743964H248.298C247.1 0.000743964 246.189 0.743064 245.639 1.91714L235.893 23.1565C235.367 24.3538 235.606 25.2877 236.803 25.2877H243.581C247.627 25.2877 249.95 27.6344 249.95 31.6581L220.688 98.2279C220.688 99.2097 221.478 100 222.46 100Z" fill="white"/>
<path d="M155.216 73.5627C154.234 73.5627 153.443 72.7733 153.443 71.7909V27.0605C153.443 26.0787 154.234 25.2877 155.216 25.2877H191.901C195.924 25.2877 198.271 27.6344 198.271 31.6581V67.1933C198.271 71.2169 195.924 73.5627 191.901 73.5627H155.216ZM206.581 100C217.811 100 225.856 91.9533 225.856 80.7227V19.278C225.856 8.04732 217.811 0.000743964 206.581 0.000743964H121.333C120.136 0.000743964 119.226 0.743064 118.673 1.91714L108.928 23.1565C108.402 24.3538 108.641 25.2877 109.838 25.2877H118.34C122.362 25.2877 124.708 27.6344 124.708 31.6581V98.2279C124.708 99.2097 125.499 100 126.48 100H206.581Z" fill="white"/>
<path d="M60.3429 27.6344C60.5595 26.9647 61.1581 26.4618 61.8279 26.4618L62.0677 26.4371L62.3075 26.4618C62.9776 26.4618 63.5763 26.9647 63.7914 27.6344L76.866 58.1427C77.297 59.1483 76.9618 59.7697 75.956 59.7697H48.1786C47.1729 59.7697 46.8373 59.1483 47.2687 58.1427L60.3429 27.6344ZM1.77129 100H29.3092L36.2056 83.9076H87.929L94.8255 100H122.363C123.345 100 124.135 99.2097 124.135 98.2279L81.3207 0.000743964H27.6093C26.412 0.000743964 25.5024 0.743064 24.9514 1.91714L15.2046 23.1565C14.6785 24.3538 14.9181 25.2877 16.1157 25.2877H22.8913C26.9393 25.2877 29.2616 27.6344 29.2616 31.6581L0 98.2279C0 99.2097 0.78913 100 1.77129 100Z" fill="white"/>
</g>
<defs>
<clipPath id="clip0_4_3916">
<rect width="481.598" height="100" fill="white"/>
</clipPath>
</defs>
</svg>
