<svg width="480" height="100" viewBox="0 0 480 100" fill="none" xmlns="http://www.w3.org/2000/svg">
<g clip-path="url(#clip0_4_3923)">
<path d="M43.1112 43.5417C43.1112 43.9105 42.856 44.1665 42.3448 44.3089C41.7312 44.4721 39.8288 44.5545 36.6376 44.5545C33.712 44.5545 31.8304 44.4721 30.9912 44.3089C30.296 44.1657 29.856 43.7049 29.672 42.9281C28.976 39.9833 28.4344 38.4073 28.0456 38.2033C27.7176 38.0601 24.9768 37.9889 19.8224 37.9889C16.3448 37.9889 14.4936 38.0809 14.268 38.2641C13.92 38.5921 13.532 39.6873 13.1024 41.5481C12.7136 43.2457 12.2432 44.1665 11.6904 44.3097C10.9952 44.4729 8.6632 44.5553 4.6944 44.5553C1.5648 44.5553 0 44.2585 0 43.6649C0 43.1337 2.3112 36.5977 6.9344 24.0577C11.9456 10.4953 14.6672 3.03926 15.096 1.68886C15.3416 0.912061 15.628 0.522461 15.9552 0.522461C16.508 0.522461 17.3616 0.573661 18.5176 0.676061C19.6736 0.779261 20.5384 0.828861 21.1104 0.828861C21.6632 0.828861 22.476 0.792861 23.5504 0.721661C24.6248 0.650461 25.4272 0.614461 25.9592 0.614461C26.3472 0.614461 26.7056 0.952061 27.0328 1.62806C28.0352 3.77606 30.9608 11.1401 35.8088 23.7209C40.6776 36.3825 43.1112 42.9897 43.1112 43.5417ZM21.3568 15.5881C20.9272 16.4881 20.2008 18.4417 19.1784 21.4481C18.0736 24.6393 17.5216 26.5121 17.5216 27.0633C17.5216 27.4321 18.1352 27.6361 19.3632 27.6769C19.9968 27.7193 21.04 27.7393 22.492 27.7393C23.8424 27.7393 24.5888 27.5745 24.7328 27.2489C24.7736 27.1465 24.7936 27.0025 24.7936 26.8193C24.7936 26.1441 24.3232 24.2825 23.3824 21.2337C22.4616 18.2881 21.7864 16.4065 21.3568 15.5881Z" fill="white"/>
<path d="M78.554 0.7672C78.554 0.3176 78.4716 0.992 78.3076 2.792C78.0828 5.0632 77.9092 7.9672 77.786 11.5064C77.622 15.516 77.5412 20.0784 77.5412 25.192C77.5412 33.64 77.7764 39.6544 78.2468 43.2344C78.2876 43.6232 78.3076 43.8696 78.3076 43.9704C78.3076 44.196 78.1548 44.328 77.8484 44.3696C77.1116 44.472 74.4004 44.5232 69.7164 44.5232C68.6116 44.5232 67.9772 44.3088 67.814 43.8784C67.7724 43.1016 67.7324 42.324 67.6916 41.5456C67.67 41.3824 67.5892 41.2184 67.446 41.0552C67.3228 41.116 67.17 41.2392 66.9868 41.424C64.7772 43.5928 62.0148 44.676 58.7012 44.676C54.3852 44.676 50.9268 43.1624 48.33 40.1352C45.8548 37.2512 44.6172 33.6096 44.6172 29.2112C44.6172 24.752 45.8348 21.08 48.2684 18.196C50.846 15.1272 54.3228 13.5928 58.7012 13.5928C61.79 13.5928 64.1932 14.5744 65.9124 16.5376C66.1988 16.8656 66.4028 17.0296 66.526 17.0296C66.71 17.0296 66.802 16.7632 66.802 16.2312C66.802 14.656 66.7612 12.3032 66.6788 9.1736C66.5972 6.0448 66.5564 3.7016 66.5564 2.1472C66.5564 1.5544 66.7196 1.216 67.0468 1.1352C68.3556 1.0728 70.1556 0.9512 72.4476 0.7672C76.5388 0.256 78.35 0 77.878 0C78.3284 0 78.554 0.256 78.554 0.7672ZM66.9868 28.9664C66.9868 27.3504 66.4228 25.9336 65.2988 24.7168C64.1732 23.4992 62.8132 22.8904 61.2172 22.8904C59.5396 22.8904 58.2052 23.4992 57.2132 24.7168C56.2212 25.9336 55.7244 27.3912 55.7244 29.0896C55.7244 30.7464 56.2252 32.148 57.2276 33.2928C58.2508 34.52 59.5804 35.1336 61.2172 35.1336C62.854 35.1336 64.2244 34.52 65.3284 33.2928C66.4332 32.0656 66.9868 30.624 66.9868 28.9664Z" fill="white"/>
<path d="M112.612 23.0139C112.612 26.5123 112.499 28.5779 112.275 29.2115C111.804 30.6643 110.393 33.1299 108.04 36.6067C105.995 39.5931 104.245 41.9259 102.794 43.6027C102.261 44.2371 100.655 44.5531 97.9755 44.5531C95.6427 44.5531 94.1291 44.4715 93.4347 44.3083C93.0051 44.2059 92.6467 44.0011 92.3603 43.6947C91.1331 42.3651 89.3843 40.0539 87.1131 36.7603C84.6779 33.2211 83.2267 30.7963 82.7547 29.4875C82.2435 28.0755 81.9883 25.9587 81.9883 23.1355C81.9883 22.3371 81.9979 21.1363 82.0195 19.5291C82.0395 17.9235 82.0491 16.7115 82.0491 15.8931C82.0491 15.3619 82.4067 15.0955 83.1235 15.0955C84.1667 15.0955 85.7363 15.1267 87.8331 15.1875C89.9307 15.2499 91.5003 15.2795 92.5435 15.2795C93.0139 15.2795 93.2491 15.5971 93.2491 16.2307C93.2491 16.8035 93.2083 17.6683 93.1259 18.8235C93.0443 19.9795 93.0027 20.8539 93.0027 21.4475C93.0027 23.5747 93.0643 25.3139 93.1875 26.6643C93.2483 27.3595 93.8411 28.6691 94.9659 30.5915C96.1323 32.6163 96.9811 33.6299 97.5131 33.6299C98.0235 33.6299 98.8427 32.6379 99.9675 30.6523C101.051 28.7915 101.635 27.5227 101.716 26.8475C101.879 25.3947 101.962 23.6355 101.962 21.5699C101.962 20.9771 101.899 20.0819 101.778 18.8843C101.655 17.6875 101.593 16.8035 101.593 16.2307C101.593 15.5971 101.807 15.2795 102.238 15.2795C102.728 15.2795 103.46 15.2899 104.431 15.3099C105.403 15.3307 106.134 15.3411 106.626 15.3411C107.116 15.3411 107.857 15.2995 108.85 15.2179C109.842 15.1355 110.584 15.0947 111.075 15.0947C111.586 15.0947 111.923 15.3611 112.087 15.8923C112.438 17.0611 112.612 19.4339 112.612 23.0139Z" fill="white"/>
<path d="M144.894 27.6469C144.894 29.7125 144.229 30.8893 142.9 31.1757C142.674 31.2165 140.557 31.4413 136.548 31.8501C134.134 32.1165 130.534 32.4325 125.747 32.8013C126.033 34.1317 126.902 35.1437 128.355 35.8381C129.541 36.4109 130.891 36.6973 132.405 36.6973C134.225 36.6973 136.057 36.2069 137.897 35.2245C138.674 34.7333 139.452 34.2429 140.23 33.7525C140.66 33.9565 141.38 35.0005 142.393 36.8813C143.405 38.7637 143.912 39.9605 143.912 40.4717C143.912 40.6149 143.759 40.8501 143.453 41.1773C140.956 43.8573 137.08 45.1965 131.823 45.1965C126.955 45.1965 123.026 43.7749 120.04 40.9317C116.972 38.0477 115.438 34.1917 115.438 29.3637C115.438 24.6581 116.808 20.8021 119.549 17.7949C122.372 14.6853 126.116 13.1309 130.78 13.1309C134.707 13.1309 138.041 14.5637 140.782 17.4277C143.524 20.2917 144.894 23.6989 144.894 27.6469ZM134.154 25.7749C134.154 24.5061 133.704 23.3917 132.804 22.4301C131.904 21.4685 130.829 20.9885 129.582 20.9885C128.293 20.9885 127.23 21.5309 126.391 22.6149C125.614 23.6173 125.225 24.7933 125.225 26.1437C125.225 26.6965 125.511 26.9725 126.084 26.9725C127.597 26.9725 129.95 26.7373 133.141 26.2669C133.817 26.1637 134.154 25.9997 134.154 25.7749Z" fill="white"/>
<path d="M178.769 43.4189C178.769 43.9701 178.483 44.2885 177.91 44.3693C177.338 44.4509 175.845 44.4925 173.431 44.4925C170.853 44.4925 169.257 44.4309 168.644 44.3085C168.03 44.1853 167.724 43.7669 167.724 43.0501C167.724 42.0893 167.753 40.6365 167.816 38.6925C167.877 36.7493 167.908 35.2869 167.908 34.3045C167.908 33.5477 167.887 32.4173 167.847 30.9141C167.805 29.4101 167.785 28.2805 167.785 27.5237C167.785 24.7213 166.567 23.3197 164.133 23.3197C163.336 23.3197 162.405 23.6685 161.341 24.3629C160.196 25.1405 159.623 25.9077 159.623 26.6645V43.2341C159.623 43.9093 159.305 44.2885 158.672 44.3693C157.956 44.4509 156.493 44.4925 154.284 44.4925C151.89 44.4925 150.336 44.4309 149.62 44.3085C148.985 44.2061 148.669 43.8693 148.669 43.2957C148.669 41.6997 148.679 39.2965 148.7 36.0845C148.72 32.8733 148.73 30.4597 148.73 28.8437C148.73 23.7501 148.332 19.7509 147.534 16.8461C147.493 16.6613 147.473 16.5085 147.473 16.3853C147.473 16.0581 147.626 15.8325 147.933 15.7109C149.221 15.5677 150.94 15.3421 153.087 15.0357C156.339 14.4021 158.17 14.0853 158.58 14.0853C158.805 14.0853 158.978 14.7757 159.101 16.1565C159.225 17.5365 159.397 18.2277 159.623 18.2277C159.397 18.2277 160.498 17.5165 162.921 16.0949C165.345 14.6733 167.467 13.9629 169.289 13.9629C171.886 13.9629 174.054 14.5765 175.793 15.8037C177.737 17.2149 178.709 19.1797 178.709 21.6949V31.4837C178.709 32.8141 178.718 34.8029 178.74 37.4525C178.758 40.0997 178.769 42.0893 178.769 43.4189Z" fill="white"/>
<path d="M204.421 35.3181C204.421 35.9317 204.344 36.8621 204.19 38.1109C204.038 39.3589 203.96 40.2741 203.96 40.8565C203.96 41.4397 203.899 41.8141 203.776 41.9773C203.653 42.1413 203.316 42.3757 202.763 42.6829C200.124 44.1357 197.198 44.8613 193.987 44.8613C188.075 44.8613 185.12 42.6005 185.12 38.0797C185.12 36.7293 185.171 34.7005 185.273 31.9893C185.375 29.2781 185.426 27.2493 185.426 25.8989C185.426 24.9989 184.905 24.5485 183.862 24.5485C183.779 24.5485 183.647 24.5485 183.463 24.5485C183.279 24.5693 183.146 24.5789 183.065 24.5789C182.287 24.5789 181.898 24.3029 181.898 23.7501C181.898 23.4229 181.923 22.9213 181.975 22.2469C182.026 21.5717 182.053 21.0701 182.053 20.7429C182.053 20.3133 182.026 19.6589 181.975 18.7797C181.925 17.9013 181.898 17.2453 181.898 16.8157C181.898 16.4077 182.554 16.1821 183.862 16.1413C184.599 16.1213 184.998 15.9157 185.059 15.5277C185.182 14.7509 185.223 13.5229 185.182 11.8453C185.1 9.20692 185.059 7.94852 185.059 8.07172C185.059 5.69812 185.284 4.51172 185.734 4.51172C186.286 4.51172 187.073 4.63492 188.096 4.87972C189.262 5.14612 190.07 5.29972 190.52 5.34052C191.563 5.48372 193.138 5.67812 195.245 5.92292C195.757 5.96532 196.013 6.13812 196.013 6.44452C196.013 7.26292 195.946 8.49972 195.814 10.1565C195.68 11.8133 195.614 13.0621 195.614 13.9005C195.614 14.9029 195.91 15.4045 196.504 15.4045C197.22 15.4045 198.304 15.3733 199.757 15.3125C201.21 15.2509 202.303 15.2205 203.04 15.2205C203.49 15.2205 203.715 15.3733 203.715 15.6805C203.715 16.1509 203.664 16.8565 203.562 17.7981C203.458 18.7389 203.409 19.4445 203.409 19.9149C203.409 20.4069 203.418 21.1221 203.44 22.0637C203.46 23.0045 203.47 23.7205 203.47 24.2117C203.47 24.6413 203.174 24.8565 202.581 24.8565C202.171 24.8565 201.486 24.8413 200.525 24.8101C199.562 24.7797 198.878 24.7645 198.47 24.7645H196.168C195.861 24.7645 195.707 25.2149 195.707 26.1149C195.707 26.6053 195.707 27.3325 195.707 28.2933C195.727 29.2749 195.738 30.0021 195.738 30.4717C195.738 32.1893 195.933 33.3765 196.321 34.0317C196.874 34.9101 197.958 35.3509 199.574 35.3509C200.085 35.3509 200.817 35.2341 201.768 34.9973C202.719 34.7621 203.389 34.6437 203.778 34.6437C204.206 34.6429 204.421 34.8685 204.421 35.3181Z" fill="white"/>
<path d="M239.215 16.417C239.215 17.9314 239.143 20.2018 239 23.229C238.856 26.2562 238.786 28.5266 238.786 30.0418C238.786 31.5146 238.836 33.7234 238.939 36.6698C239.041 39.6162 239.092 41.8154 239.092 43.2666C239.092 43.8194 238.836 44.1666 238.325 44.3098C237.548 44.5146 235.901 44.617 233.385 44.617C231.155 44.617 229.6 44.5554 228.721 44.433C228.332 44.3722 228.086 44.1258 227.984 43.697C227.923 43.0834 227.861 42.4698 227.8 41.8562C227.698 40.9162 227.555 40.445 227.37 40.445C227.656 40.445 226.623 41.1402 224.271 42.5314C221.919 43.9226 219.781 44.617 217.858 44.617C212.436 44.617 209.225 42.173 208.223 37.2834C207.772 35.0122 207.547 31.7194 207.547 27.4026C207.547 22.7386 207.925 19.057 208.682 16.357C208.908 15.5178 209.327 15.0986 209.94 15.0986C210.88 15.0986 212.313 15.1082 214.236 15.1298C216.158 15.1506 217.591 15.1594 218.533 15.1594C219.167 15.1594 219.484 15.4258 219.484 15.9578C219.484 16.1002 219.463 16.3146 219.422 16.6018C218.992 19.3842 218.777 22.2074 218.777 25.0714C218.777 28.6298 218.889 31.065 219.115 32.3738C219.483 34.6242 220.822 35.7498 223.135 35.7498C224.035 35.7498 225.012 35.3514 226.065 34.5538C227.118 33.7554 227.666 32.9266 227.707 32.0682C227.748 31.3106 227.769 26.1762 227.769 16.6642C227.769 15.9898 227.82 15.5898 227.922 15.4682C228.045 15.2634 228.412 15.1602 229.026 15.1602C230.028 15.1602 231.537 15.1714 233.552 15.1914C235.566 15.213 237.076 15.2226 238.078 15.2226C238.692 15.2226 239.049 15.3754 239.152 15.6834C239.194 15.8442 239.215 16.0898 239.215 16.417Z" fill="white"/>
<path d="M264.623 25.1921C264.623 25.9905 264.183 26.3889 263.303 26.3889C262.915 26.3889 262.347 26.3633 261.601 26.3113C260.854 26.2601 260.296 26.2345 259.929 26.2345C258.231 26.2345 257.075 26.5009 256.461 27.0321C255.847 27.5649 255.54 28.6377 255.54 30.2537C255.54 31.1337 255.556 32.4681 255.587 34.2577C255.618 36.0489 255.634 37.3833 255.634 38.2625C255.634 38.8561 255.674 39.7409 255.755 40.9161C255.838 42.0929 255.879 42.9673 255.879 43.5401C255.879 44.0305 255.54 44.3073 254.866 44.3689C253.884 44.4497 252.381 44.4921 250.355 44.4921C248.411 44.4921 246.857 44.4297 245.691 44.3081C245.016 44.2257 244.679 43.8897 244.679 43.2945C244.679 41.6593 244.689 39.2097 244.71 35.9457C244.73 32.6833 244.739 30.2337 244.739 28.5969C244.739 23.7897 244.3 19.8313 243.42 16.7225C243.379 16.5377 243.359 16.3849 243.359 16.2617C243.359 15.9553 243.512 15.7513 243.819 15.6481C244.944 15.5249 246.591 15.3009 248.759 14.9729C251.991 14.3393 253.659 14.0225 253.76 14.0225C254.129 14.0225 254.364 14.6673 254.467 15.9553C254.568 17.2441 254.752 17.8881 255.019 17.8881C254.732 17.8881 255.571 17.3521 257.535 16.2777C259.499 15.2033 261.391 14.6673 263.211 14.6673C264.358 14.6673 264.931 14.9121 264.931 15.4041C264.931 15.9977 264.868 16.8353 264.747 17.9193C264.623 19.0857 264.552 19.9249 264.531 20.4361C264.531 21.0297 264.541 21.8169 264.561 22.7985C264.602 24.0057 264.623 24.8041 264.623 25.1921Z" fill="white"/>
<path d="M296.322 27.6469C296.322 29.7125 295.656 30.8893 294.326 31.1757C294.102 31.2165 291.984 31.4413 287.974 31.8501C285.561 32.1165 281.96 32.4325 277.174 32.8013C277.461 34.1317 278.33 35.1437 279.782 35.8381C280.968 36.4109 282.318 36.6973 283.832 36.6973C285.652 36.6973 287.483 36.2069 289.324 35.2245C290.101 34.7333 290.879 34.2429 291.657 33.7525C292.086 33.9565 292.807 35.0005 293.819 36.8813C294.832 38.7637 295.338 39.9605 295.338 40.4717C295.338 40.6149 295.186 40.8501 294.878 41.1773C292.382 43.8573 288.506 45.1965 283.25 45.1965C278.38 45.1965 274.453 43.7749 271.466 40.9317C268.398 38.0477 266.863 34.1917 266.863 29.3637C266.863 24.6581 268.234 20.8021 270.974 17.7949C273.797 14.6853 277.542 13.1309 282.205 13.1309C286.133 13.1309 289.466 14.5637 292.208 17.4277C294.95 20.2925 296.322 23.6989 296.322 27.6469ZM285.582 25.7749C285.582 24.5061 285.132 23.3917 284.23 22.4301C283.33 21.4685 282.255 20.9885 281.008 20.9885C279.72 20.9885 278.656 21.5309 277.817 22.6149C277.04 23.6173 276.65 24.7933 276.65 26.1437C276.65 26.6965 276.937 26.9725 277.51 26.9725C279.023 26.9725 281.376 26.7373 284.567 26.2669C285.244 26.1637 285.582 25.9997 285.582 25.7749Z" fill="white"/>
<path d="M356.004 43.3261C356.045 43.8789 355.759 44.1557 355.145 44.1557C354.756 44.1557 353.637 43.9301 351.786 43.4805C349.934 43.0309 348.795 42.7237 348.365 42.5605C344.089 44.2381 339.988 45.0765 336.059 45.0765C329.74 45.0765 324.553 42.9701 320.503 38.7557C316.494 34.6029 314.488 29.3557 314.488 23.0149C314.488 16.5293 316.431 11.1501 320.319 6.87409C324.328 2.45569 329.534 0.246094 335.938 0.246094C339.046 0.246094 341.971 0.839694 344.714 2.02609C347.679 3.33489 350.011 5.17649 351.71 7.54849C352.057 8.04049 352.231 8.38769 352.231 8.59169C352.231 9.24689 351.316 10.7141 349.485 12.9949C347.654 15.2765 346.473 16.4157 345.941 16.4157C345.819 16.4157 345.347 15.9973 344.53 15.1573C343.527 14.1549 342.506 13.3781 341.463 12.8253C339.907 11.9869 338.188 11.5669 336.308 11.5669C333.239 11.5669 330.804 12.7133 329.004 15.0037C327.327 17.1101 326.488 19.7389 326.488 22.8893C326.488 26.2237 327.357 28.8629 329.096 30.8061C330.896 32.8109 333.443 33.8133 336.736 33.8133C338.823 33.8133 341.155 33.2917 343.732 32.2485C343.67 31.5741 343.487 29.8549 343.179 27.0941C342.913 24.9669 342.781 23.2477 342.781 21.9397C342.781 21.5509 342.914 21.3149 343.179 21.2333C343.283 21.1925 343.446 21.1717 343.67 21.1717C344.263 21.1717 345.159 21.2285 346.355 21.3397C347.552 21.4525 348.458 21.5093 349.071 21.5093C349.725 21.5093 350.707 21.4629 352.017 21.3709C353.327 21.2789 354.307 21.2325 354.962 21.2325C355.474 21.2325 355.73 21.5701 355.73 22.2445C355.73 23.2269 355.673 24.7101 355.561 26.6949C355.448 28.6789 355.391 30.1613 355.391 31.1437C355.391 33.7821 355.586 37.7301 355.975 42.9877L356.004 43.3261Z" fill="white"/>
<path d="M390.923 28.9662C390.923 30.5414 391.015 32.883 391.198 35.9926C391.384 39.1022 391.475 41.4342 391.475 42.9894C391.475 43.807 391.118 44.2462 390.401 44.3086C387.865 44.4926 384.959 44.5846 381.686 44.5846C381.298 44.5846 381.038 43.9974 380.905 42.8198C380.771 41.6438 380.614 41.0462 380.429 41.0254C380.265 41.107 380.05 41.2814 379.783 41.547C377.493 43.859 375.038 45.0142 372.421 45.0142C368.431 45.0142 365.128 43.4398 362.509 40.2894C360.033 37.343 358.797 33.8254 358.797 29.7342C358.797 25.0086 360.074 21.2038 362.632 18.3198C365.29 15.3334 368.933 13.8398 373.556 13.8398C376.767 13.8398 379.304 14.9646 381.166 17.215C381.247 17.3182 381.319 17.3686 381.381 17.3686C381.566 17.3686 381.774 16.8734 382.01 15.8806C382.244 14.8886 382.526 14.3926 382.854 14.3926C383.61 14.3926 385.052 14.6078 387.181 15.0374C389.205 15.4462 390.658 15.7942 391.538 16.0798C391.846 16.203 391.998 16.3662 391.998 16.571C391.998 16.6526 391.967 16.867 391.906 17.215C391.25 20.9166 390.923 24.835 390.923 28.9662ZM381.043 29.1502C381.043 27.411 380.495 25.9742 379.401 24.839C378.306 23.703 376.879 23.1358 375.122 23.1358C373.362 23.1358 371.94 23.6982 370.856 24.8238C369.77 25.9486 369.229 27.391 369.229 29.1502C369.229 30.807 369.802 32.2294 370.948 33.415C372.094 34.6022 373.484 35.195 375.122 35.195C376.859 35.195 378.281 34.627 379.386 33.4918C380.491 32.3566 381.043 30.9102 381.043 29.1502Z" fill="white"/>
<path d="M446.061 43.1736C446.061 43.8904 445.754 44.2888 445.14 44.3712C444.527 44.452 443.011 44.4944 440.599 44.4944C438.103 44.4944 436.549 44.432 435.936 44.3096C435.321 44.188 435.014 43.6864 435.014 42.8064C435.014 41.8664 435.045 40.4584 435.106 38.588C435.168 36.716 435.199 35.3104 435.199 34.368C435.199 30.788 435.157 28.2416 435.076 26.728C434.953 24.2944 433.798 23.0768 431.608 23.0768C430.647 23.0768 429.692 23.4816 428.74 24.2896C427.788 25.0984 427.262 25.992 427.159 26.9744C427.078 27.8328 427.038 30.3496 427.038 34.5224C427.038 35.484 427.068 36.9416 427.13 38.8952C427.191 40.8488 427.222 42.3168 427.222 43.2976C427.222 43.9728 426.924 44.3112 426.332 44.3112H417.034C416.461 44.3112 416.175 43.892 416.175 43.0528C416.175 42.0912 416.206 40.6488 416.268 38.7256C416.329 36.804 416.36 35.3504 416.36 34.368C416.36 33.6112 416.339 32.4664 416.298 30.9312C416.257 29.3976 416.236 28.2416 416.236 27.4648C416.236 24.5392 415.122 23.0768 412.892 23.0768C411.992 23.0768 411.019 23.4256 409.976 24.12C408.83 24.8768 408.258 25.6744 408.258 26.5136C408.258 28.376 408.268 31.1576 408.288 34.86C408.308 38.5616 408.319 41.3336 408.319 43.1744C408.319 43.6864 408.257 44.0032 408.134 44.1256C408.011 44.248 407.695 44.3296 407.183 44.372C406.262 44.4528 404.81 44.4952 402.825 44.4952C401.537 44.4952 400.075 44.4328 398.438 44.3112C397.948 44.2696 397.655 44.1984 397.563 44.0968C397.471 43.9944 397.424 43.6872 397.424 43.1752C397.424 41.54 397.435 39.0904 397.455 35.8264C397.476 32.564 397.486 30.1144 397.486 28.4776C397.486 25.1232 397.24 21.3488 396.749 17.1552C396.707 16.9104 396.688 16.7264 396.688 16.6032C396.688 16.2552 396.831 16.0192 397.117 15.8968C397.567 15.7128 398.416 15.56 399.664 15.4368C401.199 15.2936 402.108 15.2024 402.396 15.16C402.6 15.1192 403.408 14.9048 404.82 14.516C405.822 14.2296 406.631 14.0864 407.244 14.0864C407.632 14.0864 407.837 14.7968 407.858 16.2184C407.878 17.64 407.96 18.3512 408.104 18.3512C408.308 18.2688 408.542 18.1256 408.809 17.9216C410.65 16.4896 412.101 15.508 413.167 14.976C414.741 14.2192 416.449 13.8408 418.29 13.8408C420.172 13.8408 421.85 14.26 423.323 15.0992C424.98 16.04 426.053 17.36 426.544 19.0576C427.628 17.5848 429.122 16.3464 431.025 15.3448C432.927 14.3424 434.778 13.8408 436.579 13.8408C439.279 13.8408 441.478 14.4656 443.176 15.7128C445.099 17.1248 446.061 19.14 446.061 21.7584C446.061 22.8424 446.03 24.4736 445.968 26.6528C445.907 28.8312 445.876 30.4632 445.876 31.5472C445.876 32.8352 445.907 34.7744 445.968 37.3624C446.03 39.9472 446.061 41.8856 446.061 43.1736Z" fill="white"/>
<path d="M480.001 27.6469C480.001 29.7125 479.336 30.8893 478.006 31.1757C477.781 31.2165 475.664 31.4413 471.654 31.8501C469.241 32.1165 465.64 32.4325 460.853 32.8013C461.14 34.1317 462.009 35.1437 463.461 35.8381C464.648 36.4109 465.997 36.6973 467.512 36.6973C469.332 36.6973 471.163 36.2069 473.004 35.2245C473.781 34.7333 474.558 34.2429 475.337 33.7525C475.766 33.9565 476.487 35.0005 477.499 36.8813C478.512 38.7637 479.018 39.9605 479.018 40.4717C479.018 40.6149 478.865 40.8501 478.558 41.1773C476.062 43.8573 472.186 45.1965 466.929 45.1965C462.06 45.1965 458.133 43.7749 455.145 40.9317C452.077 38.0477 450.543 34.1917 450.543 29.3637C450.543 24.6581 451.913 20.8021 454.654 17.7949C457.476 14.6853 461.221 13.1309 465.884 13.1309C469.813 13.1309 473.146 14.5637 475.888 17.4277C478.63 20.2925 480.001 23.6989 480.001 27.6469ZM469.262 25.7749C469.262 24.5061 468.813 23.3917 467.911 22.4301C467.012 21.4685 465.937 20.9885 464.689 20.9885C463.401 20.9885 462.337 21.5309 461.497 22.6149C460.721 23.6173 460.331 24.7933 460.331 26.1437C460.331 26.6965 460.617 26.9725 461.19 26.9725C462.704 26.9725 465.057 26.7373 468.248 26.2669C468.925 26.1637 469.262 25.9997 469.262 25.7749Z" fill="white"/>
<path d="M181.875 84.2512C181.875 88.4032 180.126 91.9632 176.629 94.9296C173.56 97.5472 169.827 99.2144 165.429 99.9312C165.264 99.9512 165.132 99.9608 165.03 99.9608C164.559 99.9608 163.517 98.5232 161.901 95.6496C160.285 92.776 159.477 91.0216 159.477 90.3864C159.477 90.1616 159.63 90.0192 159.937 89.9568C162.903 89.2816 164.867 88.7096 165.829 88.2384C167.956 87.1744 169.02 85.5992 169.02 83.5128C169.02 82.184 168.325 80.7 166.934 79.0632C164.521 76.2824 163.211 74.7376 163.007 74.4304C161.595 72.3032 160.889 69.9504 160.889 67.3728C160.889 63.6296 162.618 60.5192 166.075 58.0448C168.898 55.9992 172.365 54.6696 176.477 54.056C176.702 54.0352 176.876 54.0264 176.999 54.0264C177.306 54.0264 177.552 54.2712 177.736 54.7624C178.267 56.256 179.505 58.956 181.448 62.8632C181.509 62.9856 181.54 63.0888 181.54 63.1704C181.54 63.5184 181.356 63.692 180.987 63.692C180.823 63.692 180.547 63.6608 180.158 63.5984C179.769 63.5376 179.473 63.5064 179.269 63.5064C177.796 63.5064 176.507 63.844 175.402 64.52C174.072 65.2968 173.408 66.3808 173.408 67.772C173.408 69.0208 174.144 70.5544 175.617 72.3752C178.215 75.6488 179.576 77.3664 179.699 77.5296C181.149 79.7824 181.875 82.0216 181.875 84.2512Z" fill="white"/>
<path d="M207.284 89.377C207.284 89.989 207.207 90.921 207.055 92.169C206.901 93.4162 206.824 94.3322 206.824 94.9146C206.824 95.497 206.763 95.8706 206.639 96.0346C206.517 96.1978 206.179 96.433 205.627 96.7394C202.988 98.1922 200.062 98.9186 196.851 98.9186C190.939 98.9186 187.983 96.6586 187.983 92.1378C187.983 90.7874 188.035 88.7578 188.137 86.0474C188.239 83.337 188.29 81.3066 188.29 79.9562C188.29 79.0562 187.768 78.6058 186.725 78.6058C186.643 78.6058 186.511 78.6058 186.327 78.6058C186.143 78.6274 186.01 78.6362 185.928 78.6362C185.151 78.6362 184.762 78.361 184.762 77.8082C184.762 77.481 184.787 76.9794 184.839 76.3042C184.891 75.629 184.916 75.1282 184.916 74.801C184.916 74.3706 184.891 73.717 184.839 72.837C184.788 71.957 184.762 71.3034 184.762 70.873C184.762 70.4642 185.417 70.2394 186.727 70.1978C187.463 70.177 187.862 69.973 187.923 69.5842C188.046 68.8074 188.087 67.5794 188.046 65.901C187.963 63.2626 187.923 62.0042 187.923 62.1274C187.923 59.7546 188.148 58.5674 188.597 58.5674C189.15 58.5674 189.937 58.6898 190.96 58.9362C192.126 59.2018 192.934 59.3554 193.383 59.3954C194.427 59.5394 196.001 59.7338 198.108 59.9786C198.62 60.0202 198.876 60.193 198.876 60.5002C198.876 61.3186 198.809 62.557 198.677 64.2138C198.544 65.8706 198.478 67.1186 198.478 67.9562C198.478 68.9594 198.775 69.4602 199.368 69.4602C200.083 69.4602 201.168 69.4298 202.62 69.3682C204.073 69.3058 205.167 69.2762 205.904 69.2762C206.354 69.2762 206.579 69.429 206.579 69.7362C206.579 70.2066 206.527 70.913 206.426 71.8538C206.323 72.7938 206.272 73.5002 206.272 73.9698C206.272 74.4602 206.283 75.177 206.303 76.1186C206.323 77.0594 206.335 77.7754 206.335 78.2666C206.335 78.697 206.038 78.9122 205.444 78.9122C205.035 78.9122 204.351 78.8962 203.388 78.865C202.427 78.8354 201.742 78.8194 201.333 78.8194H199.031C198.724 78.8194 198.571 79.2698 198.571 80.1698C198.571 80.661 198.571 81.3882 198.571 82.349C198.591 83.3298 198.602 84.057 198.602 84.5274C198.602 86.2466 198.796 87.4322 199.185 88.0874C199.737 88.9674 200.822 89.4066 202.437 89.4066C202.949 89.4066 203.68 89.2898 204.631 89.053C205.583 88.8194 206.252 88.7002 206.642 88.7002C207.069 88.701 207.284 88.9258 207.284 89.377Z" fill="white"/>
<path d="M242.078 70.4747C242.078 71.9891 242.006 74.2595 241.863 77.2867C241.72 80.3139 241.649 82.5851 241.649 84.0987C241.649 85.5723 241.7 87.781 241.801 90.7274C241.904 93.6722 241.955 95.8714 241.955 97.3242C241.955 97.877 241.7 98.2243 241.188 98.3675C240.41 98.5715 238.765 98.6747 236.248 98.6747C234.017 98.6747 232.464 98.613 231.584 98.4906C231.194 98.4282 230.949 98.1835 230.847 97.7539C230.786 97.1411 230.724 96.5266 230.663 95.913C230.561 94.973 230.417 94.5011 230.233 94.5011C230.52 94.5011 229.485 95.1971 227.134 96.5883C224.781 97.9803 222.644 98.6747 220.721 98.6747C215.299 98.6747 212.088 96.2315 211.085 91.3411C210.635 89.0707 210.41 85.777 210.41 81.461C210.41 76.797 210.789 73.1138 211.545 70.4138C211.77 69.5762 212.189 69.1562 212.804 69.1562C213.744 69.1562 215.176 69.1667 217.099 69.1867C219.021 69.2083 220.453 69.2171 221.396 69.2171C222.029 69.2171 222.347 69.4834 222.347 70.0146C222.347 70.1586 222.325 70.373 222.285 70.6594C221.855 73.4418 221.64 76.2659 221.64 79.1283C221.64 82.6883 221.752 85.1235 221.977 86.4315C222.345 88.6819 223.685 89.8075 225.997 89.8075C226.897 89.8075 227.875 89.4091 228.928 88.6107C229.981 87.8131 230.529 86.9842 230.569 86.1258C230.611 85.369 230.632 80.2339 230.632 70.7219C230.632 70.0467 230.683 69.6482 230.785 69.525C230.908 69.321 231.275 69.2179 231.889 69.2179C232.891 69.2179 234.4 69.229 236.415 69.249C238.429 69.2698 239.939 69.2786 240.941 69.2786C241.554 69.2786 241.912 69.4323 242.015 69.7395C242.057 69.9019 242.078 70.1483 242.078 70.4747Z" fill="white"/>
<path d="M279.665 54.8249C279.665 54.3761 279.583 55.0505 279.42 56.8497C279.194 59.1209 279.022 62.0249 278.898 65.5641C278.734 69.5745 278.653 74.1361 278.653 79.2497C278.653 87.6977 278.887 93.7121 279.359 97.2913C279.4 97.6809 279.421 97.9257 279.421 98.0281C279.421 98.2529 279.268 98.3849 278.961 98.4265C278.225 98.5281 275.514 98.5793 270.829 98.5793C269.723 98.5793 269.09 98.3641 268.926 97.9345C268.886 97.1577 268.845 96.3801 268.805 95.6025C268.783 95.4393 268.702 95.2761 268.559 95.1121C268.436 95.1737 268.283 95.2961 268.098 95.4801C265.89 97.6481 263.127 98.7329 259.814 98.7329C255.497 98.7329 252.04 97.2177 249.442 94.1905C246.967 91.3065 245.73 87.6657 245.73 83.2681C245.73 78.8081 246.947 75.1361 249.382 72.2521C251.958 69.1841 255.436 67.6481 259.814 67.6481C262.903 67.6481 265.306 68.6305 267.025 70.5945C267.311 70.9217 267.515 71.0849 267.638 71.0849C267.822 71.0849 267.914 70.8185 267.914 70.2873C267.914 68.7121 267.873 66.3585 267.791 63.2297C267.71 60.0993 267.668 57.7577 267.668 56.2017C267.668 55.6081 267.833 55.2705 268.16 55.1889C269.468 55.1273 271.268 55.0041 273.561 54.8209C277.652 54.3097 279.462 54.0537 278.991 54.0537C279.44 54.0577 279.665 54.3137 279.665 54.8249ZM268.098 83.0233C268.098 81.4089 267.534 79.9921 266.41 78.7745C265.284 77.5577 263.924 76.9489 262.329 76.9489C260.65 76.9489 259.316 77.5577 258.324 78.7745C257.332 79.9921 256.837 81.4489 256.837 83.1465C256.837 84.8033 257.337 86.2049 258.34 87.3505C259.362 88.5785 260.693 89.1913 262.329 89.1913C263.964 89.1913 265.336 88.5785 266.44 87.3505C267.545 86.1233 268.098 84.6801 268.098 83.0233Z" fill="white"/>
<path d="M295.562 84.281C295.562 85.7746 295.593 88.0002 295.654 90.9554C295.716 93.9114 295.746 96.1258 295.746 97.5986C295.746 98.029 295.491 98.2858 294.98 98.3666C294.284 98.4898 292.718 98.5506 290.285 98.5506C287.831 98.5506 286.255 98.4898 285.56 98.3666C285.109 98.2858 284.832 98.1514 284.731 97.9682C284.689 97.8874 284.669 97.5794 284.669 97.0474C284.669 95.637 284.7 93.5146 284.761 90.681C284.824 87.8482 284.854 85.7146 284.854 84.2826C284.854 78.473 284.628 73.8498 284.179 70.413C284.137 70.0874 284.117 69.8714 284.117 69.769C284.117 69.3602 284.392 69.1554 284.944 69.1554C285.517 69.1554 286.392 69.217 287.568 69.3402C288.745 69.4626 289.63 69.5242 290.222 69.5242C290.815 69.5242 291.705 69.473 292.892 69.3714C294.079 69.269 294.968 69.2178 295.561 69.2178C296.052 69.2178 296.297 69.4234 296.297 69.8314C296.297 69.9138 296.276 70.1074 296.236 70.4146C295.788 74.4018 295.562 79.025 295.562 84.281ZM296.36 61.4826C296.36 65.0426 294.355 66.8218 290.345 66.8218C288.628 66.8218 287.205 66.3722 286.081 65.4714C284.852 64.4898 284.239 63.1594 284.239 61.4826C284.239 59.8874 284.874 58.5786 286.141 57.5546C287.308 56.6146 288.708 56.1426 290.344 56.1426C291.94 56.1426 293.322 56.6234 294.488 57.5858C295.736 58.609 296.36 59.9082 296.36 61.4826Z" fill="white"/>
<path d="M331.004 83.2698C331.004 87.933 329.577 91.7178 326.724 94.6234C323.871 97.5282 320.121 98.981 315.478 98.981C310.978 98.981 307.275 97.5482 304.37 94.685C301.465 91.821 300.012 88.1394 300.012 83.6386C300.012 78.893 301.404 75.0418 304.185 72.0858C306.967 69.1298 310.732 67.6514 315.477 67.6514C320.1 67.6514 323.843 69.0986 326.708 71.9938C329.571 74.8882 331.004 78.6474 331.004 83.2698ZM320.939 83.2698C320.939 81.6546 320.437 80.2266 319.435 78.9898C318.433 77.7522 317.133 77.1338 315.538 77.1338C313.922 77.1338 312.593 77.7682 311.549 79.0354C310.568 80.2226 310.076 81.6346 310.076 83.2698C310.076 84.9258 310.566 86.3482 311.549 87.5346C312.593 88.8042 313.922 89.437 315.538 89.437C317.133 89.437 318.453 88.8034 319.496 87.5346C320.457 86.3482 320.939 84.9258 320.939 83.2698Z" fill="white"/>
</g>
<defs>
<clipPath id="clip0_4_3923">
<rect width="480" height="100" fill="white"/>
</clipPath>
</defs>
</svg>
