<svg width="304" height="100" viewBox="0 0 304 100" fill="none" xmlns="http://www.w3.org/2000/svg">
<g clip-path="url(#clip0_4_3943)">
<path d="M125.596 0H112.183L44.168 98.9731H57.5735H59.2008L127.224 0H125.596Z" fill="white"/>
<path d="M108.088 0H94.6829L26.6602 98.9731H40.0656H41.6929L109.716 0H108.088Z" fill="white"/>
<path d="M101.273 82.3999H86.746L84.4946 85.8046C83.8627 86.8157 83.4045 87.5661 83.1122 88.048C82.5277 89.0118 82.1169 89.7859 81.8799 90.3626C81.2953 91.429 81.011 92.3217 81.011 93.0405C81.011 94.4387 82.425 95.3077 85.2688 95.6474C86.5643 95.8448 87.22 96.3978 87.22 97.3142C87.22 98.428 86.4537 98.981 84.9133 98.981L82.1722 98.8072L77.4088 98.5465L71.2787 98.981H69.3355C68.1821 98.981 67.6055 98.5465 67.6055 97.6854C67.6055 96.9666 67.8346 96.4452 68.2927 96.1371C68.7509 95.8211 69.6198 95.6 70.8917 95.4499C72.1635 95.3077 73.2378 94.7784 74.0989 93.8621L76.9111 90.331L78.1355 88.4588L79.431 86.6577L80.7266 84.7855L103.517 52.3343C104.67 50.6043 105.492 49.5458 105.966 49.1587C106.447 48.7716 107.19 48.582 108.201 48.582C109.307 48.582 110.065 48.8743 110.476 49.451C110.887 50.0276 111.092 51.2837 111.092 53.2111L113.328 89.3751C113.328 90.8287 113.415 91.9899 113.589 92.8588C113.739 93.6014 114.102 94.2807 114.623 94.8258C115.082 95.3156 115.642 95.7106 116.282 95.908C117.143 96.1845 117.57 96.6743 117.57 97.401C117.57 98.4596 116.851 98.9889 115.405 98.9889L113.099 98.7756L108.849 98.5623C107.506 98.5623 106.021 98.6176 104.417 98.7282C102.806 98.8388 101.084 98.9257 99.2588 98.9967H96.8811C95.7752 98.9967 95.2222 98.5386 95.2222 97.6301C95.2222 97.0061 95.4513 96.5479 95.9094 96.2635C96.3676 95.9712 97.2208 95.758 98.4689 95.6158C99.717 95.4736 100.562 95.126 100.997 94.573C101.431 94.0201 101.644 93.0721 101.644 91.7213V88.7669L101.273 82.3999ZM100.981 78.7977L100.333 62.1218L89.0606 78.7977H100.981Z" fill="white"/>
<path d="M211.542 57.7375L202.458 89.3987C202.023 90.9391 201.81 92.1162 201.81 92.9298C201.81 94.7072 202.774 95.5999 204.693 95.5999C206.423 95.5999 207.292 96.137 207.292 97.2193C207.292 98.2541 206.55 98.7676 205.057 98.7676H200.878L193.089 98.4832C191.596 98.4832 190.466 98.5069 189.7 98.5543C188.934 98.6017 187.03 98.7676 184.004 99.0598H183.712C182.464 99.0598 181.84 98.578 181.84 97.6142C181.84 97.0376 182.053 96.6426 182.488 96.4214C182.922 96.2002 183.902 95.9395 185.442 95.6315C186.982 95.3155 187.915 94.9126 188.254 94.407C188.586 93.9015 189.147 92.2821 189.913 89.5409L198.927 58.0297C199.258 56.8764 199.432 56.1102 199.432 55.7231C199.432 54.475 198.539 53.8509 196.762 53.8509C195.222 53.8509 194.455 53.3927 194.455 52.4685C194.455 51.9155 194.645 51.481 195.032 51.1572C195.419 50.8333 195.948 50.6753 196.62 50.6753H199.938C200.127 50.6753 200.68 50.6753 201.597 50.6753C202.513 50.6753 203.279 50.6753 203.903 50.6753C208.517 50.6753 211.74 50.5568 213.564 50.3277L217.388 50.0986C218.351 50.0986 218.833 50.5568 218.833 51.4652C218.833 52.0893 218.588 52.5475 218.114 52.8319C217.633 53.1162 216.756 53.369 215.484 53.5902C214.212 53.8035 213.359 54.159 212.924 54.633C212.474 55.1148 212.016 56.1497 211.542 57.7375Z" fill="white"/>
<path d="M255.818 84.9279C255.818 84.9279 254.285 90.3154 253.582 92.7405C252.753 95.5686 244.94 100.008 235.413 100.008C228.201 100.008 222.331 98.207 217.813 94.5969C213.294 90.9947 211.035 86.3261 211.035 80.6069C211.035 76.041 212.402 71.712 215.143 67.628C217.884 63.5439 221.755 60.0286 226.755 57.0979C230.839 54.6965 235.255 52.8164 239.987 51.4734C244.719 50.1305 249.372 49.4512 253.945 49.4512C257.018 49.4512 259.736 49.7119 262.098 50.2253C263.298 50.5097 263.899 51.0232 263.899 51.7736C263.899 52.2002 263.757 52.7453 263.464 53.4167L261.663 58.899C260.944 61.4031 260.004 62.6513 258.851 62.6513C257.603 62.6513 256.979 61.6638 256.979 59.6968L257.121 56.0157C257.121 54.7675 256.868 53.8907 256.363 53.3851C255.857 52.8796 255.004 52.6268 253.803 52.6268C250.722 52.6268 247.578 53.2508 244.355 54.5069C241.132 55.755 238.083 57.5403 235.2 59.8548C231.787 62.596 229.093 65.9691 227.119 69.9662C225.144 73.9634 224.164 78.1027 224.164 82.3922C224.164 86.8238 225.317 90.3391 227.624 92.938C229.931 95.537 233.083 96.8404 237.072 96.8404C238.273 96.8404 239.102 96.6587 239.56 96.3032C240.018 95.9477 240.437 95.1183 240.824 93.8228L243.494 84.4144C243.684 83.8852 243.779 83.2848 243.779 82.6213C243.779 81.5706 243.565 80.8834 243.131 80.5753C242.696 80.2672 241.543 79.9907 239.671 79.7458C238.66 79.7458 238.154 79.264 238.154 78.3002C238.154 77.2417 238.992 76.7124 240.682 76.7124L244.284 76.7835L250.778 76.9968C251.212 76.9968 251.52 76.9968 251.718 76.9968C252.105 76.9968 252.365 76.9968 252.508 76.9968C254.625 76.9968 256.521 76.902 258.203 76.7045H261.663C262.864 76.7045 263.464 77.1153 263.464 77.9447C263.464 79.0981 262.477 79.7616 260.51 79.9433C259.262 79.9433 258.298 80.3067 257.627 81.0255C256.947 81.7523 256.347 83.0478 255.818 84.9279Z" fill="white"/>
<path d="M285.599 82.3999H271.071L268.82 85.8046C268.188 86.8157 267.73 87.5661 267.438 88.048C266.853 89.0118 266.442 89.7859 266.205 90.3626C265.621 91.429 265.336 92.3217 265.336 93.0405C265.336 94.4387 266.75 95.3077 269.594 95.6474C270.89 95.8448 271.545 96.3978 271.545 97.3142C271.545 98.428 270.779 98.981 269.239 98.981L266.498 98.8072L264.278 98.6887C262.587 98.5939 260.889 98.6018 259.198 98.7045L254.625 98.981C253.471 98.981 252.895 98.5465 252.895 97.6854C252.895 96.9666 253.124 96.4452 253.582 96.1371C254.04 95.8211 254.909 95.6 256.181 95.4499C257.453 95.3077 257.563 94.7784 258.424 93.8621L261.236 90.331L262.461 88.4588L263.756 86.6577L265.052 84.7855L287.842 52.3343C288.995 50.6043 289.817 49.5458 290.291 49.1587C290.773 48.7716 291.515 48.582 292.526 48.582C293.632 48.582 294.391 48.8743 294.801 49.451C295.212 50.0276 295.418 51.2837 295.418 53.2111L297.653 89.3751C297.653 91.8319 297.906 93.4592 298.412 94.257C298.917 95.0549 299.865 95.5447 301.263 95.7422C302.654 95.9317 303.357 96.4926 303.357 97.4089C303.357 98.4675 302.638 98.9967 301.192 98.9967L298.886 98.7835L293.19 98.5702C291.847 98.5702 290.362 98.6255 288.758 98.7361C287.147 98.8467 285.425 98.9336 283.6 99.0047H281.222C280.116 99.0047 279.563 98.5465 279.563 97.638C279.563 97.014 279.792 96.5558 280.251 96.2714C280.709 95.9791 281.562 95.7658 282.81 95.6237C284.058 95.4815 284.903 95.1339 285.338 94.5809C285.772 94.028 285.986 93.08 285.986 91.7292V88.7748L285.599 82.3999ZM285.314 78.7977L284.666 62.1218L273.394 78.7977H285.314Z" fill="white"/>
<path d="M170.37 60.3995L147.58 94.3674C146.474 96.05 145.652 97.1086 145.131 97.543C144.602 97.9775 143.883 98.1908 142.967 98.1908C142.003 98.1908 141.355 97.9775 141.023 97.543C140.684 97.1086 140.518 96.1685 140.518 94.7229L139.364 60.3126L132.081 80.1641L130.928 84.0744C130.011 87.1157 129.482 88.9642 129.34 89.6119C129.198 90.2597 129.127 91.097 129.127 92.1082C129.127 93.2694 129.403 94.0277 129.956 94.3911C130.509 94.7545 131.844 95.1021 133.961 95.4418C135.162 95.5839 135.762 96.1132 135.762 97.0375C135.762 98.1987 134.996 98.7754 133.456 98.7754L130.785 98.5147L126.528 98.3409L120.927 98.5542C119.679 98.5542 119.055 98.0723 119.055 97.1086C119.055 96.3265 119.687 95.7498 120.958 95.3865C121.677 95.1732 122.325 94.7466 122.831 94.1936C123.083 93.9172 123.289 93.6881 123.289 93.6881C123.818 93.0403 124.853 90.5757 126.393 86.2941L135.77 59.9018C136.639 57.3029 137.066 55.6993 137.066 55.0673C137.066 54.5381 136.837 54.151 136.378 53.914C135.92 53.677 134.996 53.4479 133.606 53.2267C132.207 53.0134 131.512 52.4921 131.512 51.6784C131.512 51.244 131.702 50.8648 132.089 50.5251C132.476 50.1854 132.926 50.0195 133.456 50.0195L136.126 50.3118H139.728H143.33H148.378H149.673C150.25 50.3118 150.59 50.4066 150.684 50.5962C150.827 50.8411 150.898 51.4414 150.898 52.3973L152.051 81.8862L171.523 51.8206C172.005 51.086 172.337 50.6515 172.534 50.5093C172.724 50.375 173.111 50.3039 173.688 50.3039H174.407C175.276 50.3039 176.184 50.3039 177.148 50.3039C178.111 50.3039 179.17 50.3039 180.323 50.3039H185.735H188.041C189.1 50.3039 189.629 50.7384 189.629 51.5994C189.629 52.8002 188.8 53.4874 187.141 53.6533C185.482 53.8192 184.447 54.1589 184.036 54.6565C183.625 55.1621 183.207 56.2996 182.772 58.077L175.702 87.5264C175.513 88.3401 175.315 89.3275 175.125 90.4809C174.936 91.6342 174.841 92.4004 174.841 92.7875C174.841 93.6012 175.07 94.2015 175.528 94.5886C175.987 94.9757 176.84 95.2601 178.088 95.4497C179.336 95.6392 179.96 96.1922 179.96 97.1086C179.96 98.2145 179.115 98.7675 177.432 98.7675H175.133C171.721 98.3804 168.932 98.1908 166.768 98.1908C164.366 98.1908 162.297 98.2856 160.567 98.4831L156.964 98.7675C155.764 98.7675 155.163 98.2619 155.163 97.2507C155.163 96.4371 155.598 95.8841 156.459 95.5918L157.683 95.3786L158.552 95.3075L159.342 95.1653C160.306 95.0705 160.985 94.6992 161.396 94.0514C161.807 93.4037 162.344 91.7527 163.016 89.1142L170.37 60.3995Z" fill="white"/>
<path d="M15.0328 60.1787H13.4055H0L26.2738 98.4124L33.7941 87.4794L15.0328 60.1787Z" fill="white"/>
<path d="M26.6602 98.9731H40.0656H41.6929L34.1805 88.0322L26.6602 98.9731Z" fill="white"/>
<path d="M32.5367 60.1787H30.9094H17.5039L35.025 85.6784L42.5454 74.7454L32.5367 60.1787Z" fill="white"/>
<path d="M42.9265 75.2979L35.4141 86.2387L43.7797 98.4118L51.3 87.4789L42.9265 75.2979Z" fill="white"/>
</g>
<defs>
<clipPath id="clip0_4_3943">
<rect width="303.341" height="100" fill="white"/>
</clipPath>
</defs>
</svg>
