<svg width="459" height="100" viewBox="0 0 459 100" fill="none" xmlns="http://www.w3.org/2000/svg">
<g clip-path="url(#clip0_4_3955)">
<path d="M50.0938 0C22.4322 0 0.09375 22.4335 0.09375 50C0.09375 77.6616 22.5272 100 50.0938 100C55.4169 100 60.55 99.1445 65.3029 97.6236V72.6236C61.1204 75 56.2725 76.4258 51.1394 76.4258C35.9303 76.4258 23.6679 64.5437 23.6679 50C23.6679 35.4563 36.0253 23.5741 51.1394 23.5741C56.3675 23.5741 61.2154 25 65.3029 27.3764V2.37643C60.55 0.855513 55.4169 0 50.0938 0Z" fill="white"/>
<path d="M65.7773 30.9883H103.04L86.3097 48.3837H65.7773V30.9883Z" fill="white"/>
<path d="M65.7773 69.2008H103.04L86.3097 51.9004H65.7773V69.2008Z" fill="white"/>
<path d="M166.063 44.0106C170.816 44.0106 174.618 42.6798 177.66 40.2083C180.702 37.6418 182.223 34.1247 182.318 29.4669C182.223 24.8091 180.702 21.1969 177.66 18.6304C174.618 16.0639 170.816 14.8281 166.063 14.8281C161.31 14.8281 157.508 16.1589 154.466 18.6304C151.425 21.1019 149.904 24.8091 149.809 29.4669C149.904 34.1247 151.425 37.7369 154.466 40.2083C157.508 42.6798 161.31 44.0106 166.063 44.0106ZM166.063 37.2616C163.877 37.1665 162.261 36.406 161.215 34.8851C160.17 33.3642 159.695 31.5582 159.79 29.3718C159.79 27.1855 160.265 25.3795 161.215 23.8585C162.166 22.3376 163.782 21.5772 166.063 21.4821C168.25 21.5772 169.866 22.3376 170.911 23.8585C171.957 25.3795 172.432 27.1855 172.337 29.3718C172.337 31.4631 171.862 33.3642 170.911 34.8851C169.866 36.406 168.25 37.1665 166.063 37.2616Z" fill="white"/>
<path d="M186.215 43.3452H195.911V31.5581C195.911 28.6114 196.386 26.33 197.337 24.9041C198.287 23.4783 199.618 22.8129 201.329 22.8129C202.66 22.8129 203.705 23.3832 204.276 24.4289C204.846 25.4745 205.226 26.8053 205.226 28.4213V43.4403H214.922V31.6532C214.922 28.7064 215.397 26.4251 216.348 24.9992C217.298 23.5734 218.629 22.908 220.34 22.908C221.671 22.908 222.717 23.4783 223.287 24.5239C223.857 25.5696 224.238 26.9004 224.238 28.5163V43.5353H233.933V27.0905C234.029 23.2882 233.363 20.3414 232.032 18.1551C230.702 16.0639 228.04 14.9232 224.048 14.9232C222.051 14.9232 220.15 15.3034 218.439 16.1589C216.728 17.0144 215.302 18.3452 214.162 20.2464C213.401 18.4403 212.26 17.1095 210.74 16.1589C209.219 15.3034 207.413 14.8281 205.416 14.8281C203.23 14.8281 201.139 15.3034 199.428 16.254C197.622 17.2046 196.291 18.6304 195.245 20.6266H195.15V15.4935H186.31L186.215 43.3452Z" fill="white"/>
<path d="M239.164 43.3452H248.86V31.5581C248.86 28.6114 249.335 26.33 250.286 24.9041C251.236 23.4783 252.567 22.8129 254.278 22.8129C255.609 22.8129 256.655 23.3832 257.225 24.4289C257.795 25.4745 258.175 26.8053 258.175 28.4213V43.4403H267.871V31.6532C267.871 28.7064 268.347 26.4251 269.297 24.9992C270.248 23.5734 271.579 22.908 273.29 22.908C274.62 22.908 275.666 23.4783 276.236 24.5239C276.807 25.5696 277.187 26.9004 277.187 28.5163V43.5353H286.883V27.0905C286.978 23.2882 286.312 20.3414 284.982 18.1551C283.651 16.0639 280.989 14.9232 276.997 14.9232C275.001 14.9232 273.099 15.3034 271.388 16.1589C269.677 17.0144 268.252 18.3452 267.111 20.2464C266.35 18.4403 265.21 17.1095 263.689 16.1589C262.168 15.3034 260.362 14.8281 258.366 14.8281C256.084 14.8281 254.088 15.3034 252.377 16.254C250.571 17.2046 249.24 18.6304 248.194 20.6266H248.099V15.4935H239.259L239.164 43.3452Z" fill="white"/>
<path d="M306.938 44.0106C311.691 44.0106 315.493 42.6798 318.535 40.2083C321.577 37.6418 323.098 34.1247 323.193 29.4669C323.098 24.8091 321.577 21.1969 318.535 18.6304C315.493 16.0639 311.691 14.8281 306.938 14.8281C302.186 14.8281 298.383 16.1589 295.341 18.6304C292.3 21.1019 290.779 24.8091 290.684 29.4669C290.779 34.1247 292.3 37.7369 295.341 40.2083C298.383 42.6798 302.281 44.0106 306.938 44.0106ZM306.938 37.2616C304.752 37.1665 303.136 36.406 302.09 34.8851C301.045 33.3642 300.57 31.5582 300.665 29.3718C300.665 27.1855 301.14 25.3795 302.09 23.8585C303.041 22.3376 304.657 21.5772 306.938 21.4821C309.125 21.5772 310.741 22.3376 311.786 23.8585C312.832 25.3795 313.307 27.1855 313.307 29.3718C313.307 31.4631 312.832 33.3642 311.786 34.8851C310.741 36.406 309.22 37.1665 306.938 37.2616Z" fill="white"/>
<path d="M357.223 3.13672H347.527V19.0113H347.432C346.196 17.3953 344.771 16.3497 343.155 15.6843C341.539 15.0189 339.732 14.7337 337.831 14.7337C333.934 14.9238 330.987 16.3496 328.991 19.2014C326.995 22.0531 325.949 25.285 325.949 28.8021C325.949 33.0797 327.09 36.5968 329.181 39.4485C331.367 42.3002 334.504 43.8211 338.687 43.9162C340.968 43.9162 342.964 43.3459 344.675 42.3002C346.386 41.2546 347.622 39.9238 348.288 38.3078H348.383V43.3459H357.318L357.223 3.13672ZM335.74 29.0873C335.74 27.1862 336.215 25.5702 337.261 24.2394C338.307 22.9086 339.732 22.2432 341.634 22.1481C343.44 22.1481 344.866 22.9086 345.911 24.2394C346.957 25.5702 347.527 27.2812 347.527 29.4675C347.527 31.5588 346.862 33.2698 345.816 34.6006C344.675 35.9314 343.345 36.5968 341.634 36.5968C339.828 36.5968 338.402 35.8363 337.356 34.5055C336.31 33.1747 335.74 31.3687 335.74 29.0873Z" fill="white"/>
<path d="M377.091 44.0106C381.844 44.0106 385.646 42.6798 388.688 40.2083C391.729 37.6418 393.25 34.1247 393.345 29.4669C393.25 24.8091 391.729 21.1969 388.688 18.6304C385.646 16.0639 381.844 14.8281 377.091 14.8281C372.338 14.8281 368.536 16.1589 365.494 18.6304C362.452 21.1969 360.931 24.8091 360.836 29.4669C360.931 34.1247 362.452 37.7369 365.494 40.2083C368.536 42.6798 372.433 44.0106 377.091 44.0106ZM377.091 37.2616C374.904 37.1665 373.288 36.406 372.243 34.8851C371.292 33.3642 370.722 31.5582 370.817 29.3718C370.817 27.1855 371.292 25.3795 372.243 23.8585C373.193 22.3376 374.809 21.5772 377.091 21.4821C379.277 21.5772 380.893 22.3376 381.939 23.8585C382.889 25.3795 383.46 27.1855 383.364 29.3718C383.364 31.4631 382.889 33.3642 381.939 34.8851C380.988 36.406 379.372 37.1665 377.091 37.2616Z" fill="white"/>
<path d="M417.775 15.1133C417.299 15.0182 416.729 14.9232 416.159 14.9232C415.588 14.8281 415.018 14.8281 414.448 14.8281C412.356 14.8281 410.645 15.3984 409.409 16.4441C408.079 17.4897 407.033 18.9156 406.178 20.6266H406.082V15.4935H397.242V43.4403H406.938V31.6532C406.938 28.8965 407.508 26.7102 408.744 25.1893C409.98 23.6684 411.691 22.908 413.972 22.908C414.543 22.908 415.113 22.908 415.588 22.908C416.159 22.908 416.634 23.003 417.204 23.1931L417.775 15.1133Z" fill="white"/>
<path d="M448.098 32.2239V30.4178C448.193 26.1402 447.052 22.433 444.961 19.4863C442.775 16.4444 439.162 14.9235 434.029 14.7334C429.562 14.7334 426.045 16.0642 423.288 18.5357C420.531 21.1022 419.105 24.6193 419.105 29.2771C419.201 33.9349 420.721 37.5471 423.763 40.0186C426.805 42.5851 430.607 43.8208 435.36 43.9159C437.166 43.9159 438.972 43.8208 440.683 43.5357C442.394 43.2505 444.105 42.7752 445.626 42.2049V35.3608C444.201 36.1212 442.68 36.6916 441.254 36.9767C439.828 37.357 438.402 37.452 437.071 37.452C434.695 37.452 432.794 37.0718 431.368 36.2163C429.942 35.3608 429.086 34.03 428.801 32.1288L448.098 32.2239ZM428.611 26.7106C428.706 25.0946 429.182 23.6687 430.037 22.6231C430.893 21.4824 432.223 20.9121 433.934 20.9121C435.836 20.9121 437.261 21.4824 438.022 22.6231C438.877 23.7638 439.258 25.0946 439.258 26.7106H428.611Z" fill="white"/>
<path d="M129.183 43.631C125.001 42.4903 121.769 40.5892 119.107 37.6424C116.446 34.6957 115.21 32.0341 114.45 27.2812C113.024 17.9656 117.016 9.4105 124.716 5.70327C128.613 3.80213 133.841 2.85156 139.069 2.85156C142.301 2.85156 145.153 3.42191 147.815 3.8972L146.959 12.2622C146.959 12.2622 146.294 12.0721 144.392 11.5968C142.586 11.1215 140.78 10.9314 138.974 10.9314C135.362 10.9314 131.845 11.882 129.564 13.6881C124.145 17.8706 124.145 28.8021 129.754 33.3649C133.176 36.2166 139.354 37.1672 144.868 35.7413L147.434 35.0759L148.195 43.536C146.579 43.9162 143.157 44.5816 138.974 44.5816C133.461 44.5816 131.75 44.3915 129.183 43.631Z" fill="white"/>
<path d="M458.268 48.4795H107.508V51.3312H458.268V48.4795Z" fill="white"/>
<path d="M165.211 94.2019C165.211 93.7267 165.115 93.3464 164.83 93.2514C164.545 93.0613 164.26 92.9662 163.785 92.9662C162.264 92.681 161.408 92.1107 161.123 91.2552C160.838 90.3046 160.743 89.1639 160.743 87.738L159.222 58.4605C159.222 57.4149 159.127 56.5593 158.937 55.7989C158.747 55.1335 158.081 54.7533 156.845 54.6582C155.8 54.6582 155.039 55.0384 154.564 55.6088C154.089 56.1791 153.614 56.9396 153.043 57.7L134.222 84.1259L131.085 88.5935C130.42 89.5441 129.754 90.3997 129.089 91.2552C128.328 92.1107 127.378 92.586 126.237 92.7761C125.572 92.8711 125.001 92.9662 124.431 93.1563C123.861 93.3464 123.576 93.8217 123.48 94.5822C123.48 95.0574 123.671 95.3426 123.956 95.4377C124.241 95.5327 124.621 95.6278 125.001 95.6278C126.047 95.6278 127.188 95.5327 128.328 95.4377C129.469 95.3426 130.515 95.2475 131.655 95.2475C132.701 95.2475 133.652 95.3426 134.602 95.4377C135.553 95.5327 136.598 95.5327 137.549 95.6278C138.024 95.6278 138.404 95.5327 138.785 95.3426C139.165 95.1525 139.355 94.7723 139.355 94.297C139.26 93.5365 138.88 93.1563 138.024 93.0612C137.169 92.9662 136.408 92.7761 135.553 92.586C134.697 92.3958 134.317 91.8255 134.222 90.7799C134.412 89.7343 135.077 88.2133 136.313 86.3122C137.549 84.411 138.404 82.9852 138.975 82.2247H150.667C150.762 83.4605 150.762 84.6962 150.857 85.932C150.952 87.1677 150.952 88.4034 150.952 89.6392C150.857 91.3502 150.477 92.3958 149.621 92.681C148.766 92.9662 147.91 93.1563 147.15 93.1563C146.294 93.1563 145.819 93.7266 145.819 94.5822C145.819 94.9624 145.914 95.2476 146.199 95.4377C146.484 95.6278 146.769 95.6278 147.15 95.6278C148.766 95.6278 150.382 95.5327 151.998 95.4377C153.614 95.3426 155.23 95.2475 156.845 95.2475C157.891 95.2475 159.032 95.3426 160.077 95.3426C161.123 95.4377 162.264 95.4377 163.309 95.4377C163.785 95.4377 164.26 95.3426 164.545 95.2475C165.02 95.0574 165.211 94.6772 165.211 94.2019ZM150.762 79.1829H140.971L150.287 65.5898L150.762 79.1829Z" fill="white"/>
<path d="M250.189 56.9392C250.189 56.559 250.094 56.3689 249.809 56.1787C249.619 55.9886 249.334 55.8936 248.953 55.8936C248.383 55.8936 247.908 55.8936 247.432 55.9886C246.957 55.9886 246.387 56.0837 245.911 56.1787C244.581 56.2738 243.345 56.3688 242.014 56.4639C240.683 56.4639 239.353 56.559 238.022 56.4639C237.071 56.4639 236.121 56.3688 235.075 56.3688C234.124 56.2738 233.174 56.2738 232.128 56.2738C231.653 56.2738 231.273 56.3689 230.892 56.654C230.512 56.9392 230.322 57.3194 230.322 57.7947C230.512 58.6502 231.178 59.1255 232.318 59.0305C233.459 58.9354 234.124 59.5057 234.315 60.5513C234.315 60.8365 234.315 61.1217 234.219 61.5019C234.124 61.7871 234.029 62.0723 233.934 62.4525L226.52 88.1179C226.235 89.3536 225.95 90.3993 225.569 91.2548C225.189 92.1103 224.429 92.6806 223.193 92.9658C222.623 93.0609 221.957 93.1559 221.197 93.346C220.436 93.5361 219.961 94.0114 219.961 94.6768C219.961 95.0571 220.151 95.3422 220.436 95.5323C220.721 95.7225 221.102 95.8175 221.482 95.8175C222.718 95.8175 224.048 95.7225 225.284 95.6274C226.615 95.5324 227.851 95.4373 229.181 95.4373C230.607 95.4373 231.938 95.5324 233.364 95.6274C234.79 95.7225 236.121 95.7224 237.546 95.7224C238.117 95.7224 238.782 95.7225 239.543 95.6274C240.303 95.5324 240.683 95.1521 240.778 94.3917C240.683 93.6312 240.303 93.251 239.638 93.1559C238.972 93.0609 238.212 92.9658 237.546 92.7757C236.881 92.5856 236.501 91.9202 236.406 90.7795C236.406 90.3042 236.501 89.8289 236.596 89.3536C236.691 88.8784 236.881 88.4031 236.976 87.9278L244.391 62.1673C244.676 61.1217 244.961 60.3612 245.341 59.886C245.721 59.4107 246.482 59.0304 247.527 58.8403C248.098 58.7453 248.668 58.6502 249.334 58.365C249.809 57.9848 250.094 57.5095 250.189 56.9392Z" fill="white"/>
<path d="M288.784 57.2244C288.688 56.559 288.023 56.1788 286.882 55.8936C285.647 55.6084 284.411 55.5134 283.08 55.4183C281.749 55.3232 280.894 55.3232 280.418 55.3232C275.476 55.3232 270.342 56.3689 265.019 58.27C259.696 60.2662 255.133 63.1179 251.331 66.9202C247.529 70.7225 245.533 75.3803 245.438 80.8936C245.533 84.4107 246.483 87.2624 248.479 89.5438C250.476 91.8251 252.852 93.5362 255.894 94.6769C258.841 95.8176 261.882 96.3879 265.114 96.3879C267.015 96.3879 268.917 96.2928 270.913 96.0077C272.814 95.8176 274.715 95.4373 276.616 94.962C277.282 94.867 277.947 94.6769 278.422 94.3917C278.898 94.2016 279.278 93.7263 279.563 92.9658C280.038 91.54 280.514 90.0191 280.989 88.4982C281.369 86.9773 281.844 85.4563 282.225 84.0305C282.89 81.9392 283.745 80.6084 284.696 80.2282C285.647 79.848 286.502 79.6578 287.263 79.6578C288.023 79.6578 288.403 79.1826 288.403 78.232C288.403 77.8518 288.213 77.5666 287.928 77.3765C287.643 77.1864 287.263 77.0913 286.977 77.0913C285.552 77.0913 284.031 77.1864 282.605 77.2814C281.084 77.3765 279.658 77.4715 278.137 77.4715C276.711 77.4715 275.285 77.3765 273.955 77.2814C272.529 77.1864 271.103 77.0913 269.772 77.0913C269.297 77.0913 268.822 77.1864 268.441 77.3765C267.966 77.5666 267.776 77.9468 267.776 78.4221C267.871 79.0875 268.251 79.4677 268.917 79.5628C269.677 79.6578 270.342 79.7529 271.103 80.0381C271.863 80.2282 272.244 80.8936 272.244 81.9392C272.149 83.0799 271.863 84.5058 271.198 86.502C270.628 88.4031 270.057 89.924 269.677 91.1598C269.487 92.0153 269.107 92.6807 268.726 93.0609C268.346 93.4411 267.681 93.6312 266.73 93.6312C263.308 93.5362 260.647 92.4906 258.936 90.3042C257.13 88.1179 256.274 85.4563 256.274 82.1293C256.274 79.0875 256.939 76.0457 258.175 73.194C259.411 70.3423 261.122 67.7757 263.213 65.5894C265.304 63.4982 267.966 61.6921 271.008 60.1712C274.145 58.6502 277.187 57.8898 280.228 57.7947C281.654 57.7947 282.51 58.0799 282.89 58.6502C283.175 59.2206 283.365 60.1712 283.27 61.5019C283.27 61.8822 283.27 62.1674 283.175 62.5476C283.175 62.9278 283.08 63.213 283.08 63.5932C283.08 64.1636 283.175 64.7339 283.365 65.2092C283.555 65.6845 284.031 65.9696 284.696 65.9696C285.457 65.8746 285.932 65.5894 286.312 64.924C286.692 64.2586 286.882 63.5932 287.072 63.0229C287.263 62.5476 287.548 61.597 288.023 60.0761C288.403 58.5552 288.688 57.6046 288.784 57.2244Z" fill="white"/>
<path d="M322.433 94.2019C322.433 93.7267 322.338 93.3464 322.053 93.2514C321.768 93.0613 321.483 92.9662 321.007 92.9662C319.486 92.681 318.631 92.1107 318.346 91.2552C318.061 90.3046 317.965 89.1639 317.965 87.738L316.445 58.4605C316.445 57.4149 316.35 56.5593 316.159 55.7989C315.969 55.1335 315.304 54.7533 314.068 54.6582C313.023 54.6582 312.262 55.0384 311.787 55.6088C311.312 56.1791 310.836 56.9396 310.266 57.7L291.445 84.1259L288.308 88.5935C287.642 89.5441 286.977 90.3997 286.311 91.2552C285.551 92.1107 284.6 92.586 283.46 92.7761C282.794 92.8711 282.224 92.9662 281.654 93.1563C281.083 93.3464 280.798 93.8217 280.703 94.5822C280.703 95.0574 280.893 95.3426 281.178 95.4377C281.464 95.5327 281.844 95.6278 282.224 95.6278C283.27 95.6278 284.41 95.5327 285.551 95.4377C286.692 95.3426 287.737 95.2475 288.878 95.2475C289.924 95.2475 290.874 95.3426 291.825 95.4377C292.87 95.5327 293.821 95.5327 294.772 95.6278C295.247 95.6278 295.627 95.5327 296.007 95.3426C296.388 95.1525 296.578 94.7723 296.578 94.297C296.483 93.5365 296.102 93.1563 295.247 93.0612C294.391 92.9662 293.631 92.7761 292.775 92.586C291.92 92.3958 291.54 91.8255 291.445 90.7799C291.635 89.7343 292.3 88.2133 293.536 86.3122C294.772 84.411 295.627 82.9852 296.197 82.2247H307.985C308.08 83.4605 308.08 84.6962 308.175 85.932C308.27 87.1677 308.27 88.4034 308.27 89.6392C308.175 91.3502 307.794 92.3958 306.939 92.681C306.083 92.9662 305.228 93.1563 304.467 93.1563C303.612 93.1563 303.137 93.7266 303.137 94.5822C303.137 94.9624 303.232 95.2476 303.517 95.4377C303.802 95.6278 304.087 95.6278 304.467 95.6278C306.083 95.6278 307.699 95.5327 309.315 95.4377C310.931 95.3426 312.547 95.2475 314.163 95.2475C315.209 95.2475 316.35 95.3426 317.395 95.3426C318.441 95.4377 319.581 95.4377 320.627 95.4377C321.102 95.4377 321.578 95.3426 321.863 95.2475C322.243 95.0574 322.433 94.6772 322.433 94.2019ZM307.889 79.1829H298.099L307.414 65.5898L307.889 79.1829Z" fill="white"/>
<path d="M225.283 57.1293C225.283 56.7491 225.188 56.4639 224.903 56.2738C224.713 56.0837 224.428 55.9886 224.047 55.9886C222.812 55.9886 221.576 55.9886 220.34 56.0837C219.104 56.1787 217.869 56.1787 216.633 56.1787C215.967 56.1787 215.017 56.0837 213.686 56.0837C212.355 56.0837 211.5 56.1787 211.025 56.559C210.929 56.654 210.834 56.8441 210.834 56.9392C210.739 57.1293 210.644 57.2244 210.644 57.3194L194.485 81.7491L193.819 57.6996C193.819 57.2243 193.819 56.8441 193.724 56.559C193.629 56.1787 193.344 56.0837 192.869 55.9886C191.538 55.9886 190.112 55.9886 188.781 56.0837C187.45 56.0837 186.025 56.0837 184.694 56.0837C183.933 56.0837 183.173 55.9886 182.412 55.9886C181.652 55.8936 180.891 55.8936 180.131 55.8936C179.656 55.8936 179.18 55.9886 178.705 56.0837C178.23 56.2738 178.04 56.559 177.945 57.1293C178.135 58.0799 178.895 58.5552 180.131 58.4601C181.462 58.4601 182.127 58.9354 182.317 59.7909C182.317 60.4563 182.127 61.1217 181.937 61.7871C181.652 62.4525 181.462 63.1179 181.272 63.6882C179.846 67.6806 178.42 71.578 176.994 75.5704C175.568 79.5628 174.142 83.4601 172.621 87.4525C172.051 89.1635 171.481 90.3042 170.91 90.9696C170.34 91.635 169.199 92.1103 167.393 92.3955C166.918 92.4905 166.443 92.5856 166.063 92.8707C165.682 93.0608 165.492 93.4411 165.492 94.0114C165.492 94.4867 165.682 94.7719 165.967 94.962C166.253 95.0571 166.633 95.1521 167.108 95.1521C168.154 95.1521 169.199 95.1521 170.245 95.0571C171.291 94.962 172.336 94.962 173.382 94.962C174.332 94.962 175.283 95.0571 176.234 95.1521C177.184 95.2472 178.135 95.2472 179.085 95.3422C179.561 95.3422 179.941 95.2472 180.321 94.962C180.701 94.7719 180.891 94.3917 180.986 93.9164C180.891 93.0609 180.511 92.6806 179.656 92.5856C178.8 92.4905 177.945 92.3955 177.089 92.2054C176.234 92.0152 175.758 91.2548 175.758 89.924C175.853 88.1179 176.519 85.3612 177.755 81.654C178.99 78.0418 180.226 74.4297 181.652 71.0076C182.983 67.5856 183.933 65.3042 184.409 64.0685L185.074 92.0152C185.074 92.8707 185.169 93.5362 185.359 94.1065C185.549 94.5818 186.12 94.8669 187.07 94.8669C188.021 94.8669 188.781 94.4867 189.351 93.8213C189.922 93.1559 190.397 92.4905 190.872 91.7301L209.694 64.0685L203.515 87.4525C203.325 88.4981 203.04 89.4487 202.659 90.4943C202.279 91.5399 201.519 92.1103 200.473 92.3955C199.808 92.3955 199.142 92.5856 198.382 92.6806C197.621 92.8708 197.146 93.346 197.051 94.1065C197.051 94.5818 197.241 94.867 197.526 95.0571C197.812 95.2472 198.192 95.3422 198.572 95.3422C199.903 95.3422 201.329 95.2472 202.659 95.1521C203.99 95.0571 205.416 94.962 206.747 94.962C208.173 94.962 209.599 95.0571 210.929 95.1521C212.355 95.2472 213.781 95.3422 215.112 95.3422C215.682 95.3422 216.063 95.2472 216.538 95.0571C216.918 94.867 217.203 94.4867 217.203 93.9164C217.108 93.251 216.823 92.7757 216.158 92.6806C215.492 92.5856 214.827 92.3955 214.161 92.2054C213.496 92.0152 213.116 91.4449 213.116 90.3993C213.116 89.7339 213.211 88.9734 213.401 88.2129C213.591 87.4525 213.686 86.7871 213.876 86.1217L219.865 62.0723C220.055 61.0266 220.34 60.1711 220.72 59.6008C221.101 59.0304 221.766 58.6502 222.907 58.4601C223.477 58.4601 224.047 58.27 224.618 58.0799C224.903 58.27 225.283 57.7947 225.283 57.1293Z" fill="white"/>
<path d="M429.561 60.2659C426.805 56.2735 422.907 54.2773 418.059 54.2773C413.211 54.2773 409.314 56.2735 406.558 60.1709C403.516 64.4484 402.66 70.0568 402.66 75.1899C402.66 80.418 403.516 85.9313 406.558 90.304C409.314 94.2013 413.211 96.2925 418.059 96.2925C422.812 96.2925 426.71 94.2964 429.466 90.399C432.508 86.1215 433.364 80.7032 433.364 75.5701C433.364 70.437 432.603 64.6385 429.561 60.2659ZM428.516 89.8287C425.949 93.4408 422.337 95.2469 417.964 95.2469C413.497 95.2469 409.98 93.4408 407.413 89.7336C404.466 85.5511 403.706 80.2279 403.706 75.2849C403.706 70.342 404.561 65.0188 407.413 60.8363C409.98 57.2241 413.592 55.3229 417.964 55.3229C422.432 55.3229 426.044 57.129 428.611 60.8363C431.558 65.0188 432.318 70.5321 432.318 75.5701C432.318 80.5131 431.462 85.7412 428.516 89.8287Z" fill="white"/>
<path d="M427.756 61.5019C425.475 58.1749 422.243 56.4639 418.061 56.4639C413.973 56.4639 410.741 58.1749 408.365 61.5019C405.988 64.8289 404.848 69.3916 404.848 75.2851C404.848 81.1787 405.988 85.7414 408.365 89.0684C410.741 92.3954 413.973 94.1065 418.061 94.1065C422.148 94.1065 425.38 92.4905 427.756 89.1635C430.133 85.8365 431.274 81.3688 431.274 75.5703C431.178 69.5817 430.038 64.8289 427.756 61.5019ZM423.764 85.5513C422.528 87.7376 420.627 88.7833 417.966 88.7833C415.304 88.7833 413.688 87.6426 412.547 85.4563C409.886 80.5133 408.27 61.5019 417.966 61.692C427.661 62.0722 426.426 80.7985 423.764 85.5513Z" fill="white"/>
<path d="M394.772 60.2659C392.016 56.2735 388.118 54.2773 383.27 54.2773C378.422 54.2773 374.525 56.2735 371.768 60.1709C368.727 64.4484 367.871 70.0568 367.871 75.1899C367.871 80.418 368.727 85.9313 371.768 90.304C374.525 94.2013 378.422 96.2925 383.27 96.2925C388.023 96.2925 391.921 94.2964 394.677 90.399C397.719 86.1215 398.575 80.7032 398.575 75.5701C398.67 70.437 397.814 64.6385 394.772 60.2659ZM393.822 89.8287C391.255 93.4408 387.643 95.2469 383.27 95.2469C378.803 95.2469 375.286 93.4408 372.719 89.7336C369.772 85.5511 369.012 80.2279 369.012 75.2849C369.012 70.342 369.867 65.0188 372.719 60.8363C375.286 57.2241 378.898 55.3229 383.27 55.3229C387.738 55.3229 391.35 57.129 393.917 60.8363C396.863 65.0188 397.624 70.5321 397.624 75.5701C397.529 80.5131 396.768 85.7412 393.822 89.8287Z" fill="white"/>
<path d="M392.963 61.5019C390.682 58.1749 387.45 56.4639 383.268 56.4639C379.18 56.4639 375.948 58.1749 373.572 61.5019C371.195 64.8289 370.055 69.3916 370.055 75.2851C370.055 81.1787 371.195 85.7414 373.572 89.0684C375.948 92.3954 379.18 94.1065 383.268 94.1065C387.355 94.1065 390.587 92.4905 392.963 89.1635C395.34 85.8365 396.481 81.3688 396.481 75.5703C396.481 69.5817 395.34 64.8289 392.963 61.5019ZM388.971 85.5513C387.735 87.7376 385.834 88.7833 383.173 88.7833C380.511 88.7833 378.895 87.6426 377.754 85.4563C375.093 80.5133 373.477 61.5019 383.173 61.692C392.868 62.0722 391.728 80.7985 388.971 85.5513Z" fill="white"/>
<path d="M362.262 75.5704C361.501 73.9545 360.361 72.5286 359.03 71.2929C357.414 69.867 355.513 68.7263 353.422 68.0609C352.186 67.6807 350.855 67.3955 349.524 67.3955C349.429 67.3955 349.429 67.3955 349.334 67.3955C349.809 66.54 350.285 65.6845 350.76 64.924C351.425 63.7834 352.186 62.6427 353.041 61.502C353.707 60.6465 354.277 59.6959 355.038 58.9355L357.509 56.0838L347.433 54.4678L346.673 55.2282C345.152 56.7492 343.821 58.6503 342.68 60.4564C341.159 62.7378 339.733 65.2092 338.498 67.6807C336.501 71.7681 333.935 77.8518 334.315 82.4145C334.6 90.0191 340.589 96.1028 348.193 96.3879C350.095 96.483 352.091 96.1978 353.897 95.4374C355.608 94.772 357.224 93.8214 358.65 92.4906C361.406 89.924 363.117 86.407 363.308 82.6997C363.308 82.3195 363.403 81.9393 363.403 81.6541C363.688 79.6579 363.212 77.5666 362.262 75.5704ZM362.452 82.6997C362.262 86.2168 360.741 89.4488 358.174 91.8252C356.939 92.9659 355.418 93.9165 353.802 94.4868C352.091 95.1522 350.38 95.4374 348.574 95.3423C341.539 95.0571 335.931 89.3537 335.741 82.3195C335.361 77.9469 337.927 71.9583 339.828 68.156C341.064 65.6845 342.395 63.3081 343.916 61.0267C345.057 59.3157 346.387 57.4145 347.813 55.9887L348.193 55.6085L355.703 56.8442L354.467 58.175C353.707 59.0305 353.041 59.9811 352.376 60.8366C351.616 61.9773 350.855 63.118 350.095 64.3537C349.239 65.6845 348.479 67.1104 347.813 68.5362C347.908 68.5362 347.908 68.5362 348.003 68.5362C348.574 68.4412 349.144 68.4412 349.714 68.5362C350.95 68.6313 352.186 68.8214 353.327 69.2016C355.228 69.772 357.034 70.8176 358.555 72.1484C359.79 73.2891 360.741 74.6199 361.501 76.0457C362.357 77.7568 362.737 79.753 362.642 81.6541C362.452 82.0343 362.452 82.4146 362.452 82.6997Z" fill="white"/>
<path d="M352.852 70.1521C351.806 69.7718 350.665 69.5817 349.525 69.5817C348.954 69.5817 348.479 69.5817 347.909 69.5817C347.243 69.6768 346.578 69.7719 345.912 69.962C347.433 66.1597 351.236 60.2662 353.612 57.6046L348.384 56.749C344.106 61.2167 335.931 75.2852 336.597 82.3194C336.787 88.7833 341.92 94.1064 348.479 94.3916C355.323 94.6768 361.027 89.4487 361.407 82.6045C361.407 82.3194 361.502 81.9391 361.502 81.654C361.597 78.2319 360.171 75.095 357.7 72.9087C356.369 71.673 354.753 70.7224 352.852 70.1521ZM348.764 89.1635C344.772 88.9734 341.635 85.6464 341.825 81.654C342.015 77.6616 345.342 74.5247 349.335 74.7148C353.327 74.9049 356.464 78.2319 356.274 82.2243C356.179 86.2167 352.757 89.3536 348.764 89.1635Z" fill="white"/>
</g>
<defs>
<clipPath id="clip0_4_3955">
<rect width="458.175" height="100" fill="white"/>
</clipPath>
</defs>
</svg>
