<svg width="459" height="100" viewBox="0 0 459 100" fill="none" xmlns="http://www.w3.org/2000/svg">
<g clip-path="url(#clip0_4_3980)">
<path d="M50 0C22.3384 0 0 22.4335 0 50C0 77.6616 22.4335 100 50 100C55.3232 100 60.4563 99.1445 65.2091 97.6236V72.6236C61.0266 75 56.1787 76.4259 51.0456 76.4259C35.8365 76.4259 23.5741 64.5437 23.5741 50C23.5741 35.4563 35.9316 23.5742 51.0456 23.5742C56.2738 23.5742 61.1217 25 65.2091 27.3764V2.37643C60.4563 0.855513 55.3232 0 50 0Z" fill="white"/>
<path d="M65.6836 30.9883H102.946L86.2159 48.3837H65.6836V30.9883Z" fill="white"/>
<path d="M65.6836 69.2958H102.946L86.2159 51.9004H65.6836V69.2958Z" fill="white"/>
<path d="M165.97 44.0106C170.722 44.0106 174.525 42.6798 177.567 40.2084C180.608 37.6418 182.129 34.1247 182.224 29.4669C182.129 24.8091 180.608 21.1969 177.567 18.6304C174.525 16.0639 170.722 14.8281 165.97 14.8281C161.217 14.8281 157.414 16.1589 154.373 18.6304C151.331 21.1019 149.81 24.8091 149.715 29.4669C149.81 34.1247 151.331 37.7369 154.373 40.2084C157.414 42.6798 161.217 44.0106 165.97 44.0106ZM165.97 37.2616C163.783 37.1665 162.167 36.4061 161.122 34.8852C160.076 33.3643 159.601 31.5582 159.696 29.3719C159.696 27.1856 160.171 25.3795 161.122 23.8585C162.072 22.3376 163.688 21.5772 165.97 21.4821C168.156 21.5772 169.772 22.3376 170.818 23.8585C171.863 25.3795 172.338 27.1856 172.243 29.3719C172.243 31.4631 171.768 33.3643 170.818 34.8852C169.772 36.4061 168.156 37.1665 165.97 37.2616Z" fill="white"/>
<path d="M186.121 43.3452H195.817V31.5582C195.817 28.6114 196.292 26.33 197.243 24.9042C198.193 23.4783 199.524 22.8129 201.235 22.8129C202.566 22.8129 203.612 23.3833 204.182 24.4289C204.752 25.4745 205.133 26.8053 205.133 28.4213V43.4403H214.828V31.6532C214.828 28.7065 215.304 26.4251 216.254 24.9992C217.205 23.5734 218.536 22.908 220.247 22.908C221.577 22.908 222.623 23.4783 223.193 24.524C223.764 25.5696 224.144 26.9004 224.144 28.5163V43.5354H233.84V27.0905C233.935 23.2882 233.269 20.3414 231.939 18.1551C230.608 16.0639 227.946 14.9232 223.954 14.9232C221.958 14.9232 220.056 15.3034 218.345 16.1589C216.634 17.0144 215.209 18.3452 214.068 20.2464C213.307 18.4403 212.167 17.1095 210.646 16.1589C209.125 15.3034 207.319 14.8281 205.323 14.8281C203.136 14.8281 201.045 15.3034 199.334 16.254C197.528 17.2046 196.197 18.6304 195.152 20.6266H195.056V15.4935H186.216L186.121 43.3452Z" fill="white"/>
<path d="M239.068 43.3452H248.764V31.5582C248.764 28.6114 249.239 26.33 250.19 24.9042C251.141 23.4783 252.471 22.8129 254.182 22.8129C255.513 22.8129 256.559 23.3833 257.129 24.4289C257.7 25.4745 258.08 26.8053 258.08 28.4213V43.4403H267.776V31.6532C267.776 28.7065 268.251 26.4251 269.201 24.9992C270.152 23.5734 271.483 22.908 273.194 22.908C274.525 22.908 275.57 23.4783 276.141 24.524C276.711 25.5696 277.091 26.9004 277.091 28.5163V43.5354H286.787V27.0905C286.882 23.2882 286.217 20.3414 284.886 18.1551C283.555 16.0639 280.893 14.9232 276.901 14.9232C274.905 14.9232 273.004 15.3034 271.293 16.1589C269.582 17.0144 268.156 18.3452 267.015 20.2464C266.255 18.4403 265.114 17.1095 263.593 16.1589C262.072 15.3034 260.266 14.8281 258.27 14.8281C256.084 14.8281 253.992 15.3034 252.281 16.254C250.475 17.2046 249.144 18.6304 248.099 20.6266H248.004V15.4935H239.163L239.068 43.3452Z" fill="white"/>
<path d="M306.845 44.0106C311.597 44.0106 315.4 42.6798 318.442 40.2084C321.483 37.6418 323.004 34.1247 323.099 29.4669C323.004 24.8091 321.483 21.1969 318.442 18.6304C315.4 16.0639 311.597 14.8281 306.845 14.8281C302.092 14.8281 298.289 16.1589 295.248 18.6304C292.206 21.1019 290.685 24.8091 290.59 29.4669C290.685 34.1247 292.206 37.7369 295.248 40.2084C298.289 42.6798 302.187 44.0106 306.845 44.0106ZM306.845 37.2616C304.658 37.1665 303.042 36.4061 301.997 34.8852C300.951 33.3643 300.476 31.5582 300.571 29.3719C300.571 27.1856 301.046 25.3795 301.997 23.8585C302.947 22.3376 304.563 21.5772 306.845 21.4821C309.031 21.5772 310.647 22.3376 311.693 23.8585C312.738 25.3795 313.213 27.1856 313.118 29.3719C313.118 31.4631 312.643 33.3643 311.693 34.8852C310.647 36.4061 309.126 37.1665 306.845 37.2616Z" fill="white"/>
<path d="M357.129 3.13672H347.433V19.0112H347.338C346.103 17.3953 344.677 16.3496 343.061 15.6842C341.445 15.0188 339.639 14.7337 337.738 14.7337C333.84 14.9238 330.894 16.3496 328.897 19.2014C326.901 22.0531 325.855 25.285 325.855 28.8021C325.855 33.0797 326.996 36.5968 329.087 39.4485C331.274 42.3002 334.411 43.8211 338.593 43.9162C340.875 43.9162 342.871 43.3458 344.582 42.3002C346.293 41.2546 347.528 39.9238 348.194 38.3078H348.289V43.3458H357.224L357.129 3.13672ZM335.646 29.0873C335.646 27.1861 336.122 25.5702 337.167 24.2394C338.213 22.9086 339.639 22.2432 341.54 22.1481C343.346 22.1481 344.772 22.9086 345.817 24.2394C346.863 25.5702 347.433 27.2812 347.433 29.4675C347.433 31.5588 346.768 33.2698 345.722 34.6006C344.677 35.9314 343.251 36.5968 341.54 36.5968C339.734 36.5968 338.308 35.8363 337.262 34.5055C336.217 33.1747 335.646 31.3686 335.646 29.0873Z" fill="white"/>
<path d="M376.997 44.0106C381.75 44.0106 385.552 42.6798 388.594 40.2084C391.636 37.6418 393.157 34.1247 393.252 29.4669C393.157 24.8091 391.636 21.1969 388.594 18.6304C385.552 16.0639 381.75 14.8281 376.997 14.8281C372.244 14.8281 368.442 16.1589 365.4 18.6304C362.358 21.1969 360.837 24.8091 360.742 29.4669C360.837 34.1247 362.358 37.7369 365.4 40.2084C368.442 42.6798 372.339 44.0106 376.997 44.0106ZM376.997 37.2616C374.811 37.1665 373.195 36.4061 372.149 34.8852C371.198 33.3643 370.628 31.5582 370.723 29.3719C370.723 27.1856 371.198 25.3795 372.149 23.8585C373.1 22.3376 374.716 21.5772 376.997 21.4821C379.183 21.5772 380.799 22.3376 381.845 23.8585C382.795 25.3795 383.366 27.1856 383.271 29.3719C383.271 31.4631 382.795 33.3643 381.845 34.8852C380.894 36.4061 379.278 37.1665 376.997 37.2616Z" fill="white"/>
<path d="M417.681 15.1133C417.205 15.0183 416.635 14.9232 416.065 14.9232C415.494 14.8281 414.924 14.8281 414.354 14.8281C412.263 14.8281 410.551 15.3985 409.316 16.4441C407.985 17.4897 406.939 18.9156 406.084 20.6266H405.989V15.4935H397.148V43.4403H406.844V31.6532C406.844 28.8966 407.415 26.7102 408.65 25.1893C409.886 23.6684 411.597 22.908 413.878 22.908C414.449 22.908 415.019 22.908 415.494 22.908C416.065 22.908 416.54 23.003 417.11 23.1932L417.681 15.1133Z" fill="white"/>
<path d="M448.004 32.2239V30.4178C448.099 26.1402 446.959 22.433 444.867 19.4863C442.681 16.4444 439.069 14.9235 433.936 14.7334C429.468 14.7334 425.951 16.0642 423.194 18.5357C420.438 21.1022 419.012 24.6193 419.012 29.2771C419.107 33.9349 420.628 37.5471 423.67 40.0186C426.711 42.5851 430.514 43.8209 435.266 43.9159C437.073 43.9159 438.879 43.8209 440.59 43.5357C442.301 43.2505 444.012 42.7752 445.533 42.2049V35.3608C444.107 36.1212 442.586 36.6916 441.16 36.9768C439.734 37.357 438.308 37.4521 436.978 37.4521C434.601 37.4521 432.7 37.0718 431.274 36.2163C429.848 35.3608 428.993 34.03 428.708 32.1289L448.004 32.2239ZM428.517 26.7106C428.612 25.0946 429.088 23.6688 429.943 22.6231C430.799 21.4825 432.13 20.9121 433.841 20.9121C435.742 20.9121 437.168 21.4825 437.928 22.6231C438.784 23.7638 439.164 25.0946 439.164 26.7106H428.517Z" fill="white"/>
<path d="M129.088 43.6311C124.905 42.4904 121.673 40.5892 119.012 37.6424C116.35 34.6957 115.114 32.0341 114.354 27.2812C112.928 17.9656 116.92 9.4105 124.62 5.70327C128.517 3.80213 133.745 2.85156 138.974 2.85156C142.206 2.85156 145.057 3.42191 147.719 3.8972L146.863 12.2622C146.863 12.2622 146.198 12.0721 144.297 11.5968C142.491 11.1215 140.685 10.9314 138.879 10.9314C135.266 10.9314 131.749 11.882 129.468 13.6881C124.05 17.8706 124.05 28.8021 129.658 33.3649C133.08 36.2166 139.259 37.1672 144.772 35.7413L147.339 35.0759L148.099 43.536C146.483 43.9162 143.061 44.5816 138.879 44.5816C133.365 44.5816 131.654 44.3915 129.088 43.6311Z" fill="white"/>
<path d="M458.175 48.4795H107.414V51.3312H458.175V48.4795Z" fill="white"/>
<path d="M160.361 94.2019C160.361 93.7267 160.266 93.3464 159.981 93.2514C159.696 93.0613 159.41 92.9662 158.935 92.9662C157.414 92.681 156.559 92.1107 156.273 91.2552C155.988 90.3046 155.893 89.1639 155.893 87.7381L154.372 58.4605C154.372 57.4149 154.277 56.5594 154.087 55.7989C153.897 55.1335 153.232 54.7533 151.996 54.6582C150.95 54.6582 150.19 55.0384 149.715 55.6088C149.239 56.1791 148.764 56.9396 148.194 57.7L129.372 84.1259L126.235 88.5936C125.57 89.5441 124.905 90.3997 124.239 91.2552C123.479 92.1107 122.528 92.586 121.388 92.7761C120.722 92.8711 120.152 92.9662 119.581 93.1563C119.011 93.3464 118.726 93.8217 118.631 94.5822C118.631 95.0574 118.821 95.3426 119.106 95.4377C119.391 95.5328 119.772 95.6278 120.152 95.6278C121.197 95.6278 122.338 95.5328 123.479 95.4377C124.619 95.3426 125.665 95.2476 126.806 95.2476C127.851 95.2476 128.802 95.3426 129.753 95.4377C130.703 95.5328 131.749 95.5327 132.699 95.6278C133.175 95.6278 133.555 95.5327 133.935 95.3426C134.315 95.1525 134.505 94.7723 134.505 94.297C134.41 93.5365 134.03 93.1563 133.175 93.0613C132.319 92.9662 131.559 92.7761 130.703 92.586C129.848 92.3959 129.467 91.8255 129.372 90.7799C129.562 89.7343 130.228 88.2134 131.464 86.3122C132.699 84.4111 133.555 82.9852 134.125 82.2247H145.817C145.912 83.4605 145.912 84.6963 146.007 85.932C146.102 87.1677 146.102 88.4035 146.102 89.6392C146.007 91.3502 145.627 92.3958 144.772 92.681C143.916 92.9662 143.061 93.1563 142.3 93.1563C141.445 93.1563 140.969 93.7266 140.969 94.5822C140.969 94.9624 141.064 95.2476 141.349 95.4377C141.635 95.6278 141.92 95.6278 142.3 95.6278C143.916 95.6278 145.532 95.5328 147.148 95.4377C148.764 95.3426 150.38 95.2476 151.996 95.2476C153.042 95.2476 154.182 95.3426 155.228 95.3426C156.273 95.4377 157.414 95.4377 158.46 95.4377C158.935 95.4377 159.41 95.3426 159.696 95.2476C160.171 95.0575 160.361 94.7723 160.361 94.2019ZM145.912 79.278H136.121L145.437 65.6848L145.912 79.278Z" fill="white"/>
<path d="M245.341 56.9392C245.341 56.559 245.246 56.3688 244.961 56.1787C244.771 55.9886 244.486 55.8936 244.106 55.8936C243.535 55.8936 243.06 55.8936 242.585 55.9886C242.109 55.9886 241.539 56.0837 241.064 56.1787C239.733 56.2738 238.497 56.3688 237.167 56.4639C235.836 56.4639 234.505 56.4639 233.174 56.4639C232.224 56.4639 231.273 56.3688 230.227 56.3688C229.277 56.2738 228.326 56.2738 227.281 56.2738C226.805 56.2738 226.425 56.3688 226.045 56.654C225.665 56.9392 225.474 57.3194 225.474 57.7947C225.665 58.6502 226.33 59.1255 227.471 59.0304C228.611 58.9354 229.277 59.5057 229.467 60.5513C229.467 60.8365 229.467 61.1217 229.372 61.5019C229.277 61.7871 229.182 62.0723 229.087 62.4525L221.672 88.1179C221.387 89.3536 221.102 90.3992 220.722 91.2548C220.341 92.1103 219.581 92.6806 218.345 92.9658C217.775 93.0609 217.109 93.1559 216.349 93.346C215.589 93.5361 215.113 94.0114 215.113 94.6768C215.113 95.057 215.303 95.3422 215.589 95.5323C215.874 95.7224 216.254 95.8175 216.634 95.8175C217.87 95.8175 219.201 95.7224 220.436 95.6274C221.767 95.5323 223.003 95.4373 224.334 95.4373C225.76 95.4373 227.09 95.5323 228.516 95.6274C229.942 95.7224 231.273 95.7225 232.699 95.8175C233.269 95.8175 233.935 95.8175 234.695 95.7224C235.455 95.6274 235.836 95.2472 235.931 94.4867C235.836 93.7263 235.455 93.346 234.79 93.251C234.125 93.1559 233.364 93.0608 232.699 92.8707C232.033 92.6806 231.653 92.0152 231.558 90.8745C231.558 90.3992 231.653 89.924 231.748 89.4487C231.843 88.9734 232.033 88.4981 232.128 88.0228L239.543 62.2624C239.828 61.2167 240.113 60.4563 240.494 59.981C240.874 59.5057 241.634 59.1255 242.68 58.9354C243.25 58.8403 243.821 58.7452 244.486 58.4601C244.961 57.9848 245.246 57.6046 245.341 56.9392Z" fill="white"/>
<path d="M283.936 57.2244C283.841 56.559 283.175 56.1788 282.035 55.8936C280.799 55.6084 279.563 55.5134 278.232 55.4183C276.902 55.3232 276.046 55.3232 275.571 55.3232C270.628 55.3232 265.495 56.3689 260.172 58.27C254.848 60.2662 250.286 63.1179 246.483 66.9202C242.681 70.7225 240.685 75.3803 240.59 80.8936C240.685 84.4107 241.635 87.2624 243.632 89.5438C245.628 91.8251 248.004 93.5362 251.046 94.6768C253.993 95.8175 257.035 96.3879 260.267 96.3879C262.168 96.3879 264.069 96.2928 266.065 96.0076C267.966 95.8175 269.867 95.4373 271.769 94.962C272.434 94.867 273.099 94.6769 273.575 94.3917C274.05 94.2016 274.43 93.7263 274.715 92.9658C275.191 91.54 275.666 90.0191 276.141 88.4981C276.616 86.9772 276.997 85.4563 277.377 84.0305C278.042 81.9392 278.898 80.6084 279.848 80.2282C280.799 79.848 281.654 79.6578 282.415 79.6578C283.175 79.6578 283.556 79.1826 283.556 78.232C283.556 77.8518 283.366 77.5666 283.08 77.3765C282.795 77.1864 282.415 77.0913 282.13 77.0913C280.704 77.0913 279.183 77.1864 277.757 77.2814C276.236 77.3765 274.81 77.4715 273.289 77.4715C271.864 77.4715 270.438 77.3765 269.107 77.2814C267.681 77.1864 266.255 77.0913 264.924 77.0913C264.449 77.0913 263.974 77.1864 263.594 77.3765C263.118 77.5666 262.928 77.9468 262.928 78.4221C263.023 79.0875 263.404 79.4677 264.069 79.5628C264.829 79.6578 265.495 79.7529 266.255 80.0381C267.016 80.2282 267.396 80.8936 267.396 81.9392C267.301 83.0799 267.016 84.5057 266.35 86.5019C265.78 88.4031 265.21 89.924 264.829 91.1598C264.639 92.0153 264.259 92.6807 263.879 93.0609C263.499 93.4411 262.833 93.6312 261.883 93.6312C258.461 93.5362 255.799 92.4905 254.088 90.3042C252.282 88.1179 251.426 85.4563 251.426 82.1293C251.426 79.0875 252.092 76.0457 253.327 73.194C254.563 70.3422 256.274 67.7757 258.366 65.5894C260.457 63.4981 263.118 61.6921 266.16 60.1712C269.297 58.6502 272.339 57.8898 275.381 57.7947C276.807 57.7947 277.662 58.0799 278.042 58.6502C278.327 59.2206 278.518 60.1712 278.423 61.5019C278.423 61.8822 278.423 62.1674 278.327 62.5476C278.327 62.9278 278.232 63.213 278.232 63.5932C278.232 64.1636 278.327 64.7339 278.518 65.2092C278.708 65.6845 279.183 65.9696 279.848 65.9696C280.609 65.8746 281.084 65.5894 281.464 64.924C281.845 64.2586 282.035 63.5932 282.225 63.0229C282.415 62.5476 282.7 61.597 283.175 60.0761C283.556 58.5552 283.841 57.6046 283.936 57.2244Z" fill="white"/>
<path d="M317.586 94.2019C317.586 93.7267 317.49 93.3464 317.205 93.2514C316.92 93.0613 316.635 92.9662 316.16 92.9662C314.639 92.681 313.783 92.1107 313.498 91.2552C313.213 90.3046 313.118 89.1639 313.118 87.7381L311.597 58.4605C311.597 57.4149 311.502 56.5594 311.312 55.7989C311.122 55.1335 310.456 54.7533 309.22 54.6582C308.175 54.6582 307.414 55.0384 306.939 55.6088C306.464 56.1791 305.989 56.9396 305.418 57.7L286.597 84.1259L283.46 88.5936C282.795 89.5441 282.129 90.3997 281.464 91.2552C280.703 92.1107 279.753 92.586 278.612 92.7761C277.947 92.8711 277.376 92.9662 276.806 93.1563C276.236 93.3464 275.951 93.8217 275.855 94.5822C275.855 95.0574 276.046 95.3426 276.331 95.4377C276.616 95.5328 276.996 95.6278 277.376 95.6278C278.422 95.6278 279.563 95.5328 280.703 95.4377C281.844 95.3426 282.89 95.2476 284.03 95.2476C285.076 95.2476 286.027 95.3426 286.977 95.4377C288.023 95.5328 288.973 95.5327 289.924 95.6278C290.399 95.6278 290.779 95.5327 291.16 95.3426C291.54 95.1525 291.73 94.7723 291.73 94.297C291.635 93.5365 291.255 93.1563 290.399 93.0613C289.544 92.9662 288.783 92.7761 287.928 92.586C287.072 92.3959 286.692 91.8255 286.597 90.7799C286.787 89.7343 287.452 88.2134 288.688 86.3122C289.924 84.4111 290.779 82.9852 291.35 82.2247H303.137C303.232 83.4605 303.232 84.6963 303.327 85.932C303.422 87.1677 303.422 88.4035 303.422 89.6392C303.327 91.3502 302.947 92.3958 302.091 92.681C301.236 92.9662 300.38 93.1563 299.62 93.1563C298.764 93.1563 298.289 93.7266 298.289 94.5822C298.289 94.9624 298.384 95.2476 298.669 95.4377C298.954 95.6278 299.24 95.6278 299.62 95.6278C301.236 95.6278 302.852 95.5328 304.468 95.4377C306.084 95.3426 307.7 95.2476 309.316 95.2476C310.361 95.2476 311.502 95.3426 312.547 95.3426C313.593 95.4377 314.734 95.4377 315.779 95.4377C316.255 95.4377 316.73 95.3426 317.015 95.2476C317.395 95.0575 317.586 94.7723 317.586 94.2019ZM303.042 79.278H293.251L302.567 65.6848L303.042 79.278Z" fill="white"/>
<path d="M220.437 57.1293C220.437 56.7491 220.342 56.4639 220.057 56.2738C219.867 56.0837 219.582 55.9886 219.202 55.9886C217.966 55.9886 216.73 55.9886 215.494 56.0837C214.259 56.1787 213.023 56.1787 211.787 56.1787C211.122 56.1787 210.171 56.0837 208.84 56.0837C207.51 56.0837 206.654 56.1787 206.179 56.5589C206.084 56.654 205.989 56.8441 205.989 56.9392C205.894 57.1293 205.799 57.2244 205.799 57.3194L189.639 81.7491L188.973 57.6996C188.973 57.2243 188.973 56.8441 188.878 56.5589C188.783 56.1787 188.498 56.0837 188.023 55.9886C186.692 55.9886 185.266 55.9886 183.935 56.0837C182.605 56.0837 181.179 56.0837 179.848 56.0837C179.088 56.0837 178.327 55.9886 177.567 55.9886C176.806 55.8936 176.046 55.8936 175.285 55.8936C174.81 55.8936 174.335 55.9886 173.859 56.0837C173.384 56.2738 173.194 56.5589 173.099 57.1293C173.289 58.0799 174.05 58.5551 175.285 58.4601C176.616 58.4601 177.281 58.9354 177.472 59.7909C177.472 60.4563 177.281 61.1217 177.091 61.7871C176.806 62.4525 176.616 63.1179 176.426 63.6882C175 67.6806 173.574 71.5779 172.148 75.5703C170.723 79.5627 169.297 83.4601 167.776 87.4525C167.205 89.1635 166.635 90.3042 166.065 90.9696C165.494 91.635 164.354 92.1103 162.548 92.3955C162.072 92.4905 161.597 92.5856 161.217 92.8707C160.837 93.0608 160.646 93.4411 160.646 94.0114C160.646 94.4867 160.837 94.7719 161.122 94.962C161.407 95.0571 161.787 95.1521 162.262 95.1521C163.308 95.1521 164.354 95.1521 165.399 95.057C166.445 94.962 167.491 94.962 168.536 94.962C169.487 94.962 170.437 95.057 171.388 95.1521C172.339 95.2472 173.289 95.2472 174.24 95.3422C174.715 95.3422 175.095 95.2471 175.475 95.057C175.856 94.8669 176.046 94.4867 176.141 94.0114C176.046 93.1559 175.665 92.7757 174.81 92.6806C173.954 92.5856 173.099 92.4905 172.243 92.3004C171.388 92.1103 170.913 91.3498 170.913 90.019C171.008 88.2129 171.673 85.4563 172.909 81.7491C174.145 78.1369 175.38 74.5247 176.806 71.1027C178.137 67.6806 179.088 65.3992 179.563 64.1635L180.228 92.1103C180.228 92.9658 180.323 93.6312 180.513 94.2015C180.704 94.6768 181.274 94.962 182.224 94.962C183.175 94.962 183.935 94.5818 184.506 93.9164C185.076 93.251 185.551 92.5856 186.027 91.8251L204.848 64.1635L198.669 87.5475C198.479 88.5932 198.194 89.5437 197.814 90.5894C197.434 91.635 196.673 92.2053 195.627 92.4905C194.962 92.4905 194.297 92.6806 193.536 92.7757C192.776 92.9658 192.3 93.4411 192.205 94.2015C192.205 94.6768 192.396 94.962 192.681 95.1521C192.966 95.3422 193.346 95.4373 193.726 95.4373C195.057 95.4373 196.483 95.3422 197.814 95.2472C199.145 95.1521 200.57 95.057 201.901 95.057C203.327 95.057 204.753 95.1521 206.084 95.2472C207.51 95.3422 208.935 95.4373 210.266 95.4373C210.837 95.4373 211.217 95.3422 211.692 95.1521C212.072 94.962 212.358 94.5818 212.358 94.0114C212.262 93.346 211.977 92.8707 211.312 92.7757C210.646 92.6806 209.981 92.4905 209.316 92.3004C208.65 92.1103 208.27 91.5399 208.27 90.4943C208.27 89.8289 208.365 89.0685 208.555 88.308C208.745 87.5476 208.84 86.8821 209.031 86.2167L215.019 62.1673C215.209 61.1217 215.494 60.2662 215.875 59.6958C216.255 59.1255 216.92 58.7453 218.061 58.5551C218.631 58.5551 219.202 58.365 219.772 58.1749C220.057 58.27 220.437 57.8897 220.437 57.1293Z" fill="white"/>
<path d="M332.985 66.1598L329.277 68.5362L329.467 57.6997L334.03 54.7529H342.966V96.1978L332.89 96.2929L332.985 66.1598ZM334.125 64.1636V95.2472H341.92V55.9887H334.41L330.608 58.4601L330.513 66.54L334.125 64.1636Z" fill="white"/>
<path d="M335.171 94.1064L335.266 62.0722L331.559 64.4486L331.654 59.0304L334.695 57.0342L340.779 57.1292V94.1064H335.171Z" fill="white"/>
<path d="M366.731 86.8817H376.237V96.3874H345.533L361.027 78.6117C362.168 77.3759 363.309 76.0451 364.354 74.7143C366.256 72.2429 368.442 69.106 366.541 66.0641C365.305 63.9729 362.168 63.9729 360.267 65.0185C358.841 65.779 357.986 67.2048 357.796 68.7258C357.605 69.6763 357.701 71.3874 358.461 72.0528L359.887 73.3835L353.993 81.3683L352.187 79.3721C349.906 76.9006 348.48 73.8588 348.195 70.4368C347.91 67.3949 348.575 64.2581 350.096 61.6915C351.617 59.125 353.803 57.1288 356.56 55.9881C359.602 54.6573 363.024 54.4672 366.256 55.1326C370.723 56.0832 374.906 59.6003 376.332 63.9729C377.472 67.5851 377.377 70.4368 376.047 74.049C374.906 77.0908 372.91 79.7524 370.818 82.1288C369.583 83.6497 368.157 85.2657 366.731 86.8817ZM364.354 87.9273C366.256 85.6459 368.157 83.5546 370.058 81.3683C372.054 78.9919 373.955 76.5204 375.096 73.5737C376.332 70.2467 376.427 67.5851 375.381 64.2581C374.05 60.2657 370.153 57.0337 366.066 56.1782C363.024 55.5128 359.887 55.7029 357.035 56.9387C354.564 58.0794 352.472 59.8854 351.046 62.2619C349.621 64.7333 348.955 67.5851 349.24 70.3417C349.526 73.4786 350.856 76.3303 352.948 78.6117L353.803 79.5623L358.366 73.4786L357.605 72.8132C356.56 71.8626 356.37 69.8664 356.56 68.5356C356.845 66.6345 357.891 64.9235 359.602 63.9729C362.073 62.7372 365.78 62.9273 367.301 65.4938C369.488 69.0109 367.396 72.528 365.02 75.4748C363.974 76.8056 362.834 78.0413 361.693 79.3721L347.815 95.3417H375.001V88.0223L364.354 87.9273Z" fill="white"/>
<path d="M374.049 94.1062H350.38L362.642 79.9427C366.254 75.8553 371.768 70.437 368.346 64.8286C366.54 61.8819 362.357 61.3115 359.22 62.9275C354.848 65.1138 354.562 71.3876 356.939 73.5739L353.802 77.7564C345.532 68.6309 352.756 54.3724 365.779 57.129C369.391 57.8895 373.004 60.8363 374.239 64.5435C375.285 67.6804 375.19 70.0568 374.049 73.1937C372.148 78.3267 367.11 82.6994 362.072 89.0682H374.049V94.1062Z" fill="white"/>
<path d="M407.034 60.266C404.277 56.2736 400.38 54.2773 395.532 54.2773C390.684 54.2773 386.787 56.2736 384.03 60.1709C380.988 64.4485 380.133 70.0568 380.133 75.1899C380.133 80.418 380.988 85.9313 384.03 90.304C386.787 94.2013 390.684 96.2926 395.532 96.2926C400.285 96.2926 404.182 94.2964 406.939 90.399C409.981 86.1215 410.836 80.7032 410.836 75.5701C410.931 70.437 410.076 64.7336 407.034 60.266ZM406.083 89.8287C403.517 93.4408 399.905 95.2469 395.532 95.2469C391.064 95.2469 387.547 93.4409 384.981 89.7336C382.034 85.5511 381.274 80.2279 381.274 75.285C381.274 70.342 382.129 65.0188 384.981 60.8363C387.547 57.2241 391.159 55.323 395.532 55.323C400 55.323 403.612 57.129 406.178 60.8363C409.125 65.0188 409.886 70.5321 409.886 75.5701C409.791 80.5131 409.03 85.7412 406.083 89.8287Z" fill="white"/>
<path d="M405.229 61.5019C402.948 58.1749 399.716 56.4639 395.533 56.4639C391.446 56.4639 388.214 58.1749 385.837 61.5019C383.461 64.8289 382.32 69.3916 382.32 75.2851C382.32 81.1787 383.461 85.7414 385.837 89.0684C388.214 92.3954 391.446 94.1064 395.533 94.1064C399.621 94.1064 402.853 92.4905 405.229 89.1635C407.605 85.8365 408.746 81.3688 408.746 75.5703C408.746 69.5817 407.605 64.9239 405.229 61.5019ZM401.237 85.5513C400.001 87.7376 398.1 88.7833 395.438 88.7833C392.777 88.7833 391.161 87.6426 390.02 85.4563C387.358 80.5133 385.742 61.5019 395.438 61.692C405.134 62.0722 403.993 80.8935 401.237 85.5513Z" fill="white"/>
<path d="M440.114 60.6468C437.357 56.6544 433.46 54.6582 428.612 54.6582C423.764 54.6582 419.867 56.6544 417.11 60.5518C414.068 64.8293 413.213 70.4377 413.213 75.5708C413.213 80.7989 414.068 86.3122 417.11 90.6848C419.867 94.5822 423.764 96.6734 428.612 96.6734C433.365 96.6734 437.262 94.6772 440.019 90.7799C443.061 86.5023 443.916 81.0841 443.916 75.951C444.011 70.7229 443.156 65.0194 440.114 60.6468ZM439.163 90.2096C436.597 93.8217 432.985 95.6278 428.612 95.6278C424.144 95.6278 420.627 93.8217 418.061 90.1145C415.114 85.932 414.354 80.6088 414.354 75.6658C414.354 70.7228 415.209 65.3997 418.061 61.2172C420.627 57.605 424.239 55.7038 428.612 55.7038C433.08 55.7038 436.692 57.5099 439.259 61.2172C442.205 65.3997 442.966 70.913 442.966 75.951C442.966 80.894 442.11 86.1221 439.163 90.2096Z" fill="white"/>
<path d="M438.403 61.8818C436.122 58.5548 432.89 56.8438 428.707 56.8438C424.62 56.8438 421.388 58.5548 419.011 61.8818C416.635 65.2088 415.494 69.7715 415.494 75.665C415.494 81.5586 416.635 86.1213 419.011 89.4483C421.388 92.7753 424.62 94.4863 428.707 94.4863C432.795 94.4863 436.026 92.8704 438.403 89.5434C440.779 86.2164 441.92 81.7487 441.92 75.9502C441.825 69.9616 440.684 65.2088 438.403 61.8818ZM434.315 85.9312C433.08 88.1175 431.179 89.1631 428.517 89.1631C425.855 89.1631 424.239 88.0225 423.099 85.8361C420.437 80.8932 418.821 61.8818 428.517 62.0719C438.308 62.4521 437.072 81.1784 434.315 85.9312Z" fill="white"/>
</g>
<defs>
<clipPath id="clip0_4_3980">
<rect width="458.175" height="100" fill="white"/>
</clipPath>
</defs>
</svg>
