<svg width="880" height="100" viewBox="0 0 880 100" fill="none" xmlns="http://www.w3.org/2000/svg">
<g clip-path="url(#clip0_4_4007)">
<path d="M71.18 71.4269H39.1633L32.9133 77.8302L25.8733 84.7969C24.52 86.3269 23.54 87.7069 22.9433 88.9402C22.4733 89.8869 22.27 90.8369 22.3133 91.7836C22.3633 92.7736 23.0567 93.6902 24.4033 94.5369C25.75 95.3802 27.9333 95.8636 30.95 95.9936L31.0533 98.1102H0L0.663333 95.9936C3.39667 95.6236 5.81 94.8369 7.9 93.6469C10.68 91.9969 14.62 88.6069 19.72 83.4602L89.9367 13.5869H93.3867L93.38 81.2102C93.4033 84.7436 93.4333 86.8802 93.47 87.6236C93.6133 90.4369 94.4033 92.4769 95.8533 93.7569C97.3067 95.0369 99.6467 95.7802 102.89 95.9869L102.233 98.1069H57.2867L58.0267 95.9869C62.4633 95.6569 65.0067 95.3702 65.6567 95.1269C67.0667 94.5569 68.31 93.3502 69.4 91.5269C70.48 89.7002 71.0433 86.5369 71.0733 82.0202L71.1733 71.4236L71.18 71.4269ZM70.93 66.4402L71.6233 39.4669L44.2 66.4402H70.9333" fill="white"/>
<path d="M168.205 15.5049L178.778 72.4049L225.315 15.5049H261.825L261.005 17.6249C256.005 17.6249 252.242 18.4782 249.722 20.1882C247.208 21.9016 245.155 25.2782 243.568 30.3315L227.092 83.3216C226.032 86.7016 225.542 89.2115 225.628 90.8582C225.702 92.3749 226.528 93.6016 228.108 94.5282C229.688 95.4516 232.728 95.9549 237.222 96.0415L236.638 98.1582H184.832L185.642 96.0415C191.212 96.0415 195.278 95.1882 197.852 93.4749C200.418 91.7649 202.502 88.3782 204.088 83.3249L220.772 29.6549L164.858 98.1682H161.642L148.765 28.3149L131.662 83.3249C130.962 85.5849 130.645 87.4815 130.718 89.0082C130.822 91.0649 131.785 92.7149 133.605 93.9716C135.435 95.2282 138.468 95.9182 142.715 96.0449L142.055 98.1616H107.738L108.325 96.0449C112.452 95.9182 115.582 95.2182 117.718 93.9449C121.482 91.6382 124.112 88.0982 125.618 83.3216L144.968 22.1449C142.732 20.2749 140.742 19.0549 139.002 18.4815C137.268 17.9149 134.382 17.6282 130.355 17.6282L131.162 15.5082H168.222" fill="white"/>
<path d="M270.935 17.5692L271.672 15.4492H322.412L321.522 17.5692C316.922 17.5692 313.452 18.3926 311.108 20.0359C308.762 21.6726 306.802 25.1026 305.222 30.3292L288.775 83.2359C287.582 87.0159 287.018 89.5426 287.078 90.8159C287.152 92.2959 287.925 93.4426 289.398 94.2626C291.288 95.3292 294.792 95.9092 299.905 95.9926L299.242 98.1092H247.818L248.555 95.9926C253.718 95.9926 257.452 95.1959 259.775 93.6192C262.092 92.0392 264.095 88.5726 265.768 83.2326L282.215 30.3259C283.225 27.0392 283.685 24.5526 283.605 22.8659C283.525 21.3526 282.748 20.1559 281.282 19.2959C279.812 18.4292 276.358 17.8559 270.935 17.5692Z" fill="white"/>
<path d="M474.438 71.4269H442.428L436.178 77.8302L429.138 84.7969C427.788 86.3269 426.804 87.7069 426.201 88.9402C425.741 89.8869 425.528 90.8369 425.578 91.7836C425.631 92.7736 426.324 93.6902 427.671 94.5369C429.014 95.3802 431.191 95.8636 434.218 95.9936L434.321 98.1102H403.268L403.928 95.9936C406.668 95.6236 409.078 94.8369 411.164 93.6469C413.941 91.9969 417.888 88.6069 422.991 83.4602L493.211 13.5869H496.661L496.644 81.2102C496.674 84.7436 496.704 86.8802 496.741 87.6236C496.881 90.4369 497.678 92.4769 499.121 93.7569C500.571 95.0369 502.918 95.7802 506.154 95.9869L505.498 98.1069H460.551L461.294 95.9869C465.724 95.6569 468.274 95.3702 468.928 95.1269C470.331 94.5569 471.581 93.3502 472.661 91.5269C473.751 89.7002 474.308 86.5369 474.344 82.0202L474.438 71.4269ZM474.188 66.4402L474.891 39.4669L447.468 66.4402H474.188Z" fill="white"/>
<path d="M417.55 14.378C418.297 15.0647 418.507 17.3447 418.507 17.3447L413.57 40.038H410.904C410.117 32.388 409.837 26.8847 405.694 23.518C401.557 20.1513 399.414 18.268 392.24 18.268C384.85 18.268 375.51 20.5313 368.324 24.6513C361.147 28.768 352.24 35.1213 347.46 43.698C342.687 52.2847 339.797 61.3047 340.267 70.758C340.677 78.8713 343.397 85.0747 348.424 89.3513C353.454 93.6313 359.204 95.768 365.677 95.768C368.41 95.768 371.7 95.1813 375.547 93.998L382.324 72.1747C383.47 68.508 384.014 66.118 383.96 64.978C383.88 63.4713 383.017 62.2047 381.36 61.168C379.694 60.1347 376.9 59.6113 372.967 59.6113L373.61 57.248H418.22L417.65 59.6113C415.004 59.7447 412.94 60.148 411.467 60.8447C409.997 61.5347 408.857 62.5547 408.06 63.9013C407.584 64.6947 406.897 66.758 405.99 70.068L398.344 94.6547C387.537 98.218 376.067 100.001 363.934 100.001C354.567 100.001 346.547 98.678 339.85 96.0447C333.154 93.4013 327.5 89.2213 322.904 83.498C318.3 77.768 315.824 71.248 315.457 63.938C314.684 48.3447 322.767 35.4847 339.707 25.3747C352.984 17.5313 367.954 14.1013 385.134 13.258C386.764 13.258 390.967 12.8613 396.827 12.8613C401.807 12.8613 407.57 13.0247 415.917 13.618C415.917 13.618 416.634 13.528 417.544 14.3847" fill="white"/>
<path d="M555.348 35.2391V76.4825C555.348 87.8625 564.338 97.1025 575.418 97.1025H619.412C630.488 97.1025 639.478 87.8658 639.478 76.4825L639.475 65.9458H619.565V69.9125C619.565 75.0291 615.915 78.7725 610.938 78.7725H583.582C578.608 78.7725 574.965 75.0291 574.965 69.9125V43.6491C574.965 38.5291 578.608 34.7858 583.582 34.7858H609.152C614.128 34.7858 617.778 38.5291 617.778 43.6491V45.7858H637.688L637.695 35.2425C637.695 23.8591 628.702 14.6191 617.625 14.6191H575.408C564.332 14.6191 555.342 23.8558 555.342 35.2425" fill="white"/>
<path d="M671.304 78.851V33.0243H706.537C712.694 33.0243 717.68 38.1543 717.68 44.491V67.4043C717.68 73.7243 712.69 78.861 706.537 78.861H671.304V78.851ZM651.684 97.181H715.744C727.627 97.181 737.6 86.9243 737.6 74.7277V37.151C737.6 24.951 727.627 14.6943 715.744 14.6943H651.684V97.181Z" fill="white"/>
<path d="M833.624 24.3367C825.634 24.3367 817.494 28.5767 817.494 36.67V44.16L817.574 44.1667V54.9933H880.001V43.3933H835.014C829.221 41.91 835.571 37.17 838.518 36.8233H865.531C873.521 36.8233 879.994 30.25 879.994 22.16V14.6633C879.994 6.57 873.521 0 865.531 0H833.738C825.748 0 817.484 4.73333 817.484 12.8367V20.33H833.204V18.81C833.204 15.1767 835.834 12.5067 839.424 12.5067H859.634C863.091 12.5067 865.658 14.9833 865.841 18.42C865.658 21.85 863.091 24.3233 859.634 24.3233L833.614 24.33" fill="white"/>
<path d="M798.165 27.5333C804.211 27.08 808.645 25.1833 808.645 18.4933V10.9967C808.645 2.90333 802.161 0 794.181 0H765.941C757.961 0 749.691 4.73333 749.691 12.8367V20.33H765.418V18.81C765.418 15.1733 768.041 12.5067 771.631 12.5067H788.278C791.735 12.5067 794.301 13.1533 794.485 16.5833C794.301 20.02 791.735 22.4867 788.278 22.4867L774.748 22.4967V32.6733H790.065C793.521 32.6733 796.085 35.1467 796.268 38.5833C796.085 42.0133 793.521 42.6533 790.065 42.6533H771.631C768.041 42.6533 765.418 39.9933 765.418 36.3567V34.83H749.691V42.33C749.691 50.4233 757.958 55.16 765.941 55.16H795.968C805.081 54.9967 810.431 50.4233 810.431 42.33V36.67C810.431 29.3333 805.111 27.77 798.175 27.54" fill="white"/>
</g>
<defs>
<clipPath id="clip0_4_4007">
<rect width="880" height="100" fill="white"/>
</clipPath>
</defs>
</svg>
