<svg width="573" height="100" viewBox="0 0 573 100" fill="none" xmlns="http://www.w3.org/2000/svg">
<g clip-path="url(#clip0_4_4017)">
<path d="M386.07 84.3697V15.615C386.07 5.59267 391.231 0.283203 400.686 0.283203H442.088V25.4883H431.633V10.1863H403.266C398.971 10.1863 397.256 12.9007 397.256 18.3444V81.6553C397.256 87.099 398.971 89.8134 403.266 89.8134H431.633V73.4972H442.088V99.7165H400.686C391.231 99.7015 386.07 94.407 386.07 84.3697Z" fill="white"/>
<path d="M447.949 89.8131H456.689V10.1711H447.949V0.297852H495.362C504.817 0.297852 509.978 5.59241 509.978 15.6297V38.4037C509.978 48.4261 504.817 53.7356 495.362 53.7356H467.86V89.8281H476.883V99.7162H447.949V89.8131ZM492.781 43.8474C497.077 43.8474 498.792 41.133 498.792 35.6894V18.3441C498.792 12.9004 497.077 10.186 492.781 10.186H467.86V43.8474H492.781Z" fill="white"/>
<path d="M516.703 84.3697V15.615C516.703 5.59267 521.863 0.283203 531.319 0.283203H572.706V25.4883H562.251V10.1863H533.884C529.589 10.1863 527.874 12.9007 527.874 18.3444V81.6553C527.874 87.099 529.589 89.8134 533.884 89.8134H562.251V73.4972H572.706V99.7165H531.304C521.863 99.7015 516.703 94.407 516.703 84.3697Z" fill="white"/>
<path d="M50.5145 99.7018H30.7532L29.1126 80.0896H21.0887L19.5973 99.7018H0L12.4832 0.59668H38.1805L50.5145 99.7018ZM25.1156 25.2648L22.2968 63.7436H27.9493L25.1156 25.2648Z" fill="white"/>
<path d="M117.075 99.7018H98.2089V43.5348L90.7816 99.7018H78.5967L70.722 43.2365V99.7018H51.8555V0.59668H79.4916L84.3983 44.4296L89.5885 0.59668H117.075V99.7018Z" fill="white"/>
<path d="M147.981 34.616V22.8784C147.981 19.7614 147.832 18.7174 147.534 17.9717C146.937 16.9277 146.042 16.182 145.013 16.182C143.969 16.182 142.791 16.9277 142.343 17.9717C142.045 18.8665 141.896 19.6122 141.896 22.8784V30.1566C141.896 33.4228 142.791 34.616 146.654 36.689L155.557 41.6107C167.295 48.1432 168.935 50.8277 168.935 64.1909V80.0895C168.935 88.7099 168.339 91.5287 165.968 94.6458C162.701 99.1051 159.137 100 143.686 100C131.352 100 127.936 99.2543 124.67 95.5406C122.731 93.4676 121.851 91.0813 121.404 87.3676C121.105 85.4288 121.105 83.2066 121.105 76.525V58.6875H141.911V75.3318V77.8523C141.911 81.8643 142.806 83.5048 145.028 83.5048C146.967 83.5048 147.996 81.8643 147.996 79.0455V76.525V65.5332L147.847 63.4601C147.698 59.7465 147.25 59.0007 143.686 57.0768C142.343 56.3311 141.314 55.8837 141.165 55.7345L132.396 50.8277C122.731 45.3244 121.105 42.2073 121.105 29.8732V18.2849C121.105 10.1119 122 6.54735 125.117 3.72856C128.369 0.745712 132.231 0 146.639 0C159.271 0 162.686 0.894855 165.803 5.05593C168.324 8.32215 168.921 11.4392 168.921 20.6562V34.6309H147.981V34.616Z" fill="white"/>
<path d="M201.729 99.7018H180.775V16.6444H170.23V0.59668H211.99V16.6444H201.744V99.7018H201.729Z" fill="white"/>
<path d="M235.57 0.59668L242.998 0.745822C257.554 1.04411 261.118 4.9069 261.118 19.9106V30.3059C261.118 44.1314 259.045 48.8741 251.752 50.8129C255.317 52.0061 257.405 53.6317 258.881 56.3163C260.82 59.7317 261.103 62.4013 261.103 74.0046V99.7167H240.298V69.9927C240.298 60.1791 240.298 60.3282 235.093 60.1791C234.795 60.1791 234.646 60.1791 234.198 60.1791V99.7018H213.273V0.59668H235.57ZM235.704 42.0434C239.716 42.0434 240.313 41.1485 240.313 34.7652V24.0717L240.164 21.402C240.164 17.8375 239.269 16.7935 236.45 16.7935H235.108H234.213V42.0583C234.974 42.0434 235.421 42.0434 235.704 42.0434Z" fill="white"/>
<path d="M312.229 99.7018H292.467L290.827 80.0896H282.803L281.311 99.7018H261.699L274.182 0.59668H299.895L312.229 99.7018ZM286.815 25.2648L283.996 63.7436H289.649L286.815 25.2648Z" fill="white"/>
<path d="M333.917 0.59668C351.903 0.59668 354.424 1.04411 357.839 5.05604C360.956 8.62054 361.702 12.4833 361.702 26.1597V75.0486C361.702 87.2335 361.254 90.4997 358.883 94.0642C356.064 98.2253 351.903 99.5676 341.642 99.5676L331.098 99.7167H313.559V0.59668H333.917ZM336.437 83.505C339.703 83.505 340.449 82.461 340.449 78.2999C340.449 77.7033 340.449 77.2559 340.449 76.2268C340.449 74.5862 340.449 72.8114 340.449 71.32V24.8174V22.2969C340.449 17.8375 339.703 16.7935 336.437 16.7935C335.99 16.7935 335.244 16.9427 334.498 16.9427V83.505C335.259 83.505 335.99 83.505 336.437 83.505Z" fill="white"/>
</g>
<defs>
<clipPath id="clip0_4_4017">
<rect width="572.707" height="100" fill="white"/>
</clipPath>
</defs>
</svg>
