<svg width="657" height="100" viewBox="0 0 657 100" fill="none" xmlns="http://www.w3.org/2000/svg">
<g clip-path="url(#clip0_4_4028)">
<path d="M31.6295 32.1206C41.0228 32.1206 48.8261 36.9698 52.5386 42.1964V33.4089H66.8561V98.6364H56.5536C54.2803 98.6364 52.4628 96.8181 52.4628 94.5456V89.8481C48.8261 95.1514 41.0228 99.9998 31.6295 99.9998C13.7503 99.9998 0.189453 84.6964 0.189453 66.0606C0.189453 47.4239 13.7503 32.1206 31.6295 32.1206ZM34.2053 45.1514C22.6136 45.1514 14.7353 54.3181 14.7353 66.0606C14.7353 77.8031 22.5386 86.9698 34.2053 86.9698C45.7961 86.9698 53.6745 77.8031 53.6745 66.0606C53.6745 54.3181 45.872 45.1514 34.2053 45.1514Z" fill="white"/>
<path d="M83.1445 33.4089H97.5387V42.2723C101.478 35.7573 108.902 32.1206 117.387 32.1206C132.539 32.1206 142.311 42.8031 142.311 59.3939V98.6364H132.008C129.735 98.6364 127.917 96.8181 127.917 94.5456V61.7423C127.917 51.4389 122.69 45.1514 114.356 45.1514C104.811 45.1514 97.5387 52.5756 97.5387 66.5148V98.6364H87.2354C84.9629 98.6364 83.1445 96.8181 83.1445 94.5456V33.4089Z" fill="white"/>
<path d="M185.115 32.121C194.509 32.121 202.312 36.9702 206.024 42.1968V0.833496H220.342V98.7127H210.04C207.766 98.7127 205.949 96.8943 205.949 94.621V89.9243C202.312 95.1518 194.433 100 185.04 100C167.16 100 153.6 84.6968 153.6 66.061C153.675 47.4243 167.236 32.121 185.115 32.121ZM187.69 45.1518C176.1 45.1518 168.221 54.3185 168.221 66.061C168.221 77.8035 176.024 86.9702 187.69 86.9702C199.281 86.9702 207.16 77.8035 207.16 66.061C207.16 54.3185 199.281 45.1518 187.69 45.1518Z" fill="white"/>
<path d="M236.63 33.4097H250.949V45.0005C253.449 37.5764 260.721 32.728 268.145 32.728C269.964 32.728 271.782 32.8797 273.751 33.258V48.0305C271.251 47.273 269.206 46.8189 266.554 46.8189C258.297 46.8189 250.873 53.713 250.873 66.8189V98.6372H240.569C238.297 98.6372 236.479 96.8189 236.479 94.5464V33.4097H236.63Z" fill="white"/>
<path d="M312.54 99.9998C293.221 99.9998 278.373 84.9998 278.373 66.0606C278.373 47.1206 293.221 32.1206 312.54 32.1206C331.857 32.1206 346.706 47.1206 346.706 66.0606C346.706 84.9998 331.857 99.9998 312.54 99.9998ZM312.54 86.6664C324.055 86.6664 332.085 77.6514 332.085 66.0606C332.085 54.4698 323.979 45.4539 312.54 45.4539C300.949 45.4539 292.842 54.4698 292.842 66.0606C292.842 77.6514 300.949 86.6664 312.54 86.6664Z" fill="white"/>
<path d="M365.494 19.1667C360.266 19.1667 355.873 14.8483 355.873 9.54583C355.873 4.31833 360.342 0 365.494 0C370.873 0 375.04 4.31833 375.04 9.54583C375.04 14.9242 370.873 19.1667 365.494 19.1667ZM358.373 33.4092H372.691V98.6367H362.464C360.191 98.6367 358.373 96.8183 358.373 94.5458V33.4092Z" fill="white"/>
<path d="M415.949 32.121C425.343 32.121 433.146 36.9702 436.858 42.1968V0.833496H451.176V98.7127H440.874C438.6 98.7127 436.782 96.8943 436.782 94.621V89.9243C433.146 95.1518 425.267 100 415.874 100C397.994 100 384.434 84.6968 384.434 66.061C384.509 47.4243 398.07 32.121 415.949 32.121ZM418.6 45.1518C407.009 45.1518 399.131 54.3185 399.131 66.061C399.131 77.8035 406.934 86.9702 418.6 86.9702C430.191 86.9702 438.07 77.8035 438.07 66.061C438.07 54.3185 430.191 45.1518 418.6 45.1518Z" fill="white"/>
<path d="M609.584 74.0152C605.569 74.0152 602.311 70.7577 602.311 66.7427C602.311 62.7277 605.569 59.4702 609.584 59.4702C613.599 59.4702 616.856 62.7277 616.856 66.7427C616.856 70.7577 613.599 74.0152 609.584 74.0152ZM529.508 74.0152C525.493 74.0152 522.235 70.7577 522.235 66.7427C522.235 62.7277 525.493 59.4702 529.508 59.4702C533.523 59.4702 536.781 62.7277 536.781 66.7427C536.781 70.7577 533.523 74.0152 529.508 74.0152ZM612.16 30.3793L626.705 5.30349C627.539 3.86349 627.008 2.04599 625.569 1.21266C624.13 0.379322 622.311 0.909322 621.478 2.34849L606.781 27.7277C595.569 22.576 582.993 19.6968 569.584 19.6968C556.175 19.6968 543.523 22.576 532.311 27.6518L517.614 2.27266C516.781 0.833488 514.963 0.303488 513.523 1.13682C512.084 1.97016 511.554 3.78766 512.387 5.22766L526.856 30.3035C502.008 43.8635 484.963 69.0152 482.463 98.7877H656.478C654.054 69.091 637.084 43.9393 612.16 30.3793Z" fill="white"/>
</g>
<defs>
<clipPath id="clip0_4_4028">
<rect width="656.667" height="100" fill="white"/>
</clipPath>
</defs>
</svg>
