<svg width="317" height="100" viewBox="0 0 317 100" fill="none" xmlns="http://www.w3.org/2000/svg">
<g clip-path="url(#clip0_4_4038)">
<path d="M280.752 32.4699H272.719V21.6821H293.343V69.4565H272.719V58.6688H280.752V32.4699Z" fill="white"/>
<path d="M308.802 58.6688H316.836V69.4565H296.211V21.6821H316.836V32.4699H308.802V58.6688Z" fill="white"/>
<path d="M77.3743 66.4151C73.0379 61.8492 70.841 56.5946 70.841 50.7909C70.841 44.9543 72.9477 39.7572 77.0956 35.3552C78.3744 33.9944 79.7515 32.8468 81.2189 31.8959C79.6368 29.8465 73.3412 22.5509 63.9306 22.5509C54.9708 22.5509 52.6591 27.912 46.4455 27.912C39.6007 27.912 37.33 21.9771 28.444 21.9771C28.444 21.9771 2.05664 22.764 2.05664 54.783C2.05664 66.3331 12.1476 99.9998 27.1571 99.9998C34.6659 99.9998 33.7642 95.3847 43.56 95.3847C53.3067 95.3847 51.6427 99.2867 60.8156 99.2867C70.2999 99.2867 82.6452 86.1872 83.7846 71.2762C81.4976 70.1203 79.3499 68.4973 77.3743 66.4151Z" fill="white"/>
<path d="M92.6875 32.5356H116.009V69.4649H103.418V43.3234H96.4665C94.1876 43.3234 92.3022 44.0284 90.8021 45.4465C89.3019 46.8565 88.556 48.6845 88.556 50.906C88.556 53.0947 89.3265 54.9391 90.8676 56.431C92.4088 57.923 94.3106 58.6689 96.5894 58.6689H100.549V69.4567H92.8186C88.0641 69.4567 83.8671 67.5385 80.2274 63.7103C76.5796 59.8821 74.7598 55.5785 74.7598 50.783C74.7598 45.9548 76.4894 41.7085 79.9487 38.0361C83.408 34.3719 87.6543 32.5356 92.6875 32.5356Z" fill="white"/>
<path d="M119.902 80.2527V32.5356H143.642C148.478 32.5356 152.626 34.3637 156.077 38.0115C159.537 41.6593 161.266 46.1023 161.266 51.3241C161.266 56.3901 159.529 60.6773 156.053 64.194C152.577 67.7025 148.355 69.4649 143.404 69.4649H135.371V58.6689H138.969C141.371 58.6689 143.388 57.9967 145.027 56.636C146.667 55.2834 147.487 53.5292 147.487 51.3814C147.487 49.3075 146.708 47.4795 145.15 45.8892C143.47 44.1759 141.412 43.3234 138.978 43.3234H132.502V80.2527H119.902Z" fill="white"/>
<path d="M163.783 80.2527V32.5356H187.523C192.359 32.5356 196.507 34.3637 199.958 38.0115C203.418 41.6593 205.147 46.1023 205.147 51.3241C205.147 56.3901 203.409 60.6773 199.934 64.194C196.458 67.7025 192.236 69.4649 187.285 69.4649H179.252V58.6689H182.85C185.252 58.6689 187.269 57.9967 188.908 56.636C190.548 55.2834 191.367 53.5292 191.367 51.3814C191.367 49.3075 190.589 47.4795 189.031 45.8892C187.351 44.1759 185.293 43.3234 182.859 43.3234H176.383V80.2527H163.783Z" fill="white"/>
<path d="M207.664 21.6821H220.255V69.4565H207.664V21.6821Z" fill="white"/>
<path d="M264.972 58.6688V69.4566H243.691C238.019 69.4566 233.199 67.8171 229.248 64.5464C225.009 61.0379 222.895 56.4637 222.895 50.8403C222.895 46.053 224.968 41.8068 229.133 38.0934C233.289 34.38 238.166 32.5273 243.757 32.5273H264.98V43.2905L256.578 55.5538H242.314L251.184 43.3233H244.708C242.306 43.3233 240.371 44.0201 238.896 45.4136C237.42 46.8072 236.674 48.5778 236.674 50.7256C236.674 52.9962 237.453 54.8898 239.011 56.3982C240.568 57.9147 242.47 58.6688 244.708 58.6688H264.972Z" fill="white"/>
<path d="M60.8229 99.2867C66.7169 99.2867 73.7092 94.2289 78.4309 86.8267H11.5156C15.6635 94.3191 21 99.9999 27.1644 99.9999C34.6733 99.9999 33.7715 95.3847 43.5674 95.3847C53.3059 95.3847 51.6501 99.2867 60.8229 99.2867Z" fill="white"/>
<path d="M11.5168 86.8269H78.4403C80.8668 83.0233 82.703 78.5967 83.4735 73.916H5.95898C7.44271 78.3426 9.31172 82.8348 11.5168 86.8269Z" fill="white"/>
<path d="M5.95903 73.9075H83.4654C83.6129 73.0386 83.7195 72.1532 83.7851 71.2679C81.4898 70.1121 79.3503 68.4972 77.3665 66.4151C75.7434 64.7018 74.4155 62.8984 73.399 60.9966H2.67188C3.31127 64.8002 4.42612 69.3169 5.95903 73.9075Z" fill="white"/>
<path d="M70.841 50.7829C70.841 49.8648 70.8983 48.9713 71.0049 48.0859H2.4829C2.20419 50.1517 2.05664 52.3732 2.05664 54.7832C2.05664 56.4473 2.26977 58.5786 2.67144 60.9968H73.3986C71.7017 57.8326 70.841 54.4143 70.841 50.7829Z" fill="white"/>
<path d="M6.73687 35.1748C4.7367 38.5439 3.1956 42.7738 2.48242 48.0857H70.9962C71.5537 43.3394 73.5866 39.0604 77.0869 35.347C77.1443 35.2896 77.2017 35.2322 77.259 35.1748H6.73687Z" fill="white"/>
<path d="M77.3743 66.4151C73.0379 61.8492 70.841 56.5946 70.841 50.7909C70.841 44.9543 72.9477 39.7572 77.0956 35.3552C78.3744 33.9944 79.7515 32.8468 81.2189 31.8959C79.6368 29.8465 73.3412 22.5509 63.9306 22.5509C54.9708 22.5509 52.6591 27.912 46.4455 27.912C39.6007 27.912 37.33 21.9771 28.444 21.9771C28.444 21.9771 2.05664 22.764 2.05664 54.783C2.05664 66.3331 12.1476 99.9998 27.1571 99.9998C34.6659 99.9998 33.7642 95.3847 43.56 95.3847C53.3067 95.3847 51.6427 99.2867 60.8156 99.2867C70.2999 99.2867 82.6452 86.1872 83.7846 71.2762C81.4976 70.1203 79.3499 68.4973 77.3743 66.4151Z" fill="white"/>
<path d="M58.7902 17.0998C60.069 15.8292 62.8069 6.64809 62.8069 0C56.7737 1.40175 51.1256 4.7135 47.8631 9.23846C44.6087 13.7634 42.7561 19.4852 43.8546 26.3382C52.011 25.6332 55.8392 21.5346 58.7902 17.0998Z" fill="white"/>
</g>
<defs>
<clipPath id="clip0_4_4038">
<rect width="316.837" height="100" fill="white"/>
</clipPath>
</defs>
</svg>
