<svg width="370" height="100" viewBox="0 0 370 100" fill="none" xmlns="http://www.w3.org/2000/svg">
<g clip-path="url(#clip0_4_4054)">
<path d="M132.857 71.7802C133.463 73.7087 134.014 75.25 134.51 76.4067C135.006 77.5633 135.803 78.5003 136.906 79.2157C137.677 79.767 138.379 80.0831 139.013 80.1659C139.646 80.2486 139.963 80.5379 139.963 81.0337C139.963 81.8055 139.385 82.1903 138.229 82.1903C137.512 82.1903 136.589 82.1075 135.461 81.9424C134.332 81.7773 132.941 81.695 131.289 81.695C128.976 81.695 127.117 81.7642 125.712 81.901C124.308 82.0393 123.33 82.1075 122.779 82.1075C121.842 82.1075 121.375 81.7773 121.375 81.1165C121.375 80.2359 121.925 79.7943 123.028 79.7943C124.404 79.7943 125.312 79.6574 125.754 79.3813C126.195 79.1061 126.415 78.5835 126.415 77.8112C126.415 77.0962 126.167 75.8573 125.671 74.0939L122.449 63.5191C122.338 63.0788 121.925 62.8582 121.21 62.8582H110.966C110.8 62.8582 110.621 62.9278 110.428 63.0647C110.242 63.1917 110.11 63.3832 110.056 63.6019L108.074 70.9547C107.247 74.2049 106.834 76.3248 106.834 77.3159C106.834 78.1423 107 78.6936 107.33 78.9683C107.66 79.2449 108.211 79.4373 108.983 79.5464C110.084 79.7119 110.91 79.9057 111.461 80.1245C112.011 80.3455 112.288 80.7585 112.288 81.3639C112.288 82.0247 111.819 82.3554 110.883 82.3554C110.277 82.3554 109.368 82.2726 108.157 82.1075C106.945 81.942 105.458 81.8596 103.696 81.8596C102.484 81.8596 101.424 81.9293 100.515 82.0661C99.6058 82.203 98.8499 82.2726 98.2432 82.2726C97.2516 82.2726 96.7559 81.9147 96.7559 81.1988C96.7559 80.758 96.8941 80.4692 97.1693 80.331C97.4454 80.1941 97.7883 80.0972 98.2018 80.0421C98.642 79.9848 99.0828 79.9293 99.5235 79.8766C99.991 79.8225 100.445 79.6287 100.887 79.2985C101.658 78.7486 102.236 77.9636 102.621 76.9438C103.006 75.9255 103.419 74.672 103.861 73.1847L116.997 30.5548C117.216 29.9495 117.396 29.4678 117.534 29.1089C117.671 28.7515 117.96 28.5718 118.402 28.5718C119.007 28.5718 119.393 28.9307 119.558 29.6456C119.724 30.362 119.999 31.2985 120.385 32.4551L132.857 71.7802ZM115.838 43.1122C115.618 43.1122 115.452 43.3333 115.342 43.7731L111.46 58.3963C111.409 58.5849 111.381 58.7792 111.377 58.9744V59.2218C111.377 59.5525 111.569 59.7181 111.955 59.7181H120.216C120.382 59.7181 120.547 59.6494 120.712 59.5116C120.878 59.3747 120.96 59.2223 120.96 59.0572C120.96 58.9476 120.904 58.6724 120.794 58.2308L116.333 43.8554C116.169 43.3606 116.004 43.1122 115.838 43.1122Z" fill="white"/>
<path d="M148.555 49.8044C148.555 50.1901 148.638 50.3825 148.803 50.3825C148.968 50.3825 149.187 50.2456 149.464 49.969L150.29 48.9779C151.721 47.3255 153.181 46.1275 154.669 45.3839C156.156 44.6407 157.779 44.2686 159.543 44.2686C161.36 44.2686 163.095 44.7098 164.747 45.5908C166.4 46.4723 167.831 47.7117 169.044 49.3081C170.254 50.9064 171.219 52.8608 171.935 55.1741C172.65 57.4873 173.009 60.0485 173.009 62.8575C173.009 65.9431 172.593 68.7517 171.764 71.2846C170.935 73.8185 169.775 76.0076 168.283 77.8524C166.791 79.6985 165.023 81.1303 162.979 82.1487C160.934 83.167 158.667 83.6769 156.181 83.6769C153.584 83.6769 151.179 83.0429 148.969 81.7771L148.637 82.0245L148.556 93.7559C148.556 94.747 148.637 95.4906 148.802 95.9864C148.967 96.4822 149.38 96.8669 150.042 97.143C150.592 97.4182 151.129 97.5833 151.653 97.6388C152.175 97.6929 152.616 97.7484 152.974 97.8044C153.332 97.8585 153.621 97.9699 153.842 98.1346C154.062 98.3001 154.172 98.6308 154.172 99.1261C154.172 99.8966 153.594 100.283 152.438 100.283C151.335 100.283 150.169 100.2 148.936 100.035C147.702 99.8693 146.378 99.7874 144.964 99.7874C143.55 99.7874 142.293 99.8698 141.196 100.035C140.099 100.2 139.164 100.283 138.394 100.283C137.402 100.283 136.906 99.8415 136.906 98.9605C136.906 98.1882 137.209 97.8039 137.815 97.8039C138.421 97.8039 139.137 97.6383 139.963 97.3081C140.679 97.0316 141.161 96.6473 141.409 96.1515C141.656 95.6557 141.781 94.8566 141.781 93.7555V56.4126C141.781 54.9257 141.587 53.9342 141.203 53.4384C140.816 52.9427 140.389 52.6266 139.922 52.4883C139.453 52.3514 139.026 52.2686 138.641 52.2404C138.255 52.2131 138.063 51.9243 138.063 51.373C138.063 50.7122 138.489 50.2305 139.344 49.9271C140.197 49.6252 141.257 49.033 142.524 48.151C144.122 47.0499 145.278 46.0857 145.994 45.2597C146.71 44.4337 147.288 44.0207 147.729 44.0207C148.279 44.0207 148.555 44.5988 148.555 45.7555V49.8044H148.555ZM150.38 79.453C151.542 80.7272 153.175 81.3636 155.278 81.3636C156.882 81.3636 158.349 80.9765 159.677 80.2018C161.005 79.4276 162.155 78.3326 163.123 76.9201C164.091 75.508 164.837 73.8194 165.364 71.8538C165.889 69.889 166.153 67.7437 166.153 65.4173C166.153 60.4897 165.115 56.6698 163.039 53.9568C160.963 51.2437 158.349 49.8867 155.196 49.8867C152.871 49.8867 151.196 50.5659 150.172 51.9224C149.149 53.2794 148.638 55.3411 148.638 58.1082V73.5565C148.638 76.2141 149.219 78.1802 150.38 79.453ZM186.145 49.8044C186.145 50.1901 186.228 50.3825 186.393 50.3825C186.558 50.3825 186.777 50.2456 187.054 49.969L187.88 48.9779C189.312 47.3255 190.771 46.1275 192.259 45.3839C193.746 44.6407 195.37 44.2686 197.133 44.2686C198.95 44.2686 200.686 44.7098 202.338 45.5908C203.99 46.4723 205.422 47.7117 206.634 49.3081C207.845 50.9064 208.809 52.8608 209.525 55.1741C210.241 57.4873 210.599 60.0485 210.599 62.8575C210.599 65.9431 210.183 68.7517 209.355 71.2846C208.526 73.8185 207.365 76.0076 205.873 77.8524C204.381 79.6985 202.614 81.1303 200.569 82.1487C198.524 83.167 196.258 83.6769 193.771 83.6769C191.174 83.6769 188.769 83.0429 186.559 81.7771L186.228 82.0245L186.146 93.7559C186.146 94.747 186.228 95.4906 186.393 95.9864C186.558 96.4822 186.971 96.8669 187.632 97.143C188.182 97.4182 188.719 97.5833 189.243 97.6388C189.766 97.6929 190.206 97.7484 190.565 97.8044C190.923 97.8585 191.212 97.9699 191.433 98.1346C191.652 98.3001 191.763 98.6308 191.763 99.1261C191.763 99.8966 191.185 100.283 190.028 100.283C188.926 100.283 187.759 100.2 186.526 100.035C185.292 99.8693 183.969 99.7874 182.554 99.7874C181.14 99.7874 179.883 99.8698 178.786 100.035C177.689 100.2 176.754 100.283 175.984 100.283C174.992 100.283 174.497 99.8415 174.497 98.9605C174.497 98.1882 174.799 97.8039 175.406 97.8039C176.011 97.8039 176.728 97.6383 177.553 97.3081C178.269 97.0316 178.751 96.6473 178.999 96.1515C179.247 95.6557 179.371 94.8566 179.371 93.7555V56.4126C179.371 54.9257 179.177 53.9342 178.793 53.4384C178.407 52.9427 177.98 52.6266 177.512 52.4883C177.044 52.3514 176.616 52.2686 176.231 52.2404C175.846 52.2131 175.653 51.9243 175.653 51.373C175.653 50.7122 176.079 50.2305 176.934 49.9271C177.787 49.6252 178.847 49.033 180.115 48.151C181.712 47.0499 182.868 46.0857 183.585 45.2597C184.3 44.4337 184.878 44.0207 185.32 44.0207C185.87 44.0207 186.146 44.5988 186.146 45.7555V49.8044H186.145ZM187.971 79.453C189.132 80.7272 190.765 81.3636 192.868 81.3636C194.473 81.3636 195.939 80.9765 197.267 80.2018C198.596 79.4276 199.745 78.3326 200.713 76.9201C201.681 75.508 202.427 73.8194 202.954 71.8538C203.479 69.889 203.743 67.7437 203.743 65.4173C203.743 60.4897 202.705 56.6698 200.629 53.9568C198.553 51.2437 195.94 49.8867 192.786 49.8867C190.461 49.8867 188.787 50.5659 187.763 51.9224C186.739 53.2794 186.228 55.3411 186.228 58.1082V73.5565C186.228 76.2141 186.809 78.1802 187.971 79.453ZM223.652 75.8284C223.652 77.6459 224.175 78.8025 225.222 79.2983C225.663 79.5189 226.102 79.6426 226.544 79.6699C226.985 79.6985 227.383 79.7395 227.742 79.794C228.1 79.8495 228.389 79.9737 228.61 80.1656C228.829 80.3594 228.94 80.7028 228.94 81.1985C228.94 81.9704 228.389 82.3552 227.288 82.3552C226.351 82.3552 225.279 82.2724 224.073 82.1073C222.868 81.9417 221.585 81.8594 220.224 81.8594C218.809 81.8594 217.539 81.9422 216.416 82.1073C215.291 82.2729 214.344 82.3552 213.573 82.3552C212.582 82.3552 212.086 81.9144 212.086 81.033C212.086 80.262 212.361 79.8763 212.912 79.8763C213.518 79.8763 214.261 79.7108 215.143 79.3806C215.914 79.1054 216.382 78.7338 216.547 78.2653C216.712 77.7978 216.795 77.1501 216.795 76.3237V33.3632C216.795 32.6477 216.615 32.1238 216.258 31.7936C215.9 31.4638 215.478 31.2108 215.018 31.0499C214.598 30.9036 214.184 30.7381 213.779 30.5541C213.42 30.3886 213.242 30.1412 213.242 29.8105C213.242 29.2051 213.614 28.8063 214.357 28.6125C215.101 28.4201 215.967 28.1313 216.957 27.7451C218.862 27.0297 220.262 26.3547 221.161 25.7206C222.059 25.088 222.644 24.7705 222.916 24.7705C223.351 24.7705 223.624 24.9083 223.733 25.1835C223.843 25.4596 223.899 25.8444 223.899 26.3401C223.899 27.0565 223.857 27.8825 223.775 28.819C223.692 29.7559 223.65 30.8016 223.65 31.9582V75.8284H223.652ZM238.028 58.8091C237.587 58.8091 237.312 58.8919 237.202 59.057C237.091 59.2221 237.037 59.5809 237.037 60.1308V62.1134C237.037 67.2362 238.124 71.2841 240.3 74.2583C242.475 77.2319 245.299 78.7192 248.768 78.7192C250.309 78.7192 251.646 78.4714 252.775 77.9756C253.903 77.4798 254.841 76.93 255.585 76.3232C256.328 75.7178 256.907 75.1666 257.319 74.6708C257.732 74.175 258.022 73.9271 258.187 73.9271C258.627 73.9271 258.847 74.231 258.847 74.8364C258.847 75.4427 258.517 76.2404 257.856 77.2319C257.196 78.2235 256.245 79.2018 255.006 80.1647C253.767 81.1294 252.292 81.9695 250.586 82.6844C248.878 83.3999 246.951 83.7583 244.803 83.7583C242.544 83.7583 240.493 83.3039 238.648 82.3956C236.802 81.4864 235.22 80.1788 233.897 78.4709C232.576 76.7644 231.556 74.699 230.841 72.2747C230.124 69.8519 229.767 67.1256 229.767 64.0955C229.767 61.0673 230.166 58.3265 230.965 55.8749C231.762 53.4248 232.878 51.3453 234.311 49.6374C235.742 47.9309 237.436 46.6092 239.392 45.6717C241.346 44.7357 243.481 44.2672 245.794 44.2672C247.777 44.2672 249.594 44.612 251.247 45.2997C252.9 45.9892 254.304 46.9111 255.46 48.0678C256.617 49.2244 257.512 50.5744 258.146 52.1158C258.778 53.6581 259.096 55.3105 259.096 57.0725C259.096 57.7889 258.875 58.2578 258.435 58.477C257.994 58.6976 257.278 58.8072 256.287 58.8072H238.028V58.8091ZM249.966 55.3392C251.205 54.7338 251.825 53.5217 251.825 51.7037C251.825 50.3279 251.259 49.0603 250.131 47.9036C249.002 46.747 247.555 46.1689 245.793 46.1689C243.864 46.1689 242.185 46.9126 240.754 48.3994C239.321 49.8862 238.385 51.7597 237.944 54.017L237.697 55.3392V55.5048C237.697 56.0005 238.027 56.2484 238.688 56.2484H244.058C246.756 56.2484 248.727 55.946 249.966 55.3392Z" fill="white"/>
<path d="M331.426 68.4771C331.426 67.4381 331.337 66.7589 331.158 66.4386C330.979 66.1192 330.49 65.8591 329.694 65.6592C329.309 65.5872 328.92 65.5373 328.529 65.5101C328.229 65.495 327.931 65.4649 327.633 65.4207C327.374 65.3816 327.175 65.3116 327.035 65.2118C326.896 65.1131 326.827 64.9235 326.827 64.6446C326.827 64.0867 327.165 63.8083 327.842 63.8083C328.24 63.8083 328.947 63.8887 329.963 64.0472C330.979 64.2071 332.342 64.2862 334.055 64.2862C335.966 64.2862 337.419 64.2071 338.415 64.0472C339.411 63.8887 340.048 63.8083 340.327 63.8083C340.925 63.8083 341.223 64.0679 341.223 64.5848C341.223 64.8638 341.153 65.0627 341.014 65.1822C340.874 65.3017 340.695 65.3821 340.476 65.4212C340.219 65.4658 339.96 65.4959 339.7 65.5105C339.401 65.5312 339.073 65.5806 338.714 65.6596C337.997 65.8196 337.549 66.0684 337.37 66.4066C337.191 66.7457 337.101 67.4324 337.101 68.4677V77.5477C337.101 78.464 336.793 79.3097 336.176 80.0863C335.558 80.8628 334.712 81.5199 333.637 82.0576C332.562 82.5952 331.316 83.0129 329.904 83.312C328.489 83.6107 326.986 83.7598 325.393 83.7598C322.923 83.7598 320.644 83.2819 318.554 82.3261C316.463 81.3704 314.67 80.0467 313.177 78.3539C311.684 76.6615 310.519 74.6403 309.682 72.2904C308.846 69.9409 308.428 67.3722 308.428 64.5844C308.428 61.5971 308.895 58.8398 309.832 56.3106C310.767 53.7819 312.051 51.6013 313.685 49.7692C315.317 47.9381 317.268 46.5044 319.538 45.4682C321.808 44.4329 324.277 43.915 326.946 43.915C328.021 43.915 329.036 43.9875 329.993 44.1323C330.948 44.2772 331.814 44.4625 332.591 44.6897C333.367 44.9174 334.025 45.1639 334.562 45.4292C335.1 45.694 335.467 45.9461 335.667 46.1846C336.146 46.6629 336.384 48.5947 336.384 51.979C336.384 53.0943 336.124 53.6516 335.607 53.6516C335.169 53.6516 334.861 53.3831 334.681 52.8454C334.502 52.3073 334.253 51.6413 333.935 50.844C332.54 47.3403 330.091 45.5872 326.587 45.5872C324.874 45.5872 323.291 46.035 321.838 46.931C320.384 47.8271 319.12 49.1022 318.045 50.7542C316.97 52.4075 316.134 54.3981 315.536 56.7278C314.939 59.0576 314.64 61.6563 314.64 64.5232C314.64 67.1921 314.948 69.6013 315.566 71.7514C316.183 73.9019 317.019 75.7443 318.075 77.2772C319.13 78.8106 320.365 79.995 321.779 80.8318C323.192 81.6676 324.695 82.0863 326.289 82.0863C327.443 82.0863 328.359 81.9263 329.037 81.606C329.713 81.2866 330.232 80.837 330.59 80.2575C330.948 79.678 331.177 78.9879 331.277 78.1893C331.376 77.3906 331.426 76.511 331.426 75.5519V68.4771ZM350.392 50.0783C350.89 48.8012 351.597 47.7048 352.513 46.7871C353.429 45.8708 354.534 45.162 355.828 44.6634C357.122 44.1648 358.586 43.915 360.219 43.915C361.892 43.915 363.375 44.1512 364.67 44.6225C365.963 45.0947 366.75 45.5157 367.029 45.8863C367.348 46.2852 367.508 48.455 367.508 52.3976C367.508 53.2339 367.248 53.6521 366.731 53.6521C366.292 53.6521 366.004 53.3835 365.865 52.8459C365.725 52.3078 365.437 51.5223 364.999 50.4861C364.361 48.8934 363.664 47.6784 362.908 46.8421C362.151 46.0058 361.075 45.5877 359.682 45.5877C357.89 45.5877 356.487 46.1338 355.471 47.2255C354.455 48.3177 353.948 49.8158 353.948 51.7208C353.948 53.3097 354.396 54.5994 355.292 55.5914C356.188 56.5844 357.592 57.5768 359.503 58.5688C361.096 59.4033 362.51 60.2368 363.745 61.0703C364.979 61.9047 366.024 62.8276 366.881 63.8398C367.735 64.8506 368.394 66.0119 368.822 67.2641C369.26 68.5345 369.479 70.0035 369.479 71.6704C369.479 73.4179 369.19 75.0251 368.613 76.4945C368.035 77.9635 367.239 79.2339 366.224 80.3059C365.208 81.3769 363.993 82.2208 362.58 82.836C361.165 83.4513 359.622 83.7593 357.95 83.7593C355.321 83.7593 353.191 83.3412 351.558 82.5049C349.924 81.6686 349.109 80.3948 349.109 78.6817C349.109 78.0053 349.129 77.3478 349.169 76.7104C349.208 76.0736 349.228 75.4767 349.228 74.9183C349.228 74.4804 349.218 74.1323 349.199 73.8727C349.178 73.614 349.169 73.4451 349.169 73.3652C349.169 72.1309 349.468 71.5129 350.065 71.5129C350.343 71.5129 350.543 71.6229 350.662 71.8412C350.782 72.0608 350.871 72.3595 350.931 72.7372C350.991 73.1164 351.06 73.5641 351.14 74.0811C351.219 74.5994 351.339 75.1366 351.499 75.694C352.096 77.725 353.061 79.2989 354.396 80.4132C355.73 81.5284 357.153 82.0863 358.667 82.0863C359.542 82.0863 360.379 81.9066 361.176 81.5472C361.96 81.1977 362.662 80.6883 363.237 80.0519C363.814 79.4136 364.272 78.6554 364.611 77.7782C364.949 76.9009 365.119 75.9442 365.119 74.9061C365.119 73.0717 364.551 71.4268 363.416 69.9705C362.281 68.5143 360.579 67.1488 358.309 65.8722C357.175 65.2302 356.05 64.5721 354.934 63.8981C353.878 63.2598 352.963 62.5223 352.185 61.6841C351.409 60.8468 350.791 59.8501 350.334 58.6926C349.875 57.5364 349.646 56.0801 349.646 54.3247C349.646 52.7697 349.894 51.3553 350.392 50.0783Z" fill="white"/>
<path d="M284.962 75.9932C284.962 76.8751 284.974 77.591 285.003 78.1413C285.03 78.6926 285.113 79.147 285.251 79.504C285.38 79.8525 285.61 80.155 285.912 80.3718C286.214 80.5924 286.641 80.7848 287.192 80.9499C287.688 81.1155 288.155 81.1973 288.597 81.1973C289.037 81.1973 289.423 81.226 289.753 81.2801C290.083 81.3356 290.345 81.4598 290.538 81.6522C290.73 81.8455 290.827 82.162 290.827 82.6023C290.827 83.3746 290.249 83.7589 289.092 83.7589C288.597 83.7589 287.701 83.6761 286.408 83.5111C285.113 83.346 283.392 83.2636 281.244 83.2636C279.096 83.2636 277.373 83.3464 276.08 83.5111C274.785 83.6766 273.891 83.7589 273.395 83.7589C272.238 83.7589 271.66 83.3187 271.66 82.4367C271.66 82.0524 271.756 81.7759 271.949 81.6108C272.141 81.4452 272.39 81.3356 272.693 81.2801C273.034 81.2222 273.379 81.1945 273.726 81.1973C274.11 81.1973 274.496 81.1432 274.882 81.0322C275.543 80.8666 276.052 80.6743 276.41 80.4541C276.768 80.2345 277.03 79.9452 277.195 79.5863C277.361 79.2288 277.456 78.7603 277.484 78.1823C277.512 77.6042 277.526 76.8746 277.526 75.9927V38.1555C277.526 36.8332 277.429 35.9391 277.237 35.4701C277.043 35.0031 276.535 34.6315 275.708 34.3549C275.157 34.1898 274.634 34.1075 274.139 34.1075C273.697 34.1075 273.298 34.0802 272.94 34.0247C272.582 33.9706 272.306 33.8737 272.114 33.7354C271.921 33.599 271.825 33.3097 271.825 32.8681C271.825 32.0971 272.238 31.7114 273.065 31.7114C273.505 31.7114 274.386 31.8224 275.708 32.0416C277.03 32.2627 278.875 32.3723 281.244 32.3723C283.611 32.3723 285.457 32.2627 286.779 32.0416C288.101 31.8224 288.981 31.7114 289.423 31.7114C290.249 31.7114 290.662 32.0971 290.662 32.8681C290.662 33.2538 290.58 33.5162 290.415 33.6531C290.249 33.7909 290.002 33.8878 289.671 33.9419C289.341 33.9974 288.955 34.0388 288.514 34.0661C288.073 34.0948 287.606 34.163 287.11 34.2721C286.063 34.4932 285.443 34.8648 285.251 35.3878C285.058 35.9118 284.962 36.8332 284.962 38.1555L284.962 75.9932Z" fill="white"/>
<path d="M302.475 75.9932C302.475 76.8751 302.488 77.591 302.517 78.1413C302.544 78.6926 302.626 79.147 302.765 79.504C302.893 79.8525 303.124 80.155 303.425 80.3718C303.727 80.5924 304.155 80.7848 304.706 80.9499C305.202 81.1155 305.669 81.1973 306.11 81.1973C306.551 81.1973 306.937 81.226 307.267 81.2801C307.597 81.3356 307.858 81.4598 308.052 81.6522C308.244 81.8455 308.341 82.162 308.341 82.6023C308.341 83.3746 307.763 83.7589 306.606 83.7589C306.11 83.7589 305.215 83.6761 303.921 83.5111C302.626 83.346 300.906 83.2636 298.758 83.2636C296.609 83.2636 294.887 83.3464 293.594 83.5111C292.299 83.6766 291.404 83.7589 290.909 83.7589C289.752 83.7589 289.174 83.3187 289.174 82.4367C289.174 82.0524 289.269 81.7759 289.463 81.6108C289.655 81.4452 289.903 81.3356 290.206 81.2801C290.547 81.2222 290.893 81.1945 291.239 81.1973C291.623 81.1973 292.01 81.1432 292.396 81.0322C293.056 80.8666 293.565 80.6743 293.924 80.4541C294.282 80.2345 294.544 79.9452 294.709 79.5863C294.874 79.2288 294.97 78.7603 294.998 78.1823C295.025 77.6042 295.039 76.8746 295.039 75.9927V38.1555C295.039 36.8332 294.942 35.9391 294.751 35.4701C294.557 35.0031 294.048 34.6315 293.222 34.3549C292.671 34.1898 292.148 34.1075 291.652 34.1075C291.211 34.1075 290.812 34.0802 290.454 34.0247C290.095 33.9706 289.82 33.8737 289.628 33.7354C289.434 33.599 289.339 33.3097 289.339 32.8681C289.339 32.0971 289.752 31.7114 290.578 31.7114C291.019 31.7114 291.9 31.8224 293.222 32.0416C294.544 32.2627 296.388 32.3723 298.758 32.3723C301.125 32.3723 302.971 32.2627 304.293 32.0416C305.615 31.8224 306.495 31.7114 306.937 31.7114C307.763 31.7114 308.176 32.0971 308.176 32.8681C308.176 33.2538 308.093 33.5162 307.928 33.6531C307.763 33.7909 307.515 33.8878 307.185 33.9419C306.854 33.9974 306.468 34.0388 306.028 34.0661C305.587 34.0948 305.119 34.163 304.624 34.2721C303.576 34.4932 302.957 34.8648 302.765 35.3878C302.571 35.9118 302.476 36.8332 302.476 38.1555L302.475 75.9932Z" fill="white"/>
<path d="M61.4321 99.4626C54.9608 99.5214 53.3009 95.234 44.5215 95.282C35.7421 95.3314 33.9091 99.5374 27.4382 99.4767C20.5196 99.4123 15.1475 92.9405 11.052 86.8281H11.053C10.8399 86.5092 10.6287 86.1907 10.4208 85.8742C8.00736 82.1874 5.97726 78.2636 4.36202 74.1639H4.36108C2.68845 69.9104 1.54358 65.6385 0.899648 61.504L72.9951 61.5068C75.227 66.56 79.3573 70.853 85.1734 73.059C85.0008 73.4447 84.8338 73.8135 84.6734 74.1691H84.6739C82.6772 78.5774 81.5196 80.8657 78.7562 85.0891C78.3766 85.6705 77.9914 86.2481 77.6005 86.822C73.5295 92.8102 68.0638 99.4001 61.4321 99.4626ZM0.899648 61.5035C0.205857 57.059 0.0939098 52.774 0.52947 48.8427L35.8818 48.8417L0.251953 48.8427C0.655998 44.4908 2.17811 39.5294 4.37848 36.068H4.71621C4.72232 36.0586 4.72891 36.0487 4.73502 36.0393C9.84415 28.1399 17.9034 23.5167 25.4824 23.5167C33.1997 23.5167 38.0511 27.7651 44.4302 27.7651C50.6198 27.7651 54.3898 23.5106 63.3122 23.5106C70.0535 23.5106 77.2007 27.1969 82.2915 33.5708C80.9885 34.2834 79.7585 35.1221 78.6179 36.0731H79.0379C74.9707 39.5313 72.4043 44.0797 71.6325 48.8408H71.354C70.6612 53.1042 71.2425 57.5407 72.9947 61.5063L0.899648 61.5035ZM41.3098 24.1531C40.2548 18.3859 42.965 12.4485 46.2472 8.44521C49.8648 4.03834 56.0582 0.653109 61.3531 0.288574C62.2458 6.31868 59.7825 12.2161 56.544 16.393C53.0713 20.8676 47.0911 24.3337 41.3098 24.1531Z" fill="white"/>
</g>
<defs>
<clipPath id="clip0_4_4054">
<rect width="369.238" height="100" fill="white"/>
</clipPath>
</defs>
</svg>
