<svg width="611" height="100" viewBox="0 0 611 100" fill="none" xmlns="http://www.w3.org/2000/svg">
<g clip-path="url(#clip0_4_4068)">
<path d="M227.622 0L226.907 2.03433C229.355 2.16147 234.186 1.55753 233.932 4.4342C233.805 5.88048 232.502 9.17038 231.945 10.6167L224.205 31.8976C222.918 35.5531 218.452 37.651 214.256 37.651L213.541 39.6853C213.684 39.6853 247.012 39.6853 247.028 39.6853L251.001 28.719H248.983C245.168 35.3783 245.9 37.047 238.827 37.047C236.125 37.047 232.74 36.7451 233.042 33.328C233.121 32.3744 234.043 30.0381 234.377 29.0687L237.762 19.7711H240.559C243.293 19.7711 245.216 22.4571 244.342 25.0477L243.69 26.9549H245.375L250.016 13.3344H248.331L248.252 13.5728C247.521 15.7025 245.534 17.117 243.293 17.117H238.716L242.737 6.02352C244.072 2.43166 244.056 2.60648 247.711 2.60648C256.119 2.60648 257.645 4.72028 256.469 7.96249H258.503L261.411 0H227.622Z" fill="white"/>
<path d="M255.165 26.3825C256.135 23.8237 258.519 17.3075 258.741 14.8441C258.789 14.3037 258.582 13.5567 257.899 13.5567C256.564 13.5567 254.593 17.085 253.973 18.1498L252.892 17.6095C254.672 14.399 257.454 9.96484 261.522 9.96484C263.763 9.96484 264.908 11.5701 264.717 13.7633C264.622 14.9394 264.351 16.1155 264.002 17.1327L264.097 17.2439C266.036 14.0335 269.533 9.98074 273.601 9.98074C275.906 9.98074 277.384 11.3158 277.177 13.7156C277.082 14.8917 276.7 16.0678 276.398 17.1327L276.494 17.2439C278.608 13.9381 281.611 9.98074 285.95 9.98074C288.668 9.98074 290.146 11.4747 289.908 14.1448C289.749 15.9089 288.779 18.4677 288.096 20.1842L286.808 23.2833C286.332 24.4118 284.631 27.9877 284.536 29.0526C284.488 29.5294 284.806 30.2287 285.346 30.2287C286.093 30.2287 286.967 29.3863 287.762 28.401C288.573 27.3997 289.272 26.2554 289.637 25.7468L290.655 26.3348C290.098 27.2884 289.447 28.3374 288.684 29.3387C286.92 31.6591 284.599 33.7093 281.834 33.7093C279.593 33.7093 278.131 32.1676 278.321 29.9108C278.449 28.4168 279.561 25.4766 280.181 23.9826L281.532 20.7722C282.072 19.4372 283.741 15.75 283.836 14.5262C283.9 13.8269 283.471 13.1912 282.772 13.1912C279.084 13.1912 274.173 24.1416 273.013 26.9706L270.566 33.01H264.78L269.691 20.2001C270.232 18.9127 271.376 16.195 271.487 14.9076C271.551 14.113 271.424 13.1912 270.518 13.1912C266.465 13.1912 262.412 23.3469 261.141 26.3825L258.375 33.01H252.559L255.165 26.3825Z" fill="white"/>
<path d="M310.125 26.7644C307.344 30.4039 303.64 33.7097 299.047 33.7097C294.184 33.7097 291.625 30.6582 292.054 25.7472C292.754 17.7847 299.302 9.99707 307.582 9.99707C310.363 9.99707 314.003 11.1255 313.701 14.479C313.176 20.5184 303.545 22.5368 298.793 23.7129C298.539 24.7301 298.3 25.7472 298.205 26.7644C298.03 28.8464 298.984 30.7695 301.272 30.7695C304.26 30.7695 306.914 27.8928 308.869 25.7472L310.125 26.7644ZM308.694 13.7797C308.806 12.5559 308.186 11.5864 306.914 11.5864C303.068 11.5864 300.446 19.0562 299.429 21.9964C303.116 20.9475 308.329 18.0072 308.694 13.7797Z" fill="white"/>
<path d="M318.499 33.0097H312.523L315.193 26.3346C316.354 23.3943 318.213 18.0065 318.483 14.955C318.531 14.367 318.499 13.62 317.8 13.62C316.306 13.62 314.51 17.0847 313.874 18.2608L312.746 17.7205C314.526 14.4624 317.434 9.98047 321.551 9.98047C323.744 9.98047 324.65 11.7446 324.475 13.7154C324.332 15.257 328.115 9.98047 332.326 9.98047C334.456 9.98047 335.998 11.3632 335.807 13.5564C335.632 15.4795 334.202 16.7033 332.326 16.7033C330.022 16.7033 330.324 14.51 329.052 14.51C326.176 14.51 321.948 24.8724 320.947 27.2723L318.499 33.0097Z" fill="white"/>
<path d="M336.935 16.8781C337.348 12.2373 341.973 9.98047 346.09 9.98047C348.712 9.98047 352.415 10.8864 352.129 14.2081C352.018 15.4954 350.969 16.449 349.697 16.449C348.092 16.449 347.584 15.0027 347.647 13.6677C347.711 12.3803 347.377 11.7923 345.947 11.7923C344.23 11.7923 342.99 12.6505 342.847 14.3034C342.673 16.2742 344.198 17.7205 345.327 18.9442C347.218 21.0739 348.791 23.2195 348.521 26.3664C348.124 30.9595 343.181 33.6772 339.065 33.6772C336.077 33.6772 331.976 32.2309 332.31 28.5437C332.437 27.0974 333.391 26.0326 334.885 26.0326C336.22 26.0326 337.269 26.9385 337.142 28.3848L337.015 29.2907L336.887 30.1489C336.792 31.325 337.968 31.8654 338.922 31.8654C340.734 31.8654 342.259 30.3238 342.418 28.5596C342.577 26.7478 341.655 25.7306 340.638 24.4433C338.985 22.3295 336.697 19.8184 336.935 16.8781Z" fill="white"/>
<path d="M351.97 24.5235C352.622 17.0378 358.852 9.99707 366.544 9.99707C371.996 9.99707 375.063 14.0022 374.602 19.231C373.966 26.4465 367.514 33.7097 360.044 33.7097C354.593 33.7097 351.525 29.8636 351.97 24.5235ZM360.521 18.5953C359.329 21.2653 357.851 25.3181 357.596 28.2107C357.453 29.8636 357.914 31.8979 359.949 31.8979C364.86 31.8979 368.722 18.9767 369.055 15.1783C369.199 13.4618 368.547 11.8089 366.624 11.8089C363.461 11.8089 361.538 16.1318 360.521 18.5953Z" fill="white"/>
<path d="M378.831 24.5227C379.737 22.1229 381.644 17.3708 381.851 14.955C381.898 14.367 381.707 13.5088 380.96 13.5088C379.514 13.5088 377.686 16.8145 376.987 17.9906L375.954 17.5615C377.702 14.1445 380.468 9.98047 384.632 9.98047C386.984 9.98047 387.922 11.3632 387.731 13.6677L387.207 16.7192L386.952 17.7363L387.048 17.8476C389.145 14.0491 392.753 9.99636 397.346 9.99636C400.064 9.99636 401.542 11.4903 401.304 14.1604C401.145 15.9245 400.175 18.4833 399.492 20.1998L398.205 23.299C397.728 24.4274 396.027 28.0034 395.932 29.0682C395.884 29.545 396.202 30.2443 396.742 30.2443C398.236 30.2443 400.303 26.7796 401.034 25.7624L402.051 26.3505C400.223 29.4973 397.187 33.7249 393.23 33.7249C390.989 33.7249 389.527 32.1833 389.718 29.9264C389.845 28.4325 390.957 25.4922 391.577 23.9983L392.928 20.7878C393.468 19.4528 395.137 15.7656 395.233 14.5418C395.296 13.8425 394.867 13.2068 394.168 13.2068C389.511 13.318 385.792 22.9334 384.33 26.2392L381.39 33.0256H375.779L378.831 24.5227Z" fill="white"/>
<path d="M222.155 10.2032C223.849 10.2032 225.223 8.89391 225.223 7.27884C225.223 5.66377 223.849 4.35449 222.155 4.35449C220.461 4.35449 219.088 5.66377 219.088 7.27884C219.088 8.89391 220.461 10.2032 222.155 10.2032Z" fill="white"/>
<path d="M226.923 2.03433C225.493 2.03433 221.218 2.08201 224.396 5.30833C225.048 5.95995 224.238 6.91354 224.238 6.91354L221.933 7.27908L219.295 8.28036C219.295 8.28036 215.735 0 227.655 0" fill="white"/>
<path d="M187.827 23.9833C189.575 23.9833 191.006 22.5529 191.006 20.8046C191.006 19.0564 189.591 17.626 187.827 17.626C186.063 17.626 184.648 19.0405 184.648 20.8046C184.648 22.5688 186.079 23.9833 187.827 23.9833Z" fill="white"/>
<path d="M182.693 14.034L183.249 13.6843C183.71 13.3982 184.187 13.1121 184.663 12.7784C184.902 13.4618 185.156 14.034 185.379 14.5107C182.868 15.4961 181.087 17.9437 181.087 20.7886C181.087 23.2361 182.391 25.3658 184.346 26.5578C183.773 26.8915 182.82 26.971 181.946 26.7485C179.037 25.9697 178.147 23.1725 178.147 20.9157C178.131 18.198 180.34 15.512 182.693 14.034ZM186.3 5.05429C186.364 5.05429 186.555 5.05429 186.745 5.35627C186.888 5.57877 187.063 6.02378 187.063 6.83433C187.063 8.64616 186.332 9.52028 185.299 10.4898C185.045 9.53618 184.886 8.86866 184.886 7.8515C184.87 5.9761 185.792 5.05429 186.3 5.05429ZM187.826 16.1795C190.385 16.1795 192.451 18.2456 192.451 20.8045C192.451 23.3633 190.385 25.4294 187.826 25.4294C185.267 25.4294 183.201 23.3633 183.201 20.8045C183.201 18.2456 185.283 16.1795 187.826 16.1795ZM182.661 28.0676C183.901 28.2107 184.775 28.1471 185.506 27.9564C186.38 28.3219 187.19 28.8941 187.19 29.8159C187.19 31.8661 186.539 33.1058 185.506 32.2952C184.489 31.4847 181.485 31.4211 181.485 33.6144C181.485 35.8076 184.918 36.8248 186.888 34.409C188.859 31.9933 189.002 29.0848 188.208 27.5432C188.208 27.5273 188.192 27.5273 188.192 27.5273C191.736 27.3366 194.565 24.3963 194.565 20.8045C194.565 17.0854 191.529 14.0498 187.81 14.0498C187.365 14.0498 186.92 14.0975 186.507 14.177C186.253 13.6366 185.935 12.9055 185.633 12.0473C187.047 10.8712 188.208 9.29778 188.208 6.81844C188.208 5.92842 188.049 5.22912 187.715 4.70464C187.365 4.16428 186.873 3.8623 186.285 3.8623C184.997 3.8623 183.678 5.34037 183.678 7.8356C183.678 9.15474 183.932 10.458 184.266 11.6182C183.742 11.9996 183.185 12.3334 182.629 12.683L182.057 13.0327C179.307 14.7491 175.557 17.7212 175.557 20.8998C175.588 25.0003 178.958 27.6226 182.661 28.0676Z" fill="white"/>
<path d="M165.242 0V39.6853H204.928V0H165.242ZM185.093 38.1119C175.001 38.1119 166.816 29.9269 166.816 19.8347C166.816 9.74253 175.001 1.55753 185.093 1.55753C195.185 1.55753 203.37 9.74253 203.37 19.8347C203.354 29.9269 195.169 38.1119 185.093 38.1119Z" fill="white"/>
<path d="M174.936 82.4696C179.593 78.4804 182.914 74.6024 182.914 67.0849C182.914 59.631 179.052 52.9082 163.747 52.9082H159.488H151.509C147.759 52.9082 144.707 55.9438 144.707 59.7105V98.6488H159.488V66.0678H163.747C168.134 66.0678 169.898 71.5509 165.4 73.1085C160.743 74.7296 159.615 82.6762 162.571 87.46L169.469 98.6329H184.933L174.936 82.4696Z" fill="white"/>
<path d="M325.89 52.9238H311.109V98.6644H325.89V52.9238Z" fill="white"/>
<path d="M446.741 78.8461C451.096 75.4291 453.384 69.9459 452.574 64.4627C452.494 64.0495 452.415 63.7317 452.351 63.5092C446.932 46.6465 421.216 46.6624 415.813 63.5409C415.272 65.2415 414.923 67.1328 414.843 69.1989C414.843 69.2784 414.907 69.342 414.986 69.342H429.624C429.544 68.8493 429.529 68.3725 429.576 67.8957C429.656 66.211 430.689 64.9395 432.024 64.2561C435.949 62.2536 439.335 67.9116 435.854 70.6452L416.305 85.9662C410.997 90.1303 413.937 98.6649 420.692 98.6649H421.423C421.439 98.6649 421.471 98.649 421.503 98.649L421.487 98.6649H452.733V85.5053H438.27L446.741 78.8461Z" fill="white"/>
<path d="M403.036 71.3281H382.025V84.4877H403.036V71.3281Z" fill="white"/>
<path d="M545.598 50.4453V63.6208H550.652C551.685 63.6208 552.511 64.4631 552.511 65.4803V98.6653H567.292V58.4078C567.292 54.0213 563.732 50.4612 559.345 50.4612L545.598 50.4453Z" fill="white"/>
<path d="M284.218 53.0033L281.866 52.9238H281.85H280.769H272.791C269.04 52.9238 265.988 55.9594 265.988 59.7261V91.8781C265.988 95.6288 269.024 98.6644 272.791 98.6644H284.234C315.321 96.646 315.321 55.0217 284.218 53.0033ZM281.85 85.5049H280.769V66.0834H281.85C296.392 66.0993 296.392 85.5049 281.85 85.5049Z" fill="white"/>
<path d="M210.617 66.0834H216.227V52.9238H210.617C176.367 52.9238 176.367 98.6645 210.617 98.6486V98.6644H216.227V85.5049H210.617V85.489C196.075 85.489 196.075 66.0834 210.617 66.0834Z" fill="white"/>
<path d="M127.463 98.6647H142.244L128.687 59.1065C125.54 49.9202 112.539 49.9202 109.408 59.1065L95.8516 98.6647H110.632L112.142 92.4663H125.937L127.463 98.6647ZM114.717 81.945L118.15 67.8795C118.325 66.8783 119.755 66.8783 119.93 67.8795L123.363 81.945H114.717Z" fill="white"/>
<path d="M249.524 98.6647H264.304L250.747 59.1065C247.601 49.9202 234.6 49.9202 231.469 59.1065L217.912 98.6647H232.693L234.203 92.4663H247.998L249.524 98.6647ZM236.777 81.945L240.21 67.8795C240.385 66.8783 241.815 66.8783 241.99 67.8795L245.423 81.945H236.777Z" fill="white"/>
<path d="M359.838 98.6647H374.619L361.062 59.1065C357.915 49.9202 344.914 49.9202 341.783 59.1065L328.227 98.6647H343.007L344.517 92.4663H358.312L359.838 98.6647ZM347.108 81.945L350.541 67.8795C350.715 66.8783 352.146 66.8783 352.321 67.8795L355.754 81.945H347.108Z" fill="white"/>
<path d="M477.606 50.0635C462.285 50.0635 456.627 61.2364 456.627 75.0317C456.627 88.827 462.285 99.9999 477.606 99.9999C492.927 99.9999 498.585 88.827 498.585 75.0317C498.585 61.2364 492.927 50.0635 477.606 50.0635ZM477.606 86.8403C474.173 86.8403 471.392 83.9796 471.392 75.0317C471.392 66.0838 474.157 63.223 477.606 63.223C481.039 63.223 483.82 66.0838 483.82 75.0317C483.82 83.9796 481.023 86.8403 477.606 86.8403Z" fill="white"/>
<path d="M522.965 50.0635C507.644 50.0635 501.986 61.2364 501.986 75.0317C501.986 88.827 507.644 99.9999 522.965 99.9999C538.286 99.9999 543.944 88.827 543.944 75.0317C543.944 61.2364 538.302 50.0635 522.965 50.0635ZM522.965 86.8403C519.532 86.8403 516.751 83.9796 516.751 75.0317C516.751 66.0838 519.517 63.223 522.965 63.223C526.398 63.223 529.18 66.0838 529.18 75.0317C529.18 83.9796 526.398 86.8403 522.965 86.8403Z" fill="white"/>
<path d="M452.703 85.5049V98.6644H421.473L431.326 85.5049H452.703Z" fill="white"/>
<path d="M216.259 85.5049H210.648V98.6644H216.259V85.5049Z" fill="white"/>
<path d="M216.259 52.9238H210.648V66.0834H216.259V52.9238Z" fill="white"/>
<path d="M15.8932 52.3203L0 98.6649H23.363L39.2562 52.3203H15.8932Z" fill="white"/>
<path d="M47.8385 52.3203L31.9453 98.6649H55.3242L71.2174 52.3203H47.8385Z" fill="white"/>
<path d="M79.7994 52.3203L63.9062 98.6649H87.2692L103.162 52.3203H79.7994Z" fill="white"/>
<path d="M579.322 82.8516H592.053V85.2355H587.062V98.5858H584.313V85.2355H579.338V82.8516H579.322Z" fill="white"/>
<path d="M593.816 82.8516H597.694L602.033 95.1529H602.081L606.308 82.8516H610.139V98.5699H607.516V86.4434H607.469L603.114 98.5699H600.841L596.486 86.4434H596.439V98.5699H593.816V82.8516Z" fill="white"/>
</g>
<defs>
<clipPath id="clip0_4_4068">
<rect width="610.14" height="100" fill="white"/>
</clipPath>
</defs>
</svg>
