<svg width="658" height="100" viewBox="0 0 658 100" fill="none" xmlns="http://www.w3.org/2000/svg">
<g clip-path="url(#clip0_4_4061)">
<path d="M657.084 40.5202V0H560.592V100H657.084V88.9801H597.382V66.5469H618.343V62.9706H597.382V40.5202H657.084ZM570.003 9.42847V41.9918C570.003 42.9671 569.216 43.7714 568.224 43.7714C567.231 43.7714 566.444 42.9843 566.444 41.9918V7.64887C566.444 6.67351 567.231 5.86927 568.224 5.86927H613.467C614.442 5.86927 615.246 6.6564 615.246 7.64887C615.246 8.62423 614.459 9.42847 613.467 9.42847H570.003Z" fill="white"/>
<path d="M315.434 24.076C311.498 17.6078 306.142 12.0808 299.725 7.95688C291.683 2.75496 282.323 0 272.672 0C245.105 0 222.672 22.4333 222.672 50C222.672 77.5667 245.105 100 272.672 100C282.306 100 291.666 97.245 299.725 92.0602C306.142 87.9192 311.498 82.4093 315.434 75.9411L260.762 50.0171L315.434 24.076ZM269.232 62.4743C269.643 61.5845 270.704 61.2081 271.594 61.6359L304.448 77.2245C304.961 77.4641 305.321 77.9432 305.423 78.4908C305.526 79.0383 305.372 79.6201 304.979 80.0308C302.463 82.7344 299.623 85.1129 296.542 87.115C296.252 87.3032 295.909 87.4059 295.584 87.4059C295.002 87.4059 294.438 87.115 294.096 86.6016C293.565 85.7803 293.805 84.6851 294.626 84.1547C296.782 82.7686 298.818 81.1602 300.683 79.3806L270.071 64.87C269.181 64.425 268.805 63.3641 269.232 62.4743Z" fill="white"/>
<path d="M51.386 5.57812L0 99.9998H102.772L51.386 5.57812ZM51.386 70.0032C48.4257 70.0032 46.0301 67.6076 46.0301 64.6472C46.0301 61.6869 48.4257 59.2913 51.386 59.2913C54.3463 59.2913 56.742 61.6869 56.742 64.6472C56.742 67.6076 54.3463 70.0032 51.386 70.0032ZM89.9042 94.1134H67.2827C66.3073 94.1134 65.5031 93.3262 65.5031 92.3338C65.5031 91.3584 66.2902 90.5542 67.2827 90.5542H86.9268L76.3689 71.1839C75.9069 70.3283 76.2149 69.2503 77.0705 68.7883C77.9261 68.3262 79.0041 68.6342 79.4661 69.4898L91.4442 91.4953C91.7351 92.0429 91.7351 92.7102 91.41 93.2407C91.102 93.7883 90.5202 94.1134 89.9042 94.1134Z" fill="white"/>
<path d="M370.585 5.57812L319.199 99.9998H421.971L370.585 5.57812ZM370.585 70.0032C367.625 70.0032 365.229 67.6076 365.229 64.6472C365.229 61.6869 367.625 59.2913 370.585 59.2913C373.546 59.2913 375.941 61.6869 375.941 64.6472C375.941 67.6076 373.546 70.0032 370.585 70.0032ZM409.086 94.1134H386.465C385.489 94.1134 384.685 93.3262 384.685 92.3338C384.685 91.3584 385.472 90.5542 386.465 90.5542H406.109L395.568 71.1839C395.106 70.3283 395.414 69.2503 396.27 68.7883C397.125 68.3262 398.203 68.6342 398.665 69.4898L410.643 91.4953C410.934 92.0429 410.934 92.7102 410.609 93.2407C410.301 93.7883 409.719 94.1134 409.086 94.1134Z" fill="white"/>
<path d="M494.9 0H438.363V100H494.9C522.467 100 544.9 77.5667 544.9 50C544.9 22.4333 522.467 0 494.9 0ZM494.438 69.4558C491.478 69.4558 489.082 67.0602 489.082 64.0999C489.082 61.1396 491.478 58.744 494.438 58.744C497.398 58.744 499.794 61.1396 499.794 64.0999C499.794 67.0602 497.398 69.4558 494.438 69.4558ZM526.83 80.4073C519.387 88.2272 509.393 93.0356 498.699 93.9596C498.647 93.9596 498.596 93.9596 498.545 93.9596C497.638 93.9596 496.868 93.258 496.782 92.334C496.697 91.3587 497.415 90.5031 498.391 90.4175C518.822 88.6721 534.753 71.8857 535.437 51.386C535.471 50.4107 536.276 49.6407 537.268 49.6749C538.243 49.7091 539.014 50.5305 538.979 51.5058C538.62 62.3032 534.308 72.5702 526.83 80.4073Z" fill="white"/>
<path d="M174.999 62.9016C175.82 61.0536 177.651 59.8729 179.671 59.8729H180.988C197.501 59.8729 210.916 46.4403 210.916 29.9447C210.916 13.4321 197.484 0.0166016 180.988 0.0166016H119.164V100.017H204.517L175.889 68.4115C174.537 66.9057 174.178 64.7497 174.999 62.9016ZM180.988 50.4444C191.152 50.4444 199.896 42.864 201.3 32.8024C201.436 31.827 202.326 31.1597 203.302 31.2965C204.277 31.4334 204.944 32.3232 204.807 33.2986C204.003 38.9796 201.18 44.2158 196.833 48.0317C192.453 51.8818 186.823 54.0036 180.988 54.0036C180.013 54.0036 179.209 53.2165 179.209 52.224C179.209 51.2315 180.013 50.4444 180.988 50.4444ZM167.059 25.1535C170.02 25.1535 172.415 27.5491 172.415 30.5094C172.415 33.4697 170.02 35.8653 167.059 35.8653C164.099 35.8653 161.703 33.4697 161.703 30.5094C161.703 27.5491 164.099 25.1535 167.059 25.1535ZM188.877 93.0693C188.586 93.7024 187.953 94.1302 187.251 94.1302H164.664C163.688 94.1302 162.884 93.3431 162.884 92.3506C162.884 91.3753 163.671 90.571 164.664 90.571H183.264L168.907 74.7257C167.915 73.6477 167.111 72.4156 166.495 71.0809C166.084 70.1911 166.478 69.1473 167.35 68.7367C168.24 68.326 169.284 68.7195 169.695 69.5922C170.157 70.6018 170.773 71.5258 171.525 72.3472L188.569 91.1528C189.031 91.6662 189.15 92.4191 188.877 93.0693Z" fill="white"/>
</g>
<defs>
<clipPath id="clip0_4_4061">
<rect width="657.084" height="100" fill="white"/>
</clipPath>
</defs>
</svg>
