<svg width="422" height="100" viewBox="0 0 422 100" fill="none" xmlns="http://www.w3.org/2000/svg">
<g clip-path="url(#clip0_4_4123)">
<path d="M77.4148 0L-0.183594 100H9.05296L45.6736 52.8069C57.0201 47.3305 69.3377 48.3525 78.6427 55.3715V100H85.7481L85.758 0H77.4148ZM78.6427 10.3219V46.7629C71.0427 42.411 62.151 41.1034 53.2818 43.0034L78.6427 10.3219ZM165.441 27.1303L156.81 87.1844H164.297L168.083 61.469C168.8 60.5505 169.499 59.7161 170.178 58.9638C170.856 58.2127 171.437 57.5928 171.92 57.1046C172.402 56.6164 172.709 56.3094 172.839 56.1849C173.287 55.7199 173.878 55.1815 174.613 54.5697C175.348 53.9578 176.182 53.4202 177.112 52.9552C178.042 52.4907 179.025 52.2463 180.061 52.2218C180.696 52.2252 181.342 52.394 181.999 52.7278C182.656 53.0615 183.214 53.539 183.672 54.1592C184.098 54.7698 184.37 55.3752 184.487 55.9756C184.605 56.5752 184.656 57.2021 184.641 57.8578C184.641 58.4021 184.63 58.8584 184.608 59.2242C184.586 59.59 184.55 59.9411 184.497 60.2774C184.446 60.6149 184.376 61.0117 184.289 61.469L180.677 87.1844H188.248L191.767 62.0847C191.884 61.4315 191.973 60.8804 192.037 60.4315C192.101 59.9826 192.145 59.509 192.171 59.0124C192.196 58.5149 192.208 57.865 192.207 57.065C192.171 54.495 191.695 52.4287 190.779 50.8628C189.864 49.297 188.723 48.1615 187.358 47.4568C185.991 46.7522 184.617 46.4062 183.232 46.4184C181.296 46.4395 179.483 46.8083 177.793 47.5252C176.105 48.2434 174.534 49.1852 173.08 50.3535C171.627 51.5206 170.284 52.7892 169.052 54.1592L172.928 27.1303H165.441ZM337.667 27.1303L334.936 46.5066C333.51 46.4653 332.116 46.4586 330.754 46.4868C329.392 46.5151 327.992 46.6445 326.552 46.8783C325.112 47.1104 323.562 47.5154 321.901 48.0914C319.363 49.0125 317.094 50.2693 315.095 51.8608C313.095 53.4532 311.396 55.2705 309.997 57.3123C308.599 59.3549 307.534 61.513 306.8 63.7872C306.066 66.0611 305.696 68.34 305.691 70.624C305.72 73.3274 306.216 75.7776 307.18 77.9734C308.142 80.1704 309.41 82.0034 310.979 83.4734C311.93 84.3945 313.073 85.2258 314.411 85.9672C315.75 86.7085 317.396 87.2977 319.349 87.7357C321.304 88.1737 323.681 88.3976 326.481 88.4073C329.242 88.3782 331.447 88.2164 333.097 87.9228C334.746 87.6295 335.917 87.38 336.609 87.1745L345.241 27.1303H337.667ZM205.294 34.1261C204.079 34.1603 203.079 34.5748 202.293 35.3697C201.506 36.1625 201.098 37.1281 201.072 38.2631C201.079 39.0083 201.27 39.6994 201.642 40.3366C202.015 40.9741 202.524 41.4889 203.17 41.8818C203.815 42.2754 204.553 42.4773 205.382 42.4883C206.237 42.4735 206.98 42.2582 207.611 41.8422C208.241 41.4262 208.73 40.8979 209.078 40.2583C209.424 39.6173 209.6 38.953 209.605 38.2631C209.6 37.5475 209.417 36.8776 209.055 36.2523C208.694 35.6274 208.191 35.1197 207.546 34.7294C206.902 34.3403 206.151 34.1384 205.294 34.1261ZM150.426 46.4184C146.628 46.4421 143.289 46.9447 140.411 47.9282C137.533 48.9105 135.074 50.235 133.035 51.8996C130.997 53.5658 129.339 55.4338 128.062 57.5035C126.785 59.5743 125.849 61.7076 125.252 63.9059C124.656 66.1038 124.361 68.2273 124.369 70.2762C124.355 72.2471 124.64 74.2817 125.222 76.3795C125.804 78.4762 126.763 80.4332 128.097 82.2496C129.432 84.0665 131.219 85.539 133.463 86.6668C135.706 87.7959 138.484 88.3769 141.795 88.4098C143.642 88.395 145.271 88.2301 146.684 87.9145C148.097 87.6002 149.309 87.2254 150.321 86.7937C151.332 86.3604 152.16 85.9618 152.804 85.5947L153.948 77.6734C153.249 78.2228 152.388 78.8072 151.367 79.4287C150.347 80.049 149.143 80.5823 147.751 81.0275C146.36 81.4718 144.757 81.7036 142.94 81.7247C141.012 81.7049 139.396 81.3955 138.092 80.7959C136.789 80.1955 135.738 79.4229 134.941 78.4761C134.143 77.5292 133.539 76.5259 133.129 75.4664C132.719 74.4069 132.444 73.4084 132.303 72.47C132.162 71.532 132.097 70.7703 132.106 70.1881C132.102 68.329 132.447 66.411 133.143 64.4342C133.839 62.4574 134.914 60.6137 136.367 58.9036C137.821 57.1926 139.684 55.8068 141.953 54.7452C144.223 53.6819 146.93 53.1352 150.074 53.1036C151.067 53.1074 152.01 53.1656 152.903 53.2791C153.798 53.393 154.762 53.5403 155.799 53.72L156.767 47.1074C155.963 46.9298 155.083 46.7727 154.125 46.636C153.167 46.4976 151.934 46.426 150.426 46.4184ZM287.652 46.4209C284.912 46.4441 282.414 47.0644 280.16 48.2817C277.904 49.4999 275.957 51.179 274.318 53.3195C272.679 55.4613 271.414 57.9276 270.523 60.7191C269.633 63.5103 269.181 66.4906 269.17 69.6598C269.185 73.2708 269.86 76.4822 271.194 79.2919C272.529 82.1021 274.437 84.3153 276.915 85.9326C279.393 87.5507 282.355 88.3757 285.803 88.4073C287.675 88.4331 289.74 88.117 291.998 87.4604C294.255 86.8035 296.562 85.6518 298.921 84.0042L300.064 76.171C298.851 77.1056 297.502 78.0345 296.018 78.9582C294.533 79.8818 292.976 80.6532 291.345 81.2747C289.715 81.895 288.073 82.2177 286.419 82.2422C284.776 82.235 283.222 81.771 281.758 80.8511C280.293 79.9313 279.098 78.6001 278.171 76.8584C277.245 75.1178 276.767 73.0121 276.737 70.5408C276.739 69.8889 276.756 69.2548 276.792 68.6371C276.826 68.0194 276.867 67.3628 276.912 66.6691H301.649C301.741 66.2371 301.822 65.7128 301.891 65.0951C301.962 64.4761 301.999 63.7086 302.002 62.7926C301.977 59.4883 301.35 56.6143 300.12 54.1691C298.89 51.724 297.201 49.8264 295.051 48.4762C292.901 47.1256 290.435 46.4407 287.652 46.4209ZM362.714 46.4209C359.974 46.4441 357.477 47.0644 355.223 48.2817C352.967 49.4999 351.019 51.179 349.38 53.3195C347.74 55.4613 346.476 57.9276 345.585 60.7191C344.695 63.5103 344.243 66.4906 344.232 69.6598C344.247 73.2708 344.923 76.4822 346.257 79.2919C347.592 82.1021 349.499 84.3153 351.977 85.9326C354.455 87.5507 357.418 88.3757 360.865 88.4073C362.738 88.4331 364.803 88.117 367.061 87.4604C369.317 86.8035 371.625 85.6518 373.983 84.0042L375.125 76.171C373.913 77.1056 372.565 78.0345 371.081 78.9582C369.596 79.8818 368.038 80.6532 366.407 81.2747C364.777 81.895 363.135 82.2177 361.482 82.2422C359.839 82.235 358.284 81.771 356.82 80.8511C355.355 79.9313 354.161 78.6001 353.233 76.8584C352.307 75.1178 351.829 73.0121 351.8 70.5408C351.801 69.8889 351.819 69.2548 351.854 68.6371C351.889 68.0194 351.93 67.3628 351.975 66.6691H376.71C376.802 66.2371 376.887 65.7128 376.954 65.0951C377.022 64.4761 377.059 63.7086 377.065 62.7926C377.04 59.4883 376.41 56.6143 375.181 54.1691C373.952 51.724 372.263 49.8264 370.113 48.4762C367.964 47.1256 365.498 46.4407 362.714 46.4209ZM395.737 46.6764C393.009 46.7059 390.74 47.2326 388.923 48.2554C387.113 49.279 385.756 50.6204 384.851 52.2803C383.946 53.9389 383.498 55.7373 383.498 57.6749C383.511 59.2858 383.823 60.7426 384.429 62.0426C385.028 63.3443 385.829 64.5129 386.826 65.55C387.817 66.5863 388.912 67.5144 390.104 68.333C392.319 69.9182 394.08 71.2191 395.383 72.2368C396.692 73.2558 397.621 74.1666 398.177 74.9679C398.74 75.7717 399.015 76.6423 398.997 77.5819C398.966 78.8785 398.483 79.9169 397.553 80.697C396.63 81.4764 395.468 81.8762 394.067 81.8969C392.19 81.8762 390.239 81.3441 388.22 80.3006C386.202 79.2559 384.006 77.8213 381.645 75.9947L380.416 83.2171C382.184 84.4733 383.799 85.4824 385.26 86.2457C386.722 87.009 388.147 87.562 389.541 87.9046C390.936 88.2472 392.41 88.4161 393.976 88.4098C396.025 88.395 397.823 88.0624 399.371 87.4126C400.924 86.7633 402.214 85.8887 403.255 84.7903C404.3 83.6908 405.083 82.4584 405.602 81.0934C406.128 79.728 406.392 78.3229 406.392 76.8773C406.38 74.8516 405.982 73.1178 405.193 71.6756C404.404 70.2346 403.285 68.905 401.841 67.6894C400.398 66.4733 398.685 65.1914 396.71 63.8408C395.719 63.1657 394.764 62.4709 393.841 61.7591C392.917 61.0473 392.159 60.3211 391.56 59.5802C390.961 58.8389 390.655 58.0854 390.63 57.3222C390.655 56.1968 391.138 55.2758 392.074 54.5589C393.01 53.8408 394.263 53.4704 395.829 53.4472C397.321 53.4607 398.765 53.7075 400.147 54.1873C401.535 54.6679 402.869 55.3008 404.159 56.0835C405.444 56.8675 406.686 57.7196 407.89 58.6432V50.8084C407.15 50.3144 406.196 49.7492 405.016 49.1116C403.836 48.4745 402.465 47.916 400.905 47.4354C399.346 46.9544 397.621 46.7009 395.737 46.6764ZM118.981 47.02C117.312 47.047 115.816 47.4914 114.494 48.3526C113.171 49.2138 111.996 50.3289 110.966 51.6977C109.936 53.0677 109.027 54.5279 108.24 56.0802L109.384 47.6439H101.988L96.3527 87.1844H103.837L107.007 64.9039C107.552 63.7077 108.069 62.7347 108.558 61.9849C109.049 61.2351 109.411 60.7062 109.647 60.3977C110.845 58.7462 111.923 57.5155 112.883 56.7033C113.842 55.8923 114.717 55.3589 115.511 55.1045C116.304 54.8501 117.051 54.7352 117.749 54.7584C118.8 54.7807 119.691 54.9346 120.423 55.2207C121.156 55.5085 121.761 55.7942 122.238 56.0802V47.6439C121.85 47.4996 121.395 47.3614 120.874 47.2302C120.353 47.0981 119.722 47.0285 118.981 47.02ZM232.886 47.02C230.605 47.0091 228.322 47.6242 226.039 48.8669C223.757 50.1086 221.43 52.0448 219.058 54.6735L220.028 47.6439H212.629L206.992 87.1844H214.391L218.001 62.0855C218.238 61.7648 218.642 61.2552 219.213 60.5518C219.784 59.851 220.475 59.0677 221.287 58.2039C222.098 57.3415 222.983 56.5086 223.944 55.7061C224.903 54.9036 225.89 54.2419 226.906 53.7208C227.92 53.1997 228.915 52.9297 229.891 52.9116C230.42 52.8917 231.037 53.0193 231.745 53.2931C232.453 53.5674 233.077 54.1067 233.618 54.9092C234.158 55.7117 234.443 56.8956 234.471 58.4627C234.473 59.0509 234.426 59.9644 234.328 61.2037C234.232 62.4425 234.073 63.9083 233.854 65.5986L230.772 87.1844H238.258L241.958 62.0748C242.649 61.1292 243.468 60.1271 244.418 59.0676C245.365 58.0068 246.392 57.0056 247.495 56.0613C248.6 55.117 249.73 54.3451 250.887 53.748C252.045 53.1497 253.179 52.8419 254.287 52.8234C254.784 52.8014 255.358 52.9333 256.01 53.2181C256.663 53.5034 257.237 54.0721 257.732 54.9248C258.227 55.7772 258.49 57.0446 258.516 58.7264C258.511 59.2294 258.477 59.7875 258.416 60.4002C258.356 61.0128 258.301 61.5705 258.251 62.0748L254.64 87.1844H262.124L265.468 63.7477C265.605 62.7802 265.727 61.808 265.83 60.8295C265.935 59.8506 265.991 58.8564 265.995 57.8463C265.975 55.6151 265.654 53.7884 265.033 52.366C264.412 50.9445 263.619 49.8435 262.651 49.0655C261.685 48.2874 260.67 47.7494 259.608 47.4494C258.548 47.1498 257.567 47.0065 256.666 47.02C254.966 47.0407 253.362 47.3509 251.854 47.9488C250.346 48.5471 248.959 49.3076 247.693 50.2299C246.428 51.1536 245.311 52.1115 244.343 53.106C243.374 54.1006 242.579 55.0055 241.958 55.819C241.61 53.5781 240.957 51.8123 239.998 50.5258C239.04 49.2389 237.929 48.3289 236.667 47.7955C235.405 47.2609 234.145 47.0027 232.886 47.02ZM200.385 47.6439L194.749 87.1844H202.234L207.865 47.6439H200.385ZM287.652 52.4995C289.016 52.5033 290.23 52.8481 291.296 53.5354C292.364 54.2232 293.2 55.2327 293.807 56.5648C294.414 57.8969 294.709 59.5327 294.693 61.4715H278.145C278.358 60.807 278.677 59.982 279.098 58.9934C279.522 58.0065 280.095 57.0178 280.819 56.0283C281.543 55.0397 282.463 54.2107 283.578 53.5428C284.695 52.8736 286.053 52.5265 287.652 52.4995ZM362.714 52.4995C364.079 52.5033 365.293 52.8481 366.359 53.5354C367.427 54.2232 368.263 55.2327 368.87 56.5648C369.476 57.8969 369.772 59.5327 369.756 61.4715H353.208C353.421 60.807 353.738 59.982 354.16 58.9934C354.583 58.0065 355.158 57.0178 355.882 56.0283C356.606 55.0397 357.525 54.2107 358.641 53.5428C359.758 52.8736 361.116 52.5265 362.714 52.4995ZM334.055 52.6717L329.828 82.065C329.407 82.1528 328.948 82.2189 328.452 82.2628C327.954 82.3071 327.297 82.3288 326.481 82.3288C323.327 82.2946 320.798 81.7089 318.897 80.5726C316.995 79.4363 315.622 77.9571 314.777 76.1356C313.932 74.3154 313.517 72.3611 313.534 70.2729C313.526 68.1556 313.914 66.0247 314.699 63.8779C315.483 61.7311 316.713 59.7749 318.388 58.0095C320.062 56.2457 322.231 54.8776 324.896 53.9038C326.691 53.2751 328.405 52.9039 330.037 52.7929C331.667 52.6802 333.007 52.6397 334.055 52.6717Z" fill="white"/>
</g>
<defs>
<clipPath id="clip0_4_4123">
<rect width="421.941" height="100" fill="white"/>
</clipPath>
</defs>
</svg>
