<svg width="618" height="100" viewBox="0 0 618 100" fill="none" xmlns="http://www.w3.org/2000/svg">
<g clip-path="url(#clip0_4_4125)">
<path d="M110.822 0.303223C93.9583 0.317929 94.7233 0.53938 92.5447 3.22941L91.3559 4.69677L91.2368 13.9819C91.5969 30.2881 91.1707 46.5391 91.1653 59.1826C91.1594 91.0084 91.2197 94.4178 91.8076 95.6569C92.5126 97.1427 94.5577 98.9707 95.9686 99.3782C97.5062 99.8212 98.9942 99.7325 100.489 99.1082C102.437 98.2941 103.313 97.4559 104.172 95.5865C104.819 94.1767 104.895 92.8307 104.902 82.5218L104.911 71.0287H114.236H123.561L137.517 84.9438C149.294 96.6868 151.727 98.934 153.105 99.3369C158.216 100.832 163.008 96.0388 161.507 90.932C161.112 89.5864 159.408 87.6718 151.799 80.0246L142.571 70.7502L143.872 69.9028C144.426 69.5793 148.664 65.7872 152.916 61.6477C158.83 55.8893 160.795 53.7303 161.282 52.4547C161.839 50.9974 161.905 48.7809 161.804 34.8461L161.688 18.9043C155.799 13.1752 150.27 5.13145 143.185 0.90213C142.101 0.387719 138.735 0.3043 119.188 0.3043C116 0.3043 113.231 0.301046 110.822 0.303223ZM201.98 0.303223C185.116 0.317929 185.881 0.539379 183.703 3.23017C182.622 4.56473 182.501 5.00696 182.372 8.08646C182.372 19.029 182.32 42.086 182.318 53.1906C182.318 90.5782 182.376 94.4135 182.966 95.657C183.669 97.1386 185.71 98.9672 187.129 99.3867C187.616 99.5308 197.738 99.6508 209.621 99.6523C219.227 99.6523 227.876 99.8068 234.226 99.5403C235.882 99.0736 251.509 83.4012 252.438 81.1607C252.966 79.8889 253.044 75.8902 253.044 50.2671C253.044 34.0791 252.93 20.2379 252.79 19.5086C252.591 18.466 251.135 16.9762 246.16 12.0302C242.181 8.05764 239.298 5.30362 236.917 2.84094C234.357 0.199586 235.458 0.304569 210.346 0.304569C207.158 0.304569 204.389 0.301017 201.98 0.303223ZM491.22 0.303986C481.053 0.303986 475.099 0.451917 474.384 0.722211C472.961 1.26033 457.177 16.9536 456.389 18.614C455.875 19.6979 455.792 23.2819 455.792 44.4917C455.921 50.641 455.915 66.6926 455.915 69.8874C455.915 73.5998 455.66 78.2425 456.505 81.3995C457.375 83.233 473.434 99.1981 474.652 99.4241C475.193 99.5243 482.62 99.6266 491.157 99.651C505.563 99.6925 506.79 99.6423 508.249 98.9596C510.383 97.9599 525.101 83.1312 525.916 81.1599C526.4 79.9872 526.52 77.8751 526.52 70.4528C526.52 56.4753 526.514 57.4913 526.518 39.645C526.518 29.2989 526.404 20.237 526.264 19.5077C526.062 18.4546 524.31 16.4657 517.753 9.84652C513.211 5.26225 508.923 1.23968 508.223 0.907561C507.144 0.395561 504.556 0.303986 491.22 0.303986ZM35.1656 0.321623C34.3038 0.322182 33.4423 0.456033 32.7375 0.722974C31.5078 1.18853 20.6435 11.8317 8.43533 24.5309C1.8152 31.4173 0.35453 33.1649 0.128589 34.3693C0.0968533 41.8255 0.00208435 55.3953 0.00208435 65.6222C0.00208435 97.5347 -0.164758 95.2049 2.48697 98.0529C3.739 99.085 4.40772 99.3207 6.71324 99.3207C9.9095 99.3207 11.6227 98.5085 12.923 95.9345C13.8027 94.1932 13.7544 93.9535 13.7544 75.4652V56.8851H35.3652H56.976V75.5872C56.976 92.1573 57.0498 94.446 57.6244 95.657C58.3297 97.1433 60.376 98.9733 61.7869 99.3798C63.3245 99.8228 64.8117 99.7334 66.3063 99.1091C68.2548 98.295 69.1308 97.4576 69.9892 95.5881C70.6688 94.1081 70.7124 92.3052 70.7198 64.6945C70.7257 48.5675 70.6154 34.8073 70.4774 34.1164C61.5705 24.1772 47.5352 6.77576 37.5992 0.720057C36.8911 0.453881 36.0274 0.321064 35.1656 0.321623ZM404.733 0.356045C401.549 0.355075 397.516 0.370742 392.391 0.392801L369.029 0.500151L367.56 1.6889C366.753 2.34264 365.764 3.48922 365.363 4.2368C364.667 5.5341 364.634 7.3428 364.634 43.9259C365.099 58.9647 364.891 82.4733 364.706 87.7261C364.637 90.7498 364.694 93.8153 364.829 94.5385C365.117 96.0789 368.004 99.1645 369.404 99.4302C369.914 99.5269 380.498 99.6266 392.924 99.6513C414.243 99.6937 415.606 99.6543 417.089 98.9599C419.223 97.9601 433.941 83.1315 434.756 81.1602C435.169 80.1621 435.36 78.3883 435.36 75.561C435.36 70.6364 435.711 66.5838 435.1 62.3367C434.901 61.3241 433.557 59.7059 429.413 55.4927L423.987 49.9749L428.93 45.0803C431.747 42.2898 434.188 39.5099 434.607 38.6139C435.25 37.2397 435.344 36.024 435.352 28.9382C435.357 24.481 435.246 20.2374 435.106 19.508C434.904 18.4549 433.151 16.4661 426.594 9.84688C422.052 5.26258 417.756 1.23582 417.045 0.898675C416.195 0.495233 414.284 0.358957 404.733 0.356045ZM280.754 0.388403C280.466 0.379579 280.167 0.38736 279.857 0.411919C277.476 0.590449 275.411 1.98862 274.205 4.23833C273.51 5.53483 273.476 7.31491 273.476 42.8069C273.476 68.0007 273.61 80.3705 273.891 81.1101C276.909 83.9153 288.811 98.1347 292.381 99.43C292.897 99.5276 300.303 99.6285 308.839 99.6532C323.244 99.695 324.472 99.6444 325.931 98.9618C326.884 98.5152 330.167 95.5438 334.276 91.4073C337.538 87.8764 340.021 85.864 343.596 81.1375C344.159 79.651 344.214 75.5953 344.115 42.0892L344.006 4.70009L342.817 3.23125C341.044 1.0414 339.312 0.225593 336.831 0.41174C334.45 0.590269 332.385 1.98844 331.179 4.23815C330.484 5.53306 330.45 7.26218 330.45 40.7646V75.932L325.446 80.9472L320.442 85.9623H308.839H297.236L292.239 80.9526L287.243 75.9427L287.138 40.3211L287.032 4.69932L285.843 3.23125C284.292 1.31513 282.772 0.449815 280.754 0.388403ZM554.229 0.388403C553.94 0.379579 553.642 0.38736 553.331 0.411919C551.776 0.528684 550.911 0.852782 549.837 1.72269C547.09 3.94569 546.95 4.54847 546.95 14.188C546.95 21.1432 547.067 23.0246 547.561 24.0664C547.897 24.7741 554.307 31.5822 561.805 39.1962C569.303 46.8102 575.568 53.2509 575.498 53.4981C575.498 61.7399 575.263 65.7418 575.252 73.4042C575.225 92.127 575.289 94.3926 575.88 95.6382C576.594 97.1415 578.633 98.972 580.051 99.3809C581.589 99.8236 583.076 99.7343 584.571 99.11C586.519 98.2959 587.396 97.4585 588.254 95.5891C588.925 94.1279 588.977 92.5609 588.984 73.3183C588.993 54.6874 588.886 51.7873 589.465 51.2088C595.521 46.0246 612.887 31.1113 617.12 23.6559C617.626 22.3322 617.712 20.5142 617.608 13.3731L617.481 4.69807L616.293 3.23076C614.52 1.04149 612.788 0.225891 610.307 0.412009C608.751 0.528774 607.887 0.852827 606.812 1.72274C604.185 3.84903 603.926 4.77886 603.926 12.0838V18.5708L593.082 29.42L582.238 40.2691L571.569 29.4844L560.901 18.6998L560.704 11.6993L560.508 4.69807L559.319 3.23076C557.767 1.31511 556.246 0.449785 554.229 0.388403ZM196.07 14.0646L212.474 14.0793L228.879 14.094L234.085 19.182L239.291 24.2701V49.995V75.72L234.085 80.8342V80.8312L228.879 85.9445L212.474 85.9563L196.07 85.968V50.0156V14.0646ZM104.912 14.0661H121.335H137.758C141.468 17.7722 144.398 20.6894 148.133 24.1593V35.5978V47.0363L142.926 52.1496L137.72 57.2638L121.316 57.2756L104.911 57.2873C104.973 44.356 104.693 29.4754 104.85 18.0935L104.912 14.0661ZM378.386 14.0661H394.993H411.6L416.604 19.0812L421.608 24.0963V28.6149V33.1336L416.593 38.138L411.578 43.1424H394.982H378.386V28.6042V14.0661ZM479.552 14.0661H491.145H502.736L507.751 19.0696L512.766 24.0741V42.8837C512.766 52.8502 512.823 62.5883 512.787 68.8109L512.748 75.951L507.754 80.9608L502.759 85.9706H491.156H479.554L474.565 80.9608L469.577 75.951L469.514 71.721C469.514 60.6605 469.531 53.9917 469.537 46.1695L469.555 24.0852L474.553 19.0754L479.552 14.0661ZM35.2709 16.9199C41.392 22.7906 47.8807 29.4825 53.2786 34.9345L56.9769 38.6174V40.8843V43.1513H35.3661H13.7553L13.8855 38.7265C21.2256 30.1894 27.0813 24.4459 35.2709 16.9199ZM378.388 56.9174H394.983H411.579L416.594 61.921L421.609 66.9255C421.627 69.6215 421.612 72.6398 421.609 75.061C421.609 75.6917 420.106 77.4709 416.606 80.9786L411.601 85.9937H394.995H378.388V83.2433C378.388 76.5389 378.387 73.5202 378.388 68.6107V56.9174Z" fill="white"/>
</g>
<defs>
<clipPath id="clip0_4_4125">
<rect width="617.647" height="100" fill="white"/>
</clipPath>
</defs>
</svg>
