<svg width="562" height="100" viewBox="0 0 562 100" fill="none" xmlns="http://www.w3.org/2000/svg">
<g clip-path="url(#clip0_4_4128)">
<path d="M354.627 19.5719V17.1123H371.776V38.8783H359.602V43.1634H355.412V47.9697H350.587V68.8761H354.757V73.291H359.34V77.9655H371.776V99.9995H354.757V97.2868H349.521V94.7463H345.332V91.1932H341.536V86.4761H337.085V81.8293H332.897V76.2463H328.838V40.6144H332.897V35.2421H336.955V30.3846H341.668V25.74H345.332V22.3868H349.129V19.5719H354.627Z" fill="white"/>
<path d="M401.149 19.1661V17.0107H419.474V19.1661H424.711V21.8958H428.64V25.7937H432.83V29.9533H437.149V34.7597H441.6V99.9469H421.374V43.4639H416.989V39.4384H406.387V43.2044H401.674V47.7554H396.828V68.8065H401.408V73.4831H405.6V77.2512H416.857V99.9469H401.149V98.1724H395.649V95.4448H392.115V91.6767H387.926V87.2576H383.866V82.1895H379.808V76.6044H375.357V40.7384H379.153V35.2427H383.736V30.4724H387.926V25.6618H391.853V22.1554H395.911V19.1597L401.149 19.1661Z" fill="white"/>
<path d="M25.7915 19.1661V17.0107H44.117V19.1661H49.3532V21.8958H53.283V25.7937H57.4723V29.9533H61.7936V34.7618H66.2447V99.9469H46.017V43.4661H41.6319V39.4384H31.0298V43.2044H26.317V47.7554H21.4702V68.8065H26.0511V73.4831H30.2426V77.2512H41.5V99.9469H25.7915V98.1746H20.2915V95.4448H16.7574V91.6767H12.5681V87.2597H8.51064V82.1895H4.45106V76.6044H0V40.7384H3.79574V35.2427H8.38085V30.4724H12.5681V25.6618H16.4957V22.1554H20.5532V19.1597L25.7915 19.1661Z" fill="white"/>
<path d="M487.136 38.5702V17.0106H471.223V19.2723L466.198 19.2851V21.9447H461.847V25.6043H457.491V30.2553H453.638V34.9128H449.451V40.7319H445.098V76.3085H449.619V81.9617H453.638V87.1149H457.827V91.9362H462.015V95.5936H466.198V98.0872H471.896V99.9468H490.985V98.2532H496.179V95.2617H499.696V91.1043H503.551V86.283H508.238V81.6277H512.425V0H490.819V73.483H487.136V77.3064H475.744V73.483H471.896V68.4957H467.372V47.7149H472.227V43.3915H476.417V38.5702H487.136Z" fill="white"/>
<path d="M521.02 40.1831V34.9512H524.669V30.3895H528.995V25.6937H532.782V21.9363H537.105V18.8512H541.971V17.0107H561.701V38.9746H547.916V42.3278H543.456V44.8767H539.399V47.8299H561.701V68.3554H539.535V71.5767H543.727V74.1235H547.646V77.3448H561.701V99.9469H541.971V98.1384H537.371V95.3214H533.182V91.5639H529.267V87.4044H524.669V82.0405H521.02V76.1363H516.154V40.1682L521.02 40.1831Z" fill="white"/>
<path d="M133.354 48.349V35.0193H129.209V30.0831H124.943V25.5469H121.09V22.032H117.033V19.2618H112.024V17.0107H91.2987V19.2618H85.7711V22.032H82.0583V25.5469H78.1732V30.0831H73.6817V34.7597H69.9668V56.4873H74.1115V60.7299H78.3434V64.6235H107.448V68.9533H111.765V73.198H107.273V77.6107H96.1349V73.0235H92.1626V68.6937H69.9668V81.9405H74.1115V86.4405H78.4306V90.9448H82.7498V94.4937H86.5477V97.2639H91.7285V99.9469H112.284V97.2639H116.948V94.4937H121.09V90.9448H125.235V86.5299H129.294V82.0278H133.354V61.249H128.346V57.1788H124.114V52.332H96.0477V48.0022H91.8157V43.7597H96.0477V39.1724H107.188V44.1086H111.333V48.349H133.354Z" fill="white"/>
<path d="M179.892 78.2127V73.6319H175.668V69.3128H171.789V39.3234H184.63V31.6319H179.632V26.8766H174.979V23.2468H171.789V9.67871H149.726V23.2468H146.881V26.8766H142.57V31.6319H137.143V39.3234H149.726V76.2255H154.034V81.4106H157.655V86.4234H161.877V91.5234H165.585V95.3234H169.289V98.0915H174.892V99.9042H190.494V78.2127H179.892Z" fill="white"/>
<path d="M239.309 64.2639H244.011V59.5895H247.935V54.3086H250.29V34.8363H247.411V30.5107H243.748V25.9235H239.475V22.2873H234.765V19.5193H230.231V17.0107H216.19V19.5193H212.267V22.2873H207.905V25.9235H203.197V30.5107H199.009V34.7512H194.301V99.9193H215.754V39.1639H230.231V50.7618H225.784V53.8767H219.067V69.3703L232.148 99.9193H254.301L239.309 64.2639Z" fill="white"/>
<path d="M321.506 40.6448V35.1022H317.189V30.4256H312.791V25.749H308.906V22.3873H304.938V19.6065H299.928V17.0107H279.132V19.6086H274.219V22.2044H269.904V25.7533H266.368V30.4278H261.794V35.1044H257.825V40.6469H253.596V40.7341V76.2235V76.315H257.825V81.8533H261.794V86.5342H266.368V91.2086H269.904V94.7576H274.219V97.3554H279.138V99.9512H279.223H299.587H299.934V97.3554H304.938V94.7576H308.906V91.2086H312.796V86.5342H317.196V81.8533H321.513V76.249H325.394V76.1575V40.732V40.6448H321.506ZM299.332 68.6086V73.2873H295.017V77.615H283.979V73.2873H280.006V68.6086H275.347V48.3469H280.006V43.6682H283.979V39.3469H295.017V43.6746H299.332V48.3533H303.647V68.6086H299.332Z" fill="white"/>
</g>
<defs>
<clipPath id="clip0_4_4128">
<rect width="561.702" height="100" fill="white"/>
</clipPath>
</defs>
</svg>
