<svg width="254" height="100" viewBox="0 0 254 100" fill="none" xmlns="http://www.w3.org/2000/svg">
<g clip-path="url(#clip0_4_4253)">
<path d="M248.891 4.06858V17.6555H207.144H203.075V21.724V34.8415V38.9101H207.144H245.074L236.188 50.1089H207.144H203.075V54.1774V80.6572V84.7258H207.144H227.031H237.107H245.067L236.188 95.9314H211.688H191.114H184.392V86.3927V54.1842V50.1157H180.324H170.281L206.803 4.07538H231.303H248.891M182.691 4.06858L148.265 47.469L146.258 50L148.265 52.531L177.133 88.9237L182.691 95.9314H181.677H166.621L141.413 64.1516L138.223 60.1306L135.032 64.1516L109.824 95.9314H93.7539L128.18 52.531L130.187 50L128.18 47.469L93.7539 4.06858H109.831L135.038 35.8484L138.229 39.8694L141.42 35.8484L166.621 4.06858H182.691ZM111.79 0H85.3242L124.989 50L85.3242 100H111.79L138.223 66.6825L164.655 100H181.677H191.114H211.688H237.107H238.155L253.497 80.6572H237.107H227.031H207.144V54.1842H238.155L253.497 34.8415H207.144V21.724H252.959V0H231.303H205.871H204.837L161.858 54.1842H180.324V86.3927L151.456 50L191.114 0H164.648L138.216 33.3175" fill="white"/>
<path d="M40.9374 33.1064C34.5624 33.1064 28.1738 33.1064 21.7852 33.1064C21.7852 34.8346 21.7852 36.5423 21.7852 38.2704C24.1392 38.2704 26.4797 38.2704 28.8405 38.2704C28.8405 47.8431 28.8405 57.3955 28.8405 66.9682C30.521 66.9682 32.2083 66.9682 33.8888 66.9682C33.8888 57.3955 33.8888 47.8431 33.8888 38.2704C36.2429 38.2704 38.5834 38.2704 40.9442 38.2704C40.9374 36.5423 40.9374 34.8278 40.9374 33.1064Z" fill="white"/>
<path d="M15.3967 33.9435C14.7027 33.338 13.7978 33.0454 12.8929 33.0454C11.6955 33.0454 10.4912 33.5489 9.74282 34.5082C8.99442 35.345 8.86515 36.4881 8.53858 37.5154C5.68785 47.3263 2.84392 57.1439 0 66.9548C1.76214 66.9548 3.51068 66.9548 5.26602 66.9548C6.09607 64.1109 6.91251 61.2669 7.74935 58.4366C10.0286 58.4366 12.301 58.4298 14.5734 58.4298C15.7096 58.4298 16.8458 58.4298 17.9888 58.4366C18.8189 61.2805 19.6353 64.1245 20.4586 66.9548C22.2207 66.9548 23.9897 66.9548 25.7518 66.9548C22.7582 56.6609 19.7578 46.3806 16.7642 36.0866C16.5193 35.277 16.0634 34.5082 15.3967 33.9435ZM11.6206 53.6128C10.7906 53.6128 9.96734 53.6128 9.1373 53.606C10.3756 49.3401 11.607 45.0743 12.8589 40.8084C14.104 45.0743 15.3422 49.3401 16.5737 53.606C14.9272 53.606 13.2739 53.6128 11.6206 53.6128Z" fill="white"/>
<path d="M51.198 33.1542C50.885 33.0726 50.5653 33.0317 50.2387 33.0317C48.946 33.0317 47.6669 33.6645 46.9321 34.7258C46.347 35.4947 46.2313 36.4744 45.9388 37.3725C43.0744 47.2309 40.2033 57.0962 37.3594 66.9683C39.1079 66.9683 40.8701 66.9683 42.6186 66.9683C43.435 64.1244 44.2719 61.2941 45.0883 58.4502C48.4901 58.4502 51.9056 58.4502 55.3142 58.4502C56.1442 61.2941 56.9539 64.1244 57.7703 66.9683C59.5393 66.9547 61.3014 66.9683 63.0772 66.9547C60.0904 56.6744 57.0831 46.3941 54.0963 36.1138C53.7289 34.7122 52.6336 33.4808 51.198 33.1542ZM46.4967 53.6196C47.7213 49.3401 48.9664 45.0606 50.2047 40.7947C51.4293 45.0742 52.688 49.3401 53.9126 53.6196C51.4429 53.6196 48.9732 53.6196 46.4967 53.6196Z" fill="white"/>
<path d="M89.8164 66.9682C91.599 66.9682 95.1641 66.9682 95.1641 66.9682V33.1064H89.8164C89.8164 33.1064 89.8164 55.6809 89.8164 66.9682Z" fill="white"/>
<path d="M79.2564 52.8982C80.2497 52.1634 81.3995 51.6736 82.3248 50.8435C84.0734 49.3263 85.0259 47.0539 85.2028 44.7815C85.4613 42.6111 85.3524 40.3047 84.3387 38.3248C82.8691 35.27 79.6442 33.1608 76.2492 33.0996C74.902 33.0996 73.5685 33.1064 72.2214 33.1064C71.5478 33.1064 70.8811 33.1064 70.2075 33.0996C70.1667 33.0996 70.1259 33.0996 70.0851 33.0996C69.6156 33.0996 69.1462 33.1608 68.6971 33.3105C67.0438 33.8344 65.8056 35.4809 65.7852 37.2294C65.7852 47.1491 65.7852 57.0484 65.7852 66.9682C67.4861 66.9682 69.1802 66.9682 70.8811 66.9682C70.8811 57.7628 70.8675 48.5507 70.8811 39.3454C70.8811 38.7602 71.4186 38.25 72.0037 38.25C72.0105 38.25 72.0173 38.25 72.0241 38.25C72.895 38.25 73.7658 38.2568 74.6367 38.2568C75.0721 38.2568 75.5076 38.2568 75.943 38.25C75.9838 38.25 76.0314 38.25 76.0723 38.25C77.9092 38.25 79.6238 39.6719 80.0184 41.4613C80.3586 42.8696 80.4062 44.4549 79.6306 45.7476C78.6304 47.4621 76.8343 48.5439 75.0177 49.2447C74.0652 49.6189 73.2079 50.3264 72.8473 51.3062C72.3915 52.5784 72.5888 54.0548 73.3576 55.1774C75.9566 59.1031 78.542 63.0425 81.1546 66.975C83.1617 66.975 85.1551 66.975 87.1486 66.975C84.4203 62.886 81.6376 58.8242 78.9638 54.7012C78.6849 54.1093 78.7053 53.3064 79.2564 52.8982Z" fill="white"/>
</g>
<defs>
<clipPath id="clip0_4_4253">
<rect width="253.497" height="100" fill="white"/>
</clipPath>
</defs>
</svg>
