<svg width="464" height="100" viewBox="0 0 464 100" fill="none" xmlns="http://www.w3.org/2000/svg">
<g clip-path="url(#clip0_4_4186)">
<path d="M169.097 4.36629C172.916 -0.531956 180.977 -1.49161 185.646 2.76804C187.555 4.36629 188.934 6.70839 189.676 9.05225C198.376 39.2961 207.286 69.6487 215.984 99.8926C210.786 99.8926 205.588 99.8926 200.497 99.8926C198.056 91.4803 195.723 83.1733 193.177 74.7593C183.206 74.7593 173.127 74.7593 163.156 74.7593C160.716 83.1733 158.276 91.4803 155.835 99.8926C150.637 99.8926 145.546 99.8926 140.348 99.8926C148.728 71.033 157.002 42.1716 165.383 13.3119C166.551 10.2224 166.974 6.81541 169.097 4.36629ZM178.22 22.8961C174.507 35.4628 170.9 48.0294 167.293 60.5961C174.613 60.5961 181.827 60.5961 189.146 60.5961C185.434 48.0294 181.827 35.4628 178.22 22.8961Z" fill="white"/>
<path d="M278.044 5.00492C280.694 1.06457 286 -0.852975 290.561 0.425973C294.698 1.38387 297.986 5.00492 299.047 9.15755C307.745 39.4032 316.658 69.754 325.356 99.9997C320.158 99.9997 314.959 99.9997 309.868 99.9997C307.533 91.5856 305.094 83.2786 302.654 74.8663C292.682 74.8663 282.71 74.8663 272.633 74.8663C270.298 83.2786 267.859 91.5856 265.312 99.9997C260.115 99.9997 255.022 99.9997 249.824 99.9997C258.205 70.926 266.586 41.9593 274.966 12.8856C276.028 10.2225 276.345 7.24176 278.044 5.00492ZM276.875 60.5961C284.196 60.5961 291.303 60.5961 298.622 60.5961C295.015 48.0295 291.303 35.4628 287.803 22.8961C283.984 35.4628 280.482 48.0295 276.875 60.5961Z" fill="white"/>
<path d="M204.316 0.318359C222.987 0.318359 241.764 0.318359 260.434 0.318359C260.434 5.43064 260.434 10.5429 260.434 15.5482C253.539 15.5482 246.643 15.5482 239.748 15.5482C239.748 43.6622 239.748 71.778 239.748 99.9991C234.867 99.9991 229.881 99.9991 225.002 99.9991C225.002 71.8833 225.002 43.7692 225.002 15.5482C218.108 15.5482 211.211 15.5482 204.316 15.5482C204.316 10.3289 204.316 5.32362 204.316 0.318359Z" fill="white"/>
<path d="M341.906 0.853242C343.285 0.319908 344.876 0.212891 346.36 0.212891C352.195 0.212891 358.135 0.212891 364.076 0.212891C374.048 0.426926 383.49 6.60412 387.734 15.5497C390.704 21.4059 391.021 28.2217 390.279 34.6111C389.748 41.3217 386.885 48.0304 381.899 52.3971C379.246 54.8462 375.851 56.2304 372.881 58.4673C371.29 59.7445 371.29 62.0883 372.032 63.6848C379.883 75.8252 388.051 87.7532 396.007 99.7866C390.172 99.7866 384.339 99.7866 378.399 99.7866C370.76 88.1796 363.228 76.6778 355.485 65.069C353.257 61.769 352.62 57.4024 353.999 53.6743C355.06 50.7989 357.606 48.669 360.364 47.6041C365.667 45.5813 370.972 42.3866 373.943 37.2743C376.276 33.5462 376.064 28.8603 375.109 24.6006C373.835 19.169 368.639 15.0164 363.228 15.1234C359.409 15.1234 355.59 15.1234 351.771 15.1234C350.074 15.1234 348.376 16.6146 348.376 18.3182C348.376 45.3673 348.376 72.5252 348.376 99.5743C343.39 99.5743 338.404 99.5743 333.418 99.5743C333.418 70.3936 333.418 41.2146 333.418 12.0339C333.418 7.24272 337.025 2.44973 341.906 0.853242Z" fill="white"/>
<path d="M403.859 0.318359C409.058 0.318359 414.361 0.318359 419.559 0.318359C419.559 33.5447 419.559 66.7727 419.559 99.9991C414.361 99.9991 409.058 99.9991 403.859 99.9991C403.859 66.6657 403.859 33.4394 403.859 0.318359Z" fill="white"/>
<path d="M44.2368 0C46.7825 0 49.3281 0 51.7684 0C51.7684 5.85789 51.7684 11.9281 51.7684 17.7842C51.7684 22.6842 51.6632 27.6895 51.4509 32.5877C51.1316 39.7228 50.6018 46.8579 49.5404 53.993C48.6912 58.786 47.1 63.5772 44.9789 68.0509C41.5842 75.293 36.2807 81.3632 30.2333 86.4754C24.8228 91.2667 18.4579 94.6754 11.7754 97.0175C7.95614 98.2965 4.03158 99.3614 0 99.893C0 94.8877 0 89.9895 0 84.9842C4.77368 84.2386 9.44211 82.5351 13.6842 80.2982C18.7772 77.6351 23.3386 74.014 27.2632 69.6491C31.2947 65.1754 34.4772 60.1702 36.8105 54.6316C39.6754 48.3491 41.1596 41.6404 42.2211 34.8246C43.4947 26.1982 44.0246 17.4649 44.2368 8.8386C44.2368 5.96316 44.2368 2.98246 44.2368 0Z" fill="white"/>
<path d="M54.7382 0C59.4066 0 63.968 0 68.6347 0C68.6347 33.3333 68.6347 66.5597 68.6347 99.786C63.968 99.786 59.4066 99.786 54.7382 99.786C54.6329 89.2439 54.7382 78.4877 54.7382 67.9439C54.7382 45.3667 54.7382 22.7895 54.7382 0Z" fill="white"/>
<path d="M71.7109 0C74.2566 0 76.6969 0 79.2425 0C79.1373 10.2228 79.4548 20.3404 80.7285 30.4579C81.6829 38.2316 83.0618 46.2193 86.2443 53.4614C89.2144 60.4895 93.4583 67.093 98.9741 72.4175C104.278 77.5298 110.643 81.3632 117.644 83.6C119.555 84.2386 121.569 84.7702 123.585 84.9842C123.585 89.9895 123.585 94.8877 123.585 99.893C119.555 99.3614 115.736 98.2965 112.021 97.0175C107.567 95.4211 103.218 93.3965 99.1864 90.7351C96.2162 88.8175 93.6706 86.5807 91.018 84.2386C86.8811 80.4053 83.0618 75.9316 80.1969 70.8193C77.9688 66.8789 76.3776 62.7263 75.1057 58.4667C73.939 54.1 73.5145 49.7333 72.9829 45.2614C72.1355 35.6754 71.7109 25.9842 71.8162 16.4C71.7109 10.9684 71.7109 5.5386 71.7109 0Z" fill="white"/>
<path d="M44.2368 0C44.2368 2.98246 44.2368 5.85789 44.2368 8.8386C44.0246 17.5719 43.4947 26.1982 42.2211 34.8246C41.1596 41.5333 39.6754 48.3491 36.8105 54.6316C34.3702 60.0632 31.2947 65.1754 27.2632 69.6491C23.4439 73.9088 18.8825 77.6351 13.6842 80.2982C9.33509 82.6404 4.77368 84.2386 0 84.9842C0 89.9895 0 94.8877 0 99.893C4.03158 99.3614 7.95614 98.2965 11.7754 97.0175C18.4579 94.6754 24.9298 91.1596 30.2333 86.4754C36.1737 81.3632 41.5842 75.293 44.9789 68.0509C46.9947 63.5772 48.6912 58.893 49.5404 53.993C50.707 46.9649 51.1316 39.8298 51.4509 32.6947C51.6632 27.7947 51.7684 22.7895 51.7684 17.8912C51.7684 12.0333 51.7684 5.96316 51.7684 0.107018C49.2228 0 46.6772 0 44.2368 0Z" fill="white"/>
<path d="M54.7383 0C54.7383 22.6842 54.7383 45.3667 54.7383 68.0509C54.7383 78.5947 54.7383 89.3509 54.7383 99.893C59.4067 99.786 63.9681 99.893 68.6348 99.893C68.6348 66.5596 68.6348 33.2263 68.6348 0.107018C63.9681 0 59.4067 0 54.7383 0Z" fill="white"/>
<path d="M71.7112 0C71.7112 5.43158 71.7112 10.8632 71.7112 16.2947C71.6041 25.9842 71.9234 35.5702 72.8778 45.1544C73.4077 49.6263 73.8322 54.1 74.9989 58.3597C76.2726 62.6193 77.8638 66.8789 80.0919 70.714C82.955 75.7193 86.6691 80.1912 90.9112 84.1316C93.4585 86.4754 96.1094 88.7105 99.0796 90.6281C103.111 93.2912 107.46 95.314 111.916 96.9105C115.629 98.1895 119.555 99.2544 123.48 99.786C123.48 94.7807 123.48 89.8825 123.48 84.8772C121.464 84.5579 119.448 84.0246 117.539 83.493C110.643 81.2561 104.173 77.3158 98.8673 72.3105C93.3515 67.093 89.1077 60.4895 86.1375 53.3544C83.062 46.007 81.6831 38.1263 80.6217 30.3509C79.455 20.4474 79.1375 10.2228 79.2427 0.107018C76.6971 0 74.1515 0 71.7112 0Z" fill="white"/>
<path d="M449.452 57.9616C448.264 56.1195 446.431 54.8195 444.38 54.8195C439.415 54.8195 437.148 60.0213 437.148 64.895C437.148 69.7704 439.415 74.9722 444.38 74.9722C446.54 74.9722 448.373 73.7809 449.452 71.8301C450.64 74.5388 452.798 76.0546 455.496 76.0546C460.461 76.0546 463.05 70.423 463.05 64.788C463.05 59.2616 460.461 53.5195 455.496 53.5195C452.906 53.8441 450.747 55.3599 449.452 57.9616ZM446.322 65.1125C446.322 66.3055 445.459 67.388 444.489 67.388C443.517 67.388 442.654 66.4143 442.654 65.1125C442.654 63.9213 443.517 62.8371 444.489 62.8371C445.568 62.7301 446.322 63.8125 446.322 65.1125ZM452.691 65.1125C452.691 63.7037 453.554 62.6195 454.741 62.6195C455.82 62.6195 456.684 63.8125 456.684 65.1125C456.684 66.5213 455.82 67.6037 454.741 67.6037C453.554 67.4967 452.691 66.4143 452.691 65.1125Z" fill="white"/>
<path d="M441.357 30.118C438.552 32.1758 437.148 35.318 437.148 39.0004C437.148 42.6846 438.661 45.7197 441.357 47.8864C443.626 49.6197 446.863 50.5951 450.208 50.5951C456.684 50.5951 463.159 47.0197 463.159 39.0004C463.159 30.9829 456.575 27.4092 450.208 27.4092C446.863 27.4092 443.733 28.3846 441.357 30.118ZM455.496 38.8934C455.496 41.7109 451.934 42.0355 450.208 42.0355C448.482 42.0355 444.92 41.7109 444.92 38.8934C444.92 36.0758 448.482 35.7513 450.208 35.7513C451.934 35.8601 455.496 36.1846 455.496 38.8934Z" fill="white"/>
<path d="M441.357 2.81326C438.552 4.87116 437.148 8.01502 437.148 11.6975C437.148 15.3817 438.661 18.415 441.357 20.5817C443.626 22.315 446.863 23.2887 450.208 23.2887C456.684 23.2887 463.159 19.715 463.159 11.6975C463.159 3.78695 456.575 0.104492 450.208 0.104492C446.863 0.213264 443.733 1.1887 441.357 2.81326ZM455.496 11.6975C455.496 14.515 451.934 14.8396 450.208 14.8396C448.482 14.8396 444.92 14.515 444.92 11.6975C444.92 8.87993 448.482 8.55537 450.208 8.55537C451.934 8.55537 455.496 8.87993 455.496 11.6975Z" fill="white"/>
<path d="M463.05 97.2903V88.0816L437.473 77.1377V99.9991H445.459V89.164L463.05 97.2903Z" fill="white"/>
</g>
<defs>
<clipPath id="clip0_4_4186">
<rect width="463.158" height="100" fill="white"/>
</clipPath>
</defs>
</svg>
