<svg width="606" height="100" viewBox="0 0 606 100" fill="none" xmlns="http://www.w3.org/2000/svg">
<g clip-path="url(#clip0_4_4242)">
<path d="M461.915 63.8854L463.713 65.289C469.99 70.1463 477.544 74.1204 485.618 74.1204C489.072 74.1204 494.576 72.7168 494.576 68.3484C494.576 63.9958 489.971 63.6173 486.77 62.9707L479.72 61.6933C466.016 59.2647 454.503 51.1903 454.503 36.0822C454.503 13.1679 475.383 0.362305 496.374 0.362305C507.381 0.362305 517.506 3.04327 526.984 8.81523L517.506 33.5274C511.482 29.4271 504.7 26.2257 497.146 26.2257C494.071 26.2257 489.592 27.377 489.592 31.3511C489.592 34.931 493.945 35.4514 496.626 36.0822L504.574 37.88C519.43 41.2076 530.185 49.1559 530.185 65.5413C530.185 88.5976 509.179 99.9838 488.315 99.9838C476.14 99.9838 462.057 96.6563 451.176 91.1524L461.915 63.8854Z" fill="white"/>
<path d="M531.824 1.89258H605.582V28.9861L586.248 29.0334V98.4546H551.159V29.0334L531.824 28.9861V1.89258Z" fill="white"/>
<path d="M44.3621 0.220876C46.8854 0.205106 49.4086 0.220876 51.9161 0.220876C51.9319 6.15054 51.9161 12.0644 51.9161 17.9941C51.9476 22.946 51.8057 27.8821 51.6007 32.8183C51.2695 39.9465 50.8122 47.1062 49.6294 54.1556C48.8251 59.0129 47.1377 63.7124 45.056 68.1597C41.6496 75.3352 36.3034 81.4068 30.2949 86.5164C24.9172 91.2475 18.4987 94.7013 11.7489 97.0353C7.9325 98.3284 4.00568 99.3535 0 99.9055C0 94.9378 0 89.9701 0 85.0025C4.82574 84.277 9.44646 82.5738 13.7518 80.3029C18.8614 77.6062 23.4506 73.979 27.3143 69.6894C31.3042 65.2737 34.4898 60.1483 36.9027 54.7233C39.7414 48.4783 41.2711 41.7285 42.3119 34.9788C43.6051 26.3997 44.1571 17.7102 44.3463 9.03652C44.3779 6.10323 44.3621 3.15417 44.3621 0.220876Z" fill="white"/>
<path d="M54.9751 0.220849C59.6115 0.189308 64.248 0.220849 68.8845 0.205078C68.8845 33.4333 68.8845 66.6615 68.8845 99.9054C64.2638 99.9212 59.6273 99.8897 55.0066 99.9212C54.9435 89.3235 54.9908 78.7258 54.9751 68.1281C54.9751 45.4976 54.9908 22.8671 54.9751 0.220849Z" fill="white"/>
<path d="M71.9762 0.220703C74.4837 0.220703 76.9912 0.220703 79.4987 0.220703C79.4199 10.3453 79.7668 20.5014 80.9654 30.5787C81.9589 38.4008 83.3467 46.2702 86.4692 53.5561C89.4183 60.6055 93.6763 67.1502 99.2275 72.4333C104.526 77.4798 110.945 81.3593 117.915 83.5987C119.855 84.2138 121.858 84.7026 123.877 85.0023C123.877 89.97 123.877 94.9376 123.877 99.9053C119.902 99.3691 116.007 98.344 112.207 97.0509C107.696 95.4738 103.328 93.4394 99.3063 90.8373C96.373 88.9449 93.7078 86.7055 91.153 84.3399C86.9423 80.4446 83.1575 76.0289 80.3188 71.0297C78.1109 67.1344 76.4866 62.9238 75.2249 58.6184C74.0579 54.2974 73.5691 49.8343 73.1117 45.4029C72.2443 35.8145 71.9132 26.1788 71.9762 16.5431C71.9762 11.1023 71.9762 5.66149 71.9762 0.220703Z" fill="white"/>
<path d="M169.595 4.33686C173.474 -0.630806 181.501 -1.48241 186.264 2.68097C188.204 4.32109 189.576 6.57626 190.27 9.02067C199.085 39.3313 207.933 69.6262 216.717 99.9369C211.513 99.9369 206.324 99.9212 201.12 99.9369C198.675 91.5786 196.278 83.2046 193.85 74.8462C183.804 74.8305 173.742 74.8462 163.697 74.8305C161.237 83.1888 158.808 91.5629 156.395 99.9369C151.222 99.9212 146.05 99.9369 140.877 99.9211C149.251 71.014 157.641 42.1069 166.046 13.1998C167.04 10.1877 167.419 6.79704 169.595 4.33686ZM178.773 22.8986C175.083 35.4518 171.471 48.0366 167.813 60.5898C175.114 60.6214 182.416 60.6056 189.718 60.6056C186.075 48.0524 182.432 35.4676 178.773 22.8986Z" fill="white"/>
<path d="M279.104 4.98346C281.816 1.05664 287.052 -0.851578 291.657 0.362742C295.883 1.34051 299.1 4.96769 300.22 9.06799C309.02 39.3471 317.851 69.6263 326.651 99.9054C321.447 99.9527 316.243 99.9054 311.039 99.9212C308.61 91.5629 306.229 83.1888 303.784 74.8147C293.754 74.8147 283.724 74.799 273.679 74.8305C271.281 83.2046 268.806 91.5471 266.408 99.9212C261.236 99.9212 256.079 99.9212 250.922 99.9212C259.28 70.8564 267.749 41.8073 276.186 12.7583C277.069 10.1404 277.4 7.2544 279.104 4.98346ZM277.842 60.6214C285.112 60.6372 292.382 60.6214 299.668 60.6214C296.041 48.0208 292.366 35.4361 288.755 22.8513C285.128 35.4361 281.453 48.0208 277.842 60.6214Z" fill="white"/>
<path d="M205.078 0.205078C223.892 0.205078 242.69 0.205078 261.489 0.205078C261.489 5.28314 261.489 10.3454 261.489 15.4235C254.566 15.4235 247.642 15.4077 240.719 15.4235C240.719 43.5894 240.719 71.7553 240.719 99.9212C235.767 99.9212 230.8 99.9212 225.848 99.9212C225.848 71.7553 225.848 43.5894 225.848 15.4235C218.925 15.4077 212.001 15.4235 205.078 15.4235C205.078 10.3454 205.078 5.28314 205.078 0.205078Z" fill="white"/>
<path d="M343.196 0.835578C344.631 0.346696 346.145 0.173222 347.659 0.204762C353.589 0.220533 359.518 0.204762 365.448 0.220533C375.43 0.409777 384.956 6.60754 389.277 15.5809C392.273 21.4159 392.573 28.1972 391.816 34.6C391.295 41.3024 388.488 48.0048 383.331 52.452C380.619 54.8807 377.228 56.3473 374.311 58.5079C372.718 59.7222 372.623 62.0877 373.459 63.7909C381.329 75.9341 389.513 87.9039 397.541 99.9367C391.658 99.9524 385.792 99.9209 379.909 99.9524C372.213 88.3927 364.612 76.7857 356.948 65.2103C354.692 61.9143 354.077 57.5616 355.434 53.7925C356.49 50.9065 359.014 48.8091 361.805 47.7052C367.167 45.655 372.45 42.4536 375.415 37.3913C377.67 33.5907 377.56 28.9069 376.534 24.7435C375.352 19.35 370.084 15.1078 364.533 15.2812C360.685 15.3128 356.853 15.2655 353.021 15.297C351.286 15.2497 349.646 16.7637 349.677 18.5299C349.662 45.655 349.693 72.7801 349.662 99.9209C344.662 99.9051 339.679 99.9209 334.68 99.9209C334.664 70.7141 334.696 41.5074 334.664 12.3006C334.696 7.20681 338.339 2.38108 343.196 0.835578Z" fill="white"/>
<path d="M405.393 0.205078C410.644 0.205078 415.896 0.205078 421.163 0.205078C421.163 33.449 421.179 66.693 421.147 99.9212C415.896 99.9054 410.644 99.9212 405.393 99.9212C405.393 66.693 405.393 33.449 405.393 0.205078Z" fill="white"/>
</g>
<defs>
<clipPath id="clip0_4_4242">
<rect width="605.583" height="100" fill="white"/>
</clipPath>
</defs>
</svg>
