<svg width="755" height="100" viewBox="0 0 755 100" fill="none" xmlns="http://www.w3.org/2000/svg">
<g clip-path="url(#clip0_4_4231)">
<path d="M593.8 74.1963L523.377 99.6649H594.248L621.211 84.8277L593.8 74.1963Z" fill="white"/>
<path d="M528.039 0.692383H611.696L723.099 57.0124H679.405L648.696 42.9324L629.75 50.6152L528.039 0.692383Z" fill="white"/>
<path d="M683.845 26.4952L754.285 1.03809H683.413L656.465 15.8667L683.845 26.4952Z" fill="white"/>
<path d="M749.634 100.001H665.965L554.562 43.6807H598.257L628.965 57.7607L647.908 50.0778L749.634 100.001Z" fill="white"/>
<path d="M55.4543 0.0107422H0V67.5936H55.4543V0.0107422Z" fill="white"/>
<path d="M142.103 75.8682H0V96.5596H142.103V75.8682Z" fill="white"/>
<path d="M90.1113 0.0107422H155.974L201.037 37.9307L168.466 61.7622L90.1113 0.0107422Z" fill="white"/>
<path d="M173.307 65.5165V96.5536H225.295V65.5165L325.804 0.0107422H277.284L176.775 65.5165H173.307Z" fill="white"/>
<path d="M332.746 10.3486L388.195 44.8315V96.5543H332.746V10.3486Z" fill="white"/>
<path d="M339.674 0.0114286L481.785 96.5543H512.974V0H485.94V67.9029L384.734 0.0114286H339.674Z" fill="white"/>
</g>
<defs>
<clipPath id="clip0_4_4231">
<rect width="754.286" height="100" fill="white"/>
</clipPath>
</defs>
</svg>
