<svg width="464" height="100" viewBox="0 0 464 100" fill="none" xmlns="http://www.w3.org/2000/svg">
<g clip-path="url(#clip0_4_4152)">
<path d="M169.122 4.33945C172.981 -0.623846 180.969 -1.47201 185.704 2.692C187.64 4.33091 188.997 6.59295 189.69 9.02804C198.457 39.3495 207.262 69.6562 216.015 99.9838C210.843 99.9892 205.667 99.9745 200.494 99.9892C198.054 91.6286 195.672 83.254 193.263 74.8856C183.258 74.8654 173.259 74.881 163.256 74.8763C160.806 83.24 158.388 91.6131 155.983 99.9923C150.838 99.9753 145.693 99.9892 140.547 99.9838C148.875 71.0584 157.213 42.1345 165.581 13.2161C166.578 10.1889 166.954 6.80791 169.118 4.33635M178.253 22.9177C174.584 35.4788 170.99 48.0639 167.343 60.632C174.614 60.667 181.881 60.6452 189.149 60.6452C185.513 48.0686 181.895 35.4935 178.251 22.9177H178.253Z" fill="white"/>
<path d="M278.103 4.99192C280.799 1.0607 286.011 -0.846707 290.599 0.367733C294.8 1.34006 298.012 4.97873 299.123 9.07601C307.88 39.3757 316.668 69.6645 325.424 99.9666C320.243 100.007 315.066 99.9666 309.885 99.9875C307.476 91.6199 305.094 83.2438 302.668 74.8762C292.681 74.8808 282.696 74.8591 272.708 74.8839C270.322 83.257 267.86 91.6114 265.474 99.9844C260.333 99.9898 255.196 99.9798 250.055 99.9898C258.378 70.9054 266.799 41.8457 275.191 12.7783C276.065 10.1477 276.408 7.25473 278.099 4.98649M276.841 60.6428C284.082 60.6521 291.319 60.6474 298.559 60.6474C294.957 48.0444 291.297 35.4592 287.706 22.857C284.088 35.4538 280.436 48.039 276.841 60.6428Z" fill="white"/>
<path d="M204.437 0.215794H260.578V15.4363C253.686 15.4417 246.8 15.4285 239.912 15.4417C239.912 43.6214 239.918 71.8026 239.908 99.983H225.103C225.103 71.8049 225.099 43.6237 225.107 15.4417C218.216 15.4285 211.328 15.4417 204.437 15.4363C204.437 10.3581 204.429 5.28851 204.437 0.211914V0.215794Z" fill="white"/>
<path d="M341.882 0.835333C343.304 0.34102 344.821 0.172628 346.324 0.207548C352.224 0.2285 358.125 0.212981 364.025 0.216085C373.962 0.400773 383.447 6.59791 387.747 15.5894C390.725 21.428 391.031 28.218 390.281 34.6232C389.763 41.3278 386.966 48.0332 381.839 52.4781C379.131 54.9031 375.758 56.3737 372.859 58.5348C371.267 59.7516 371.186 62.1199 372.01 63.8139C379.841 75.9677 387.982 87.932 395.979 99.9817C390.131 99.9918 384.283 99.9686 378.434 99.9918C370.779 88.4333 363.203 76.8166 355.579 65.241C353.338 61.9461 352.728 57.5834 354.071 53.8237C355.118 50.9393 357.625 48.8302 360.418 47.7414C365.748 45.6967 371.004 42.4856 373.956 37.4268C376.202 33.6268 376.085 28.9382 375.076 24.7796C373.891 19.3802 368.659 15.1331 363.129 15.3186C359.304 15.3442 355.482 15.3015 351.663 15.3357C349.934 15.2953 348.307 16.8062 348.33 18.5669C348.312 45.7075 348.338 72.8497 348.321 99.9887C343.349 99.9786 338.38 99.9887 333.408 99.9833C333.398 70.7661 333.417 41.5466 333.398 12.3287C333.398 7.2125 337.017 2.39354 341.853 0.839212L341.882 0.835333Z" fill="white"/>
<path d="M403.793 0.21582H419.486C419.482 33.4744 419.496 66.7276 419.477 99.9838C414.252 99.9691 409.023 99.9838 403.793 99.9792V0.218924V0.21582Z" fill="white"/>
<path d="M44.2578 0.0120674C46.7705 0.00430737 49.2846 0.0120674 51.7973 0.00585938C51.8081 5.94692 51.7973 11.8887 51.8011 17.8283C51.8274 22.7877 51.6876 27.7463 51.4839 32.6987C51.1473 39.8535 50.7019 47.0214 49.5232 54.0938C48.7134 58.9694 47.036 63.672 44.9541 68.1363C41.5592 75.3306 36.2244 81.4176 30.2272 86.5376C24.8615 91.2836 18.4584 94.7392 11.7233 97.078C7.91305 98.3965 3.99242 99.4138 0 99.9795C0.00385965 94.9976 0.00385965 90.0118 0 85.0298C4.80603 84.3051 9.42603 82.5901 13.718 80.3242C18.8096 77.6175 23.3941 73.9765 27.2514 69.686C31.2361 65.255 34.4111 60.1257 36.8218 54.6789C39.6594 48.4166 41.1786 41.653 42.2107 34.8785C43.5052 26.2704 44.044 17.5598 44.2447 8.85769C44.2733 5.9151 44.2486 2.96475 44.2578 0.0182754V0.0120674Z" fill="white"/>
<path d="M54.832 0.0220952C59.4574 -0.00816876 64.0867 0.0174392 68.7136 0.00890324C68.7152 33.3311 68.7152 66.6557 68.7136 99.9825C64.0975 99.9926 59.4798 99.9608 54.8637 100C54.805 89.3746 54.8552 78.7465 54.839 68.1215C54.8336 45.422 54.8482 22.7247 54.832 0.0259752V0.0220952Z" fill="white"/>
<path d="M71.8005 0.00866487C74.3 0.00711287 76.7987 0.00245687 79.2967 0.0102169C79.2156 10.1704 79.5599 20.3499 80.7649 30.4442C81.7506 38.2849 83.1417 46.183 86.2471 53.4883C89.1928 60.5553 93.4377 67.1249 98.9693 72.4195C104.252 77.4837 110.653 81.3769 117.608 83.618C119.549 84.2419 121.534 84.7308 123.551 85.0264C123.548 90.0068 123.546 94.9872 123.551 99.966C119.587 99.4259 115.7 98.3993 111.918 97.1064C107.413 95.5312 103.056 93.4911 99.0542 90.8744C96.1325 88.9848 93.4762 86.7243 90.9235 84.3668C86.7172 80.4674 82.9518 76.0342 80.1242 71.0165C77.9118 67.1086 76.2985 62.8856 75.0348 58.578C73.8762 54.2487 73.3821 49.7766 72.9329 45.3271C72.0629 35.7101 71.7379 26.0458 71.8005 16.3931C71.8051 10.9324 71.8035 5.4686 71.8051 0.00866487H71.8005Z" fill="white"/>
<path d="M44.2578 0.01164C44.2493 2.95889 44.274 5.90846 44.2447 8.85726C44.044 17.5593 43.506 26.2692 42.2107 34.8781C41.1786 41.6526 39.6587 48.4162 36.8218 54.6785C34.4111 60.1276 31.2361 65.2554 27.2514 69.6856C23.3941 73.9784 18.8096 77.6171 13.718 80.3238C9.42603 82.592 4.80603 84.3054 0 85.0294C0.00385965 90.0113 0.00385965 94.9971 0 99.9791C3.99242 99.4134 7.91305 98.396 11.7233 97.0776C18.4584 94.7387 24.8615 91.2832 30.2272 86.5372C36.2244 81.4171 41.5592 75.3302 44.9541 68.1359C47.0352 63.6716 48.7134 58.969 49.5232 54.0934C50.7019 47.0217 51.1481 39.853 51.4839 32.6983C51.6876 27.7459 51.8274 22.7872 51.8011 17.8278C51.7973 11.8829 51.8081 5.94106 51.7973 0C49.2839 0.006208 46.7705 -0.002328 44.2578 0.006208" fill="white"/>
<path d="M54.832 0.0213794C54.8482 22.7225 54.8336 45.4174 54.8398 68.1185C54.8567 78.7442 54.8058 89.3724 54.8645 99.9966C59.4806 99.9547 64.0975 99.9873 68.7144 99.9795C68.716 66.6573 68.716 33.3335 68.7144 0.00585938C64.0867 0.0174994 59.4574 -0.00966063 54.832 0.0213794Z" fill="white"/>
<path d="M71.8037 0.00878906C71.8022 5.46873 71.8037 10.9325 71.8037 16.3925C71.7412 26.0459 72.0662 35.7094 72.9362 45.3264C73.3854 49.776 73.8794 54.2473 75.0381 58.5774C76.3018 62.8842 77.9151 67.108 80.1274 71.0151C82.9543 76.0327 86.7205 80.4668 90.9267 84.3662C93.4795 86.7237 96.1357 88.9842 99.0575 90.8722C103.059 93.4904 107.416 95.5305 111.921 97.1058C115.703 98.3986 119.59 99.4253 123.554 99.9654C123.549 94.9858 123.552 90.0062 123.554 85.0258C121.536 84.7309 119.552 84.2413 117.612 83.6174C110.656 81.3755 104.254 77.4831 98.9726 72.4189C93.4409 67.1243 89.1961 60.5554 86.2504 53.4876C83.1449 46.1823 81.7539 38.2842 80.7681 30.442C79.5632 20.3493 79.2189 10.1697 79.2999 0.00956506C76.7881 0.00801306 74.2886 0.0126691 71.7891 0.0149971" fill="white"/>
<path d="M459.305 81.5607H462.543V99.9969L447.291 87.5033C445.861 86.3285 444.089 84.965 442.206 84.965C439.231 84.965 436.784 87.6174 436.784 90.5685C436.784 93.4847 439.116 95.8694 441.978 96.0595V99.6182C436.931 99.051 433.543 95.7561 433.543 90.5685C433.543 85.724 437.121 81.5576 442.054 81.5576C444.164 81.5576 446.273 82.3538 447.892 83.6769L459.305 93.0673L459.296 81.5638L459.305 81.5607Z" fill="white"/>
<path d="M435.28 65.2404L445.523 72.8507L445.601 72.7754C445.185 71.9404 444.923 70.996 444.923 69.9725C444.923 65.2792 449.254 61.7197 453.812 61.7197C459.007 61.7197 463.152 65.9606 463.152 71.1473C463.152 76.068 459.084 80.651 454.077 80.651C451.213 80.651 448.804 79.2123 446.58 77.5478L433.551 67.8152L435.282 65.2404H435.28ZM454.184 65.1264C450.644 65.1264 448.082 68.1551 448.082 71.183C448.082 74.2886 450.908 77.2421 453.995 77.2421C457.273 77.2421 459.984 74.4415 459.984 71.183C459.984 68.0022 457.355 65.1264 454.184 65.1264Z" fill="white"/>
<path d="M433.548 46.2073C433.548 54.3832 440.217 61.0335 448.413 61.0335C456.545 61.0335 463.159 54.3832 463.159 46.2073C463.159 37.7962 456.656 31.2041 448.355 31.2041C440.046 31.2041 433.543 37.7962 433.543 46.2073H433.548ZM448.417 34.7093C454.834 34.7093 459.857 39.841 459.857 46.3904C459.857 52.5325 454.726 57.5291 448.417 57.5291C442.044 57.5291 436.86 52.5325 436.86 46.3904C436.86 39.73 441.827 34.7093 448.42 34.7093H448.417Z" fill="white"/>
<path d="M433.548 15.034C433.548 23.2076 440.217 29.8587 448.413 29.8587C456.545 29.8587 463.159 23.2076 463.159 15.034C463.159 6.62064 456.656 0.0292969 448.355 0.0292969C440.046 0.0292969 433.543 6.62064 433.543 15.034H433.548ZM448.417 3.53449C454.834 3.53449 459.857 8.66385 459.857 15.2148C459.857 21.3577 454.726 26.3543 448.417 26.3543C442.044 26.3543 436.86 21.3577 436.86 15.2148C436.86 8.55599 441.827 3.53449 448.42 3.53449H448.417Z" fill="white"/>
</g>
<defs>
<clipPath id="clip0_4_4152">
<rect width="463.158" height="100" fill="white"/>
</clipPath>
</defs>
</svg>
