<svg width="287" height="100" viewBox="0 0 287 100" fill="none" xmlns="http://www.w3.org/2000/svg">
<g clip-path="url(#clip0_4_4202)">
<path d="M44.8989 45.3688C46.2684 41.2709 47.4945 37.1253 48.7728 32.9959C49.0891 31.9775 49.3847 30.9546 49.6891 29.9329C49.7282 29.7112 50.8532 25.7688 51.2815 23.9959C51.7945 21.8742 52.3456 19.7459 52.6021 17.5862C52.7597 16.2481 53.3467 15.5579 54.5 15.2025C55.1717 14.9949 55.5434 14.6503 56.2402 14.5992C56.8119 14.5579 57.2097 14.4133 57.4739 13.8872C57.6978 13.4405 58.2761 13.1644 58.575 12.7677C58.7967 12.472 59.0782 12.122 59.4011 12.0242C60.3239 11.7449 61.3097 11.6557 62.2228 11.3525C63.375 10.9699 64.7076 10.6949 65.5456 9.92094C66.4032 9.12746 67.2 8.69703 68.3065 8.61225C69.3326 8.5329 70.2239 8.13616 70.5543 7.06007C70.7598 6.39268 71.2684 6.09268 71.7837 5.76116C72.2543 5.66442 72.5152 5.47638 72.5728 4.91007C72.6304 4.34377 70.5097 4.66007 70.3695 4.51768C69.7174 3.85246 69.7804 3.72094 70.6391 3.39594C71.1989 3.18399 71.813 3.1166 72.4021 2.98507C72.7597 2.8992 73.1184 2.81333 73.4739 2.72855C74.3217 2.61768 75.1674 2.49812 76.0152 2.39812C77.4858 2.2242 78.9587 2.07529 80.425 1.88507C80.7684 1.84051 81.1369 1.73507 81.4184 1.54594C81.6782 1.37094 82.0348 0.758986 82.0445 0.460073C82.0532 0.16116 81.4641 -0.00840483 81.1826 0.00137778C80.0098 0.0405082 78.8326 0.12203 77.6706 0.287247C75.863 0.544856 74.063 0.86116 72.2663 1.19268C70.7684 1.46986 69.2815 1.80464 67.7902 2.11225C67.5804 2.13725 64.8891 2.76551 64.6967 2.82094C64.1195 2.95899 63.5434 3.09594 62.9663 3.2329L62.838 3.25138C62.2739 3.35138 61.7098 3.45138 61.1456 3.55138C59.3945 3.91551 57.6467 4.29594 55.8924 4.63725C54.9413 4.82203 53.9674 5.05899 53.0206 5.26225C51.6706 5.55138 50.3467 5.80464 48.9934 6.06986C45.9978 6.6579 42.9913 7.18616 39.9891 7.73942C39.7011 7.7492 29.3293 9.59486 23.8119 9.7579C22.5326 9.79486 21.2489 9.77312 19.9652 9.76225C19.5217 9.75899 19.1674 9.8329 19.025 10.3438C18.8434 10.9992 18.9934 11.2122 19.7521 11.5144C20.0934 11.6503 20.375 11.9394 20.6826 12.1579C20.3282 12.3981 19.9967 12.6938 19.6087 12.8546C19.3434 12.9655 18.9978 12.8644 18.6956 12.9079C18.4532 12.9427 18.1804 12.9992 17.9934 13.1416C17.1815 13.7601 17.4304 14.4916 18.6184 15.0351C20.1956 15.7568 20.288 16.0949 19.3054 17.5231C19.1163 17.6536 18.7358 17.7753 18.7358 17.9144C18.7369 18.0525 19.0761 18.2383 19.2761 18.2959C19.4456 18.3449 19.6587 18.2383 19.8532 18.2003C20.1119 18.4872 20.4597 18.7351 20.6097 19.0709C20.9282 19.7818 21.3902 20.0655 22.1728 20.0036C24.3576 19.8329 26.5663 19.8492 28.7293 19.5351C30.9902 19.2068 33.1847 18.4883 35.4847 18.2851C37.363 18.1188 39.2228 17.7514 41.0924 17.4753C41.5967 17.4014 41.888 17.5938 41.8706 18.1329C41.8467 18.8514 41.9119 19.6144 41.7837 20.284C41.6565 20.9525 41.2641 23.1764 40.9087 24.7449C40.438 26.822 39.7543 29.1633 39.7413 29.2851C39.5337 30.0014 39.3271 30.7166 39.1195 31.434C38.4217 33.6199 36.7793 39.0829 36.6456 39.6264C36.0337 42.122 33.3804 48.5264 32.9967 49.3546C32.1141 51.2612 31.2261 53.1775 30.1587 54.9807C29.1054 56.759 27.8282 58.4057 26.6456 60.1057C25.7358 61.4144 23.4228 63.7025 23.3924 63.7362C19.9424 67.6807 16.0271 68.5199 15.9369 68.5514C13.3717 69.4405 10.9228 69.4209 8.40757 68.1449C7.27388 67.5699 6.06844 67.0644 5.08475 66.2872C4.03257 65.4568 2.89127 64.3872 1.92497 63.5231C1.63475 63.2633 1.42931 62.8916 1.03149 62.6818C0.44127 62.3742 0.0325744 62.6405 0.00322657 63.3231C-0.00981691 63.6199 0.0119222 63.9699 0.157574 64.2133C1.2641 66.0775 2.4967 67.8688 4.35649 69.0459C6.16301 70.1872 8.8891 71.4905 10.7021 72.2209C12.5141 72.9503 13.9597 73.4416 15.3597 73.7285C16.7597 74.0144 19.125 74.4144 21.1011 73.8275C23.0782 73.2416 25.2684 72.3372 28.3217 69.8405C31.375 67.3427 37.5011 60.3329 39.8619 55.9764C40.8771 54.1036 41.7924 52.1764 42.7119 50.2536C43.4771 48.6492 44.3304 47.0568 44.8934 45.3731L44.8989 45.3688Z" fill="white"/>
<path d="M135.944 50.2812V50.2853L135.939 50.2903L135.944 50.2812Z" fill="white"/>
<path d="M83.2088 13.4522L82.2773 13.2163L82.2414 13.2065C82.1795 12.3457 82.1425 11.4826 82.0447 10.6261C81.9914 10.1609 82.1631 9.52826 81.4034 9.42174L81.3968 9.43043C80.9142 9.02826 79.8686 9.35109 79.8686 9.35109C79.8686 9.35109 78.8175 9.54674 78.6045 10.1C77.9512 10.1848 77.3001 10.3337 76.6468 10.3413C74.4349 10.3663 74.4414 10.35 73.6305 12.3989C73.5273 12.6609 73.3131 12.8772 73.1501 13.1141C72.9653 12.9011 72.6653 12.7109 72.6186 12.4707C72.4642 11.6696 71.9501 11.513 71.2675 11.5717C70.5936 11.6293 70.586 12.1261 70.4447 12.6533C70.1044 13.9283 69.7675 15.2663 68.6425 16.113C67.2849 17.1348 66.7425 18.5891 66.2968 20.1239C65.961 21.2859 65.8381 22.55 64.7142 23.3402C64.5566 23.4511 64.4077 24.2098 64.4566 24.3087C63.5001 25.5902 60.5621 29.9413 60.1327 30.8043C59.6631 31.7478 59.099 32.6913 58.8805 33.7011C58.7012 34.5337 58.4664 35.238 57.8805 35.8326C56.7425 36.4576 57.0153 37.575 56.9316 38.5674C56.7403 38.875 56.5479 39.1859 56.3566 39.4946C56.2142 39.6989 56.0718 39.9043 55.9284 40.1098C55.8566 40.187 55.7849 40.2652 55.7121 40.3424C55.5186 40.5674 55.4914 40.8511 55.1305 41.0196C54.7708 41.187 53.5088 41.6435 52.6751 41.8804C51.4099 42.238 51.1371 42.412 51.1773 43.0946C51.2338 44.0261 51.9284 44.0565 52.6175 44.1C53.1936 44.1359 53.3142 44.4913 53.099 44.9533C52.4316 46.388 51.774 47.8326 51.0425 49.2348C49.3175 52.5413 45.7099 59.4043 45.6642 59.5467C45.3349 60.3815 45.0055 61.2163 44.6762 62.0522L44.6686 62.3728C44.5381 62.5543 44.4055 62.7359 44.274 62.9163C44.2012 63.037 44.1262 63.1576 44.0523 63.2783C44.0305 63.3804 44.0088 63.4826 43.9871 63.5848C43.624 64.2543 43.0838 64.888 42.9414 65.6033C42.7827 66.3967 42.4936 67.0772 41.9881 67.637C40.9208 68.8228 41.3088 70.1152 41.6045 71.4098C41.7001 71.8283 42.0653 71.8728 42.2903 71.6011C42.6751 71.1424 43.0034 70.6196 43.274 70.0826C43.5675 69.4978 43.7371 68.8489 44.0305 68.263C44.1153 68.0924 44.4566 67.9359 44.6479 67.9674C44.7838 67.9913 44.9936 68.3783 44.9468 68.5402C44.7838 69.1152 44.5066 69.6587 44.3164 70.2283C44.2675 70.3717 44.2892 70.7033 44.4164 70.7456C44.5436 70.788 44.8447 70.6511 44.9045 70.5293C45.2805 69.7489 45.5979 68.9402 45.9621 68.1533C46.6023 66.7717 47.2534 65.3957 47.924 64.0293C47.9947 63.888 48.2631 63.7141 48.3729 63.7511C48.5142 63.7989 48.6197 64.0348 48.6849 64.2087C48.736 64.3446 48.7262 64.5152 48.7023 64.6641C48.4392 66.2554 48.1653 67.8435 47.9034 69.4326C47.8892 69.5185 47.9468 69.6924 47.9762 69.6946C48.1121 69.7 48.3251 69.7033 48.3718 69.6239C48.5175 69.3761 48.6055 69.0913 48.7066 68.8185C49.1621 67.5913 49.2566 66.1859 50.5121 65.3598C50.736 65.212 50.9447 64.8467 50.9436 64.5848C50.9381 63.4413 53.5979 57.738 53.9142 57.1283L53.9218 57.1217C54.1718 56.4913 57.1664 50.3217 57.7555 48.7413C57.8273 48.5457 58.7827 46.4489 58.8479 46.363C59.2697 45.4402 59.6914 44.5152 60.1121 43.5913C60.749 43.2783 61.3664 42.9163 62.0251 42.6587C65.3838 41.3522 73.2686 38.1065 73.661 38.2022C73.6653 38.3011 73.6686 39.0598 73.6729 39.1609C73.6795 39.3674 73.6871 39.575 73.6947 39.7815C73.6892 41.2076 73.6577 42.6337 73.686 44.0598C73.7099 45.1848 73.9947 48.8489 73.9099 49.5413C73.7773 50.6283 73.7338 51.6446 74.2229 52.6946C74.6773 53.6685 74.8708 54.75 74.5664 55.8456L74.5447 55.8783C74.5392 56.2935 74.5327 56.712 74.5262 57.1293V57.1315C74.6012 57.8891 74.5947 58.6435 75.2088 59.2609C75.6305 59.6848 75.9523 59.8207 76.3034 59.2913C76.5577 58.912 76.7077 58.9706 76.9773 59.2717C77.6631 60.0402 78.0447 60.8663 77.849 61.9391C77.7849 62.2891 77.9436 62.7174 78.1077 63.0587C78.1979 63.2478 78.3512 63.5957 78.7197 63.463C79.0881 63.3304 79.0534 62.9772 79.0827 62.7185C79.1414 62.213 79.0653 61.6913 79.1153 61.1837C79.1599 60.738 79.2501 60.2815 79.4218 59.8717C79.5208 59.6337 79.7958 59.4152 80.0425 59.3207C80.1305 59.287 80.4012 59.6174 80.5295 59.8185C80.6892 60.075 80.7392 60.4098 80.9229 60.6413C81.3642 61.1989 81.9751 61.0967 82.1784 60.4207C82.3077 59.988 82.3653 59.5141 82.3534 59.0609C82.3012 57.1641 82.136 55.2674 82.1555 53.3728C82.1936 49.5739 82.3295 45.7739 82.4175 41.9761C82.5045 38.2272 82.5653 34.4793 82.6708 30.7315C82.7023 29.6087 82.9121 28.4891 82.9229 27.3674C82.9555 23.7163 83.2827 20.0957 83.8599 16.4924C84.0316 15.4207 83.8458 14.4043 83.2708 13.4717L83.2142 13.4641L83.2088 13.4522ZM72.1392 33.5783C71.5251 33.8304 70.8686 33.9826 70.2534 34.2337C69.9947 34.3391 69.4088 34.7533 69.4088 34.7533C69.4088 34.7533 69.1642 35.0446 69.0925 35.1391C68.6501 35.3522 68.2055 35.7435 67.7631 35.7424C66.6555 35.738 65.9055 36.212 65.3403 37.0978C65.2034 37.3141 65.1045 37.5717 64.9229 37.7413C64.7958 37.8609 64.5371 37.9435 64.3795 37.8989C64.2381 37.8576 64.049 37.6087 64.0631 37.4685C64.1045 37.0185 64.1534 36.5435 64.3371 36.1402C65.0816 34.513 65.8338 32.8859 66.6642 31.3022C67.9729 28.8076 69.3468 26.3467 70.6925 23.8717C70.9153 23.4652 71.0784 23.0315 71.7251 23.2076C71.9447 23.2674 72.261 23.0587 72.5012 22.9174C72.7316 22.7804 72.9186 22.5728 73.124 22.3978C73.1762 22.6957 73.2708 22.9946 73.2718 23.2935C73.2827 26.1239 73.2458 28.9565 73.2925 31.7859C73.3121 32.7054 72.9284 33.2576 72.1436 33.5783H72.1392Z" fill="white"/>
<path d="M141.67 11.0097C141.361 10.8934 141.052 10.7749 140.746 10.6586C140.745 10.5825 140.721 10.5162 140.673 10.4618C140.659 10.4477 141.595 9.31183 141.063 8.76075C140.92 8.64879 140.121 8.37161 139.977 8.25966C139.906 7.81183 139.822 7.36509 139.764 6.91401C139.669 6.18901 139.227 6.00966 138.581 6.13031C138.372 6.27922 138.163 6.42705 137.953 6.57596L137.862 6.57379L136.886 6.49662C136.183 6.7064 136.464 7.08031 135.762 7.29009C135.602 7.40748 135.442 7.52379 135.283 7.64118C134.802 8.04988 134.465 8.28248 133.877 9.09879C133.289 9.91509 132.613 11.2466 132.203 11.9868C131.795 12.726 130.112 17.1184 130.084 17.1727C129.949 17.2966 127.137 23.5314 126.209 25.6216C125.486 27.2477 124.536 29.1966 123.829 31.1564C123.123 33.1162 122.445 36.1042 122.286 36.289C122.233 36.4238 122.179 36.5597 122.126 36.6955L121.916 37.3194C121.888 37.5238 121.862 37.7281 121.834 37.9336C121.634 39.0564 121.333 40.5923 121.119 41.2781C120.903 41.9629 120.442 42.7368 120.182 43.4988C119.969 44.952 119.721 46.401 119.555 47.8607C119.428 48.9781 119.404 50.1075 119.336 51.2314C119.379 51.639 119.424 52.0444 119.469 52.4542C119.673 53.1803 119.72 53.526 120.083 54.6347C120.446 55.7434 121.974 56.7825 121.974 56.7825C123.779 57.7988 126.822 57.7955 128.192 56.8542C129.563 55.9129 130.503 55.2825 131.095 54.7629C131.685 54.2444 134.671 51.8684 136.085 50.289C137.498 48.7086 138.029 47.9499 138.447 47.5314C138.658 48.2607 138.453 48.8944 138 49.4716C137.904 49.7488 137.808 50.026 137.71 50.302C137.635 51.5629 137.5 52.8227 137.496 54.0836C137.49 55.7781 138.166 59.3336 139.93 59.6412C141.695 59.9488 141.985 59.9597 143.025 59.4292C143.835 59.0173 144.76 58.8053 145.654 58.5999C146.301 58.4531 146.521 58.764 146.237 59.3814C145.915 60.0792 145.545 60.7575 145.155 61.4216C143.605 64.077 142.066 66.7379 140.484 69.376C139.854 70.4249 140.212 70.5683 141.064 70.5803C141.217 70.5836 140.911 71.4368 140.936 71.7205C141.017 72.6249 141.458 72.8966 142.207 72.3738C142.645 72.0662 142.977 71.5781 143.287 71.1238C143.6 70.6629 143.8 70.1238 144.112 69.6618C144.17 69.5749 144.641 69.6097 144.721 69.727C144.919 70.0129 144.615 70.701 145.274 70.5803C145.586 70.5238 145.835 70.0716 146.094 69.7836C146.263 69.5912 146.387 69.3607 146.551 69.164C146.825 68.8303 147.086 68.7064 147.37 69.189C147.659 69.6836 148.084 69.5749 148.385 69.2368C148.86 68.701 149.339 68.1466 149.677 67.5238C150.575 65.8586 151.421 64.1618 152.245 62.4586C152.544 61.8412 152.867 61.3803 153.632 61.5803C154.274 61.7488 154.55 61.451 154.754 60.8727C155.045 60.0499 155.364 59.2292 155.779 58.4662C157.151 55.9542 158.574 53.4694 159.972 50.9727C161.096 48.9651 162.211 46.9499 163.327 44.939C163.928 43.8553 164.398 42.6825 165.124 41.6716C166.077 40.3466 167.916 40.0694 168.488 40.1292C169.059 40.189 169.67 39.8434 169.933 39.576C170.196 39.3107 170.259 39.3455 170.632 39.1042C171.004 38.8629 171.244 38.664 171.423 38.5336C171.6 38.4031 174.338 37.3194 174.914 36.7553C176.024 35.6673 177.74 35.0336 179.273 34.9118C179.417 35.6194 179.455 36.3857 179.463 37.1064C179.477 38.7249 179.444 40.3455 179.432 41.9629C179.421 42.176 179.409 42.389 179.398 42.601C178.98 43.6401 179.426 44.5803 179.698 45.5564C179.827 46.0173 179.961 46.6042 179.79 47.0031C179.225 48.3097 179.491 49.639 179.52 50.9586C179.53 51.4814 179.734 52.0151 180.437 51.9434C181.017 51.8857 181.105 52.1923 181.145 52.6738C181.221 53.5923 181.36 54.5064 181.475 55.4227C181.583 56.2847 181.67 57.152 181.814 58.0097C181.89 58.464 182.077 58.8216 182.61 59.026C183.474 59.3586 183.501 59.4999 183.074 60.3694C182.833 60.8618 182.583 61.2944 183.078 61.7499C183.9 62.5031 183.935 63.3194 183.316 64.2162C182.946 64.7553 183.011 65.1988 183.716 65.3564C184.312 65.4912 184.35 65.9803 184.413 66.4205C184.465 66.7694 184.396 67.1347 184.37 67.4923C184.337 67.9749 184.495 68.3075 185.03 68.3184C185.499 68.3292 185.622 68.027 185.642 67.614C185.754 65.3618 185.846 63.1107 186.011 60.864C186.08 59.9053 186.486 57.6357 186.499 57.451C186.595 56.5118 186.877 54.1977 186.925 53.9814C187.02 51.514 187.242 45.2031 187.382 42.8825C187.522 40.5618 188.253 29.677 188.302 28.0401C188.247 27.9347 189.658 17.6977 190.133 15.3749C190.609 13.0521 190.579 10.9607 190.522 10.7216C190.464 10.4825 189.452 10.2042 188.889 10.1107C187.759 9.92596 186.61 9.85748 185.466 9.74118C184.723 9.6477 184.875 8.73466 184.812 8.57379C184.751 8.41292 182.33 7.71835 181.846 7.97162C181.361 8.22488 181.245 10.5673 181.128 11.6499C180.826 12.1673 180.527 12.6857 180.226 13.2042C180.004 13.4053 179.783 13.6097 179.56 13.8118C179.473 13.9031 179.382 13.9934 179.295 14.0836C178.698 14.4586 178.102 14.8336 177.507 15.2075C176.655 16.1184 175.805 17.027 174.952 17.9379C174.897 17.9988 174.461 18.5466 174.337 18.7118C173.874 19.351 172.787 20.739 172.776 20.8488C172.607 21.0836 172.435 21.3173 172.263 21.551C172.263 21.551 171.879 21.6999 171.822 21.8053C171.092 23.1368 170.38 24.4803 169.664 25.8205C169.664 25.8205 169.149 26.0694 168.874 26.2031C168.637 26.3879 168.4 26.5727 168.163 26.7564C168.067 26.7879 166.595 28.7184 165.81 29.5423C165.648 29.7129 165.356 30.3173 165.359 30.414C164.304 30.8531 164.437 32.5162 164.283 32.7129C164.127 32.9107 163.415 33.2423 163.23 33.5879C162.695 34.5934 162.05 36.3738 161.803 36.6977C161.559 37.0227 161.187 37.3466 160.951 37.5673C160.795 37.6292 160.64 37.6923 160.483 37.7553C159.808 37.8249 159.495 38.6944 159.407 38.877C159.317 39.0597 159.084 39.0944 158.923 39.2031C158.808 39.2825 158.691 39.3618 158.574 39.4434L158.592 39.4249C158.357 39.527 158.122 39.6314 157.887 39.7336C156.405 40.6325 154.923 41.5227 153.454 42.4423C153.328 42.5205 153.211 42.8434 153.273 42.9586C153.79 43.9531 153.467 44.739 152.735 45.4521C152.673 45.5118 152.627 45.702 152.649 45.7162C152.766 45.7944 152.934 45.9129 153.039 45.8781C153.671 45.6694 154.282 45.3999 154.915 45.1999C155.137 45.1314 155.559 45.1205 155.616 45.2303C155.736 45.4542 155.746 45.7977 155.67 46.0553C155.589 46.3357 155.364 46.577 155.197 46.8325C154.611 47.7303 153.092 49.7444 152.978 49.8999C152.14 51.0542 151.327 52.2292 150.483 53.3803C149.988 54.0575 149.442 54.4151 148.669 53.8227C148.11 53.3934 147.577 52.927 147.033 52.4803C146.995 52.1662 146.957 51.8542 146.917 51.5401C147.137 50.3444 147.199 49.1531 147.763 47.9901C148.557 46.3575 149.039 44.5727 149.639 42.8466C150.295 40.9651 150.933 39.077 151.574 37.1912C151.901 36.2292 152.223 35.2607 152.534 34.2912C153.616 32.1292 154.713 29.9738 155.771 27.801C156.328 26.6586 156.817 25.4847 157.338 24.3238C157.426 24.2988 157.461 24.2412 157.447 24.152C158.401 22.301 159.434 20.4847 160.269 18.5814C160.574 17.8814 160.533 16.9553 160.41 16.1716C160.351 15.7999 159.74 15.4977 159.353 15.1988C158.941 14.8803 158.947 14.5977 159.226 14.1618C159.794 13.2705 159.71 12.7216 159.099 11.9868C158.614 11.401 157.975 11.3118 157.295 11.3401C156.436 11.3727 155.621 11.3618 154.75 11.114C154.035 10.9107 153.02 10.5836 152.379 11.526L152.317 11.5879C152.075 12.0227 148.262 18.6597 148.051 19.001L146.973 20.6597C146.697 21.0749 147.332 21.7401 147.195 22.0716C147.057 22.4031 146.723 21.9097 146.198 22.4357C146.164 22.4466 145.736 23.9662 145.382 25.3618C145.352 25.4792 145.813 25.602 145.782 25.726C145.756 25.826 145.238 26.2564 145.212 26.3607C144.949 27.3977 144.654 28.2368 144.374 29.3162C144.323 29.514 144.436 29.5444 144.386 29.7357C144.337 29.9227 144.124 29.777 144.077 29.9553C143.81 30.9618 143.575 32.2879 143.424 32.7162C143.382 32.8401 143.503 32.9618 143.461 33.0857C143.4 33.2564 143.177 33.427 143.119 33.5988C142.408 35.652 141.734 37.714 141.114 39.7966C141.059 39.9357 141.003 40.0781 140.946 40.2162C140.445 40.8912 139.942 41.5651 139.441 42.239C139.152 42.4966 138.863 42.752 138.575 43.0075C138.576 43.064 138.575 43.1205 138.571 43.1716C138.575 43.1194 138.576 43.064 138.575 43.0075C138.352 43.2629 138.13 43.5184 137.914 43.7749C137.767 43.8934 137.621 44.014 137.473 44.1325C137.373 44.1575 137.312 44.2205 137.291 44.3227C137.175 44.4434 137.06 44.564 136.944 44.6847C136.942 44.6716 136.945 44.6618 136.942 44.6499C136.599 44.9944 136.256 45.339 135.912 45.6847C135.771 45.8097 135.629 45.9347 135.489 46.0586C135.316 46.2401 135.145 46.4194 134.973 46.5999C134.881 46.6336 134.429 47.0629 134.233 47.1955C134.142 47.2423 134.042 47.276 133.963 47.3347C131.687 49.0575 129.412 50.7803 127.139 52.5053C126.958 52.5651 126.961 52.5792 126.598 52.6868C126.233 52.7944 125.19 52.6434 125.158 52.1988C125.123 51.7542 125.499 49.1999 125.897 47.701C126.7 44.6825 127.76 41.7934 129.181 39.0227C129.731 37.9488 130.27 36.476 130.746 35.7564C131.221 35.0379 132.177 33.7575 132.517 33.0716C132.858 32.3857 133.041 31.0879 133.498 30.1966C134.334 28.5673 135.284 26.9912 136.263 25.4401C136.899 24.4325 137.434 23.4477 137.557 22.2129C137.637 21.3825 137.98 20.5488 138.172 20.2651C138.363 19.9825 138.845 19.5684 138.939 19.3836C139.561 18.1629 140.138 16.9184 140.729 15.6825C140.729 15.6825 141.96 13.7053 142.434 12.6542C142.915 11.5738 142.865 11.551 141.665 10.9966M138.552 43.2694C138.55 43.2792 138.549 43.2923 138.547 43.3031C138.552 43.2923 138.552 43.2803 138.552 43.2694ZM148.058 18.9847L148.11 19.0542L148.06 18.9934V18.9847H148.058ZM178.823 24.1412C178.53 24.9314 178.263 25.6499 178.334 26.4999C178.366 26.8912 178.236 27.3042 178.132 27.6934C177.996 28.202 177.67 28.4575 177.109 28.4053C175.632 28.2705 174.61 29.077 173.685 30.0923C173.483 30.314 173.247 30.5542 172.976 30.6564C172.413 30.8662 171.816 30.989 171.236 31.1477C171.36 30.6249 171.425 30.077 171.625 29.5825C171.91 28.8803 172.209 28.1564 172.65 27.5499C174.3 25.2781 176.011 23.051 177.712 20.8184C178.463 19.8336 178.334 20.8042 178.69 20.889C178.789 20.9129 179.063 20.4194 179.161 20.4499C179.286 20.4912 179.325 20.6162 179.382 20.7227C179.435 20.8205 179.476 20.9238 179.508 21.0314C179.582 21.2847 179.602 21.5531 179.588 21.8162C179.561 22.351 179.357 22.8434 179.157 23.3325C179.039 23.602 178.917 23.8694 178.817 24.1412H178.823Z" fill="white"/>
<path d="M216.197 40.3813C216.663 40.5345 217.731 40.815 218.506 41.0084C219.467 41.2508 220.311 41.6541 220.992 42.4204C221.869 43.4095 222.82 44.3345 223.731 45.2943C223.937 45.5095 224.17 45.7313 224.288 45.9965C225.065 47.7584 226.048 49.2976 228.011 49.9563C228.424 50.0932 228.76 50.4682 229.118 50.7487C229.388 50.9617 229.614 51.2367 229.902 51.4226C231.101 52.1997 232.337 52.9204 233.515 53.7291C234.35 54.303 235.111 54.9867 235.905 55.6204C236.015 55.7052 236.123 55.7878 236.231 55.8704C236.945 56.503 237.662 57.1345 238.377 57.7671C242.614 62.0063 246.697 66.4302 251.959 69.4769C252.369 69.7291 252.781 69.9834 253.191 70.2367C253.476 70.4074 253.759 70.5769 254.041 70.7476C254.281 70.9269 254.517 71.1074 254.755 71.2867C255.98 72.2084 257.234 73.0954 258.424 74.0595C260.412 75.6726 262.352 77.3411 264.327 78.9671C264.919 79.4552 270.572 83.2737 271.201 83.7128C271.262 83.7552 272.938 84.2117 271.616 83.0889C270.764 82.365 266.725 79.8987 266.686 79.8639C265.53 78.8617 264.042 78.0476 262.9 77.0291C261.374 75.6704 259.872 74.2867 258.362 72.9084C256.559 71.2606 255.032 69.2856 252.76 68.1932C252.497 68.0671 252.237 67.8302 252.095 67.5758C251.022 65.6487 249.291 64.3269 247.711 62.8954C246.625 61.9095 245.253 61.2465 244.076 60.3498C242.573 59.2063 241.136 57.9748 239.669 56.7824C239.537 56.6443 239.404 56.5041 239.272 56.3661C238.618 55.7693 237.966 55.1726 237.314 54.578C236.169 53.7313 235.035 52.8693 233.875 52.0443C233.379 51.6932 232.818 51.4324 232.303 51.1041C232.131 50.9932 231.74 50.8052 232.203 50.59C232.945 50.2411 232.492 50.0389 232.151 49.778C230.081 48.1932 228.062 46.5661 226.335 44.5802C225.689 43.8389 224.699 43.3998 223.872 42.8161C223.585 42.6128 223.273 42.4215 223.044 42.1628C221.899 40.8693 221.249 39.1715 219.765 38.1498C219.615 38.0465 219.532 37.8084 219.478 37.6161C219.428 37.4432 219.464 37.2498 219.462 37.065C219.643 37.0824 219.891 37.0302 220.001 37.1291C220.539 37.6041 221.025 38.1324 221.554 38.6139C221.848 38.8802 222.168 39.2454 222.516 39.2943C223.192 39.39 223.637 39.5998 223.899 40.2834C224.007 40.565 224.437 40.7302 224.732 40.9291C225.578 41.5008 226.453 42.0302 227.27 42.6411C227.73 42.9856 228.076 43.4411 228.738 43.028C228.866 42.9487 229.237 43.0737 229.374 43.2193C231.037 45.0226 232.668 46.8541 234.328 48.6617C235.076 49.4758 235.689 50.4302 236.763 50.9204C237.342 51.1845 237.918 51.5443 238.368 51.9889C239.164 52.7802 239.909 53.6334 240.591 54.5258C241.368 55.5476 242.319 56.253 243.568 56.5519C243.898 56.7943 244.231 57.0356 244.562 57.2791C245.009 57.615 245.456 57.9519 245.902 58.2867C247.085 59.1693 248.268 60.053 249.45 60.9367C249.656 61.1139 249.865 61.2889 250.073 61.465C250.189 61.5606 250.303 61.6584 250.419 61.7552C250.61 61.9063 250.802 62.0584 250.992 62.2095C251.092 62.2704 251.192 62.3313 251.292 62.3921C252.724 63.5421 254.172 64.6726 255.58 65.8454C257.469 67.4182 259.314 69.0421 261.211 70.603C262.626 71.7682 264.219 72.7171 265.425 74.1356C265.586 74.3248 265.824 74.5291 266.051 74.565C266.424 74.6215 266.954 74.6965 267.177 74.4943C267.553 74.1519 267.204 73.7748 266.898 73.4682C266.36 72.9258 265.691 72.4345 265.368 71.778C265.061 71.1508 264.662 70.7921 264.073 70.5921C261.659 69.7693 259.945 67.9867 258.15 66.3161C256.617 64.89 255.084 63.4639 253.552 62.0378C253.12 61.6324 252.69 61.2269 252.26 60.8226C252.161 60.7258 252.062 60.628 251.964 60.5324C251.726 60.2932 251.489 60.0541 251.253 59.8139C251.087 59.6269 250.919 59.44 250.753 59.253C250.152 58.7117 249.587 58.1182 248.94 57.64C247.959 56.9161 246.863 56.3411 245.919 55.5758C244.982 54.8161 244.019 54.0052 243.349 53.0258C242.536 51.8345 241.714 50.8237 240.236 50.5204C239.95 50.4606 239.711 50.2117 239.442 50.065C238.016 49.2867 237.07 47.9834 236.023 46.8171C235.004 45.6824 234.137 44.4117 233.203 43.2019C233.087 43.0878 232.97 42.9726 232.855 42.8584C232.341 42.1704 231.905 41.4008 231.295 40.8095C230.46 39.9976 229.494 39.3182 228.582 38.5845C227.749 37.9161 227.739 37.5628 228.654 36.9813C229.166 36.6541 229.791 36.5128 230.304 36.1878C233.467 34.1867 236.507 32.0345 238.689 28.8965C239.343 27.8204 240.122 26.7976 240.628 25.6563C241.556 23.5671 241.684 21.3682 241.506 19.0639C241.327 16.7508 240.494 14.8498 239.043 13.1356C239.03 13.0345 238.282 12.3008 238.205 12.2182C237.915 11.9258 237.247 11.3574 235.374 9.92149C233.501 8.48454 230.842 7.0628 228.51 6.75736C226.176 6.45084 222.957 6.92693 221.553 7.05519C221.318 7.07584 221.02 7.20301 220.884 7.38127C220.231 8.23127 219.241 8.36606 218.328 8.67041C217.567 8.65301 216.804 8.60301 216.044 8.62801C215.251 8.65519 214.457 8.75519 213.665 8.82367C213.379 8.84106 212.629 8.9378 212.541 8.96714C212.176 9.02801 210.878 9.3378 210.642 9.41606C209.248 10.0519 205.299 11.5421 204.48 11.865C203.664 12.1878 203.32 12.1824 202.193 12.4215C201.713 12.5237 201.155 12.8802 200.655 13.1878L200.492 13.3106C199.949 13.5878 199.406 13.8671 198.861 14.1443C198.566 14.3226 198.272 14.5008 197.977 14.6791C197.456 14.9052 196.935 15.1334 196.412 15.3595C196.219 15.44 195.779 15.5248 195.506 15.6878C195.234 15.853 194.514 16.5443 194.43 16.9052C194.347 17.2671 194.293 17.5139 194.225 17.8182C194.154 18.0617 194.085 18.3052 194.013 18.5476L193.961 18.665C193.799 19.0454 193.215 19.2128 192.875 19.3574C192.407 19.5574 191.81 19.7258 191.409 20.0465C191.04 20.3421 190.973 20.8182 190.805 21.2345C190.677 21.5498 190.711 22.0443 190.851 22.3498C190.988 22.6487 191.572 23.1998 191.887 23.2487C192.249 23.303 192.794 23.34 192.969 23.4128C193.143 23.4856 193.67 24.0671 193.637 24.3106C193.604 24.5541 193.795 25.1802 194.291 25.3541C194.645 25.4128 195.001 25.4704 195.356 25.5302C195.715 25.5454 196.074 25.5606 196.434 25.5758C196.518 25.6737 196.604 25.7704 196.689 25.8661C196.844 26.34 197.097 26.6671 197.664 26.5237C198.078 26.5248 198.857 26.6911 199.681 26.5182C200.505 26.3465 200.91 26.0639 201.485 25.7606C202.101 25.4345 202.668 25.0171 203.256 24.64C203.598 24.3671 203.989 24.2487 203.957 24.8508C203.892 26.0813 203.589 27.2661 202.909 28.3204C202.862 28.4313 202.816 28.5432 202.772 28.6541C202.455 30.3095 198.776 39.4867 198.285 41.3345C197.792 43.1845 197.315 45.0965 197.176 45.4258C197.144 45.5606 197.115 45.6932 197.084 45.8269C196.884 46.4595 196.642 47.0845 196.503 47.7291C196.412 48.1519 196.174 49.1758 196.494 49.0237C197.501 48.5508 196.851 49.6389 195.947 50.253C195.405 50.2889 193.925 53.6237 193.743 55.3541C193.632 56.4193 192.92 57.978 193.192 58.4106C193.247 58.4987 193.44 58.6845 193.33 58.7291C192.597 59.0269 192.073 62.0552 192.073 62.0552C192.073 62.0552 192.315 62.1878 192.194 62.3095C192.073 62.4324 192.057 62.4628 191.974 62.5367C191.826 62.6845 191.005 64.39 190.851 64.7834C190.787 64.8976 190.019 66.4595 189.924 66.6443C189.388 67.4019 189.207 69.3432 189.407 70.2965C189.541 70.9269 189.673 70.1769 189.686 70.8247C189.689 70.978 189.65 71.0693 189.65 71.215C189.651 71.5215 189.836 73.2976 190.095 73.4161C190.578 73.6389 190.613 73.1161 190.769 72.8258C190.817 72.7389 190.895 72.6693 190.961 72.5921C190.931 72.4813 191.399 71.9835 191.499 71.9291C191.6 71.9628 191.047 73.5019 191.428 73.3976C191.811 73.2954 192.937 69.5041 193.064 69.2248C193.285 68.803 193.505 68.3824 193.726 67.9606C193.916 67.903 194.105 67.8454 194.294 67.7878C194.49 67.8465 194.685 67.9041 194.877 67.9628C194.944 68.065 195.011 68.1693 195.078 68.2715C195.082 68.5726 195.049 68.8791 195.106 69.1693C195.135 69.3182 195.322 69.4356 195.436 69.5682C195.556 69.4334 195.677 69.3019 195.798 69.1661C195.893 68.9367 195.982 68.7063 196.079 68.4769C197.103 66.0519 198.128 63.6269 199.149 61.2019C199.372 60.6715 199.503 60.1063 199.737 59.5802C199.775 59.4932 200.575 58.2193 200.714 58.4356C200.82 58.5998 200.999 58.7563 201.016 58.9291C201.043 59.2258 200.919 59.54 200.957 59.8345C200.985 60.0465 201.149 60.3769 201.294 60.403C201.477 60.4345 201.764 60.2541 201.9 60.0813C202.117 59.8052 202.315 59.478 202.406 59.1411C202.609 58.3693 203.912 51.5748 205.45 44.9421C206.957 38.4389 209.024 31.4791 209.235 31.4791C209.709 31.4791 209.931 31.2519 210.019 30.8237C210.229 29.8932 210.44 28.9628 210.65 28.0324C210.761 27.6541 210.869 27.2769 210.977 26.8987C211.085 26.6574 211.192 26.415 211.299 26.1726C211.615 25.5878 211.909 24.9889 212.252 24.4226C212.527 23.9693 212.847 23.803 213.054 24.4889C213.209 25.0008 213.55 25.0889 213.781 24.6443C214.294 23.6574 214.861 22.6519 215.099 21.5856C215.273 20.8019 215.638 20.4215 216.262 20.128C219.964 18.3911 223.593 18.5487 227.141 20.5715C228.606 21.4084 229.236 22.5748 228.882 23.978C228.56 25.2704 228.08 26.4987 227.243 27.5834C226.087 29.0845 224.993 30.6378 223.91 32.1943C223.014 33.4791 220.803 33.6932 219.665 32.5845C219.115 32.0476 218.552 31.5171 217.943 31.0519C217.419 30.6498 216.689 30.803 216.517 31.3476C216.352 31.8682 216.195 32.4498 216.751 32.9041C217.311 33.3584 217.912 33.7802 218.375 34.3193C218.637 34.6237 218.806 35.1671 218.731 35.5454C218.679 35.8106 218.155 36.1345 217.822 36.1617C217.17 36.215 216.503 36.0487 215.841 36.0345C215.507 36.0258 215.01 36.0389 214.862 36.2421C214.532 36.6954 214.019 37.3019 213.992 37.8856C213.947 38.6248 215.778 40.2389 216.188 40.3748L216.197 40.3813Z" fill="white"/>
<path d="M266.834 84.1386C265.213 83.168 263.57 82.2375 261.947 81.2712C260.909 80.6517 259.759 80.1408 258.896 79.3289C254.943 75.6115 251.1 71.7756 247.162 68.0441C245.648 66.6093 244.083 65.2169 242.003 64.5658C241.085 64.2788 240.214 63.8006 239.377 63.3125C238.87 63.0158 238.337 62.6093 238.051 62.118C236.939 60.2028 235.12 59.0517 233.494 57.6897C231.576 56.2288 230.415 53.9462 228.203 52.8017C228.027 52.7115 227.874 52.5506 227.75 52.3897C226.294 50.4854 224.731 48.6854 222.931 47.0854C221.076 45.4365 219.528 43.4506 217.375 42.1288C216.867 41.818 216.474 41.306 216.064 40.8517C216.019 40.8017 215.12 39.9365 214.547 39.6125C213.972 39.2875 212.636 38.9473 211.668 38.6506C210.471 38.2821 209.975 38.6288 209.79 39.9082C209.724 40.3647 209.689 40.8299 209.692 41.2908C209.695 42.2473 209.852 42.393 210.848 42.5288C211.247 42.5843 211.769 42.5419 212.016 42.7756C212.633 43.3636 213.319 43.3408 214.027 43.2267C214.737 43.1115 215.137 43.3973 215.567 43.9484C216.38 44.9897 217.188 46.0995 218.223 46.881C219.549 47.8821 220.592 49.1256 221.745 50.2767C223.082 51.6082 224.203 53.1484 225.985 54.0234C226.65 54.3506 227.066 55.1908 227.595 55.7984C228.128 56.4104 228.573 57.1408 229.208 57.6104C230.23 58.3691 231.376 58.9571 232.471 59.6169C232.867 59.9332 233.271 60.2397 233.656 60.5691C234.466 61.268 235.383 61.8865 236.033 62.7136C236.597 63.431 237.141 63.9115 238.038 64.1919C238.944 64.4767 239.839 64.9843 240.57 65.5952C242.851 67.5038 245.059 69.4984 247.281 71.4788C248.807 72.8397 250.232 74.3245 252.33 74.8517C252.785 74.9647 253.177 75.3886 253.568 75.706C254.432 76.4104 255.278 77.1365 256.132 77.8528C256.375 78.0397 256.62 78.2267 256.863 78.4136C256.928 78.4919 256.985 78.5832 257.063 78.6462C259.513 80.6604 262.327 82.181 264.657 84.3702C265.1 84.7854 266.019 84.5984 266.499 85.0484C273.948 92.0343 274.107 90.4375 274.363 90.3191C274.217 90.1158 267.02 84.2462 266.826 84.1299L266.834 84.1386Z" fill="white"/>
<path d="M255.166 82.7683C254.921 82.0313 254.41 81.702 253.899 81.3422C253.237 80.8748 252.487 80.5335 251.785 80.1216C250.783 79.5302 249.717 79.0259 249.293 77.7737C249.177 77.4389 248.764 77.0292 248.435 76.9737C247.026 76.7313 246.272 75.2216 244.787 75.1487C244.604 75.14 244.439 74.8009 244.26 74.6237C243.897 74.265 243.5 73.9368 243.17 73.552C242.43 72.6824 241.162 72.3368 240.777 71.0944C240.723 70.9172 240.287 70.8226 240.012 70.7618C238.541 70.4346 237.345 69.7107 236.793 68.2563C236.395 67.2074 235.629 66.4933 234.914 65.6987C234.31 65.0259 233.639 64.7216 232.755 64.8357C232.025 64.9302 231.471 64.7118 231.123 63.9933C230.975 63.6868 230.65 63.4661 230.407 63.2052C230.071 62.8205 229.736 62.4357 229.401 62.052C229.316 61.9357 229.232 61.8183 229.147 61.7031C229.141 61.602 229.101 61.5172 229.03 61.4476C228.887 60.5574 228.462 59.8607 227.66 59.4183C226.405 58.3737 225.076 57.4031 223.91 56.265C222.335 54.7292 220.819 53.1368 220.298 50.8357C220.142 50.1487 219.587 49.4563 219.034 48.9824C218.108 48.1889 217.083 47.4802 216.012 46.8987C214.406 46.027 212.848 45.0074 210.992 44.6879C210.407 44.5879 209.808 44.3542 209.4 44.9911C209.137 45.402 209.464 45.6857 209.807 45.9324C210.01 46.0781 210.258 46.2531 210.487 46.2553C211.564 46.2672 212.024 46.9987 212.302 47.8487C212.681 49.0129 213.41 49.5476 214.627 49.715C215.623 49.852 216.691 50.215 217.044 51.3302C217.662 53.2802 218.987 54.6596 220.527 55.8509C221.952 56.9553 223.195 58.2096 224.252 59.6629C224.46 59.9476 224.657 60.2585 224.924 60.477C225.986 61.3389 227.072 62.1716 228.15 63.0139C228.259 63.115 228.367 63.215 228.476 63.3172C228.786 63.6281 229.098 63.94 229.408 64.2509C230.222 65.7433 231.472 66.6498 233.125 67.0107C233.338 67.0944 233.555 67.1781 233.769 67.2607C234.138 67.5792 234.544 67.8639 234.871 68.2226C235.446 68.8531 235.936 69.5629 236.526 70.177C236.947 70.615 237.468 70.9574 237.951 71.3357C239.605 72.6335 241.231 73.9726 242.925 75.2139C244.651 76.4781 246.46 77.6313 248.211 78.8629C249.004 79.4205 249.783 80.0096 250.495 80.6618C251.704 81.765 252.886 82.8759 254.369 83.6237C254.973 83.9302 255.483 84.4248 256.034 84.8335C256.13 84.8455 263.209 89.6379 263.884 90.2172C264.279 90.5563 267.152 92.3987 269.769 94.4226C271.623 95.8585 273.211 97.5053 274.304 98.2422C279.248 101.578 277.379 99.1411 277.536 99.1607C277.395 98.9444 259.201 85.6955 259.061 85.4792C258.566 84.9716 255.372 83.3781 255.169 82.7694L255.166 82.7683Z" fill="white"/>
<path d="M201.179 61.5615C200.791 61.5615 200.385 61.8441 200.029 62.0767C199.888 62.1691 199.833 62.4322 199.789 62.6278C199.659 63.2235 199.56 63.8257 199.436 64.4235C199.265 65.2463 199.385 66.1626 198.529 66.7507C198.144 67.0159 198.374 67.3985 198.632 67.6757C198.954 68.0202 199.336 67.9398 199.544 67.6061C199.946 66.9615 200.309 66.28 200.601 65.5778C201.007 64.6039 201.562 63.0985 201.731 62.4887C201.898 61.8844 201.361 61.5648 201.179 61.5648V61.5615Z" fill="white"/>
<path d="M98.1867 59.4925C100.379 60.4066 102.857 60.6773 105.304 60.1718C106.312 59.9642 106.543 59.8946 108.178 58.9305C109.814 57.9664 110.931 55.6468 111.265 55.5251C111.6 55.4044 112.645 55.3457 112.966 55.6175C113.155 55.7762 113.658 56.4338 114.291 56.9251C114.924 57.4175 114.296 57.3707 114.775 58.037C115.253 58.7044 115.938 57.974 115.95 58.3066C115.962 58.6392 116.21 58.9066 116.752 58.9044C117.296 58.9033 117.182 56.7849 117.068 55.5599C116.956 54.8523 116.706 52.1077 116.757 51.5077C116.808 50.9088 116.976 49.8816 117.086 49.0675C117.045 48.0175 117.965 44.5555 118.114 43.8077C118.046 43.7044 118.767 41.7175 119.186 39.7849C119.606 37.8523 119.921 35.5566 119.943 34.8414C119.986 33.724 120.195 31.8414 120.069 31.4881C119.943 31.1327 119.256 31.2783 118.996 31.4229C118.738 31.5686 118.863 31.6631 118.795 31.7838L118.783 31.8349C118.733 31.8273 118.689 31.8403 118.655 31.8892C117.696 32.0577 117.199 31.0968 116.819 30.9544C116.44 30.812 116.168 30.7805 115.706 30.8533C115.245 30.9262 113.537 32.636 112.717 33.0196C111.899 33.4044 109.141 34.6392 108.19 34.4979C108.11 34.5762 108.014 34.6033 107.904 34.5794C107.537 34.961 107.199 35.6327 106.794 35.6751C104.813 35.886 103.679 37.361 102.291 38.4642C102.049 38.7805 101.705 39.062 101.58 39.4196C101.207 40.4892 100.804 41.1773 99.7291 41.7446C99.6693 41.7762 99.6171 41.9414 99.6476 41.9881C99.6932 42.0577 99.8128 42.112 99.903 42.1153C100.583 42.1381 101.391 41.5555 101.391 41.5555C101.391 41.5555 104.737 40.1153 106.402 39.3794C107.123 39.0599 107.801 38.8773 108.589 39.2577C108.889 39.4033 109.352 39.212 109.74 39.174L110.198 38.9088C110.354 38.8686 110.51 38.8273 110.666 38.787L110.956 38.7577C111.167 38.7914 111.38 38.8273 111.593 38.861C111.208 40.0186 111.028 42.0642 110.971 42.4327C110.916 42.8001 110.78 43.0055 110.699 43.299C110.577 43.736 110.44 44.1729 110.374 44.6207C110.158 46.0675 109.871 47.5164 109.813 48.974C109.776 49.8751 110.312 51.2631 110.593 51.5936C110.875 51.924 111.187 52.386 110.701 52.7914C110.213 53.1979 109.835 53.5729 109.402 53.9653C108.861 54.1664 107.794 54.9925 106.227 55.236C104.658 55.4783 103.304 55.4164 101.088 54.424C98.8693 53.4327 97.0682 51.6283 95.8443 50.5186C94.6204 49.4077 92.8313 45.1479 92.7052 43.2196C92.5791 41.2914 92.7617 39.336 92.8204 38.5533C92.8791 37.7707 93.316 35.137 94.0182 33.3175C94.7204 31.499 96.7606 28.9762 97.0443 28.6566C98.1019 27.6316 99.1595 26.6066 100.218 25.5816C101.419 24.6653 103.32 23.0142 106.032 21.5055C106.648 21.2044 110.046 19.2588 112.626 19.0544C113.377 18.9946 114.11 18.6968 114.828 18.4414C115.48 18.2099 115.855 17.749 115.548 17.0131C115.336 16.5055 115.342 16.0142 115.91 15.8729C116.625 15.6946 115.98 14.5914 115.642 14.6696C115.277 14.7544 114.914 14.912 114.393 14.574C113.826 14.2044 113.349 13.4675 113.157 12.5218C113.079 12.1305 113.69 12.1512 113.304 11.6305C112.918 11.112 112.169 11.4338 111.849 11.1707C111.742 11.1327 111.636 11.0957 111.53 11.0577C111.13 11.0066 110.732 10.9566 110.333 10.9066C110.271 10.8512 110.208 10.7957 110.146 10.7403C109.746 10.2653 109.282 10.2099 108.653 10.262C106.793 10.4153 105.088 11.1305 103.305 11.5555C102.669 11.7794 102.032 12.0033 101.395 12.2273C101.117 12.4457 100.85 12.6773 100.562 12.8783C99.8139 13.4044 99.0563 13.9175 98.303 14.436C98.2106 14.5327 98.1182 14.6294 98.0258 14.7262L97.9975 14.7631C97.7595 15.0686 97.5215 15.3729 97.2834 15.6794C97.2106 15.774 97.1399 15.8686 97.0693 15.962C96.8628 16.1642 96.6573 16.3664 96.4508 16.5675C96.341 16.6664 96.2312 16.7653 96.1226 16.8642C95.9356 16.9827 95.7497 17.1001 95.5628 17.2186L95.5443 17.2381C95.4269 17.4381 95.3095 17.637 95.191 17.8381L95.1715 17.9588C95.0095 18.1262 94.8476 18.2946 94.6856 18.462C94.5443 18.6283 94.4019 18.7936 94.2606 18.9588C94.1541 19.0903 94.0476 19.2207 93.9421 19.3512L93.6476 19.612C93.4704 19.8446 93.2932 20.0783 93.1149 20.311L93.0791 20.3512C92.8465 20.6316 92.616 20.911 92.3845 21.1925L92.1476 21.5805L91.0497 23.412C90.9476 23.4544 90.891 23.5316 90.8823 23.6436C90.7834 23.8762 90.6856 24.1099 90.5867 24.3425C90.4823 24.5262 90.378 24.712 90.2726 24.8968C89.2313 25.7044 88.6726 26.812 88.3323 28.0533C88.2606 28.1425 88.1889 28.2316 88.1182 28.3196C87.9965 28.6436 87.8736 28.9675 87.7508 29.2914C87.5639 29.7936 87.3769 30.2946 87.1899 30.7957C86.0541 32.8512 85.766 35.1381 85.616 37.4033C85.4193 40.3686 85.4573 43.3512 86.1693 46.2718C86.4052 47.2403 88.0617 50.9762 88.8834 52.2207C89.7041 53.4642 91.9062 55.9186 93.3106 56.8816C94.703 57.8403 95.978 58.5762 98.1747 59.4892L98.1867 59.4925Z" fill="white"/>
<path d="M273.849 78.5922C272.452 77.5575 271.036 76.5477 269.621 75.5379C269.328 75.3303 269.123 74.7118 268.691 75.1129C268.541 75.2509 268.744 75.8661 268.901 76.2129C269.021 76.4748 269.298 76.6846 269.544 76.864C271.037 77.9498 272.526 79.0433 274.052 80.0781C274.459 80.3498 274.992 80.4346 275.478 80.5727C275.562 80.5955 275.691 80.452 275.834 80.364C275.69 80.1955 275.606 80.0683 275.494 79.9727C274.953 79.5064 274.422 79.0194 273.85 78.5933L273.849 78.5922Z" fill="white"/>
<path d="M283.809 84.8581C283.728 84.7614 281.722 83.6755 281.628 83.6103C281.208 83.3114 280.948 83.4266 280.527 83.1244C279.725 82.5451 278.963 81.9135 278.186 81.3038C277.778 80.982 277.16 80.7407 277.091 81.3777C277.048 81.7874 277.148 82.2874 277.531 82.5059C277.668 82.5853 277.805 82.6646 277.941 82.7429C278.728 83.1505 279.511 83.5614 280.297 83.9668C280.643 84.1451 285.727 87.719 286.557 87.5635C287.389 87.4059 286.66 86.4711 286.66 86.4711C286.66 86.4711 283.943 85.0201 283.811 84.8527L283.809 84.8581Z" fill="white"/>
<path d="M273.586 85.222C273.586 85.222 277.168 87.6666 278.515 88.2916C279.865 88.9155 280.644 89.4361 280.176 88.7068C279.71 87.9774 280.176 88.135 278.67 87.2503C277.164 86.3666 276.336 86.0546 275.662 85.3785C274.986 84.7024 273.637 84.1307 273.584 84.5981C273.533 85.0644 273.589 85.222 273.589 85.222H273.586Z" fill="white"/>
<path d="M276.597 93.1825C278.101 94.0662 278.828 94.7423 278.309 93.389C277.793 92.0369 276.96 92.2977 275.818 91.726C274.676 91.1532 274.633 91.7162 274.892 92.0304L276.597 93.1825Z" fill="white"/>
</g>
<defs>
<clipPath id="clip0_4_4202">
<rect width="286.957" height="100" fill="white"/>
</clipPath>
</defs>
</svg>
