<svg width="674" height="100" viewBox="0 0 674 100" fill="none" xmlns="http://www.w3.org/2000/svg">
<g clip-path="url(#clip0_4_4138)">
<path d="M84.313 2.59668H10.4931C4.72013 2.59668 0 7.31681 0 13.0897V86.9097C0 92.6827 4.72013 97.4028 10.4931 97.4028H84.313C90.086 97.4028 94.8061 92.6827 94.8061 86.9097V13.0897C94.7886 7.31681 90.086 2.59668 84.313 2.59668ZM41.2002 31.5316C41.2178 34.6023 41.13 37.6555 41.0072 40.7086C40.7966 45.1305 40.5159 49.5523 39.7965 53.9215C39.2876 56.9395 38.2523 59.8348 36.9539 62.5897C34.8482 67.029 31.5318 70.7841 27.8119 73.9425C24.478 76.8729 20.5124 79.0136 16.3187 80.4524C13.9498 81.2596 11.5283 81.8913 9.03667 82.2422C9.03667 79.1715 9.03667 76.0833 9.03667 73.0125C12.0197 72.5563 14.8798 71.5035 17.5469 70.0997C20.7054 68.4328 23.548 66.1868 25.9519 63.5372C28.426 60.7999 30.3913 57.6414 31.9003 54.2724C33.655 50.4121 34.6026 46.2359 35.2518 42.0422C36.059 36.7255 36.3923 31.3561 36.5152 25.9692C36.5327 24.1443 36.5152 22.3194 36.5152 20.5121C38.0769 20.5121 39.6385 20.5121 41.2002 20.5121C41.2178 24.197 41.2002 27.8643 41.2002 31.5316ZM51.7108 82.2598C48.8507 82.2598 45.973 82.2422 43.1128 82.2773C43.0777 75.7148 43.1128 69.1522 43.0953 62.5897C43.0953 48.5697 43.0953 34.5672 43.0953 20.5472C45.973 20.5296 48.8331 20.5472 51.7108 20.5472C51.7108 41.0947 51.7108 61.6772 51.7108 82.2598ZM85.7343 82.2422C83.2778 81.9088 80.8563 81.2771 78.5225 80.47C75.7326 79.5049 73.0304 78.2415 70.5387 76.6272C68.7314 75.4691 67.0819 74.0654 65.4852 72.609C62.8707 70.205 60.5369 67.4677 58.7822 64.3619C57.4136 61.958 56.4134 59.3435 55.6238 56.6763C54.9044 54.0092 54.6061 51.2368 54.3253 48.4995C53.7814 42.5686 53.5883 36.6026 53.6234 30.6367C53.6234 27.2677 53.6234 23.8987 53.6234 20.5121C55.1676 20.5121 56.7292 20.5121 58.2734 20.5121C58.2207 26.7764 58.4313 33.0757 59.1858 39.3049C59.8 44.1478 60.6598 49.0259 62.5899 53.5354C64.4148 57.9046 67.0468 61.958 70.486 65.2217C73.7673 68.3451 77.7329 70.749 82.0495 72.1352C83.2602 72.5212 84.4885 72.8195 85.7343 73.0125C85.7343 76.1008 85.7343 79.1715 85.7343 82.2422Z" fill="white"/>
<path d="M139.289 6.61489C142.974 1.89476 150.607 1.0876 155.134 5.05321C156.977 6.61489 158.275 8.75561 158.942 11.0718C167.312 39.8839 175.734 68.6784 184.087 97.4905C179.138 97.4905 174.208 97.4729 169.26 97.4905C166.926 89.5417 164.645 81.5929 162.346 73.6442C152.783 73.6266 143.237 73.6442 133.692 73.6266C131.358 81.5754 129.042 89.5242 126.743 97.4905C121.83 97.4729 116.917 97.4905 112.004 97.4729C119.953 70.012 127.919 42.5335 135.92 15.055C136.868 12.1773 137.219 8.96618 139.289 6.61489ZM148.028 24.2671C144.518 36.199 141.097 48.166 137.605 60.098C144.553 60.133 151.485 60.1155 158.433 60.1155C154.959 48.166 151.502 36.2166 148.028 24.2671Z" fill="white"/>
<path d="M243.392 7.22919C245.971 3.49169 250.937 1.68436 255.324 2.84245C259.342 3.77244 262.413 7.22919 263.466 11.1246C271.835 39.9191 280.223 68.6961 288.593 97.4906C283.644 97.5257 278.696 97.4906 273.748 97.5082C271.449 89.5594 269.168 81.5931 266.852 73.6444C257.307 73.6444 247.779 73.6268 238.233 73.6444C235.952 81.5931 233.601 89.5419 231.32 97.4906C226.406 97.4906 221.511 97.4906 216.598 97.4906C224.546 69.8542 232.6 42.2353 240.602 14.6165C241.444 12.1423 241.778 9.38746 243.392 7.22919ZM242.181 60.1157C249.095 60.1332 256.008 60.1157 262.922 60.1157C259.482 48.1311 255.991 36.1816 252.551 24.2146C249.112 36.1816 245.62 48.1487 242.181 60.1157Z" fill="white"/>
<path d="M173.031 2.70215C190.912 2.70215 208.792 2.70215 226.655 2.70215C226.655 7.52756 226.655 12.3354 226.655 17.1608C220.075 17.1608 213.494 17.1608 206.914 17.1608C206.914 43.9375 206.914 70.7141 206.914 97.4907C202.194 97.4907 197.492 97.4907 192.772 97.4907C192.772 70.7141 192.772 43.9375 192.772 17.1608C186.191 17.1433 179.611 17.1608 173.031 17.1608C173.031 12.3354 173.014 7.52756 173.031 2.70215Z" fill="white"/>
<path d="M304.318 3.28098C305.669 2.80721 307.125 2.64929 308.564 2.68438C314.197 2.70193 319.847 2.68438 325.479 2.68438C334.972 2.85985 344.026 8.75563 348.132 17.2834C350.975 22.8283 351.273 29.2855 350.554 35.3743C350.063 41.7439 347.378 48.1134 342.482 52.3422C339.903 54.6409 336.674 56.0446 333.902 58.0976C332.375 59.2557 332.305 61.5017 333.095 63.116C340.57 74.6619 348.36 86.0323 355.993 97.4905C350.413 97.508 344.816 97.4729 339.236 97.508C331.919 86.5237 324.69 75.4866 317.408 64.4847C315.267 61.3613 314.688 57.2027 315.969 53.6407C316.969 50.9034 319.373 48.903 322.04 47.8678C327.129 45.92 332.147 42.8669 334.972 38.059C337.113 34.4443 337.008 29.9874 336.043 26.0394C334.92 20.9157 329.919 16.8799 324.637 17.0553C320.987 17.0729 317.337 17.0378 313.688 17.0729C312.038 17.0378 310.477 18.4766 310.512 20.1436C310.494 45.9376 310.512 71.714 310.512 97.508C305.757 97.4905 301.019 97.508 296.264 97.508C296.246 69.7488 296.281 41.9895 296.246 14.2127C296.246 9.33467 299.703 4.75492 304.318 3.28098Z" fill="white"/>
<path d="M363.451 2.70215C368.452 2.70215 373.435 2.70215 378.436 2.70215C378.436 34.3042 378.454 65.9062 378.419 97.5082C373.435 97.4907 368.434 97.5082 363.434 97.5082C363.451 65.8887 363.451 34.2866 363.451 2.70215Z" fill="white"/>
<path d="M434.952 34.8305C440.041 34.8305 444.182 30.7069 444.182 25.6008C444.182 20.4946 440.059 16.3711 434.952 16.3711C429.864 16.3711 425.723 20.4946 425.723 25.6008C425.723 30.7069 429.846 34.8305 434.952 34.8305ZM434.952 22.4774C436.672 22.4774 438.076 23.8812 438.076 25.6008C438.076 27.3204 436.672 28.7241 434.952 28.7241C433.233 28.7241 431.829 27.3204 431.829 25.6008C431.829 23.8812 433.215 22.4774 434.952 22.4774Z" fill="white"/>
<path d="M458.799 36.3923C460.221 33.1462 460.958 29.6368 460.958 26.0221C460.958 11.6687 449.289 0 434.953 0C420.617 0 408.931 11.6687 408.931 26.0221C408.931 29.6368 409.668 33.1462 411.089 36.3923C403.211 43.2357 398.648 53.0795 398.648 63.7129C398.648 83.7164 414.932 100 434.936 100C454.939 100 471.223 83.7164 471.223 63.7129C471.24 53.0795 466.678 43.2181 458.799 36.3923ZM434.953 93.8937C418.283 93.8937 404.755 80.3825 404.755 63.6954C404.755 52.8338 410.51 43.3585 419.108 38.0242C416.564 34.6727 415.037 30.5141 415.037 25.987C415.037 14.9851 423.951 6.07124 434.953 6.07124C445.955 6.07124 454.869 14.9851 454.869 25.987C454.869 30.5141 453.342 34.6727 450.798 38.0242C459.396 43.3409 465.151 52.8338 465.151 63.6954C465.134 80.3825 451.623 93.8937 434.953 93.8937Z" fill="white"/>
<path d="M434.952 46.1836C424.986 46.1836 416.914 54.2552 416.914 64.2218C416.914 74.1885 424.986 82.2601 434.952 82.2601C444.919 82.2601 452.991 74.1885 452.991 64.2218C452.991 54.2552 444.901 46.1836 434.952 46.1836ZM434.952 76.1362C428.372 76.1362 423.02 70.7844 423.02 64.2043C423.02 57.6242 428.372 52.2724 434.952 52.2724C441.532 52.2724 446.884 57.6242 446.884 64.2043C446.884 70.7844 441.532 76.1362 434.952 76.1362Z" fill="white"/>
<path d="M522.005 0C494.439 0 471.996 22.425 471.996 50.0088C471.996 77.575 494.421 100.018 522.005 100.018C549.571 100.018 571.996 77.5926 571.996 50.0088C572.014 22.425 549.571 0 522.005 0ZM522.005 93.9112C497.79 93.9112 478.102 74.206 478.102 50.0088C478.102 25.794 497.808 6.10633 522.005 6.10633C546.22 6.10633 565.907 25.8115 565.907 50.0088C565.907 74.206 546.22 93.9112 522.005 93.9112Z" fill="white"/>
<path d="M522.005 17.7227C504.213 17.7227 489.719 32.1989 489.719 50.009C489.719 67.8016 504.195 82.2954 522.005 82.2954C539.798 82.2954 554.291 67.8192 554.291 50.009C554.291 32.1989 539.798 17.7227 522.005 17.7227ZM522.005 76.1891C507.564 76.1891 495.808 64.4326 495.808 50.009C495.808 35.5679 507.564 23.829 522.005 23.829C536.446 23.829 548.185 35.5854 548.185 50.009C548.185 64.4502 536.446 76.1891 522.005 76.1891Z" fill="white"/>
<path d="M623.81 0C596.243 0 573.801 22.425 573.801 50.0088C573.801 77.575 596.226 100.018 623.81 100.018C651.376 100.018 673.801 77.5926 673.801 50.0088C673.801 22.425 651.376 0 623.81 0ZM623.81 93.9112C599.595 93.9112 579.907 74.206 579.907 50.0088C579.907 25.794 599.612 6.10633 623.81 6.10633C648.024 6.10633 667.712 25.8115 667.712 50.0088C667.712 74.206 648.007 93.9112 623.81 93.9112Z" fill="white"/>
<path d="M623.81 17.7227C606.017 17.7227 591.523 32.1989 591.523 50.009C591.523 67.8016 606 82.2954 623.81 82.2954C641.602 82.2954 656.096 67.8192 656.096 50.009C656.079 32.1989 641.602 17.7227 623.81 17.7227ZM623.81 76.1891C609.369 76.1891 597.612 64.4326 597.612 50.009C597.612 35.5679 609.369 23.829 623.81 23.829C638.251 23.829 649.99 35.5854 649.99 50.009C649.99 64.4502 638.233 76.1891 623.81 76.1891Z" fill="white"/>
</g>
<defs>
<clipPath id="clip0_4_4138">
<rect width="673.802" height="100" fill="white"/>
</clipPath>
</defs>
</svg>
