<svg width="245" height="100" viewBox="0 0 245 100" fill="none" xmlns="http://www.w3.org/2000/svg">
<g clip-path="url(#clip0_4_4216)">
<path d="M95.3518 11.1176C96.6301 11.4483 96.4838 13.4834 98.0483 12.822C98.4744 12.7266 98.9959 13.2481 98.6143 13.7696C98.379 13.9095 98.0928 14.0558 97.8066 14.1957C98.0419 14.6663 98.5634 15.2832 98.0419 15.8047C96.6237 16.5615 94.9702 16.6124 93.4057 17.0321C87.7774 19.1626 81.6784 23.4681 79.3126 29.4208C78.1297 33.3956 77.9389 38.5025 80.3556 42.0003C82.3398 44.0354 84.6611 46.2104 87.4975 46.6811C90.0033 47.2471 92.1783 46.3058 93.9781 44.7414C93.9781 44.1753 92.846 43.8892 93.5075 43.3677C92.1846 41.7587 93.6474 40.0097 93.2721 38.2608C93.7428 36.4165 93.9335 34.9029 94.6458 33.154C93.6028 33.0586 92.6107 33.7709 91.4787 33.8154C91.9493 33.5801 91.4787 32.9632 91.148 33.3893C89.0175 34.3814 86.7471 34.9983 84.7629 36.3211C84.4767 36.2766 83.9552 36.0413 84.3368 35.6597C86.4227 35.0492 85.6151 32.2573 87.9809 32.111C88.3116 30.6928 90.016 30.502 91.2434 30.2221C90.9127 28.8039 92.5217 29.7007 93.0877 29.2746C94.7412 28.4223 96.6364 27.9963 98.0546 26.4381C98.7161 26.1074 99.3329 26.2473 99.5237 27.0041C99.5746 27.284 99.4729 27.5701 99.759 27.7164C100.516 27.621 101.082 26.4381 101.794 27.0041C101.743 34.3369 97.4441 40.8619 99.193 48.3791C99.0976 49.085 99.3329 49.9372 99.4283 50.7449C99.2821 50.9802 99.0468 50.9802 98.8623 51.0756C98.627 50.8848 98.8623 50.5096 98.627 50.2679C97.018 51.1201 97.8193 48.5635 96.4965 48.7988C95.8351 48.1374 95.5044 47.1453 94.4169 47.2407C93.0941 48.6589 92.191 50.7386 90.1114 51.0693C87.3195 51.8261 84.0569 51.3554 81.5003 49.8418C77.7608 48.3727 75.1152 44.9258 73.5507 41.4216C71.9417 34.941 72.2724 27.3285 75.9165 21.8909C76.5779 19.7159 78.7084 18.4376 79.6497 16.358C81.5385 15.315 82.3462 12.7648 84.3304 11.6772C84.6611 11.7281 85.1381 11.6772 85.1381 11.2511C87.5484 9.87745 90.2449 9.26692 93.0814 8.84082C93.6537 10.3608 96.0641 9.13337 95.3518 11.1176Z" fill="white"/>
<path d="M151.401 17.928C148.939 20.9997 146.243 23.9824 144.729 27.4803H145.06C145.486 26.8189 147.095 27.245 147.33 26.0112C148.513 25.636 149.556 24.2114 150.975 25.1145C150.504 24.1224 151.871 23.8362 151.07 23.1748C150.975 22.6533 151.121 21.8965 151.731 21.7057C151.591 20.4782 152.488 19.4353 152.444 18.157C152.393 18.3477 152.068 18.7675 151.731 18.723C151.496 18.5449 151.356 18.3032 151.401 17.928ZM118.623 6.38514C117.866 7.61256 120.276 8.22945 118.953 9.41236C119.71 9.93385 120.512 9.64767 120.989 10.6907C120.181 13.0056 118.527 14.9962 117.586 17.2666C116.028 18.3096 116.734 20.2938 115.786 21.5721C114.133 23.9379 112.568 26.3483 111.907 29.0893C108.784 33.204 107.271 38.0247 105.897 42.9026C105.662 43.6085 105.706 44.607 106.463 44.9822C108.593 45.262 110.056 42.7563 111.665 41.9105C112.282 40.9183 113.605 40.6321 114.076 39.5001C116.39 37.3696 119.939 35.0992 120.174 31.7922C121.217 30.8954 120.27 29.191 121.548 28.3897C121.548 27.1623 121.548 25.5978 122.687 25.1272C122.4 24.2305 122.165 23.2384 122.922 22.4816C122.782 22.1508 123.157 21.9601 123.017 21.5848C123.348 21.7756 123.73 21.305 124.06 21.1587C125.288 20.3065 123.017 19.6896 124.296 18.8883C125.097 17.8453 125.332 16.2427 126.426 15.6703C126.051 15.0089 127.183 14.6782 127.138 13.9659C128.086 12.6431 128.557 10.9832 129.975 9.8957C130.541 10.4172 131.628 9.8003 132.01 10.7924C132.958 10.3218 133.759 10.2709 134.706 10.7924C135.037 11.3584 135.559 11.9753 135.272 12.6367C135.133 12.9674 134.751 13.2027 134.846 13.6288C135.463 13.9595 136.36 14.1949 136.315 15.0979V15.8102C131.539 24.3259 127.851 33.2613 124.728 42.4892C124.677 43.3414 124.302 44.2381 124.633 45.0903C124.868 45.6563 125.434 46.3686 126.095 46.464C126.286 46.6548 126.521 46.9855 126.757 46.6993C128.175 43.9074 130.732 41.8723 132.099 39.0867C131.151 39.2267 130.064 39.7036 129.021 39.9835C128.881 39.2267 129.918 38.8006 129.968 37.9547C130.159 37.2933 128.976 37.3887 129.593 36.8163C130.585 36.2503 131.959 36.015 132.43 34.972C133.377 34.2152 134.84 34.3106 135.266 32.9369C137.676 32.4154 137.492 29.8143 139.05 28.3961C139.285 26.927 140.85 26.1257 141.416 24.8919C141.607 25.0382 141.842 24.9873 141.982 24.752C141.6 23.003 144.678 23.0476 144.348 21.0125C145.721 20.5864 145.531 19.1236 146.618 18.4113C147.426 17.3238 148.227 16.1409 149.461 15.3332C149.315 15.0534 149.741 15.0025 149.696 14.7672C151.305 13.1582 154.002 12.1661 153.811 9.66039C153.862 8.99898 153.906 7.95599 154.708 7.52989C155.509 7.52989 156.266 7.90511 156.838 8.1913C156.889 8.56652 156.698 9.2788 157.309 9.23429C158.962 9.66039 160.101 9.23429 161.614 9.99109C161.85 10.1819 161.614 10.5126 161.85 10.7034C158.632 23.9443 159.344 39.2712 157.309 53.0336C157.595 54.9733 156.838 57.0529 157.074 58.8018C156.743 59.0371 156.787 59.6031 156.412 59.3678C156.507 59.0817 156.221 58.8972 156.081 58.7064C156.081 58.045 156.272 57.002 155.7 56.436C155.604 56.6268 155.369 56.6713 155.134 56.6713C154.803 56.436 154.943 56.0099 154.568 55.7746C155.655 55.4439 155.375 54.261 155.28 53.5042C154.568 53.4533 154.714 52.652 154.383 52.2259C154.574 51.9397 155.515 51.9906 155.14 51.2338C154.905 50.6169 154.67 51.5136 154.243 51.2338C154.008 50.7123 153.722 50.1463 153.913 49.6248C153.251 48.6772 154.008 47.0682 153.111 46.3114C153.111 45.7454 153.633 45.0331 153.111 44.5116C152.545 44.7978 152.825 45.8344 152.45 46.1206C152.259 44.1809 151.267 41.955 152.45 40.2061C152.259 39.2585 151.407 38.2218 151.884 37.0389C151.693 34.9593 152.31 32.5935 152.119 30.5584C150.981 30.3676 150.084 31.4106 148.901 31.4551C148.615 32.1165 147.769 32.072 147.197 32.3518C145.543 32.727 144.787 34.6222 143.038 34.7621C142.751 35.0483 142.332 35.0483 141.995 35.1882C141.995 35.0928 142.039 34.9021 141.899 34.8575C141.473 35.4235 140.246 34.9529 140.621 35.9959C140.055 35.9959 139.673 36.6128 139.394 37.0326C137.123 41.2936 134.999 45.5927 132.347 49.7074C131.921 50.8904 130.973 51.8825 130.643 53.1099C130.452 53.3452 130.026 53.2053 129.981 53.0145C129.555 52.4485 129.034 53.3897 128.938 53.6759C127.851 55.8509 126.712 58.2167 124.963 59.9211C124.773 60.0165 124.633 59.8257 124.493 59.7303C124.544 59.2088 124.874 58.7382 124.874 58.3566C124.022 59.0689 123.501 59.9211 122.935 60.7225C121.847 61.0023 122.648 59.7749 122.222 59.3488C121.179 60.3918 120.849 62.4269 119.055 62.4269C118.96 61.9054 119.195 61.244 119.29 60.6271C118.909 60.2518 118.483 61.0977 118.152 60.4871C118.387 59.5396 119.526 58.7382 119.761 57.6507C120.753 57.2755 120.473 55.8064 121.466 55.2849C121.275 54.4327 122.127 54.2928 122.127 53.5805C123.119 52.6329 123.075 51.2147 124.162 50.2671C121.841 50.5978 118.203 53.0081 116.549 49.841C116.88 49.1796 116.6 48.3719 115.983 47.9967C116.314 46.0125 115.888 44.5942 116.696 42.7945C116.6 41.8469 117.783 41.4716 117.262 40.6194C114.851 43.2651 112.155 45.9616 109.408 48.3783C107.372 49.3704 105.057 49.752 102.927 48.5691C102.126 48.0984 102.17 47.2462 101.604 46.6739C100.752 42.8898 100.898 39.0104 102.501 35.6525C103.398 33.7637 102.972 31.3025 104.301 29.6489C104.918 25.7695 106.997 22.507 108.415 18.9583C109.268 16.9232 109.885 14.7482 111.347 12.9484C112.06 10.7225 112.912 8.26761 114.991 6.94479C115.322 6.754 115.704 6.18799 116.123 6.56957C116.976 6.80488 117.166 5.19587 118.158 5.81277C118.343 5.95904 118.527 6.14983 118.623 6.38514Z" fill="white"/>
<path d="M69.9076 0.808173C69.7168 1.1834 69.2017 1.1834 68.8646 1.46958C65.7928 1.9402 62.5748 2.13099 59.5921 2.84328C59.1215 4.0707 60.4443 4.02618 61.1503 3.97531C61.3856 4.30601 61.8117 3.87991 61.8625 3.97531C61.8625 5.39352 59.5921 4.82751 60.0182 6.48103C58.8353 7.56854 57.0355 7.14244 55.8081 8.18543C55.9035 8.28083 55.9989 8.32534 56.0434 8.42074C54.0083 9.22842 51.8842 10.2205 49.7028 10.4558C50.0335 11.2572 48.8061 11.9249 48.4245 12.3956C47.0572 12.3002 46.0587 13.0124 44.9267 13.5276C43.5657 22.0432 40.6339 29.942 38.2235 38.0315C35.6733 42.8585 34.2996 48.1562 30.1849 52.3663C25.9747 57.8992 19.9712 64.3353 12.2569 62.014C7.71602 60.1188 1.89689 58.4653 0.00805925 53.1167C-0.0428184 52.6461 0.383282 52.4553 0.764864 52.3599C1.09557 52.22 1.00017 52.5507 1.14009 52.6906C1.7061 53.0213 2.36751 53.2567 2.46291 54.0643C5.35021 55.7687 7.80506 58.4653 11.5446 58.0328C18.5911 57.2824 23.0874 50.045 26.4454 44.6011C31.0307 35.3795 33.4919 25.2104 35.7623 14.9903C35.6669 14.8949 35.5715 14.8504 35.527 14.755C29.6634 15.2765 23.9841 16.5484 18.1714 16.6947C17.8407 16.2241 17.7453 15.7026 17.4591 15.2256C16.8422 14.9903 15.99 15.7471 15.7547 14.9903C16.0854 14.8949 15.7038 14.755 15.6593 14.6596C16.3716 14.7105 16.8867 14.189 17.2238 13.6166C17.4146 12.9043 16.5624 12.8089 16.2317 12.3892C15.761 12.2938 15.3349 12.1984 15.1887 11.6769C15.1887 11.2063 15.1887 10.7293 15.6593 10.4495C16.3207 10.0234 18.165 10.9201 17.7834 9.6418C17.3573 9.59729 16.2698 9.87711 16.2253 8.98039C16.2762 8.26811 16.3652 7.6067 17.2174 7.70209C23.2719 8.22359 28.5186 6.47467 34.4777 6.14397C43.0378 4.96106 51.1719 2.49985 59.5921 1.36783C62.4349 0.903569 65.2713 0.477469 68.1141 0.000490914C68.8201 0.000490914 69.7677 -0.088545 69.9076 0.808173Z" fill="white"/>
<path d="M62.1994 18.405C62.104 18.5958 61.8686 18.7357 61.8686 18.971C61.5825 19.3017 61.0164 20.58 60.5903 19.4416C58.2245 23.2256 56.2403 27.1496 54.2497 31.1244C54.1098 31.4106 54.1098 31.7413 54.2497 32.0275C55.3817 32.2628 55.2418 31.3661 55.6234 30.7937C56.2848 30.4185 57.0416 29.9924 57.8938 30.3231C58.8414 28.9049 60.5903 28.4788 62.0531 27.8173C61.964 24.5993 62.3393 21.6166 62.1994 18.405ZM69.5766 8.08954C70.0981 9.08165 68.7753 11.492 70.7086 11.3521C71.7008 13.101 70.7595 15.1806 70.804 17.1712C69.761 27.9573 69.5257 39.5446 69.672 50.4197C69.4367 50.8904 69.8628 52.4103 68.7753 51.7934C68.2538 51.2719 68.2093 50.2289 67.5479 50.089C66.7402 51.4627 67.1663 53.2116 66.7402 54.4899C65.8435 54.1592 65.7926 53.2625 65.6972 52.4548C66.5939 50.9412 64.279 50.1844 64.8959 48.48C64.2345 48.8552 64.8959 50.2289 64.3299 50.8458C63.6684 51.0366 63.573 50.1844 63.1915 49.7074C63.2869 48.6708 62.0594 47.5324 63.0007 46.7756C63.6621 45.0712 61.8686 44.0346 62.5301 42.4701C62.4347 39.3984 62.2947 35.7543 62.1994 32.8224L61.964 32.5871C59.1276 33.77 56.0495 34.813 53.2131 35.6652C52.5962 35.945 52.0811 36.6128 51.2734 36.5619C48.2462 42.1903 45.9757 48.1493 43.2347 53.9176C43.3746 55.4757 41.295 55.8064 41.6257 57.4663C41.2505 58.1786 41.0597 59.0753 40.4937 59.5904C40.0231 58.6937 41.5367 57.5108 40.4937 56.6586C40.8689 55.711 41.2505 54.6235 41.0597 53.5869C39.6415 55.5711 38.8338 57.9369 37.7972 60.1628C37.3265 60.3027 37.2311 59.5459 37.4665 59.2661C37.7463 58.7001 38.2678 57.8924 37.8926 57.3264H37.6509C36.7542 58.6556 36.5634 60.5444 35.0498 61.3012C35.425 60.0674 34.859 59.5014 34.9544 58.3694C34.9544 56.9957 36.2772 56.4805 36.1818 55.2976C36.7033 55.0114 36.0419 54.1592 36.8941 54.1592C36.8432 53.5423 38.3632 53.1226 37.5555 52.5502C38.1724 50.7504 39.3108 49.0969 40.0676 47.4434C40.729 46.8774 40.4937 45.9298 41.295 45.4146C41.9119 43.8056 42.7132 42.1012 43.8961 40.6385C43.3746 39.7863 44.8882 39.7418 44.3667 38.8387C44.5575 38.3172 45.0281 37.8911 45.1744 37.3696C44.7483 37.0389 43.2792 37.6049 43.47 36.4729C43.7053 36.1422 43.0884 36.1422 42.904 36.0023C43.5654 35.3409 44.7038 34.9593 45.6005 34.9593C45.7913 34.4378 46.4527 34.5841 46.8788 34.3933C47.3494 33.2104 48.8185 32.2183 48.3479 30.8C49.1047 30.2785 49.817 29.5217 49.817 28.7204C49.817 26.8761 51.992 25.4134 52.2273 23.7535C53.2703 22.9967 53.4548 21.5785 54.1225 20.6818C55.0701 20.491 54.167 19.5942 55.1655 19.5497C56.2975 17.4701 56.5392 14.9135 58.568 13.3045C59.3248 12.217 59.7509 11.0341 60.0371 9.80666C60.5585 9.52683 60.8384 9.80666 61.4107 9.66675C61.8368 10.0928 61.4107 11.2758 62.4537 11.0404C62.7844 10.3282 62.4983 8.67463 63.9165 8.67463C65.0549 8.62375 66.3777 9.29152 67.0836 8.20401C67.7323 7.80971 68.8707 7.42813 69.5766 8.08954Z" fill="white"/>
<path d="M194.774 7.28865C197.235 7.24413 199.41 9.31739 201.585 10.6974C204.186 12.917 205.464 15.7089 205.325 19.0668C205.038 25.452 198.469 30.368 193.311 32.9246C193.737 33.6305 194.634 34.2474 195.346 34.7689C197.617 36.9948 199.175 40.0666 201.827 42.1462C202.583 43.7552 204.568 43.8506 205.801 45.1734C207.646 48.4359 211.239 49.3835 213.274 52.3599C215.735 54.4904 218.197 57.0915 220.887 58.9358C222.07 61.1108 224.531 60.6402 225.523 63.006C226.184 63.2413 226.655 63.9536 226.897 64.4751C225.383 65.8424 224.295 63.006 222.922 62.44C221.879 61.7786 221.077 60.831 219.99 60.0742C215.023 56.1948 210.718 52.22 205.566 48.8175C203.957 48.0098 202.87 46.1655 201.687 44.7473C198.85 43.946 197.998 40.8679 195.683 39.3098C195.308 38.5975 194.691 37.8915 194.119 37.37C194.074 38.1777 193.171 37.8915 192.84 37.4654C191.988 36.3779 190.525 35.9518 189.578 35.0996C189.959 33.9167 188.586 34.6735 188.211 34.2983C187.645 33.5924 186.932 32.7847 186.175 32.3586C185.609 32.6448 186.175 32.9755 186.271 33.2617C188.071 34.54 188.586 37.2365 190.812 37.7071C192.942 40.0729 195.308 41.9172 197.623 43.8569C197.432 44.0923 196.911 43.9969 196.58 44.1876C201.076 46.3627 204.523 51.0434 208.88 53.6C210.533 55.1581 212.238 56.6272 213.611 58.1408C213.707 58.2808 213.42 58.3316 213.516 58.4715C219.335 62.3955 223.971 68.6852 230.21 71.9986C230.401 72.4693 229.879 72.5201 229.644 72.3293C222.928 68.0747 217.16 62.2047 210.349 58.1408C204.669 53.9307 200.892 47.8763 194.551 44.7537C194.36 43.6662 193.228 43.717 192.516 43.2846C191.804 42.2416 190.29 41.3449 190.246 39.9712C189.254 38.8837 187.409 38.413 186.932 36.804C186.036 36.3334 185.228 35.4303 184.096 35.761C183.294 35.2395 182.913 33.9612 181.825 33.8213C181.635 33.3952 181.018 33.4398 181.069 32.9246C182.061 32.7847 181.73 31.5064 182.773 31.3601C183.625 31.8307 184.573 31.7862 185.47 31.4555C186.226 29.9864 184.096 29.6112 183.53 28.5237C183.104 27.9068 183.905 27.2963 184 27.0101C185.559 26.9656 186.462 30.0818 188.211 28.8544C188.637 28.8544 188.821 29.3759 189.343 29.1851C190.475 27.2963 191.988 25.541 193.406 23.7476C193.877 22.6092 194.876 21.528 194.303 20.1035C192.268 17.5023 188.63 17.0254 185.368 17.5977C184.516 18.3545 182.811 17.8776 182.627 19.3021C182.48 20.5296 181.679 21.4326 181.158 22.4693C180.871 22.4247 180.827 22.1894 180.827 21.9032C181.062 21.7633 180.636 21.528 180.496 21.4771C179.027 23.2769 178.843 25.8272 177.851 27.9577C177.52 27.9577 177.66 27.4871 177.285 27.4871C174.728 35.195 173.265 43.2846 171.51 51.3232C171.319 51.8893 170.944 52.1246 170.473 52.4553C169.761 51.9338 171.039 50.6555 169.812 50.2802C168.298 53.7336 166.925 57.2314 165.366 60.6402C164.896 59.9279 165.417 59.2665 164.94 58.6051C164.279 58.4652 163.948 58.745 163.808 59.2665C163.147 60.7356 163.338 62.7643 162.104 63.8073C162.155 63.4766 162.486 62.4845 162.104 62.0075C161.487 62.4336 161.538 63.8964 160.73 63.4766C160.73 62.4845 159.694 61.3461 160.73 60.4939C159.363 58.5987 161.627 56.2838 162.339 54.2487C162.765 53.918 163.662 53.6827 162.905 53.0213C163.376 52.4998 162.619 50.9862 163.662 51.0816C164.273 50.6555 163.707 50.3693 163.331 50.1849C164.139 48.4359 164.463 46.4962 165.271 44.7473C166.072 44.4611 166.689 43.7997 166.74 42.903C166.123 42.8076 166.27 42.0508 166.409 41.6756C167.923 37.4654 168.775 32.9691 170.715 28.9498C170.95 28.0531 171.09 26.8257 171.847 26.018C172.133 24.4535 173.03 23.2261 173.316 21.7125C171.332 22.0877 169.392 24.6952 167.077 23.4169C167.122 21.051 164.05 23.7921 164.145 21.4771C163.955 20.0589 162.25 21.3372 161.875 20.0081C161.875 19.0605 162.396 18.5898 162.206 17.7376C163.058 18.1637 163.573 17.1207 164.381 17.1716C165.277 16.4657 164.851 15.1874 165.608 14.4306C167.548 13.96 169.201 12.5418 171.046 12.2556C171.281 11.9249 171.472 11.4479 171.993 11.4988C172.941 11.5496 173.882 10.9328 174.83 10.6974C174.83 10.742 174.881 10.742 174.925 10.7928C175.873 10.1823 177.196 10.2268 177.997 9.42551C179.937 9.23472 181.781 8.10269 183.67 8.43339C184.948 8.19808 186.748 8.52879 187.74 7.30137C188.732 6.59544 189.915 7.77198 190.907 6.73535C191.982 7.42856 193.686 6.24565 194.774 7.28865Z" fill="white"/>
<path d="M183.422 35.9963C183.943 36.327 184.465 36.7531 185.126 36.7976C187.256 40.0602 190.99 42.2352 193.076 45.644C194.119 46.5916 195.963 46.8714 196.243 48.4804C198.373 50.2293 201.019 51.9783 202.253 54.3949C203.722 55.1517 205.045 56.0993 206.603 56.5254C210.908 59.9279 214.171 63.572 218.146 67.3051C220.702 70.237 224.149 70.8984 226.897 73.2197C228.785 75.0195 231.297 76.8129 232.716 78.8989C232.62 79.0897 232.194 79.0897 232.003 78.8989C226.089 73.792 219.615 69.8617 213.745 64.615C212.892 64.7104 212.136 64.049 211.474 63.483C207.595 61.4987 205.134 56.4809 200.784 55.3934C199.461 53.0276 197.044 51.6094 194.774 50.2866C192.974 49.5806 192.789 47.2594 191.034 46.7887C190.513 46.1273 189.565 46.0765 189.33 45.1797C187.625 43.2845 185.927 41.1604 183.746 39.9775C183.085 39.3161 182.754 38.5593 182.277 37.8025C181.52 37.6626 180.197 38.2286 179.676 37.1411C178.919 37.1411 178.067 37.281 177.641 36.575C177.736 35.7737 178.493 35.3476 177.641 34.6353C178.537 32.2695 180.528 34.8261 182.042 34.6353C182.665 34.9088 183.135 35.3794 183.422 35.9963Z" fill="white"/>
<path d="M185.222 42.1462C186.17 42.9475 186.971 43.8506 186.926 45.078C188.58 47.9653 191.372 49.9941 193.738 52.1246C194.494 53.4983 195.391 54.8211 196.383 56.0994C198.367 55.2472 199.55 57.5176 200.784 58.7005C200.549 60.1696 202.438 60.4494 203.29 61.3016C204.002 61.0155 204.428 61.7277 204.517 62.3383C206.126 62.9997 206.832 65.0793 208.632 65.2701C209.344 66.6883 211.373 66.0778 211.468 67.7758C212.982 68.9587 214.686 69.8554 216.105 70.9429C215.965 71.8905 217.478 71.369 217.383 72.412C218.095 72.9335 218.801 73.9256 219.844 73.7794C220.035 75.1531 221.549 75.1531 222.35 75.8145C226.655 79.4586 231.527 82.7211 235.642 86.5051C235.025 86.5051 234.503 86.1236 233.937 85.9391C222.725 77.1437 210.858 69.3848 199.786 60.0679C199.169 59.7371 199.124 59.0312 198.838 58.4588C195.01 57.9374 192.974 53.7781 189.756 51.6476C188.574 48.4296 184.128 47.7237 183.753 44.1749C182.57 43.0874 180.49 43.5135 179.924 41.6692C179.594 41.5293 179.594 41.0523 179.454 40.7725C178.792 40.1111 176.853 40.3019 177.419 38.9282C179.168 38.0315 180.586 40.0157 182.29 40.3019C183.091 41.1032 184.274 41.5293 185.222 42.1462Z" fill="white"/>
<path d="M170.843 53.498C170.608 55.4377 169.756 57.1866 168.668 58.7956C168.197 58.7002 168.242 57.9434 167.625 57.8035C167.676 57.5682 167.956 57.4283 168.096 57.2375C168.331 57.2375 168.522 57.1866 168.662 57.0022C169.374 55.7239 168.522 53.5488 170.271 53.0273C170.461 53.1164 170.652 53.3072 170.843 53.498Z" fill="white"/>
<path d="M228.92 65.7472C229.486 65.9825 229.912 66.5994 230.624 66.5548C232.042 67.2671 232.704 68.9652 234.173 69.5821C233.225 70.7204 232.233 68.7744 231.101 68.6853C230.058 67.1717 227.883 66.9364 227.457 65.1875C228.023 64.6596 228.589 65.1303 228.92 65.7472Z" fill="white"/>
<path d="M237.434 71.6551C239.66 73.1242 242.115 74.0654 244.15 75.7253C241.409 75.3946 239.043 73.4104 236.538 72.0812C235.832 71.8904 235.119 71.5597 234.738 70.8537C234.789 70.523 234.547 70.0969 234.973 69.957C235.972 70.0969 236.538 71.2798 237.434 71.6551Z" fill="white"/>
<path d="M238.001 76.8576C237.714 77.3282 237.199 76.953 236.869 76.8576C235.12 76.0563 233.511 74.8734 231.902 73.6905C231.571 73.3598 231.953 72.9337 232.328 73.1245C234.363 74.0721 236.156 75.7256 238.001 76.8576Z" fill="white"/>
<path d="M235.972 81.0742C235.215 81.4049 234.363 80.6035 233.701 80.0312C234.318 78.8483 235.119 80.788 235.972 80.8325V81.0742Z" fill="white"/>
<path d="M152.526 66.5739C153.531 66.364 156.278 65.6962 156.622 66.6756C156.959 67.6296 159.325 66.1859 159.541 68.2083C159.693 69.6392 158.854 69.2958 158.759 70.7649C158.708 71.6107 157.557 72.5265 156.221 72.6919C151.985 73.0417 144.386 76.1007 144.386 83.2426C144.386 83.2426 143.915 91.2113 152.214 91.2113C152.214 91.2113 157.391 92.0445 161.531 86.3271C161.76 86.0091 162.434 85.7356 162.797 85.8819C163.02 85.971 163.198 86.1681 163.179 86.5751C163.166 86.9631 162.962 87.3192 162.695 87.599C162.504 87.8089 162.32 88.1396 162.517 88.5403C162.867 89.2462 162.772 90.232 161.926 91.1478C161.926 91.1478 158.008 95.0781 152.284 95.0781C146.554 95.0781 138.789 93.1447 138.789 82.8483C138.789 72.552 146.516 67.8458 152.526 66.5739Z" fill="white"/>
<path d="M181.609 70.7012C176.458 70.7012 175.536 72.1576 175.389 73.9701C175.141 77.0355 173.863 80.9785 172.852 83.5096C171.466 86.982 168.248 92.604 168.248 96.5979C168.248 98.8174 167.389 98.6457 167.389 98.6457C166.887 98.6457 166.619 98.1497 166.473 97.6409C166.429 97.4692 166.181 97.4755 166.142 97.6473C165.92 98.6585 165.437 99.994 164.419 99.994C162.785 99.994 162.581 97.1512 162.581 97.1512C162.581 91.4656 169.31 74.3962 169.31 74.3962C169.31 74.3962 164.165 76.9973 163.185 77.0227C161.328 77.08 161.08 74.6442 162.575 74.1227C162.683 74.0846 162.676 73.9256 162.562 73.8938C161.85 73.6966 160.781 73.2514 160.781 72.3102C160.781 70.1288 164.368 68.2718 171.179 66.7009C171.179 66.7009 171.453 62.1855 172.89 62.1855C173.889 62.1855 175.568 63.0568 176.502 63.5847C176.916 63.82 177.177 64.2588 177.177 64.7294V65.0601C177.177 65.0601 182.544 65.0601 184.331 65.0601C187.619 65.0601 193.947 66.7264 193.947 74.0655C193.947 84.1138 180.261 92.0825 170.016 96.5661C169.755 96.6806 169.462 96.528 169.373 96.2608C169.227 95.8284 169.176 95.2306 169.907 95.0907C170.098 95.0525 170.213 94.849 170.168 94.6646C169.952 93.736 169.71 91.3766 172.235 89.9838C175.434 88.2222 187.11 80.9785 187.486 76.1006C187.855 71.3562 184.624 70.7012 181.609 70.7012Z" fill="white"/>
</g>
<defs>
<clipPath id="clip0_4_4216">
<rect width="244.149" height="100" fill="white"/>
</clipPath>
</defs>
</svg>
