<svg width="464" height="100" viewBox="0 0 464 100" fill="none" xmlns="http://www.w3.org/2000/svg">
<g clip-path="url(#clip0_4_4169)">
<path d="M169.122 4.33945C172.982 -0.623846 180.969 -1.47201 185.704 2.692C187.641 4.33091 188.998 6.59295 189.691 9.02804C198.457 39.3495 207.262 69.6569 216.016 99.9845C210.843 99.99 205.668 99.9752 200.495 99.99C198.054 91.6294 195.672 83.2548 193.263 74.8864C183.259 74.8662 173.26 74.8817 163.256 74.8763C160.806 83.2408 158.388 91.6138 155.984 99.9931C150.838 99.976 145.693 99.99 140.547 99.9845C148.875 71.0584 157.213 42.1345 165.581 13.2169C166.578 10.1897 166.954 6.80791 169.119 4.33635M178.253 22.9177C174.584 35.4788 170.99 48.0639 167.343 60.632C174.614 60.6677 181.881 60.6452 189.149 60.6452C185.514 48.0694 181.895 35.4935 178.251 22.9177H178.253Z" fill="white"/>
<path d="M278.107 4.99192C280.802 1.0607 286.015 -0.846707 290.602 0.367733C294.804 1.34006 298.017 4.97873 299.126 9.07601C307.884 39.3757 316.672 69.6645 325.429 99.9673C320.248 100.008 315.07 99.9673 309.89 99.9875C307.481 91.6207 305.099 83.2445 302.671 74.8762C292.684 74.8816 282.699 74.8591 272.713 74.8847C270.326 83.2577 267.863 91.6114 265.477 99.9852C260.336 99.9906 255.2 99.9805 250.059 99.9906C258.382 70.9054 266.803 41.8465 275.194 12.7783C276.085 10.1484 276.428 7.25473 278.119 4.98649M276.861 60.6428C284.101 60.6528 291.338 60.6474 298.579 60.6474C294.976 48.0444 291.315 35.4592 287.726 22.8578C284.115 35.4546 280.463 48.0397 276.868 60.6428H276.861Z" fill="white"/>
<path d="M204.438 0.215794H260.579V15.4363C253.687 15.4417 246.801 15.4285 239.913 15.4417C239.913 43.6221 239.918 71.8033 239.91 99.9838H225.103C225.103 71.8049 225.099 43.6237 225.108 15.4417C218.216 15.4285 211.329 15.4417 204.437 15.4363C204.437 10.3589 204.429 5.28851 204.437 0.211914L204.438 0.215794Z" fill="white"/>
<path d="M341.879 0.835332C343.3 0.34102 344.818 0.172628 346.32 0.207548C352.22 0.2285 358.123 0.212981 364.022 0.216085C373.959 0.400772 383.443 6.59791 387.745 15.5894C390.722 21.428 391.028 28.218 390.279 34.6231C389.759 41.3286 386.963 48.0332 381.836 52.4781C379.128 54.9031 375.755 56.3744 372.856 58.5348C371.263 59.7524 371.184 62.1199 372.007 63.8139C379.838 75.9684 387.979 87.9328 395.975 99.9825C390.127 99.9926 384.279 99.9693 378.43 99.9926C370.777 88.4341 363.2 76.8166 355.576 65.2418C353.334 61.9469 352.724 57.5842 354.068 53.8245C355.114 50.9401 357.622 48.8309 360.414 47.7422C365.745 45.6967 371.001 42.4856 373.953 37.4276C376.2 33.6275 376.083 28.9389 375.073 24.7796C373.888 19.381 368.656 15.1331 363.125 15.3186C359.3 15.3442 355.479 15.3015 351.66 15.3357C349.931 15.2953 348.305 16.807 348.327 18.5669C348.308 45.7075 348.335 72.8497 348.319 99.9895C343.345 99.9794 338.378 99.9895 333.404 99.9841C333.395 70.7661 333.414 41.5466 333.395 12.3294C333.427 7.2125 337.047 2.39354 341.874 0.839212L341.879 0.835332Z" fill="white"/>
<path d="M403.797 0.21582H419.492C419.487 33.4744 419.502 66.7275 419.482 99.9846C414.257 99.9698 409.027 99.9846 403.797 99.9799V0.218924V0.21582Z" fill="white"/>
<path d="M44.2578 0.0120674C46.7705 0.00430737 49.2846 0.0120674 51.798 0.00585938C51.8081 5.94692 51.798 11.8887 51.8019 17.8283C51.8281 22.7884 51.6884 27.7463 51.4839 32.6995C51.1473 39.8535 50.7019 47.0214 49.5232 54.0946C48.7134 58.9694 47.036 63.672 44.9549 68.1371C41.5592 75.3314 36.2244 81.4183 30.2272 86.5384C24.8623 91.2844 18.4584 94.7399 11.7233 97.0788C7.91305 98.3964 3.99242 99.4146 0 99.9803C0.00385965 94.9983 0.00385965 90.0125 0 85.0306C4.80603 84.3051 9.42603 82.5901 13.718 80.3242C18.8096 77.6183 23.3941 73.9765 27.2514 69.6868C31.2361 65.2558 34.4119 60.1257 36.8218 54.6789C39.6602 48.4166 41.1786 41.653 42.2114 34.8793C43.5052 26.2704 44.0448 17.5598 44.2447 8.85769C44.2733 5.9151 44.2486 2.96475 44.2578 0.0182754V0.0120674Z" fill="white"/>
<path d="M54.832 0.0220952C59.4582 -0.00816876 64.0867 0.0174392 68.7144 0.00890324C68.716 33.3319 68.716 66.6557 68.7144 99.9833C64.0983 99.9934 59.4798 99.9616 54.8637 100C54.805 89.3746 54.856 78.7465 54.8398 68.1215C54.8336 45.4228 54.8482 22.7247 54.832 0.0259752V0.0220952Z" fill="white"/>
<path d="M71.8003 0.00866487C74.3006 0.00711287 76.7985 0.00245687 79.2973 0.0102169C79.2162 10.1704 79.5597 20.35 80.7655 30.4449C81.7512 38.2856 83.1415 46.1838 86.2477 53.489C89.1926 60.5561 93.4382 67.1257 98.9699 72.4203C104.252 77.4845 110.654 81.3769 117.609 83.618C119.55 84.2427 121.534 84.7316 123.551 85.0272C123.549 90.0068 123.547 94.988 123.551 99.9668C119.587 99.4267 115.701 98.4 111.918 97.1072C107.413 95.5319 103.056 93.4918 99.0548 90.8752C96.1331 88.9856 93.4761 86.7251 90.9241 84.3676C86.7178 80.4682 82.9524 76.0349 80.1248 71.0165C77.9124 67.1094 76.2991 62.8856 75.0347 58.578C73.8768 54.2495 73.382 49.7766 72.9327 45.3271C72.0635 35.7109 71.7385 26.0458 71.8003 16.3931C71.8057 10.9324 71.8034 5.4686 71.8057 0.00866487H71.8003Z" fill="white"/>
<path d="M44.2578 0.01164C44.2493 2.95889 44.274 5.90846 44.2447 8.85726C44.0448 17.5593 43.506 26.2691 42.2114 34.8789C41.1786 41.6526 39.6594 48.4162 36.8218 54.6785C34.4119 60.1284 31.2361 65.2562 27.2514 69.6864C23.3941 73.9792 18.8096 77.6178 13.718 80.3238C9.42603 82.5928 4.80603 84.3054 0 85.0302C0.00385965 90.0121 0.00385965 94.9979 0 99.9798C3.99242 99.4141 7.91305 98.396 11.7233 97.0784C18.4584 94.7395 24.8623 91.284 30.2272 86.538C36.2244 81.4179 41.5592 75.331 44.9549 68.1367C47.0352 63.6716 48.7134 58.969 49.5232 54.0942C50.7019 47.0217 51.1481 39.853 51.4839 32.6991C51.6884 27.7459 51.8281 22.788 51.8019 17.8278C51.798 11.8829 51.8081 5.94106 51.798 0C49.2839 0.006208 46.7705 -0.002328 44.2578 0.006208" fill="white"/>
<path d="M54.832 0.0213794C54.8482 22.7225 54.8336 45.4174 54.8405 68.1185C54.8567 78.7442 54.8058 89.3724 54.8652 99.9973C59.4806 99.9554 64.0983 99.9873 68.7152 99.9803C68.7167 66.6573 68.7167 33.3335 68.7152 0.00585938C64.0867 0.0174994 59.4582 -0.00966062 54.832 0.0213794Z" fill="white"/>
<path d="M71.8037 0.00878906C71.8022 5.46873 71.8037 10.9325 71.8037 16.3925C71.742 26.0459 72.067 35.7102 72.9362 45.3264C73.3854 49.776 73.8802 54.2481 75.0381 58.5774C76.3025 62.8842 77.9159 67.108 80.1282 71.0159C82.955 76.0335 86.7213 80.4676 90.9275 84.367C93.4795 86.7245 96.1365 88.9849 99.0583 90.873C103.06 93.4912 107.417 95.5313 111.922 97.1066C115.704 98.3994 119.591 99.426 123.555 99.9661C123.55 94.9865 123.552 90.0062 123.555 85.0258C121.537 84.7317 119.553 84.242 117.612 83.6174C110.657 81.3763 104.255 77.4839 98.9733 72.4197C93.4417 67.125 89.1961 60.5562 86.2512 53.4884C83.1449 46.1831 81.7547 38.285 80.7689 30.442C79.5632 20.3493 79.2197 10.1697 79.3007 0.00956506C76.7881 0.00801306 74.2893 0.0126691 71.7891 0.0149971" fill="white"/>
<path d="M437.438 90.1001L443.266 91.8756L443.152 89.8727C443.152 84.3561 447.852 80.7275 453.075 80.7275C459.054 80.7275 463.15 85.413 463.15 91.271C463.15 94.7871 461.309 98.3024 458.188 99.9638L455.707 97.3169C458.112 96.4485 459.917 93.5385 459.917 91.0072C459.917 87.1536 456.76 84.1295 452.962 84.1295C449.315 84.1295 446.233 87.263 446.233 90.9288C446.233 92.9317 447.172 95.0114 448.752 96.2569V96.939L434.203 92.5546V81.1528H437.436V90.1102H437.444L437.438 90.1001Z" fill="white"/>
<path d="M459.318 61.9512H462.548V80.3548L447.323 67.8821C445.896 66.7112 444.128 65.3516 442.248 65.3516C439.278 65.3516 436.836 67.997 436.836 70.9435C436.836 73.855 439.167 76.235 442.023 76.4243V79.9761C436.987 79.4096 433.602 76.1217 433.602 70.9435C433.602 66.1066 437.173 61.9512 442.098 61.9512C444.202 61.9512 446.307 62.7458 447.926 64.065L459.315 73.4375V61.9512H459.323H459.318Z" fill="white"/>
<path d="M433.602 46.3835C433.602 54.5439 440.258 61.181 448.439 61.181C456.556 61.181 463.16 54.5439 463.16 46.3835C463.16 37.9856 456.668 31.4082 448.38 31.4082C440.092 31.4082 433.602 37.9856 433.602 46.3835ZM448.446 34.9064C454.849 34.9064 459.864 40.0257 459.864 46.5643C459.864 52.6947 454.742 57.682 448.446 57.682C442.084 57.682 436.908 52.6947 436.908 46.5643C436.899 39.9194 441.867 34.9064 448.443 34.9064H448.446Z" fill="white"/>
<path d="M433.602 14.9811C433.602 23.1415 440.258 29.7787 448.439 29.7787C456.556 29.7787 463.16 23.1415 463.16 14.9811C463.16 6.58401 456.672 0.00585938 448.389 0.00585938C440.104 0.00585938 433.602 6.58401 433.602 14.9811ZM448.446 3.50484C454.849 3.50484 459.864 8.62412 459.864 15.1627C459.864 21.2931 454.742 26.282 448.446 26.282C442.084 26.282 436.908 21.2931 436.908 15.1627C436.899 8.51548 441.867 3.50484 448.443 3.50484H448.446Z" fill="white"/>
</g>
<defs>
<clipPath id="clip0_4_4169">
<rect width="463.158" height="100" fill="white"/>
</clipPath>
</defs>
</svg>
