<svg width="715" height="100" viewBox="0 0 715 100" fill="none" xmlns="http://www.w3.org/2000/svg">
<g clip-path="url(#clip0_4_4260)">
<path d="M92.0768 19.085L90.2725 26.7115C90.4771 27.6043 90.7747 28.4786 91.1096 29.3342C91.2584 29.7062 91.4072 30.0597 91.556 30.4131L93.7323 21.1869H114.417L102.624 71.0567H83.7993C83.6505 71.1311 83.5203 71.2055 83.3715 71.2799C82.8692 71.5217 82.3298 71.7635 81.7718 71.8565C81.3253 71.9309 80.8231 71.8751 80.5069 71.5403C80.3209 71.3543 80.2279 71.1125 80.1535 70.8521C80.0977 70.6289 80.0419 70.4056 80.0233 70.1824L79.3164 73.1586H104.316L117.095 19.085H92.0768Z" fill="white"/>
<path d="M23.6421 0L0 100H25L37.407 47.5446C37.2768 47.2656 37.1466 47.0052 37.035 46.7262C36.7932 46.1868 36.5699 45.6473 36.4025 45.0893C36.2909 44.6987 36.1979 44.2894 36.1235 43.8988L23.3445 97.8981H2.65997L25.3162 2.10193H45.0893C45.2195 1.91592 45.3683 1.72991 45.5543 1.5811C45.8333 1.35789 46.1682 1.22768 46.5216 1.20908C46.9866 1.19048 47.4144 1.33929 47.7679 1.6369C47.9167 1.74851 48.0469 1.89732 48.1771 2.02753L48.6421 0H23.6421Z" fill="white"/>
<path d="M83.2225 10.9934C83.6875 10.64 84.3013 10.4725 84.878 10.5283C85.436 10.5841 85.9568 10.7702 86.3289 11.2166C86.5893 11.5142 86.7753 11.8676 86.9985 12.1838L87.631 9.54248H62.6124L56.7344 34.4309C56.8832 34.6727 57.0134 34.9331 57.1064 35.1935C57.4598 36.105 57.59 37.0908 57.776 38.0581C57.8132 38.2441 57.8504 38.4487 57.8877 38.6347L64.2679 11.6258H82.59C82.776 11.4026 82.9807 11.1794 83.2225 10.9934Z" fill="white"/>
<path d="M75.6125 58.0545C75.3521 56.9012 75.2405 55.7108 75.0917 54.5389C75.0545 54.2971 75.0359 54.0738 74.9987 53.832L68.8789 79.7063C68.9533 79.8737 69.0091 80.0225 69.0835 80.1899C69.3997 81.0084 69.6974 81.8454 69.9578 82.6825H70.3298L75.9102 59.0776C75.78 58.7427 75.6869 58.4079 75.6125 58.0545Z" fill="white"/>
<path d="M68.7881 80.0223L68.6579 80.5989H51.3774C50.2613 81.3802 48.8849 81.901 47.5642 81.4174C47.0061 81.2128 46.6341 80.7849 46.2993 80.3199C46.2063 80.1711 46.0947 80.0223 46.0017 79.8921L45.332 82.7195H69.7554C69.4578 81.7894 69.1416 80.8966 68.7881 80.0223Z" fill="white"/>
<path d="M47.0223 2.10193L67.5952 80.599H46.9479L26.375 2.10193H47.0223ZM48.6406 0H23.6406L45.311 82.6823H70.311L48.6406 0Z" fill="white"/>
<path d="M85.995 11.6444L101.564 71.0566H80.9169L65.3477 11.6444H85.995ZM87.6133 9.54248H62.6133L79.28 73.1586H104.28L87.6133 9.54248Z" fill="white"/>
<path d="M239.789 26.0046L241.649 19.085H183.688L184.339 26.0046H202.958L193.397 66.425C192.597 69.829 195.183 73.1028 198.68 73.1028H209.878L221.02 26.0046H239.789Z" fill="white"/>
<path d="M523.159 19.1222L512.036 66.1832H503.368L514.491 19.1036H496.429L485.287 66.1832H476.619L487.761 19.085H469.7L458.502 66.4436C457.702 69.8476 460.287 73.1214 463.784 73.1214L528.461 73.14L541.24 19.1222H523.159Z" fill="white"/>
<path d="M639.083 19.1036L627.959 66.1832H621.281L616.985 19.085H599.332L603.815 68.1735C604.075 70.9637 606.419 73.1028 609.209 73.1028L644.384 73.14L657.163 19.1222H639.083V19.1036Z" fill="white"/>
<path d="M673.715 19.085L665.828 19.1222L654.63 66.4622C653.831 69.8662 656.416 73.14 659.913 73.14H671.111L701.319 73.1028L702.956 66.1832H672.748L677.659 45.387H704.389L706.026 38.4674H679.314L682.253 26.0046H712.462L714.098 19.1036L673.715 19.085Z" fill="white"/>
<path d="M248.215 19.1408L237.017 66.4808C236.217 69.8848 238.803 73.1586 242.3 73.1586L284.041 73.1028L295.239 25.7628C296.039 22.3588 293.453 19.085 289.956 19.085L248.215 19.1408ZM255.153 66.1832L264.659 26.0046H277.103L267.598 66.1832H255.153Z" fill="white"/>
<path d="M305.486 19.085L292.707 73.1028H310.769L321.911 26.0046H330.579L319.437 73.1214H337.499L348.641 26.0046H357.309L346.167 73.14H364.229L375.427 25.7814C376.226 22.3774 373.641 19.1036 370.144 19.1036L305.486 19.085Z" fill="white"/>
<path d="M385.696 19.1221L374.498 66.4621C373.698 69.8661 376.283 73.1399 379.78 73.1399H390.978L403.757 19.1221H385.696Z" fill="white"/>
<path d="M137.685 19.085L124.906 73.1028H142.968L146.279 59.0589H163.783L165.066 73.1028H182.719L178.236 24.0143C177.975 21.2241 175.632 19.085 172.823 19.085H137.685ZM147.935 52.1393L154.11 26.0046H160.788L163.169 52.1393H147.935Z" fill="white"/>
<path d="M549.963 19.085L537.184 73.1028H555.245L558.575 59.0589H576.079L577.362 73.1028H595.015L590.532 24.0143C590.271 21.2241 587.928 19.085 585.119 19.085H549.963ZM560.212 52.1393L566.387 26.0046H573.065L575.446 52.1393H560.212Z" fill="white"/>
<path d="M425.931 38.4674L428.87 26.0046H459.376L461.013 19.085L412.408 19.1408L407.776 38.7092C406.976 42.1132 409.562 45.387 413.059 45.387H436.701L431.79 66.1832H401.284L399.629 73.1028H448.234L454.837 45.1452C455.637 41.7412 453.052 38.4674 449.555 38.4674H425.931Z" fill="white"/>
</g>
<defs>
<clipPath id="clip0_4_4260">
<rect width="714.1" height="100" fill="white"/>
</clipPath>
</defs>
</svg>
