<svg width="651" height="100" viewBox="0 0 651 100" fill="none" xmlns="http://www.w3.org/2000/svg">
<g clip-path="url(#clip0_4_7976)">
<path d="M147.811 83.7942H126L154.681 15.6358H186.743L191.541 83.7942H169.621L169.185 72.9979H152.064L147.811 83.7942ZM166.459 36.5741L158.825 55.6584H167.549V36.5741H166.459ZM240.175 83.7942H198.735L210.731 15.6358H231.451L222.509 66.3456H243.229L240.175 83.7942ZM286.628 83.7942H245.188L257.184 15.6358H277.904L268.962 66.3456H289.682L286.628 83.7942ZM350.53 63.7284L351.075 60.7839H345.841L348.785 44.0987H373.758L367.324 80.5226C358.455 83.7942 349.549 85.43 340.606 85.43C331.664 85.43 325.212 83.6488 321.249 80.0864C317.287 76.524 315.306 71.0349 315.306 63.6193C315.306 60.4931 315.815 55.8765 316.833 49.7695C319.014 37.1193 322.867 27.9952 328.392 22.3971C333.918 16.799 343.078 14 355.874 14C358.564 14 361.999 14.2908 366.179 14.8724C370.36 15.454 373.431 16.1084 375.394 16.8354L369.396 33.5206C363.944 32.5027 358.945 31.9938 354.401 31.9938C349.858 31.9938 346.604 32.3573 344.641 33.0843C342.678 33.8114 341.515 35.2654 341.151 37.4465L335.808 68.3086H342.678C345.15 68.3086 346.986 68.036 348.185 67.4907C349.385 66.9454 350.167 65.6913 350.53 63.7284ZM392.839 83.7942H371.029L399.71 15.6358H431.771L436.57 83.7942H414.65L414.214 72.9979H397.092L392.839 83.7942ZM411.487 36.5741L403.854 55.6584H412.578V36.5741H411.487ZM463.397 83.7942H441.804L457.726 15.6358H484.771L486.734 50.3148H487.498L501.675 15.6358H528.72L520.65 83.7942H498.948L503.528 50.751H502.765L489.133 83.7942H473.321L471.03 50.751H470.485L463.397 83.7942ZM578.114 58.0576H557.394L555.976 66.3456H581.385L578.332 83.7942H532.202L544.198 15.6358H589.782L584.112 33.0843H561.756L560.229 42.2448H580.949L578.114 58.0576ZM588.038 82.5946L594.145 64.6008C600.252 66.2729 605.85 67.109 610.939 67.109C616.028 67.109 620.136 66.8909 623.262 66.4547L624.134 61.002L615.083 60.1296C608.176 59.4753 603.287 57.9122 600.415 55.4403C597.543 52.9684 596.108 49.4787 596.108 44.9712C596.108 43.0082 596.326 40.8271 596.762 38.428C598.434 29.1221 601.469 22.7243 605.868 19.2346C610.266 15.7449 617.082 14 626.315 14C635.549 14 643.691 14.9088 650.743 16.7263L645.073 34.1749C638.747 33.0844 633.658 32.5391 629.805 32.5391C625.952 32.5391 622.68 32.7208 619.99 33.0843L619.118 38.428L626.424 39.1913C633.84 39.9911 639.111 41.7541 642.237 44.4804C645.363 47.2068 646.926 50.8601 646.926 55.4403C646.926 60.0932 645.909 64.8916 643.873 69.8354C642.855 72.3799 641.746 74.5065 640.547 76.215C639.347 77.9235 637.82 79.3775 635.967 80.5771C634.113 81.7767 632.422 82.6855 630.896 83.3034C629.369 83.9214 627.442 84.3758 625.116 84.6666C621.699 85.1755 617.518 85.43 612.575 85.43C603.56 85.43 595.38 84.4849 588.038 82.5946Z" fill="white"/>
<path d="M18.0952 57.1429L42.8571 71.4286L67.619 57.1429L47.619 45.5952V61.9048H38.0952V45.5952L18.0952 57.1429ZM38.0952 34.6429V32.619C34.6032 31.5873 31.746 29.623 29.5238 26.7262C27.3016 23.8294 26.1905 20.4762 26.1905 16.6667C26.1905 12.0635 27.8175 8.13492 31.0714 4.88095C34.3254 1.62698 38.254 0 42.8571 0C47.4603 0 51.3889 1.62698 54.6429 4.88095C57.8968 8.13492 59.5238 12.0635 59.5238 16.6667C59.5238 20.4762 58.4127 23.8294 56.1905 26.7262C53.9683 29.623 51.1111 31.5873 47.619 32.619V34.6429L80.9524 53.8095C82.4603 54.6825 83.631 55.8532 84.4643 57.3214C85.2976 58.7897 85.7143 60.3968 85.7143 62.1429V71.1905C85.7143 72.9365 85.2976 74.5437 84.4643 76.0119C83.631 77.4802 82.4603 78.6508 80.9524 79.5238L47.619 98.6905C46.1111 99.5635 44.5238 100 42.8571 100C41.1905 100 39.6032 99.5635 38.0952 98.6905L4.7619 79.5238C3.25397 78.6508 2.08333 77.4802 1.25 76.0119C0.416667 74.5437 0 72.9365 0 71.1905V62.1429C0 60.3968 0.416667 58.7897 1.25 57.3214C2.08333 55.8532 3.25397 54.6825 4.7619 53.8095L38.0952 34.6429ZM38.0952 79.6429L9.52381 63.2143V71.1905L42.8571 90.4762L76.1905 71.1905V63.2143L47.619 79.6429C46.1111 80.5159 44.5238 80.9524 42.8571 80.9524C41.1905 80.9524 39.6032 80.5159 38.0952 79.6429ZM42.8571 23.8095C44.8413 23.8095 46.5278 23.1151 47.9167 21.7262C49.3056 20.3373 50 18.6508 50 16.6667C50 14.6825 49.3056 12.996 47.9167 11.6071C46.5278 10.2183 44.8413 9.52381 42.8571 9.52381C40.873 9.52381 39.1865 10.2183 37.7976 11.6071C36.4087 12.996 35.7143 14.6825 35.7143 16.6667C35.7143 18.6508 36.4087 20.3373 37.7976 21.7262C39.1865 23.1151 40.873 23.8095 42.8571 23.8095Z" fill="white"/>
</g>
<defs>
<clipPath id="clip0_4_7976">
<rect width="650.74" height="100" fill="white"/>
</clipPath>
</defs>
</svg>
