<svg width="620" height="100" viewBox="0 0 620 100" fill="none" xmlns="http://www.w3.org/2000/svg">
<g clip-path="url(#clip0_4_7842)">
<path d="M176.963 42.5863L174.189 58.0474H157.542L153.433 82.1182H133.908L145.212 17.2707H185.285L179.841 33.8727H161.755L160.316 42.5863H176.963ZM197.719 71.8442L193.714 82.1182H173.159L200.184 17.2707H230.396L234.917 82.1182H214.265L213.853 71.8442H197.719ZM212.313 37.191H211.283L204.089 55.3498H212.313V37.191ZM267.594 58.4601L283.111 17.2707H303.763L277.355 82.1182H248.79L244.987 17.2707H266.668V58.4601H267.594ZM325.035 38.9559L320.306 65.9323H328.426C331.096 65.9323 333.083 65.6133 334.387 64.9649C335.687 64.2957 336.543 62.7874 336.953 60.4365L341.682 33.4566H333.461C330.857 33.4566 328.905 33.7791 327.601 34.424C326.301 35.0932 325.444 36.6015 325.035 38.9559ZM336.852 15.7139C345.552 15.7139 351.751 17.4337 355.451 20.8664C359.147 24.2784 360.999 29.5488 360.999 36.6743C360.999 43.7964 359.879 51.2583 357.643 59.0495C355.427 66.8234 351.897 72.8602 347.06 77.1736C342.24 81.5079 335.184 83.675 325.892 83.675C316.62 83.675 310.136 81.9725 306.436 78.5571C302.736 75.1209 300.888 69.8401 300.888 62.718C300.888 59.3269 301.367 54.8574 302.324 49.2957C303.284 43.7201 304.55 38.9108 306.127 34.8748C307.702 30.8144 309.827 27.3019 312.497 24.3269C317.636 18.5849 325.753 15.7139 336.852 15.7139ZM410.631 60.537L417.41 82.1182H395.937L391.211 62.8221H386.994L383.707 82.1182H364.186L375.489 17.2707H406.315C418.027 17.2707 423.884 22.562 423.884 33.148C423.884 37.5031 423.236 41.6535 421.932 45.596C419.536 53.0682 415.767 58.0474 410.631 60.537ZM395.937 33.8727H392.032L389.772 46.8408H394.29C396.623 46.8408 398.378 46.5877 399.567 46.0814C400.774 45.5509 401.599 44.0634 402.032 41.6189C402.49 39.1535 402.719 37.6417 402.719 37.087C402.719 35.7035 402.192 34.8158 401.145 34.424C400.07 34.0565 398.333 33.8727 395.937 33.8727ZM444.435 82.1182H424.914L436.217 17.2707H455.739L444.435 82.1182ZM511.023 17.2707L508.045 33.8727H493.863L485.538 82.1182H466.016L474.338 33.8727H460.26L463.242 17.2707H511.023ZM553.874 42.5863L551.2 57.6313H531.675L530.34 65.5162H554.283L551.405 82.1182H507.941L519.245 17.2707H562.195L556.852 33.8727H535.788L534.349 42.5863H553.874ZM560.552 80.9774L566.308 63.8588C572.06 65.4469 577.334 66.2409 582.129 66.2409C586.925 66.2409 590.798 66.0363 593.742 65.6237L594.564 60.4365L586.037 59.6043C579.529 58.9802 574.914 57.4926 572.199 55.1417C569.501 52.7908 568.156 49.4725 568.156 45.1799C568.156 43.311 568.36 41.2374 568.773 38.9559C570.347 30.1001 573.201 24.0148 577.334 20.6931C581.491 17.3748 587.92 15.7139 596.62 15.7139C605.319 15.7139 612.989 16.5807 619.636 18.3075L614.293 34.9094C608.333 33.8727 603.537 33.3526 599.907 33.3526C596.276 33.3526 593.194 33.5259 590.659 33.8727L589.837 38.9559L596.724 39.6841C603.707 40.4434 608.676 42.1286 611.62 44.7291C614.567 47.3158 616.041 50.7832 616.041 55.1417C616.041 59.5696 615.08 64.1327 613.163 68.838C612.202 71.2583 611.152 73.2902 610.011 74.9268C608.891 76.5391 607.452 77.9122 605.694 79.0426C603.96 80.1938 602.372 81.0572 600.933 81.6327C599.494 82.2326 597.681 82.673 595.489 82.9503C592.268 83.4323 588.329 83.675 583.672 83.675C575.177 83.675 567.469 82.7735 560.552 80.9774Z" fill="white"/>
<path d="M51.9165 0C50.8365 0 49.7565 0.845003 48.9415 2.53L37.8565 25.195C36.2115 28.57 31.8465 31.755 28.1715 32.295L3.41155 35.93C-0.273454 36.47 -1.10345 39.06 1.56155 41.68L19.4865 59.32C22.1515 61.95 23.8165 67.12 23.1865 70.815L18.9465 95.74C18.4865 98.42 19.5065 100 21.3615 100C22.2115 99.965 23.0465 99.725 23.7915 99.295L45.9465 87.52C47.6015 86.65 49.7615 86.225 51.9215 86.225C54.0965 86.225 56.2765 86.655 57.9065 87.52L80.0715 99.295C80.9615 99.77 81.8015 100 82.4965 100C84.3565 100 85.3665 98.42 84.9165 95.74L80.6715 70.815C80.0515 67.12 81.7166 61.945 84.3666 59.32L102.302 41.68C104.962 39.06 104.137 36.47 100.447 35.93L75.6765 32.305C72.0015 31.76 67.6415 28.575 65.9965 25.2L54.9215 2.53C54.0865 0.845003 53.0165 0 51.9165 0Z" fill="white"/>
</g>
<defs>
<clipPath id="clip0_4_7842">
<rect width="619.636" height="100" fill="white"/>
</clipPath>
</defs>
</svg>
