<svg width="712" height="100" viewBox="0 0 712 100" fill="none" xmlns="http://www.w3.org/2000/svg">
<g clip-path="url(#clip0_4_7846)">
<path d="M59.0358 0C34.7827 0 14.547 17.2105 9.92326 40.0622H1.03733C0.64445 40.0622 0.285305 40.2837 0.109573 40.6343C-0.0661576 40.9849 -0.0283235 41.4045 0.207308 41.7181L13.5916 59.5236C13.7875 59.7842 14.095 59.9377 14.4216 59.9377C14.7482 59.9377 15.0557 59.7842 15.2516 59.5236L28.6359 41.7181C28.8715 41.4045 28.9093 40.9849 28.7336 40.6343C28.5579 40.2837 28.1987 40.0622 27.8058 40.0622H21.235C25.6453 23.3301 40.87 10.9729 59.0358 10.9729C80.653 10.9729 98.1511 28.4315 98.1511 50C98.1511 71.5685 80.653 89.0271 59.0358 89.0271C45.4768 89.0271 33.5411 82.1498 26.5217 71.7031C26.3291 71.4163 26.0059 71.2442 25.6599 71.2442H15.3227C14.9615 71.2443 14.6263 71.4318 14.4379 71.7393C14.2494 72.0468 14.2348 72.4299 14.3994 72.7508C22.7004 88.9289 39.578 100 59.0358 100C86.6995 100 109.149 77.6013 109.149 50C109.149 22.3985 86.6995 0 59.0358 0Z" fill="white"/>
<path d="M55.7068 21.6758C54.8785 21.6758 54.207 22.3457 54.207 23.1722V55.7473C54.2071 56.2771 54.488 56.7674 54.9455 57.0364L78.194 70.7061C78.9073 71.1255 79.8263 70.8888 80.247 70.1773L82.5136 66.3448C82.9333 65.6348 82.6985 64.7198 81.9884 64.2984L61.668 52.243V23.1722C61.668 22.3457 60.9965 21.6758 60.1682 21.6758H55.7068Z" fill="white"/>
<path d="M182.226 66.2964L179.255 83.3964H138.934L150.605 16.6036H170.766L162.066 66.2964H182.226ZM198.034 72.8178L193.898 83.3964H172.676L200.584 16.6036H231.78L236.448 83.3964H215.119L214.694 72.8178H198.034ZM213.105 37.1214H212.044L204.616 55.8214H213.105V37.1214ZM241.541 82.2214L247.48 64.5893C253.426 66.225 258.869 67.0464 263.823 67.0464C268.773 67.0464 272.769 66.8321 275.812 66.4036L276.662 61.0607L267.855 60.2071C261.134 59.5643 256.373 58.0321 253.566 55.6107C250.78 53.1893 249.391 49.7678 249.391 45.35C249.391 43.4286 249.601 41.2893 250.026 38.9393C251.655 29.8179 254.601 23.55 258.869 20.1286C263.159 16.7107 269.798 15 278.784 15C287.769 15 295.691 15.8929 302.551 17.6714L297.034 34.7714C290.88 33.7036 285.93 33.1679 282.176 33.1679C278.43 33.1679 275.248 33.3464 272.63 33.7036L271.78 38.9393L278.891 39.6857C286.105 40.4714 291.234 42.2036 294.273 44.8893C297.319 47.55 298.837 51.1214 298.837 55.6107C298.837 60.1714 297.848 64.8714 295.866 69.7178C294.876 72.2107 293.791 74.3 292.612 75.9857C291.455 77.65 289.973 79.0643 288.159 80.225C286.362 81.4107 284.726 82.3036 283.237 82.8964C281.755 83.5143 279.88 83.9678 277.616 84.2536C274.291 84.75 270.223 85 265.416 85C256.644 85 248.684 84.075 241.541 82.2214ZM360.698 16.6036L357.619 33.7036H342.98L334.384 83.3964H314.223L322.819 33.7036H308.284L311.359 16.6036H360.698ZM414.816 67.2607H401.655L398.898 83.3964H378.737L390.409 16.6036H422.241C434.266 16.6036 440.28 22.2321 440.28 33.4893C440.28 38.8321 439.537 43.65 438.051 47.95C436.566 52.275 434.93 55.7071 433.134 58.2464C431.319 60.7643 428.83 62.9 425.673 64.6607C422.534 66.3929 418.916 67.2607 414.816 67.2607ZM412.159 33.7036H407.491L404.626 50.1607H409.294C411.701 50.1607 413.516 49.9 414.744 49.375C415.991 48.8321 416.794 47.5964 417.148 45.6714C418.069 40.4 418.526 37.5143 418.526 37.0143C418.526 35.6607 417.998 34.7714 416.937 34.3429C415.876 33.9143 414.284 33.7036 412.159 33.7036ZM482.83 66.2964L479.859 83.3964H439.537L451.209 16.6036H471.369L462.669 66.2964H482.83ZM498.637 72.8178L494.501 83.3964H473.28L501.187 16.6036H532.38L537.048 83.3964H515.723L515.298 72.8178H498.637ZM513.705 37.1214H512.644L505.216 55.8214H513.705V37.1214ZM541.612 16.6036H563.894L565.273 40.1143H566.019L575.78 16.6036H598.062L571.323 65.2286L568.244 83.3964H548.084L551.162 65.2286L541.612 16.6036ZM637.744 42.6786L634.987 58.175H614.826L613.448 66.2964H638.169L635.198 83.3964H590.316L601.987 16.6036H646.341L640.823 33.7036H619.069L617.584 42.6786H637.744ZM674.776 83.3964H646.551L658.223 16.6036H686.448C695.576 16.6036 702.055 18.2321 705.901 21.4821C709.769 24.7143 711.701 29.9607 711.701 37.2286C711.701 40.9321 711.276 45.2071 710.43 50.0536C708.309 62.0214 704.673 70.5714 699.534 75.7036C694.416 80.8321 686.166 83.3964 674.776 83.3964ZM683.691 33.7036H675.309L669.684 66.2964H678.066C680.823 66.2964 682.876 65.9678 684.219 65.3C685.566 64.6143 686.448 63.0571 686.873 60.6321L690.587 39.3679C690.655 38.9393 690.691 38.3679 690.691 37.6571C690.691 36.0179 690.126 34.95 688.994 34.45C687.862 33.95 686.094 33.7036 683.691 33.7036Z" fill="white"/>
</g>
<defs>
<clipPath id="clip0_4_7846">
<rect width="711.7" height="100" fill="white"/>
</clipPath>
</defs>
</svg>
