<svg width="756" height="100" viewBox="0 0 756 100" fill="none" xmlns="http://www.w3.org/2000/svg">
<g clip-path="url(#clip0_4_4289)">
<path d="M3.38449 8.24457C5.2537 8.24457 6.76899 6.72928 6.76899 4.86008C6.76899 2.99088 5.2537 1.47559 3.38449 1.47559C1.51529 1.47559 0 2.99088 0 4.86008C0 6.72928 1.51529 8.24457 3.38449 8.24457Z" fill="white"/>
<path d="M3.38449 18.2602C5.2537 18.2602 6.76899 16.7449 6.76899 14.8757C6.76899 13.0065 5.2537 11.4912 3.38449 11.4912C1.51529 11.4912 0 13.0065 0 14.8757C0 16.7449 1.51529 18.2602 3.38449 18.2602Z" fill="white"/>
<path d="M3.38449 28.2758C5.2537 28.2758 6.76899 26.7605 6.76899 24.8913C6.76899 23.0221 5.2537 21.5068 3.38449 21.5068C1.51529 21.5068 0 23.0221 0 24.8913C0 26.7605 1.51529 28.2758 3.38449 28.2758Z" fill="white"/>
<path d="M3.38449 38.2924C5.2537 38.2924 6.76899 36.7771 6.76899 34.9079C6.76899 33.0387 5.2537 31.5234 3.38449 31.5234C1.51529 31.5234 0 33.0387 0 34.9079C0 36.7771 1.51529 38.2924 3.38449 38.2924Z" fill="white"/>
<path d="M3.38449 48.308C5.2537 48.308 6.76899 46.7928 6.76899 44.9236C6.76899 43.0544 5.2537 41.5391 3.38449 41.5391C1.51529 41.5391 0 43.0544 0 44.9236C0 46.7928 1.51529 48.308 3.38449 48.308Z" fill="white"/>
<path d="M7.91184 13.2622C9.78104 13.2622 11.2963 11.7469 11.2963 9.87766C11.2963 8.00845 9.78104 6.49316 7.91184 6.49316C6.04263 6.49316 4.52734 8.00845 4.52734 9.87766C4.52734 11.7469 6.04263 13.2622 7.91184 13.2622Z" fill="white"/>
<path d="M7.91184 33.2944C9.78104 33.2944 11.2963 31.7791 11.2963 29.9099C11.2963 28.0407 9.78104 26.5254 7.91184 26.5254C6.04263 26.5254 4.52734 28.0407 4.52734 29.9099C4.52734 31.7791 6.04263 33.2944 7.91184 33.2944Z" fill="white"/>
<path d="M7.91184 43.2895C9.78104 43.2895 11.2963 41.7742 11.2963 39.905C11.2963 38.0358 9.78104 36.5205 7.91184 36.5205C6.04263 36.5205 4.52734 38.0358 4.52734 39.905C4.52734 41.7742 6.04263 43.2895 7.91184 43.2895Z" fill="white"/>
<path d="M7.91184 53.3061C9.78104 53.3061 11.2963 51.7908 11.2963 49.9216C11.2963 48.0524 9.78104 46.5371 7.91184 46.5371C6.04263 46.5371 4.52734 48.0524 4.52734 49.9216C4.52734 51.7908 6.04263 53.3061 7.91184 53.3061Z" fill="white"/>
<path d="M7.91184 93.3686C9.78104 93.3686 11.2963 91.8533 11.2963 89.9841C11.2963 88.1149 9.78104 86.5996 7.91184 86.5996C6.04263 86.5996 4.52734 88.1149 4.52734 89.9841C4.52734 91.8533 6.04263 93.3686 7.91184 93.3686Z" fill="white"/>
<path d="M12.4353 8.24457C14.3045 8.24457 15.8198 6.72928 15.8198 4.86008C15.8198 2.99088 14.3045 1.47559 12.4353 1.47559C10.5661 1.47559 9.05078 2.99088 9.05078 4.86008C9.05078 6.72928 10.5661 8.24457 12.4353 8.24457Z" fill="white"/>
<path d="M12.4353 38.2924C14.3045 38.2924 15.8198 36.7771 15.8198 34.9079C15.8198 33.0387 14.3045 31.5234 12.4353 31.5234C10.5661 31.5234 9.05078 33.0387 9.05078 34.9079C9.05078 36.7771 10.5661 38.2924 12.4353 38.2924Z" fill="white"/>
<path d="M12.4353 48.308C14.3045 48.308 15.8198 46.7928 15.8198 44.9236C15.8198 43.0544 14.3045 41.5391 12.4353 41.5391C10.5661 41.5391 9.05078 43.0544 9.05078 44.9236C9.05078 46.7928 10.5661 48.308 12.4353 48.308Z" fill="white"/>
<path d="M12.4353 58.3237C14.3045 58.3237 15.8198 56.8084 15.8198 54.9392C15.8198 53.07 14.3045 51.5547 12.4353 51.5547C10.5661 51.5547 9.05078 53.07 9.05078 54.9392C9.05078 56.8084 10.5661 58.3237 12.4353 58.3237Z" fill="white"/>
<path d="M16.9626 23.2788C18.8318 23.2788 20.3471 21.7635 20.3471 19.8943C20.3471 18.0251 18.8318 16.5098 16.9626 16.5098C15.0934 16.5098 13.5781 18.0251 13.5781 19.8943C13.5781 21.7635 15.0934 23.2788 16.9626 23.2788Z" fill="white"/>
<path d="M16.9626 43.2895C18.8318 43.2895 20.3471 41.7742 20.3471 39.905C20.3471 38.0358 18.8318 36.5205 16.9626 36.5205C15.0934 36.5205 13.5781 38.0358 13.5781 39.905C13.5781 41.7742 15.0934 43.2895 16.9626 43.2895Z" fill="white"/>
<path d="M16.9626 53.3061C18.8318 53.3061 20.3471 51.7908 20.3471 49.9216C20.3471 48.0524 18.8318 46.5371 16.9626 46.5371C15.0934 46.5371 13.5781 48.0524 13.5781 49.9216C13.5781 51.7908 15.0934 53.3061 16.9626 53.3061Z" fill="white"/>
<path d="M16.9626 63.3217C18.8318 63.3217 20.3471 61.8064 20.3471 59.9372C20.3471 58.068 18.8318 56.5527 16.9626 56.5527C15.0934 56.5527 13.5781 58.068 13.5781 59.9372C13.5781 61.8064 15.0934 63.3217 16.9626 63.3217Z" fill="white"/>
<path d="M16.9626 93.3686C18.8318 93.3686 20.3471 91.8533 20.3471 89.9841C20.3471 88.1149 18.8318 86.5996 16.9626 86.5996C15.0934 86.5996 13.5781 88.1149 13.5781 89.9841C13.5781 91.8533 15.0934 93.3686 16.9626 93.3686Z" fill="white"/>
<path d="M21.4861 8.24457C23.3553 8.24457 24.8706 6.72928 24.8706 4.86008C24.8706 2.99088 23.3553 1.47559 21.4861 1.47559C19.6169 1.47559 18.1016 2.99088 18.1016 4.86008C18.1016 6.72928 19.6169 8.24457 21.4861 8.24457Z" fill="white"/>
<path d="M21.4861 18.2602C23.3553 18.2602 24.8706 16.7449 24.8706 14.8757C24.8706 13.0065 23.3553 11.4912 21.4861 11.4912C19.6169 11.4912 18.1016 13.0065 18.1016 14.8757C18.1016 16.7449 19.6169 18.2602 21.4861 18.2602Z" fill="white"/>
<path d="M21.4861 28.2758C23.3553 28.2758 24.8706 26.7605 24.8706 24.8913C24.8706 23.0221 23.3553 21.5068 21.4861 21.5068C19.6169 21.5068 18.1016 23.0221 18.1016 24.8913C18.1016 26.7605 19.6169 28.2758 21.4861 28.2758Z" fill="white"/>
<path d="M21.4861 48.308C23.3553 48.308 24.8706 46.7928 24.8706 44.9236C24.8706 43.0544 23.3553 41.5391 21.4861 41.5391C19.6169 41.5391 18.1016 43.0544 18.1016 44.9236C18.1016 46.7928 19.6169 48.308 21.4861 48.308Z" fill="white"/>
<path d="M21.4861 58.3237C23.3553 58.3237 24.8706 56.8084 24.8706 54.9392C24.8706 53.07 23.3553 51.5547 21.4861 51.5547C19.6169 51.5547 18.1016 53.07 18.1016 54.9392C18.1016 56.8084 19.6169 58.3237 21.4861 58.3237Z" fill="white"/>
<path d="M21.4861 68.3393C23.3553 68.3393 24.8706 66.824 24.8706 64.9548C24.8706 63.0856 23.3553 61.5703 21.4861 61.5703C19.6169 61.5703 18.1016 63.0856 18.1016 64.9548C18.1016 66.824 19.6169 68.3393 21.4861 68.3393Z" fill="white"/>
<path d="M26.0134 23.2788C27.8826 23.2788 29.3979 21.7635 29.3979 19.8943C29.3979 18.0251 27.8826 16.5098 26.0134 16.5098C24.1442 16.5098 22.6289 18.0251 22.6289 19.8943C22.6289 21.7635 24.1442 23.2788 26.0134 23.2788Z" fill="white"/>
<path d="M26.0134 43.2895C27.8826 43.2895 29.3979 41.7742 29.3979 39.905C29.3979 38.0358 27.8826 36.5205 26.0134 36.5205C24.1442 36.5205 22.6289 38.0358 22.6289 39.905C22.6289 41.7742 24.1442 43.2895 26.0134 43.2895Z" fill="white"/>
<path d="M26.0134 53.3061C27.8826 53.3061 29.3979 51.7908 29.3979 49.9216C29.3979 48.0524 27.8826 46.5371 26.0134 46.5371C24.1442 46.5371 22.6289 48.0524 22.6289 49.9216C22.6289 51.7908 24.1442 53.3061 26.0134 53.3061Z" fill="white"/>
<path d="M26.0134 63.3217C27.8826 63.3217 29.3979 61.8064 29.3979 59.9372C29.3979 58.068 27.8826 56.5527 26.0134 56.5527C24.1442 56.5527 22.6289 58.068 22.6289 59.9372C22.6289 61.8064 24.1442 63.3217 26.0134 63.3217Z" fill="white"/>
<path d="M26.0134 73.3374C27.8826 73.3374 29.3979 71.8221 29.3979 69.9529C29.3979 68.0837 27.8826 66.5684 26.0134 66.5684C24.1442 66.5684 22.6289 68.0837 22.6289 69.9529C22.6289 71.8221 24.1442 73.3374 26.0134 73.3374Z" fill="white"/>
<path d="M26.0134 93.3686C27.8826 93.3686 29.3979 91.8533 29.3979 89.9841C29.3979 88.1149 27.8826 86.5996 26.0134 86.5996C24.1442 86.5996 22.6289 88.1149 22.6289 89.9841C22.6289 91.8533 24.1442 93.3686 26.0134 93.3686Z" fill="white"/>
<path d="M30.5407 8.24457C32.4099 8.24457 33.9252 6.72928 33.9252 4.86008C33.9252 2.99088 32.4099 1.47559 30.5407 1.47559C28.6715 1.47559 27.1562 2.99088 27.1562 4.86008C27.1562 6.72928 28.6715 8.24457 30.5407 8.24457Z" fill="white"/>
<path d="M30.5407 48.308C32.4099 48.308 33.9252 46.7928 33.9252 44.9236C33.9252 43.0544 32.4099 41.5391 30.5407 41.5391C28.6715 41.5391 27.1562 43.0544 27.1562 44.9236C27.1562 46.7928 28.6715 48.308 30.5407 48.308Z" fill="white"/>
<path d="M30.5407 58.3237C32.4099 58.3237 33.9252 56.8084 33.9252 54.9392C33.9252 53.07 32.4099 51.5547 30.5407 51.5547C28.6715 51.5547 27.1562 53.07 27.1562 54.9392C27.1562 56.8084 28.6715 58.3237 30.5407 58.3237Z" fill="white"/>
<path d="M30.5407 68.3393C32.4099 68.3393 33.9252 66.824 33.9252 64.9548C33.9252 63.0856 32.4099 61.5703 30.5407 61.5703C28.6715 61.5703 27.1562 63.0856 27.1562 64.9548C27.1562 66.824 28.6715 68.3393 30.5407 68.3393Z" fill="white"/>
<path d="M30.5407 78.3549C32.4099 78.3549 33.9252 76.8396 33.9252 74.9704C33.9252 73.1012 32.4099 71.5859 30.5407 71.5859C28.6715 71.5859 27.1562 73.1012 27.1562 74.9704C27.1562 76.8396 28.6715 78.3549 30.5407 78.3549Z" fill="white"/>
<path d="M30.5407 88.3705C32.4099 88.3705 33.9252 86.8553 33.9252 84.9861C33.9252 83.1168 32.4099 81.6016 30.5407 81.6016C28.6715 81.6016 27.1562 83.1168 27.1562 84.9861C27.1562 86.8553 28.6715 88.3705 30.5407 88.3705Z" fill="white"/>
<path d="M35.0642 13.2622C36.9334 13.2622 38.4487 11.7469 38.4487 9.87766C38.4487 8.00845 36.9334 6.49316 35.0642 6.49316C33.195 6.49316 31.6797 8.00845 31.6797 9.87766C31.6797 11.7469 33.195 13.2622 35.0642 13.2622Z" fill="white"/>
<path d="M35.0642 33.2944C36.9334 33.2944 38.4487 31.7791 38.4487 29.9099C38.4487 28.0407 36.9334 26.5254 35.0642 26.5254C33.195 26.5254 31.6797 28.0407 31.6797 29.9099C31.6797 31.7791 33.195 33.2944 35.0642 33.2944Z" fill="white"/>
<path d="M35.0642 43.2895C36.9334 43.2895 38.4487 41.7742 38.4487 39.905C38.4487 38.0358 36.9334 36.5205 35.0642 36.5205C33.195 36.5205 31.6797 38.0358 31.6797 39.905C31.6797 41.7742 33.195 43.2895 35.0642 43.2895Z" fill="white"/>
<path d="M35.0642 53.3061C36.9334 53.3061 38.4487 51.7908 38.4487 49.9216C38.4487 48.0524 36.9334 46.5371 35.0642 46.5371C33.195 46.5371 31.6797 48.0524 31.6797 49.9216C31.6797 51.7908 33.195 53.3061 35.0642 53.3061Z" fill="white"/>
<path d="M35.0642 63.3217C36.9334 63.3217 38.4487 61.8064 38.4487 59.9372C38.4487 58.068 36.9334 56.5527 35.0642 56.5527C33.195 56.5527 31.6797 58.068 31.6797 59.9372C31.6797 61.8064 33.195 63.3217 35.0642 63.3217Z" fill="white"/>
<path d="M35.0642 73.3374C36.9334 73.3374 38.4487 71.8221 38.4487 69.9529C38.4487 68.0837 36.9334 66.5684 35.0642 66.5684C33.195 66.5684 31.6797 68.0837 31.6797 69.9529C31.6797 71.8221 33.195 73.3374 35.0642 73.3374Z" fill="white"/>
<path d="M35.0642 83.353C36.9334 83.353 38.4487 81.8377 38.4487 79.9685C38.4487 78.0993 36.9334 76.584 35.0642 76.584C33.195 76.584 31.6797 78.0993 31.6797 79.9685C31.6797 81.8377 33.195 83.353 35.0642 83.353Z" fill="white"/>
<path d="M35.0642 93.3686C36.9334 93.3686 38.4487 91.8533 38.4487 89.9841C38.4487 88.1149 36.9334 86.5996 35.0642 86.5996C33.195 86.5996 31.6797 88.1149 31.6797 89.9841C31.6797 91.8533 33.195 93.3686 35.0642 93.3686Z" fill="white"/>
<path d="M39.5915 8.24457C41.4607 8.24457 42.976 6.72928 42.976 4.86008C42.976 2.99088 41.4607 1.47559 39.5915 1.47559C37.7223 1.47559 36.207 2.99088 36.207 4.86008C36.207 6.72928 37.7223 8.24457 39.5915 8.24457Z" fill="white"/>
<path d="M39.5915 18.2602C41.4607 18.2602 42.976 16.7449 42.976 14.8757C42.976 13.0065 41.4607 11.4912 39.5915 11.4912C37.7223 11.4912 36.207 13.0065 36.207 14.8757C36.207 16.7449 37.7223 18.2602 39.5915 18.2602Z" fill="white"/>
<path d="M39.5915 38.2924C41.4607 38.2924 42.976 36.7771 42.976 34.9079C42.976 33.0387 41.4607 31.5234 39.5915 31.5234C37.7223 31.5234 36.207 33.0387 36.207 34.9079C36.207 36.7771 37.7223 38.2924 39.5915 38.2924Z" fill="white"/>
<path d="M39.5915 48.308C41.4607 48.308 42.976 46.7928 42.976 44.9236C42.976 43.0544 41.4607 41.5391 39.5915 41.5391C37.7223 41.5391 36.207 43.0544 36.207 44.9236C36.207 46.7928 37.7223 48.308 39.5915 48.308Z" fill="white"/>
<path d="M39.5915 58.3237C41.4607 58.3237 42.976 56.8084 42.976 54.9392C42.976 53.07 41.4607 51.5547 39.5915 51.5547C37.7223 51.5547 36.207 53.07 36.207 54.9392C36.207 56.8084 37.7223 58.3237 39.5915 58.3237Z" fill="white"/>
<path d="M39.5915 68.3393C41.4607 68.3393 42.976 66.824 42.976 64.9548C42.976 63.0856 41.4607 61.5703 39.5915 61.5703C37.7223 61.5703 36.207 63.0856 36.207 64.9548C36.207 66.824 37.7223 68.3393 39.5915 68.3393Z" fill="white"/>
<path d="M39.5915 78.3549C41.4607 78.3549 42.976 76.8396 42.976 74.9704C42.976 73.1012 41.4607 71.5859 39.5915 71.5859C37.7223 71.5859 36.207 73.1012 36.207 74.9704C36.207 76.8396 37.7223 78.3549 39.5915 78.3549Z" fill="white"/>
<path d="M44.115 13.2622C45.9842 13.2622 47.4995 11.7469 47.4995 9.87766C47.4995 8.00845 45.9842 6.49316 44.115 6.49316C42.2458 6.49316 40.7305 8.00845 40.7305 9.87766C40.7305 11.7469 42.2458 13.2622 44.115 13.2622Z" fill="white"/>
<path d="M44.115 33.2944C45.9842 33.2944 47.4995 31.7791 47.4995 29.9099C47.4995 28.0407 45.9842 26.5254 44.115 26.5254C42.2458 26.5254 40.7305 28.0407 40.7305 29.9099C40.7305 31.7791 42.2458 33.2944 44.115 33.2944Z" fill="white"/>
<path d="M44.115 43.2895C45.9842 43.2895 47.4995 41.7742 47.4995 39.905C47.4995 38.0358 45.9842 36.5205 44.115 36.5205C42.2458 36.5205 40.7305 38.0358 40.7305 39.905C40.7305 41.7742 42.2458 43.2895 44.115 43.2895Z" fill="white"/>
<path d="M44.115 53.3061C45.9842 53.3061 47.4995 51.7908 47.4995 49.9216C47.4995 48.0524 45.9842 46.5371 44.115 46.5371C42.2458 46.5371 40.7305 48.0524 40.7305 49.9216C40.7305 51.7908 42.2458 53.3061 44.115 53.3061Z" fill="white"/>
<path d="M44.115 63.3217C45.9842 63.3217 47.4995 61.8064 47.4995 59.9372C47.4995 58.068 45.9842 56.5527 44.115 56.5527C42.2458 56.5527 40.7305 58.068 40.7305 59.9372C40.7305 61.8064 42.2458 63.3217 44.115 63.3217Z" fill="white"/>
<path d="M44.115 73.3374C45.9842 73.3374 47.4995 71.8221 47.4995 69.9529C47.4995 68.0837 45.9842 66.5684 44.115 66.5684C42.2458 66.5684 40.7305 68.0837 40.7305 69.9529C40.7305 71.8221 42.2458 73.3374 44.115 73.3374Z" fill="white"/>
<path d="M44.115 93.3686C45.9842 93.3686 47.4995 91.8533 47.4995 89.9841C47.4995 88.1149 45.9842 86.5996 44.115 86.5996C42.2458 86.5996 40.7305 88.1149 40.7305 89.9841C40.7305 91.8533 42.2458 93.3686 44.115 93.3686Z" fill="white"/>
<path d="M48.6423 8.24457C50.5115 8.24457 52.0268 6.72928 52.0268 4.86008C52.0268 2.99088 50.5115 1.47559 48.6423 1.47559C46.7731 1.47559 45.2578 2.99088 45.2578 4.86008C45.2578 6.72928 46.7731 8.24457 48.6423 8.24457Z" fill="white"/>
<path d="M48.6423 68.3393C50.5115 68.3393 52.0268 66.824 52.0268 64.9548C52.0268 63.0856 50.5115 61.5703 48.6423 61.5703C46.7731 61.5703 45.2578 63.0856 45.2578 64.9548C45.2578 66.824 46.7731 68.3393 48.6423 68.3393Z" fill="white"/>
<path d="M48.6423 78.3549C50.5115 78.3549 52.0268 76.8396 52.0268 74.9704C52.0268 73.1012 50.5115 71.5859 48.6423 71.5859C46.7731 71.5859 45.2578 73.1012 45.2578 74.9704C45.2578 76.8396 46.7731 78.3549 48.6423 78.3549Z" fill="white"/>
<path d="M48.6423 88.3705C50.5115 88.3705 52.0268 86.8553 52.0268 84.9861C52.0268 83.1168 50.5115 81.6016 48.6423 81.6016C46.7731 81.6016 45.2578 83.1168 45.2578 84.9861C45.2578 86.8553 46.7731 88.3705 48.6423 88.3705Z" fill="white"/>
<path d="M53.1697 23.2788C55.0389 23.2788 56.5541 21.7635 56.5541 19.8943C56.5541 18.0251 55.0389 16.5098 53.1697 16.5098C51.3004 16.5098 49.7852 18.0251 49.7852 19.8943C49.7852 21.7635 51.3004 23.2788 53.1697 23.2788Z" fill="white"/>
<path d="M53.1697 43.2895C55.0389 43.2895 56.5541 41.7742 56.5541 39.905C56.5541 38.0358 55.0389 36.5205 53.1697 36.5205C51.3004 36.5205 49.7852 38.0358 49.7852 39.905C49.7852 41.7742 51.3004 43.2895 53.1697 43.2895Z" fill="white"/>
<path d="M53.1697 73.3374C55.0389 73.3374 56.5541 71.8221 56.5541 69.9529C56.5541 68.0837 55.0389 66.5684 53.1697 66.5684C51.3004 66.5684 49.7852 68.0837 49.7852 69.9529C49.7852 71.8221 51.3004 73.3374 53.1697 73.3374Z" fill="white"/>
<path d="M53.1697 83.353C55.0389 83.353 56.5541 81.8377 56.5541 79.9685C56.5541 78.0993 55.0389 76.584 53.1697 76.584C51.3004 76.584 49.7852 78.0993 49.7852 79.9685C49.7852 81.8377 51.3004 83.353 53.1697 83.353Z" fill="white"/>
<path d="M53.1697 93.3686C55.0389 93.3686 56.5541 91.8533 56.5541 89.9841C56.5541 88.1149 55.0389 86.5996 53.1697 86.5996C51.3004 86.5996 49.7852 88.1149 49.7852 89.9841C49.7852 91.8533 51.3004 93.3686 53.1697 93.3686Z" fill="white"/>
<path d="M57.6931 8.24457C59.5623 8.24457 61.0776 6.72928 61.0776 4.86008C61.0776 2.99088 59.5623 1.47559 57.6931 1.47559C55.8239 1.47559 54.3086 2.99088 54.3086 4.86008C54.3086 6.72928 55.8239 8.24457 57.6931 8.24457Z" fill="white"/>
<path d="M57.6931 18.2602C59.5623 18.2602 61.0776 16.7449 61.0776 14.8757C61.0776 13.0065 59.5623 11.4912 57.6931 11.4912C55.8239 11.4912 54.3086 13.0065 54.3086 14.8757C54.3086 16.7449 55.8239 18.2602 57.6931 18.2602Z" fill="white"/>
<path d="M57.6931 28.2758C59.5623 28.2758 61.0776 26.7605 61.0776 24.8913C61.0776 23.0221 59.5623 21.5068 57.6931 21.5068C55.8239 21.5068 54.3086 23.0221 54.3086 24.8913C54.3086 26.7605 55.8239 28.2758 57.6931 28.2758Z" fill="white"/>
<path d="M57.6931 78.3549C59.5623 78.3549 61.0776 76.8396 61.0776 74.9704C61.0776 73.1012 59.5623 71.5859 57.6931 71.5859C55.8239 71.5859 54.3086 73.1012 54.3086 74.9704C54.3086 76.8396 55.8239 78.3549 57.6931 78.3549Z" fill="white"/>
<path d="M62.2204 23.2788C64.0896 23.2788 65.6049 21.7635 65.6049 19.8943C65.6049 18.0251 64.0896 16.5098 62.2204 16.5098C60.3512 16.5098 58.8359 18.0251 58.8359 19.8943C58.8359 21.7635 60.3512 23.2788 62.2204 23.2788Z" fill="white"/>
<path d="M62.2204 43.2895C64.0896 43.2895 65.6049 41.7742 65.6049 39.905C65.6049 38.0358 64.0896 36.5205 62.2204 36.5205C60.3512 36.5205 58.8359 38.0358 58.8359 39.905C58.8359 41.7742 60.3512 43.2895 62.2204 43.2895Z" fill="white"/>
<path d="M62.2204 83.353C64.0896 83.353 65.6049 81.8377 65.6049 79.9685C65.6049 78.0993 64.0896 76.584 62.2204 76.584C60.3512 76.584 58.8359 78.0993 58.8359 79.9685C58.8359 81.8377 60.3512 83.353 62.2204 83.353Z" fill="white"/>
<path d="M66.7439 8.24457C68.6131 8.24457 70.1284 6.72928 70.1284 4.86008C70.1284 2.99088 68.6131 1.47559 66.7439 1.47559C64.8747 1.47559 63.3594 2.99088 63.3594 4.86008C63.3594 6.72928 64.8747 8.24457 66.7439 8.24457Z" fill="white"/>
<path d="M66.7439 38.2924C68.6131 38.2924 70.1284 36.7771 70.1284 34.9079C70.1284 33.0387 68.6131 31.5234 66.7439 31.5234C64.8747 31.5234 63.3594 33.0387 63.3594 34.9079C63.3594 36.7771 64.8747 38.2924 66.7439 38.2924Z" fill="white"/>
<path d="M66.7439 88.3705C68.6131 88.3705 70.1284 86.8553 70.1284 84.9861C70.1284 83.1168 68.6131 81.6016 66.7439 81.6016C64.8747 81.6016 63.3594 83.1168 63.3594 84.9861C63.3594 86.8553 64.8747 88.3705 66.7439 88.3705Z" fill="white"/>
<path d="M71.2907 13.2622C73.1599 13.2622 74.6752 11.7469 74.6752 9.87766C74.6752 8.00845 73.1599 6.49316 71.2907 6.49316C69.4215 6.49316 67.9062 8.00845 67.9062 9.87766C67.9062 11.7469 69.4215 13.2622 71.2907 13.2622Z" fill="white"/>
<path d="M71.2907 33.2944C73.1599 33.2944 74.6752 31.7791 74.6752 29.9099C74.6752 28.0407 73.1599 26.5254 71.2907 26.5254C69.4215 26.5254 67.9062 28.0407 67.9062 29.9099C67.9062 31.7791 69.4215 33.2944 71.2907 33.2944Z" fill="white"/>
<path d="M71.2907 93.3686C73.1599 93.3686 74.6752 91.8533 74.6752 89.9841C74.6752 88.1149 73.1599 86.5996 71.2907 86.5996C69.4215 86.5996 67.9062 88.1149 67.9062 89.9841C67.9062 91.8533 69.4215 93.3686 71.2907 93.3686Z" fill="white"/>
<path d="M75.8181 8.24457C77.6873 8.24457 79.2026 6.72928 79.2026 4.86008C79.2026 2.99088 77.6873 1.47559 75.8181 1.47559C73.9489 1.47559 72.4336 2.99088 72.4336 4.86008C72.4336 6.72928 73.9489 8.24457 75.8181 8.24457Z" fill="white"/>
<path d="M75.8181 18.2602C77.6873 18.2602 79.2026 16.7449 79.2026 14.8757C79.2026 13.0065 77.6873 11.4912 75.8181 11.4912C73.9489 11.4912 72.4336 13.0065 72.4336 14.8757C72.4336 16.7449 73.9489 18.2602 75.8181 18.2602Z" fill="white"/>
<path d="M75.8181 28.2758C77.6873 28.2758 79.2026 26.7605 79.2026 24.8913C79.2026 23.0221 77.6873 21.5068 75.8181 21.5068C73.9489 21.5068 72.4336 23.0221 72.4336 24.8913C72.4336 26.7605 73.9489 28.2758 75.8181 28.2758Z" fill="white"/>
<path d="M75.8181 38.2924C77.6873 38.2924 79.2026 36.7771 79.2026 34.9079C79.2026 33.0387 77.6873 31.5234 75.8181 31.5234C73.9489 31.5234 72.4336 33.0387 72.4336 34.9079C72.4336 36.7771 73.9489 38.2924 75.8181 38.2924Z" fill="white"/>
<path d="M75.8181 48.308C77.6873 48.308 79.2026 46.7928 79.2026 44.9236C79.2026 43.0544 77.6873 41.5391 75.8181 41.5391C73.9489 41.5391 72.4336 43.0544 72.4336 44.9236C72.4336 46.7928 73.9489 48.308 75.8181 48.308Z" fill="white"/>
<path d="M75.8181 58.3237C77.6873 58.3237 79.2026 56.8084 79.2026 54.9392C79.2026 53.07 77.6873 51.5547 75.8181 51.5547C73.9489 51.5547 72.4336 53.07 72.4336 54.9392C72.4336 56.8084 73.9489 58.3237 75.8181 58.3237Z" fill="white"/>
<path d="M75.8181 68.3393C77.6873 68.3393 79.2026 66.824 79.2026 64.9548C79.2026 63.0856 77.6873 61.5703 75.8181 61.5703C73.9489 61.5703 72.4336 63.0856 72.4336 64.9548C72.4336 66.824 73.9489 68.3393 75.8181 68.3393Z" fill="white"/>
<path d="M75.8181 78.3549C77.6873 78.3549 79.2026 76.8396 79.2026 74.9704C79.2026 73.1012 77.6873 71.5859 75.8181 71.5859C73.9489 71.5859 72.4336 73.1012 72.4336 74.9704C72.4336 76.8396 73.9489 78.3549 75.8181 78.3549Z" fill="white"/>
<path d="M75.8181 88.3705C77.6873 88.3705 79.2026 86.8553 79.2026 84.9861C79.2026 83.1168 77.6873 81.6016 75.8181 81.6016C73.9489 81.6016 72.4336 83.1168 72.4336 84.9861C72.4336 86.8553 73.9489 88.3705 75.8181 88.3705Z" fill="white"/>
<path d="M75.8181 98.3862C77.6873 98.3862 79.2026 96.8709 79.2026 95.0017C79.2026 93.1325 77.6873 91.6172 75.8181 91.6172C73.9489 91.6172 72.4336 93.1325 72.4336 95.0017C72.4336 96.8709 73.9489 98.3862 75.8181 98.3862Z" fill="white"/>
<path d="M163.243 3.99413C166.627 5.6667 169.244 7.7525 171.094 10.2909C172.944 12.8292 174.164 15.5053 174.754 18.3389C175.344 21.1724 175.639 23.7698 175.639 26.1114C175.639 29.004 175.207 31.6604 174.36 34.1004C173.495 36.5404 172.255 38.7049 170.641 40.5939C169.008 42.4829 167.08 44.0374 164.817 45.2574C162.554 46.4774 160.075 47.2645 157.379 47.6187C163.971 48.0713 169.067 50.4522 172.668 54.7812C176.269 59.1102 178.079 64.797 178.079 71.8218C178.079 74.793 177.568 77.8627 176.525 81.0307C175.482 84.1791 173.79 87.052 171.448 89.6297C169.107 92.2074 166.076 94.2932 162.377 95.9264C158.678 97.5597 154.132 98.3664 148.701 98.3664H101.062V89.4329H114.738V10.4089H101.2V1.49512H149.921C155.411 1.49512 159.858 2.32156 163.243 3.99413ZM153.443 42.6994C156.061 41.5778 158.127 40.1216 159.661 38.3704C161.196 36.6191 162.259 34.6514 162.849 32.4869C163.44 30.3223 163.735 28.1972 163.735 26.1311C163.735 24.1437 163.518 22.2153 163.066 20.3066C162.613 18.4176 161.728 16.745 160.429 15.3086C159.13 13.8721 157.34 12.6915 155.077 11.7863C152.814 10.8812 149.882 10.4286 146.281 10.4286H126.505V44.3916H143.546C147.521 44.3719 150.826 43.821 153.443 42.6994ZM155.332 87.3471C158.127 85.9501 160.311 84.2775 161.905 82.3491C163.479 80.4011 164.541 78.453 165.092 76.4656C165.643 74.4782 165.899 72.8647 165.899 71.5856C165.899 68.9685 165.604 66.5286 165.014 64.2854C164.423 62.0225 163.459 60.0941 162.101 58.4609C160.744 56.8277 158.973 55.5486 156.749 54.6041C154.545 53.6596 151.81 53.1874 148.563 53.1874H126.505V89.4526H144.372C148.878 89.4329 152.538 88.7442 155.332 87.3471Z" fill="white"/>
<path d="M253.504 3.99413C256.889 5.6667 259.506 7.7525 261.356 10.2909C263.205 12.8096 264.425 15.5053 265.016 18.3389C265.606 21.1724 265.901 23.7698 265.901 26.1114C265.901 29.004 265.468 31.6604 264.622 34.1004C263.756 36.5404 262.517 38.7049 260.903 40.5939C259.27 42.4829 257.341 44.0374 255.079 45.2574C252.816 46.4774 250.336 47.2645 247.64 47.6187C254.232 48.0713 259.329 50.4522 262.93 54.7812C266.531 59.1102 268.341 64.797 268.341 71.8218C268.341 74.793 267.829 77.8627 266.786 81.0307C265.744 84.1791 264.051 87.052 261.71 89.6297C259.368 92.2074 256.338 94.2932 252.639 95.9264C248.939 97.5597 244.394 98.3664 238.963 98.3664H191.344V89.4329H205.019V10.4089H191.462V1.49512H240.183C245.673 1.49512 250.12 2.32156 253.504 3.99413ZM243.685 42.6994C246.302 41.5778 248.369 40.1216 249.903 38.3704C251.438 36.6191 252.501 34.6514 253.091 32.4869C253.681 30.3223 253.977 28.1972 253.977 26.1311C253.977 24.1437 253.76 22.2153 253.308 20.3066C252.855 18.4176 251.969 16.745 250.671 15.3086C249.372 13.8721 247.581 12.6915 245.319 11.7863C243.056 10.8812 240.124 10.4286 236.523 10.4286H216.767V44.3916H233.807C237.782 44.3719 241.068 43.821 243.685 42.6994ZM245.574 87.3471C248.369 85.9501 250.553 84.2775 252.147 82.3491C253.721 80.4011 254.783 78.453 255.334 76.4656C255.885 74.4782 256.141 72.8647 256.141 71.5856C256.141 68.9685 255.846 66.5286 255.256 64.2854C254.665 62.0225 253.701 60.0941 252.343 58.4609C250.986 56.8277 249.215 55.5486 246.991 54.6041C244.787 53.6596 242.052 53.1874 238.805 53.1874H216.747V89.4526H234.614C239.12 89.4329 242.78 88.7442 245.574 87.3471Z" fill="white"/>
<path d="M366.943 1.49547V35.8717H356.396C355.944 28.0205 353.563 21.6647 349.234 16.7847C344.905 11.9048 338.628 9.48446 330.422 9.48446C320.052 9.48446 312.181 12.9083 306.809 19.7757C301.437 26.6431 298.761 36.3243 298.761 48.8587C298.761 62.1999 301.378 72.4518 306.613 79.575C311.847 86.6982 319.521 90.2597 329.615 90.2597C337.289 90.2597 343.311 88.0362 347.679 83.5695C352.047 79.1027 354.468 73.1799 354.92 65.7812H367.376C367.101 71.2908 366.018 76.1511 364.129 80.4014C362.24 84.632 359.643 88.233 356.357 91.1649C353.071 94.0968 349.135 96.3007 344.59 97.7961C340.025 99.2916 335.007 100.02 329.497 100.02C321.292 100.02 314.385 98.5832 308.797 95.6907C303.208 92.7981 298.702 89.0004 295.259 84.2582C291.835 79.5159 289.375 74.1834 287.88 68.2212C286.384 62.259 285.656 56.1787 285.656 49.9606C285.656 43.3688 286.522 37.0523 288.234 31.0114C289.946 24.9705 292.563 19.6379 296.085 15.0531C299.607 10.4486 304.094 6.80834 309.544 4.09288C314.975 1.35773 321.489 0 329.064 0C336.109 0 342.012 1.35773 346.794 4.05352C351.575 6.74931 355.038 10.5864 357.203 15.5451V1.49547H366.943Z" fill="white"/>
<path d="M460.309 84.2972L486.145 1.49512H520.246V10.4286H506.452V89.4526H520.246V98.3861H482.623V89.4526H495.079V10.4089H494.134L465.307 98.3664H454.76L425.933 10.4089H424.988V89.4329H437.582V98.3664H400.785V89.4329H414.717V10.4089H400.785V1.49512H435.279L460.309 84.2972Z" fill="white"/>
<path d="M551.377 89.8462H562.337V98.3664H529.043V89.8462H540.416V35.7139H529.181V27.7446H551.377V89.8462ZM552.183 12.8489H539.59V1.49512H552.183V12.8489Z" fill="white"/>
<path d="M628.355 27.7449V53.7189H619.834V52.4989C619.736 50.236 619.264 48.0518 618.417 45.9267C617.552 43.8015 616.371 41.8928 614.836 40.1809C613.301 38.469 611.491 37.0916 609.425 36.0487C607.359 35.0058 605.057 34.4942 602.518 34.4942C598.721 34.4942 595.513 35.3206 592.837 36.9932C590.181 38.6658 588.016 40.8106 586.343 43.4277C584.671 46.0448 583.451 49.016 582.684 52.3612C581.916 55.7063 581.542 59.0318 581.542 62.3769C581.542 65.8008 581.975 69.1852 582.821 72.5304C583.667 75.8755 584.966 78.8665 586.678 81.5229C588.39 84.1793 590.554 86.3438 593.172 88.0164C595.789 89.689 598.858 90.5154 602.38 90.5154C606.355 90.5154 609.799 89.2561 612.731 86.7177C615.663 84.199 617.63 80.6374 618.614 76.0329L618.89 74.3997H629.181L629.043 76.8397C628.591 80.362 627.587 83.5103 625.993 86.3045C624.419 89.0987 622.392 91.4403 619.913 93.349C617.434 95.238 614.6 96.7138 611.393 97.737C608.185 98.7799 604.82 99.2915 601.318 99.2915C596.261 99.2915 591.774 98.3667 587.859 96.517C583.943 94.6673 580.617 92.129 577.922 88.8625C575.206 85.6158 573.14 81.8181 571.704 77.4891C570.267 73.1601 569.539 68.5556 569.539 63.6953C569.539 57.3789 570.366 51.8299 572.038 47.0483C573.711 42.2667 575.915 38.2919 578.669 35.1435C581.424 31.9952 584.632 29.5945 588.272 27.981C591.932 26.3478 595.73 25.541 599.704 25.541C604.309 25.541 608.225 26.4068 611.471 28.1187C614.718 29.8307 617.512 32.6248 619.854 36.5013V27.7449H628.355Z" fill="white"/>
<path d="M680.382 36.2657C679.614 36.1673 678.866 36.1279 678.158 36.1279C665.073 36.1279 658.54 44.8253 658.54 62.2397V89.8469H671.94V98.3672H636.344V89.8469H647.58V35.7147H636.344V27.7454H658.54V41.8146C659.622 38.745 660.744 36.246 661.924 34.2979C663.105 32.3499 664.443 30.815 665.978 29.6934C667.513 28.5718 669.244 27.7847 671.192 27.3322C673.14 26.8796 675.462 26.6041 678.158 26.5254H682.763V36.6789C681.936 36.4821 681.149 36.3444 680.382 36.2657Z" fill="white"/>
<path d="M746.479 89.2951C740.517 95.9657 732.627 99.3109 722.808 99.3109C711.808 99.3109 703.504 95.5722 697.916 88.0752C692.505 80.6765 689.789 72.0185 689.789 62.1011C689.789 56.4144 690.596 51.318 692.229 46.8119C693.862 42.3058 696.125 38.4687 699.057 35.3203C701.989 32.172 705.511 29.7517 709.604 28.0791C713.717 26.4065 718.282 25.5801 723.339 25.5801C728.573 25.5801 733.197 26.5049 737.211 28.3546C741.226 30.2042 744.59 32.8016 747.286 36.1271C750.002 39.4722 752.028 43.388 753.366 47.8941C754.724 52.4002 755.393 57.3195 755.393 62.6521C755.413 73.6517 752.442 82.5458 746.479 89.2951ZM730.187 89.2951C732.666 88.1145 734.948 86.3632 737.015 84.0216C739.179 81.68 740.812 78.6104 741.895 74.8127C742.977 71.0149 743.528 66.6859 743.528 61.8257C743.528 52.8922 741.717 46.0248 738.117 41.1842C734.516 36.3632 729.321 33.9429 722.552 33.9429C719.305 33.9429 716.373 34.5923 713.756 35.9107C711.139 37.2094 708.935 39.059 707.125 41.4597C705.314 43.8406 703.917 46.7332 702.934 50.1177C701.95 53.5022 701.438 57.2212 701.438 61.2747C701.438 67.414 702.048 72.2153 703.268 75.6785C704.488 79.1417 706.141 82.0145 708.207 84.2774C712.359 88.7835 717.18 91.0464 722.689 91.0464C725.189 91.0661 727.688 90.4758 730.187 89.2951Z" fill="white"/>
</g>
<defs>
<clipPath id="clip0_4_4289">
<rect width="755.411" height="100" fill="white"/>
</clipPath>
</defs>
</svg>
