<svg width="695" height="100" viewBox="0 0 695 100" fill="none" xmlns="http://www.w3.org/2000/svg">
<g clip-path="url(#clip0_4_4389)">
<path d="M65.3555 28.5186H107.174L88.866 47.5475H65.3555V28.5186Z" fill="white"/>
<path d="M65.3164 71.486H107.135L88.8269 52.457H65.3164V71.486Z" fill="white"/>
<path d="M64.4474 1.96316V25.9368C60.1711 23.3 55.4184 21.9974 50.1816 21.9974C45.1842 21.9974 40.5447 23.2447 36.2711 25.7632C31.9921 28.2579 28.6289 31.6763 26.1711 36.0079C23.7132 40.3158 22.4816 44.9605 22.4816 49.8921C22.4816 54.8842 23.7158 59.4921 26.1711 63.75C28.6289 67.9974 32.0053 71.3684 36.3026 73.8579C40.5947 76.3395 45.2184 77.5947 50.1816 77.5947C55.3711 77.5947 60.1289 76.3342 64.4447 73.8316V97.9132C59.8105 99.3053 55.0553 100 50.1816 100C41.2342 100 32.8816 97.7526 25.1474 93.2526C17.4184 88.7526 11.2842 82.6316 6.76842 74.9263C2.25526 67.2211 0 58.871 0 49.8947C0 43.2447 1.30526 36.8368 3.92368 30.6816C6.54474 24.5342 10.1789 19.1553 14.8395 14.5447C19.4895 9.93947 24.8316 6.36842 30.8368 3.82632C36.8579 1.27632 43.3026 0 50.1816 0C54.9316 0 59.6868 0.668421 64.4474 1.96316Z" fill="white"/>
<path d="M175.76 53.5863C175.55 59.5337 174.805 62.0916 172.468 64.4231C169.071 67.8679 164.71 68.7758 150.676 68.7758C139.75 68.7758 135.152 68.0205 131.616 65.4652C128.145 63.0652 127.016 59.2258 127.016 49.8337C127.016 41.2731 128.071 37.51 131.231 34.9652C134.621 32.1863 139.3 31.3652 151.35 31.3652C163.174 31.3652 168.376 32.26 171.779 35.0389C174.647 37.2889 175.602 40.0784 175.816 46.7547H162.274C161.821 42.7073 159.192 41.3468 151.35 41.3468C142.081 41.3468 140.352 42.7705 140.352 50.2073C140.352 54.8705 141.108 56.6705 143.521 57.6521C145.1 58.331 147.963 58.7021 151.5 58.7021C159.337 58.7021 161.597 57.6521 162.2 53.5889L175.76 53.5863Z" fill="white"/>
<path d="M224.423 34.6639C228.037 37.2902 229.045 40.5165 229.045 49.4586C229.045 59.2271 228.139 62.5402 224.9 65.2376C221.502 68.0218 217.039 68.7797 203.866 68.7797C190.531 68.7797 186.068 68.0218 182.721 65.2376C179.373 62.5402 178.523 59.2297 178.523 48.9297C178.523 40.6007 179.587 37.2192 183.145 34.6639C186.439 32.2613 191.642 31.4297 203.81 31.4297C215.976 31.4297 221.129 32.2586 224.423 34.6639ZM191.858 50.3665C191.858 55.0955 192.494 56.6718 194.884 57.6534C196.531 58.4007 199.558 58.7771 203.863 58.7771C213.958 58.7771 215.71 57.4955 215.71 49.9797C215.71 45.1744 214.91 43.4507 212.468 42.4797C210.771 41.8034 207.631 41.4218 203.863 41.4218C193.666 41.4218 191.858 42.7718 191.858 50.3665Z" fill="white"/>
<path d="M244.292 32.3376V37.6665H244.987C246.95 33.3928 251.468 31.4297 259.382 31.4297C267.989 31.4297 272.716 33.6113 275.587 38.8744C277.871 33.5376 282.226 31.4297 290.939 31.4297C298.321 31.4297 302.731 32.7876 305.81 36.0113C308.892 39.1665 309.584 42.0981 309.584 51.2507V67.8692H296.247V51.2507C296.142 45.3297 295.981 44.6586 294.705 43.3744C293.379 42.0244 291.095 41.4218 287.218 41.4218C283.181 41.4218 280.684 42.0981 279.303 43.6797C277.76 45.3297 277.337 47.4323 277.337 53.2113V67.8692H264V51.2507C264 45.706 263.842 44.7244 262.571 43.3744C261.347 42.0244 259.01 41.4218 255.181 41.4218C251.145 41.4218 248.542 42.0981 247.058 43.5981C245.518 45.1007 245.092 47.356 245.092 53.2113V67.8692H231.758V32.3376H244.292Z" fill="white"/>
<path d="M325.25 32.3376V37.6665H325.886C327.852 33.3928 332.365 31.4297 340.281 31.4297C348.892 31.4297 353.618 33.6113 356.489 38.8744C358.773 33.5376 363.129 31.4297 371.892 31.4297C379.276 31.4297 383.631 32.7876 386.713 36.0113C389.792 39.1665 390.484 42.0981 390.484 51.2507V67.8692H377.152V51.2507C377.1 45.3297 376.936 44.6586 375.665 43.3744C374.281 42.0244 372.05 41.4218 368.118 41.4218C364.136 41.4218 361.639 42.0981 360.202 43.6797C358.665 45.3297 358.242 47.4323 358.242 53.2113V67.8692H344.905V51.2507C344.905 45.706 344.744 44.7244 343.471 43.3744C342.247 42.0244 339.913 41.4218 336.086 41.4218C332.102 41.4218 329.444 42.0981 327.958 43.5981C326.418 45.1007 325.994 47.356 325.994 53.2113V67.8692H312.66V32.3376H325.25Z" fill="white"/>
<path d="M439.258 34.6639C442.866 37.2902 443.824 40.5165 443.824 49.4586C443.824 59.2271 442.921 62.5402 439.684 65.2376C436.282 68.0218 431.874 68.7797 418.645 68.7797C405.311 68.7797 400.903 68.0218 397.503 65.2376C394.208 62.5402 393.355 59.2297 393.355 48.9297C393.355 40.6007 394.419 37.2192 397.979 34.6639C401.271 32.2613 406.479 31.4297 418.59 31.4297C430.811 31.4297 435.911 32.2586 439.258 34.6639ZM406.692 50.3665C406.692 55.0955 407.274 56.6718 409.716 57.6534C411.366 58.4007 414.392 58.7771 418.642 58.7771C428.787 58.7771 430.487 57.4955 430.487 49.9797C430.487 45.1744 429.745 43.4507 427.248 42.4797C425.6 41.8034 422.413 41.4218 418.642 41.4218C408.495 41.4218 406.692 42.7718 406.692 50.3665Z" fill="white"/>
<path d="M497.005 67.8686H484.466V63.2081H483.774C481.227 67.4923 477.669 68.7765 468 68.7765C458.379 68.7765 453.763 67.795 450.679 65.0186C447.753 62.3107 446.855 58.6976 446.855 49.8344C446.855 40.816 448.287 36.5423 452.058 34.0686C455.3 31.9555 458.966 31.366 468.155 31.366C477.503 31.366 480.584 32.5634 483.137 37.0739H483.669V17.7607H497V67.8686H497.005ZM460.187 49.6871C460.187 57.4923 461.674 58.6976 471.719 58.6976C476.606 58.6976 480.216 58.1002 481.758 57.0476C483.245 56.0634 483.774 54.1792 483.774 50.0528C483.774 42.7081 482.021 41.3476 472.513 41.3476C461.998 41.3476 460.187 42.5528 460.187 49.6871Z" fill="white"/>
<path d="M545.297 34.6639C548.907 37.2902 549.918 40.5165 549.918 49.4586C549.918 59.2271 549.015 62.5402 545.773 65.2376C542.37 68.0218 537.912 68.7797 524.736 68.7797C511.402 68.7797 506.991 68.0218 503.589 65.2376C500.247 62.5402 499.449 59.2297 499.449 48.9297C499.449 40.6007 500.512 37.2192 504.018 34.6639C507.365 32.2613 512.573 31.4297 524.686 31.4297C536.905 31.4297 542.002 32.2586 545.297 34.6639ZM512.781 50.3665C512.781 55.0955 513.368 56.6718 515.812 57.6534C517.404 58.4007 520.431 58.7771 524.736 58.7771C534.826 58.7771 536.581 57.4955 536.581 49.9797C536.581 45.1744 535.836 43.4507 533.341 42.4797C531.694 41.8034 528.507 41.4218 524.736 41.4218C514.589 41.4218 512.781 42.7718 512.781 50.3665Z" fill="white"/>
<path d="M565.217 32.3376V37.6665H565.909C568.351 33.1534 572.125 31.4297 579.615 31.4297C590.343 31.4297 593.959 35.0402 593.959 45.706V48.1086H581.42C581.42 42.8428 579.88 41.4218 574.409 41.4218C571.38 41.4218 568.883 42.3271 567.607 43.9771C566.33 45.706 565.962 47.6586 565.962 53.1428V67.8692H552.625V32.3376H565.217Z" fill="white"/>
<path d="M644.102 56.5231C643.094 66.3679 638.205 68.7758 619.134 68.7758C608.828 68.7758 603.939 67.8679 600.697 65.4652C597.191 62.8389 596.184 59.2942 596.184 50.2073C596.184 40.6679 597.189 37.1363 600.965 34.5152C604.47 32.1126 608.881 31.3652 620.513 31.3652C632.52 31.3652 636.768 32.1126 640.01 34.7337C643.144 37.3626 644.37 41.3468 644.37 49.3837C644.37 49.8337 644.37 51.481 644.315 52.981H609.463C609.463 56.5942 609.891 57.7889 611.165 58.7758C612.599 59.8284 615.363 60.2837 620.197 60.2837C628.694 60.2837 630.286 59.681 630.82 56.5258L644.102 56.5231ZM630.984 45.7047C630.873 42.9231 630.718 42.2521 629.915 41.4205C628.694 40.1389 625.989 39.6179 620.731 39.6179C611.752 39.6179 609.628 40.7442 609.468 45.7047H630.984Z" fill="white"/>
<path d="M666.892 61.1583C665.532 61.1583 664.282 60.861 663.145 60.2689C662.013 59.6847 661.121 58.8347 660.471 57.7215C659.819 56.6136 659.492 55.3215 659.492 53.8452C659.492 52.8031 659.655 51.7794 659.976 50.7741C660.297 49.761 660.979 48.3031 662.016 46.4057C663.061 44.5057 664.726 41.682 667.011 37.9268L669.9 39.6083C667.937 42.561 666.384 45.0373 665.24 47.0373C665.161 47.1794 665.082 47.3189 665.003 47.4557C664.916 47.5952 664.845 47.6978 664.787 47.7531C665.111 47.4557 665.54 47.2162 666.076 47.0373C666.621 46.8583 667.245 46.7689 667.945 46.7689C669.269 46.7689 670.445 47.082 671.469 47.711C672.484 48.3373 673.269 49.1768 673.819 50.2268C674.371 51.2768 674.647 52.411 674.647 53.632C674.647 55.1925 674.316 56.5452 673.658 57.6768C673 58.8215 672.082 59.6847 670.908 60.2689C669.734 60.861 668.395 61.1583 666.892 61.1583ZM667.108 58.2215C668.366 58.2215 669.363 57.8241 670.092 57.0241C670.824 56.2241 671.19 55.1925 671.19 53.932C671.19 52.611 670.813 51.5689 670.061 50.8031C669.308 50.032 668.353 49.6504 667.192 49.6504C665.913 49.6504 664.884 50.0373 664.111 50.8136C663.337 51.5952 662.95 52.6531 662.95 53.9952C662.95 55.2162 663.347 56.2241 664.142 57.0241C664.932 57.8241 665.919 58.2215 667.108 58.2215ZM688.153 60.7057V55.1925H678.047L684.395 37.9268L687.521 39.0952L682.74 52.0478H688.153L688.337 47.0373H691.666V52.0478H694.737V55.1925H691.666V60.7057H688.153Z" fill="white"/>
</g>
<defs>
<clipPath id="clip0_4_4389">
<rect width="694.737" height="100" fill="white"/>
</clipPath>
</defs>
</svg>
