<svg width="516" height="100" viewBox="0 0 516 100" fill="none" xmlns="http://www.w3.org/2000/svg">
<path d="M35.6927 1.18706C32.0449 2.38203 27.5795 4.64617 23.177 7.41347C21.416 8.54554 19.2147 9.42606 18.2714 9.42606C14.2462 9.42606 7.57952 15.7783 3.86883 23.1996L1.73047 27.3506V37.7279C1.73047 46.4072 1.91915 48.4827 2.86255 50.2437C3.42858 51.4386 3.93173 52.6965 3.93173 53.1367C3.93173 54.5833 8.08267 61.6902 10.7242 64.772C14.1204 68.7342 17.9569 70.621 21.4789 70.055C23.3657 69.7405 24.372 69.8663 25.1896 70.5581C30.3468 75.0864 44.4978 76.8474 54.8751 74.2059C62.7997 72.2562 67.5795 70.1808 68.2085 68.4827L68.7745 66.9732L70.1581 68.86C74.0575 74.2688 77.0135 75.7783 80.1581 73.9544C81.7305 73.011 82.4223 72.9481 85.0009 73.577C86.6361 73.9544 93.9946 74.3317 101.479 74.3946C115.001 74.5204 115.064 74.5204 117.328 72.9481C120.41 70.8726 120.535 68.2311 117.642 64.5833C116.51 63.1368 115.064 60.8726 114.435 59.489C112.863 56.0298 111.479 46.6588 111.479 39.7405C111.479 34.5204 111.605 33.8915 112.548 34.0802C113.554 34.2688 120.787 43.0739 120.85 44.143C120.913 44.3946 122.108 46.2814 123.617 48.2311C125.064 50.2437 126.573 52.4449 127.013 53.1367C127.454 53.8286 130.221 58.3569 133.114 63.2625C139.152 73.2625 141.039 75.4638 143.554 75.4638C145.944 75.4638 150.221 70.9984 152.988 65.5896C154.183 63.2625 156.259 59.489 157.58 57.2877C158.9 55.0864 161.353 50.2437 163.114 46.5959C166.699 39.0487 169.907 33.9544 171.102 33.9544C172.108 33.9544 172.045 35.6525 170.976 36.0298C170.536 36.2185 169.969 37.2877 169.781 38.4827C169.592 39.6147 169.152 41.816 168.712 43.3883C168.334 44.9606 168.083 48.4827 168.208 51.25C168.523 57.665 170.661 62.3191 175.504 66.7217C178.46 69.4261 179.215 69.8034 181.605 69.8034C183.114 69.8034 184.561 70.1179 184.749 70.4323C185.441 71.5015 190.221 73.7028 193.869 74.5833C203.743 76.9732 213.554 74.0173 218.837 67.099C219.907 65.6525 221.73 62.0676 222.863 59.1745L224.938 53.8915L222.548 51.816L220.221 49.8034L222.611 47.6022C225.001 45.4009 225.001 45.338 224.938 40.6839C224.875 36.4701 224.624 35.7154 222.611 32.6336C221.353 30.7468 219.969 28.7971 219.529 28.2311C218.208 26.5959 212.611 23.2625 211.227 23.2625C210.473 23.2625 207.957 22.2562 205.567 21.0613C198.146 17.3506 193.491 18.1053 183.554 24.6462C180.473 26.7217 177.642 28.2311 177.202 28.0424C176.762 27.9166 176.259 26.533 176.07 25.0864C175.504 20.621 175.881 20.6839 157.58 20.4952C150.976 20.4323 150.473 20.4952 148.963 21.9418C146.51 24.2688 146.636 28.7342 149.215 31.6273C151.102 33.8286 151.668 36.0298 150.41 36.7845C150.095 37.0361 149.529 37.9166 149.215 38.7342C148.208 41.3757 146.447 40.5581 144.309 36.4701L142.297 32.6965L143.617 30.1179C144.875 27.8537 144.875 27.3506 144.183 25.0864C142.674 20.5581 142.737 20.621 126.762 20.3694L112.548 20.1808L110.347 22.382C108.146 24.5833 106.825 25.0235 106.133 23.8915C105.252 22.4449 100.473 20.6839 95.6298 20.055C85.8185 18.7342 76.0701 21.3757 72.3594 26.4072C69.9066 29.8034 69.655 28.9858 69.5292 17.9795C69.5292 11.6273 69.2147 7.2248 68.7745 6.3443C67.9569 4.83486 64.4349 2.88517 59.3405 1.18706C54.6236 -0.385269 40.4097 -0.385269 35.6927 1.18706ZM58.3971 5.4638C64.372 7.60216 64.1833 7.03612 64.4349 19.1745L64.6235 29.8663L62.9254 30.055C60.7242 30.3066 58.6487 28.2311 58.6487 25.8412C58.6487 21.5015 52.5481 14.3317 47.7053 12.8852C41.8563 11.1242 36.9506 11.9418 32.1707 15.4638C28.5229 18.1053 26.1959 21.4386 24.3091 26.7217C23.0512 30.2437 22.7997 32.0047 22.7997 38.6713C22.7997 45.5896 22.9883 46.9103 24.3091 49.8034C25.1267 51.6273 26.7619 54.0801 27.9569 55.2751C31.1644 58.4827 37.5795 62.1305 41.4789 62.8852C47.2022 64.0801 49.9695 63.1367 57.5166 57.4135C59.5921 55.8411 61.7305 54.7091 62.6739 54.7091H64.3091V60.8726V67.099L61.982 68.1053C52.9883 72.0047 37.0764 72.1933 30.3468 68.4198C28.0198 67.1619 25.1267 65.2122 24.1833 64.3317C23.0512 63.2625 20.85 63.3254 19.2776 64.4575C18.0827 65.2751 17.8311 65.1493 16.0701 63.3254C12.6739 59.6776 8.83739 52.5078 7.57953 47.4764C6.51034 43.3254 6.25877 34.5833 7.07638 29.8663C7.89399 25.2751 9.84367 21.3757 13.8059 16.4701C16.1959 13.577 17.5795 13.1996 19.1519 15.0235C20.5984 16.7216 22.7368 16.0298 23.2399 13.7657C23.4915 12.4449 24.4978 11.3757 26.8248 9.92919C30.2839 7.72793 36.8248 4.70908 39.2776 4.14304C42.3594 3.51411 55.1896 4.33172 58.3971 5.4638ZM46.0072 16.6588C47.0135 17.1619 48.9003 18.7971 50.221 20.3066C52.4852 22.8852 53.3028 24.7091 54.7493 30.7468C55.3783 33.5141 56.8877 34.5833 58.6487 33.4512C61.7305 31.5644 68.0827 33.5141 68.0827 36.4072C68.0827 38.7971 70.4097 39.9292 75.2525 39.8663C78.9003 39.8663 80.221 39.5518 82.611 38.1682C84.1833 37.2248 86.0701 36.4701 86.7619 36.4701C88.1456 36.4701 89.9066 38.1053 89.2776 38.7971C88.1456 39.8663 81.8563 41.5015 78.9003 41.3757C77.0135 41.3128 75.3154 41.5644 75.1267 41.8789C74.8751 42.1934 73.4915 43.2625 72.0449 44.2688C70.4097 45.338 68.9003 47.0361 68.2714 48.4827L67.2022 50.9355H63.177C59.2776 50.9355 59.089 50.9984 55.6298 54.0172C51.1015 57.9166 47.8311 59.7405 45.3783 59.7405C40.85 59.7405 31.7305 53.6399 29.4663 49.0487C29.0261 48.1682 28.3342 45.4638 27.894 43.011C26.0701 32.4449 30.0953 20.3695 36.5103 16.9732C39.2776 15.5267 43.5544 15.338 46.0072 16.6588ZM101.479 25.8412C102.988 26.7217 104.938 28.4198 105.693 29.6776C107.139 31.816 107.202 32.5078 107.328 43.7657C107.454 57.4135 108.146 60.4952 112.296 65.5896C113.617 67.2248 114.624 68.9229 114.435 69.3632C114.246 69.9292 110.724 70.1179 100.347 70.055C88.8374 69.9921 86.133 69.8034 84.4349 68.9229C81.8563 67.6651 81.0386 67.665 80.0324 68.86C78.3342 70.9355 76.4474 69.9921 74.0575 65.9669C72.8625 63.8915 71.8563 61.6902 71.8563 61.0613C71.8563 60.4323 71.5418 59.0487 71.1644 57.9166C70.2839 55.4009 71.2902 51.0613 73.6173 47.6022C75.3154 45.0864 77.3908 44.5204 78.7745 46.2185C80.0324 47.7279 81.982 47.3506 83.743 45.2122C85.0009 43.7657 86.3846 43.0739 89.7808 42.1934L94.1833 41.1242L94.372 38.6084C94.4978 36.533 94.2462 35.7783 92.5481 34.0802C91.4789 33.011 90.221 32.0676 89.8437 32.0676C88.6487 32.0676 82.9883 34.0801 81.9191 34.8349C77.5795 38.0424 74.6236 38.294 73.177 35.5896C70.7871 31.1242 76.4474 25.8412 85.0638 24.5833C91.416 23.6399 98.46 24.2059 101.479 25.8412ZM138.397 24.5204C139.403 24.5204 140.473 27.3506 139.969 28.6084C139.781 29.1745 138.837 29.8034 137.831 29.9921C136.825 30.1808 136.007 30.7468 136.007 31.25C136.007 31.7531 137.517 34.4575 139.403 37.3506C141.227 40.1808 143.491 44.0802 144.435 46.0298C146.322 50.055 147.454 50.7468 149.655 49.3632C150.85 48.5456 150.976 48.1682 150.473 47.1619C150.032 46.3443 150.032 45.5267 150.41 44.8349C150.724 44.2059 151.164 43.2625 151.353 42.7594C151.856 41.5015 152.925 39.8034 155.064 37.0361C157.265 34.0801 157.265 32.4449 154.938 31.0613C152.863 29.8034 150.85 26.7216 151.353 25.4009C151.605 24.7091 153.491 24.5204 161.479 24.5204H171.227L171.919 26.2185C172.925 28.7971 172.422 29.7405 169.215 31.3128C167.139 32.2562 166.196 33.1367 166.196 33.9544C166.196 34.5833 165.819 35.4009 165.378 35.6525C164.498 36.1556 159.969 43.5141 157.517 48.4198C156.699 49.9921 155.819 51.6902 155.504 52.1934C152.548 57.1619 149.152 63.3254 147.391 66.8474C145.064 71.5644 144.058 71.9418 142.359 68.86C141.793 67.7908 140.221 65.2751 138.9 63.2625C137.642 61.25 136.259 58.9858 135.944 58.2311C134.812 55.5896 123.995 39.7405 121.039 36.2814C120.095 35.2122 117.831 32.8852 116.07 31.1242C113.743 28.86 112.737 27.3506 112.737 26.2185C112.737 25.338 112.988 24.5204 113.366 24.3946C113.806 24.2688 129.215 24.3317 138.397 24.5204ZM202.863 25.5896C203.995 26.2185 205.378 27.099 205.944 27.6022C206.699 28.1682 207.831 28.3569 209.341 28.1053C211.353 27.7908 211.856 28.0424 214.372 30.3066C219.341 34.8978 221.605 42.0047 219.278 45.6525L218.208 47.2248L204.624 46.7845C188.649 46.3443 188.523 46.4072 188.586 51.3757C188.649 55.338 190.724 58.7342 194.624 61.1871C200.221 64.7091 207.139 62.0047 211.856 54.5204C213.429 52.0676 214.561 51.7531 217.391 52.8223C219.592 53.6399 219.592 56.6588 217.391 60.9984C215.127 65.5267 212.297 68.4827 208.712 70.1808C206.133 71.3757 204.875 71.5644 201.164 71.3128C195.127 70.8726 192.171 69.9921 188.837 67.4764C186.322 65.5896 185.693 65.338 183.429 65.7154C180.913 66.0927 180.724 65.9669 178.649 63.3883C173.806 57.3506 173.429 56.3443 173.491 48.7342C173.617 41.1871 174.372 38.6713 178.146 33.3883C180.095 30.7468 180.221 30.6839 182.863 31.0613C185.315 31.4386 185.693 31.3128 187.202 29.5518C188.083 28.4827 188.837 27.3506 188.837 27.1619C188.837 26.9103 189.592 26.2185 190.598 25.6525C192.988 24.143 200.221 24.143 202.863 25.5896ZM208.146 51.1871C208.774 51.4386 208.712 52.0047 207.957 53.577C206.636 56.2814 203.869 58.4827 201.227 58.9229C199.466 59.1745 198.712 58.9229 196.888 57.2877C194.309 55.0235 192.611 51.6902 193.743 50.9984C194.498 50.5581 206.888 50.7468 208.146 51.1871Z" fill="white"/>
<path d="M88.0207 50.5583C86.0081 52.3822 85.4421 54.5206 85.8823 57.9797C86.5742 63.1998 90.0333 65.5269 92.8635 62.6967C94.9389 60.6212 95.8195 53.0111 94.2471 50.6212C92.9264 48.5457 90.222 48.5457 88.0207 50.5583Z" fill="white"/>
<path d="M191.477 33.7661C189.654 34.9611 188.836 35.9045 188.836 36.9108C188.836 38.2944 189.088 38.3573 193.176 38.3573C195.565 38.3573 198.27 38.546 199.276 38.7347C203.427 39.5523 204.622 35.4014 200.849 33.1372C198.144 31.5649 194.559 31.7536 191.477 33.7661Z" fill="white"/>
<path d="M271.854 0.62092C271.351 0.872492 269.024 2.00456 266.697 3.07375C262.798 4.89765 258.647 8.67123 258.647 10.3693C258.647 10.6838 257.703 11.6272 256.508 12.3819C255.376 13.1367 253.615 15.0863 252.609 16.7845C250.974 19.4889 250.785 20.3693 250.785 25.1492C250.785 31.1241 252.295 35.5895 255.565 39.6146C256.571 40.8096 257.389 42.0046 257.389 42.2562C257.389 42.5706 256.446 43.5769 255.376 44.5832L253.301 46.4071L253.112 54.5203C252.798 65.8411 253.93 70.1178 257.892 72.2561C258.71 72.6964 263.615 73.1367 269.842 73.3882C278.647 73.7027 280.911 73.5769 284.056 72.6964C287.641 71.6272 292.106 69.2373 292.924 67.9165C293.112 67.6021 294.118 67.2876 295.188 67.2876C300.156 67.2876 303.49 62.5706 304.559 54.0171C305.754 44.0171 303.678 37.3505 297.955 32.948C295.313 30.9354 295.188 30.3065 297.515 29.8033C300.093 29.1115 301.854 27.7907 302.546 25.9039C302.924 24.9606 303.301 20.1807 303.49 15.275C303.741 4.52028 303.993 4.83476 295.188 1.94168C289.716 0.117779 288.584 -0.00800728 281.037 0.0548858C276.508 0.0548858 272.357 0.306454 271.854 0.62092ZM290.093 5.275C292.672 5.71526 295.565 6.46998 296.571 6.91023L298.269 7.72783V16.3442C298.269 25.0863 297.955 26.4071 295.691 26.4071C294.999 26.4071 294.559 25.7153 294.307 24.2058C293.49 19.1115 287.263 13.6398 281.477 12.8851C275.942 12.1932 273.301 12.948 271.163 15.8411C270.03 17.4763 269.339 19.1744 269.339 20.4951C269.339 22.3819 269.653 22.7593 272.169 23.9543C273.741 24.709 275.188 25.5266 275.376 25.8411C275.565 26.1555 276.257 26.4071 276.886 26.4071C277.578 26.4071 279.527 27.2247 281.288 28.2939C283.049 29.3002 284.685 30.1807 284.936 30.1807C285.628 30.1807 289.339 32.1933 292.798 34.3945C295.942 36.47 297.452 38.1052 299.15 41.3128C300.596 44.1429 300.534 55.0234 299.087 59.1744C297.955 62.3819 297.074 62.948 295.754 61.3128C294.433 59.7404 292.42 60.4322 291.1 62.8851C289.653 65.5895 286.823 67.5392 282.798 68.5455C278.773 69.5517 260.093 68.6084 259.339 67.3505C258.71 66.3442 257.766 46.7844 258.332 45.9039C259.024 44.7719 261.1 45.2121 262.043 46.6587C262.483 47.4763 263.238 49.992 263.678 52.3819C264.37 56.2184 264.685 56.8473 267.452 59.3002C272.861 64.2058 277.766 64.3945 282.986 59.992C285.251 58.0423 285.376 57.7907 285.376 54.08C285.376 50.3065 285.313 50.0549 282.924 48.0423C281.603 46.9102 279.15 45.3379 277.578 44.6461C276.005 43.8914 273.867 42.8851 272.924 42.4448C271.917 41.9417 270.722 41.5014 270.282 41.5014C269.779 41.5014 268.332 41.0612 267.012 40.4951C259.464 37.2247 258.018 35.8411 256.508 30.558C255.251 26.2813 255.251 22.1933 256.446 19.2373C257.326 17.1618 257.641 16.9731 259.905 16.9731C262.232 16.9731 262.42 16.8473 262.42 15.2121C262.42 12.6335 265.439 8.60834 268.71 6.84733C273.049 4.52029 282.232 3.82846 290.093 5.275ZM284.433 18.4826C287.326 20.4322 290.093 25.4008 288.961 26.5329C288.269 27.2247 287.641 27.036 285.502 25.9039C284.056 25.0863 281.225 23.514 279.276 22.4448C276.005 20.6209 274.559 18.797 275.376 17.4763C275.565 17.2247 277.2 16.9731 278.961 16.9731C281.414 16.9731 282.798 17.3505 284.433 18.4826ZM272.42 46.9731C277.578 49.5518 281.288 52.8222 281.288 54.6461C281.288 56.3442 277.766 59.1115 275.628 59.1115C272.924 59.1115 268.081 54.0171 268.081 51.1241C268.081 50.4951 267.641 49.1744 267.137 48.1681C266.194 46.3442 266.257 44.6461 267.263 44.6461C267.515 44.6461 269.905 45.7153 272.42 46.9731Z" fill="white"/>
<path d="M321.732 10.0555C318.273 12.0052 316.261 14.3952 315.506 17.2253C315.254 18.2945 313.808 19.9298 311.858 21.3763C307.833 24.3952 304.562 28.8606 304.562 31.1876C304.562 32.131 305.317 33.892 306.261 35.1499L308.022 37.414L308.147 51.1247C308.336 65.9046 308.462 66.7222 311.921 69.8669C314.814 72.6342 317.518 73.6404 321.418 73.5776C323.368 73.5147 326.701 73.7033 328.776 73.892C335.569 74.7096 342.235 71.3763 346.135 65.2757L348.147 62.131L349.783 64.2694C353.305 68.7977 356.135 70.4958 360.537 70.7474C361.04 70.7474 362.613 71.3763 364.059 72.131C367.204 73.8291 374.059 74.7725 378.147 74.1436C379.846 73.892 382.424 72.9486 383.934 72.131C385.443 71.2505 387.959 70.37 389.531 70.1813C391.921 69.804 392.99 69.175 395.317 66.848C406.072 55.9675 406.135 38.609 395.443 26.5335C392.864 23.6405 391.795 23.1373 389.72 23.892C388.21 24.4581 387.77 24.3323 386.072 22.6971C382.927 19.7411 380.537 18.8606 375.757 18.8606C371.418 18.8606 366.072 20.1813 364.311 21.7537C363.808 22.1939 362.11 22.8228 360.663 23.2002C353.619 24.7725 347.204 32.4455 345.191 41.8165C344.625 44.2065 344.248 46.6593 344.311 47.1625C344.563 49.8669 344.059 50.8103 342.173 51.6279C341.04 52.0681 338.902 53.5775 337.456 54.8983C335.632 56.5335 334.374 57.2253 333.368 57.0996C331.921 56.9109 331.921 56.848 332.047 48.4832C332.11 38.9864 332.235 38.7977 336.701 38.043C339.783 37.5398 344.814 33.0744 346.638 29.3637C347.393 27.8543 347.959 25.4643 347.959 24.0807C347.959 21.9423 347.581 21.1876 346.009 19.8669C343.556 17.7914 341.103 17.7914 337.33 19.9298C333.116 22.2568 332.235 21.7537 332.235 16.7851C332.235 13.1373 332.047 12.6342 330.097 10.4958C327.518 7.66561 326.072 7.60271 321.732 10.0555ZM327.77 15.8417C328.147 16.9109 328.273 19.2379 328.085 21.0618C327.707 24.0178 327.833 24.458 329.154 25.4014C331.795 27.2253 335.883 26.4077 340.474 23.1373C341.795 22.1939 343.556 22.8857 343.556 24.3952C343.556 25.087 342.99 26.9109 342.298 28.4832C340.537 32.4455 337.644 34.1436 332.55 34.2065C326.386 34.3323 326.512 33.9549 326.701 48.3574L326.89 60.6845L329.405 61.5021C332.927 62.6341 337.393 61.1876 340.412 57.8543C342.235 55.8417 342.864 55.5272 344.059 55.9675C347.015 57.1625 344.94 61.8794 339.217 66.9738C336.135 69.7411 335.632 69.9297 331.732 69.9926C329.217 70.0555 327.518 69.7411 326.072 68.8606C324.059 67.6656 323.934 67.6656 322.11 68.7348C319.405 70.2442 318.839 70.1184 315.946 67.2253L313.368 64.6467L313.242 55.7159C313.179 50.8732 313.053 44.2694 313.053 41.0618C312.99 35.5272 312.864 35.2128 311.292 33.9549C308.713 31.8794 309.028 29.4895 312.235 26.3448C314.563 24.0807 315.129 23.8291 317.015 24.2065C319.783 24.7096 320.915 23.7033 320.915 20.6216C320.915 18.609 321.355 17.6656 323.179 15.7159C325.757 13.0115 326.827 13.0115 327.77 15.8417ZM379.908 23.8291C382.424 25.087 384.248 26.848 385.317 29.0493C386.324 31.0618 388.022 31.1876 389.846 29.4895C391.355 28.043 391.418 28.043 392.613 29.3008C393.242 29.9298 394.877 32.6342 396.198 35.2128C398.525 39.8669 398.525 40.0555 398.588 47.1625C398.588 53.5147 398.399 54.7096 397.141 56.9109C394.248 62.0052 392.235 64.4581 390.978 64.2694C387.833 63.8291 386.827 64.1436 384.059 66.5964C380.6 69.6153 377.518 70.6216 372.99 70.1184C368.525 69.6153 365.38 68.1687 363.745 65.9675C362.298 63.9549 359.657 63.5147 359.028 65.087C358.399 66.848 356.827 66.0304 354.311 62.7599C350.852 58.1058 349.342 54.0178 349.279 48.7348C349.154 38.6719 354.94 28.2945 360.726 28.2945C361.544 28.2945 363.368 27.4769 364.688 26.5335C370.034 22.6971 375.757 21.6908 379.908 23.8291Z" fill="white"/>
<path d="M371.919 31.8795C369.781 32.3198 366.825 35.15 365.504 38.0431C363.869 41.5651 363.932 48.5462 365.567 53.955C367.139 58.9236 367.705 59.8041 370.41 61.1877C372.863 62.5085 374.246 62.5085 376.951 61.3764C381.856 59.3009 383.303 55.9676 383.24 46.5336C383.24 38.672 382.863 37.2255 379.844 33.7663C378.271 31.9424 375.19 31.1877 371.919 31.8795ZM377.076 37.8544C377.579 38.9865 378.208 42.2569 378.46 45.0871C378.963 51.0619 378.083 55.9047 376.196 57.6028C375.064 58.672 374.938 58.6091 373.429 57.2255C369.907 53.955 368.586 42.2569 371.29 37.9802C373.114 35.0242 375.693 34.9613 377.076 37.8544Z" fill="white"/>
<path d="M443.24 20.3692C441.227 21.4384 439.844 21.7529 439.215 21.4384C438.649 21.1239 430.976 20.6837 422.108 20.4321C407.454 19.9919 405.818 20.0547 403.68 21.061C398.397 23.5768 398.271 27.4761 403.303 32.1302L406.447 35.0233V45.6522C406.447 51.5013 406.196 57.3503 405.881 58.6711C405.567 60.0547 404.246 62.256 402.737 63.8283C399.403 67.4132 399.215 70.1805 402.108 72.5705L404.057 74.2057H418.711C426.825 74.2057 434.12 73.9541 435.001 73.5768C435.881 73.2623 437.328 71.8158 438.271 70.4321C439.844 68.1051 439.906 67.7277 439.089 66.2183C438.586 65.2749 436.888 63.5139 435.252 62.3189C431.667 59.5516 431.101 57.9793 430.85 50.3063C430.661 44.6459 430.724 44.3315 431.919 44.5202C438.586 45.4635 438.271 45.5264 441.982 43.0736C445.001 40.9981 448.271 37.1617 449.466 34.2686C449.969 32.8849 452.171 35.2749 455.944 41.2497C458.145 44.6459 460.221 48.0422 460.535 48.734C460.913 49.4258 461.542 50.5579 461.982 51.2497C465.189 56.5327 465.944 57.7277 466.699 58.7969C467.076 59.4887 467.642 60.495 467.894 60.9981C468.083 61.5013 469.089 62.9478 470.095 64.2057C471.039 65.4636 471.856 67.0988 471.856 67.7906C471.856 69.1742 467.579 79.6145 463.806 87.4132C462.674 89.6774 462.108 91.8786 462.108 93.8912C462.108 96.4069 462.359 97.0988 463.994 98.4195C465.064 99.2371 466.699 99.929 467.768 99.9919C470.85 99.9919 481.982 98.168 485.378 97.0988C489.529 95.7151 490.724 94.583 490.724 92.0044C490.724 89.8032 488.586 84.8975 487.642 84.8975C487.328 84.8975 486.384 84.3315 485.441 83.5768C484.183 82.6334 483.932 82.0673 484.435 81.4384C485.252 80.495 492.611 65.5893 492.611 64.9604C492.611 64.2057 495.567 57.9793 501.29 46.5327C506.07 36.973 508.837 32.6963 510.221 32.6963C511.29 32.6963 513.994 27.9793 513.994 26.2183C513.994 25.0862 513.303 23.7654 512.108 22.5705L510.284 20.6837H501.29C496.322 20.6837 491.227 20.6208 489.969 20.5579C487.328 20.495 485.001 22.1931 483.806 25.1491C483.177 26.5956 483.24 27.3503 484.12 29.2371C484.749 30.4321 485.818 31.7529 486.447 32.1302C487.579 32.7592 487.642 33.1994 487.328 35.9038C486.762 39.8661 485.693 42.256 484.623 42.0044C484.12 41.8786 482.737 39.929 481.479 37.6019C479.277 33.3881 479.278 33.3252 480.284 31.1868C480.85 29.9919 481.29 27.9793 481.29 26.7214C481.29 24.0799 479.592 20.8095 478.145 20.6208C477.642 20.6208 471.542 20.6208 464.623 20.7466C454.183 20.8724 451.605 20.7466 449.592 19.8661C446.573 18.6082 446.825 18.5453 443.24 20.3692ZM476.133 25.2749C476.51 25.6522 476.888 26.7214 476.888 27.7277C476.888 29.1114 476.447 29.7403 475.315 30.3063C473.366 31.1868 473.366 32.3818 475.315 35.9038C476.133 37.4132 477.139 39.2371 477.516 39.929C477.894 40.6208 478.711 42.0044 479.403 43.0736C480.095 44.0799 481.353 46.407 482.233 48.2309C483.114 49.9919 484.372 51.5642 484.938 51.69C486.636 52.0673 488.9 50.3063 488.523 48.9856C488.083 47.7277 488.586 45.9667 490.976 39.3C493.24 33.0107 493.177 31.2497 490.347 29.6145C488.523 28.5453 488.145 27.9793 488.334 26.5327L488.523 24.8346L498.145 24.7717C506.699 24.7717 507.831 24.8975 508.397 25.8409C509.215 27.4761 509.277 27.4132 505.63 31.061C502.862 33.7654 501.227 36.4698 496.573 45.9667C493.428 52.3189 490.221 58.9227 489.466 60.6837C486.259 67.9164 484.812 71.061 481.856 77.0988C480.158 80.5579 478.774 84.017 478.774 84.7088C478.774 86.0296 479.906 86.7843 481.856 86.7843C483.491 86.7843 485.189 88.9227 484.938 90.6208C484.749 91.8787 484.183 92.1931 480.347 92.885C468.208 95.0862 468.083 95.0862 467.076 94.2686C465.944 93.3252 466.196 92.3818 469.34 85.8409C470.661 83.0736 472.674 78.5453 473.806 75.778C474.938 73.0107 476.196 70.3063 476.699 69.7403C477.957 68.2308 477.705 67.0359 475.127 63.0736C473.743 61.061 472.296 58.6711 471.793 57.6648C467.831 49.929 454.435 29.6774 452.988 29.2371C452.296 29.0485 450.787 29.0485 449.529 29.3C447.642 29.6145 446.636 30.495 443.554 34.5831C438.774 40.8724 436.51 41.5013 430.284 38.2308C428.774 37.4761 427.391 37.1617 426.322 37.4761C424.498 37.9164 424.372 38.6082 425.567 40.8095C426.133 41.8786 426.322 44.3315 426.07 49.929C425.755 59.3 426.322 61.1239 430.976 64.5831C433.491 66.4699 434.12 67.2875 433.994 68.5453L433.806 70.1176H420.095C407.831 70.1176 406.259 69.9919 405.755 69.0485C404.938 67.6019 406.07 65.0862 408.02 63.7654C408.9 63.1994 409.906 62.1302 410.284 61.5013C410.661 60.7466 410.976 54.7088 410.976 46.3441V32.3818L408.208 31.061C405.315 29.6145 403.491 27.1617 404.12 25.5265C404.686 24.0799 424.372 24.017 424.938 25.4636C425.378 26.7214 427.894 26.6585 430.221 25.3378C432.045 24.2686 432.233 24.2686 434.435 25.3378C437.454 26.7843 443.051 26.7843 444.372 25.2749C445.252 24.3315 446.699 24.2057 460.347 24.3944C469.34 24.5202 475.63 24.8975 476.133 25.2749Z" fill="white"/>
</svg>
