<svg width="690" height="100" viewBox="0 0 690 100" fill="none" xmlns="http://www.w3.org/2000/svg">
<g clip-path="url(#clip0_4_4411)">
<path d="M127.184 99.4539C70.6189 96.0217 26.0028 83.4378 8.33385 65.8965C0.199365 57.8884 -1.83512 50.77 1.59707 43.016C9.47753 25.347 41.5109 11.1102 90.3212 3.48381C111.676 0.179214 163.792 -1.09205 187.181 1.06887C222.01 4.37347 258.236 13.5263 275.905 23.4401C284.041 28.016 294.336 36.1516 294.336 38.1861C294.336 38.8206 285.692 39.3298 274.126 39.3298C255.821 39.3298 253.66 39.0758 250.737 36.7873C227.475 18.4827 146.124 10.8562 90.1948 21.6608C54.6028 28.5252 35.1545 40.8551 39.9844 53.5666C43.9258 64.116 64.1361 73.2689 96.0419 78.9884C114.473 82.293 161.378 83.5643 182.732 81.4033C212.095 78.3528 237.263 71.7436 249.338 63.6079L255.059 59.6677H274.761C285.438 59.6677 294.336 60.1758 294.336 60.8114C294.336 63.3539 282.388 72.6332 273.109 77.2091C256.584 85.4712 237.772 90.9367 211.713 95.1321C185.656 99.3263 152.479 101.106 127.184 99.4539Z" fill="white"/>
<path d="M304.504 51.4056V6.28027H365.264C454.369 6.28027 482.207 8.56878 511.443 18.3561C532.035 25.3469 543.602 33.2286 547.797 43.3975C556.695 64.6251 531.018 83.6918 482.461 91.9538C460.471 95.6401 440.514 96.5297 372.254 96.5297H304.504V51.4056ZM469.242 77.0814C491.486 73.0136 507.121 66.0228 511.189 58.2688C517.798 45.4309 504.833 33.8642 477.758 27.8895C459.708 23.9492 439.115 22.8044 386.873 22.8044H337.553V51.532V80.2596L397.677 79.624C446.107 79.2424 459.963 78.7343 469.242 77.0814Z" fill="white"/>
<path d="M660.418 67.2942V38.0586H675.036H689.655V67.2942V96.5299H675.036H660.418V67.2942Z" fill="white"/>
<path d="M566.355 54.5829C566.355 46.3208 566.736 43.1427 568.007 43.1427C571.439 43.0163 634.996 53.9473 634.996 54.5829C634.996 55.2186 571.439 66.1507 568.007 66.0231C566.736 66.0231 566.355 62.845 566.355 54.5829Z" fill="white"/>
<path d="M134.81 62.2114C125.657 60.5585 118.412 57.5079 115.108 53.9481C112.565 51.2792 112.311 50.3895 113.583 47.7205C115.362 43.7792 122.226 40.2205 131.76 38.0596C141.165 35.8987 165.825 37.0424 173.707 39.8389C185.019 43.9068 188.324 50.7711 181.587 55.601C173.325 61.4481 149.301 64.8803 134.81 62.2114ZM165.825 55.7286C174.087 53.9481 178.663 50.6435 176.376 47.847C175.486 46.8297 172.054 45.178 168.749 44.2884C160.868 41.9999 135.318 42.1274 128.581 44.5424C122.862 46.5757 120.065 49.8815 122.353 52.1688C126.548 56.3642 152.86 58.5251 165.825 55.7286Z" fill="white"/>
<path d="M660.418 16.4492V6.28027H675.036H689.655V16.4492V26.6182H675.036H660.418V16.4492Z" fill="white"/>
</g>
<defs>
<clipPath id="clip0_4_4411">
<rect width="689.655" height="100" fill="white"/>
</clipPath>
</defs>
</svg>
