<svg width="220" height="100" viewBox="0 0 220 100" fill="none" xmlns="http://www.w3.org/2000/svg">
<g clip-path="url(#clip0_4_4418)">
<path d="M135.878 24.9611C115.687 1.06232 86.0464 -7.09628 69.6835 6.72992C53.3206 20.5561 56.4229 51.1395 76.6137 75.0382C96.8046 98.937 126.445 107.096 142.808 93.2694C159.171 79.4375 156.069 48.8598 135.878 24.9611ZM142.391 90.0756C127.302 102.828 99.3984 94.6234 80.0703 71.7531C60.7422 48.8827 57.3085 20.0019 72.403 7.24983C87.4976 -5.50227 115.396 2.70204 134.724 25.5724C154.052 48.4485 157.486 77.3235 142.391 90.0756Z" fill="white"/>
<path d="M172.531 16.1738H159.31H150.129V29.3944H159.31V68.5763H172.531V29.3944H181.718V16.1738H172.531Z" fill="white"/>
<path d="M137.189 16.1738H117.152V68.5763H137.189C143.571 68.5763 148.741 63.4057 148.741 57.024V27.7261C148.741 21.3444 143.571 16.1738 137.189 16.1738ZM135.521 55.3557H130.379V29.4001H135.521V55.3557Z" fill="white"/>
<path d="M103.086 16.1738H88.86C84.0665 16.1738 80.1758 20.0646 80.1758 24.8581V59.8978C80.1758 64.6912 84.0608 68.582 88.86 68.582H103.086C107.88 68.582 111.77 64.6969 111.77 59.8978V48.9853H98.5498V55.35H93.4078V29.4001H98.5498V35.7648H111.77V24.8581C111.77 20.0646 107.885 16.1738 103.086 16.1738Z" fill="white"/>
<path d="M205.909 16.1738L201.642 52.5733L197.379 16.1738H183.953L193.192 68.5763H210.097L219.336 16.1738H205.909Z" fill="white"/>
<path d="M12.3122 42.375C12.3122 34.7135 18.5454 28.486 26.2012 28.486C28.6579 28.486 30.9718 29.1316 32.9772 30.2571V17.0651C30.8176 16.4881 28.5437 16.1738 26.2012 16.1738C11.7294 16.1738 0 27.909 0 42.375C0 56.8411 11.7294 68.5763 26.2012 68.5763C28.5437 68.5763 30.8119 68.262 32.9772 67.685V54.4987C30.9718 55.6242 28.6637 56.2698 26.2012 56.2698C18.5397 56.2698 12.3122 50.0366 12.3122 42.375Z" fill="white"/>
<path d="M32.9766 41.4216H45.3287L55.8069 30.9434H32.9766V41.4216Z" fill="white"/>
<path d="M32.9766 43.3291V53.813H55.8069L45.3287 43.3291H32.9766Z" fill="white"/>
</g>
<defs>
<clipPath id="clip0_4_4418">
<rect width="219.334" height="100" fill="white"/>
</clipPath>
</defs>
</svg>
