<svg width="307" height="100" viewBox="0 0 307 100" fill="none" xmlns="http://www.w3.org/2000/svg">
<g clip-path="url(#clip0_4_4427)">
<path d="M12.2569 84.1754C4.01904 74.7415 -0.00130541 62.042 3.17953e-07 48.3501C0.00261178 39.2087 1.77971 29.562 5.36264 19.8826C6.7676 16.0829 10.989 14.1426 14.7874 15.5489C18.5871 16.9538 20.5287 21.1753 19.1211 24.9749C16.0918 33.1566 14.6699 41.1216 14.6725 48.3501C14.6751 59.2334 17.8572 68.3108 23.2968 74.5157C28.7744 80.6905 36.4677 84.5097 47.6343 84.5737C51.2734 84.5737 55.2676 84.1402 59.621 83.1766C63.576 82.3043 67.4919 84.8035 68.3654 88.7586C69.2377 92.7162 66.7411 96.6308 62.7847 97.503C57.4965 98.6717 52.4434 99.2449 47.6357 99.2449C47.5534 99.2449 47.4737 99.2475 47.3928 99.2475C32.7764 99.2449 20.4112 93.5858 12.2569 84.1754Z" fill="white"/>
<path d="M63.0273 58.278C63.0326 35.2971 81.6536 16.6748 104.637 16.6709C127.617 16.6748 146.239 35.2971 146.245 58.278C146.24 81.2641 127.617 99.8825 104.637 99.8877C81.6536 99.8825 63.0326 81.2628 63.0273 58.278ZM77.6998 58.278C77.7259 73.1542 89.7609 85.1878 104.637 85.2165C119.508 85.1891 131.546 73.1542 131.573 58.278H131.57C131.546 43.407 119.508 31.3721 104.637 31.3434C89.7635 31.3721 77.7259 43.407 77.6998 58.278Z" fill="white"/>
<path d="M178.727 96.295C176.222 94.8795 174.086 93.0306 172.103 90.9036C168.163 86.6365 164.744 81.1824 161.256 74.6917C154.334 61.7336 147.316 44.5476 139.127 25.6602V25.6628C137.515 21.9454 139.222 17.6247 142.939 16.0121C146.658 14.4009 150.977 16.1087 152.59 19.8262C158.001 32.3155 162.871 43.9482 167.389 53.8326C171.891 63.7092 176.101 71.8661 179.844 77.1451C182.311 80.6823 184.604 82.812 185.916 83.5027C186.573 83.8644 186.908 83.931 187.138 83.9467C187.155 83.9414 187.175 83.9336 187.202 83.9232C187.386 83.854 187.774 83.6659 188.29 83.2964C189.332 82.5717 190.836 81.1394 192.454 79.152C195.727 75.1735 199.476 69.0809 203.122 62.2154C210.456 48.4386 217.515 31.6117 222.556 20.3707C224.216 16.6754 228.557 15.025 232.254 16.6833C235.95 18.3428 237.602 22.6831 235.943 26.3809C232.714 33.5651 228.503 43.4442 223.81 53.4879C219.104 63.5433 213.949 73.7567 208.55 81.9411C204.903 87.4042 201.296 92.0043 196.776 95.266C194.192 97.0888 191.049 98.6022 187.236 98.6244C187.224 98.6244 187.211 98.6244 187.202 98.6244C184.126 98.6257 181.199 97.6973 178.727 96.295Z" fill="white"/>
<path d="M239.808 85.8329C232.79 77.7844 230.128 67.5423 230.125 57.8054C230.143 46.187 235.396 36.1839 242.296 29.0546C249.276 21.9409 257.867 17.226 266.762 16.6815C267.396 16.6462 268.023 16.6331 268.64 16.6318C274.445 16.6462 280.649 17.8801 286.508 20.2983C292.335 22.7413 297.917 26.3674 301.819 31.8867C304.403 35.5414 306.094 40.1676 306.075 45.1712C306.085 49.4919 305.37 53.5592 303.63 57.1957C301.906 60.84 299.196 63.8105 296.115 66.0707C289.893 70.582 282.362 73.0538 272.7 76.4304H272.702C268.869 77.7492 264.694 75.7135 263.374 71.8838C262.055 68.0528 264.092 63.8732 267.925 62.557C275.12 60.0879 280.7 58.0783 284.359 56.138C288.084 54.1442 289.532 52.6243 290.388 50.8746C290.965 49.6551 291.398 47.9563 291.402 45.1712C291.385 43.3406 290.888 41.899 289.796 40.3008C288.703 38.7261 286.918 37.1109 284.618 35.7281C280.056 32.9221 273.492 31.2652 268.64 31.3056C268.247 31.3056 267.876 31.3161 267.52 31.3357C263.805 31.4179 257.548 34.284 252.841 39.2562C248.055 44.205 244.779 50.7845 244.799 57.8054C244.795 64.9386 246.79 71.5691 250.848 76.1692C254.927 80.7367 261.167 84.1342 272.444 84.2073C274.793 84.2073 277.351 84.0441 280.128 83.6941C284.148 83.1836 287.82 86.0275 288.331 90.0465C288.84 94.0656 285.996 97.7386 281.978 98.2478C278.639 98.6709 275.466 98.8798 272.444 98.8798C272.337 98.8798 272.231 98.8798 272.124 98.8798C257.887 98.8837 246.752 93.8619 239.808 85.8329Z" fill="white"/>
<path d="M95.1601 16.7421C99.7833 16.7421 103.531 12.9942 103.531 8.37103C103.531 3.74784 99.7833 0 95.1601 0C90.5369 0 86.7891 3.74784 86.7891 8.37103C86.7891 12.9942 90.5369 16.7421 95.1601 16.7421Z" fill="white"/>
<path d="M115.695 16.7421C120.318 16.7421 124.066 12.9942 124.066 8.37103C124.066 3.74784 120.318 0 115.695 0C111.072 0 107.324 3.74784 107.324 8.37103C107.324 12.9942 111.072 16.7421 115.695 16.7421Z" fill="white"/>
</g>
<defs>
<clipPath id="clip0_4_4427">
<rect width="306.452" height="100" fill="white"/>
</clipPath>
</defs>
</svg>
