<svg width="562" height="100" viewBox="0 0 562 100" fill="none" xmlns="http://www.w3.org/2000/svg">
<g clip-path="url(#clip0_4_4434)">
<path d="M561.701 58.1208C560.957 63.6868 560.327 69.2825 559.438 74.823C558.861 78.4208 557.972 81.9804 557.082 85.5272C556.125 90.5038 552.008 94.2506 546.976 94.7166C535.863 96.2549 524.723 98.1847 513.608 99.1038C491.461 100.825 469.184 99.7442 447.306 95.8868C446.391 95.7293 445.474 95.44 444.557 95.3613C436.429 94.7442 432.095 90.3464 430.367 82.3485C425.563 60.7187 425.648 38.2825 430.616 16.691C432.214 9.74423 435.957 5.8953 443.131 4.63572C464.076 0.946359 485.097 -1.06215 506.291 0.35487C519.801 1.26125 533.218 3.39955 546.674 5.057C552.04 5.41657 556.414 9.50806 557.146 14.8506C558.64 22.574 559.765 30.3591 561.074 38.1208C561.27 39.3144 561.453 40.5102 561.638 41.7059L561.701 58.1208ZM490.765 59.0804H517.693V40.6932H490.95V29.8868H517.693V9.81019H470.829V90.123H490.793L490.765 59.0804Z" fill="white"/>
<path d="M101.294 88.0457V59.9713H79.2369V87.85H60.373V14.9287H79.0667V42.8351H101.201V14.916H120.222V79.5245L120.799 79.6691C121.23 78.8032 121.713 77.9628 122.107 77.0415C131.252 57.1096 140.386 37.1564 149.505 17.1883C150.02 15.4904 151.677 14.4096 153.433 14.6287C162.884 14.7457 172.348 14.6287 182.035 14.6287V87.85H163.407V59.8138C158.694 59.8138 154.322 59.7223 149.962 59.9053C149.282 59.9053 148.445 61.1138 148.065 61.9415C144.386 69.8181 140.735 77.6989 137.186 85.7351C136.756 87.2755 135.279 88.2819 133.692 88.1138C123.024 87.9798 112.354 88.0457 101.294 88.0457ZM163.158 30.0713H162.648L156.848 42.7947H163.158V30.0713Z" fill="white"/>
<path d="M231.791 52.5281V14.892H250.654V88.0345C244.659 88.0345 238.701 88.1026 232.746 87.9558C232.014 87.9558 231.122 86.8537 230.625 86.0792C223.61 75.192 216.659 64.2792 209.682 53.3813C209.144 52.5281 208.569 51.7132 207.599 50.309V87.8516H188.725V14.7345C194.693 14.7345 200.648 14.6558 206.605 14.8132C207.337 14.8132 208.201 15.9303 208.712 16.7175C215.695 27.5984 222.676 38.4984 229.657 49.4154C230.18 50.2409 230.769 51.0835 231.791 52.5281Z" fill="white"/>
<path d="M318.355 88.0462C312.36 88.0462 306.575 88.127 300.762 87.9547C299.936 87.9547 298.917 86.8781 298.379 86.0377C291.298 75.0994 284.294 64.1079 277.279 53.1313C276.794 52.3696 276.258 51.6611 275.262 50.227V87.8504H256.57V14.7334C262.472 14.7334 268.43 14.7334 274.385 14.8121C275.104 14.8121 275.983 15.9291 276.494 16.7164C283.475 27.5887 290.455 38.4845 297.436 49.3994C297.987 50.2674 298.562 51.0951 299.624 52.6823V14.8653H318.368L318.355 88.0462Z" fill="white"/>
<path d="M324.967 87.85V14.9287H365.454V31.384H343.922V42.9925H365.441V59.7755H343.843V71.2649H365.416V87.85H324.967Z" fill="white"/>
<path d="M55.6716 44.4249C50.4354 34.9441 42.5822 30.9377 33.8248 32.9207C19.6291 36.1717 14.2652 53.6185 24.1695 64.327C26.1971 66.5185 28.7099 68.1973 31.5078 69.2313C40.5269 72.5249 48.0418 69.3611 55.9482 58.5802V67.3781C55.9482 72.4462 55.9482 77.5164 55.9482 82.5973C56.178 84.0058 55.3503 85.3717 53.9971 85.8143C39.5971 91.8675 25.9971 90.6207 13.9397 80.6271C1.88438 70.6356 -2.60499 56.9888 1.46523 41.6675C5.47161 26.5632 15.7205 17.3207 31.0503 14.0909C38.7269 12.4909 46.7163 13.4973 53.761 16.9526C54.8269 17.5079 55.5865 18.5185 55.8291 19.6973C55.9993 27.4058 55.9205 35.1143 55.9078 42.81C55.8652 43.3505 55.7865 43.8909 55.6716 44.4249Z" fill="white"/>
<path d="M390.862 71.306H412.632V87.8507H372.143V14.8379H390.862V71.306Z" fill="white"/>
</g>
<defs>
<clipPath id="clip0_4_4434">
<rect width="561.702" height="100" fill="white"/>
</clipPath>
</defs>
</svg>
