<svg width="488" height="100" viewBox="0 0 488 100" fill="none" xmlns="http://www.w3.org/2000/svg">
<g clip-path="url(#clip0_4_4442)">
<path d="M387.599 100H427.583L487.654 0H447.684L387.596 100" fill="white"/>
<path d="M156.932 27.2812V81.7712H189.626C199.796 80.1038 205.613 74.4062 207.826 65.4248C207.846 58.1534 207.829 50.9005 207.826 43.6291C205.613 34.6477 199.796 28.9501 189.626 27.2827L156.932 27.2812ZM169.719 38.2153H184.214C188.766 39.0227 193.086 40.4504 195.148 47.2974L195.112 61.8274C193.032 68.6646 188.729 70.1021 184.177 70.9096H169.682L169.719 38.2153Z" fill="white"/>
<path d="M17.0183 81.7835V40.0213H0.660507L0.65625 27.3105H51.5474L46.0925 40.0213L33.3704 40.027V81.7835H17.0183Z" fill="white"/>
<path d="M56.9969 27.3174L37.0176 81.7719H53.4009L59.7215 61.8295L66.079 70.9102H76.9776L80.609 81.7719H97.103L76.9776 27.3188H56.9983L56.9969 27.3174ZM66.9148 41.8119L73.3447 58.1966H60.6297L66.9148 41.8119Z" fill="white"/>
<path d="M98.7598 81.7835V27.3105H118.783L138.771 67.2762V27.3105H151.493L151.483 81.7835H131.498L111.507 41.8519L111.502 81.7835H98.7598Z" fill="white"/>
<path d="M222.344 56.3947L200.553 27.3105H216.896L228.747 45.4422L240.541 27.3105H258.681L236.822 56.3038L236.861 81.7835H222.358L222.344 56.3947Z" fill="white"/>
<path d="M335.114 100H375.098L435.162 0H395.185L335.109 100" fill="white"/>
<path d="M282.617 100H322.601L382.666 0H342.696L282.607 100" fill="white"/>
</g>
<defs>
<clipPath id="clip0_4_4442">
<rect width="487.654" height="100" fill="white"/>
</clipPath>
</defs>
</svg>
