<svg width="339" height="100" viewBox="0 0 339 100" fill="none" xmlns="http://www.w3.org/2000/svg">
<g clip-path="url(#clip0_4_4452)">
<path d="M166.523 51.3513V65.3155H126.81C122.27 65.3155 122.525 69.8193 126.81 69.8193C126.81 69.8193 144.26 69.8193 152.984 69.8193C173.377 69.8193 173.371 99.9982 152.984 99.9982C139.295 99.9982 111.918 99.9982 111.918 99.9982V86.4856C111.918 86.4856 138.092 86.4856 151.179 86.4856C155.878 86.4856 155.56 81.9812 151.179 81.9812C143.056 81.9812 126.81 81.9812 126.81 81.9812C105.855 81.9812 105.929 51.3513 126.81 51.3513C140.047 51.3513 166.523 51.3513 166.523 51.3513ZM257.683 51.3513H304.164C312.507 51.3513 319.94 57.8168 319.959 66.6668V99.9988H303.262V71.1723C303.262 66.3599 300.395 65.3853 296.942 65.316H274.379V99.9988H257.682V51.3513H257.683ZM213.909 64.918C209.472 64.9444 207.59 67.7253 207.59 71.1701V80.1794C207.59 83.9215 210.814 86.485 213.909 86.485H232.411C234.606 86.485 238.279 85.0025 238.279 80.1794V71.1701C238.279 68.1386 236.432 64.7857 232.411 64.8076L213.909 64.918ZM207.59 51.3513H238.729C248.615 51.3513 254.975 58.0707 254.975 66.2147V84.2312C254.975 97.0073 243.916 99.9971 238.729 99.9971H207.59C195.894 99.9971 190.893 90.6026 190.893 84.2312V66.2147C190.893 55.8405 200.194 51.3513 207.59 51.3513ZM171.036 51.3513H187.734V99.9982H171.036V51.3513ZM90.7071 51.3513H107.405V99.9982H90.7071V51.3513ZM14.8917 51.3513H33.3943L51.445 82.8821L72.6558 51.3513H87.9994L59.1174 99.9999H43.947L14.8917 51.3513ZM163.816 0.00056305H216.615V12.163H180.062V16.6674H216.615V28.8298H180.062C180.062 33.301 183.353 35.136 186.83 35.136H216.615V48.1982H178.256C169.662 48.1982 163.753 41.0773 163.773 33.3342L163.816 0.00056305ZM121.394 0.00056305H137.641V28.8287C137.641 32.9694 140.768 35.1771 144.41 35.1343H162.011V48.1971H136.738C129.563 48.1971 121.395 44.9781 121.395 33.3331L121.394 0.00056305ZM271.222 0H234.667C224.15 0 219.799 9.65574 219.775 14.864V32.881C219.775 44.566 229.406 48.7145 234.667 48.647H271.222V35.1338H243.241C241.249 35.1338 236.472 33.6625 236.472 29.278V19.8194C236.472 15.3133 239.871 13.5126 243.241 13.5126H271.222V0ZM297.395 13.5678C292.959 13.5932 291.077 16.3746 291.077 19.8194V28.8287C291.077 32.5713 294.3 35.1343 297.395 35.1343H315.899C318.093 35.1343 321.766 33.6512 321.766 28.8287V19.8205C321.766 16.7907 319.917 13.4361 315.899 13.4597L297.395 13.5678ZM291.077 0.00056305H322.217C332.1 0.00056305 338.462 6.72 338.462 14.8645V32.8816C338.462 45.6577 327.402 48.6475 322.217 48.6475H291.077C279.381 48.6475 274.379 39.2536 274.379 32.8816V14.8645C274.38 4.49032 283.682 0.00056305 291.077 0.00056305ZM77.1687 13.5678C72.732 13.5937 70.8507 16.3746 70.8507 19.8199V28.8293C70.8507 32.5719 74.0746 35.1349 77.1687 35.1349H95.6712C97.865 35.1349 101.538 33.6518 101.538 28.8293V19.8205C101.538 16.7907 99.6882 13.4361 95.6712 13.4597L77.1687 13.5678ZM70.8507 0.00056305H101.99C111.873 0.00056305 118.236 6.72 118.236 14.8645V32.8816C118.236 45.6577 107.177 48.6475 101.99 48.6475H70.8507C59.1546 48.6475 54.6046 39.2536 54.6046 32.8816V14.8645C54.6046 4.49032 63.4548 0.00056305 70.8507 0.00056305ZM51.4462 0.00056305H14.8923C4.37462 0.00056305 0.0236923 9.65631 0 14.8645V32.8816C0 44.5665 9.63036 48.7151 14.8923 48.6475H51.4462V35.1349H23.0148C21.0247 35.1349 16.2456 33.6631 16.2456 29.2792V19.8205C16.2456 15.315 19.6443 13.5138 23.0148 13.5138H51.4462V0.00056305Z" fill="white"/>
</g>
<defs>
<clipPath id="clip0_4_4452">
<rect width="338.462" height="100" fill="white"/>
</clipPath>
</defs>
</svg>
