<svg width="376" height="100" viewBox="0 0 376 100" fill="none" xmlns="http://www.w3.org/2000/svg">
<path d="M97.6347 50.2276L65.2949 97.3349H82.3302L86.4087 91.0529H102.779L103.58 97.3349H120.215L113.139 50.2276H97.6347ZM93.3558 79.9631L100.639 68.601L101.906 79.9631H93.3558ZM152.154 50.5641H133.917L121.353 97.3349H136.994L140.599 83.9696H144.478L149.686 97.3349H166.521L160.039 81.766C169.261 78.8894 173.067 72.6154 173.067 65.3317C173.067 61.6538 172.002 58.1843 169.389 55.5801C166.256 52.4391 160.776 50.5641 152.154 50.5641ZM149.221 72.8157H143.54L146.016 63.6651H151.561C153.764 63.6651 155.303 64.1298 156.168 65.0032C156.833 65.6683 157.17 66.5417 157.17 67.4792C157.17 70.4119 154.43 72.8157 149.221 72.8157ZM217.955 88.1202L207.13 79.5705C204.59 82.7115 201.649 84.4503 198.043 84.4503C193.901 84.4503 190.696 81.5737 190.696 76.4295C190.696 70.0112 195.239 63.601 202.258 63.601C205.8 63.601 208.54 65.468 209.542 69.2821L223.508 63.2003C221.569 54.9071 214.414 49.5625 204.325 49.5625C184.149 49.5625 174.325 65.0673 174.325 77.8237C174.325 90.3878 183.412 98.3365 196.513 98.3365C206.465 98.3365 213.284 94.266 217.955 88.1202ZM246.889 50.2276L214.55 97.3349H231.585L235.664 91.0529H252.034L252.835 97.3349H269.47L262.394 50.2276H246.889ZM242.611 79.9631L249.894 68.601L251.16 79.9631H242.611ZM318.051 56.5817C314.51 53.0401 308.829 50.5721 299.742 50.5721H283.172L270.607 97.343H290.92C301.745 97.343 309.83 94.3381 315.439 88.7212C320.447 83.7131 323.123 77.2949 323.123 70.2756C323.131 64.5946 321.521 60.0513 318.051 56.5817ZM303.885 79.899C301.481 82.3029 297.402 83.7051 292.659 83.7051H289.918L295.127 64.1939H297.731C301.473 64.1939 303.813 65.0593 305.279 66.5337C306.481 67.7356 307.218 69.4103 307.218 71.9423C307.226 74.8189 305.824 77.9599 303.885 79.899ZM369.43 63.3926L372.907 50.5641H333.019L320.455 97.3349H360.68L364.085 84.5064H339.229L340.631 79.4263H363.484L366.489 68.1362H343.644L344.91 63.3926H369.43Z" stroke="white" stroke-width="3"/>
<path d="M112.034 51.5096L118.732 96.0529H104.71L104.053 90.8926L103.909 89.7708H102.779H86.4087H85.7116L85.335 90.3557L81.6411 96.0529H67.7308L98.3077 51.5096H112.034ZM91.0161 81.2452H93.3638H101.914H103.348L103.188 79.8189L101.922 68.4567L101.521 64.867L99.5658 67.9118L92.2821 79.274L91.0161 81.2452ZM113.139 50.2275H97.6347L65.2949 97.3349H82.3302L86.4087 91.0529H102.779L103.58 97.3349H120.215L113.139 50.2275ZM93.3558 79.9631L100.639 68.6009L101.905 79.9631H93.3558Z" stroke="white" stroke-width="3"/>
<path d="M152.155 51.8465C159.919 51.8465 165.408 53.409 168.485 56.4859C169.599 57.5997 170.448 58.9459 171.001 60.4923C171.522 61.9427 171.786 63.5773 171.786 65.3401C171.786 68.8737 170.841 71.9346 168.982 74.4507C166.938 77.2071 163.797 79.2664 159.655 80.5564L158.309 80.9731L158.846 82.2712L164.591 96.0612H150.552L145.656 83.5132L145.336 82.6959H144.462H140.6H139.615L139.358 83.6414L136.009 96.0532H123.028L134.903 51.8465H152.155ZM141.866 74.0981H143.541H149.222C151.954 74.0981 154.27 73.4731 155.905 72.2872C157.547 71.0933 158.453 69.3866 158.453 67.4715C158.453 66.1814 157.964 64.9795 157.075 64.0901C155.937 62.9523 154.086 62.3754 151.554 62.3754H146.009H145.023L144.767 63.3209L142.299 72.4795L141.866 74.0981ZM152.155 50.5645H133.918L121.354 97.3353H136.995L140.6 83.9699H144.479L149.687 97.3353H166.522L160.039 81.7664C169.262 78.8898 173.068 72.6157 173.068 65.3321C173.068 61.6542 172.003 58.1846 169.39 55.5805C166.257 52.4395 160.777 50.5645 152.155 50.5645ZM143.541 72.8161L146.017 63.6654H151.562C153.765 63.6654 155.304 64.1302 156.169 65.0036C156.834 65.6686 157.171 66.542 157.171 67.4795C157.171 70.4202 154.43 72.8241 149.222 72.8241H143.541V72.8161Z" stroke="white" stroke-width="3"/>
<path d="M204.326 50.8446C208.966 50.8446 213.076 52.0465 216.225 54.3141C219.006 56.3173 220.977 59.1218 221.986 62.4631L210.312 67.5433C209.703 66.0689 208.805 64.875 207.627 63.9856C206.177 62.8958 204.326 62.3189 202.259 62.3189C198.613 62.3189 195.28 63.9054 192.868 66.7901C190.68 69.4103 189.422 72.9199 189.422 76.4295C189.422 79.226 190.28 81.5817 191.906 83.2564C193.453 84.851 195.632 85.7244 198.052 85.7244C200.031 85.7244 201.898 85.2436 203.613 84.3061C204.927 83.5849 206.145 82.6074 207.307 81.3333L216.153 88.3285C213.982 90.9247 211.458 92.968 208.637 94.3942C205.135 96.1651 201.057 97.0625 196.514 97.0625C193.421 97.0625 190.536 96.6058 187.948 95.6923C185.416 94.8109 183.204 93.5128 181.377 91.8462C177.611 88.4167 175.616 83.5689 175.616 77.8237C175.616 74.7468 176.225 71.5176 177.379 68.4808C178.613 65.2276 180.408 62.3029 182.716 59.7708C186.418 55.7003 193.172 50.8446 204.326 50.8446ZM204.326 49.5625C184.15 49.5625 174.326 65.0673 174.326 77.8237C174.326 90.3878 183.413 98.3365 196.514 98.3365C206.466 98.3365 213.285 94.258 217.964 88.1122L207.139 79.5625C204.599 82.7035 201.658 84.4423 198.052 84.4423C193.91 84.4423 190.704 81.5657 190.704 76.4215C190.704 70.0032 195.248 63.5929 202.267 63.5929C205.809 63.5929 208.549 65.4599 209.551 69.274L223.517 63.1923C221.57 54.9071 214.414 49.5625 204.326 49.5625Z" stroke="white" stroke-width="3"/>
<path d="M261.288 51.5096L267.986 96.0529H253.964L253.307 90.8926L253.163 89.7708H252.033H235.663H234.965L234.589 90.3557L230.895 96.0529H216.985L247.562 51.5096H261.288ZM240.27 81.2452H242.618H251.167H252.602L252.441 79.8189L251.175 68.4567L250.775 64.867L248.82 67.9118L241.536 79.274L240.27 81.2452ZM262.393 50.2275H246.889L214.549 97.3349H231.584L235.663 91.0529H252.033L252.834 97.3349H269.469L262.393 50.2275ZM242.61 79.9631L249.893 68.6009L251.159 79.9631H242.61Z" stroke="white" stroke-width="3"/>
<path d="M299.742 51.8465C303.901 51.8465 307.539 52.3834 310.551 53.4491C313.18 54.3786 315.399 55.7327 317.146 57.4795C320.311 60.6446 321.849 64.8273 321.849 70.268C321.849 73.5933 321.224 76.7824 319.982 79.7471C318.748 82.7199 316.914 85.4282 314.542 87.8C311.849 90.4923 308.548 92.5436 304.71 93.9138C300.744 95.3241 296.104 96.0452 290.928 96.0452H272.29L284.165 51.8385H299.742M288.252 84.9875H289.918H292.659C297.707 84.9875 302.13 83.4651 304.79 80.8048C307.05 78.5452 308.508 75.0677 308.508 71.9507C308.508 69.2584 307.755 67.1911 306.192 65.6286C304.365 63.8016 301.601 62.9122 297.739 62.9122H295.135H294.149L293.893 63.8657L288.684 83.377L288.252 84.9875ZM299.742 50.5645H283.172L270.607 97.3353H290.92C301.745 97.3353 309.83 94.3305 315.439 88.7135C320.447 83.7055 323.123 77.2872 323.123 70.268C323.123 64.5869 321.521 60.0436 318.043 56.5741C314.51 53.0404 308.829 50.5645 299.742 50.5645ZM289.918 83.7055L295.127 64.1943H297.731C301.473 64.1943 303.813 65.0596 305.279 66.534C306.481 67.7359 307.218 69.4106 307.218 71.9427C307.218 74.8193 305.816 77.9523 303.877 79.8914C301.473 82.2952 297.394 83.6975 292.651 83.6975H289.918V83.7055Z" stroke="white" stroke-width="3"/>
<path d="M371.232 51.8465L368.452 62.1109H344.91H343.925L343.668 63.0645L342.402 67.808L341.97 69.4186H343.636H364.822L362.498 78.1446H340.631H339.654L339.397 79.0821L337.995 84.1622L337.546 85.7888H339.229H362.418L359.694 96.0532H322.13L334.005 51.8465H371.232ZM372.907 50.5645H333.019L320.455 97.3353H360.679L364.085 84.5068H339.229L340.631 79.4266H363.484L366.489 68.1366H343.644L344.91 63.393H369.429L372.907 50.5645Z" stroke="white" stroke-width="3"/>
<path d="M22.2193 48.7955C18.9231 48.7955 15.9165 48.3279 13.1994 47.3925C10.4823 46.4125 8.14385 45.0317 6.18398 43.25C4.26865 41.4683 2.7542 39.3303 1.64064 36.8359C0.57162 34.297 0.0371094 31.4462 0.0371094 28.2837C0.0371094 25.0767 0.638433 21.8028 1.84108 18.4621C3.08827 15.1214 4.95906 12.0925 7.45344 9.37541C9.94782 6.61378 13.0658 4.36438 16.8074 2.62722C20.5935 0.890064 25.0032 0.0214844 30.0365 0.0214844C32.5754 0.0214844 34.8916 0.355553 36.9851 1.02369C39.1232 1.64729 41.0162 2.56041 42.6643 3.76306C44.3124 4.92116 45.6932 6.34652 46.8068 8.03914C47.9203 9.73175 48.7221 11.6025 49.2121 13.6515L35.248 19.7316C34.758 17.8162 33.8672 16.3909 32.5754 15.4555C31.2837 14.5201 29.747 14.0524 27.9653 14.0524C26.2281 14.0524 24.6469 14.431 23.2215 15.1882C21.7961 15.9009 20.5712 16.8586 19.5467 18.0612C18.5668 19.2639 17.7873 20.6447 17.2083 22.2037C16.6737 23.7181 16.4065 25.2771 16.4065 26.8806C16.4065 29.4641 17.0969 31.4462 18.4777 32.8271C19.9031 34.2079 21.6625 34.8983 23.756 34.8983C25.5822 34.8983 27.2303 34.4751 28.7002 33.6288C30.1701 32.7825 31.5509 31.5799 32.8427 30.0209L43.6665 38.573C41.3058 41.6465 38.3882 44.1186 34.9139 45.9894C31.4396 47.8602 27.208 48.7955 22.2193 48.7955Z" fill="white"/>
<path d="M73.1308 34.9647C74.7788 34.9647 76.2487 34.6083 77.5405 33.8957C78.8768 33.1384 80.0126 32.1808 80.948 31.0227C81.8834 29.8646 82.5961 28.5506 83.086 27.0807C83.6205 25.6108 83.8878 24.1409 83.8878 22.6709C83.8878 21.4238 83.6873 20.2657 83.2865 19.1966C82.9301 18.1276 82.3956 17.1922 81.6829 16.3905C80.9702 15.5887 80.0571 14.9651 78.9436 14.5197C77.8745 14.0742 76.6496 13.8515 75.2688 13.8515C73.6207 13.8515 72.1286 14.2301 70.7923 14.9874C69.5005 15.7 68.387 16.6354 67.4516 17.7935C66.5162 18.9516 65.7812 20.2657 65.2467 21.7356C64.7568 23.2055 64.5118 24.6754 64.5118 26.1453C64.5118 27.3925 64.69 28.5506 65.0463 29.6196C65.4472 30.6886 66.004 31.624 66.7166 32.4258C67.4293 33.2275 68.3202 33.8511 69.3892 34.2965C70.4582 34.742 71.7054 34.9647 73.1308 34.9647ZM72.0617 48.7283C68.632 48.7283 65.4917 48.1938 62.641 47.1248C59.7903 46.0112 57.3404 44.5191 55.2915 42.6483C53.2425 40.7329 51.639 38.4835 50.4809 35.9001C49.3673 33.3166 48.8105 30.5327 48.8105 27.5484C48.8105 23.9404 49.501 20.4884 50.8818 17.1922C52.3071 13.8515 54.2447 10.9117 56.6946 8.3728C59.1444 5.83388 62.0397 3.82946 65.3804 2.35956C68.7656 0.845113 72.4181 0.0878906 76.3378 0.0878906C79.7676 0.0878906 82.9078 0.644672 85.7586 1.75823C88.6093 2.82726 91.0591 4.31943 93.1081 6.23476C95.157 8.10554 96.7383 10.3327 97.8519 12.9161C99.01 15.4996 99.589 18.2835 99.589 21.2679C99.589 24.8758 98.8763 28.3501 97.451 31.6908C96.0702 34.987 94.1548 37.9045 91.705 40.4434C89.2552 42.9823 86.3376 45.009 82.9524 46.5235C79.6117 47.9934 75.9815 48.7283 72.0617 48.7283Z" fill="white"/>
<path d="M109.612 1.02344H124.244L134.867 23.3392L140.881 1.02344H156.381L143.82 47.7931H129.923L118.832 24.5419L112.552 47.7931H97.0508L109.612 1.02344Z" fill="white"/>
<path d="M171.883 48.7283C167.206 48.7283 162.907 47.9711 158.988 46.4567C155.068 44.8977 151.683 42.8264 148.832 40.243L157.785 29.5528C160.458 31.8244 163.13 33.4948 165.803 34.5638C168.475 35.6328 171.059 36.1673 173.553 36.1673C174.578 36.1673 175.402 35.9892 176.025 35.6328C176.649 35.2765 176.961 34.7642 176.961 34.0961C176.961 33.7398 176.872 33.428 176.693 33.1607C176.56 32.8489 176.226 32.5594 175.691 32.2921C175.157 31.9803 174.377 31.624 173.353 31.2231C172.328 30.7777 170.97 30.2432 169.277 29.6196C167.094 28.8178 165.201 28.0161 163.598 27.2143C161.994 26.368 160.658 25.4326 159.589 24.4081C158.565 23.3836 157.785 22.2478 157.251 21.0006C156.761 19.7089 156.516 18.1944 156.516 16.4573C156.516 14.1856 157.006 12.0698 157.986 10.11C159.01 8.10554 160.435 6.36839 162.262 4.89848C164.088 3.42858 166.293 2.27047 168.876 1.42417C171.46 0.533316 174.355 0.0878906 177.562 0.0878906C181.749 0.0878906 185.624 0.711486 189.188 1.95868C192.795 3.20587 195.869 4.92075 198.408 7.10334L189.455 17.7935C187.673 16.3682 185.602 15.1433 183.241 14.1188C180.88 13.0943 178.453 12.5821 175.958 12.5821C174.934 12.5821 174.11 12.738 173.486 13.0498C172.863 13.317 172.551 13.7847 172.551 14.4529C172.551 14.8092 172.64 15.121 172.818 15.3882C172.996 15.611 173.353 15.8559 173.887 16.1232C174.422 16.3905 175.179 16.7245 176.159 17.1254C177.139 17.4817 178.431 17.9494 180.034 18.5285C182.038 19.2857 183.842 20.0652 185.446 20.867C187.05 21.6687 188.408 22.6041 189.522 23.6732C190.68 24.6976 191.548 25.9003 192.127 27.2811C192.751 28.6174 193.063 30.1764 193.063 31.9581C193.063 34.3188 192.573 36.5237 191.593 38.5726C190.657 40.6216 189.277 42.4033 187.45 43.9177C185.669 45.3876 183.464 46.568 180.836 47.4589C178.208 48.3052 175.223 48.7283 171.883 48.7283Z" fill="white"/>
<path d="M221.725 34.9647C223.373 34.9647 224.842 34.6083 226.134 33.8957C227.471 33.1384 228.606 32.1808 229.542 31.0227C230.477 29.8646 231.19 28.5506 231.68 27.0807C232.214 25.6108 232.482 24.1409 232.482 22.6709C232.482 21.4238 232.281 20.2657 231.88 19.1966C231.524 18.1276 230.989 17.1922 230.277 16.3905C229.564 15.5887 228.651 14.9651 227.537 14.5197C226.468 14.0742 225.243 13.8515 223.863 13.8515C222.214 13.8515 220.722 14.2301 219.386 14.9874C218.094 15.7 216.981 16.6354 216.045 17.7935C215.11 18.9516 214.375 20.2657 213.84 21.7356C213.351 23.2055 213.106 24.6754 213.106 26.1453C213.106 27.3925 213.284 28.5506 213.64 29.6196C214.041 30.6886 214.598 31.624 215.31 32.4258C216.023 33.2275 216.914 33.8511 217.983 34.2965C219.052 34.742 220.299 34.9647 221.725 34.9647ZM220.655 48.7283C217.226 48.7283 214.085 48.1938 211.235 47.1248C208.384 46.0112 205.934 44.5191 203.885 42.6483C201.836 40.7329 200.233 38.4835 199.075 35.9001C197.961 33.3166 197.404 30.5327 197.404 27.5484C197.404 23.9404 198.095 20.4884 199.476 17.1922C200.901 13.8515 202.838 10.9117 205.288 8.3728C207.738 5.83388 210.633 3.82946 213.974 2.35956C217.359 0.845113 221.012 0.0878906 224.932 0.0878906C228.361 0.0878906 231.502 0.644672 234.352 1.75823C237.203 2.82726 239.653 4.31943 241.702 6.23476C243.751 8.10554 245.332 10.3327 246.446 12.9161C247.604 15.4996 248.183 18.2835 248.183 21.2679C248.183 24.8758 247.47 28.3501 246.045 31.6908C244.664 34.987 242.749 37.9045 240.299 40.4434C237.849 42.9823 234.931 45.009 231.546 46.5235C228.205 47.9934 224.575 48.7283 220.655 48.7283Z" fill="white"/>
<path d="M258.206 1.02344H273.84L264.887 34.4303H286.2L282.593 47.7931H245.645L258.206 1.02344Z" fill="white"/>
<path d="M298.895 1.02344H338.783L335.309 13.8517H310.788L309.518 18.5955H332.369L329.362 29.887H306.512L305.109 34.9648H329.963L326.556 47.7931H286.334L298.895 1.02344Z" fill="white"/>
</svg>
