<svg width="357" height="100" viewBox="0 0 357 100" fill="none" xmlns="http://www.w3.org/2000/svg">
<g clip-path="url(#clip0_4_4480)">
<path fill-rule="evenodd" clip-rule="evenodd" d="M41.8237 71.043H314.864C322.864 71.043 329.35 77.5286 329.35 85.5286C329.35 93.5286 322.864 100.005 314.874 100.005H41.8237C33.8237 100.005 27.3477 93.5192 27.3477 85.5286C27.3568 77.5286 33.8331 71.043 41.8237 71.043ZM84.286 92.1255H87.9375V88.3531H89.7495C93.0294 88.3531 95.4172 86.7178 95.4172 83.6052V83.5681C95.4172 80.6411 93.271 78.9316 89.9353 78.9316H84.286V92.1255ZM87.9468 85.4821V81.9977H89.6566C90.9759 81.9977 91.7657 82.6018 91.7657 83.7353V83.7724C91.7657 84.8132 90.9759 85.4914 89.675 85.4914L87.9468 85.4821ZM102.609 92.1255H112.653V88.9198H106.27V78.9316H102.618L102.609 92.1255ZM118.813 92.1162H122.66L123.598 89.7655H128.681L129.638 92.1162H133.559L127.947 78.8387H124.425L118.813 92.1162ZM124.676 86.9223L126.163 83.1685L127.631 86.9223H124.676ZM142.246 92.1162H145.917V87.1267L150.925 78.9316H146.836L144.105 83.7353L141.392 78.9316H137.229L142.237 87.1825L142.246 92.1162ZM173.735 92.3484C176.941 92.3484 179.069 90.7503 179.069 88.0558V88.0186C179.069 85.547 177.183 84.5716 174.154 83.9117C172.332 83.4937 171.877 83.2334 171.877 82.6296V82.5925C171.877 82.1278 172.314 81.7468 173.197 81.7468C174.358 81.7468 175.677 82.2022 176.885 83.0476L178.716 80.4647C177.285 79.3125 175.529 78.7085 173.289 78.7085C170.13 78.7085 168.188 80.474 168.188 82.9269V82.9641C168.188 85.6772 170.353 86.4669 173.159 87.1081C174.943 87.5261 175.38 87.8235 175.38 88.3718V88.4089C175.38 88.9756 174.851 89.3101 173.875 89.3101C172.351 89.3101 170.902 88.7714 169.601 87.7306L167.566 90.1651C169.183 91.6146 171.413 92.3484 173.735 92.3484ZM189.745 92.1162H193.415V87.1267L198.423 78.9316H194.335L191.603 83.7353L188.89 78.9316H184.727L189.735 87.1825L189.745 92.1162ZM209.712 92.3484C212.918 92.3484 215.046 90.7503 215.046 88.0558V88.0186C215.046 85.547 213.159 84.5716 210.13 83.9117C208.309 83.4937 207.854 83.2334 207.854 82.6296V82.5925C207.854 82.1278 208.291 81.7468 209.173 81.7468C210.335 81.7468 211.654 82.2022 212.862 83.0476L214.692 80.4647C213.262 79.3125 211.505 78.7085 209.266 78.7085C206.107 78.7085 204.165 80.474 204.165 82.9269V82.9641C204.165 85.6772 206.33 86.4669 209.136 87.1081C210.92 87.5261 211.357 87.8235 211.357 88.3718V88.4089C211.357 88.9756 210.827 89.3101 209.852 89.3101C208.328 89.3101 206.878 88.7714 205.577 87.7306L203.543 90.1651C205.169 91.6146 207.389 92.3484 209.712 92.3484ZM225.322 92.1255H228.974V82.1371H232.932V78.9316H221.364V82.1371H225.322V92.1255ZM240.188 92.1255H250.892V89.013H243.812V86.9223H250.14V84.042H243.812V82.0442H250.799V78.9316H240.188V92.1255ZM258.418 78.9316V92.1162H261.996V84.5807L265.35 89.7097H265.424L268.797 84.5436V92.1162H272.43V78.9316H268.565L265.415 84.0326L262.265 78.9316H258.418Z" fill="white"/>
<path d="M63.0634 16.0556L46.1993 33.9418L35.0681 26.2763C35.0681 26.2763 38.7289 22.7641 35.3841 20.2089C32.7732 18.2205 25.4701 22.4483 25.7766 30.7548C26.1482 40.3345 32.0484 45.7606 38.5618 45.7606C44.6013 45.7606 46.1902 40.8641 46.1902 40.8641H59.7464V52.1531L78.8127 1.67241H100.601L118.097 47.0337C118.097 47.0337 119.37 49.4308 120.643 50.072C120.643 50.072 120.717 20.3112 120.717 19.4748C120.717 18.6387 120.606 17.7189 120.086 17.1241C119.231 16.13 117.781 15.7304 117.781 15.7304V1.67241C117.781 1.67241 137.972 1.67241 148.322 1.67241C164.155 1.67241 168.225 5.9929 172.815 14.2903C179.161 5.7142 187.886 0.0742393 200.336 0.0742393C213.149 0.0742393 222.209 4.81298 227.384 12.6921C234.613 4.02312 246.246 0 256.894 0C269.976 0 280.903 6.35537 286.562 16.2136V1.67241H315.988L319.091 9.57951L321.396 1.67241H351.779V15.4053C349.633 16.4458 348.768 17.5051 349.149 19.958L353.396 47.1079C353.572 47.9907 353.879 48.9105 354.641 49.5888C355.523 50.3785 356.713 50.2298 356.713 50.2298V65.886H326.172V54.058H308.666V65.914H279.955V58.2114C279.955 58.2114 269.465 67.4748 255.937 67.4748C238.636 67.4748 227.068 54.6992 227.068 54.6992V65.8769C227.068 65.8769 225.795 65.8769 206.701 65.8769C188.583 65.8769 173.029 55.9162 168.68 37.77C166.618 39.7398 157.54 46.2531 146.65 48.7061C145.804 48.8919 145.377 49.217 145.377 50.1462C145.377 51.828 148.964 52.4227 148.964 52.4227V65.8769C148.964 65.8769 54.794 65.8769 37.2981 65.8769C16.6151 65.886 0.00195312 51.67 0.00195312 33.626C0.00195312 15.5817 12.9543 0.232252 34.4271 0.232252C54.9521 0.232252 63.0634 16.0556 63.0634 16.0556ZM34.1111 6.32738C20.6478 6.32738 5.79992 15.842 5.79992 32.9848C5.79992 44.1625 16.7732 59.6515 36.4991 59.6515H53.0472V46.7363H50.0275C50.0275 46.7363 48.16 51.6886 39.3701 51.6886C24.2622 51.6886 19.6441 37.9464 19.6441 30.4389C19.6441 22.9314 23.9462 13.8258 33.6466 13.8258C43.347 13.8258 43.6628 20.1254 43.6628 21.6491C43.6628 23.1637 42.7894 23.9627 42.7894 24.2787C42.7894 24.3994 42.8265 24.4923 42.8916 24.5481L44.3969 25.784C44.9172 26.2114 45.6884 26.1649 46.1529 25.6724L55.0263 16.3252C55.0263 16.3252 47.1565 6.32738 34.1111 6.32738ZM66.65 51.9767C66.65 51.9767 66.2504 53.2588 65.0519 54.4576C63.9648 55.554 62.5153 56.0556 62.5153 56.0556V59.8095H78.4967V56.0556C78.4967 56.0556 76.6385 55.8604 76.1089 54.5318C75.7928 53.742 75.7928 52.4598 76.1089 51.6609C76.4247 50.8617 79.7697 41.914 79.7697 41.914H96.0762C96.0762 41.914 99.4212 50.7874 99.8951 51.9024C100.378 53.0172 100.378 53.9 99.737 55.015C99.0961 56.1393 97.8231 55.972 97.8231 55.972V59.8095H117.791V56.0556C117.791 56.0556 115.876 55.4146 115.087 54.4576C114.288 53.5004 113.489 52.3856 113.015 51.1868L96.4665 7.73976H82.8638L66.65 51.9767ZM87.5652 18.6016L92.973 33.7746H82.4736L87.5652 18.6016ZM124.146 11.9673C124.146 11.9673 125.651 12.8408 126.292 13.4819C126.924 14.1231 126.85 15.7211 126.85 15.7211V53.2588C126.85 53.2588 126.692 54.216 125.893 55.015C125.094 55.814 123.979 56.0556 123.979 56.0556V59.8095H142.432V55.972C142.432 55.972 141.549 55.7304 140.759 54.7734C139.96 53.8071 139.886 53.2497 139.886 53.2497V44.9523C139.886 44.9523 148.843 42.4994 155.635 39.3588C161.526 36.6456 168.364 32.8176 168.364 21.9558C168.364 11.0939 158.98 7.73976 149.595 7.73976C140.211 7.73976 124.146 7.73976 124.146 7.73976V11.9673ZM155.003 22.7548C155.003 31.5446 140.053 37.77 140.053 37.77V15.5724C140.053 15.5724 155.003 11.8931 155.003 22.7548ZM202.576 6.41116C189.112 6.41116 174.264 15.9256 174.264 33.0684C174.264 44.2554 185.238 59.7444 204.964 59.7444H221.512V46.8292H218.492C218.492 46.8292 216.624 51.7815 207.835 51.7815C192.727 51.7815 188.109 38.0393 188.109 30.5318C188.109 23.0243 192.411 13.9187 202.111 13.9187C211.811 13.9187 212.127 20.2183 212.127 21.742C212.127 23.2566 211.254 24.0556 211.254 24.3716C211.254 24.4923 211.291 24.5852 211.356 24.641L212.861 25.8769C213.382 26.3043 214.153 26.2578 214.618 25.7653L223.491 16.4181C223.491 16.4181 215.612 6.42028 202.576 6.41116ZM285.224 33.3844C285.224 18.044 272.559 6.16024 255.695 6.16024C238.831 6.16024 226.167 18.0533 226.167 33.3844C226.167 48.7154 238.515 61.3146 255.695 61.3146C272.875 61.3146 285.224 48.7247 285.224 33.3844ZM255.705 14.4576C262.227 14.4576 271.138 19.2519 271.138 33.626C271.138 48 263.175 52.7943 255.705 52.7943C248.225 52.7943 240.429 48.957 240.429 33.626C240.429 18.2856 249.173 14.4576 255.705 14.4576ZM292.889 7.77688V11.4935C292.889 11.4935 295.138 12.0696 295.556 12.7385C295.955 13.3704 295.593 14.7734 295.593 14.7734L289.591 52.2647C289.591 52.2647 289.433 53.7049 288.476 54.8199C287.519 55.9349 286.209 56.1393 286.209 56.1393V59.8095H302.673V56.3809C302.673 56.3809 301.084 56.3809 300.211 55.0986C299.579 54.1696 299.737 52.4692 299.737 52.4692L303.872 24.0371L312.067 48.1578H322.083L330.353 22.4389C330.353 22.4389 334.887 51.5028 335.045 52.785C335.212 54.058 334.971 54.5412 334.413 55.3402C333.865 56.1393 332.192 56.3809 332.192 56.3809V59.8373H351.203V56.6225C351.203 56.6225 349.688 55.8978 349.372 55.0243C349.057 54.1416 348.889 53.4262 348.731 52.144C348.573 50.871 343.482 16.2136 343.324 14.9314C343.166 13.6584 343.166 13.0081 343.881 12.1347C344.476 11.4099 345.795 10.8523 345.795 10.8523V7.73976H325.995L318.682 28.9895L311.844 7.77688H292.889Z" fill="white"/>
</g>
<defs>
<clipPath id="clip0_4_4480">
<rect width="356.714" height="100" fill="white"/>
</clipPath>
</defs>
</svg>
