<svg width="247" height="100" viewBox="0 0 247 100" fill="none" xmlns="http://www.w3.org/2000/svg">
<g clip-path="url(#clip0_4_4484)">
<path d="M145.257 94.0728C142.787 93.8868 141.088 93.6045 140.145 93.226C138.406 92.5204 137.219 91.5967 136.584 90.442C135.949 89.2874 135.635 87.8248 135.635 86.0351L135.641 78.2796C135.43 78.3951 135.212 78.4977 135 78.6003L134.994 86.0351C134.994 87.9467 135.327 89.4926 136.02 90.7499C136.719 92.0265 138.028 93.0593 139.901 93.8226C140.914 94.2267 142.653 94.5218 145.199 94.7143C147.316 94.8811 148.965 95.0029 150.216 95.0992V99.3586H96.0366V95.0992C97.2874 95.0029 98.936 94.8811 101.047 94.7143C103.6 94.5218 105.332 94.2332 106.352 93.8226C108.225 93.0593 109.527 92.0329 110.232 90.7564C110.925 89.4991 111.259 87.9531 111.259 86.0415L111.233 46.8921C111.028 46.9947 110.81 47.0781 110.592 47.1615L110.617 86.0479C110.617 87.8376 110.303 89.3002 109.668 90.4549C109.033 91.6095 107.846 92.5332 106.108 93.2389C105.165 93.6173 103.465 93.8996 100.995 94.0856C98.5255 94.2781 96.6588 94.4192 95.3887 94.5154V100.013H150.851V94.5154C149.594 94.4064 147.727 94.2652 145.257 94.0728Z" fill="white"/>
<path d="M95.4023 0V5.50388C96.9868 5.68991 98.8792 6.02989 101.06 6.51742C103.267 7.01135 104.935 7.49246 106.064 7.96074C107.847 8.71127 109.047 9.69915 109.662 10.918C110.272 12.1432 110.58 13.548 110.58 15.1453V17.6727C110.599 17.6855 110.625 17.692 110.644 17.7048C110.83 17.7882 111.029 17.8652 111.221 17.9357V15.1517C111.221 13.471 110.888 11.9507 110.24 10.6421V10.6357C109.553 9.28219 108.238 8.18526 106.32 7.377C105.166 6.89589 103.446 6.40195 101.214 5.9016C99.2769 5.46539 97.5449 5.14465 96.0567 4.94579V0.641478H150.236V4.93938C148.748 5.13824 147.022 5.45898 145.078 5.89518C142.846 6.39554 141.127 6.88947 139.972 7.37058C138.054 8.17884 136.733 9.27577 136.053 10.6293C135.398 11.9443 135.071 13.4582 135.071 15.1389V15.9856C135.283 15.9471 135.501 15.9151 135.713 15.8894V15.1389C135.713 13.5416 136.021 12.1368 136.63 10.9115C137.246 9.69273 138.446 8.70486 140.229 7.95433C141.358 7.48605 143.026 7.00494 145.232 6.511C147.413 6.02348 149.299 5.68349 150.89 5.49747V0H95.4023Z" fill="white"/>
<path d="M135.655 68.2275L135.662 61.3444C135.443 61.2803 135.232 61.2097 135.02 61.1392L135.014 68.3301C135.027 68.3301 135.039 68.3237 135.059 68.3237C135.251 68.2852 135.45 68.2532 135.655 68.2275Z" fill="white"/>
<path fill-rule="evenodd" clip-rule="evenodd" d="M86.4199 76.0024H88.447L87.4399 73.4365L86.4199 76.0024Z" fill="white"/>
<path fill-rule="evenodd" clip-rule="evenodd" d="M62.4805 72.6411H61.3066V75.0274H62.4934C63.385 75.0274 63.9239 74.5655 63.9239 73.8535V73.8278C63.9239 73.0581 63.385 72.6411 62.4805 72.6411Z" fill="white"/>
<path fill-rule="evenodd" clip-rule="evenodd" d="M216.493 65.1484H29.7716C24.2998 65.1484 19.8672 69.5811 19.8672 75.0529C19.8672 80.5247 24.2998 84.9573 29.7716 84.9573H216.499C221.971 84.9573 226.404 80.5247 226.404 75.0529C226.404 69.5811 221.965 65.1484 216.493 65.1484ZM66.4192 73.7378C66.4192 75.8611 64.7835 76.9837 62.5383 76.9837H61.3002V79.5625H58.7985V70.5433H58.8049H62.673C64.9503 70.5433 66.4192 71.7172 66.4192 73.7122V73.7378ZM78.2096 79.556H71.3458V70.5433H73.8411V77.3686H78.2096V79.556ZM89.8332 79.5625L89.1789 77.9523H85.6892L85.0478 79.5625H82.4177L86.2602 70.4791H88.6721L92.5146 79.5625H89.8332ZM100.95 76.1498V79.5625H98.4354V76.1883L95.0099 70.5433H97.8581L99.7119 73.8276L101.579 70.5433H104.375L100.95 76.1498ZM123.626 76.7784C123.626 78.6195 122.17 79.7164 119.983 79.7164C118.392 79.7164 116.871 79.2161 115.762 78.2218L117.154 76.5603C118.045 77.266 119.033 77.6444 120.079 77.6444C120.746 77.6444 121.112 77.4135 121.112 77.0286V77.003C121.112 76.6309 120.817 76.4256 119.591 76.137C117.673 75.7008 116.192 75.1555 116.192 73.3016V73.276C116.192 71.6017 117.519 70.3893 119.681 70.3893C121.214 70.3893 122.414 70.7999 123.389 71.5889L122.138 73.3529C121.311 72.7756 120.412 72.4613 119.611 72.4613C119.008 72.4613 118.706 72.7179 118.706 73.0386V73.0643C118.706 73.4748 119.014 73.6544 120.265 73.9431C122.337 74.3921 123.626 75.0657 123.626 76.7528V76.7784ZM133.441 76.1498V79.5625H130.926V76.1883L127.501 70.5433H130.349L132.203 73.8276L134.07 70.5433H136.866L133.441 76.1498ZM148.233 76.7784C148.233 78.6195 146.777 79.7164 144.59 79.7164C142.992 79.7164 141.472 79.2161 140.362 78.2218L141.754 76.5603C142.646 77.266 143.634 77.6444 144.68 77.6444C145.347 77.6444 145.712 77.4135 145.712 77.0286V77.003C145.712 76.6309 145.417 76.4256 144.192 76.137C142.274 75.7008 140.792 75.1555 140.792 73.3016V73.276C140.792 71.6017 142.12 70.3893 144.282 70.3893C145.815 70.3893 147.015 70.7999 147.99 71.5889L146.745 73.3529C145.918 72.7756 145.02 72.4613 144.218 72.4613C143.615 72.4613 143.313 72.7179 143.313 73.0386V73.0643C143.313 73.4748 143.621 73.6544 144.872 73.9431C146.944 74.3921 148.233 75.0657 148.233 76.7528V76.7784ZM160.46 72.7307H157.753V79.556H155.251V72.7307H152.55V70.5433H160.46V72.7307ZM172.738 79.556H165.419V70.5433H172.674V72.6666H167.895V74.0329H172.225V76.0022H167.895V77.4327H172.738V79.556ZM187.466 79.5625H184.977V74.3793L182.668 77.9074H182.617L180.326 74.405V79.556H177.876V70.5433H177.882H180.525L182.674 74.0329L184.823 70.5433H187.466V79.5625Z" fill="white"/>
<path d="M246.218 49.2333L244.743 49.3359C244.673 49.3423 244.48 49.3231 244.39 49.2461C244.191 49.0729 244.063 48.7842 243.98 48.3673L241.08 29.835C240.939 28.9369 241.01 28.7124 242.113 28.1799L242.889 27.8015V16.1843H219.738L219.001 18.6989L218.013 16.1843H195.606V23.1957C191.09 18.0254 184.316 15.0425 176.734 15.0425C168.901 15.0425 161.556 17.9548 156.713 22.9006C152.653 17.7816 146.27 15.0938 138.129 15.0938C130.643 15.0938 124.389 17.9997 119.514 23.7473C116.249 18.5321 112.496 16.1843 102.624 16.1843H80.3964V27.16L80.4093 28.1928L81.3971 28.4814C81.5383 28.5199 81.8141 28.6354 82.045 28.7894C82.2375 28.9176 82.3658 29.1229 82.3914 29.3539C82.4043 29.4501 82.4107 29.572 82.4107 29.7195C82.4107 30.1044 82.385 39.6239 82.3722 45.6731L70.9988 16.1843H54.2241L43.5435 44.4735V42.9339H32.9142L31.9328 42.9468L31.612 43.8705C31.5286 44.1143 30.6819 46.276 27.7054 46.276C24.3313 46.276 20.5914 43.4856 20.3541 37.3531C20.2386 34.2868 21.8872 32.3239 23.3306 31.5734C23.5743 31.4451 23.8052 31.3489 24.0041 31.2847C24.6456 31.0602 25.2614 31.676 25.0369 32.3175C24.9342 32.6061 24.729 32.9525 24.3633 33.3631L23.1445 34.5306L33.1067 41.3944L46.0966 27.6154L45.654 26.7495C45.4102 26.2812 39.5664 15.2028 24.8829 15.2028C10.4625 15.2028 0 25.3703 0 39.3737C0 52.4984 11.7904 62.7749 26.833 62.7749H104.439L104.433 51.0551L103.291 50.8562C103.15 50.8305 103.002 50.7985 102.855 50.76C108.262 49.3359 113.08 46.5455 115.761 44.5954C119.36 55.7122 129.617 62.7813 142.479 62.7813H157.759V56.9182C161.062 59.638 167.573 63.8718 176.092 63.8718C182.661 63.8718 188.171 60.9017 191.109 58.926V62.8069H213.465V54.6987H222.657V62.7684H246.263V50.7087L246.218 49.2333ZM244.884 61.3957H224.036V53.3259H212.092V61.4149H192.488V56.1612C192.488 56.1612 185.323 62.4862 176.092 62.4862C164.276 62.4862 156.386 53.7621 156.386 53.7621V61.3957C156.386 61.3957 155.52 61.3957 142.485 61.3957C130.117 61.3957 119.495 54.596 116.531 42.2091C115.126 43.5562 108.929 48.0016 101.488 49.6759C100.911 49.8042 100.622 50.0287 100.622 50.6573C100.622 51.8056 103.066 52.2161 103.066 52.2161V61.4021C103.066 61.4021 38.7838 61.4021 26.833 61.4021C12.7141 61.4021 1.37276 51.6965 1.37276 39.3802C1.37276 27.0638 10.2187 16.5884 24.8765 16.5884C38.8864 16.5884 44.4223 27.3845 44.4223 27.3845L32.9142 39.5918L25.3127 34.3574C25.3127 34.3574 27.8081 31.9583 25.5308 30.2134C23.7475 28.8535 18.7632 31.7402 18.9749 37.4108C19.2251 43.9475 23.2536 47.6552 27.7054 47.6552C31.8301 47.6552 32.9142 44.3131 32.9142 44.3131H42.1708V52.0173L55.1799 17.5571H70.0558L82.0001 48.5212C82.0001 48.5212 82.8661 50.157 83.7385 50.5932C83.7385 50.5932 83.7898 30.2776 83.7898 29.7067C83.7898 29.1358 83.7129 28.5071 83.3601 28.103C82.7763 27.4294 81.7884 27.1472 81.7884 27.1472V17.5635C81.7884 17.5635 95.5738 17.5635 102.636 17.5635C113.445 17.5635 116.223 20.5079 119.36 26.1785C123.69 20.3283 129.649 16.473 138.149 16.473C146.898 16.473 153.082 19.706 156.61 25.088C161.543 19.1672 169.491 16.4217 176.753 16.4217C185.682 16.4217 193.149 20.7645 197.004 27.4872V17.5635H217.095L219.212 22.9583L220.79 17.5635H241.529V26.9419C240.06 27.6539 239.47 28.3724 239.733 30.0531L242.633 48.5854C242.754 49.1884 242.966 49.817 243.479 50.2789C244.082 50.8177 244.891 50.7151 244.891 50.7151V61.3957H244.884Z" fill="white"/>
<path d="M57.9452 21.7012H67.2338L78.5302 51.3631C78.8574 52.1778 79.3962 52.9411 79.9415 53.6019C80.4803 54.2562 81.7889 54.6924 81.7889 54.6924V57.2519H68.1575V54.6347C68.1575 54.6347 69.0235 54.7437 69.4597 53.9803C69.8959 53.217 69.8959 52.614 69.5688 51.8506C69.2416 51.0873 66.9644 45.0317 66.9644 45.0317H55.8283C55.8283 45.0317 53.5447 51.1386 53.3266 51.6839C53.1084 52.2291 53.1084 53.1015 53.3266 53.6468C53.6858 54.5513 54.9559 54.686 54.9559 54.686V57.2455H44.0508V54.686C44.0508 54.686 45.0451 54.346 45.7828 53.5955C46.5974 52.7744 46.8733 51.902 46.8733 51.902L57.9452 21.7012ZM57.6758 39.4765H64.8411L61.1526 29.1167L57.6758 39.4765Z" fill="white"/>
<path d="M86.1247 21.7012C86.1247 21.7012 97.0939 21.7012 103.496 21.7012C109.904 21.7012 116.313 23.9912 116.313 31.4067C116.313 38.8222 111.643 41.433 107.627 43.2869C102.989 45.4294 96.8758 47.1037 96.8758 47.1037V52.768C96.8758 52.768 96.9272 53.1528 97.4724 53.8071C98.0113 54.4615 98.6143 54.6218 98.6143 54.6218V57.2391H86.0156V54.6796C86.0156 54.6796 86.779 54.5128 87.3178 53.9739C87.8631 53.4287 87.9721 52.7744 87.9721 52.7744V27.1537C87.9721 27.1537 88.0235 26.0632 87.5872 25.627C87.151 25.1908 86.1247 24.5942 86.1247 24.5942V21.7012ZM96.9849 27.0447V42.2028C96.9849 42.2028 107.191 37.9498 107.191 31.952C107.197 24.5365 96.9849 27.0447 96.9849 27.0447Z" fill="white"/>
<path d="M175.931 58.2719C164.205 58.2719 155.77 49.6697 155.77 39.2072C155.77 28.7446 164.417 20.6235 175.931 20.6235C187.446 20.6235 196.093 28.7382 196.093 39.2072C196.093 49.6761 187.664 58.2719 175.931 58.2719ZM165.507 39.3739C165.507 49.8429 170.825 52.4601 175.931 52.4601C181.031 52.4601 186.464 49.1885 186.464 39.3739C186.464 29.5593 180.383 26.2878 175.931 26.2878C171.479 26.2878 165.507 28.905 165.507 39.3739Z" fill="white"/>
<path d="M201.342 21.7268H214.267L218.937 36.205L223.928 21.7012H237.45V23.8309C237.45 23.8309 236.552 24.2094 236.148 24.7033C235.661 25.2999 235.661 25.7425 235.77 26.6149C235.879 27.4873 239.349 51.145 239.458 52.0174C239.567 52.8962 239.676 53.3838 239.894 53.9803C240.106 54.5769 241.139 55.0709 241.139 55.0709V57.2711H228.162V54.9105C228.162 54.9105 229.304 54.7437 229.682 54.1984C230.067 53.6532 230.227 53.326 230.118 52.4536C230.009 51.5812 226.917 31.7339 226.917 31.7339L221.272 49.2911H214.434L208.84 32.8244L206.018 52.2355C206.018 52.2355 205.909 53.3966 206.345 54.0317C206.942 54.9105 208.026 54.9105 208.026 54.9105V57.2519H196.787V54.7437C196.787 54.7437 197.679 54.6026 198.333 53.8456C198.987 53.0823 199.096 52.1008 199.096 52.1008L203.195 26.5058C203.195 26.5058 203.439 25.55 203.17 25.1138C202.888 24.652 201.348 24.2671 201.348 24.2671V21.7268" fill="white"/>
<path d="M38.9435 27.5642L32.8816 33.9469C32.5608 34.2804 32.0412 34.3125 31.682 34.0238L30.6492 33.1771C30.6043 33.1386 30.5786 33.0745 30.5786 32.9911C30.5786 32.773 31.1752 32.2277 31.1752 31.1949C31.1752 30.1557 30.9635 25.8514 24.3371 25.8514C17.717 25.8514 14.779 32.0673 14.779 37.1927C14.779 42.3182 17.9287 51.6966 28.2437 51.6966C34.2479 51.6966 35.518 48.316 35.518 48.316H37.5836V57.1491H26.2936C12.829 57.1427 5.33008 46.5647 5.33008 38.9312C5.33008 27.2242 15.4654 20.7324 24.6578 20.7324C33.5679 20.7388 38.9435 27.5642 38.9435 27.5642Z" fill="white"/>
<path d="M153.942 27.6285L147.88 34.0112C147.559 34.3448 147.039 34.3768 146.68 34.0882L145.647 33.2414C145.602 33.2029 145.577 33.1388 145.577 33.0554C145.577 32.8373 146.173 32.292 146.173 31.2593C146.173 30.2201 145.962 25.9158 139.335 25.9158C132.715 25.9158 129.777 32.1317 129.777 37.2571C129.777 42.3825 132.927 51.7609 143.242 51.7609C149.246 51.7609 150.516 48.3803 150.516 48.3803H152.582V57.2135H141.285C127.821 57.2135 120.328 46.6355 120.328 39.0083C120.328 27.3013 130.463 20.8096 139.656 20.8096C148.566 20.7968 153.942 27.6285 153.942 27.6285Z" fill="white"/>
</g>
<defs>
<clipPath id="clip0_4_4484">
<rect width="246.263" height="100" fill="white"/>
</clipPath>
</defs>
</svg>
