<svg width="247" height="100" viewBox="0 0 247 100" fill="none" xmlns="http://www.w3.org/2000/svg">
<g clip-path="url(#clip0_4_4502)">
<path d="M138.951 15.1449C138.951 13.4643 138.617 11.944 137.969 10.6354C137.283 9.28183 135.968 8.1849 134.05 7.37664C132.895 6.89553 131.176 6.4016 128.944 5.90124L128.88 5.88841C127 5.47145 125.076 5.25977 123.151 5.25977C121.227 5.25977 119.296 5.47145 117.423 5.88841L117.359 5.90124C115.126 6.4016 113.407 6.89553 112.252 7.37664C110.334 8.1849 109.013 9.28183 108.333 10.6354V10.6418C107.679 11.9568 107.352 13.4707 107.352 15.1514V17.1143C107.563 17.1399 107.781 17.1656 107.993 17.1977V15.1514C107.993 13.5541 108.301 12.1492 108.91 10.924C109.526 9.70521 110.726 8.71733 112.509 7.9668C113.638 7.49852 115.306 7.01741 117.513 6.52348C117.532 6.51706 117.557 6.51065 117.577 6.51065C119.418 6.1001 121.291 5.89483 123.17 5.89483C125.044 5.89483 126.923 6.1001 128.764 6.51065C128.783 6.51706 128.809 6.52348 128.828 6.52348C131.035 7.01741 132.703 7.49852 133.832 7.9668C135.615 8.71733 136.815 9.70521 137.43 10.924C138.04 12.1492 138.348 13.5541 138.348 15.1514V15.6196C138.559 15.6325 138.778 15.6581 138.989 15.6902L138.951 15.1449Z" fill="white"/>
<path d="M138.983 61.9473C138.765 61.9152 138.553 61.8767 138.341 61.8318L138.361 86.0348C138.361 87.8245 138.046 89.2871 137.411 90.4418C136.776 91.5964 135.589 92.5202 133.851 93.2258C132.908 93.6042 131.208 93.8865 128.738 94.0725C128.713 94.0725 128.687 94.0789 128.661 94.0789C126.82 94.2201 124.973 94.297 123.132 94.297C121.284 94.297 119.443 94.2265 117.602 94.0789C117.577 94.0789 117.551 94.0725 117.525 94.0725C115.056 93.8865 113.356 93.6042 112.413 93.2258C110.674 92.5202 109.488 91.5964 108.853 90.4418C108.218 89.2871 107.903 87.8245 107.903 86.0348L107.929 48.457C107.724 48.5597 107.505 48.6431 107.287 48.72L107.262 86.0348C107.262 87.9464 107.595 89.4924 108.288 90.7497C108.987 92.0262 110.296 93.059 112.169 93.8223C113.183 94.2265 114.921 94.5216 117.468 94.714H117.493L117.538 94.7204C119.386 94.8615 121.265 94.9385 123.119 94.9385C124.973 94.9385 126.852 94.868 128.7 94.7204L128.751 94.714H128.77C131.324 94.5216 133.056 94.2329 134.076 93.8223C135.949 93.059 137.251 92.0326 137.956 90.7561C138.649 89.4988 138.983 87.9528 138.983 86.0412V61.9473Z" fill="white"/>
<path d="M172.988 94.0725C170.519 93.8865 168.819 93.6042 167.876 93.2257C166.137 92.5201 164.951 91.5964 164.316 90.4417C163.68 89.2871 163.366 87.8245 163.366 86.0348L163.385 59.9394C163.167 59.8176 162.962 59.6893 162.744 59.5674L162.725 86.0348C162.725 87.9464 163.058 89.4923 163.751 90.7496C164.45 92.0262 165.759 93.0589 167.632 93.8223C168.646 94.2264 170.384 94.5215 172.931 94.714C175.047 94.8807 176.696 95.0026 177.947 95.0988V99.3583H68.312V95.0988C69.5628 95.0026 71.2114 94.8807 73.3219 94.714C75.875 94.5215 77.607 94.2329 78.6269 93.8223C80.5 93.0589 81.8022 92.0326 82.5079 90.756C83.2007 89.4987 83.5342 87.9528 83.5342 86.0412L83.5278 80.826C83.3161 80.8003 83.098 80.7682 82.8863 80.7426L82.8927 86.0412C82.8927 87.8309 82.5784 89.2935 81.9434 90.4481C81.3083 91.6028 80.1216 92.5265 78.3832 93.2321C77.4402 93.6106 75.7403 93.8929 73.2706 94.0789C70.8009 94.2713 68.9342 94.4125 67.6641 94.5087V100.006H178.588V94.5087C177.325 94.4061 175.458 94.2649 172.988 94.0725Z" fill="white"/>
<path d="M82.8809 62.3643L82.8873 75.5595C83.1118 75.3285 83.3363 75.104 83.5288 74.8474L83.5223 62.3771C83.3042 62.3707 83.0925 62.3643 82.8809 62.3643Z" fill="white"/>
<path d="M67.6699 0V5.50388C69.2544 5.68991 71.1467 6.02989 73.3278 6.51742C75.5344 7.01135 77.2023 7.49246 78.3313 7.96074C80.1146 8.71127 81.3142 9.69915 81.93 10.918C82.5394 12.1432 82.8473 13.548 82.8473 15.1453V16.6977C83.059 16.7233 83.2771 16.749 83.4888 16.7746V15.1517C83.4888 13.471 83.1552 11.9507 82.5073 10.6421C81.8209 9.2886 80.5059 8.19167 78.5879 7.38341C77.4332 6.9023 75.7141 6.40836 73.4817 5.90801C71.5444 5.47181 69.8125 5.15107 68.3242 4.95221V0.641478H177.966V4.93938C176.477 5.13824 174.752 5.45898 172.808 5.89518C170.576 6.39554 168.857 6.88947 167.702 7.37058C165.784 8.17884 164.463 9.27577 163.783 10.6293V10.6357C163.128 11.9507 162.801 13.4646 162.801 15.1453V19.116C163.013 19.0134 163.231 18.9172 163.443 18.821V15.1453C163.443 13.548 163.75 12.1432 164.36 10.918C164.976 9.69915 166.175 8.71127 167.959 7.96074C169.088 7.49246 170.755 7.01135 172.962 6.51742C175.143 6.02989 177.029 5.68991 178.62 5.50388V0H67.6699Z" fill="white"/>
<path fill-rule="evenodd" clip-rule="evenodd" d="M86.4199 76.0093H88.447L87.4399 73.4434L86.4199 76.0093Z" fill="white"/>
<path fill-rule="evenodd" clip-rule="evenodd" d="M62.4747 72.6416H61.3008V75.0279H62.4875C63.3792 75.0279 63.918 74.566 63.918 73.854V73.8283C63.918 73.0586 63.3792 72.6416 62.4747 72.6416Z" fill="white"/>
<path fill-rule="evenodd" clip-rule="evenodd" d="M216.493 65.1553H29.7716C24.2998 65.1553 19.8672 69.5879 19.8672 75.0597C19.8672 80.5315 24.2998 84.9641 29.7716 84.9641H216.499C221.971 84.9641 226.404 80.5315 226.404 75.0597C226.397 69.5879 221.965 65.1553 216.493 65.1553ZM66.4128 73.7447C66.4128 75.868 64.7771 76.9905 62.5319 76.9905H61.2938V79.5693H58.7921V70.5501H58.7985H62.6666C64.9438 70.5501 66.4128 71.724 66.4128 73.719V73.7447ZM78.2096 79.5564H71.3458V70.5437H73.8411V77.369H78.2096V79.5564ZM89.8332 79.5629L89.1789 77.9528H85.6892L85.0478 79.5629H82.4177L86.2602 70.4795H88.6721L92.5146 79.5629H89.8332ZM100.944 76.1502V79.5629H98.429V76.1887L95.0035 70.5437H97.8517L99.7055 73.8281L101.572 70.5437H104.369L100.944 76.1502ZM123.62 76.7853C123.62 78.6263 122.164 79.7232 119.976 79.7232C118.385 79.7232 116.865 79.2165 115.755 78.2286L117.147 76.5672C118.039 77.2728 119.027 77.6513 120.072 77.6513C120.74 77.6513 121.105 77.4203 121.105 77.0354V77.0098C121.105 76.6377 120.81 76.4325 119.585 76.1438C117.667 75.7076 116.185 75.1623 116.185 73.3085V73.2828C116.185 71.6085 117.513 70.3961 119.675 70.3961C121.208 70.3961 122.407 70.8067 123.382 71.5957L122.132 73.3598C121.304 72.7824 120.406 72.4681 119.604 72.4681C119.001 72.4681 118.7 72.7247 118.7 73.0454V73.0711C118.7 73.4817 119.008 73.6613 120.258 73.9499C122.33 74.399 123.62 75.0725 123.62 76.7596V76.7853ZM133.434 76.1502V79.5629H130.92V76.1887L127.494 70.5437H130.343L132.196 73.8281L134.063 70.5437H136.86L133.434 76.1502ZM148.227 76.7853C148.227 78.6263 146.771 79.7232 144.583 79.7232C142.992 79.7232 141.472 79.2165 140.362 78.2286L141.754 76.5672C142.646 77.2728 143.634 77.6513 144.68 77.6513C145.347 77.6513 145.712 77.4203 145.712 77.0354V77.0098C145.712 76.6377 145.417 76.4325 144.192 76.1438C142.274 75.7076 140.792 75.1623 140.792 73.3085V73.2828C140.792 71.6085 142.12 70.3961 144.282 70.3961C145.815 70.3961 147.015 70.8067 147.99 71.5957L146.739 73.3598C145.911 72.7824 145.013 72.4681 144.211 72.4681C143.608 72.4681 143.307 72.7247 143.307 73.0454V73.0711C143.307 73.4817 143.615 73.6613 144.866 73.9499C146.938 74.399 148.227 75.0725 148.227 76.7596V76.7853ZM160.453 72.7375H157.746V79.5629H155.245V72.7375H152.544V70.5501H160.453V72.7375ZM172.738 79.5564H165.419V70.5437H172.674V72.667H167.895V74.0333H172.225V76.0027H167.895V77.4332H172.738V79.5564ZM187.46 79.5629H184.971V74.3861L182.661 77.9143H182.61L180.32 74.4118V79.5629H177.87V70.5437H177.876H180.519L182.668 74.0333L184.817 70.5437H187.46V79.5629Z" fill="white"/>
<path d="M246.218 49.2333L244.743 49.336C244.673 49.3424 244.48 49.3231 244.39 49.2462C244.191 49.073 244.063 48.7843 243.98 48.3673L241.087 29.8286C240.946 28.9305 241.016 28.706 242.119 28.1736L242.896 27.7951V16.178H219.745L219.007 18.6926L218.019 16.178H195.612V23.1893C191.096 18.019 184.322 15.0361 176.74 15.0361C168.908 15.0361 161.563 17.9484 156.719 22.8942C152.659 17.7752 146.276 15.0875 138.136 15.0875C130.65 15.0875 124.395 17.9933 119.52 23.741C116.255 18.5258 112.502 16.178 102.63 16.178H80.4028V27.1537L80.4157 28.1864L81.4035 28.4751C81.5447 28.5136 81.8205 28.6291 82.0514 28.783C82.2439 28.9113 82.3722 29.1166 82.3978 29.3475C82.4107 29.4437 82.4171 29.5656 82.4171 29.7132C82.4171 30.098 82.3914 39.6176 82.3786 45.6667L71.0052 16.178H54.2241L43.5435 44.4671V42.9276H32.9142L31.9328 42.9404L31.612 43.8642C31.5286 44.1079 30.6819 46.2697 27.7054 46.2697C24.3313 46.2697 20.5914 43.4793 20.3541 37.3467C20.2386 34.2805 21.8872 32.3176 23.3306 31.567C23.5743 31.4387 23.8052 31.3425 24.0041 31.2784C24.6456 31.0538 25.2614 31.6697 25.0369 32.3111C24.9342 32.5998 24.729 32.9462 24.3633 33.3567L23.1445 34.5242L33.1067 41.3881L46.0966 27.6091L45.654 26.7431C45.4102 26.2748 39.5664 15.1965 24.8829 15.1965C10.4625 15.2029 0 25.3639 0 39.3674C0 52.492 11.7904 62.7685 26.833 62.7685H104.439L104.433 51.0487L103.291 50.8499C103.15 50.8242 103.002 50.7921 102.855 50.7536C108.262 49.3295 113.08 46.5391 115.761 44.589C119.36 55.7058 129.617 62.7749 142.479 62.7749H157.759V56.9118C161.062 59.6317 167.573 63.8654 176.092 63.8654C182.661 63.8654 188.171 60.8954 191.109 58.9196V62.8006H213.465V54.6987H222.657V62.7685H246.263V50.7023L246.218 49.2333ZM244.884 61.3957H224.036V53.3195H212.092V61.4086H192.488V56.1549C192.488 56.1549 185.323 62.4798 176.092 62.4798C164.276 62.4798 156.386 53.7557 156.386 53.7557V61.3893C156.386 61.3893 155.52 61.3893 142.485 61.3893C130.117 61.3893 119.495 54.5897 116.531 42.2027C115.126 43.5498 108.929 47.9953 101.488 49.6695C100.911 49.7978 100.622 50.0223 100.622 50.651C100.622 51.7992 103.066 52.2098 103.066 52.2098V61.3957C103.066 61.3957 38.7838 61.3957 26.833 61.3957C12.7141 61.3957 1.37276 51.6902 1.37276 39.3738C1.37276 27.0574 10.2187 16.5821 24.8765 16.5821C38.8864 16.5821 44.4223 27.3782 44.4223 27.3782L32.9142 39.5855L25.3127 34.351C25.3127 34.351 27.8081 31.9519 25.5308 30.2071C23.7475 28.8472 18.7632 31.7338 18.9749 37.4045C19.2251 43.9411 23.2536 47.6489 27.7054 47.6489C31.8301 47.6489 32.9142 44.3068 32.9142 44.3068H42.1708V52.0109L55.1799 17.5507H70.0558L82.0001 48.5149C82.0001 48.5149 82.8661 50.1506 83.7385 50.5868C83.7385 50.5868 83.7898 30.2712 83.7898 29.7003C83.7898 29.1294 83.7129 28.5008 83.3601 28.0966C82.7763 27.4231 81.7884 27.1408 81.7884 27.1408V17.5571C81.7884 17.5571 95.5738 17.5571 102.636 17.5571C113.445 17.5571 116.223 20.5015 119.36 26.1722C123.69 20.3219 129.649 16.4666 138.149 16.4666C146.898 16.4666 153.082 19.6997 156.61 25.0817C161.543 19.1608 169.491 16.4153 176.753 16.4153C185.682 16.4153 193.149 20.7581 197.004 27.4808V17.5571H217.095L219.212 22.952L220.79 17.5571H241.529V26.9355C240.06 27.6476 239.47 28.366 239.733 30.0467L242.633 48.579C242.754 49.182 242.966 49.8107 243.479 50.2725C244.082 50.8114 244.891 50.7087 244.891 50.7087V61.3957H244.884Z" fill="white"/>
<path d="M57.9452 21.7012H67.2338L78.5302 51.3631C78.8574 52.1778 79.3962 52.9411 79.9415 53.6019C80.4803 54.2562 81.7889 54.6924 81.7889 54.6924V57.2519H68.1575V54.6347C68.1575 54.6347 69.0235 54.7437 69.4597 53.9803C69.8959 53.217 69.8959 52.614 69.5688 51.8506C69.2416 51.0873 66.9644 45.0317 66.9644 45.0317H55.8283C55.8283 45.0317 53.5447 51.1386 53.3266 51.6839C53.1084 52.2291 53.1084 53.1015 53.3266 53.6468C53.6858 54.5513 54.9559 54.686 54.9559 54.686V57.2455H44.0508V54.686C44.0508 54.686 45.0451 54.346 45.7828 53.5955C46.5974 52.7744 46.8733 51.902 46.8733 51.902L57.9452 21.7012ZM57.6758 39.4765H64.8411L61.1526 29.1167L57.6758 39.4765Z" fill="white"/>
<path d="M86.1247 21.7012C86.1247 21.7012 97.0939 21.7012 103.496 21.7012C109.904 21.7012 116.313 23.9912 116.313 31.4067C116.313 38.8222 111.643 41.433 107.627 43.2869C102.989 45.4294 96.8758 47.1037 96.8758 47.1037V52.768C96.8758 52.768 96.9272 53.1528 97.4724 53.8071C98.0113 54.4615 98.6143 54.6218 98.6143 54.6218V57.2391H86.0156V54.6796C86.0156 54.6796 86.779 54.5128 87.3178 53.9739C87.8631 53.4287 87.9721 52.7744 87.9721 52.7744V27.1537C87.9721 27.1537 88.0235 26.0632 87.5872 25.627C87.151 25.1908 86.1247 24.5942 86.1247 24.5942V21.7012ZM96.9849 27.0447V42.2028C96.9849 42.2028 107.191 37.9498 107.191 31.952C107.197 24.5365 96.9849 27.0447 96.9849 27.0447Z" fill="white"/>
<path d="M175.931 58.2714C164.205 58.2714 155.77 49.6692 155.77 39.2067C155.77 28.7442 164.417 20.623 175.931 20.623C187.446 20.623 196.093 28.7377 196.093 39.2067C196.093 49.6756 187.664 58.2714 175.931 58.2714ZM165.507 39.367C165.507 49.836 170.825 52.4532 175.931 52.4532C181.031 52.4532 186.464 49.1816 186.464 39.367C186.464 29.5524 180.383 26.2809 175.931 26.2809C171.479 26.2809 165.507 28.8981 165.507 39.367Z" fill="white"/>
<path d="M201.342 21.7268H214.267L218.937 36.205L223.928 21.7012H237.45V23.8309C237.45 23.8309 236.552 24.2094 236.148 24.7033C235.661 25.2999 235.661 25.7425 235.77 26.6149C235.879 27.4873 239.349 51.145 239.458 52.0174C239.567 52.8962 239.676 53.3838 239.894 53.9803C240.106 54.5769 241.139 55.0709 241.139 55.0709V57.2711H228.162V54.9105C228.162 54.9105 229.304 54.7437 229.682 54.1984C230.067 53.6532 230.227 53.326 230.118 52.4536C230.009 51.5812 226.917 31.7339 226.917 31.7339L221.272 49.2911H214.434L208.84 32.8244L206.018 52.2355C206.018 52.2355 205.909 53.3966 206.345 54.0317C206.942 54.9105 208.026 54.9105 208.026 54.9105V57.2519H196.787V54.7437C196.787 54.7437 197.679 54.6026 198.333 53.8456C198.987 53.0823 199.096 52.1008 199.096 52.1008L203.195 26.5058C203.195 26.5058 203.439 25.55 203.17 25.1138C202.888 24.652 201.348 24.2671 201.348 24.2671V21.7268" fill="white"/>
<path d="M38.9435 27.5642L32.8816 33.9469C32.5608 34.2804 32.0412 34.3125 31.682 34.0238L30.6492 33.1771C30.6043 33.1386 30.5786 33.0745 30.5786 32.9911C30.5786 32.773 31.1752 32.2277 31.1752 31.1949C31.1752 30.1557 30.9635 25.8514 24.3371 25.8514C17.717 25.8514 14.779 32.0673 14.779 37.1927C14.779 42.3182 17.9287 51.6966 28.2437 51.6966C34.2479 51.6966 35.518 48.316 35.518 48.316H37.5836V57.1491H26.2936C12.829 57.1363 5.33008 46.5647 5.33008 38.9312C5.33008 27.2242 15.4654 20.7324 24.6578 20.7324C33.5679 20.7324 38.9435 27.5642 38.9435 27.5642Z" fill="white"/>
<path d="M153.942 27.6285L147.88 34.0112C147.559 34.3448 147.039 34.3768 146.68 34.0882L145.647 33.2414C145.602 33.2029 145.577 33.1388 145.577 33.0554C145.577 32.8373 146.173 32.292 146.173 31.2593C146.173 30.2201 145.962 25.9158 139.335 25.9158C132.715 25.9158 129.777 32.1317 129.777 37.2571C129.777 42.3825 132.927 51.7609 143.242 51.7609C149.246 51.7609 150.516 48.3803 150.516 48.3803H152.582V57.2135H141.285C127.821 57.2135 120.328 46.6355 120.328 39.0083C120.328 27.3013 130.463 20.8096 139.656 20.8096C148.566 20.7968 153.942 27.6285 153.942 27.6285Z" fill="white"/>
</g>
<defs>
<clipPath id="clip0_4_4502">
<rect width="246.263" height="100" fill="white"/>
</clipPath>
</defs>
</svg>
