<svg width="247" height="100" viewBox="0 0 247 100" fill="none" xmlns="http://www.w3.org/2000/svg">
<g clip-path="url(#clip0_4_4522)">
<path d="M200.718 94.0724C198.248 93.8864 196.548 93.6041 195.605 93.2257C193.867 92.52 192.68 91.5963 192.045 90.4416C191.41 89.287 191.095 87.8244 191.095 86.0347L191.115 58.3613C190.903 58.4832 190.685 58.6051 190.473 58.727L190.454 86.0347C190.454 87.9463 190.787 89.4922 191.48 90.7495C192.179 92.0261 193.488 93.0589 195.361 93.8222C196.375 94.2264 198.113 94.5214 200.66 94.7139C202.777 94.8807 204.425 95.0025 205.676 95.0988V99.3582H40.579V95.0988C41.8299 95.0025 43.4785 94.8807 45.5889 94.7139C48.142 94.5214 49.874 94.2328 50.8939 93.8222C52.7671 93.0589 54.0693 92.0325 54.7749 90.756C55.4677 89.4987 55.8013 87.9527 55.8013 86.0411L55.7884 62.2872H55.1469L55.1662 86.0347C55.1662 87.8244 54.8519 89.287 54.2168 90.4416C53.5817 91.5963 52.395 92.52 50.6566 93.2257C49.7136 93.6041 48.0137 93.8864 45.544 94.0724C43.0743 94.2648 41.2076 94.406 39.9375 94.5022V99.9997H206.33V94.5022C205.054 94.406 203.187 94.2648 200.718 94.0724Z" fill="white"/>
<path d="M39.9375 0V5.50388C41.522 5.68991 43.4143 6.02989 45.5953 6.51742C47.802 7.01135 49.4699 7.49246 50.5989 7.96074C52.3822 8.71127 53.5817 9.69915 54.1976 10.918C54.807 12.1432 55.1149 13.548 55.1149 15.1453V16.7682C55.3266 16.7939 55.5447 16.8131 55.7563 16.8196V15.1453C55.7563 13.4646 55.4228 11.9443 54.7749 10.6357C54.0885 9.28219 52.7735 8.18526 50.8555 7.377C49.7008 6.89589 47.9816 6.40195 45.7493 5.9016C43.812 5.46539 42.08 5.14465 40.5918 4.9458V0.641478H205.702V4.93938C204.214 5.13824 202.488 5.45898 200.544 5.89518C198.312 6.39554 196.593 6.88947 195.438 7.37058C193.52 8.17884 192.199 9.27577 191.519 10.6293V10.6357C190.864 11.9507 190.537 13.4646 190.537 15.1453L190.531 19.7575C190.749 19.8922 190.961 20.0334 191.172 20.1745L191.179 15.1453C191.179 13.548 191.487 12.1432 192.096 10.918C192.712 9.69915 193.911 8.71127 195.695 7.96074C196.824 7.49246 198.492 7.01135 200.698 6.51742C202.879 6.02989 204.765 5.68991 206.356 5.50388V0H39.9375Z" fill="white"/>
<path d="M135.691 15.1455C135.691 13.5482 135.999 12.1434 136.609 10.9182C137.225 9.69935 138.424 8.71147 140.207 7.96094C141.336 7.49266 143.004 7.01156 145.211 6.51762C145.23 6.5112 145.256 6.50479 145.275 6.50479C147.116 6.09424 148.989 5.88897 150.869 5.88897C152.748 5.88897 154.621 6.09424 156.462 6.50479C156.482 6.5112 156.507 6.51762 156.527 6.51762C158.733 7.01156 160.401 7.49266 161.53 7.96094C163.313 8.71147 164.513 9.69935 165.129 10.9182C165.738 12.1434 166.046 13.5482 166.046 15.1455V17.7499C166.258 17.6793 166.476 17.6088 166.688 17.5446V15.1519C166.688 13.4712 166.354 11.9509 165.706 10.6423V10.6359C165.02 9.28239 163.705 8.18546 161.787 7.3772C160.632 6.89609 158.913 6.40215 156.681 5.9018L156.629 5.88897L156.61 5.88255C154.73 5.46559 152.806 5.25391 150.882 5.25391C148.957 5.25391 147.026 5.46559 145.153 5.88255L145.134 5.88897L145.089 5.9018C142.857 6.40215 141.138 6.89609 139.983 7.3772C138.065 8.18546 136.743 9.28239 136.063 10.6359C135.409 11.9509 135.082 13.4648 135.082 15.1455V15.9024C135.294 15.8768 135.512 15.8511 135.724 15.8383L135.691 15.1455Z" fill="white"/>
<path d="M135.645 69.6648L135.652 61.4026C135.44 61.3448 135.222 61.2935 135.01 61.2422L135.004 69.7097C135.222 69.6969 135.434 69.6776 135.645 69.6648Z" fill="white"/>
<path d="M166.726 80.435C166.514 80.4222 166.296 80.403 166.085 80.3837L166.091 86.0351C166.091 87.8249 165.777 89.2874 165.142 90.4421C164.507 91.5968 163.32 92.5205 161.581 93.2261C160.638 93.6046 158.939 93.8868 156.469 94.0729C156.443 94.0729 156.418 94.0793 156.392 94.0793C154.551 94.2204 152.703 94.2974 150.862 94.2974C149.021 94.2974 147.174 94.2268 145.333 94.0793C145.307 94.0793 145.281 94.0729 145.256 94.0729C142.786 93.8868 141.086 93.6046 140.143 93.2261C138.405 92.5205 137.218 91.5968 136.583 90.4421C135.948 89.2874 135.634 87.8249 135.634 86.0351L135.64 74.0908C135.428 74.2961 135.217 74.495 134.999 74.6938L134.992 86.0351C134.992 87.9467 135.326 89.4927 136.019 90.75C136.718 92.0265 138.026 93.0593 139.899 93.8227C140.913 94.2268 142.651 94.5219 145.198 94.7143L145.275 94.7208C147.123 94.8619 149.002 94.9389 150.856 94.9389C152.71 94.9389 154.589 94.8683 156.437 94.7208L156.507 94.7143C159.06 94.5219 160.792 94.2332 161.812 93.8227C163.686 93.0593 164.988 92.033 165.693 90.7564C166.386 89.4991 166.72 87.9532 166.72 86.0416L166.726 80.435Z" fill="white"/>
<path d="M166.72 69.6769L166.714 61.543C166.496 61.4275 166.284 61.2992 166.072 61.1709L166.079 69.786C166.29 69.741 166.502 69.6961 166.72 69.6769Z" fill="white"/>
<path d="M110.577 17.8205C110.795 17.9295 111.007 18.0514 111.219 18.1733V15.1391C111.219 13.4584 110.885 11.9381 110.237 10.6295C109.551 9.27597 108.236 8.17905 106.318 7.37078C105.163 6.88967 103.444 6.39574 101.212 5.89538L101.147 5.88255C99.2679 5.46559 97.3434 5.25391 95.419 5.25391C93.4946 5.25391 91.5637 5.46559 89.6906 5.88255L89.6714 5.88897L89.62 5.9018C87.3877 6.40215 85.6685 6.89609 84.5139 7.3772C82.5959 8.18546 81.2744 9.28239 80.5945 10.6359C79.9401 11.9509 79.613 13.4648 79.613 15.1455L79.5938 40.2273C79.8054 40.6122 80.03 40.9842 80.2352 41.3691L80.2545 15.1455C80.2545 13.5482 80.5624 12.1434 81.1718 10.9182C81.7876 9.69935 82.9872 8.71147 84.7705 7.96094C85.8995 7.49266 87.5673 7.01156 89.774 6.51762C89.7932 6.5112 89.8189 6.50479 89.8381 6.50479C91.6792 6.09424 93.5523 5.88897 95.4318 5.88897C97.3114 5.88897 99.1845 6.09424 101.026 6.50479C101.045 6.5112 101.07 6.51762 101.09 6.51762C103.296 7.01156 104.964 7.49266 106.093 7.96094C107.877 8.71147 109.076 9.69935 109.692 10.9182C110.301 12.1434 110.609 13.5482 110.609 15.1455L110.577 17.8205Z" fill="white"/>
<path d="M111.218 18.2889C111.006 18.1606 110.794 18.0452 110.576 17.9297Z" fill="white"/>
<path d="M110.596 46.9815C110.814 46.9238 111.025 46.8596 111.237 46.7891Z" fill="white"/>
<path d="M110.597 47.0845L110.622 86.035C110.622 87.8247 110.308 89.2873 109.673 90.442C109.038 91.5966 107.851 92.5204 106.113 93.226C105.17 93.6045 103.47 93.8867 101 94.0727C100.974 94.0727 100.949 94.0791 100.923 94.0791C99.0821 94.2203 97.2346 94.2972 95.3936 94.2972C93.5526 94.2972 91.7051 94.2267 89.8641 94.0791C89.8384 94.0791 89.8127 94.0727 89.7871 94.0727C87.3174 93.8867 85.6175 93.6045 84.6745 93.226C82.9361 92.5204 81.7494 91.5966 81.1143 90.442C80.4792 89.2873 80.1649 87.8247 80.1649 86.035L80.1842 62.1977C79.9725 62.2169 79.7544 62.2362 79.5427 62.249L79.5234 86.035C79.5234 87.9466 79.857 89.4926 80.5498 90.7499C81.249 92.0264 82.5576 93.0592 84.4307 93.8226C85.4443 94.2267 87.1827 94.5218 89.7294 94.7142H89.7422L89.7999 94.7206C91.6474 94.8617 93.5269 94.9387 95.3808 94.9387C97.2346 94.9387 99.1142 94.8682 100.962 94.7206L101.032 94.7142C103.585 94.5218 105.317 94.2331 106.337 93.8226C108.21 93.0592 109.513 92.0328 110.218 90.7563C110.911 89.499 111.245 87.953 111.245 86.0414L111.219 46.8984C111.026 46.9626 110.815 47.0267 110.597 47.0845Z" fill="white"/>
<path fill-rule="evenodd" clip-rule="evenodd" d="M86.4199 76.0093H88.447L87.4399 73.4434L86.4199 76.0093Z" fill="white"/>
<path fill-rule="evenodd" clip-rule="evenodd" d="M216.493 65.1553H29.7716C24.2998 65.1553 19.8672 69.5879 19.8672 75.0597C19.8672 80.5315 24.2998 84.9641 29.7716 84.9641H216.499C221.971 84.9641 226.404 80.5315 226.404 75.0597C226.397 69.5879 221.965 65.1553 216.493 65.1553ZM66.4128 73.7447C66.4128 75.868 64.7771 76.9905 62.5319 76.9905H61.2938V79.5693H58.7921V70.5501H58.7985H62.6666C64.9438 70.5501 66.4128 71.724 66.4128 73.719V73.7447ZM78.2096 79.5564H71.3458V70.5437H73.8411V77.369H78.2096V79.5564ZM89.8332 79.5629L89.1789 77.9528H85.6892L85.0478 79.5629H82.4177L86.2602 70.4795H88.6721L92.5146 79.5629H89.8332ZM100.944 76.1502V79.5629H98.429V76.1887L95.0035 70.5437H97.8517L99.7055 73.8281L101.572 70.5437H104.369L100.944 76.1502ZM123.62 76.7853C123.62 78.6263 122.164 79.7232 119.976 79.7232C118.385 79.7232 116.865 79.2165 115.755 78.2286L117.147 76.5672C118.039 77.2728 119.027 77.6513 120.072 77.6513C120.74 77.6513 121.105 77.4203 121.105 77.0354V77.0098C121.105 76.6377 120.81 76.4325 119.585 76.1438C117.667 75.7076 116.185 75.1623 116.185 73.3085V73.2828C116.185 71.6085 117.513 70.3961 119.675 70.3961C121.208 70.3961 122.407 70.8067 123.382 71.5957L122.132 73.3598C121.304 72.7824 120.406 72.4681 119.604 72.4681C119.001 72.4681 118.7 72.7247 118.7 73.0454V73.0711C118.7 73.4817 119.008 73.6613 120.258 73.9499C122.33 74.399 123.62 75.0725 123.62 76.7596V76.7853ZM133.434 76.1502V79.5629H130.92V76.1887L127.494 70.5437H130.343L132.196 73.8281L134.063 70.5437H136.86L133.434 76.1502ZM148.227 76.7853C148.227 78.6263 146.771 79.7232 144.583 79.7232C142.992 79.7232 141.472 79.2165 140.362 78.2286L141.754 76.5672C142.646 77.2728 143.634 77.6513 144.68 77.6513C145.347 77.6513 145.712 77.4203 145.712 77.0354V77.0098C145.712 76.6377 145.417 76.4325 144.192 76.1438C142.274 75.7076 140.792 75.1623 140.792 73.3085V73.2828C140.792 71.6085 142.12 70.3961 144.282 70.3961C145.815 70.3961 147.015 70.8067 147.99 71.5957L146.739 73.3598C145.911 72.7824 145.013 72.4681 144.211 72.4681C143.608 72.4681 143.307 72.7247 143.307 73.0454V73.0711C143.307 73.4817 143.615 73.6613 144.866 73.9499C146.938 74.399 148.227 75.0725 148.227 76.7596V76.7853ZM160.453 72.7375H157.746V79.5629H155.245V72.7375H152.544V70.5501H160.453V72.7375ZM172.738 79.5564H165.419V70.5437H172.674V72.667H167.895V74.0333H172.225V76.0027H167.895V77.4332H172.738V79.5564ZM187.46 79.5629H184.971V74.3861L182.661 77.9143H182.61L180.32 74.4118V79.5629H177.87V70.5437H177.876H180.519L182.668 74.0333L184.817 70.5437H187.46V79.5629Z" fill="white"/>
<path fill-rule="evenodd" clip-rule="evenodd" d="M62.4747 72.6416H61.3008V75.0279H62.4875C63.3792 75.0279 63.918 74.566 63.918 73.854V73.8283C63.918 73.0586 63.3792 72.6416 62.4747 72.6416Z" fill="white"/>
<path d="M246.218 49.2333L244.743 49.336C244.673 49.3424 244.48 49.3231 244.39 49.2462C244.191 49.073 244.063 48.7843 243.98 48.3673L241.087 29.8286C240.946 28.9305 241.016 28.706 242.119 28.1736L242.896 27.7951V16.178H219.745L219.007 18.6926L218.019 16.178H195.612V23.1893C191.096 18.019 184.322 15.0361 176.74 15.0361C168.908 15.0361 161.563 17.9484 156.719 22.8942C152.659 17.7752 146.276 15.0875 138.136 15.0875C130.65 15.0875 124.395 17.9933 119.52 23.741C116.255 18.5258 112.502 16.178 102.63 16.178H80.4028V27.1537L80.4157 28.1864L81.4035 28.4751C81.5447 28.5136 81.8205 28.6291 82.0514 28.783C82.2439 28.9113 82.3722 29.1166 82.3978 29.3475C82.4107 29.4437 82.4171 29.5656 82.4171 29.7132C82.4171 30.098 82.3914 39.6176 82.3786 45.6667L71.0052 16.178H54.2241L43.5435 44.4671V42.9276H32.9142L31.9328 42.9404L31.612 43.8642C31.5286 44.1079 30.6819 46.2697 27.7054 46.2697C24.3313 46.2697 20.5914 43.4793 20.3541 37.3467C20.2386 34.2805 21.8872 32.3176 23.3306 31.567C23.5743 31.4387 23.8052 31.3425 24.0041 31.2784C24.6456 31.0538 25.2614 31.6697 25.0369 32.3111C24.9342 32.5998 24.729 32.9462 24.3633 33.3567L23.1445 34.5242L33.1067 41.3881L46.0966 27.6091L45.654 26.7431C45.4102 26.2748 39.5664 15.1965 24.8829 15.1965C10.4625 15.2029 0 25.3639 0 39.3674C0 52.492 11.7904 62.7685 26.833 62.7685H104.439L104.433 51.0487L103.291 50.8499C103.15 50.8242 103.002 50.7921 102.855 50.7536C108.262 49.3295 113.08 46.5391 115.761 44.589C119.36 55.7058 129.617 62.7749 142.479 62.7749H157.759V56.9118C161.062 59.6317 167.573 63.8654 176.092 63.8654C182.661 63.8654 188.171 60.8954 191.109 58.9196V62.8006H213.465V54.6987H222.657V62.7685H246.263V50.7023L246.218 49.2333ZM244.884 61.3957H224.036V53.3195H212.092V61.4086H192.488V56.1549C192.488 56.1549 185.323 62.4798 176.092 62.4798C164.276 62.4798 156.386 53.7557 156.386 53.7557V61.3893C156.386 61.3893 155.52 61.3893 142.485 61.3893C130.117 61.3893 119.495 54.5897 116.531 42.2027C115.126 43.5498 108.929 47.9953 101.488 49.6695C100.911 49.7978 100.622 50.0223 100.622 50.651C100.622 51.7992 103.066 52.2098 103.066 52.2098V61.3957C103.066 61.3957 38.7838 61.3957 26.833 61.3957C12.7141 61.3957 1.37276 51.6902 1.37276 39.3738C1.37276 27.0574 10.2187 16.5821 24.8765 16.5821C38.8864 16.5821 44.4223 27.3782 44.4223 27.3782L32.9142 39.5855L25.3127 34.351C25.3127 34.351 27.8081 31.9519 25.5308 30.2071C23.7475 28.8472 18.7632 31.7338 18.9749 37.4045C19.2251 43.9411 23.2536 47.6489 27.7054 47.6489C31.8301 47.6489 32.9142 44.3068 32.9142 44.3068H42.1708V52.0109L55.1799 17.5507H70.0558L82.0001 48.5149C82.0001 48.5149 82.8661 50.1506 83.7385 50.5868C83.7385 50.5868 83.7898 30.2712 83.7898 29.7003C83.7898 29.1294 83.7129 28.5008 83.3601 28.0966C82.7763 27.4231 81.7884 27.1408 81.7884 27.1408V17.5571C81.7884 17.5571 95.5738 17.5571 102.636 17.5571C113.445 17.5571 116.223 20.5015 119.36 26.1722C123.69 20.3219 129.649 16.4666 138.149 16.4666C146.898 16.4666 153.082 19.6997 156.61 25.0817C161.543 19.1608 169.491 16.4153 176.753 16.4153C185.682 16.4153 193.149 20.7581 197.004 27.4808V17.5571H217.095L219.212 22.952L220.79 17.5571H241.529V26.9355C240.06 27.6476 239.47 28.366 239.733 30.0467L242.633 48.579C242.754 49.182 242.966 49.8107 243.479 50.2725C244.082 50.8114 244.891 50.7087 244.891 50.7087V61.3957H244.884Z" fill="white"/>
<path d="M57.9452 21.7012H67.2338L78.5302 51.3631C78.8574 52.1778 79.3962 52.9411 79.9415 53.6019C80.4803 54.2562 81.7889 54.6924 81.7889 54.6924V57.2519H68.1575V54.6347C68.1575 54.6347 69.0235 54.7437 69.4597 53.9803C69.8959 53.217 69.8959 52.614 69.5688 51.8506C69.2416 51.0873 66.9644 45.0317 66.9644 45.0317H55.8283C55.8283 45.0317 53.5447 51.1386 53.3266 51.6839C53.1084 52.2291 53.1084 53.1015 53.3266 53.6468C53.6858 54.5513 54.9559 54.686 54.9559 54.686V57.2455H44.0508V54.686C44.0508 54.686 45.0451 54.346 45.7828 53.5955C46.5974 52.7744 46.8733 51.902 46.8733 51.902L57.9452 21.7012ZM57.6758 39.4765H64.8411L61.1526 29.1167L57.6758 39.4765Z" fill="white"/>
<path d="M86.1247 21.7012C86.1247 21.7012 97.0939 21.7012 103.496 21.7012C109.904 21.7012 116.313 23.9912 116.313 31.4067C116.313 38.8222 111.643 41.433 107.627 43.2869C102.989 45.4294 96.8758 47.1037 96.8758 47.1037V52.768C96.8758 52.768 96.9272 53.1528 97.4724 53.8071C98.0113 54.4615 98.6143 54.6218 98.6143 54.6218V57.2391H86.0156V54.6796C86.0156 54.6796 86.779 54.5128 87.3178 53.9739C87.8631 53.4287 87.9721 52.7744 87.9721 52.7744V27.1537C87.9721 27.1537 88.0235 26.0632 87.5872 25.627C87.151 25.1908 86.1247 24.5942 86.1247 24.5942V21.7012ZM96.9849 27.0447V42.2028C96.9849 42.2028 107.191 37.9498 107.191 31.952C107.197 24.5365 96.9849 27.0447 96.9849 27.0447Z" fill="white"/>
<path d="M175.931 58.2714C164.205 58.2714 155.77 49.6692 155.77 39.2067C155.77 28.7442 164.417 20.623 175.931 20.623C187.446 20.623 196.093 28.7377 196.093 39.2067C196.093 49.6756 187.664 58.2714 175.931 58.2714ZM165.507 39.367C165.507 49.836 170.825 52.4532 175.931 52.4532C181.031 52.4532 186.464 49.1816 186.464 39.367C186.464 29.5524 180.383 26.2809 175.931 26.2809C171.479 26.2809 165.507 28.8981 165.507 39.367Z" fill="white"/>
<path d="M201.342 21.7268H214.267L218.937 36.205L223.928 21.7012H237.45V23.8309C237.45 23.8309 236.552 24.2094 236.148 24.7033C235.661 25.2999 235.661 25.7425 235.77 26.6149C235.879 27.4873 239.349 51.145 239.458 52.0174C239.567 52.8962 239.676 53.3838 239.894 53.9803C240.106 54.5769 241.139 55.0709 241.139 55.0709V57.2711H228.162V54.9105C228.162 54.9105 229.304 54.7437 229.682 54.1984C230.067 53.6532 230.227 53.326 230.118 52.4536C230.009 51.5812 226.917 31.7339 226.917 31.7339L221.272 49.2911H214.434L208.84 32.8244L206.018 52.2355C206.018 52.2355 205.909 53.3966 206.345 54.0317C206.942 54.9105 208.026 54.9105 208.026 54.9105V57.2519H196.787V54.7437C196.787 54.7437 197.679 54.6026 198.333 53.8456C198.987 53.0823 199.096 52.1008 199.096 52.1008L203.195 26.5058C203.195 26.5058 203.439 25.55 203.17 25.1138C202.888 24.652 201.348 24.2671 201.348 24.2671V21.7268" fill="white"/>
<path d="M38.9435 27.5642L32.8816 33.9469C32.5608 34.2804 32.0412 34.3125 31.682 34.0238L30.6492 33.1771C30.6043 33.1386 30.5786 33.0745 30.5786 32.9911C30.5786 32.773 31.1752 32.2277 31.1752 31.1949C31.1752 30.1557 30.9635 25.8514 24.3371 25.8514C17.717 25.8514 14.779 32.0673 14.779 37.1927C14.779 42.3182 17.9287 51.6966 28.2437 51.6966C34.2479 51.6966 35.518 48.316 35.518 48.316H37.5836V57.1491H26.2936C12.829 57.1363 5.33008 46.5647 5.33008 38.9312C5.33008 27.2242 15.4654 20.7324 24.6578 20.7324C33.5679 20.7324 38.9435 27.5642 38.9435 27.5642Z" fill="white"/>
<path d="M153.942 27.6285L147.88 34.0112C147.559 34.3448 147.039 34.3768 146.68 34.0882L145.647 33.2414C145.602 33.2029 145.577 33.1388 145.577 33.0554C145.577 32.8373 146.173 32.292 146.173 31.2593C146.173 30.2201 145.962 25.9158 139.335 25.9158C132.715 25.9158 129.777 32.1317 129.777 37.2571C129.777 42.3825 132.927 51.7609 143.242 51.7609C149.246 51.7609 150.516 48.3803 150.516 48.3803H152.582V57.2135H141.285C127.821 57.2135 120.328 46.6355 120.328 39.0083C120.328 27.3013 130.463 20.8096 139.656 20.8096C148.566 20.7968 153.942 27.6285 153.942 27.6285Z" fill="white"/>
</g>
<defs>
<clipPath id="clip0_4_4522">
<rect width="246.263" height="100" fill="white"/>
</clipPath>
</defs>
</svg>
