<svg width="497" height="100" viewBox="0 0 497 100" fill="none" xmlns="http://www.w3.org/2000/svg">
<g clip-path="url(#clip0_4_4548)">
<path d="M83.3948 69.2963V65.015C83.3948 57.417 77.214 51.2362 69.616 51.2362H63.633C62.7563 51.2362 62.0425 50.5224 62.0425 49.6457C62.0425 48.769 62.7563 48.0539 63.633 48.0539H69.616C77.214 48.0539 83.3948 41.8731 83.3948 34.2751C83.3948 26.6771 77.214 20.4963 69.616 20.4963H58.9534C51.3554 20.4963 45.1733 26.6771 45.1733 34.2751V69.2976C45.1733 70.4264 44.2552 71.3458 43.1251 71.3458H29.3165C23.4486 71.3458 17.8885 69.1088 13.6615 65.0473C9.42927 60.9807 7.04487 55.555 6.94918 49.7711C6.84962 43.8321 9.08661 38.2332 13.2451 34.0036C17.4062 29.7727 22.965 27.4426 28.8976 27.4426H39.82V20.4963H28.8976C21.0875 20.4963 13.7701 23.5634 8.29267 29.1326C2.81786 34.6979 -0.126434 42.0697 0.00416539 49.8849C0.132178 57.5334 3.27302 64.6956 8.84869 70.0541C14.3752 75.3659 21.6448 78.2908 29.3165 78.2908H43.1251C48.084 78.2908 52.1196 74.2565 52.1196 69.2963V34.2738C52.1196 30.5058 55.1855 27.4413 58.9521 27.4413H69.6147C73.3827 27.4413 76.4472 30.5071 76.4472 34.2738C76.4472 38.0405 73.3814 41.1063 69.6147 41.1063H63.6317C58.9237 41.1063 55.0936 44.9364 55.0936 49.6444C55.0936 54.3524 58.9237 58.1812 63.6317 58.1812H69.6147C73.3827 58.1812 76.4472 61.247 76.4472 65.0137V69.295C76.4472 74.2539 80.4816 78.2895 85.4417 78.2895H88.6278V71.3432H85.4417C84.3129 71.3445 83.3948 70.4252 83.3948 69.2963ZM200.272 29.4882V69.7528C200.272 70.6295 199.558 71.3432 198.681 71.3432C197.805 71.3432 197.091 70.6295 197.091 69.7528V29.4882C197.091 24.5293 193.057 20.4937 188.096 20.4937H173.508V27.44H188.096C189.225 27.44 190.145 28.3581 190.145 29.4882V69.7528C190.145 74.4608 193.975 78.2908 198.683 78.2908C203.391 78.2908 207.221 74.4608 207.221 69.7528V29.4882C207.221 28.3594 208.139 27.44 209.269 27.44H224.36V20.4937H209.269C204.306 20.4937 200.272 24.5293 200.272 29.4882ZM371.539 78.2908H378.485V20.4937H371.539V78.2908ZM229.547 78.2908H236.493V20.4937H229.547V78.2908ZM315.092 78.2908H322.038V20.4937H315.092V78.2908ZM179.239 69.9868L176.926 63.5254C175.625 59.8945 172.161 57.4545 168.304 57.4545H154.76C153.883 57.4545 153.17 56.7407 153.17 55.864C153.17 54.9873 153.883 54.2736 154.76 54.2736H161.472C164.25 54.2736 166.863 52.9184 168.461 50.6465C170.06 48.3746 170.456 45.4588 169.52 42.8442L163.658 26.4676C162.233 22.4876 158.58 19.9157 154.351 19.9157C150.123 19.9157 146.47 22.4876 145.045 26.4676L129.392 70.1847C129.143 70.879 128.481 71.3445 127.744 71.3445H105.509C101.741 71.3445 98.6749 68.2787 98.6749 64.5107V59.7639C98.6749 58.8911 99.3848 58.1812 100.256 58.1812H116.74C121.443 58.1812 125.269 54.355 125.269 49.6522V49.6341C125.269 44.9312 121.443 41.105 116.74 41.105H100.258C99.3848 41.105 98.6762 40.3952 98.6762 39.5223V34.2725C98.6762 30.5045 101.742 27.4387 105.51 27.4387H125.276V20.4924H105.509C97.9107 20.4924 91.7286 26.6745 91.7286 34.2725V39.5223C91.7286 44.2252 95.5547 48.0514 100.258 48.0514H116.742C117.614 48.0514 118.323 48.7612 118.323 49.6341V49.6535C118.323 50.5263 117.613 51.2349 116.742 51.2349H100.258C95.5547 51.2349 91.7286 55.061 91.7286 59.7639V64.5107C91.7286 72.1087 97.9107 78.2908 105.509 78.2908H127.744C131.407 78.2908 134.697 75.9737 135.932 72.5264L151.586 28.8094C152.232 27.0029 153.867 26.862 154.351 26.862C154.836 26.862 156.471 27.0029 157.117 28.8094L162.98 45.1846C163.224 45.8648 162.961 46.3924 162.782 46.6471C162.604 46.9005 162.196 47.3272 161.472 47.3272H154.76C150.052 47.3272 146.222 51.1573 146.222 55.864C146.222 60.572 150.052 64.4021 154.76 64.4021H168.304C169.235 64.4021 170.071 64.9917 170.385 65.8684L172.699 72.3298C173.975 75.8961 177.378 78.2921 181.167 78.2921H185.986V71.3458H181.167C180.304 71.3445 179.53 70.7989 179.239 69.9868ZM316.432 0H311.838C309.887 0 308.029 0.615496 306.466 1.78184C304.901 2.94688 303.779 4.55157 303.221 6.42004L278.004 90.8374C277.39 92.8933 275.572 93.0537 275.029 93.0537C274.486 93.0537 272.668 92.8933 272.053 90.8374L246.839 6.42004C246.28 4.55027 245.158 2.94688 243.594 1.78184C242.03 0.615496 240.172 0 238.221 0H233.626V6.94631H238.221C239.119 6.94631 239.926 7.54758 240.182 8.40747L265.398 92.8248C266.065 95.0579 267.392 96.9173 269.236 98.2026C270.923 99.378 272.926 100 275.029 100C277.13 100 279.134 99.378 280.822 98.2026C282.666 96.9186 283.992 95.0592 284.659 92.8248L309.875 8.40747C310.133 7.54629 310.94 6.94631 311.837 6.94631H316.431V0H316.432ZM349.801 45.9191H343.776C338.681 45.9191 334.537 41.7749 334.537 36.6802C334.537 31.5855 338.681 27.4413 343.776 27.4413H365.151V20.495H343.776C334.851 20.495 327.59 27.7555 327.59 36.6802C327.59 45.6049 334.851 52.8654 343.776 52.8654H349.801C354.896 52.8654 359.04 57.0097 359.04 62.1043C359.04 67.199 354.896 71.3432 349.801 71.3432H328.352V78.2895H349.801C358.726 78.2895 365.986 71.029 365.986 62.1043C365.986 53.1796 358.726 45.9191 349.801 45.9191ZM433.919 28.3852C428.295 22.7617 420.819 19.6648 412.865 19.6648C404.911 19.6648 397.435 22.7617 391.811 28.3852C386.188 34.0087 383.091 41.4852 383.091 49.4388C383.091 57.3924 386.188 64.8689 391.811 70.4924C397.435 76.1159 404.911 79.2128 412.865 79.2128C420.819 79.2128 428.295 76.1159 433.919 70.4924C439.542 64.8689 442.639 57.3924 442.639 49.4388C442.639 41.4852 439.542 34.0087 433.919 28.3852ZM412.865 72.0544C400.393 72.0544 390.248 61.9091 390.248 49.4375C390.248 36.966 400.393 26.8206 412.865 26.8206C425.336 26.8206 435.482 36.966 435.482 49.4375C435.482 61.9091 425.335 72.0544 412.865 72.0544ZM493.219 20.4937C488.261 20.4937 484.225 24.528 484.225 29.4882V69.4192C484.225 70.4808 483.361 71.3432 482.301 71.3432C481.49 71.3432 480.762 70.8299 480.489 70.067L464.167 24.4776C462.743 20.5027 458.846 18.2308 454.685 18.9537C450.525 19.6752 447.621 23.1289 447.621 27.3508V69.2963C447.621 70.4252 446.703 71.3445 445.573 71.3445H442.387V78.2908H445.573C450.532 78.2908 454.567 74.2565 454.567 69.2963V27.3508C454.567 26.1974 455.386 25.8832 455.873 25.7978C456.361 25.7125 457.238 25.7332 457.627 26.8193L473.95 72.41C475.21 75.9271 478.567 78.2908 482.302 78.2908C487.194 78.2908 491.173 74.3108 491.173 69.4204V29.4882C491.173 28.3594 492.091 27.44 493.221 27.44H496.406V20.4937H493.219Z" fill="white"/>
</g>
<defs>
<clipPath id="clip0_4_4548">
<rect width="496.405" height="100" fill="white"/>
</clipPath>
</defs>
</svg>
