<svg width="500" height="100" viewBox="0 0 500 100" fill="none" xmlns="http://www.w3.org/2000/svg">
<g clip-path="url(#clip0_4_4552)">
<path d="M30.975 34.575L29.775 47.175C26.575 48.475 22.525 49.125 17.625 49.125C11.325 49.125 6.8075 47.9 4.075 45.45C1.3575 43 0 39.225 0 34.125C0 31.975 0.35 28.8 1.05 24.6C2.55 16 5.1325 9.75 8.8 5.85C12.4825 1.95 18.3 0 26.25 0C28.1 0 30.2175 0.1925 32.6 0.575C34.9675 0.9425 36.7 1.4 37.8 1.95L33.6 13.425C30.65 12.725 27.8925 12.375 25.325 12.375C22.7425 12.375 20.9 12.625 19.8 13.125C18.7 13.625 18.025 14.625 17.775 16.125L14.325 35.775C16.125 36.175 17.975 36.375 19.875 36.375C23.925 36.375 27.625 35.775 30.975 34.575ZM43.425 1.125H57.675L51.45 36.3H56.55C58.3 36.3 59.55 36.0675 60.3 35.6C61.05 35.1175 61.575 34.025 61.875 32.325L67.425 1.125H81.675L77.025 27.45C76.275 31.7 75.4075 35.125 74.425 37.725C73.4575 40.325 72.1 42.525 70.35 44.325C68.6 46.125 66.4325 47.375 63.85 48.075C61.2825 48.775 58.025 49.125 54.075 49.125C48.025 49.125 43.7825 48.2075 41.35 46.375C38.9325 44.5575 37.725 41.425 37.725 36.975C37.725 34.525 38.075 31.35 38.775 27.45L43.425 1.125ZM80.3975 47.175L84.5975 34.8C88.7975 35.95 92.6475 36.525 96.1475 36.525C99.6475 36.525 102.472 36.375 104.622 36.075L105.223 32.325L98.9975 31.725C94.2475 31.275 90.8825 30.2 88.8975 28.5C86.9325 26.8 85.9475 24.4 85.9475 21.3C85.9475 19.95 86.0975 18.45 86.3975 16.8C87.5475 10.4 89.6325 6 92.6475 3.6C95.6825 1.2 100.372 0 106.722 0C113.072 0 118.673 0.625 123.523 1.875L119.622 13.875C115.272 13.125 111.772 12.75 109.122 12.75C106.472 12.75 104.223 12.875 102.373 13.125L101.772 16.8L106.798 17.325C111.898 17.875 115.523 19.0925 117.673 20.975C119.823 22.8425 120.898 25.35 120.898 28.5C120.898 31.7 120.198 35 118.798 38.4C118.098 40.15 117.332 41.6175 116.497 42.8C115.682 43.9675 114.633 44.9575 113.348 45.775C112.083 46.6075 110.923 47.2325 109.873 47.65C108.823 48.0825 107.498 48.4 105.898 48.6C103.548 48.95 100.673 49.125 97.2725 49.125C91.0725 49.125 85.4475 48.475 80.3975 47.175ZM164.622 1.125L162.447 13.125H152.098L146.023 48H131.772L137.847 13.125H127.572L129.747 1.125H164.622ZM181.047 16.8L177.598 36.3H183.522C185.472 36.3 186.923 36.0675 187.873 35.6C188.823 35.1175 189.448 34.025 189.748 32.325L193.197 12.825H187.197C185.297 12.825 183.872 13.0575 182.922 13.525C181.972 14.0075 181.347 15.1 181.047 16.8ZM189.673 0C196.023 0 200.548 1.2425 203.248 3.725C205.948 6.1925 207.297 10 207.297 15.15C207.297 20.3 206.48 25.6925 204.848 31.325C203.23 36.9425 200.655 41.3075 197.122 44.425C193.605 47.5575 188.455 49.125 181.672 49.125C174.905 49.125 170.172 47.8925 167.472 45.425C164.772 42.9425 163.423 39.125 163.423 33.975C163.423 31.525 163.773 28.2925 164.473 24.275C165.173 20.2425 166.098 16.7675 167.248 13.85C168.398 10.9175 169.948 8.375 171.898 6.225C175.648 2.075 181.573 0 189.673 0ZM227.997 25.275L223.123 48H208.272L219.223 1.125H237.822L239.172 24.975H239.697L249.447 1.125H268.048L262.498 48H247.572L250.723 25.275H250.198L240.823 48H229.947L228.372 25.275H227.997Z" fill="white"/>
<path d="M108.204 85.449L107.004 98.049C103.804 99.349 99.7535 99.999 94.8535 99.999C88.5535 99.999 84.036 98.774 81.3035 96.324C78.586 93.874 77.2285 90.099 77.2285 84.999C77.2285 82.849 77.5785 79.674 78.2785 75.474C79.7785 66.874 82.361 60.624 86.0285 56.724C89.711 52.824 95.5285 50.874 103.479 50.874C105.329 50.874 107.446 51.0665 109.829 51.449C112.196 51.8165 113.929 52.274 115.029 52.824L110.829 64.299C107.879 63.599 105.121 63.249 102.554 63.249C99.971 63.249 98.1285 63.499 97.0285 63.999C95.9285 64.499 95.2535 65.499 95.0035 66.999L91.5535 86.649C93.3535 87.049 95.2035 87.249 97.1035 87.249C101.154 87.249 104.854 86.649 108.204 85.449ZM132.129 67.674L128.679 87.174H134.604C136.554 87.174 138.004 86.9415 138.954 86.474C139.904 85.9915 140.529 84.899 140.829 83.199L144.279 63.699H138.279C136.379 63.699 134.954 63.9315 134.004 64.399C133.054 64.8815 132.429 65.974 132.129 67.674ZM140.754 50.874C147.104 50.874 151.629 52.1165 154.329 54.599C157.029 57.0665 158.379 60.874 158.379 66.024C158.379 71.174 157.561 76.5665 155.929 82.199C154.311 87.8165 151.736 92.1815 148.204 95.299C144.686 98.4315 139.536 99.999 132.754 99.999C125.986 99.999 121.254 98.7665 118.554 96.299C115.854 93.8165 114.504 89.999 114.504 84.849C114.504 82.399 114.854 79.1665 115.554 75.149C116.254 71.1165 117.179 67.6415 118.329 64.724C119.479 61.7915 121.029 59.249 122.979 57.099C126.729 52.949 132.654 50.874 140.754 50.874ZM191.301 86.874L189.201 98.874H160.701L168.951 51.999H183.201L177.051 86.874H191.301ZM223.251 86.874L221.151 98.874H192.651L200.901 51.999H215.151L209.001 86.874H223.251ZM258.126 70.299L256.176 81.174H241.926L240.951 86.874H258.426L256.326 98.874H224.601L232.851 51.999H264.201L260.301 63.999H244.926L243.876 70.299H258.126ZM296.601 85.449L295.401 98.049C292.201 99.349 288.151 99.999 283.251 99.999C276.951 99.999 272.434 98.774 269.701 96.324C266.984 93.874 265.626 90.099 265.626 84.999C265.626 82.849 265.976 79.674 266.676 75.474C268.176 66.874 270.759 60.624 274.426 56.724C278.109 52.824 283.926 50.874 291.876 50.874C293.726 50.874 295.841 51.0665 298.226 51.449C300.591 51.8165 302.326 52.274 303.426 52.824L299.226 64.299C296.276 63.599 293.516 63.249 290.951 63.249C288.366 63.249 286.526 63.499 285.426 63.999C284.326 64.499 283.651 65.499 283.401 66.999L279.951 86.649C281.751 87.049 283.601 87.249 285.501 87.249C289.551 87.249 293.251 86.649 296.601 85.449ZM341.601 51.999L339.426 63.999H329.076L323.001 98.874H308.751L314.826 63.999H304.551L306.726 51.999H341.601ZM352.999 98.874H338.749L346.999 51.999H361.249L352.999 98.874ZM380.524 67.674L377.074 87.174H382.999C384.949 87.174 386.399 86.9415 387.349 86.474C388.299 85.9915 388.924 84.899 389.224 83.199L392.674 63.699H386.674C384.774 63.699 383.349 63.9315 382.399 64.399C381.449 64.8815 380.824 65.974 380.524 67.674ZM389.149 50.874C395.499 50.874 400.024 52.1165 402.724 54.599C405.424 57.0665 406.774 60.874 406.774 66.024C406.774 71.174 405.959 76.5665 404.324 82.199C402.709 87.8165 400.134 92.1815 396.599 95.299C393.084 98.4315 387.934 99.999 381.149 99.999C374.384 99.999 369.649 98.7665 366.949 96.299C364.249 93.8165 362.899 89.999 362.899 84.849C362.899 82.399 363.249 79.1665 363.949 75.149C364.649 71.1165 365.574 67.6415 366.724 64.724C367.874 61.7915 369.424 59.249 371.374 57.099C375.124 52.949 381.049 50.874 389.149 50.874ZM448.699 98.874H435.274L427.624 82.224C427.424 81.874 427.324 81.3815 427.324 80.749C427.324 80.1315 427.374 79.424 427.474 78.624H426.874L423.349 98.874H409.099L417.349 51.999H430.774L438.424 68.649C438.574 68.999 438.649 69.4915 438.649 70.124C438.649 70.7415 438.599 71.449 438.499 72.249H439.099L442.699 51.999H456.949L448.699 98.874ZM456.874 98.049L461.074 85.674C465.274 86.824 469.124 87.399 472.624 87.399C476.124 87.399 478.949 87.249 481.099 86.949L481.699 83.199L475.474 82.599C470.724 82.149 467.356 81.074 465.374 79.374C463.406 77.674 462.424 75.274 462.424 72.174C462.424 70.824 462.574 69.324 462.874 67.674C464.024 61.274 466.106 56.874 469.124 54.474C472.156 52.074 476.849 50.874 483.199 50.874C489.549 50.874 495.149 51.499 499.999 52.749L496.099 64.749C491.749 63.999 488.249 63.624 485.599 63.624C482.949 63.624 480.699 63.749 478.849 63.999L478.249 67.674L483.274 68.199C488.374 68.749 491.999 69.9665 494.149 71.849C496.299 73.7165 497.374 76.224 497.374 79.374C497.374 82.574 496.674 85.874 495.274 89.274C494.574 91.024 493.806 92.4915 492.974 93.674C492.156 94.8415 491.106 95.8315 489.824 96.649C488.556 97.4815 487.399 98.1065 486.349 98.524C485.299 98.9565 483.974 99.274 482.374 99.474C480.024 99.824 477.149 99.999 473.749 99.999C467.549 99.999 461.924 99.349 456.874 98.049Z" fill="white"/>
</g>
<defs>
<clipPath id="clip0_4_4552">
<rect width="500" height="100" fill="white"/>
</clipPath>
</defs>
</svg>
