<svg width="369" height="100" viewBox="0 0 369 100" fill="none" xmlns="http://www.w3.org/2000/svg">
<g clip-path="url(#clip0_4_4555)">
<path d="M325.826 53.3286C326.066 51.3811 326.392 49.5009 326.795 47.6973C332.33 48.388 337.865 49.1171 343.391 49.8942C344.993 50.1148 345.492 51.6785 344.331 52.4843C347.401 50.748 350.5 48.6087 353.416 46.2296C345.022 44.992 336.618 43.8408 328.205 42.7856C331.399 33.8063 337.606 27.9256 348.283 29.4222C360.697 31.2065 358.874 41.289 358.874 41.2794C363.22 36.8857 366.702 32.1275 368.276 27.7913C368.276 27.7913 366.866 28.9905 365.57 28.789C353.521 26.9088 341.463 25.2203 329.375 23.7142C327.802 23.5223 326.238 23.3305 324.665 23.1386C323.12 22.9563 321.585 22.7741 320.041 22.5918C320.022 22.7741 319.993 22.9659 319.974 23.1482C320.521 23.2154 321.048 23.3401 321.528 23.5319C323.188 24.1747 323.581 26.2085 322.286 27.3309C319.504 29.7484 314.957 35.7537 313.92 44.992C310.17 79.9306 331.284 94.8289 351.574 99.4337C329.74 92.1332 323.341 73.743 325.826 53.3286Z" fill="white"/>
<path d="M242.114 16.1446C240.454 16.0678 238.794 15.9815 237.135 15.9143C237.125 16.1062 237.116 16.2885 237.106 16.4803C239.859 16.6051 242.008 18.4182 241.903 20.5287C241.663 25.4213 241.423 30.3138 241.183 35.216C233.873 34.861 226.573 34.5732 219.253 34.3526C219.397 29.4504 219.55 24.5579 219.694 19.6557C219.752 17.5452 222.035 15.9048 224.788 16.0007C224.798 15.8088 224.798 15.6265 224.807 15.4347C223.148 15.3771 221.488 15.3292 219.819 15.2716C215.963 15.1565 212.106 15.0605 208.259 14.9838C206.6 14.955 204.93 14.9166 203.271 14.8975C203.271 15.0893 203.261 15.2716 203.261 15.4635C206.014 15.5018 208.211 17.2574 208.173 19.3679C207.751 40.4251 207.329 61.4823 206.907 82.5394C206.859 84.65 204.729 86.3096 202.148 86.2712C202.148 86.4631 202.139 86.6454 202.139 86.8372C203.702 86.866 205.256 86.8852 206.82 86.9236C210.437 87.0003 214.053 87.0866 217.67 87.1922C219.234 87.2401 220.788 87.2881 222.352 87.3457C222.361 87.1538 222.361 86.9715 222.371 86.7797C219.79 86.6933 217.747 84.9186 217.804 82.8176C218.236 68.351 218.668 53.8748 219.1 39.4082C226.381 39.6288 233.652 39.9166 240.934 40.2716C240.224 54.7286 239.514 69.1952 238.804 83.6523C238.699 85.7628 236.521 87.3648 233.94 87.2497C233.931 87.4416 233.921 87.6239 233.912 87.8157C235.475 87.8829 237.029 87.9596 238.593 88.0364C242.21 88.2091 245.826 88.4105 249.433 88.6216C250.987 88.7175 252.551 88.8038 254.105 88.9094C254.115 88.7175 254.124 88.5352 254.144 88.3434C251.563 88.1803 249.568 86.348 249.692 84.247C250.93 63.2186 252.167 42.1998 253.405 21.1714C253.53 19.0705 255.851 17.4876 258.605 17.6603C258.614 17.4685 258.624 17.2862 258.643 17.0943C256.983 16.9888 255.324 16.8929 253.664 16.7873C249.817 16.5379 245.961 16.3269 242.114 16.1446Z" fill="white"/>
<path d="M314.303 21.9202C312.653 21.7379 310.993 21.5557 309.334 21.383C307.875 21.2295 306.417 21.076 304.959 20.9225C303.299 20.7498 301.649 20.5867 299.99 20.4237C299.971 20.6059 299.951 20.7978 299.932 20.9801C302.676 21.2487 304.719 23.1769 304.508 25.2778C303.846 31.7245 303.175 38.1808 302.513 44.6274C298.359 33.0004 288.526 22.2176 270.395 16.3369C270.366 16.3178 259.382 26.8415 259.41 26.8607C261.089 26.8415 262.48 27.0622 263.593 27.5131C265.224 28.127 265.588 29.0576 265.502 30.3527C264.226 48.5607 262.96 66.7782 261.684 84.9862C261.54 87.0871 259.324 88.6508 256.743 88.4781C256.734 88.67 256.715 88.8523 256.705 89.0441C258.259 89.1497 259.823 89.2552 261.377 89.3607C262.749 89.4567 264.121 89.5526 265.493 89.6581C267.047 89.7732 268.61 89.8883 270.164 90.0131C270.184 89.8308 270.193 89.6389 270.212 89.4567C267.632 89.2552 265.665 87.3941 265.819 85.2932C267.181 66.8166 268.543 48.3304 269.896 29.8538C277.733 30.3815 289.476 39.3224 295.318 51.8799C301.247 64.4471 301.294 80.6213 287.624 95.7498C296.248 90.5982 302.753 82.5495 304.777 63.7563C306.129 51.0837 307.482 38.4206 308.844 25.7479C309.065 23.6566 311.473 22.1888 314.217 22.4958C314.265 22.2943 314.284 22.1025 314.303 21.9202Z" fill="white"/>
<path d="M180.181 13.7179C174.866 13.7371 168.554 15.2433 162.75 17.1715C152.811 20.462 144.359 24.9804 144.359 24.9804C144.465 25.1531 144.561 25.3258 144.666 25.4888C148.225 23.9443 149.856 25.1915 149.895 26.429C150.461 45.2126 151.027 64.0057 151.593 82.7893C151.65 84.8998 149.607 86.665 147.026 86.7513C147.036 86.9432 147.036 87.1255 147.045 87.3173C148.609 87.2598 150.163 87.2118 151.727 87.1638C155.344 87.0583 158.96 86.9624 162.577 86.8952C164.141 86.8664 165.695 86.8377 167.258 86.8089C167.258 86.617 167.249 86.4347 167.249 86.2429C164.668 86.2813 162.539 84.6216 162.491 82.5111C162.155 65.7613 161.809 49.0115 161.474 32.2617C161.455 27.9639 162.874 24.472 165.311 21.805C167.748 19.1477 171.307 17.7855 175.95 17.7471C183.02 17.6991 187.759 24.5487 187.75 24.5487C185.102 28.3572 182.483 32.1753 179.883 35.9935C175.077 38.8714 170.319 41.7878 165.58 44.7233C172.986 42.3538 180.449 40.0514 187.941 37.8258C187.894 37.797 202.379 25.0188 203.108 24.3089C203.147 24.3473 195.395 13.67 180.181 13.7179Z" fill="white"/>
<path d="M125.778 16.2216C115.532 16.7397 105.286 17.392 95.0409 18.1786C95.0505 18.3609 95.0697 18.5528 95.0793 18.7446C96.6525 18.6199 98.0915 19.0804 99.07 19.8766C100.068 20.7017 100.106 22.1598 99.2043 23.0904C91.0597 31.1295 76.5067 78.5681 112.558 95.8072C93.2278 75.5846 95.4822 23.2439 125.989 20.6249C126.229 25.3352 126.459 30.0359 126.699 34.7462C126.708 34.9285 126.718 35.1107 126.727 35.293C121.24 35.5712 115.762 35.8878 110.285 36.2427C108.98 38.6218 107.934 41.2216 107.128 43.9557C107.128 43.9557 108.145 41.4423 111.839 41.2024C116.885 40.8763 121.931 40.5885 126.986 40.339C127.715 54.7961 128.445 69.2531 129.174 83.7197C129.279 85.8302 127.265 87.6337 124.684 87.7776C124.694 87.9695 124.703 88.1518 124.713 88.3436C126.267 88.2573 127.831 88.1806 129.385 88.0942C133.001 87.9119 136.618 87.7489 140.235 87.605C141.798 87.5378 143.352 87.4802 144.916 87.4227C144.907 87.2308 144.907 87.0486 144.897 86.8567C142.316 86.9526 140.148 85.3314 140.062 83.2208C139.477 68.7542 138.892 54.2876 138.306 39.821C138.239 38.1422 138.172 36.4538 138.105 34.775C137.904 29.8824 137.712 24.9803 137.51 20.0877C137.424 17.9868 139.582 16.1832 142.336 16.0777C142.326 15.8859 142.326 15.7036 142.316 15.5117C138.316 15.6556 134.316 15.8187 130.306 16.0106C128.8 16.0777 127.284 16.1449 125.778 16.2216Z" fill="white"/>
<path d="M84.4589 9.38178C80.0844 5.5157 60.236 -1.88069 41.0399 0.440873C21.5177 2.73366 3.38642 14.7636 0 19.6561C0.0287797 19.8384 0.0575595 20.0303 0.0863392 20.2126C3.66462 19.6466 6.90714 21.4021 7.32924 24.1074C10.9363 47.7164 14.5434 71.335 18.1408 94.9439C18.5533 97.6684 17.3926 98.7429 14.0445 99.2705C14.0829 99.5103 14.1213 99.7502 14.1596 99.9996C23.0718 98.599 31.9839 97.3135 40.9152 96.1335C40.9152 96.1335 45.1746 93.7352 51.9282 89.8403C76.4102 75.7383 86.9436 47.4094 85.6965 30.65C85.2648 25.1819 83.3078 19.1765 80.2379 11.617C81.322 10.7152 82.8185 10.0917 84.5069 9.94778C84.4973 9.75592 84.4781 9.57364 84.4589 9.38178ZM69.7045 37.6531C69.4743 52.868 59.6124 74.8557 35.1976 89.4758C33.2694 90.627 31.7153 88.929 31.4275 86.9144C29.7007 74.5295 23.4267 29.5564 23.4267 29.5564C22.4002 22.2655 22.688 9.36259 41.7882 6.98347C66.4332 4.0959 69.8676 26.9662 69.7045 37.6531Z" fill="white"/>
</g>
<defs>
<clipPath id="clip0_4_4555">
<rect width="368.285" height="100" fill="white"/>
</clipPath>
</defs>
</svg>
