<svg width="582" height="100" viewBox="0 0 582 100" fill="none" xmlns="http://www.w3.org/2000/svg">
<g clip-path="url(#clip0_4_7972)">
<path d="M141.586 83.7947L153.58 15.6353H182.591C191.968 15.6353 198.639 17.2887 202.602 20.5991C206.565 23.9059 208.545 29.2686 208.545 36.6836C208.545 40.4617 208.11 44.8273 207.236 49.7694C205.053 61.985 201.33 70.7089 196.058 75.941C190.786 81.1768 182.301 83.7947 170.593 83.7947H141.586ZM179.756 33.0831H171.141L165.361 66.3469H173.976C176.811 66.3469 178.918 65.9989 180.3 65.3099C181.681 64.6174 182.591 63.0365 183.026 60.5673L186.844 38.8627C186.917 38.4276 186.953 37.8475 186.953 37.1187C186.953 35.4471 186.369 34.3557 185.209 33.8481C184.045 33.3405 182.225 33.0831 179.756 33.0831ZM257.817 58.0582H237.099L235.681 66.3469H261.092L258.039 83.7947H211.906L223.904 15.6353H269.489L263.818 33.0831H241.461L239.935 42.2457H260.653L257.817 58.0582ZM267.745 82.5946L273.855 64.5993C279.961 66.2744 285.559 67.1084 290.646 67.1084C295.737 67.1084 299.845 66.8908 302.971 66.4557L303.844 61.0024L294.791 60.1285C287.887 59.4759 282.996 57.9131 280.124 55.4403C277.252 52.9674 275.816 49.4793 275.816 44.9723C275.816 43.0071 276.034 40.8279 276.469 38.4276C278.144 29.1236 281.179 22.7239 285.577 19.2358C289.975 15.7441 296.792 14 306.024 14C315.259 14 323.399 14.9101 330.451 16.7267L324.78 34.1744C318.457 33.083 313.366 32.5392 309.515 32.5392C305.661 32.5392 302.39 32.7205 299.7 33.0831L298.826 38.4276L306.132 39.1927C313.547 39.9904 318.819 41.7525 321.945 44.4792C325.074 47.2059 326.637 50.8608 326.637 55.4403C326.637 60.0923 325.618 64.893 323.584 69.8351C322.565 72.3804 321.455 74.5052 320.255 76.2166C319.055 77.9244 317.529 79.3784 315.676 80.5786C313.823 81.7751 312.13 82.6852 310.603 83.3052C309.077 83.9216 307.151 84.3749 304.823 84.6649C301.408 85.1762 297.227 85.43 292.285 85.43C283.268 85.43 275.091 84.4836 267.745 82.5946ZM359.016 56.2053L359.125 54.1313H358.255L353.127 83.7947H332.409L344.404 15.6353H365.126L360.216 43.4458H361.09C361.67 41.118 362.326 39.374 363.052 38.2101L376.794 15.6353H399.147L377.773 49.1167L387.697 83.7947H365.343L359.346 59.3671C359.125 58.6383 359.016 57.5832 359.016 56.2053ZM449.761 33.0831H434.71L425.877 83.7947H405.159L413.992 33.0831H399.049L402.215 15.6353H452.923L449.761 33.0831ZM476.807 38.4276L471.788 66.7821H480.403C483.239 66.7821 485.349 66.4376 486.731 65.745C488.112 65.0561 489.019 63.4752 489.457 61.0024L494.472 32.6479H485.748C482.985 32.6479 480.915 32.9924 479.533 33.6849C478.152 34.3739 477.242 35.9548 476.807 38.4276ZM489.348 14C498.58 14 505.161 15.7984 509.084 19.3989C513.011 22.9958 514.976 28.5398 514.976 36.0273C514.976 43.5184 513.794 51.3503 511.43 59.5303C509.066 67.7103 505.324 74.0701 500.197 78.6133C495.074 83.1566 487.583 85.43 477.731 85.43C467.883 85.43 460.994 83.6316 457.067 80.031C453.14 76.4342 451.179 70.8902 451.179 63.4027C451.179 59.8385 451.686 55.1321 452.705 49.2799C453.724 43.4277 455.069 38.3732 456.741 34.1201C458.412 29.8669 460.664 26.1794 463.503 23.0502C468.953 17.0167 477.568 14 489.348 14ZM555.438 67.3259H541.913L539.078 83.7947H518.359L530.354 15.6353H563.07C575.431 15.6353 581.609 21.3787 581.609 32.8655C581.609 38.3188 580.848 43.2428 579.321 47.6446C577.795 52.0428 576.101 55.5309 574.249 58.1126C572.396 60.6942 569.85 62.8734 566.616 64.6537C563.378 66.4376 559.654 67.3259 555.438 67.3259ZM547.914 33.0831L544.97 49.8782H549.767C552.239 49.8782 554.11 49.6062 555.383 49.0623C556.656 48.5148 557.472 47.2603 557.838 45.2987C558.781 39.9178 559.256 36.9736 559.256 36.466C559.256 35.0845 558.708 34.1744 557.617 33.7393C556.529 33.3006 554.89 33.0831 552.711 33.0831H547.914Z" fill="white"/>
<path d="M91.6667 0H8.33333C3.73333 0 0 4.2 0 9.375V71.875C0 77.05 3.73333 81.25 8.33333 81.25H41.6667L38.8889 90.625H26.3889C24.1 90.625 22.2222 92.7375 22.2222 95.3125C22.2222 97.8875 24.1 100 26.3889 100H73.6111C75.9111 100 77.7778 97.9 77.7778 95.3125C77.7778 92.725 75.9111 90.625 73.6111 90.625H61.1111L58.3333 81.25H91.6667C96.2667 81.25 100 77.05 100 71.875V9.375C100 4.2 96.2667 0 91.6667 0ZM88.8889 56.25H11.1111V12.5H88.8889V56.25Z" fill="white"/>
</g>
<defs>
<clipPath id="clip0_4_7972">
<rect width="581.61" height="100" fill="white"/>
</clipPath>
</defs>
</svg>
