<svg width="194" height="100" viewBox="0 0 194 100" fill="none" xmlns="http://www.w3.org/2000/svg">
<g clip-path="url(#clip0_4_4565)">
<path d="M169.115 87.6761L169.082 54.0248L163.701 72.8246L158.328 54.1106L158.295 79.6553L140.751 66.4969L142.081 65.4999L142.02 0.00209255L158.696 0.0455166L163.695 17.5554L168.701 0.022021L193.371 0.102177L185.276 6.15103L185.261 99.8498L169.115 87.6761ZM8.28084 6.13557L0.0898438 0L46.2588 0.06258L51.5431 4.0993L51.5474 65.478L52.9473 66.4919L8.29143 100L8.28084 6.13557ZM35.3769 54.0208L35.3593 18.5983L34.1216 17.5877L24.5211 17.6341L24.5001 62.1776L35.3769 54.0208ZM52.91 63.5447L52.9018 4.09292L58.3175 0.0344288L90.7263 0.0326312L96.1312 4.10784L96.1512 72.9024L80.824 84.4302L52.91 63.5447ZM78.5807 17.5526L70.4067 17.6093L69.1298 18.5903L69.1481 54.037L79.8844 62.0897L79.9131 18.6097L78.5807 17.5526ZM97.5416 72.9668L97.5024 4.07624L102.9 0.0220771L135.352 0.0531003L140.784 4.11189L140.747 63.426L112.982 84.4169L97.5416 72.9668ZM124.538 54.0135L124.534 18.5756L123.168 17.5318L115.007 17.5586L113.695 18.5689L113.776 61.9797L124.538 54.0135Z" fill="white"/>
</g>
<defs>
<clipPath id="clip0_4_4565">
<rect width="193.459" height="100" fill="white"/>
</clipPath>
</defs>
</svg>
