<svg width="228" height="100" viewBox="0 0 228 100" fill="none" xmlns="http://www.w3.org/2000/svg">
<g clip-path="url(#clip0_4_4568)">
<path d="M7.3319 40.1372C3.05862 36.8406 0.721552 31.5872 0.0431036 26.3518C0.0370691 24.2389 0.133621 22.1225 0 20.0096C0.481035 15.0665 2.57759 10.1518 6.3431 6.80098C9.47414 3.95442 13.6164 2.39063 17.8017 1.95184C17.8552 5.71132 17.9698 9.47339 17.9457 13.232C15.1862 13.7079 12.7069 15.4949 11.3862 17.9484C9.97414 20.5536 9.52759 23.7605 10.5198 26.5829C11.0466 28.1096 11.8914 29.582 13.1957 30.576C14.8888 31.9036 17.4724 31.7199 19.1138 30.4018C20.775 29.0424 21.569 26.9579 22.2103 24.9803C23.631 20.2587 24.2353 15.3174 25.9681 10.6829C27.1526 7.47425 28.9759 4.33632 31.8741 2.37684C35.2017 0.136324 39.4457 -0.336954 43.3491 0.202701C47.4466 0.76046 51.2672 2.9415 53.8578 6.13632C57.394 10.4277 58.9181 16.0855 58.8621 21.5674C58.7871 26.8656 57.3991 32.2829 54.1983 36.5906C52.0535 39.4932 48.9966 41.751 45.5103 42.7717C43.8095 43.3191 42.0172 43.4674 40.2422 43.5562C40.194 39.8605 40.2957 36.1656 40.2397 32.4674C43.3388 31.4062 46.0319 29.1122 47.2802 26.0656C48.569 22.9941 48.7371 19.3975 47.4328 16.3001C46.8069 14.8139 45.8603 13.3889 44.4595 12.5286C42.9164 11.5708 40.8198 11.4536 39.2638 12.4458C37.7526 13.3975 36.9052 15.0544 36.2603 16.6544C35.0922 19.6949 34.4957 22.9087 33.6931 26.0544C32.6672 30.1432 31.4922 34.3277 28.9888 37.7949C27.2431 40.2536 24.6448 42.1122 21.7026 42.8613C16.8362 44.1139 11.325 43.2708 7.3319 40.1372Z" fill="white"/>
<path d="M0.947736 97.3657C0.910667 91.9726 0.942564 86.583 0.929633 81.1899C11.802 78.3037 22.715 75.5649 33.577 72.6511C22.7098 70.4493 11.7943 68.4606 0.921875 66.2838C0.947737 60.1821 0.919289 54.0787 0.933944 47.9761C20.0891 47.9692 39.2434 47.9881 58.3986 47.9666C58.4115 51.6459 58.4305 55.3218 58.3874 59.0002C47.7529 59.2252 37.115 59.3976 26.4857 59.7226C37.1314 61.8623 47.7581 64.1088 58.4012 66.2674C58.4141 70.1761 58.4176 74.0838 58.4012 77.9916C48.2822 80.6269 38.1503 83.2062 28.0417 85.8821C28.9667 85.9735 29.8977 85.9674 30.8262 85.9597C40.0193 85.9493 49.2098 85.9674 58.4038 85.9519C58.4176 88.7787 58.4055 91.6037 58.4115 94.4304C58.4089 95.408 58.4676 96.3942 58.2995 97.3657H0.947736Z" fill="white"/>
<path d="M120.709 8.50309C128.939 2.18757 139.586 -0.358117 149.86 0.0401587C154.608 0.276366 159.313 1.14706 163.885 2.42464C164.052 2.52292 164.38 2.71516 164.545 2.80912C158.957 6.72033 154.155 11.8927 151.145 18.0255C145.471 17.3858 139.595 18.8074 134.959 22.1565C129.159 26.204 124.95 32.6617 124.173 39.7229C123.275 46.8557 122.439 53.9971 121.55 61.1298C121.289 63.104 121.204 65.1626 120.305 66.9798C119.052 69.6065 117.16 71.8798 115.17 73.9884C113.364 75.8634 110.619 76.1677 108.149 76.1945C102.398 63.5815 101.225 49.0936 104.236 35.6186C106.55 25.1453 111.999 15.0557 120.709 8.50309Z" fill="white"/>
<path d="M163.984 6.80166C172.466 1.33097 183.037 0.147346 192.907 1.16114C201.64 2.03183 210.571 5.18528 216.609 11.768C221.581 17.0387 223.913 24.2336 224.425 31.3361C218.14 31.4517 211.851 31.3973 205.566 31.362C204.883 27.6103 202.96 24.0284 199.888 21.6879C195.435 18.2577 189.479 17.3068 183.994 18.0034C179.87 18.6025 175.543 19.9103 172.627 23.037C170.884 24.9706 169.766 27.9051 170.898 30.406C171.999 33.4836 173.068 36.5741 174.142 39.6603C175.795 44.587 175.027 49.8749 174.502 54.9267C167.592 53.0818 160.449 50.0853 156.065 44.1939C151.841 38.4723 151.302 30.8887 152.466 24.0913C153.657 17.0525 157.929 10.6344 163.984 6.80166Z" fill="white"/>
<path d="M67.209 3.65309C78.7357 3.34446 90.2685 3.05395 101.8 2.78153C107.51 2.76343 113.211 3.61257 118.647 5.37291C118.673 6.15826 118.521 6.92205 117.816 7.3824C113.085 11.4996 109.541 16.7298 106.332 22.0496C99.6883 22.0186 93.0443 22.1703 86.3961 22.1746C86.5305 40.96 86.4271 59.754 86.5573 78.5436C90.5874 78.8652 94.6254 79.1557 98.6598 79.379C102.563 79.3652 106.468 79.3117 110.372 79.2445C114.131 79.1195 117.146 76.4221 119.375 73.6531C122.353 69.7945 124.648 65.2255 125.035 60.316C125.537 54.3229 126.104 48.3341 126.648 42.3445C126.872 39.7988 127.38 37.2574 128.381 34.8945C130.569 29.5531 135.048 25.3195 140.308 22.9919C147.793 35.5738 148.893 51.1341 145.439 65.141C142.932 75.1272 137.02 84.4436 128.282 90.1384C119.751 95.8238 109.225 97.8643 99.0823 97.4272C88.4573 96.985 77.8236 96.6945 67.209 96.1367V3.65309Z" fill="white"/>
<path d="M178.203 22.8261C182.354 20.8838 187.066 20.9192 191.531 21.4373C196.131 29.7493 198.845 39.1235 198.903 48.633C199.128 59.2226 196.235 69.7321 191.271 79.0571C186.266 79.6468 181.029 78.664 176.752 75.97C174.945 74.845 173.391 72.8088 173.971 70.5804C175.143 65.9269 176.738 61.3795 178.018 56.7528C178.692 54.095 178.409 51.339 178.373 48.633C178.288 45.4433 177.659 42.2907 176.742 39.2399C175.623 35.408 173.961 31.6476 173.795 27.6097C173.894 25.1976 176.203 23.7106 178.203 22.8261Z" fill="white"/>
<path d="M201.504 43.5454C208.387 45.4083 215.524 47.6816 220.866 52.5989C225.286 56.6101 227.371 62.5808 227.586 68.4187V71.7592C227.28 77.2756 225.299 82.7471 221.634 86.9402C216.76 92.604 209.68 95.9264 202.479 97.592C192.892 99.754 182.762 99.2721 173.305 96.6808C165.677 94.5377 158.13 90.2937 154.145 83.2333C151.427 78.3696 149.051 72.6842 150.515 67.048C156.661 66.9756 162.811 67.0928 168.961 67.1368C169.643 71.3264 171.387 75.6049 174.895 78.2264C179.262 81.5135 184.99 82.0144 190.287 82.067C195.102 81.9652 200.25 81.4695 204.33 78.6782C207.874 76.3463 209.267 71.2816 207.268 67.5256C205.825 64.8989 203.148 63.3006 200.592 61.9075C200.758 55.779 201.217 49.6652 201.504 43.5454Z" fill="white"/>
<path d="M142.439 80.5719C144.856 80.1969 147.381 80.5633 149.838 80.6124C153.027 87.8477 159.151 93.2874 165.723 97.4822C160.894 99.1124 155.808 99.8926 150.714 100H150.431C143.064 99.9245 135.772 98.3124 128.917 95.6865C128.908 95.5969 128.89 95.4227 128.881 95.3331C131.402 92.8814 134.012 90.5141 136.572 88.0977C139.039 86.0158 140.435 83.0417 142.439 80.5719Z" fill="white"/>
</g>
<defs>
<clipPath id="clip0_4_4568">
<rect width="227.586" height="100" fill="white"/>
</clipPath>
</defs>
</svg>
