<svg width="739" height="100" viewBox="0 0 739 100" fill="none" xmlns="http://www.w3.org/2000/svg">
<g clip-path="url(#clip0_4_4577)">
<path d="M684.519 45.7887C683.519 28.2887 694.403 18.231 711.538 18.231C727.019 18.231 737.557 24.731 737.557 38.2887C737.557 54.5963 721.615 59.7117 709.634 67.0387V67.1348H738.48V82.7117H683.249C682.884 76.5771 684.711 71.2694 687.826 66.9617C693.134 59.5387 702.288 54.6925 710.442 49.7502C713.73 47.731 719.057 45.1733 719.057 40.5002C719.057 34.731 715.672 32.7117 711.365 32.7117C704.038 32.7117 701.557 38.0194 701.749 45.8079H684.519V45.7887Z" fill="white"/>
<path d="M87.0189 85.3271L78.5382 100H73.9805L82.4612 85.3271H87.0189Z" fill="white"/>
<path d="M104.366 55.25L124.116 21.0577C126.155 17.5192 129.924 15.3461 134.001 15.3461H175.943L178.212 11.4038H149.462H134.097C128.578 11.4038 123.424 14.3846 120.655 19.173L113.193 32.0769L112.962 32.4615L99.8086 55.25H104.366Z" fill="white"/>
<path d="M184.789 0H149.462H134.096C124.481 0 115.577 5.13462 110.769 13.4615L103.308 26.3654L103.077 26.75L86.6348 55.2308H96.8655L118.442 17.9038C121.654 12.3269 127.654 8.86538 134.096 8.86538H179.692L184.789 0Z" fill="white"/>
<path d="M127.749 37.5964H163.095L174.461 17.9233H133.999C130.826 17.9233 127.903 19.6156 126.326 22.3464L107.326 55.2695H117.557L127.749 37.5964Z" fill="white"/>
<path d="M100.192 85.3271L91.7115 100H81.5L89.9615 85.3271H100.192Z" fill="white"/>
<path d="M69.2894 85.3271L60.8086 100H71.0394L79.5009 85.3271H69.2894Z" fill="white"/>
<path d="M26.02 37.5962H50.1931L46.9046 43.2692C36.5392 61.2308 49.5008 83.6731 70.2315 83.6731H171.655L162.232 100H172.462L179.328 88.0962C180.905 85.3654 180.905 81.9808 179.328 79.25C177.751 76.5192 174.828 74.8269 171.655 74.8269H70.2315C63.6931 74.8269 57.8469 71.4423 54.5777 65.7885C51.3084 60.1346 51.3084 53.3654 54.5777 47.7115L57.8661 42.0192C59.4431 39.2885 59.4431 35.9038 57.8661 33.1731C56.2892 30.4423 53.3661 28.75 50.1931 28.75H20.9238L26.02 37.5962Z" fill="white"/>
<path d="M15.6935 19.6728H49.905C56.4435 19.6728 62.2897 23.0574 65.5589 28.7113C68.8281 34.3651 68.8281 41.1344 65.5589 46.7882L62.2704 52.4805C60.6935 55.2113 60.6935 58.5959 62.2704 61.3267C63.8474 64.0574 66.7704 65.7497 69.9435 65.7497H171.367C177.905 65.7497 183.751 69.1344 187.02 74.7882C189.905 79.7882 190.251 85.6344 188.04 90.8267L182.751 99.9997H193.136L194.694 97.3074C205.059 79.3459 192.097 56.9036 171.367 56.9036H116.597H85.6935H69.9435L73.232 51.2113C83.5974 33.269 70.6358 10.8267 49.905 10.8267H49.6551L43.7897 16.692L37.9243 10.8267H10.5781L15.6935 19.6728Z" fill="white"/>
<path d="M39.5572 9.17326L43.7688 4.9425L47.9996 9.17326H52.4611L43.7688 0.480957L35.0957 9.17326H39.5572Z" fill="white"/>
<path d="M13.5 28.75L0 23.8269L7.82692 18.9038L9.75 22.2307H49.9038C55.5192 22.2307 60.5385 25.1346 63.3462 30C66.1538 34.8653 66.1538 40.6538 63.3462 45.5192L60.0577 51.2115C58.0192 54.75 58.0192 59.0961 60.0577 62.6153C62.0962 66.1538 65.8654 68.3269 69.9423 68.3269H171.365C176.981 68.3269 182 71.2307 184.808 76.0961C187.615 80.9615 187.615 86.75 184.808 91.6153L179.962 100H175.404L181.538 89.3846C183.577 85.8461 183.577 81.5 181.538 77.9615C179.5 74.423 175.731 72.25 171.654 72.25H101.135H70.2308C64.6154 72.25 59.5962 69.3461 56.7885 64.4807C53.9808 59.6153 53.9808 53.8269 56.7885 48.9615L60.0769 43.2692C62.1154 39.7307 62.1154 35.3846 60.0769 31.8653C58.0385 28.3269 54.2692 26.1538 50.1923 26.1538H12.0577L13.5 28.75Z" fill="white"/>
<path d="M245.386 17.3079H212.309V82.6925H241.443C264.251 82.6925 274.866 69.9617 274.866 49.904C274.866 33.4233 267.174 17.3079 245.386 17.3079ZM240.347 65.9425H232.462V34.0579H238.866C253.424 34.0579 254.712 45.5002 254.712 49.6348C254.732 55.7694 252.886 65.9425 240.347 65.9425ZM330.828 52.3848C337.52 49.904 340.636 42.7694 340.636 36.0002C340.636 23.6348 330.751 17.3079 319.289 17.3079H280.905V82.6925H301.059V59.8848H311.77C319.732 59.8848 320.289 66.3848 320.847 72.6156C321.116 76.0002 321.482 79.3848 322.501 82.6925H342.655C340.828 79.6733 340.732 71.8848 340.462 68.6733C339.712 60.5386 336.328 54.481 330.828 52.3848ZM311.597 45.8848H301.059V32.8848H310.501C318.193 32.8848 320.482 35.2694 320.482 39.3848C320.482 45.231 315.347 45.8848 311.597 45.8848ZM369.751 17.3079L345.655 82.6925H365.905L368.828 73.3463H389.616L392.366 82.6925H413.251L389.443 17.3079H369.751ZM373.232 59.3463L379.559 39.1925H379.732L385.597 59.3463H373.232ZM447.77 60.7117H456.655C455.655 65.5579 450.886 67.9425 446.212 67.9425C433.943 67.9425 431.462 57.231 431.462 51.0963C431.462 46.6156 431.001 32.0386 444.828 32.0386C449.597 32.0386 453.616 35.4233 454.347 40.1925H473.674C470.751 24.8079 460.212 15.731 443.539 15.731C428.789 15.731 411.309 25.7117 411.309 50.6348C411.309 69.231 423.212 84.2502 442.539 84.2502C449.674 84.2502 456.636 81.7694 461.136 76.0002L461.77 82.6925H474.501V46.7117H447.751V60.7117H447.77ZM513.078 15.7502C493.212 15.7502 479.924 30.0386 479.924 50.0002C479.924 69.9617 493.212 84.2502 513.078 84.2502C532.962 84.2502 546.232 69.9617 546.232 50.0002C546.232 30.0386 532.943 15.7502 513.078 15.7502ZM513.078 67.9617C507.943 67.9617 500.078 64.5771 500.078 50.0194C500.078 35.4617 507.962 32.0771 513.078 32.0771C518.212 32.0771 526.078 35.4617 526.078 50.0194C526.078 64.5771 518.212 67.9617 513.078 67.9617ZM592.02 17.3079V52.2886H591.828L572.789 17.3079H552.174V82.6925H571.232V46.981H571.424L591.462 82.6925H611.059V17.3079H592.02Z" fill="white"/>
<path d="M630.116 40.1922C630.212 32.673 633.231 27.1922 638.077 23.5191C642.923 19.9422 649.519 18.2114 656.673 18.2114C675.173 18.2114 681.308 29.1922 681.308 34.596C681.308 47.9614 672.885 47.9614 672.885 48.2499V48.4422C672.885 49.173 683.327 49.173 683.327 63.3653C683.327 71.1537 677.462 83.423 656.577 83.423C627.904 83.423 627.827 63.2691 628.269 58.5191H645.673C645.577 61.9037 646.404 64.4807 648.154 66.1153C649.885 68.2307 652.558 68.9614 655.75 68.9614C660.962 68.9614 664.269 67.0384 664.269 61.8268C664.269 56.2307 659.962 55.2307 655.75 55.2307C653.096 55.2307 651.808 55.4999 650.443 55.6922V43.2307C651.808 43.3268 653.289 43.596 655.75 43.596C659.596 43.596 664.443 42.7691 664.443 37.8268C664.443 33.7883 659.866 32.2499 656.116 32.2499C651.173 32.2499 647.135 34.9037 647.327 40.2114H630.116V40.1922Z" fill="white"/>
</g>
<defs>
<clipPath id="clip0_4_4577">
<rect width="738.462" height="100" fill="white"/>
</clipPath>
</defs>
</svg>
