<svg width="587" height="100" viewBox="0 0 587 100" fill="none" xmlns="http://www.w3.org/2000/svg">
<g clip-path="url(#clip0_4_4591)">
<path d="M130.496 20.4057C130.496 17.866 130.009 14.5739 128.876 13.1904C136.287 13.1904 152.293 13.237 159.156 13.237C174.946 13.237 198.765 21.9377 198.765 51.2717C198.765 73.0438 181.949 89.2598 159.156 89.2598C154.156 89.2598 135.069 89.2016 128.295 89.2016C129.683 86.656 130.496 83.2037 130.496 80.4776V20.4057ZM141.849 81.8057C149.137 82.7464 155.864 83.0348 161.949 82.1727C167.84 81.3368 187.625 77.1039 187.502 51.0212C187.388 26.2987 172.011 20.6475 160.162 19.9572C153.98 19.5931 148.01 19.8261 141.849 20.8863V81.8057Z" fill="white"/>
<path d="M205.27 36.5468L216.614 34.7866C216.614 37.0943 216.614 43.8553 216.614 44.7057C219.522 37.5661 228.578 31.8275 241.439 36.8001L238.427 44.6416C226.651 39.0923 216.614 43.9601 216.614 56.9432V83.7336C216.614 85.0093 216.892 87.582 217.662 89.2334H205.877C207.068 87.7771 207.619 85.0093 207.619 83.7336V45.0902C207.616 42.2854 207.041 37.9477 205.27 36.5468Z" fill="white"/>
<path d="M563.908 41.9214C563.908 42.6525 563.908 73.8155 563.908 76.1397C563.908 86.8831 571.367 89.7548 576.893 89.7548C579.226 89.8684 582.538 89.3267 584.85 88.817L586.27 82.1871C583.577 83.2094 580.447 83.4511 578.566 83.4511C575.104 83.4511 572.599 81.1677 572.599 77.596C572.599 74.3922 572.517 42.9816 572.599 41.9797H572.561C573.021 41.9797 580.209 41.9535 580.934 41.9797C583.289 42.0612 585.1 42.2039 586.657 42.8272L586.666 36.5818C586.666 36.5818 572.869 36.5643 572.599 36.5643L572.655 20.5483L562.201 23.4152C563.642 24.755 564.111 28.6733 564.111 31.2567C564.111 31.2567 564.102 36.0401 564.102 36.6167C563.633 36.6167 558.323 36.6459 557.445 36.6459V41.9214C558.376 41.9185 563.908 41.9214 563.908 41.9214Z" fill="white"/>
<path d="M518.727 78.1054C523.221 81.2927 530.271 84.1237 535.444 84.1237C542.617 84.1237 547.757 80.6578 547.757 74.1357C547.757 62.0933 520.105 64.0884 520.105 48.8103C520.105 38.4776 529.409 34.5913 538.274 34.5913C541.124 34.5913 547.631 35.2068 551.768 36.7942L551.731 43.8522C548.059 40.7319 542.449 39.9805 538.755 39.9805C532.891 39.9805 528.485 42.8707 528.485 48.5394C528.485 56.8585 556.112 56.378 556.112 73.4599C556.112 84.5052 546.475 89.6555 535.866 89.6555C530.697 89.6555 525.304 88.7468 520.819 87.4711L518.727 78.1054Z" fill="white"/>
<path d="M351.814 42.0291C351.814 41.4058 351.838 35.8099 351.838 35.0934L340.352 36.8555C341.736 38.2972 342.798 42.7893 342.798 45.9989V83.3608C342.798 84.6365 342.249 87.7305 341.056 89.1868H353.577C352.389 87.7305 351.838 84.6365 351.838 83.3608V55.251C351.838 44.9649 358.245 41.3651 364.626 41.3651C370.4 41.3651 375.616 43.8436 375.616 55.251V83.3637C375.616 84.6394 375.064 87.7334 373.876 89.1868H386.019C384.828 87.7305 384.279 84.6365 384.279 83.3637V55.251C384.279 43.8465 391.376 41.3651 397.161 41.3651C402.932 41.3651 408.967 44.962 408.967 55.251V83.3637C408.967 84.6394 408.422 87.7334 407.225 89.1868H418.921C417.721 87.7305 417.178 84.6365 417.178 83.3637V49.9143C417.178 44.2106 411.317 35.0759 397.637 35.0759C389.678 35.0759 385.08 38.5914 381.592 41.6184C378.623 38.1778 373.791 34.9536 366.028 34.9536C358.465 34.9507 353.996 39.3515 351.814 42.0291Z" fill="white"/>
<path d="M324.736 59.5558C323.096 61.0887 319.664 62.2771 316.122 62.7401C306.811 63.9518 298.745 65.4867 298.745 74.4912C298.745 79.8309 304.613 84.0365 309.257 84.0365C321.559 84.0365 324.739 75.2223 324.739 68.2807V59.5558H324.736ZM295.674 37.5254C300.368 35.6585 307.946 34.7983 312.696 34.7983C324.829 34.7983 332.892 40.8195 332.892 54.7909V77.9717C332.892 82.2657 332.957 86.3326 334.5 89.1869H324.747L324.395 83.09C320.705 87.8238 316.289 89.9412 308.8 89.9412C294.023 89.9412 290.795 79.9153 290.795 75.0999C290.795 57.9044 307.277 57.7063 314.436 56.6928C318.396 56.1365 323.489 55.0239 324.257 51.3386C325.52 45.2417 321.13 40.668 312.161 40.668C305.575 40.668 300.184 42.6583 295.677 45.332L295.674 37.5254ZM505.316 59.5558C503.677 61.0887 500.244 62.2771 496.7 62.7401C487.391 63.9518 479.329 65.4867 479.329 74.4912C479.329 79.8309 485.191 84.0365 489.835 84.0365C502.134 84.0365 505.316 75.2223 505.316 68.2807V59.5558ZM476.255 37.5254C480.951 35.6585 488.532 34.7983 493.282 34.7983C505.407 34.7983 513.472 40.8195 513.472 54.7909V77.9717C513.472 82.2657 512.528 86.2452 515.075 89.1869H505.322L504.967 83.09C501.273 87.8238 496.867 89.9412 489.378 89.9412C474.605 89.9412 471.376 79.9153 471.376 75.0999C471.376 57.9044 487.857 57.7063 495.013 56.6928C498.974 56.1365 504.073 55.0239 504.832 51.3386C506.097 45.2417 501.708 40.668 492.733 40.668C486.153 40.668 480.761 42.6583 476.251 45.332V37.5254H476.255Z" fill="white"/>
<path d="M465.871 44.6329C462.212 42.5126 456.439 40.8311 452.411 40.8311C438.268 40.8311 431.783 49.4657 431.783 61.9042C431.783 74.2261 438.12 83.6637 451.957 83.6637C456.694 83.6637 463.148 81.5492 468.159 78.4929L466.121 87.5587C461.022 89.0645 456.726 89.7809 451.038 89.7809C431.598 89.7809 422.486 76.093 422.486 61.8459C422.486 46.1037 434.709 35.0322 451.253 35.0322C458.481 35.0322 463.759 36.7914 465.889 37.3914L465.871 44.6329Z" fill="white"/>
<path d="M248.257 62.5625C248.265 61.2635 248.441 60.0228 248.588 58.8189H286.202C286.202 45.9815 279.733 34.9683 264.416 34.9683C248.515 34.9683 239.074 47.3154 239.074 63.0635C239.074 77.3018 249.583 90.0286 267.584 90.0286C273.273 90.0286 278.032 88.6364 283.169 86.851L284.976 77.7445C280.584 81.3367 273.484 83.4628 267.074 83.4628C255.557 83.4628 248.207 75.1815 248.257 62.5625ZM249.78 53.124C251 46.8786 256.821 40.5166 263.789 40.5166C274.433 40.5166 277.513 48.7639 277.513 53.124C277.51 53.124 249.78 53.1444 249.78 53.124Z" fill="white"/>
<path d="M69.126 1.35761C73.3451 1.98671 77.6541 3.4488 79.9021 4.1313C84.4282 5.50602 91.7781 9.77578 94.3741 11.8243C95.6032 12.7941 98.1855 15.3309 99.1858 16.6076C100.16 17.8512 102.019 20.5453 103.204 22.2055C105.097 24.9471 107.321 29.0286 109.207 32.7828C111.314 36.9807 111.461 38.1952 112.097 41.7029L113.491 47.8872C113.623 48.9561 113.731 52.8792 111.411 53.4268C109.096 53.9782 106.951 52.9171 105.939 51.3647C104.543 49.2182 104.737 46.1678 103.152 42.6786C101.92 39.8554 101.383 35.7575 99.4116 32.809L97.8687 30.2139C95.1339 26.0364 92.2856 22.722 90.5892 20.557C89.0902 18.7396 86.2948 16.2727 83.6479 14.5154C81.1986 13.0388 77.2405 11.3583 74.3835 10.4932C73.4741 10.1991 69.5777 9.0593 67.1606 8.73892C63.8714 8.37485 61.7124 7.85934 58.5904 7.6409C54.736 7.37003 52.89 7.02927 47.8886 7.61177C45.9927 8.12146 42.9948 8.32243 40.2923 9.34764C38.1128 10.2311 35.0827 11.6582 32.1102 13.3912C28.91 15.1329 24.0572 18.693 20.8355 21.7336C17.5912 25.1743 15.9691 27.0238 13.7329 31.3848C12.7414 33.543 10.826 36.8846 10.0516 39.2438C9.52356 41.6359 8.51644 46.1008 8.68364 48.2687C8.76284 52.1511 8.41965 52.955 8.71298 56.1306C8.72471 58.9878 9.67022 60.9693 10.0633 63.308C10.3977 64.9245 11.9612 70.5117 12.9262 71.8136C17.3125 81.2026 23.2066 85.2694 29.7724 88.2053C31.6233 89.1431 37.4147 90.6809 39.0867 91.1207C41.9476 91.6314 45.7052 91.975 49.323 92.0449C53.1305 92.1178 58.3792 91.6081 61.5599 90.4392C65.0066 89.181 68.994 87.3927 68.95 87.4451C70.5457 86.5684 72.9901 85.1384 73.7469 84.5112C75.2165 83.5763 76.1024 83.2151 76.9707 82.3152C78.2291 81.2259 78.9869 80.5968 79.9402 79.2454C80.4682 78.4842 81.313 77.3192 82.1285 76.2882C83.0085 74.8523 83.5159 73.3407 84.3754 71.4728C85.406 68.7059 85.2446 68.8399 85.4412 65.9031C85.6289 65.0526 85.4206 62.1925 85.2681 61.7061C84.8037 59.0664 84.965 56.7393 84.3578 54.1763C83.5394 50.7094 82.853 48.1143 81.8058 44.7873C80.8173 41.0408 77.9211 37.572 75.7475 35.0934C74.4011 33.5546 70.2201 29.9285 64.4228 27.6616C62.789 27.117 60.1196 26.4995 58.4232 26.1908C54.7976 25.8151 54.208 26.0568 50.7398 26.3073C49.546 26.5141 46.7759 27.0762 45.7551 27.4315C42.7778 28.4713 41.6807 29.1334 38.6349 30.9829C37.2181 31.8013 36.1475 32.4275 34.6984 33.776C33.5417 34.839 32.7116 36.6458 31.7788 37.7059C30.494 39.4389 29.0654 41.7524 28.1052 44.2484C27.0668 46.7299 26.7324 50.223 26.8908 52.4715C26.8908 54.1821 27.3602 57.3218 27.545 58.0062C27.7327 58.6936 28.1991 60.8236 28.2988 61.2518C28.4025 61.6799 29.5172 63.9342 29.6726 64.2604C30.3033 65.5914 31.506 67.5001 33.5329 69.4515C35.0328 71.0738 37.9251 72.6679 40.0928 73.2854C42.0356 74.3455 45.3122 74.5232 47.1279 74.5261C48.0177 74.4737 50.2969 74.3339 51.4878 74.0514C53.9 73.4776 54.3429 73.463 56.8304 72.3903C59.0597 71.3621 60.5743 70.9922 62.126 69.8534C62.126 69.8534 64.2586 68.1962 65.2295 66.9817C65.7399 66.3438 66.618 63.2876 66.4625 61.3974C66.3892 58.8072 66.7705 57.3393 66.2356 55.2102C65.7018 53.0802 64.7954 50.6133 63.8098 49.0929C62.8125 47.5522 60.6711 46.0513 58.2325 44.8542C56.8627 44.1844 53.6262 43.564 52.2534 43.4038C49.6457 43.0951 47.4662 44.2717 46.1394 45.6144C44.9895 46.9192 42.7191 49.6259 43.6226 52.4278C44.441 54.9597 45.4324 57.6597 49.2585 57.4587C51.8868 58.0004 54.9237 57.217 55.9357 57.6771C57.4347 58.5218 58.0125 60.3926 57.4669 61.6974C57.0856 64.2109 54.6597 64.5109 52.0745 64.706C49.7572 65.0905 43.8778 63.9633 42.5871 63.0022C41.7188 62.4925 40.3891 61.2663 39.4563 60.4363C38.7816 59.8353 38.0248 58.5043 37.5027 57.549C36.8691 56.3752 36.5435 55.5102 36.3821 54.7471C36.1856 53.8384 35.7837 52.1016 35.9363 50.3686C36.0419 49.2007 36.3557 48.6998 36.6667 46.9891C37.2915 45.0494 38.0688 43.5727 39.3213 41.8893C40.9493 40.2486 43.0183 38.2943 45.0364 37.3856C46.817 36.4506 49.939 36.1099 52.758 36.273C55.0499 36.4885 57.7544 36.7681 59.5467 37.3623C62.613 38.4486 63.4871 38.6642 66.0039 40.2427C68.1286 41.5485 70.267 43.9514 71.4609 45.9406C74.0021 51.0997 75.4571 56.8383 74.4011 64.5633C74.3131 65.8681 73.9053 67.1448 73.084 68.8748C72.3262 70.468 71.0033 72.4077 69.0057 73.8679C68.2049 74.6047 66.9406 75.5135 65.91 76.0435C64.4492 76.9231 63.4666 77.3804 61.9442 78.1405C60.6036 78.7667 59.0421 79.4813 57.0064 80.0434C54.8005 80.9084 53.107 80.9434 50.3321 81.354C47.6041 82.0356 40.1309 81.5521 35.6781 79.6007C32.6412 78.3299 29.2356 76.096 26.6415 73.3727C25.2042 71.8718 23.7932 69.1573 23.3796 68.6011C21.3195 64.6653 20.9176 60.9693 20.5861 60.1887C20.1373 59.1334 19.9144 56.7655 19.6123 55.1461C19.272 53.3278 19.4832 45.7134 21.3283 40.8253C22.3735 38.8797 22.9836 37.1438 23.6847 36.2351C24.9519 34.4429 25.565 33.3274 26.6415 32.0605C28.2636 30.1062 29.4468 28.5091 31.0278 27.3849C35.0563 24.1316 38.4208 22.4161 42.9743 20.2686C48.6308 17.9794 50.3321 18.4541 55.6864 18.5386C58.0947 18.559 61.601 19.3104 63.3258 19.6221C66.527 20.0444 68.3604 20.8104 70.5222 21.4104C72.8376 22.0511 74.1723 23.0773 76.076 24.2161C77.6365 25.2151 79.4767 26.5898 80.6911 27.7053C83.8005 29.9693 85.3004 32.3488 87.207 35.2711C87.5532 35.7604 89.8148 40.5486 90.1756 41.8806C90.3428 42.5504 90.8532 44.464 91.1817 45.5853C91.6051 47.3619 91.8104 48.9357 92.2856 50.9424C92.7051 53.0074 93.4237 56.9053 93.7347 60.5528C94.2597 63.6808 93.4179 70.0631 92.9251 72.0204C91.828 75.6736 89.8969 80.1337 86.0953 84.4297C84.481 86.3325 82.765 87.8033 80.7791 89.4052C79.2655 90.6605 77.9621 91.3955 75.6155 92.7818C72.4318 94.6691 70.0089 95.8749 65.5463 97.6088C63.7277 98.1884 61.4367 98.9486 58.9688 99.4554C54.1904 99.8894 49.2761 100.309 43.9159 99.6767C38.5528 99.0418 33.1809 97.5409 30.007 96.5768C28.2548 95.9244 24.8639 94.5119 23.4442 93.7488C22.5172 93.2857 19.4128 91.176 18.8877 90.6693C16.7611 89.3645 12.0022 84.9219 8.93005 80.7803C8.25831 79.4958 5.83831 75.6591 5.31031 73.9756C3.91698 71.132 2.94213 67.6894 2.37307 66.2176C1.7688 62.7838 0.748 60.5761 0.352 57.1325C0.396 56.3228 0.187733 54.4151 0 53.3569C0.269867 51.0006 -0.0909334 48.7813 0.381333 46.2115C0.794933 44.0475 1.34053 43.1417 1.47253 41.1835C1.6016 40.3447 2.684 37.8283 2.97733 36.7069C3.85538 34.8594 4.07244 33.3391 5.21644 31.2741C6.86204 28.0606 8.58685 24.3617 11.2308 21.1278C11.9876 20.1259 14.1318 17.7231 14.8593 16.893C16.588 15.1766 17.6 14.9057 19.5595 13.1873C19.7589 13.0621 21.0555 11.5971 22.4116 11.0932C24.6556 9.37094 26.5946 8.74183 28.731 7.17489C33.0137 5.05749 34.5713 4.341 38.8227 2.58378C41.2818 1.71293 44.702 1.23528 45.934 0.760538C48.2817 0.614912 50.6636 -0.127782 53.1305 0.0178442C55.9005 -0.00545603 58.6931 0.189683 61.4778 0.440161C63.3551 0.550837 65.8044 0.641125 69.126 1.35761Z" fill="white"/>
</g>
<defs>
<clipPath id="clip0_4_4591">
<rect width="586.667" height="100" fill="white"/>
</clipPath>
</defs>
</svg>
