<svg width="391" height="100" viewBox="0 0 391 100" fill="none" xmlns="http://www.w3.org/2000/svg">
<g clip-path="url(#clip0_4_7317)">
<g opacity="0.940083">
<path fill-rule="evenodd" clip-rule="evenodd" d="M96.6266 50.9922C99.1399 54.0036 100.937 57.5135 102.014 61.5242C104.011 68.9585 103.012 76.1363 99.015 83.059C94.9819 90.0445 89.0512 94.5257 81.2258 96.5039C79.1362 97.0066 77.2878 96.7942 75.6814 95.8668C74.7148 95.3088 73.9355 94.5987 73.3389 93.7399C66.4632 97.7211 58.4787 100 49.962 100C43.2341 100 36.8385 98.5779 31.0591 96.018C27.7797 96.3537 24.448 96.0712 21.0637 95.1665C13.6271 93.1789 7.9106 88.7245 3.91361 81.8019C-0.119273 74.8163 -1.03479 67.4398 1.16464 59.6736C1.59095 58.2314 2.26242 57.068 3.17683 56.1808C3.11466 55.1935 3.07932 54.1987 3.07932 53.1957C3.07932 34.5075 14.0535 18.3848 29.9077 10.9134C30.6452 9.96564 31.4527 9.05086 32.3325 8.17012C37.772 2.72343 44.4882 0 52.4819 0C60.5481 0 67.3941 2.89551 73.0201 8.68339C74.5003 10.2417 75.2405 11.949 75.2405 13.8035C75.2405 13.8464 75.2389 13.8886 75.2373 13.9309L75.2356 13.9801C87.5377 21.9079 95.8773 35.4545 96.6266 50.9922ZM87.6254 44.66C94.2738 48.5327 98.5572 54.0655 100.472 61.2608C102.388 68.4549 101.429 75.4008 97.5958 82.1C93.7274 88.8599 88.0388 93.1963 80.5328 95.1105C78.5286 95.597 76.7556 95.3914 75.2148 94.494C73.1793 93.3085 71.9991 91.4208 71.6722 88.8337L66.9284 70.1926C66.4691 68.1047 66.6837 66.2866 67.5711 64.736C68.5651 62.9987 70.0655 61.8684 72.0734 61.3418C74.0814 60.8155 75.9383 61.0508 77.6458 62.0454C79.1696 62.9332 80.2098 64.4529 80.7665 66.6075L83.516 77.112C84.1444 76.4024 84.6896 75.6459 85.15 74.8413C86.924 71.7414 87.3525 68.4776 86.4356 65.0526C85.5195 61.6259 83.5197 59.0155 80.4386 57.2209C77.3549 55.4249 74.0983 54.9751 70.668 55.8716C67.2367 56.7674 64.6342 58.7663 62.8594 61.8675L58.121 70.1475C57.7716 70.7584 57.3818 71.2934 56.9536 71.7561C56.8052 72.5888 56.6194 73.425 56.3928 74.2649C54.4466 81.4783 50.1488 87.0198 43.5004 90.8924C36.8518 94.7651 29.9607 95.7408 22.8267 93.8163C15.6934 91.893 10.2103 87.5825 6.37648 80.8835C2.50823 74.1236 1.63008 66.9854 3.73973 59.4701C4.32416 57.4755 5.38723 56.0293 6.9279 55.1319C8.96318 53.9464 11.1736 53.8589 13.5582 54.8669L31.9315 60.0426C33.9533 60.6854 35.4068 61.7821 36.2942 63.3326C37.2883 65.0696 37.5087 66.9457 36.9566 68.9636C36.4044 70.9811 35.2739 72.4859 33.5664 73.4805C32.0426 74.368 30.2178 74.5167 28.0899 73.9263L17.698 71.0758C17.9928 71.98 18.3697 72.8345 18.8301 73.6388C20.6042 76.7389 23.1916 78.7448 26.5902 79.6565C29.9896 80.5691 33.2303 80.1274 36.3114 78.3328C39.3951 76.5367 41.4096 73.9159 42.355 70.4706C43.3017 67.025 42.8871 63.7516 41.1123 60.6505L36.3739 52.3703C36.022 51.7552 35.7565 51.1432 35.5735 50.5339C34.9099 49.9721 34.2635 49.3724 33.6355 48.7336C28.4164 43.4263 25.8084 36.9008 25.8084 29.1555C25.8084 21.4101 28.4166 14.9014 33.6355 9.63056C38.8531 4.35985 45.2947 1.7244 52.9624 1.7244C60.6992 1.7244 67.2658 4.52636 72.6621 10.1272C74.0819 11.6352 74.7918 13.2873 74.7918 15.0819C74.7918 17.4529 73.7618 19.4282 71.7041 21.0074L58.0745 34.4726C56.5119 35.9177 54.8439 36.6394 53.0692 36.6394C51.0809 36.6394 49.3601 35.8939 47.9043 34.4027C46.4485 32.9116 45.7219 31.1714 45.7219 29.1823C45.7219 27.4072 46.5065 25.7383 48.0775 24.1745L55.7201 16.5201C54.7967 16.3256 53.8748 16.2277 52.954 16.2277C49.4059 16.2277 46.3901 17.4853 43.9083 19.999C41.425 22.5127 40.1841 25.565 40.1841 29.1544C40.1841 32.7465 41.4265 35.817 43.9111 38.3657C46.3958 40.9157 49.4128 42.19 52.9624 42.19H62.4392C63.1972 42.19 63.9023 42.2756 64.5568 42.4435C65.3193 42.169 66.1016 41.9234 66.9059 41.7094C74.0711 39.8032 80.9767 40.7873 87.6254 44.66Z" fill="white"/>
</g>
<g opacity="0.940083">
<path d="M174.01 48.776V52.2405H141.442C141.75 57.1169 143.219 60.8317 145.85 63.3851C148.48 65.939 152.144 67.2153 156.841 67.2153C159.561 67.2153 162.198 66.8818 164.752 66.2144C167.305 65.5474 169.839 64.5464 172.355 63.2116V69.9102C169.814 70.9878 167.209 71.8094 164.54 72.3737C161.87 72.9381 159.163 73.2209 156.417 73.2209C149.539 73.2209 144.092 71.2195 140.075 67.2157C136.058 63.212 134.051 57.7971 134.051 50.9703C134.051 43.9131 135.956 38.3119 139.767 34.1668C143.579 30.0225 148.718 27.9497 155.185 27.9497C160.984 27.9497 165.572 29.8168 168.947 33.5509C172.322 37.285 174.01 42.3606 174.01 48.776ZM166.927 46.697C166.875 42.8223 165.791 39.7296 163.674 37.4194C161.556 35.1096 158.752 33.9549 155.262 33.9549C151.31 33.9549 148.146 35.0713 145.773 37.3044C143.399 39.5371 142.032 42.6809 141.673 46.7358L166.927 46.697Z" fill="white"/>
<path d="M206.349 47.5054V72.1045H199.266V65.5601C197.649 68.1783 195.634 70.1093 193.222 71.3538C190.809 72.5988 187.858 73.2209 184.368 73.2209C179.953 73.2209 176.443 71.9829 173.839 69.5062C171.234 67.0294 169.932 63.712 169.932 59.5545C169.932 54.7041 171.555 51.047 174.802 48.5834C178.048 46.1194 182.892 44.8877 189.334 44.8877H199.265V44.1947C199.265 40.9359 198.194 38.4146 196.051 36.63C193.908 34.8466 190.898 33.9545 187.024 33.9545C184.56 33.9545 182.16 34.2501 179.826 34.84C177.49 35.4307 175.245 36.3158 173.089 37.4961V30.9525C175.68 29.9516 178.196 29.2009 180.634 28.7004C183.072 28.1999 185.446 27.9497 187.756 27.9497C193.992 27.9497 198.65 29.5669 201.729 32.8006C204.809 36.0338 206.349 40.9363 206.349 47.5054ZM192.221 50.4315C186.498 50.4315 182.533 51.0858 180.326 52.3947C178.118 53.7039 177.015 55.9367 177.015 59.0932C177.015 61.6088 177.843 63.6036 179.498 65.0795C181.153 66.5553 183.405 67.2928 186.254 67.2928C190.181 67.2928 193.331 65.9011 195.705 63.1159C198.079 60.3316 199.266 56.6297 199.266 52.01V50.432H192.221V50.4315Z" fill="white"/>
<path d="M236.6 30.2597V36.9579C234.598 35.9318 232.519 35.1621 230.363 34.648C228.208 34.1348 225.974 33.878 223.665 33.878C220.149 33.878 217.511 34.4172 215.754 35.4948C213.996 36.5728 213.117 38.1896 213.117 40.3457C213.117 41.9881 213.746 43.2776 215.004 44.2146C216.261 45.1517 218.789 46.0433 222.587 46.8897L225.013 47.4289C230.042 48.5069 233.617 50.0277 235.734 51.9904C237.851 53.9539 238.91 56.6937 238.91 60.2098C238.91 64.2131 237.325 67.3828 234.155 69.7178C230.986 72.0536 226.63 73.2211 221.086 73.2211C218.776 73.2211 216.37 72.996 213.868 72.5475C211.366 72.0985 208.729 71.4249 205.957 70.5262V63.2122C208.575 64.573 211.154 65.5929 213.695 66.2727C216.236 66.9529 218.751 67.293 221.24 67.293C224.576 67.293 227.143 66.722 228.939 65.5801C230.735 64.4382 231.634 62.8275 231.634 60.7486C231.634 58.8238 230.986 57.3484 229.69 56.3219C228.394 55.2958 225.551 54.3072 221.163 53.3578L218.699 52.7807C214.31 51.8568 211.141 50.4387 209.191 48.5267C207.24 46.6151 206.265 43.9908 206.265 40.6545C206.265 36.5996 207.702 33.4686 210.576 31.2614C213.45 29.0543 217.531 27.9507 222.818 27.9507C225.436 27.9507 227.899 28.1432 230.209 28.5283C232.519 28.9125 234.649 29.4896 236.6 30.2597Z" fill="white"/>
<path d="M256.46 76.1081C254.458 81.2405 252.507 84.5896 250.608 86.1553C248.709 87.7206 246.168 88.5035 242.986 88.5035H237.327V82.575H241.485C243.435 82.575 244.949 82.1133 246.027 81.1894C247.105 80.2656 248.299 78.084 249.608 74.645L250.878 71.4114L233.439 28.9888H240.946L254.42 62.7113L267.894 28.9888H275.4L256.46 76.1081Z" fill="white"/>
<path d="M286.357 55.8412V72.1047H275.275V29.1289H292.201C297.861 29.1289 302.011 30.0791 304.65 31.9788C307.288 33.8784 308.608 36.8824 308.608 40.988C308.608 43.8288 307.922 46.16 306.55 47.983C305.178 49.8063 303.11 51.1494 300.347 52.0127C301.862 52.3581 303.221 53.1402 304.42 54.3583C305.619 55.5774 306.833 57.4242 308.061 59.8993L314.078 72.1039H302.275L297.037 61.4259C295.981 59.2769 294.911 57.8088 293.827 57.0215C292.743 56.2349 291.298 55.8412 289.495 55.8412H286.357ZM291.02 48.185C293.342 48.185 295.007 47.7529 296.015 46.8893C297.022 46.0256 297.525 44.6058 297.525 42.6291C297.525 40.6718 297.022 39.271 296.015 38.4267C295.007 37.5824 293.342 37.1603 291.02 37.1603H286.357V48.185H291.02Z" fill="white"/>
<path d="M314.773 29.1289H333.167C338.635 29.1289 342.833 30.343 345.76 32.7703C348.686 35.1984 350.149 38.6567 350.149 43.1473C350.149 47.6569 348.686 51.1259 345.76 53.5528C342.833 55.981 338.635 57.1942 333.167 57.1942H325.855V72.1047H314.773V29.1289ZM325.855 37.1603V49.1632H331.986C334.135 49.1632 335.795 48.6405 336.966 47.5946C338.136 46.5488 338.722 45.0663 338.722 43.1473C338.722 41.2287 338.136 39.7508 336.966 38.7144C335.795 37.6781 334.135 37.1599 331.986 37.1599H325.855V37.1603Z" fill="white"/>
<path d="M390.714 68.9095C387.951 70.2531 385.081 71.2602 382.107 71.9317C379.133 72.6033 376.063 72.9393 372.896 72.9393C365.738 72.9393 360.068 70.9382 355.884 66.9374C351.701 62.9361 349.609 57.5105 349.609 50.6594C349.609 43.7324 351.739 38.2826 355.999 34.3097C360.259 30.3377 366.093 28.3516 373.5 28.3516C376.36 28.3516 379.099 28.6203 381.719 29.1575C384.338 29.6951 386.808 30.4915 389.131 31.5465V40.4411C386.732 39.0786 384.348 38.062 381.978 37.39C379.608 36.7185 377.232 36.3825 374.853 36.3825C370.439 36.3825 367.038 37.616 364.649 40.0816C362.26 42.5477 361.066 46.074 361.066 50.6598C361.066 55.2081 362.217 58.7196 364.52 61.1956C366.823 63.6707 370.094 64.9087 374.336 64.9087C375.487 64.9087 376.557 64.8366 377.545 64.6931C378.533 64.5488 379.421 64.3237 380.208 64.0162V55.669H373.444V48.242H390.715V68.9095H390.714Z" fill="white"/>
</g>
</g>
<defs>
<clipPath id="clip0_4_7317">
<rect width="391" height="100" fill="white"/>
</clipPath>
</defs>
</svg>
