<svg width="551" height="100" viewBox="0 0 551 100" fill="none" xmlns="http://www.w3.org/2000/svg">
<g clip-path="url(#clip0_4_4605)">
<path d="M229.322 49.5545L201.835 49.4406L201.753 48.7576C201.639 47.8254 202.135 41.7089 202.527 39.1956C202.704 38.0689 202.909 36.6858 202.984 36.1221C203.333 33.5048 204.701 28.0865 205.916 24.511C207.179 20.7957 208.421 18.0574 210.393 14.6415C212.217 11.4793 213.566 9.69108 215.974 7.2432C218.582 4.59276 221.171 2.87359 224.159 1.80875C227.531 0.826377 230.44 0.496528 233.615 1.50938C237.198 2.67102 239.276 3.98146 242.452 7.08276C246.72 11.2498 250.195 17.2453 252.884 25.0811C254.507 29.8092 255.815 36.3479 256.461 42.9521C256.737 45.7693 256.928 48.4331 256.886 48.8715L256.81 49.6692L229.322 49.5545Z" fill="white"/>
<path d="M254.489 97.6875C253.356 96.9068 251.804 95.9074 251.041 95.4673C248.733 94.1362 246.372 92.8123 245.338 92.2701C244.169 91.657 236.703 88.1783 236.556 88.1783C236.501 88.1783 235.922 87.9578 235.272 87.688C234.623 87.4182 233.959 87.1717 233.798 87.1413C233.637 87.109 233.031 86.8804 232.453 86.6313C231.875 86.3821 230.576 85.9025 229.568 85.5646C228.548 85.2238 227.529 84.8802 226.512 84.5338C224.699 83.9136 219.562 82.4678 214.898 81.2667C213.427 80.8876 208.161 79.8183 206.218 79.5045C201.738 78.7794 200.324 78.515 200.135 78.3653C200.018 78.2712 199.998 77.8203 200.089 77.3614L200.257 76.5278L201.526 76.6802C203.485 76.9132 208.24 77.6787 210.007 78.0444C210.882 78.2246 212.972 78.6387 214.653 78.9632C219.484 79.8962 220.108 80.0262 220.888 80.2557C221.291 80.3749 222.226 80.5658 222.966 80.6796C223.707 80.7935 224.861 81.0292 225.534 81.2013L226.756 81.515L226.833 80.7262C226.875 80.2924 226.857 79.8873 226.793 79.8272C226.728 79.7672 225.813 79.6148 224.76 79.4893C212.078 77.3695 200.101 66.99 200.031 54.9191L200.105 53.459H258.541L258.503 55.8495C258.436 59.8946 256.928 63.8448 253.767 68.2574C252.567 69.9335 248.29 73.803 246.268 75.0453C242.68 77.2467 237.56 79.1146 234.291 79.4122C231.668 79.6506 231.768 79.5789 231.768 81.2452C231.768 82.6542 231.793 82.7107 232.44 82.8407C234.411 83.2369 243.706 86.3301 247.417 87.8243C251.972 89.6582 253.101 90.1476 257.808 92.3292C263.235 94.8461 264.814 95.695 264.696 96.0329C264.593 96.3287 257.519 99.1073 256.87 99.1073C256.694 99.1073 255.622 98.4682 254.489 97.6875Z" fill="white"/>
<path d="M301.212 54.8506H274.58V55.1192C274.58 59.9329 275.487 63.5711 277.3 66.0339C279.114 68.4743 281.789 69.6945 285.327 69.6945C288.036 69.6945 290.252 68.9893 291.976 67.5788C293.723 66.1459 294.943 64.0301 295.637 61.2315H300.607C299.622 65.1495 297.797 68.0937 295.133 70.064C292.491 72.0342 289.01 73.0193 284.689 73.0193C279.472 73.0193 275.274 71.3065 272.095 67.881C268.938 64.4331 267.359 59.8657 267.359 54.1789C267.359 48.5368 268.915 43.9919 272.027 40.5439C275.14 37.096 279.226 35.3721 284.286 35.3721C289.681 35.3721 293.823 37.0401 296.711 40.376C299.6 43.6896 301.1 48.5145 301.212 54.8506ZM293.924 51.2907C293.79 47.1263 292.905 43.9919 291.271 41.8873C289.659 39.7603 287.33 38.6968 284.286 38.6968C281.442 38.6968 279.203 39.7603 277.569 41.8873C275.934 44.0143 274.938 47.1487 274.58 51.2907H293.924Z" fill="white"/>
<path d="M318.743 68.4853H324.586V72.0452H306.619V68.4853H312.563V23.3489H306.619V19.7891H318.743V68.4853Z" fill="white"/>
<path d="M363.913 54.8506H337.281V55.1192C337.281 59.9329 338.188 63.5711 340.001 66.0339C341.815 68.4743 344.49 69.6945 348.028 69.6945C350.737 69.6945 352.953 68.9893 354.677 67.5788C356.424 66.1459 357.644 64.0301 358.338 61.2315H363.308C362.323 65.1495 360.499 68.0937 357.834 70.064C355.192 72.0342 351.711 73.0193 347.39 73.0193C342.173 73.0193 337.975 71.3065 334.796 67.881C331.639 64.4331 330.061 59.8657 330.061 54.1789C330.061 48.5368 331.617 43.9919 334.729 40.5439C337.841 37.096 341.927 35.3721 346.987 35.3721C352.382 35.3721 356.524 37.0401 359.413 40.376C362.301 43.6896 363.801 48.5145 363.913 54.8506ZM356.625 51.2907C356.491 47.1263 355.606 43.9919 353.972 41.8873C352.36 39.7603 350.032 38.6968 346.987 38.6968C344.143 38.6968 341.904 39.7603 340.27 41.8873C338.636 44.0143 337.639 47.1487 337.281 51.2907H356.625Z" fill="white"/>
<path d="M402.702 61.3322C401.829 65.1384 400.149 68.0377 397.664 70.0304C395.179 72.023 391.966 73.0193 388.026 73.0193C382.831 73.0193 378.656 71.3065 375.499 67.881C372.342 64.4331 370.764 59.8657 370.764 54.1789C370.764 48.4697 372.342 43.9135 375.499 40.5104C378.656 37.0848 382.831 35.3721 388.026 35.3721C390.287 35.3721 392.537 35.6407 394.776 36.1781C397.015 36.693 399.265 37.4878 401.526 38.5625V47.6973H397.933C397.463 44.5628 396.433 42.2791 394.843 40.8462C393.276 39.4133 391.026 38.6968 388.093 38.6968C384.757 38.6968 382.238 39.9954 380.536 42.5925C378.835 45.1673 377.984 49.0294 377.984 54.1789C377.984 59.3284 378.824 63.2017 380.503 65.7988C382.204 68.396 384.734 69.6945 388.093 69.6945C390.757 69.6945 392.884 69.0005 394.474 67.6123C396.063 66.2242 397.149 64.1308 397.731 61.3322H402.702Z" fill="white"/>
<path d="M413.28 39.9397H407.84V36.3463H413.28V25.2637H419.493V36.3463H431.113V39.9397H419.493V62.6087C419.493 65.6312 419.784 67.5679 420.367 68.4186C420.949 69.2694 422.023 69.6948 423.591 69.6948C425.203 69.6948 426.378 69.2246 427.117 68.2843C427.856 67.3216 428.248 65.7767 428.292 63.6498H432.96C432.781 66.8962 431.897 69.2694 430.307 70.7695C428.718 72.2696 426.3 73.0196 423.053 73.0196C419.493 73.0196 416.975 72.236 415.497 70.6687C414.019 69.0791 413.28 66.3924 413.28 62.6087V39.9397Z" fill="white"/>
<path d="M466.376 36.2788V45.2121H462.816C462.704 43.4433 462.211 42.1224 461.338 41.2492C460.465 40.376 459.189 39.9394 457.51 39.9394C454.465 39.9394 452.125 40.9917 450.491 43.0963C448.879 45.2009 448.073 48.2234 448.073 52.1639V68.4855H455.226V72.0454H436.318V68.4855H441.893V39.8723H435.982V36.346H448.073V42.6933C449.282 40.2081 450.838 38.3722 452.741 37.1856C454.644 35.9766 456.961 35.3721 459.692 35.3721C460.7 35.3721 461.752 35.4504 462.849 35.6072C463.969 35.7639 465.144 35.9878 466.376 36.2788Z" fill="white"/>
<path d="M487.063 69.6945C490.376 69.6945 492.873 68.3848 494.552 65.7652C496.253 63.1457 497.104 59.2836 497.104 54.1789C497.104 49.0742 496.253 45.2233 494.552 42.6261C492.873 40.0066 490.376 38.6968 487.063 38.6968C483.749 38.6968 481.242 40.0066 479.54 42.6261C477.861 45.2233 477.021 49.0742 477.021 54.1789C477.021 59.2836 477.872 63.1457 479.574 65.7652C481.275 68.3848 483.772 69.6945 487.063 69.6945ZM487.063 73.0193C481.869 73.0193 477.693 71.3065 474.536 67.881C471.379 64.4331 469.801 59.8657 469.801 54.1789C469.801 48.4921 471.368 43.9359 474.503 40.5104C477.659 37.0848 481.846 35.3721 487.063 35.3721C492.279 35.3721 496.455 37.0848 499.589 40.5104C502.746 43.9359 504.325 48.4921 504.325 54.1789C504.325 59.8657 502.746 64.4331 499.589 67.881C496.455 71.3065 492.279 73.0193 487.063 73.0193Z" fill="white"/>
<path d="M510.605 72.0454V68.4855H516.18V39.9394H510.27V36.346H522.36V42.6933C523.501 40.2753 524.979 38.4506 526.793 37.2192C528.629 35.9878 530.756 35.3721 533.174 35.3721C537.114 35.3721 540.013 36.5027 541.872 38.764C543.73 41.0253 544.659 44.5516 544.659 49.3429V68.4855H550.167V72.0454H533.106V68.4855H538.446V51.2907C538.446 46.9248 537.909 43.9359 536.834 42.3239C535.76 40.6895 533.868 39.8723 531.159 39.8723C528.293 39.8723 526.11 40.9246 524.61 43.0291C523.11 45.1113 522.36 48.1562 522.36 52.1639V68.4855H527.733V72.0454H510.605Z" fill="white"/>
<path d="M24.0701 60.8275V53.2712H16.1108C13.0435 53.2712 10.7598 53.9316 9.25975 55.2526C7.75968 56.5736 7.00964 58.5998 7.00964 61.3312C7.00964 63.8164 7.77087 65.7867 9.29333 67.242C10.8158 68.6972 12.8756 69.4249 15.4727 69.4249C18.0475 69.4249 20.1185 68.6301 21.6857 67.0405C23.2753 65.4508 24.0701 63.3798 24.0701 60.8275ZM30.2495 49.7449V68.4845H35.7572V72.0444H24.0701V68.1823C22.7044 69.8391 21.126 71.0593 19.3348 71.8429C17.5437 72.6265 15.4503 73.0183 13.0547 73.0183C9.09183 73.0183 5.94616 71.966 3.6177 69.8615C1.28923 67.7569 0.125 64.9135 0.125 61.3312C0.125 57.637 1.45715 54.7712 4.12145 52.7338C6.78575 50.6964 10.5471 49.6777 15.4055 49.6777H24.0701V47.2261C24.0701 44.517 23.2417 42.4237 21.5849 40.946C19.9505 39.4459 17.6445 38.6959 14.6667 38.6959C12.2039 38.6959 10.2449 39.2556 8.78958 40.3751C7.33428 41.4945 6.42753 43.1513 6.0693 45.3454H2.87886V38.1249C5.02821 37.207 7.11039 36.5241 9.12541 36.0763C11.1628 35.6062 13.1443 35.3711 15.0697 35.3711C20.0177 35.3711 23.7791 36.6025 26.3538 39.0653C28.9509 41.5057 30.2495 45.0656 30.2495 49.7449Z" fill="white"/>
<path d="M73.0689 61.3312C72.1957 65.1374 70.5165 68.0368 68.0313 70.0294C65.5462 72.022 62.3333 73.0183 58.3928 73.0183C53.1986 73.0183 49.023 71.3056 45.8662 67.88C42.7093 64.4321 41.1309 59.8647 41.1309 54.1779C41.1309 48.4687 42.7093 43.9125 45.8662 40.5094C49.023 37.0839 53.1986 35.3711 58.3928 35.3711C60.6541 35.3711 62.9042 35.6398 65.1432 36.1771C67.3821 36.692 69.6322 37.4869 71.8935 38.5615V47.6963H68.3C67.8298 44.5618 66.7999 42.2781 65.2103 40.8452C63.6431 39.4123 61.393 38.6959 58.46 38.6959C55.124 38.6959 52.6053 39.9944 50.9037 42.5916C49.2021 45.1663 48.3513 49.0284 48.3513 54.1779C48.3513 59.3274 49.1909 63.2007 50.8701 65.7979C52.5717 68.395 55.1016 69.6936 58.46 69.6936C61.1243 69.6936 63.2513 68.9995 64.8409 67.6114C66.4305 66.2232 67.5164 64.1299 68.0985 61.3312H73.0689Z" fill="white"/>
<path d="M96.9124 69.6936C100.226 69.6936 102.722 68.3838 104.402 65.7643C106.103 63.1448 106.954 59.2826 106.954 54.1779C106.954 49.0732 106.103 45.2223 104.402 42.6252C102.722 40.0056 100.226 38.6959 96.9124 38.6959C93.5988 38.6959 91.0912 40.0056 89.3896 42.6252C87.7105 45.2223 86.8709 49.0732 86.8709 54.1779C86.8709 59.2826 87.7217 63.1448 89.4232 65.7643C91.1248 68.3838 93.6212 69.6936 96.9124 69.6936ZM96.9124 73.0183C91.7181 73.0183 87.5425 71.3056 84.3857 67.88C81.2288 64.4321 79.6504 59.8647 79.6504 54.1779C79.6504 48.4911 81.2176 43.9349 84.3521 40.5094C87.509 37.0839 91.6957 35.3711 96.9124 35.3711C102.129 35.3711 106.305 37.0839 109.439 40.5094C112.596 43.9349 114.174 48.4911 114.174 54.1779C114.174 59.8647 112.596 64.4321 109.439 67.88C106.305 71.3056 102.129 73.0183 96.9124 73.0183Z" fill="white"/>
<path d="M150.512 36.2778V45.2111H146.952C146.841 43.4424 146.348 42.1214 145.475 41.2482C144.602 40.3751 143.325 39.9385 141.646 39.9385C138.601 39.9385 136.262 40.9908 134.627 43.0953C133.015 45.1999 132.209 48.2224 132.209 52.1629V68.4846H139.363V72.0444H120.455V68.4846H126.03V39.8713H120.119V36.345H132.209V42.6923C133.418 40.2071 134.974 38.3712 136.877 37.1846C138.78 35.9756 141.098 35.3711 143.829 35.3711C144.837 35.3711 145.889 35.4495 146.986 35.6062C148.105 35.7629 149.281 35.9868 150.512 36.2778Z" fill="white"/>
<path d="M153.334 72.0444V68.4846H158.909V39.9385H152.998V36.345H165.088V42.6923C166.23 40.2743 167.708 38.4496 169.521 37.2182C171.357 35.9868 173.484 35.3711 175.902 35.3711C179.843 35.3711 182.742 36.5017 184.6 38.763C186.459 41.0243 187.388 44.5506 187.388 49.3419V68.4846H192.895V72.0444H175.835V68.4846H181.175V51.2897C181.175 46.9239 180.637 43.9349 179.563 42.3229C178.488 40.6885 176.596 39.8713 173.887 39.8713C171.021 39.8713 168.838 40.9236 167.338 43.0282C165.838 45.1103 165.088 48.1553 165.088 52.1629V68.4846H170.462V72.0444H153.334Z" fill="white"/>
</g>
<defs>
<clipPath id="clip0_4_4605">
<rect width="550.296" height="100" fill="white"/>
</clipPath>
</defs>
</svg>
