<svg width="836" height="100" viewBox="0 0 836 100" fill="none" xmlns="http://www.w3.org/2000/svg">
<g clip-path="url(#clip0_4_4625)">
<path d="M67.3174 85.1243V98.2097H0V1.79102H65.4104V14.8764H19.2608V42.8379H61.7871V55.6478H19.2608V85.1243H67.3174Z" fill="white" stroke="white" stroke-width="1.83345"/>
<path d="M192.416 1.79102V98.2097H173.537L173.585 60.7251C173.833 47.2265 174.11 37.0999 174.264 29.5609L174.281 28.3754C171.738 33.5178 167.435 42.7919 161.332 54.5458L149.699 76.4467H130.629L118.996 54.5458C112.894 42.7919 108.804 33.8164 106.261 28.6741L106.294 29.6442C106.603 43.259 106.537 53.2603 106.792 60.6064V98.2097H87.9121V1.79102H107.554L130.057 40.9095C132.981 46.1436 136.223 52.5256 139.783 60.0555H140.546C144.105 52.5256 147.347 46.1436 150.271 40.9095L172.774 1.79102H192.416Z" fill="white" stroke="white" stroke-width="1.83345" stroke-linejoin="round"/>
<path d="M255.92 99.5872C243.969 99.5872 234.434 96.9242 227.315 91.5982C220.322 86.1804 216.826 78.6046 216.826 68.8709V1.79102H236.468V68.8709C236.468 74.5642 238.185 78.8801 241.617 81.8186C245.05 84.6652 249.817 86.0885 255.92 86.0885C262.149 86.0885 266.98 84.6652 270.413 81.8186C273.846 78.8801 275.562 74.5642 275.562 68.8709V1.79102H295.014V68.8709C295.014 78.6046 291.517 86.1804 284.525 91.5982C277.533 96.9242 267.998 99.5872 255.92 99.5872Z" fill="white" stroke="white" stroke-width="1.83345"/>
<path d="M383.117 84.9866V98.2097H319.613V1.79102H338.874V84.9866H383.117Z" fill="white" stroke="white" stroke-width="1.83345"/>
<path d="M454.208 78.7883H418.928L412.826 98.2097H392.611L426.175 1.79102H446.961L480.524 98.2097H460.501L454.208 78.7883ZM450.203 65.8406L441.812 39.9453C439.905 33.5174 438.252 26.6303 436.854 19.2841H436.282C434.629 28.0077 432.976 34.8948 431.324 39.9453L423.123 65.8406H450.203Z" fill="white" stroke="white" stroke-width="1.83345"/>
<path d="M553.372 15.0142H525.53V98.2097H505.888V15.0142H478.236V1.79102H553.372V15.0142Z" fill="white" stroke="white" stroke-width="1.83345"/>
<path d="M606.767 100C594.054 100 584.074 97.1534 576.827 91.4601C569.58 85.6749 565.957 77.7319 565.957 67.6309V32.3691C565.957 22.2681 569.58 14.371 576.827 8.67769C584.074 2.89256 594.054 0 606.767 0C619.48 0 629.46 2.89256 636.707 8.67769C643.954 14.371 647.577 22.2681 647.577 32.3691V67.6309C647.577 77.7319 643.954 85.6749 636.707 91.4601C629.46 97.1534 619.48 100 606.767 100ZM606.767 86.3636C613.632 86.3636 618.845 84.7567 622.405 81.5427C625.964 78.3287 627.744 73.6915 627.744 67.6309V32.3691C627.744 26.3085 625.964 21.6713 622.405 18.4573C618.845 15.2433 613.632 13.6364 606.767 13.6364C599.902 13.6364 594.689 15.2433 591.13 18.4573C587.57 21.6713 585.79 26.3085 585.79 32.3691V67.6309C585.79 73.6915 587.57 78.3287 591.13 81.5427C594.689 84.7567 599.902 86.3636 606.767 86.3636Z" fill="white" stroke="white" stroke-width="1.83345"/>
<path d="M701.736 63.2235H689.722V98.2097H670.461V1.79102H704.978C717.691 1.79102 727.544 4.45401 734.536 9.78C741.529 15.0142 745.025 22.4063 745.025 31.9563C745.025 39.3943 742.927 45.6386 738.732 50.6891C734.536 55.7396 728.625 59.2749 720.997 61.2951L749.983 98.2097H728.625L701.736 63.2235ZM689.722 50.0004H704.596C711.335 50.0004 716.42 48.4852 719.852 45.4549C723.412 42.4246 725.192 38.0169 725.192 32.2318C725.192 26.5385 723.476 22.2685 720.043 19.4219C716.611 16.4834 711.525 15.0142 704.787 15.0142H689.722V50.0004Z" fill="white" stroke="white" stroke-width="1.83345"/>
<path d="M796.707 100C784.756 100 775.285 97.4747 768.293 92.4242C761.3 87.3737 757.74 80.4867 757.613 71.7631H777.255C777.383 76.6299 779.099 80.303 782.404 82.7824C785.837 85.2617 790.605 86.5014 796.707 86.5014C802.937 86.5014 807.64 85.3076 810.819 82.9201C814.124 80.5326 815.777 77.3186 815.777 73.2782C815.777 69.4215 813.807 66.1616 809.865 63.4986C805.924 60.7438 799.949 57.6676 791.939 54.27C784.947 51.1478 779.353 48.393 775.158 46.0055C770.962 43.618 767.339 40.6336 764.288 37.0523C761.364 33.4711 759.902 29.247 759.902 24.3802C759.902 19.7888 761.364 15.6566 764.288 11.9835C767.339 8.21855 771.598 5.28007 777.065 3.16804C782.659 1.05601 789.143 0 796.516 0C807.831 0 816.794 2.43343 823.405 7.30028C830.016 12.1671 833.449 18.7328 833.703 26.9972H814.061C813.934 22.4977 812.344 19.1001 809.293 16.8044C806.242 14.5087 802.047 13.3609 796.707 13.3609C791.367 13.3609 787.172 14.371 784.121 16.3912C781.07 18.4114 779.544 21.1662 779.544 24.6556C779.544 27.3186 780.561 29.6602 782.595 31.6804C784.629 33.7006 787.108 35.4913 790.032 37.0523C793.084 38.5216 797.343 40.45 802.809 42.8375C809.929 45.8678 815.65 48.5767 819.972 50.9642C824.295 53.3517 827.982 56.4279 831.033 60.1928C834.084 63.8659 835.61 68.2736 835.61 73.416C835.61 78.2828 834.084 82.7365 831.033 86.7769C827.982 90.8173 823.469 94.0312 817.493 96.4187C811.645 98.8062 804.716 100 796.707 100Z" fill="white" stroke="white" stroke-width="1.83345"/>
</g>
<defs>
<clipPath id="clip0_4_4625">
<rect width="835.61" height="100" fill="white"/>
</clipPath>
</defs>
</svg>
