<svg width="87" height="100" viewBox="0 0 87 100" fill="none" xmlns="http://www.w3.org/2000/svg">
<g clip-path="url(#clip0_4_4637)">
<mask id="mask0_4_4637" style="mask-type:luminance" maskUnits="userSpaceOnUse" x="0" y="0" width="87" height="100">
<path d="M86.174 0H0V99.9969H86.174V0Z" fill="white"/>
</mask>
<g mask="url(#mask0_4_4637)">
<path fill-rule="evenodd" clip-rule="evenodd" d="M86.174 7.82823V76.8342C86.174 77.4814 86.1477 78.0826 86.0905 78.6394C85.9605 79.8877 85.9359 81.0973 84.775 82.4746C84.6616 82.6095 83.4764 83.4915 83.4764 83.4915C82.8388 83.8041 82.4036 84.0344 81.6843 84.3238L46.9582 98.873C45.1553 99.6993 44.4015 100.021 43.092 99.9955V99.9957C43.0903 99.9957 43.0887 99.9957 43.087 99.9957C43.0851 99.9957 43.0835 99.9957 43.0818 99.9957V99.9955C41.7724 100.021 41.0185 99.6993 39.2158 98.873L4.48948 84.3238C3.77044 84.0344 3.33515 83.8041 2.6976 83.4915C2.6976 83.4915 1.51225 82.6095 1.3988 82.4746C0.237949 81.0973 0.213449 79.8877 0.0832224 78.6394C0.0260985 78.0826 0 77.4814 0 76.8342V7.82823C0 2.10945 2.10959 0 7.8257 0H78.3483C84.0643 0 86.174 2.10945 86.174 7.82823ZM73.6407 69.2013V68.8192L73.6248 68.6442L73.6088 68.4851L73.577 68.3258L73.5453 68.1666L73.5134 68.0233L73.4666 67.88L73.4188 67.7369L73.3553 67.6096L73.2755 67.4662L73.1969 67.3389L73.1013 67.1957L73.0068 67.0683L72.8955 66.957L72.785 66.8296L72.6577 66.7182L72.5313 66.6067L72.4047 66.5272L72.2774 66.4317L72.1511 66.3521L72.0088 66.2726L71.8655 66.1928L71.7072 66.1133L71.549 66.0498L71.3908 65.97L71.2157 65.9073L71.0735 65.8597L70.9312 65.8119L70.7719 65.764L70.6297 65.7164L70.4715 65.6686L70.3131 65.6208L70.1538 65.5891L69.9796 65.5413L69.8214 65.4935L69.6475 65.4618L69.4734 65.4138L69.2992 65.3662L69.124 65.3185L68.9658 65.2866L68.8236 65.2387L68.6803 65.2069L68.5538 65.1593L68.4274 65.1274L68.2373 65.0639L68.0622 65.0001L67.904 64.9364L67.7776 64.8569L67.6344 64.7774L67.524 64.6658L67.4602 64.5703L67.3818 64.3952L67.3655 64.1884V64.1565L67.3818 63.9973L67.4442 63.8541L67.5397 63.7108L67.6822 63.5834L67.7936 63.5198L67.92 63.4561L68.0622 63.4242L68.2214 63.3923L68.3956 63.3606H68.7439L68.8862 63.3766L69.0454 63.3923L69.2036 63.4083L69.3618 63.4402L69.52 63.472L69.6792 63.504L69.8374 63.5515L69.9956 63.5995L70.17 63.6471L70.2973 63.7108L70.4395 63.7586L70.5659 63.8221L70.7092 63.8859L70.8355 63.9494L70.9778 64.0132L71.1053 64.0929L71.2475 64.1565L71.3748 64.2519L71.5013 64.3316L71.6435 64.4112L71.7708 64.5065L71.8655 64.3792L71.945 64.2519L72.0396 64.1246L72.1352 63.9973L72.2297 63.8541L72.3093 63.7268L72.4047 63.5995L72.4995 63.472L72.5788 63.3447L72.6735 63.2174L72.769 63.09L72.8487 62.9627L72.9431 62.8196L73.0387 62.6921L73.1333 62.5648L73.2129 62.4376L73.3073 62.31L73.1811 62.2146L73.0547 62.1192L72.9274 62.0234L72.8008 61.9441L72.6577 61.8486L72.5313 61.7688L72.3889 61.6893L72.2457 61.6099L72.1192 61.5461L71.9768 61.4666L71.8177 61.4028L71.6754 61.339L71.5332 61.2755L71.3908 61.2277L71.2317 61.1642L71.0893 61.1322L70.9469 61.0844L70.7879 61.0367L70.6454 61.0049L70.4872 60.973L70.329 60.9411L70.1857 60.9095L70.0274 60.8776L69.8533 60.8617L69.6951 60.8298L69.52 60.8138H69.3618L69.1876 60.7979L69.0135 60.7822H68.332L68.1738 60.7979L68.0156 60.8138L67.8563 60.8298L67.6981 60.8457L67.5557 60.8776L67.3975 60.9095L67.2545 60.9411L67.1119 60.973L66.9855 61.0049L66.8422 61.0527L66.684 61.1162L66.5258 61.1642L66.3826 61.2277L66.2403 61.3073L66.0979 61.371L65.9546 61.4506L65.8284 61.5301L65.7019 61.6256L65.5746 61.7212L65.464 61.8007L65.3367 61.9121L65.2262 62.0397L65.1149 62.151L65.0044 62.2783L64.9088 62.4056L64.8141 62.533L64.7348 62.6762L64.6559 62.8196L64.5924 62.9627L64.5286 63.106L64.4659 63.2493L64.4342 63.3923L64.3864 63.5358L64.3545 63.6791L64.3226 63.8221L64.3067 63.9814L64.2909 64.1246L64.275 64.2838V64.6501L64.2909 64.8249L64.3067 64.9842L64.3226 65.1433L64.3545 65.2866L64.3864 65.4458L64.4342 65.5731L64.4808 65.7164L64.5286 65.8438L64.5924 65.9542L64.6719 66.0973L64.7506 66.2248L64.8302 66.3361L64.9248 66.4474L65.0202 66.559L65.1309 66.6704L65.2422 66.7818L65.3526 66.8775L65.4799 66.957L65.6063 67.0525L65.7487 67.1321L65.876 67.2116L66.0344 67.2911L66.1766 67.3707L66.3357 67.4344L66.494 67.498L66.6522 67.5617L66.8264 67.6254L66.9696 67.6732L67.1119 67.7209L67.2545 67.7687L67.4124 67.8007L67.5557 67.8482L67.7141 67.896L67.872 67.928L68.0313 67.9758L68.1895 68.0075L68.3637 68.0553L68.5221 68.0871L68.696 68.1348L68.8553 68.1666L69.0135 68.2144L69.1559 68.2461L69.2992 68.294L69.4254 68.3258L69.536 68.3578L69.726 68.4372L69.8852 68.5009L70.0274 68.5646L70.1538 68.6282L70.2814 68.7237L70.3917 68.8192L70.4715 68.9305L70.5352 69.0897L70.5509 69.2808V69.3127L70.5352 69.4719L70.4872 69.6149L70.4236 69.7425L70.329 69.8539L70.2017 69.9494L70.0912 70.013L69.9639 70.0607L69.8214 70.0925L69.6792 70.1245L69.52 70.1563L69.3458 70.172H68.9975L68.8236 70.1563H68.6651L68.5061 70.1245L68.332 70.1085L68.1738 70.0767L68.0156 70.045L67.8563 70.013L67.7141 69.9653L67.5557 69.9174L67.3975 69.8698L67.2545 69.8061L67.1119 69.7585L66.9696 69.6947L66.8264 69.6312L66.684 69.5674L66.5578 69.4876L66.4142 69.4241L66.288 69.3443L66.1457 69.249L66.0184 69.1695L65.876 69.074L65.7487 68.9784L65.6063 68.883L65.4799 68.7875L65.3844 68.9148L65.2739 69.0261L65.1784 69.1535L65.068 69.2808L64.9724 69.3921L64.8779 69.5196L64.7666 69.6469L64.6719 69.7585L64.5605 69.8858L64.4659 69.9971L64.3545 70.1245L64.2601 70.2518L64.1644 70.3631L64.0539 70.4904L63.9583 70.6178L63.8479 70.7294L63.7525 70.8567L63.8788 70.968L63.9901 71.0635L64.1168 71.159L64.2441 71.2546L64.4968 71.4455L64.6241 71.5252L64.7506 71.6047L64.8939 71.6844L65.0202 71.7638L65.1626 71.8434L65.3057 71.9072L65.4481 71.9856L65.5905 72.0494L65.7336 72.1132L65.892 72.1768L66.0344 72.2245L66.1925 72.2722L66.3357 72.3359L66.494 72.3838L66.6522 72.4314L66.7945 72.4634L66.9537 72.5111L67.1119 72.5427L67.27 72.5747L67.4284 72.6065L67.5876 72.6383L67.7458 72.6543L67.904 72.686L68.0782 72.702L68.2373 72.718L68.3956 72.734H68.5696L68.728 72.7498H69.3936L69.5519 72.734L69.726 72.718L69.8852 72.702L70.0274 72.686L70.1857 72.6703L70.345 72.6383L70.4872 72.6065L70.6297 72.5747L70.7879 72.5427L70.9312 72.4952L71.0893 72.4473L71.2475 72.3997L71.4057 72.3359L71.565 72.2722L71.7072 72.1927L71.8495 72.1289L71.9928 72.0494L72.1192 71.9539L72.2457 71.8754L72.373 71.7799L72.4835 71.6844L72.6107 71.5728L72.7053 71.4774L72.8168 71.3659L72.9112 71.2546L72.9909 71.1273L73.0856 71L73.1651 70.8724L73.2446 70.7451L73.3073 70.6021L73.3711 70.4746L73.4346 70.3313L73.4826 70.172L73.5134 70.0288L73.561 69.8698L73.5929 69.7105L73.6088 69.5355L73.6248 69.3763L73.6407 69.2013ZM62.6702 72.559V69.9333H56.4578V67.9598H61.9726V65.4935H56.4578V63.5995H62.5905V60.973H53.4318V72.559H62.6702ZM51.0917 72.559V60.973H47.8438L47.7643 61.1004L47.6856 61.2435L47.5901 61.3699L47.5104 61.5132L47.432 61.6405L47.3522 61.784L47.2578 61.9103L47.178 62.0537L47.0987 62.181L47.0198 62.3083L46.9245 62.4505L46.8457 62.5779L46.7662 62.721L46.6867 62.8485L46.5921 62.9907L46.5123 63.118L46.4338 63.2453L46.3541 63.3879L46.2746 63.515L46.1799 63.6583L46.1005 63.7858L46.0209 63.928L45.9422 64.0554L45.8467 64.1985L45.7682 64.3249L45.6885 64.4522L45.6089 64.5955L45.5144 64.723L45.4348 64.8663L45.3559 64.9927L45.2766 65.136L45.182 65.2633L45.1024 65.4055L45.0229 65.5329L44.9442 65.4055L44.8647 65.2633L44.769 65.136L44.6904 64.9927L44.6108 64.8663L44.5322 64.723L44.4526 64.5955L44.3571 64.4522L44.2784 64.3249L44.1988 64.1985L44.1202 64.0554L44.0407 63.928L43.9453 63.7858L43.8664 63.6583L43.7868 63.515L43.7084 63.3879L43.6286 63.2453L43.5332 63.118L43.4545 62.9907L43.375 62.8485L43.2955 62.721L43.2008 62.5779L43.1213 62.4505L43.0426 62.3083L42.9628 62.181L42.8835 62.0537L42.7887 61.9103L42.7092 61.784L42.6305 61.6405L42.551 61.5132L42.4712 61.3699L42.3768 61.2435L42.2973 61.1004L42.2186 60.973H38.9696V72.559H41.9807V65.7398L42.0752 65.8671L42.1551 66.0115L42.2495 66.1385L42.329 66.2818L42.4246 66.4093L42.5032 66.5523L42.5988 66.6807L42.6774 66.824L42.773 66.9513L42.8525 67.0945L42.9471 67.2218L43.0266 67.3662L43.1213 67.4935L43.2008 67.6368L43.2955 67.764L43.375 67.9083L43.4704 68.0356L43.565 68.1788L43.6446 68.3061L43.7391 68.4503L43.8188 68.5776L43.9144 68.7209L43.9928 68.8482L44.0883 68.9925L44.167 69.1198L44.2625 69.2629L44.3422 69.3904L44.4366 69.5337L44.5162 69.662L44.6108 69.8051L44.6904 69.9324L44.785 70.0756L44.8647 70.204L44.9601 70.3473H45.0229L45.1024 70.22L45.1971 70.0756L45.2766 69.9483L45.3722 69.821L45.4507 69.6778L45.5461 69.5503L45.6248 69.4221L45.7045 69.2791L45.8 69.1515L45.8787 69.0242L45.9742 68.8961L46.0529 68.7529L46.1482 68.6256L46.2278 68.498L46.3065 68.3539L46.402 68.2266L46.4806 68.0991L46.576 67.9561L46.6547 67.8285L46.7502 67.7004L46.83 67.5571L46.9085 67.4298L47.0041 67.3025L47.0827 67.1583L47.178 67.0309L47.2578 66.9036L47.3522 66.7763L47.432 66.6321L47.5104 66.5048L47.6061 66.3774L47.6856 66.2342L47.7802 66.1068L47.8598 65.9795L47.9545 65.8352L48.0338 65.7079V72.559H51.0917ZM32.6112 67.928H29.9336L29.9961 67.7847L30.0439 67.6405L30.1077 67.4812L30.1714 67.338L30.2181 67.1939L30.2816 67.0506L30.3454 66.8913L30.4083 66.7471L30.4558 66.6039L30.5196 66.4607L30.5831 66.3166L30.63 66.1574L30.6937 66.0141L30.7573 65.8699L30.8052 65.7266L30.8679 65.5834L30.9317 65.4234L30.9952 65.2799L31.0421 65.1369L31.1059 64.9927L31.1695 64.8334L31.2172 64.6892L31.2798 64.5459L31.3435 64.6892L31.3913 64.8334L31.4539 64.9927L31.5177 65.1369L31.5655 65.2799L31.629 65.4234L31.6919 65.5834L31.7394 65.7266L31.8032 65.8699L31.867 66.0141L31.9136 66.1574L31.9774 66.3166L32.0253 66.4607L32.0878 66.6039L32.1515 66.7471L32.1995 66.8913L32.263 67.0506L32.3257 67.1939L32.3735 67.338L32.4372 67.4812L32.4999 67.6405L32.5477 67.7847L32.6112 67.928ZM37.6822 72.559L37.6185 72.4155L37.5549 72.2722L37.4923 72.1289L37.4443 71.9699L37.3807 71.8274L37.317 71.6844L37.2542 71.5411L37.1272 71.2546L37.0644 71.0953L37.0007 70.9521L36.9527 70.8089L36.8901 70.6656L36.7628 70.3791L36.6992 70.22L36.6366 70.0767L36.5728 69.9333L36.5091 69.7901L36.4625 69.6469L36.3987 69.5036L36.3349 69.3443L36.2712 69.2013L36.2085 69.0581L36.1447 68.9148L36.0812 68.7715L36.0184 68.6282L35.9708 68.469L35.9071 68.3258L35.8442 68.1826L35.7807 68.0393L35.7169 67.896L35.6534 67.7527L35.5905 67.5936L35.5269 67.4503L35.4792 67.3071L35.4165 67.1638L35.3527 67.0208L35.2891 66.8775L35.2254 66.7182L35.1626 66.575L35.0353 66.2884L34.9884 66.1453L34.9249 66.0019L34.8611 65.8597L34.7985 65.7004L34.7348 65.5573L34.671 65.4138L34.6075 65.2706L34.5447 65.1274L34.4968 64.9842L34.4333 64.8249L34.3706 64.6818L34.1796 64.2519L34.1168 64.1087L34.0531 63.9494L34.0055 63.8064L33.9427 63.6631L33.879 63.5198L33.8154 63.3766L33.7527 63.2333L33.6891 63.0742L33.5615 62.7876L33.5149 62.6443L33.4511 62.5012L33.3874 62.3578L33.3248 62.1987L33.261 62.0554L33.1975 61.9121L33.1337 61.7688L33.071 61.6256L33.0233 61.4826L32.9597 61.3233L32.8968 61.18L32.7695 60.8935H29.8379L29.7754 61.0367L29.7116 61.18L29.6481 61.3233L29.6001 61.4826L29.5374 61.6256L29.4739 61.7688L29.4101 61.9121L29.3474 62.0554L29.2838 62.1987L29.22 62.3578L29.1562 62.5012L29.1096 62.6443L28.982 62.9309L28.9194 63.0742L28.8557 63.2333L28.7921 63.3766L28.7293 63.5198L28.6656 63.6631L28.618 63.8064L28.5543 63.9494L28.4915 64.1087L28.428 64.2519L28.3642 64.3952L28.3013 64.5385L28.2378 64.6818L28.174 64.8249L28.1264 64.9842L28.0636 65.1274L27.9999 65.2706L27.9364 65.4138L27.8735 65.5573L27.81 65.7004L27.7463 65.8597L27.6835 66.0019L27.6358 66.1453L27.572 66.2884L27.5085 66.4317L27.4458 66.575L27.382 66.7182L27.3184 66.8775L27.2557 67.0208L27.1919 67.1638L27.1442 67.3071L27.0806 67.4503L27.0177 67.5936L26.9542 67.7527L26.8907 67.896L26.8278 68.0393L26.7005 68.3258L26.6527 68.469L26.59 68.6282L26.5264 68.7715L26.4626 68.9148L26.3999 69.0581L26.3362 69.2013L26.2724 69.3443L26.2097 69.5036L26.1621 69.6469L26.0984 69.7901L26.0348 69.9333L25.9719 70.0767L25.9083 70.22L25.8446 70.3791L25.7819 70.5224L25.7181 70.6656L25.6706 70.8089L25.6068 70.9521L25.5442 71.0953L25.4804 71.2546L25.4166 71.3979L25.3541 71.5411L25.2904 71.6844L25.2268 71.8274L25.179 71.9699L25.1161 72.1289L25.0526 72.2722L24.9888 72.4155L24.9261 72.559H28.1264L28.19 72.4155L28.2378 72.2722L28.3013 72.1289L28.3642 71.9699L28.412 71.8274L28.4758 71.6844L28.5383 71.5411L28.5862 71.3979L28.6499 71.2546L28.7134 71.1113L28.7603 70.968L28.8238 70.8089L28.8876 70.6656L28.9354 70.5224L28.998 70.3791H33.5455L33.6093 70.5224L33.6571 70.6656L33.7208 70.8089L33.7836 70.968L33.8313 71.1113L33.9586 71.3979L34.0055 71.5411L34.0691 71.6844L34.1328 71.8274L34.1796 71.9699L34.2433 72.1289L34.3069 72.2722L34.3546 72.4155L34.4174 72.559H37.6822ZM23.7521 70.984V65.8119H18.5228V68.1348H20.8365V69.5832L20.7099 69.6629L20.5985 69.7265L20.4563 69.7901L20.329 69.8539L20.1866 69.9174L20.0443 69.9494L19.8862 69.9971L19.7269 70.0288L19.5687 70.0607L19.4105 70.0767L19.2364 70.0925L19.0611 70.1085H18.6969L18.5228 70.0925L18.3646 70.0767L18.2064 70.045L18.0471 70.013L17.8889 69.9653L17.7306 69.9174L17.5875 69.8539L17.4453 69.7901L17.3027 69.7265L17.1754 69.6469L17.0491 69.5674L16.9228 69.4719L16.7953 69.3763L16.6851 69.2808L16.5893 69.1695L16.479 69.0581L16.3834 68.9467L16.2888 68.8192L16.2092 68.6919L16.1297 68.5646L16.051 68.4213L15.9875 68.2779L15.9237 68.1188L15.8768 67.9915L15.8292 67.8482L15.7973 67.7052L15.7654 67.5617L15.7336 67.4186L15.7176 67.2594L15.7019 67.1161L15.687 66.957V66.5907L15.7019 66.4317L15.7176 66.2726L15.7495 66.0973L15.7814 65.9542L15.8132 65.7959L15.8609 65.6368L15.9237 65.4935L15.9715 65.3502L16.035 65.2069L16.1148 65.0796L16.1932 64.9364L16.2728 64.8091L16.3517 64.6976L16.4471 64.5703L16.5575 64.4589L16.6531 64.3475L16.7635 64.2519L16.875 64.1565L16.9855 64.0611L17.1129 63.9814L17.2391 63.9017L17.3664 63.8221L17.5088 63.7586L17.6513 63.6948L17.7935 63.6471L17.9368 63.5995L18.0791 63.5675L18.2373 63.5358L18.3806 63.5198L18.5387 63.504H18.8711L19.0462 63.5198L19.2204 63.5358L19.3787 63.5515L19.5369 63.5834L19.6951 63.6153L19.8383 63.6471L19.9806 63.6948L20.1229 63.7426L20.2502 63.7904L20.3767 63.8541L20.504 63.9177L20.6462 63.9973L20.7727 64.0767L20.9 64.1565L21.0265 64.236L21.1529 64.3316L21.2802 64.4112L21.4065 64.5225L21.5338 64.6181L21.6285 64.4908L21.7398 64.3792L21.8346 64.2519L21.9459 64.1246L22.0403 63.9973L22.136 63.8859L22.2465 63.7586L22.3418 63.6313L22.4525 63.504L22.5479 63.3923L22.6425 63.265L22.7539 63.1377L22.8486 63.0264L22.9441 62.8989L23.0545 62.7716L23.1501 62.6443L23.2605 62.533L23.3559 62.4056L23.2296 62.31L23.1023 62.1987L22.9759 62.1032L22.8486 62.0077L22.7221 61.928L22.5957 61.8326L22.4525 61.7529L22.3261 61.6734L22.1839 61.5939L22.0563 61.5142L21.9141 61.4506L21.7718 61.371L21.6285 61.3073L21.4863 61.2435L21.3439 61.18L21.2007 61.1322L21.0742 61.0844L20.932 61.0527L20.7887 61.0049L20.6462 60.973L20.504 60.9411L20.3609 60.9095L20.2025 60.8776L20.0443 60.8457L19.9011 60.8298L19.7269 60.7979L19.5687 60.7822H19.4105L19.2364 60.7662L19.0611 60.7502H18.3806L18.2213 60.7662L18.063 60.7822L17.9049 60.7979L17.7466 60.8138L17.5875 60.8457L17.4292 60.8617L17.271 60.8935L17.1285 60.9411L16.9695 60.973L16.8273 61.0208L16.6851 61.0527L16.5415 61.1162L16.3834 61.1642L16.257 61.2117L16.0987 61.2915L15.9555 61.355L15.8132 61.4188L15.671 61.4983L15.5277 61.5779L15.3852 61.6575L15.259 61.7372L15.1316 61.8166L15.0052 61.9121L14.8779 61.9917L14.7514 62.0872L14.6409 62.1827L14.5136 62.2943L14.4031 62.3896L14.2917 62.5012L14.1812 62.6124L14.0856 62.7238L13.9752 62.8352L13.8798 62.9469L13.7851 63.0742L13.6896 63.2015L13.5951 63.3288L13.5154 63.4561L13.4361 63.5834L13.3573 63.7108L13.2776 63.8381L13.1981 63.9814L13.1354 64.1246L13.0081 64.4112L12.9453 64.5543L12.8816 64.7136L12.8338 64.8569L12.786 65.016L12.7394 65.1593L12.7075 65.3185L12.6597 65.4775L12.6278 65.6208L12.6121 65.78L12.5803 65.9382L12.5642 66.1133L12.5493 66.2726V66.4317L12.5334 66.6067V67.1321L12.5493 67.2911L12.5642 67.4503L12.5803 67.6096L12.5959 67.7527L12.6278 67.912L12.6438 68.0553L12.6756 68.2144L12.7234 68.3578L12.7551 68.5169L12.802 68.6599L12.8338 68.8032L12.8976 68.9467L12.9453 69.074L13.0081 69.217L13.1354 69.5036L13.1981 69.6469L13.2776 69.7742L13.3573 69.9174L13.4361 70.045L13.5154 70.172L13.61 70.2996L13.6896 70.4269L13.7851 70.5383L13.8798 70.6656L13.9752 70.777L14.0856 70.8884L14.1972 71L14.3076 71.0953L14.419 71.2068L14.5296 71.3023L14.6409 71.3979L14.7674 71.4933L14.8939 71.5887L15.0212 71.6844L15.1475 71.7638L15.2748 71.8434L15.4172 71.923L15.5434 72.0019L15.687 72.0814L15.8292 72.1451L15.9715 72.2087L16.1148 72.2722L16.2728 72.3359L16.4152 72.3838L16.5575 72.4473L16.7008 72.4952L16.859 72.527L17.0015 72.5747L17.1605 72.6065L17.3027 72.6383L17.4611 72.6703L17.6193 72.702L17.7786 72.718L17.9368 72.734L18.0949 72.7498L18.2691 72.7658L18.4273 72.7816H19.1091L19.283 72.7658L19.4422 72.7498L19.6164 72.734L19.7746 72.718L19.9487 72.702L20.1072 72.686L20.2662 72.6543L20.4244 72.6225L20.5668 72.5907L20.7261 72.559L20.8683 72.5111L21.0265 72.4634L21.1688 72.4155L21.312 72.3678L21.4545 72.32L21.5967 72.2562L21.7559 72.1927L21.8981 72.1289L22.0563 72.0654L22.1988 71.9856L22.3418 71.923L22.4843 71.8434L22.6266 71.7638L22.7699 71.6844L22.8963 71.6047L23.0236 71.5252L23.1501 71.4296L23.2764 71.3501L23.4037 71.2546L23.5144 71.1748L23.6417 71.0794L23.7521 70.984ZM67.7374 35.9095V44.5635C67.7374 46.0973 67.0285 46.8089 65.5575 46.8089H64.4667C62.9407 46.8089 62.2318 46.0973 62.2318 44.5635V20.3537C62.2318 18.8201 62.9407 18.1085 64.4667 18.1085H65.4481C66.9198 18.1085 67.6288 18.8201 67.6288 20.3537V27.8582H73.3514V20.025C73.3514 15.2603 71.0621 12.9598 66.3208 12.9598H63.4856C58.7442 12.9598 56.3996 15.3146 56.3996 20.0803V44.8369C56.3996 49.6027 58.7442 51.9574 63.4856 51.9574H66.375C71.1174 51.9574 73.4608 49.6027 73.4608 44.8369V35.9095H67.7374ZM47.4844 51.6288H53.3173V13.2884H47.4844V51.6288ZM39.0212 30.3225C39.0212 31.8562 38.3133 32.5687 36.8415 32.5687H34.4427V18.4372H36.8415C38.3133 18.4372 39.0212 19.1489 39.0212 20.6823V30.3225ZM37.7676 13.2884H28.6105V51.6288H34.4427V37.7164H37.7676C42.5099 37.7164 44.8534 35.3617 44.8534 30.5969V20.4089C44.8534 15.6434 42.5099 13.2884 37.7676 13.2884ZM18.5451 34.7586H25.4131V29.4462H18.5451V18.6009H25.6864V13.2885H12.7132V51.6288H25.7951V46.3162H18.5451V34.7586ZM42.8178 91.916L59.8594 86.296H26.472L42.8178 91.916Z" fill="white"/>
</g>
</g>
<defs>
<clipPath id="clip0_4_4637">
<rect width="86.285" height="100" fill="white"/>
</clipPath>
</defs>
</svg>
