<svg width="550" height="100" viewBox="0 0 550 100" fill="none" xmlns="http://www.w3.org/2000/svg">
<g clip-path="url(#clip0_4_7852)">
<path d="M33.2935 84.8428V74.1064H0.3125V80.2114H27.9603V84.5521C27.9603 90.126 22.8151 93.474 18.5094 93.474H3.75093V99.7193H19.68C27.0434 99.7193 33.2935 92.7749 33.2935 84.8428Z" fill="white"/>
<path d="M64.9395 74.9482V80.2114L98.1315 83.299V77.8952L64.9395 74.9482ZM64.9395 83.2287V88.4918L98.1315 91.5794V86.1756L64.9395 83.2287ZM64.9395 91.649V96.9121L98.1315 99.9997V94.5967L64.9395 91.649Z" fill="white"/>
<path d="M43.3066 99.7197H35.3086V94.4792H44.3521C45.7011 94.4792 46.4436 93.4069 46.4436 92.2834V88.8226H55.0483C56.7026 88.8226 57.3975 87.6878 57.3975 86.7136V85.8454H35.4778V80.5361H61.9745V88.5855C61.9745 91.977 59.0994 94.1318 56.5334 94.1318H50.0393C50.0393 96.6613 48.0222 99.7197 43.3066 99.7197Z" fill="white"/>
<path d="M100.131 73.9766V90.69H104.737V73.9766H100.131ZM127.849 73.9766V85.2285C127.849 90.4093 123.79 93.5437 120.552 93.5437H104.693V99.719H119.288C124.337 99.719 132.455 95.4847 132.455 86.958V73.9766H127.849Z" fill="white"/>
<path d="M166.6 84.1846H135.332V90.6868H166.6V84.1846Z" fill="white"/>
<path d="M342.844 84.1846H310.383V89.8447H342.844V84.1846Z" fill="white"/>
<path d="M179.602 74.0928V80.3673H208.282V93.5437H179.602V99.7191H208.282H213.162V93.5437V74.0928H179.602Z" fill="white"/>
<path d="M243.676 73.9766V86.0704C243.676 91.2511 238.775 93.5437 235.536 93.5437H215.678V99.719H235.607C240.655 99.719 248.282 95.4847 248.282 86.958V73.9766H243.676ZM215.529 74.1063V80.3672H234.337V74.1063H215.529Z" fill="white"/>
<path d="M250.861 73.9766V92.1363C250.861 95.9138 254.09 99.7377 258.814 99.7377H284.169V93.5471H258.389C256.578 93.5471 255.588 92.3276 255.588 90.7799V86.7401H284.169V82.368C283.029 83.778 281.29 84.6876 279.352 84.6876C276.638 84.6876 274.314 82.9042 273.484 80.4563H255.588V73.9766H250.861ZM279.352 73.9818C276.873 73.9818 274.84 76.0112 274.84 78.4903C274.84 80.9695 276.873 83.0023 279.352 83.0023C281.831 83.0023 283.864 80.9694 283.864 78.4903C283.864 76.0112 281.831 73.9818 279.352 73.9818ZM279.352 76.0427C280.718 76.0427 281.801 77.125 281.801 78.4903C281.801 79.8557 280.718 80.9422 279.352 80.9422C277.987 80.9422 276.901 79.8557 276.901 78.4903C276.901 77.1249 277.987 76.0427 279.352 76.0427Z" fill="white"/>
<path d="M279.353 73.9824C276.874 73.9824 274.842 76.0117 274.842 78.4908C274.842 80.97 276.874 83.0024 279.353 83.0024C281.833 83.0024 283.865 80.9699 283.865 78.4908C283.865 76.0117 281.833 73.9824 279.353 73.9824ZM279.353 76.0428C280.719 76.0428 281.801 77.1254 281.801 78.4908C281.801 79.8562 280.719 80.9421 279.353 80.9421C277.988 80.9421 276.902 79.8562 276.902 78.4908C276.902 77.1254 277.988 76.0427 279.353 76.0428Z" fill="white"/>
<path d="M288.883 81.2012V86.7407H303.868V93.5442H286.184V99.7196H313.081V93.5442H307.49V81.2012H288.883Z" fill="white"/>
<path d="M344.682 82.2813V88.4564H346.506C349.061 88.4564 353.539 84.5705 353.539 80.2874H373.334V84.3561H353.896V90.5029H370.512V91.0728C370.512 92.3602 367.978 93.5438 366.265 93.5438H347.218V99.7192H365.544C371.183 99.7192 377.999 95.1303 377.999 87.4325V74.0293H350.115V75.3342C350.115 77.5604 347.661 81.2045 344.682 82.2813Z" fill="white"/>
<path d="M0 0.300781V10.6218V23.126V33.447V55.1803H10.7178V33.447H28.6792V23.126H10.7178V10.6218H28.6792V0.300781H10.7178H0Z" fill="white"/>
<path d="M53.8857 0.300781L16.1758 55.1803H28.1831L33.9591 46.6455H52.497V55.1803H62.5197V0.300781H53.8857ZM52.497 19.2558V36.8213H40.6084L52.497 19.2558Z" fill="white"/>
<path d="M110.155 0.301758H122.262V55.1806H111.545V27.5923H110.552L98.6937 55.1806H93.8803H89.0668L77.2082 27.5923H76.2158V55.1806H65.498V0.301758H77.6052L93.8803 38.0124L110.155 0.301758Z" fill="white"/>
<path d="M125.047 0.301758H135.273V55.1806H125.047V0.301758Z" fill="white"/>
<path d="M138.168 0.300781V44.7744V55.1803H148.886H162.901V44.7744H148.886V0.300781H138.168Z" fill="white"/>
<path d="M168.458 55.1803V34.34L151.268 0.300781H162.552L173.667 22.1337L184.93 0.300781H196.214L179.024 34.34V55.1803H173.815H168.458Z" fill="white"/>
<path d="M356.739 0.301758H368.846V55.1806H358.129V27.5923H357.136L345.278 55.1806H340.464H335.651L323.792 27.5923H322.8V55.1806H312.082V0.301758H324.189L340.464 38.0124L356.739 0.301758Z" fill="white"/>
<path d="M281.738 3.80376e-09C274.42 0.000105641 267.402 2.95415 262.228 8.21233C257.054 13.4705 254.147 20.6021 254.146 28.0383C254.147 35.4745 257.053 42.606 262.228 47.8642C267.402 53.1224 274.42 56.0765 281.738 56.0766C285.361 56.0766 288.949 55.3514 292.297 53.9424C295.645 52.5334 298.686 50.4681 301.249 47.8645C303.811 45.2609 305.843 42.17 307.23 38.7682C308.617 35.3664 309.33 31.7204 309.33 28.0383C309.33 24.3562 308.617 20.7102 307.23 17.3084C305.843 13.9066 303.811 10.8157 301.249 8.21206C298.686 5.60847 295.645 3.54319 292.297 2.13417C288.949 0.725141 285.361 -6.06448e-05 281.738 3.80376e-09ZM281.669 9.92938C281.676 9.92938 281.682 9.92938 281.689 9.92938C286.386 9.9295 290.891 11.8427 294.213 15.2482C297.535 18.6536 299.401 23.2723 299.401 28.0883C299.401 32.9043 297.535 37.523 294.213 40.9285C290.891 44.3339 286.386 46.2471 281.689 46.2472C279.363 46.2473 277.059 45.7777 274.91 44.8651C272.761 43.9526 270.809 42.615 269.164 40.9288C267.519 39.2426 266.214 37.2408 265.324 35.0376C264.434 32.8344 263.976 30.473 263.976 28.0883C263.976 23.2756 265.839 18.6598 269.157 15.2549C272.475 11.85 276.975 9.93457 281.669 9.92938Z" fill="white"/>
<path d="M229.34 1.78048e-09C222.022 0.000205044 215.004 2.94384 209.83 8.1834C204.655 13.423 201.748 20.5293 201.748 27.9391C201.748 35.3489 204.655 42.4552 209.83 47.6948C215.004 52.9344 222.022 55.878 229.34 55.8782C234.434 55.8782 239.429 54.4502 243.771 51.7522C248.113 49.0542 251.633 45.1916 253.94 40.5924H241.999C240.348 42.3298 238.372 43.711 236.19 44.6542C234.007 45.5975 231.661 46.0835 229.29 46.0836C224.593 46.0837 220.087 44.1773 216.766 40.7839C213.444 37.3906 211.578 32.7882 211.577 27.9891C211.577 23.1934 213.441 18.5938 216.758 15.2008C220.076 11.8078 224.576 9.89901 229.271 9.89377C229.277 9.89377 229.284 9.89377 229.29 9.89377C233.937 9.89414 238.397 11.7597 241.71 15.0882H253.84C251.514 10.5412 247.998 6.72906 243.677 4.06815C239.357 1.40723 234.397 -5.77993e-05 229.34 1.78048e-09Z" fill="white"/>
<path d="M389.363 0.299547H371.787L371.77 55.179H382.47L382.476 35.9332H389.363C392.491 35.9331 395.563 35.1098 398.271 33.5461C400.98 31.9823 403.229 29.7331 404.793 27.0246C406.357 24.3159 407.18 21.2433 407.18 18.1155C407.18 14.9878 406.357 11.9152 404.793 9.20648C403.229 6.49798 400.98 4.24882 398.271 2.68503C395.563 1.12124 392.491 0.297942 389.363 0.297852L389.363 0.299547ZM389.731 10.7393C392.305 10.7393 394.682 12.1128 395.969 14.3416C397.256 16.5704 397.256 19.3165 395.969 21.5453C394.682 23.7741 392.305 25.1467 389.731 25.1467H382.479L382.484 10.741L389.731 10.7393Z" fill="white"/>
<path d="M532.111 0.297594H510.324L510.307 55.1771H520.726V27.0193L526.09 35.9313L537.673 55.1771H549.129L537.551 35.1589L537.488 35.092C541.668 33.7674 545.284 30.931 547.541 27.0226C550.724 21.5097 550.724 14.7174 547.541 9.20453C544.358 3.69196 538.476 0.296115 532.111 0.295898L532.111 0.297594ZM532.437 10.739C535.01 10.739 537.388 12.1127 538.675 14.3413C539.962 16.5702 539.962 19.3162 538.675 21.545C537.388 23.7738 535.01 25.1465 532.437 25.1465H520.735L520.74 10.7407L532.437 10.739Z" fill="white"/>
<path d="M423.922 44.0041C426.143 45.2868 428.632 45.2868 430.854 44.0041C433.076 42.7214 434.444 40.3509 434.444 37.7855V0.300781H445.059V37.8974C445.059 44.2028 441.63 49.924 436.169 53.0767C430.708 56.2295 423.98 56.2295 418.52 53.0767C413.059 49.924 409.684 44.2028 409.684 37.8974V0.300781H420.331V37.7855C420.331 40.3509 421.7 42.7214 423.922 44.0041Z" fill="white"/>
<path d="M447.838 0.300781V11.0186H456.72V55.1803H467.438V11.0186H476.443V0.300781H467.438H456.72H447.838Z" fill="white"/>
<path d="M479.051 0.298828V10.6207H479.053V23.1266H479.051V33.4485H479.053V44.8573V55.18H489.771H507.176V44.8573H489.771V33.4485H507.174V23.1266H489.771V10.6207H507.174V0.298828H479.051Z" fill="white"/>
<path d="M0 61.8701H545.124L539.124 67.4974H0V61.8701Z" fill="white"/>
</g>
<defs>
<clipPath id="clip0_4_7852">
<rect width="549.928" height="100" fill="white"/>
</clipPath>
</defs>
</svg>
