<svg width="838" height="100" viewBox="0 0 838 100" fill="none" xmlns="http://www.w3.org/2000/svg">
<g clip-path="url(#clip0_4_4658)">
<path d="M149.912 25.5352H186.861V35.2471H160.584V45.5701H183.74V55.282H160.584V74.0729H149.912V25.5352Z" fill="white"/>
<path d="M194.129 25.5352H204.801V74.0511H194.129V25.5352Z" fill="white"/>
<path d="M215.189 25.5352H225.032L247.773 55.4129V25.5352H258.315V74.0511H249.236L225.731 43.213V74.0511H215.189V25.5352Z" fill="white"/>
<path d="M284.853 25.1855H294.696L315.495 74.0507H304.342L299.912 63.1602H279.397L274.967 74.0507H264.076L284.853 25.1855ZM296.071 53.7539L289.633 38.0184L283.194 53.7539H296.071Z" fill="white"/>
<path d="M321.234 25.5352H331.907V64.3392H356.088V74.0511H321.234V25.5352Z" fill="white"/>
<path d="M381.471 25.5352H403.994C409.537 25.5352 413.902 27.0629 416.674 29.8346C418.9 32.0607 419.991 34.7451 419.991 38.0843V38.2152C419.991 43.6932 417.089 46.7486 413.619 48.691C419.227 50.8298 422.698 54.1035 422.698 60.6072V60.7381C422.698 69.5989 415.495 74.0511 404.54 74.0511H381.449V25.5352H381.471ZM401.702 45.1554C406.416 45.1554 409.385 43.6277 409.385 40.0266V39.8957C409.385 36.7093 406.897 34.8979 402.379 34.8979H391.838V45.1554H401.702ZM404.54 64.6884C409.254 64.6884 412.091 63.0297 412.091 59.4286V59.2977C412.091 56.0459 409.668 54.038 404.19 54.038H391.86V64.7102H404.54V64.6884Z" fill="white"/>
<path d="M429.004 53.2523V25.5352H439.676V52.9904C439.676 60.8909 443.626 64.9721 450.152 64.9721C456.677 64.9721 460.628 61.0218 460.628 53.3178V25.5352H471.3V52.9031C471.3 67.591 463.05 74.8149 450.021 74.8149C436.97 74.8149 429.004 67.5474 429.004 53.2523Z" fill="white"/>
<path d="M480.424 25.5352H502.619C508.796 25.5352 513.575 27.2593 516.762 30.4457C519.468 33.1519 520.93 36.9712 520.93 41.5325V41.6635C520.93 49.4985 516.696 54.409 510.542 56.7006L522.392 74.0293H509.909L499.52 58.512H491.14V74.0293H480.467V25.5352H480.424ZM501.921 49.1057C507.115 49.1057 510.105 46.3339 510.105 42.2527V42.1218C510.105 37.5386 506.919 35.1816 501.725 35.1816H491.118V49.1057H501.921Z" fill="white"/>
<path d="M528.809 25.5352H538.651L561.393 55.4129V25.5352H571.934V74.0511H562.855L539.35 43.213V74.0511H528.809V25.5352Z" fill="white"/>
<path d="M617.525 25.1855H627.368L648.167 74.0507H637.014L632.584 63.1602H612.069L607.638 74.0507H596.748L617.525 25.1855ZM628.743 53.7539L622.305 38.0184L615.866 53.7539H628.743Z" fill="white"/>
<path d="M653.906 25.5352H664.578V64.3392H688.76V74.0511H653.906V25.5352Z" fill="white"/>
<path d="M695.067 25.5352H714.883C726.45 25.5352 733.456 32.3881 733.456 42.3182V42.4492C733.456 53.667 724.726 59.4941 713.836 59.4941H705.717V74.0511H695.045V25.5352H695.067ZM714.207 50.0005C719.554 50.0005 722.653 46.8141 722.653 42.6456V42.5146C722.653 37.7351 719.336 35.1598 713.989 35.1598H705.739V50.0005H714.207Z" fill="white"/>
<path d="M739.633 25.5352H750.305V44.7407H769.991V25.5352H780.663V74.0511H769.991V54.5836H750.305V74.0511H739.633V25.5352Z" fill="white"/>
<path d="M807.203 25.1855H817.046L837.844 74.0507H826.692L822.262 63.1602H801.747L797.316 74.0507H786.426L807.203 25.1855ZM818.442 53.7539L812.004 38.0184L805.566 53.7539H818.442Z" fill="white"/>
<path d="M94.653 0H0V12.7455L76.9969 39.8298H120.908V26.2331C120.908 11.7416 109.144 0 94.653 0ZM73.4832 42.1213L40.3099 30.467V78.0882L25.5565 83.3697V100H84.1772V72.0209H73.4832V42.1213ZM76.9969 68.4854H120.908V43.3653H76.9969V68.4854Z" fill="white"/>
</g>
<defs>
<clipPath id="clip0_4_4658">
<rect width="837.844" height="100" fill="white"/>
</clipPath>
</defs>
</svg>
