<svg width="749" height="100" viewBox="0 0 749 100" fill="none" xmlns="http://www.w3.org/2000/svg">
<g clip-path="url(#clip0_4_4674)">
<path d="M94.6609 0H0V12.7436L77.007 39.8285H120.908V26.2276C120.908 11.7498 109.158 0 94.6609 0ZM73.4801 42.1278L40.3157 30.456V78.0787L25.5651 83.3593V100H84.1777V72.0187H73.4801V42.1278ZM77.007 68.4918H120.908V43.3554H77.007V68.4918Z" fill="white"/>
<path d="M160.58 35.2302V45.5575H183.729V55.2614H160.58V74.0455H149.902V25.5264H186.847V35.2302H160.58Z" fill="white"/>
<path d="M194.135 74.0455V25.5264H204.813V74.0455H194.135Z" fill="white"/>
<path d="M249.221 74.0455L225.721 43.1998V74.0455H215.18V25.5264H225.02L247.76 55.3978V25.5264H258.301V74.0455H249.221Z" fill="white"/>
<path d="M304.326 74.0456L299.883 63.1727H279.365L274.941 74.0456H264.068L284.859 25.1758H294.7L315.491 74.0456H304.326ZM289.633 38.0168L283.184 53.7416H296.083L289.633 38.0168Z" fill="white"/>
<path d="M321.24 74.0455V25.5264H331.918V64.3416H356.1V74.0455H321.24Z" fill="white"/>
<path d="M404.559 74.0455H381.488V25.5264H404.014C413.932 25.5264 420.031 30.4562 420.031 38.0751V38.2115C420.031 43.6869 417.127 46.7462 413.659 48.6752C419.271 50.8187 422.739 54.0727 422.739 60.6004V60.7368C422.7 69.6222 415.51 74.0455 404.559 74.0455ZM409.411 39.8872C409.411 36.6916 406.917 34.8989 402.416 34.8989H391.874V45.1483H401.714C406.43 45.1483 409.411 43.6285 409.411 40.0236V39.8872ZM412.1 59.2949C412.1 56.0408 409.684 54.0338 404.189 54.0338H391.855V64.6924H404.54C409.255 64.6924 412.1 63.0361 412.1 59.4313V59.2949Z" fill="white"/>
<path d="M450.019 74.8054C436.983 74.8054 429.014 67.5373 429.014 53.2543V25.5264H439.692V52.9815C439.692 60.8732 443.647 64.9652 450.156 64.9652C456.664 64.9652 460.619 61.0096 460.619 53.3128V25.5264H471.297V52.9036C471.297 67.6152 463.055 74.8054 450.019 74.8054Z" fill="white"/>
<path d="M509.898 74.0455L499.492 58.5155H491.114V74.0455H480.436V25.5264H502.61C514.048 25.5264 520.907 31.5474 520.907 41.5435V41.6799C520.907 49.5131 516.679 54.4235 510.502 56.7228L522.349 74.0455H509.898ZM510.112 42.1086C510.112 37.5295 506.916 35.1717 501.733 35.1717H491.133V49.1039H501.948C507.15 49.1039 510.132 46.337 510.132 42.245V42.1086H510.112Z" fill="white"/>
<path d="M562.86 74.0455L539.36 43.1998V74.0455H528.818V25.5264H538.659L561.398 55.3978V25.5264H571.94V74.0455H562.86Z" fill="white"/>
<path d="M634.938 74.0455L611.438 43.1998V74.0455H600.896V25.5264H610.737L633.476 55.4172V25.5264H644.018V74.0455H634.938Z" fill="white"/>
<path d="M653.936 74.0455V25.5264H690.529V35.0158H664.536V44.8561H687.412V54.365H664.536V64.556H690.88V74.0455H653.936Z" fill="white"/>
<path d="M722.194 74.8833C707.229 74.8833 696.473 63.7181 696.473 49.9223V49.7859C696.473 35.9901 707.346 24.6885 722.33 24.6885C737.295 24.6885 748.051 35.8537 748.051 49.6495V49.7859C748.051 63.5817 737.178 74.8833 722.194 74.8833ZM736.886 49.7859C736.886 41.4656 730.787 34.5287 722.194 34.5287C713.6 34.5287 707.638 41.3292 707.638 49.63V49.7664C707.638 58.0868 713.737 65.0236 722.33 65.0236C730.923 65.0236 736.886 58.2232 736.886 49.9223V49.7859Z" fill="white"/>
</g>
<defs>
<clipPath id="clip0_4_4674">
<rect width="748.051" height="100" fill="white"/>
</clipPath>
</defs>
</svg>
