<svg width="562" height="100" viewBox="0 0 562 100" fill="none" xmlns="http://www.w3.org/2000/svg">
<g clip-path="url(#clip0_4_4688)">
<path d="M160.014 34.908C161.66 36.0471 162.893 37.2846 163.716 38.6121C164.601 40.1984 165.14 41.9703 165.328 43.9345V87.7412C165.328 90.4028 164.839 92.4785 163.859 93.9663C162.879 95.4542 161.787 96.6411 160.584 97.5299C159.194 98.5424 157.61 99.2399 155.84 99.6205H126.328V33.0029H152.992C156.031 33.1323 158.371 33.7661 160.014 34.908ZM162.104 43.7432C161.913 42.35 161.503 41.0844 160.871 39.9425C160.363 38.9946 159.573 38.1227 158.498 37.3296C157.422 36.5365 155.964 36.2046 154.132 36.3311L129.365 36.4268V96.5792H154.512C155.84 96.3261 157.043 95.8845 158.119 95.2489C159.003 94.7426 159.857 93.9832 160.68 92.9679C161.5 91.9553 161.977 90.5631 162.104 88.7875V43.7432ZM148.153 47.5936C148.723 48.1308 149.164 48.7186 149.481 49.3515C149.799 50.049 149.987 50.8393 150.052 51.7253V79.2856C150.113 80.8701 149.973 82.0907 149.625 82.9429C149.276 83.8008 148.85 84.4167 148.344 84.7964C147.774 85.3027 147.142 85.5867 146.445 85.6514H140.752L140.564 46.5951H145.686C146.763 46.7217 147.586 47.0536 148.153 47.5936ZM147.016 51.7253C146.889 51.219 146.698 50.8084 146.447 50.4906C145.877 49.7958 144.897 49.6046 143.504 49.9196V82.611C144.071 82.7995 144.611 82.8642 145.116 82.7995C145.56 82.7376 145.956 82.5492 146.301 82.2313C146.653 81.9163 146.889 81.3116 147.016 80.4247V51.7253Z" fill="white"/>
<path d="M187.913 33.29V99.4304H169.504V33.29H187.913ZM184.686 37.0926H172.54V95.8191H184.686V37.0926Z" fill="white"/>
<path d="M212.111 54.9572V52.2009C212.173 50.9343 211.889 50.1749 211.257 49.9189C211.004 49.7952 210.656 49.7952 210.215 49.9189C209.707 49.9189 209.345 50.0314 209.123 50.2536C208.901 50.4758 208.758 50.743 208.696 51.0608C208.567 51.3758 208.567 51.7555 208.696 52.2009V55.8122L223.308 65.3168C225.142 66.3293 226.549 67.4066 227.532 68.5456C228.512 69.6876 229.191 70.7648 229.571 71.7782C230.014 72.9201 230.236 74.1211 230.236 75.3896V89.9259C230.11 92.0194 229.571 93.7153 228.621 95.0119C227.675 96.3113 226.599 97.3098 225.397 98.0045C224.004 98.8286 222.453 99.4305 220.745 99.8111H201.578C199.174 99.7492 197.292 99.1464 195.933 98.0045C194.574 96.8682 193.576 95.6616 192.944 94.396C192.183 92.8744 191.711 91.1643 191.52 89.2621V67.595L208.791 78.1459V81.851C208.791 82.4219 208.867 82.8494 209.027 83.1335C209.185 83.4176 209.39 83.6257 209.642 83.7523C209.895 83.9407 210.213 84.0363 210.592 84.0363C211.541 83.9717 212.08 83.592 212.207 82.8944C212.268 82.6441 212.237 82.2954 212.111 81.851V77.4793L199.491 69.8788C197.276 68.675 195.616 67.3897 194.509 66.0284C193.402 64.6671 192.593 63.4465 192.09 62.3692C191.52 61.1027 191.236 59.8342 191.236 58.5685V42.9859C191.36 40.5775 191.93 38.7099 192.944 37.3796C193.956 36.0492 195.096 35.0676 196.36 34.432C197.815 33.7373 199.427 33.3238 201.199 33.1973H218.184C221.094 33.3238 223.341 33.8638 224.923 34.8145C226.504 35.7623 227.706 36.8395 228.529 38.0433C229.413 39.4384 229.983 40.9909 230.236 42.7019V66.9312L212.111 54.9572ZM210.592 46.6901C211.603 46.8167 212.381 47.0529 212.918 47.4045C213.457 47.7533 213.884 48.147 214.199 48.5914C214.516 49.0977 214.738 49.6686 214.864 50.3014V53.0559L227.2 60.467L227.009 44.2207C227.071 42.5716 226.709 41.2272 225.917 40.1809C225.128 39.1346 224.257 38.3274 223.308 37.7593C222.169 37.0617 220.872 36.6174 219.417 36.4261H201.008C199.553 36.5555 198.413 36.952 197.593 37.6158C196.77 38.2796 196.138 38.9602 195.694 39.6577C195.189 40.5465 194.841 41.4972 194.65 42.5097V57.9048C194.588 59.1704 194.841 60.2786 195.411 61.2292C195.978 62.1808 196.613 63.0021 197.306 63.6996C198.068 64.5237 198.983 65.2521 200.059 65.885L215.623 75.9577V82.1351C215.623 83.3388 215.367 84.2754 214.862 84.9392C214.356 85.6058 213.786 86.0951 213.154 86.4102C212.457 86.7927 211.636 87.0458 210.687 87.1724C209.485 87.0458 208.567 86.7786 207.935 86.3652C207.303 85.9545 206.828 85.4961 206.511 84.987C206.132 84.4189 205.879 83.7523 205.753 82.9901V79.9516L194.65 73.2998L194.461 88.8824C194.523 90.72 194.919 92.1291 195.647 93.1135C196.374 94.095 197.18 94.8376 198.065 95.3466C199.076 95.9148 200.247 96.2635 201.575 96.3901H220.08C221.914 96.3282 223.291 95.9148 224.209 95.1554C225.125 94.396 225.804 93.5719 226.248 92.6859C226.754 91.6087 227.009 90.4049 227.009 89.0737V74.9142C227.071 74.152 226.883 73.3926 226.439 72.6304C225.995 71.871 225.49 71.2073 224.923 70.6354C224.226 69.9379 223.465 69.2741 222.645 68.6385L205.753 57.7107V50.6783C205.814 49.6011 206.115 48.8108 206.654 48.3045C207.191 47.7983 207.747 47.4157 208.314 47.1626C209.013 46.9123 209.772 46.7548 210.592 46.6901Z" fill="white"/>
<path d="M270.945 58.1888L264.113 66.0734L270.945 74.4361V99.4305H253.39V80.996L250.924 78.714V99.6199H233.178V33.1973H250.924V54.1022L253.39 51.1537V33.1973H270.945V58.1888ZM267.908 36.997H256.9L256.805 52.8674L247.884 61.9896L247.505 36.6174H236.402V95.7235H247.409V71.2045L256.046 79.3778V95.8163H267.717V74.8158L260.22 66.0734L267.908 57.1426V36.997Z" fill="white"/>
<path d="M322.471 54.9572V52.2009C322.533 50.9343 322.249 50.1749 321.617 49.9189C321.365 49.7952 321.016 49.7952 320.573 49.9189C320.064 49.9189 319.702 50.0314 319.48 50.2536C319.258 50.4758 319.118 50.743 319.053 51.0608C318.927 51.3758 318.927 51.7555 319.053 52.2009V55.8122L333.667 65.3168C335.501 66.3293 336.909 67.4066 337.892 68.5456C338.872 69.6876 339.552 70.7648 339.931 71.7782C340.372 72.9201 340.596 74.1211 340.596 75.3896V89.9259C340.467 92.0194 339.931 93.7153 338.982 95.0119C338.032 96.3113 336.957 97.3098 335.754 98.0045C334.363 98.8286 332.813 99.4305 331.106 99.8111H311.938C309.534 99.7492 307.653 99.1464 306.29 98.0045C304.93 96.8682 303.936 95.6616 303.301 94.396C302.543 92.8744 302.068 91.1643 301.877 89.2621V67.595L319.149 78.1459V81.851C319.149 82.4219 319.227 82.8494 319.388 83.1335C319.542 83.4176 319.75 83.6257 320.003 83.7523C320.255 83.9407 320.573 84.0363 320.952 84.0363C321.901 83.9717 322.438 83.592 322.564 82.8944C322.629 82.6441 322.595 82.2954 322.468 81.851V77.4793L309.849 69.8788C307.636 68.675 305.972 67.3897 304.866 66.0284C303.762 64.6671 302.953 63.4465 302.448 62.3692C301.88 61.1027 301.594 59.8342 301.594 58.5685V42.9859C301.72 40.5775 302.29 38.7099 303.304 37.3796C304.315 36.0492 305.455 35.0676 306.719 34.432C308.175 33.7373 309.787 33.3238 311.559 33.1973H328.544C331.454 33.3238 333.698 33.8638 335.282 34.8145C336.864 35.7623 338.066 36.8395 338.889 38.0433C339.774 39.4384 340.344 40.9909 340.596 42.7019V66.9312L322.471 54.9572ZM320.952 46.6901C321.963 46.8167 322.741 47.0529 323.277 47.4045C323.814 47.7533 324.243 48.147 324.558 48.5914C324.875 49.0977 325.094 49.6686 325.224 50.3014V53.0559L337.558 60.467L337.369 44.2207C337.431 42.5716 337.069 41.2272 336.28 40.1809C335.487 39.1346 334.616 38.3274 333.667 37.7593C332.529 37.0617 331.232 36.6174 329.777 36.4261H311.368C309.913 36.5555 308.773 36.952 307.95 37.6158C307.129 38.2796 306.495 38.9602 306.054 39.6577C305.545 40.5465 305.2 41.4972 305.012 42.5097V57.9048C304.947 59.1704 305.2 60.2786 305.77 61.2292C306.337 62.1808 306.969 63.0021 307.667 63.6996C308.428 64.5237 309.343 65.2521 310.419 65.885L325.982 75.9577V82.1351C325.982 83.3388 325.726 84.2754 325.221 84.9392C324.715 85.6058 324.148 86.0951 323.513 86.4102C322.817 86.7927 321.997 87.0458 321.047 87.1724C319.845 87.0458 318.927 86.7786 318.295 86.3652C317.663 85.9545 317.188 85.4961 316.87 84.987C316.491 84.4189 316.235 83.7523 316.112 82.9901V79.9516L305.009 73.2998L304.821 88.8824C304.883 90.72 305.278 92.1291 306.006 93.1135C306.733 94.095 307.539 94.8376 308.425 95.3466C309.436 95.9148 310.607 96.2635 311.936 96.3901H330.44C332.274 96.3282 333.65 95.9148 334.568 95.1554C335.484 94.396 336.165 93.5719 336.608 92.6859C337.117 91.6087 337.369 90.4049 337.369 89.0737V74.9142C337.431 74.152 337.24 73.3926 336.799 72.6304C336.356 71.871 335.85 71.2073 335.282 70.6354C334.585 69.9379 333.824 69.2741 333.004 68.6385L316.112 57.7107V50.6783C316.174 49.6011 316.474 48.8108 317.014 48.3045C317.551 47.7983 318.104 47.4157 318.674 47.1626C319.371 46.9123 320.129 46.7548 320.952 46.6901Z" fill="white"/>
<path d="M383.39 33.3857V89.8331C383.326 92.0503 382.868 93.8082 382.014 95.1076C381.16 96.407 380.197 97.4027 379.121 98.1002C377.917 98.8624 376.526 99.3996 374.945 99.7155H346.953V83.5611H364.791V80.4241H352.646C350.306 80.3003 348.534 79.7294 347.332 78.7141C346.13 77.7015 345.276 76.5596 344.77 75.294C344.135 73.8371 343.82 72.2226 343.82 70.447V33.3857H362.041V63.6996H365.173V33.3857H383.39ZM380.259 36.9015H368.78V62.8474C368.715 63.6687 368.493 64.3971 368.114 65.03C367.797 65.6009 367.308 66.1072 366.642 66.5516C365.977 66.996 365.013 67.2491 363.749 67.311C362.799 67.3757 361.976 67.28 361.28 67.0269C360.648 66.7738 360.081 66.3294 359.572 65.6965C359.067 65.0609 358.78 64.0484 358.721 62.6562V36.9043H347.618V70.6382C347.68 71.9048 347.967 73.0467 348.472 74.0593C348.913 74.9452 349.593 75.7524 350.511 76.4809C351.427 77.2093 352.772 77.575 354.544 77.575H368.684V82.5148C368.555 83.3389 368.271 84.0673 367.827 84.7002C367.448 85.2092 366.878 85.6817 366.12 86.1261C365.359 86.5705 364.347 86.7927 363.083 86.7927H350.368V96.1989H374.566C375.642 96.0723 376.591 95.7573 377.414 95.251C378.108 94.8067 378.756 94.1429 379.357 93.2541C379.958 92.3682 380.259 91.1644 380.259 89.6418V36.9015Z" fill="white"/>
<path d="M407.494 54.9572V52.2009C407.558 50.9343 407.272 50.1749 406.64 49.9189C406.387 49.7952 406.039 49.7952 405.598 49.9189C405.09 49.9189 404.727 50.0314 404.506 50.2536C404.284 50.4758 404.14 50.743 404.079 51.0608C403.952 51.3758 403.952 51.7555 404.079 52.2009V55.8122L418.69 65.3168C420.523 66.3293 421.931 67.4066 422.914 68.5456C423.895 69.6876 424.574 70.7648 424.956 71.7782C425.397 72.9201 425.619 74.1211 425.619 75.3896V89.9259C425.493 92.0194 424.956 93.7153 424.004 95.0119C423.058 96.3113 421.982 97.3098 420.779 98.0045C419.389 98.8286 417.839 99.4305 416.131 99.8111H396.961C394.557 99.7492 392.675 99.1464 391.315 98.0045C389.956 96.8682 388.959 95.6616 388.327 94.396C387.568 92.8744 387.094 91.1643 386.903 89.2621V67.595L404.174 78.1459V81.851C404.174 82.4219 404.25 82.8494 404.41 83.1335C404.567 83.4176 404.772 83.6257 405.025 83.7523C405.281 83.9407 405.595 84.0363 405.977 84.0363C406.924 83.9717 407.46 83.592 407.589 82.8944C407.651 82.6441 407.62 82.2954 407.494 81.851V77.4793L394.874 69.8788C392.658 68.675 390.998 67.3897 389.891 66.0284C388.784 64.6671 387.976 63.4465 387.473 62.3692C386.903 61.1027 386.619 59.8342 386.619 58.5685V42.9859C386.743 40.5775 387.316 38.7099 388.327 37.3796C389.338 36.0492 390.478 35.0676 391.742 34.432C393.198 33.7373 394.81 33.3238 396.582 33.1973H413.567C416.476 33.3238 418.723 33.8638 420.304 34.8145C421.887 35.7623 423.089 36.8395 423.911 38.0433C424.796 39.4384 425.366 40.9909 425.619 42.7019V66.9312L407.494 54.9572ZM405.977 46.6901C406.988 46.8167 407.763 47.0529 408.303 47.4045C408.839 47.7533 409.266 48.147 409.583 48.5914C409.898 49.0977 410.12 49.6686 410.246 50.3014V53.0559L422.583 60.467L422.392 44.2207C422.457 42.5716 422.092 41.2272 421.302 40.1809C420.509 39.1346 419.642 38.3274 418.692 37.7593C417.552 37.0617 416.257 36.6174 414.803 36.4261H396.391C394.936 36.5555 393.799 36.952 392.976 37.6158C392.155 38.2796 391.52 38.9602 391.079 39.6577C390.571 40.5465 390.222 41.4972 390.034 42.5097V57.9048C389.97 59.1704 390.222 60.2786 390.795 61.2292C391.363 62.1808 391.995 63.0021 392.691 63.6996C393.45 64.5237 394.369 65.2521 395.444 65.885L411.005 75.9577V82.1351C411.005 83.3388 410.752 84.2754 410.246 84.9392C409.738 85.6058 409.171 86.0951 408.536 86.4102C407.842 86.7927 407.019 87.0458 406.07 87.1724C404.868 87.0458 403.952 86.7786 403.32 86.3652C402.686 85.9545 402.214 85.4961 401.896 84.987C401.514 84.4189 401.261 83.7523 401.134 82.9901V79.9516L390.031 73.2998L389.843 88.8824C389.908 90.72 390.301 92.1291 391.028 93.1135C391.756 94.095 392.562 94.8376 393.45 95.3466C394.461 95.9148 395.63 96.2635 396.961 96.3901H415.465C417.299 96.3282 418.675 95.9148 419.591 95.1554C420.509 94.396 421.189 93.5719 421.634 92.6859C422.139 91.6087 422.392 90.4049 422.392 89.0737V74.9142C422.457 74.152 422.266 73.3926 421.825 72.6304C421.381 71.871 420.872 71.2073 420.304 70.6354C419.608 69.9379 418.85 69.2741 418.027 68.6385L401.137 57.7107V50.6783C401.199 49.6011 401.5 48.8108 402.04 48.3045C402.576 47.7983 403.129 47.4157 403.7 47.1626C404.393 46.9123 405.154 46.7548 405.977 46.6901Z" fill="white"/>
<path d="M463.576 33.577V50.8696H455.413V99.6199H436.246V50.8696H428.463V33.1973L463.576 33.577ZM459.874 36.997H431.882V47.0698H439.852V96.1988H451.428V47.3539H459.874V36.997Z" fill="white"/>
<path d="M485.213 50.6811V58.3773H497.359V75.6736H484.834V82.9901H497.359V99.9067L466.518 99.7155V33.1973H497.738V50.6811H485.213ZM481.511 61.8939V47.1654H494.035V37.0927H470.029V97.1495H494.035V86.6014H481.32V72.1579H494.224V61.8939H481.511Z" fill="white"/>
<path d="M558.181 35.6189C559.445 36.6651 560.333 37.7564 560.838 38.8983C561.473 40.2287 561.757 41.6856 561.692 43.27V99.9995H543.662V52.2965C543.598 51.6008 543.348 51.1564 542.904 50.9652C542.649 50.9033 542.396 50.8696 542.143 50.8696C541.764 50.8696 541.463 50.9652 541.241 51.1564C541.02 51.3449 540.848 51.5361 540.722 51.7246C540.531 51.9777 540.435 52.2346 540.435 52.4877V99.8111H522.597V52.5805C522.597 51.8849 522.344 51.3449 521.838 50.9652C521.586 50.7767 521.333 50.6502 521.077 50.5855C520.636 50.5855 520.288 50.6811 520.033 50.8696C519.78 51.0608 519.592 51.283 519.465 51.5361C519.277 51.7893 519.182 52.1043 519.182 52.4849V99.5242H501.91V33.2901H524.021C525.412 33.1635 526.631 33.2732 527.673 33.6219C528.717 33.9707 529.619 34.3982 530.377 34.9045C531.2 35.4754 531.958 36.142 532.655 36.9014C533.034 36.2039 533.509 35.6498 534.079 35.2392C534.647 34.8257 535.217 34.4938 535.787 34.2407C536.422 33.9876 537.085 33.7654 537.781 33.5741H552.679C555.081 33.8919 556.918 34.5754 558.181 35.6189ZM558.372 42.7947C558.308 41.7165 558.055 40.7659 557.614 39.9418C557.232 39.2443 556.583 38.5974 555.668 37.9927C554.749 37.3936 553.469 37.0927 551.822 37.0927H538.823C537.812 37.1545 536.863 37.4077 535.978 37.852C535.217 38.2317 534.441 38.8027 533.652 39.5621C532.86 40.3243 532.242 41.3368 531.801 42.6025C531.293 41.4015 530.695 40.3552 529.998 39.4665C529.302 38.7071 528.448 38.0096 527.437 37.3767C526.423 36.7439 525.093 36.4598 523.45 36.5245L505.707 36.713V96.1988H516.241V52.1071C516.176 51.2183 516.334 50.428 516.713 49.7305C517.03 49.0948 517.553 48.5267 518.28 48.0204C519.007 47.5114 520.1 47.2582 521.555 47.2582C522.313 47.2582 523.04 47.4495 523.737 47.8292C524.242 48.1442 524.734 48.6983 525.206 49.4914C525.681 50.2845 525.92 51.4405 525.92 52.9602V96.1988H537.119V52.1043C537.119 51.3449 537.307 50.6164 537.686 49.9189C538 49.348 538.509 48.8248 539.205 48.3523C539.899 47.877 540.944 47.6379 542.337 47.6379C543.095 47.576 543.822 47.6689 544.517 47.922C545.087 48.1779 545.61 48.6195 546.081 49.2551C546.556 49.888 546.795 50.9005 546.795 52.2937V96.196H558.372V42.7947Z" fill="white"/>
<path d="M126.523 0H138.144V4.05573H130.594V8.97585H138.144V13.161H130.594V21.9062H126.523V0Z" fill="white"/>
<path d="M151.359 21.9062H147.399V18.4945H139.731L137.459 21.9062H132.799L148.135 0H151.359V21.9062ZM147.399 14.3572V7.96332L142.717 14.3572H147.399Z" fill="white"/>
<path d="M152.91 0H157.503L163.977 14.7257L170.496 0H175.134V21.9062H171.047V10.8603L165.997 21.9062H161.865L156.997 10.8603V21.9062H152.91V0Z" fill="white"/>
<path d="M251.33 0H255.922L262.397 14.7257L268.915 0H273.556V21.9062H269.468V10.8603L264.416 21.9062H260.284L255.416 10.8603V21.9062H251.33V0Z" fill="white"/>
<path d="M180.653 0H176.424V21.9062H180.653V0Z" fill="white"/>
<path d="M181.816 0H186.047V17.9123H191.557V21.9062H181.816V0Z" fill="white"/>
<path d="M186.857 0H191.556L196 8.97585L200.314 0H204.971L197.966 13.9316V21.9062H193.865V13.9316L186.857 0Z" fill="white"/>
<path d="M227.96 6.04269C226.101 2.49791 222.394 0.0791016 218.118 0.0791016C211.984 0.0791016 207.01 5.0611 207.01 11.2038C207.01 17.3473 211.981 22.3256 218.118 22.3256C222.422 22.3256 226.154 19.8758 228 16.2898L222.967 16.332C221.724 17.4767 220.067 18.1771 218.245 18.1771C214.4 18.1771 211.282 15.0551 211.282 11.2038C211.282 7.35053 214.4 4.22764 218.245 4.22764C220.042 4.22764 221.677 4.90922 222.913 6.02862L227.96 6.04269Z" fill="white"/>
<path d="M238.952 22.3843C232.784 22.3843 227.787 17.3779 227.787 11.2034C227.787 5.02977 232.787 0.0224609 238.952 0.0224609C245.12 0.0224609 250.117 5.02977 250.117 11.2034C250.119 17.3807 245.12 22.3843 238.952 22.3843ZM246.061 11.2034C246.061 7.29671 242.896 4.12881 238.994 4.12881C235.093 4.12881 231.93 7.29671 231.93 11.2034C231.93 15.111 235.093 18.2779 238.994 18.2779C242.896 18.2779 246.061 15.111 246.061 11.2034Z" fill="white"/>
<path d="M282.267 0.00281257C285.969 0.300945 288.879 3.40321 288.879 7.18705C288.879 10.97 285.969 14.0722 282.267 14.3713L279.068 14.3572V21.9062H274.967V0H279.068L282.267 0.00281257ZM279.071 4.21604V10.1571L282.267 10.1543C283.666 9.89275 284.725 8.66365 284.725 7.18705C284.725 5.71046 283.666 4.48042 282.267 4.21886L279.071 4.21604Z" fill="white"/>
<path d="M333.94 22.1899H329.879V0.188125L335.518 0.179688L338.715 0.1825C342.417 0.480632 345.329 3.5829 345.329 7.36674C345.329 10.4578 343.386 13.0931 340.656 14.1169L345.389 22.1871H340.945L334.314 10.8403H333.94V22.1899ZM338.718 10.334C340.117 10.0724 341.176 8.84334 341.176 7.36674C341.176 5.89014 340.117 4.66011 338.718 4.39854H333.94V10.3396L338.718 10.334Z" fill="white"/>
<path d="M294.223 12.6575L294.226 15.8592C294.49 17.2627 295.714 18.3202 297.189 18.3202C298.664 18.3202 299.891 17.2598 300.155 15.8592L300.158 12.6575L300.167 0.188477H304.368V12.6575L304.362 15.8592C304.065 19.5661 300.967 22.48 297.189 22.48C293.411 22.48 290.313 19.5661 290.016 15.8592L290.032 12.6575L290.024 0.188477H294.24L294.223 12.6575Z" fill="white"/>
<path d="M308.563 22.1903H312.705V4.33421H316.421V0.188477H304.973V4.33421H308.563V22.1903Z" fill="white"/>
<path d="M328.812 22.1903H317.428V0.188477H328.812V4.21608H321.508V9.43996H328.812V13.5491H321.508V18.1261H328.812V22.1903Z" fill="white"/>
<path d="M2.95736 88.6185C2.96298 84.1212 5.56179 80.2332 9.34204 78.3854C9.34204 76.4785 9.34204 74.4534 9.34204 72.2793C3.76902 69.1592 0.00280851 63.1909 0 56.3442C0.00280851 49.4975 3.76902 43.5264 9.34204 40.4091C9.34204 26.7025 9.34204 15.0435 9.34204 12.8403C9.34485 5.86514 14.9881 0.210938 21.9532 0.210938H89.628C96.594 0.210938 102.24 5.86514 102.24 12.8403C102.24 15.0435 102.24 26.7025 102.24 40.4091C107.812 43.5264 111.579 49.4975 111.582 56.3442C111.579 63.1909 107.812 69.1592 102.24 72.2793C102.24 74.4534 102.24 76.4785 102.24 78.3854C106.023 80.2332 108.621 84.1212 108.624 88.6185C108.621 94.9055 103.538 100 97.2569 100H64.7203V97.5043C64.7118 92.5992 60.7453 88.6269 55.8472 88.6185V86.1209V83.6261C62.6504 83.629 68.3039 88.5369 69.4779 95.0124H97.2597C100.785 95.0039 103.639 92.1464 103.642 88.6185C103.647 85.7159 101.706 83.2661 99.0655 82.4842L98.0348 82.1805L97.2597 80.6476V80.0504C97.2597 77.2604 97.2597 74.22 97.2597 70.813V70.2561L97.9309 68.8189L98.7763 68.442C103.389 66.3663 106.605 61.734 106.602 56.3414C106.605 50.9741 103.42 46.3615 98.8437 44.2717L98.6639 44.1902L97.2597 43.2592V41.9195C97.2597 27.5688 97.2597 15.1222 97.2597 12.8375C97.2512 8.61865 93.8417 5.207 89.628 5.19856H21.9532C17.7404 5.207 14.3337 8.61865 14.3253 12.8375C14.3253 15.1222 14.3253 27.5688 14.3253 41.9195V43.2592L13.2066 43.9989L12.9173 44.1902L12.7403 44.2717C8.16247 46.3615 4.98043 50.9769 4.98323 56.3414C4.98043 61.734 8.19617 66.3663 12.8077 68.442L13.6503 68.8189L14.3253 70.2561V70.813C14.3253 74.22 14.3253 77.2632 14.3253 80.0504V80.6476L13.5464 82.1805L12.5157 82.4842C9.87566 83.2661 7.93498 85.7159 7.9406 88.6185C7.94621 92.1492 10.7969 95.0039 14.3225 95.0124H42.1033C43.281 88.5369 48.9346 83.629 55.7377 83.6261H55.8416V86.1209V88.6185H55.7405C50.8387 88.6269 46.8759 92.5992 46.8647 97.5043V100H14.3253C8.04732 99.9972 2.96017 94.9055 2.95736 88.6185Z" fill="white"/>
<path d="M16.4531 37.9932C16.4559 27.6307 24.8431 19.2343 35.1906 19.2314C45.5381 19.2343 53.9252 27.6307 53.9252 37.9932C53.9252 48.3556 45.5381 56.7549 35.1906 56.7549C24.8431 56.7549 16.4559 48.3556 16.4531 37.9932ZM19.5678 37.9932C19.5846 46.6343 26.5619 53.6217 35.1906 53.6386C43.8164 53.6217 50.7956 46.6343 50.8124 37.9932C50.7956 29.3548 43.8164 22.3646 35.1906 22.3506C26.5619 22.3646 19.5846 29.3548 19.5678 37.9932Z" fill="white"/>
<path d="M47.2811 42.4127C49.6887 42.4127 51.6403 40.4582 51.6403 38.0472C51.6403 35.6362 49.6887 33.6816 47.2811 33.6816C44.8736 33.6816 42.9219 35.6362 42.9219 38.0472C42.9219 40.4582 44.8736 42.4127 47.2811 42.4127Z" fill="white"/>
<path d="M57.6621 37.9932C57.6621 27.6307 66.0493 19.2343 76.3968 19.2314C86.7442 19.2343 95.1314 27.6307 95.1314 37.9932C95.1314 48.3556 86.7442 56.7549 76.3968 56.7549C66.0493 56.7549 57.6621 48.3556 57.6621 37.9932ZM76.3968 53.6386C85.0226 53.6245 92.0027 46.6343 92.0168 37.996C92.0027 29.3576 85.0226 22.3675 76.3968 22.3506C67.7709 22.3675 60.788 29.3576 60.7739 37.996C60.7908 46.6343 67.7709 53.6217 76.3968 53.6386Z" fill="white"/>
<path d="M64.3026 42.4127C66.7101 42.4127 68.6618 40.4582 68.6618 38.0472C68.6618 35.6362 66.7101 33.6816 64.3026 33.6816C61.8951 33.6816 59.9434 35.6362 59.9434 38.0472C59.9434 40.4582 61.8951 42.4127 64.3026 42.4127Z" fill="white"/>
</g>
<defs>
<clipPath id="clip0_4_4688">
<rect width="561.702" height="100" fill="white"/>
</clipPath>
</defs>
</svg>
