<svg width="210" height="100" viewBox="0 0 210 100" fill="none" xmlns="http://www.w3.org/2000/svg">
<path d="M47.5094 34.2286H53.5522C54.6977 34.2286 55.7677 35.0864 55.8254 36.223H55.8806V31.5516H47.5094L47.5052 23.3521H55.5824C56.7326 23.3521 57.8036 24.2068 57.864 25.3403H57.9165L57.9086 20.6657L40.959 20.673V20.7245C42.1003 20.788 42.9561 22.027 42.9561 23.1846V44.665C42.9561 45.8185 42.1003 47.0627 40.959 47.1283V47.1787H49.5107V47.1283C48.3683 47.0627 47.5052 45.8185 47.5052 44.665L47.5094 34.2286ZM65.0082 40.0508C65.0082 42.8071 67.25 45.1906 70.0167 45.1906C72.7803 45.1906 75.0305 42.7756 75.0305 40.0183V23.1846C75.0305 22.027 74.1716 20.7875 73.0271 20.724V20.6741L81.5851 20.6657V20.724C80.4427 20.7875 79.5775 22.027 79.5775 23.1846V39.5421C79.5775 44.8068 75.3197 47.8738 70.0393 47.8738C64.7494 47.8738 60.446 44.8068 60.446 39.5421L60.457 23.1846C60.457 22.027 59.5939 20.7875 58.4578 20.724V20.6657H67.0037V20.724C65.8645 20.7938 65.004 22.0344 65.004 23.1846L65.0082 40.0508ZM134.933 24.9586C133.499 22.5903 130.227 22.8754 130.227 22.8754C124.875 22.8754 125.128 27.0492 125.128 27.0492C125.128 27.0492 124.76 29.1434 127.449 30.5719L132.8 33.4783C137.965 36.3118 137.353 40.3385 137.353 40.3385C137.353 40.3385 137.586 47.8607 126.783 47.8607C126.783 47.8607 123.644 47.9589 121.867 47.278L120.347 42.406H120.4C122.046 44.8315 126.827 45.1822 126.827 45.1822C132.898 44.9092 132.94 40.6924 132.94 40.6924C132.94 40.6924 133.213 38.8764 130.836 37.5613L125.511 34.6549C119.952 31.6177 120.588 27.5274 120.588 27.5274C120.588 27.5274 120.457 20.127 130.014 20.127C130.014 20.127 134.305 20.2399 134.988 20.9245V24.9581L134.933 24.9586ZM93.2343 11.4483C93.722 11.9359 94.3011 12.3225 94.9385 12.5858C95.5759 12.8492 96.2591 12.9841 96.9487 12.9828C99.8577 12.9828 102.213 10.6361 102.213 7.73598C102.213 4.84428 99.8577 2.49332 96.9487 2.49332C96.9487 2.49332 92.8957 2.11007 91.0719 7.27975L91.0776 3.39895C92.4353 1.62812 94.5363 0.34082 96.9487 0.34082C101.053 0.34082 104.374 3.64885 104.374 7.73598C104.374 11.8173 101.053 15.1374 96.9487 15.1374C94.8981 15.1374 93.0438 14.3132 91.704 12.9687L89.1498 10.1069C88.7925 9.75055 88.3684 9.46811 87.9019 9.2757C87.4354 9.08328 86.9355 8.98467 86.4309 8.98548C84.3046 8.98548 82.58 10.6991 82.58 12.8159C82.58 14.9411 84.3041 16.6589 86.4309 16.6589C86.4309 16.6589 89.2753 17.039 91.0719 13.5252L91.0776 16.6326C90.5115 17.3157 89.8015 17.8654 88.9983 18.2423C88.1951 18.6192 87.3186 18.8141 86.4314 18.813C83.1108 18.813 80.4149 16.1281 80.4149 12.8159C80.4149 9.50996 83.1108 6.83088 86.4314 6.83088C88.0851 6.83088 89.5866 7.49395 90.6776 8.58648L93.2343 11.4483ZM94.6025 23.129C94.6025 21.9703 93.7425 20.7833 92.6022 20.724V20.6736H101.141V20.724C100.007 20.7885 99.1432 21.9766 99.1432 23.1285V44.6551C99.1432 45.8101 100.007 47.0538 101.141 47.1226V47.1719H92.6022V47.1226C93.7425 47.0538 94.6025 45.8101 94.6025 44.6551V23.129ZM89.2407 23.1852C89.2407 22.0275 90.0985 20.788 91.2399 20.7245V20.673H82.6876V20.7245C83.8321 20.788 84.6863 22.0275 84.6863 23.1852L84.6936 50.0956C84.6936 50.0956 84.5975 54.8474 80.8637 57.5822L80.8732 57.6341C81.6098 57.5108 89.247 56.066 89.247 48.5028L89.2407 23.1852Z" fill="white"/>
<path d="M101.109 25.4425H101.16C102.317 23.3767 104.103 23.353 104.103 23.353H108.732L108.736 44.6654C108.736 45.8189 107.875 47.0542 106.734 47.123V47.1723H115.297V47.123C114.148 47.0542 113.284 45.8105 113.284 44.666L113.29 23.3525L117.159 23.3431C118.334 23.3431 119.264 24.2776 119.298 25.4425H119.345L120.766 20.665H102.535L101.109 25.4425ZM143.724 40.0512C143.724 42.8075 145.966 45.191 148.734 45.191C151.494 45.191 153.746 42.776 153.746 40.0187V23.185C153.746 22.0274 152.887 20.7879 151.747 20.7244V20.6745L160.299 20.6661V20.7244C159.165 20.7879 158.301 22.0274 158.301 23.185V39.5425C158.301 44.8072 154.041 47.8742 148.752 47.8742C143.472 47.8742 139.168 44.8072 139.168 39.5425L139.174 23.185C139.174 22.0274 138.313 20.7879 137.171 20.7244V20.6661H145.724V20.7244C144.579 20.7942 143.718 22.0348 143.718 23.185L143.724 40.0512Z" fill="white"/>
<path d="M24.9301 88.9916V95.7862H1.48828V88.9921H6.84644V62.4922H2.15818V54.3389H50.3805V71.3259H40.3341V62.4922H19.5719V72.6846H34.3066V80.8383H19.5714V88.9921L24.9301 88.9916ZM59.0877 88.3122V61.8123H54.3994V54.3384H72.2547L83.6209 78.0522L95.4823 54.3379H114.678V61.8123H109.99L109.983 88.3054L114.008 88.3191V95.7862H92.5759V88.3122L96.5942 88.3054L96.5674 72.3785L84.9807 95.7862H79.4083L67.1585 71.801C67.0776 77.0736 67.1448 83.0323 67.1249 88.3054C68.4642 88.3122 69.804 88.3122 71.1432 88.3191V95.7862H54.3999V88.3122H59.0877ZM119.366 71.3253H140.129V78.7992H119.366V71.3253ZM167.006 64.5639C164.455 64.945 163.315 67.6015 163.47 69.9729L155.533 69.9661V55.0178H201.747V64.3061C197.366 65.5902 194.212 68.6074 191.559 72.5486C187.28 79.445 185.552 87.7211 185.672 95.7799C180.502 95.7799 175.331 95.8066 170.167 95.7662C171.051 89.8951 172.344 84.0246 174.755 78.5887C176.631 75.0623 179.953 70.761 183.636 67.9144C185.224 66.6707 186.593 65.5498 188.633 64.578L167.006 64.5639Z" fill="white"/>
<path opacity="0.98" d="M149.203 52.2725H208.29V98.2972H149.203V52.2725Z" stroke="white" stroke-width="3"/>
</svg>
