<svg width="305" height="100" viewBox="0 0 305 100" fill="none" xmlns="http://www.w3.org/2000/svg">
<g clip-path="url(#clip0_4_4729)">
<path d="M111.159 74.1111C112 64.9841 119.675 57.8413 129.024 57.8413C138.373 57.8413 146.04 64.9841 146.889 74.1111H153.182C152.325 61.5159 141.841 51.5635 129.032 51.5635C116.222 51.5635 105.738 61.5159 104.881 74.1111H111.159Z" fill="white"/>
<path d="M129.017 93.7221C119.524 93.7221 111.755 86.3411 111.12 77.0078H104.834C105.477 89.8094 116.056 99.9919 129.017 99.9919C141.977 99.9919 152.564 89.8094 153.199 77.0078H146.913C146.286 86.3491 138.517 93.7221 129.017 93.7221Z" fill="white"/>
<path d="M88.7934 77.0078H82.5156V98.4205H88.7934V77.0078Z" fill="white"/>
<path d="M106.977 53.166H64.5879V59.4438H82.5165V74.1105H88.7942V59.4438H106.977V53.166Z" fill="white"/>
<path d="M222.832 77.0078H216.555V98.4205H222.832V77.0078Z" fill="white"/>
<path d="M250.969 92.1507H249.429L242.691 77.0158H235.826L244.493 96.484C245.017 97.6665 246.191 98.4205 247.477 98.4205H250.961H254.445H257.231V77.0078H250.953V92.1507H250.969Z" fill="white"/>
<path d="M257.247 53.166H250.969V74.1105H257.247V53.166Z" fill="white"/>
<path d="M232.936 55.1103C232.412 53.9278 231.237 53.1738 229.951 53.1738H222.825H218.959H216.555V74.1183H222.832V59.4437H228.007L234.539 74.1103H241.404L232.936 55.1103Z" fill="white"/>
<path d="M200.992 74.1105H207.421L212.064 53.166H205.635L200.992 74.1105Z" fill="white"/>
<path d="M169.842 92.4443H168.691L165.27 77.0078H158.842L163.588 98.4205H168.516H170.016H174.937L179.683 77.0078H173.262L169.842 92.4443Z" fill="white"/>
<path d="M196.928 92.4443H195.785L192.364 77.0078H185.936L190.682 98.4205H195.602H197.11H202.031L206.777 77.0078H200.348L196.928 92.4443Z" fill="white"/>
<path d="M187.079 53.166H184.976H180.65H178.547L173.904 74.1105H180.325L182.809 62.92L185.293 74.1105H191.722L187.079 53.166Z" fill="white"/>
<path d="M159.983 53.166H153.555L158.198 74.1105H164.626L159.983 53.166Z" fill="white"/>
<path d="M271.293 73.1739H288.999C290.698 73.1739 292.158 73.5152 293.404 74.1105H302.483C300.015 69.9517 295.555 66.9279 289.087 66.9041H271.293C266.317 66.9041 266.317 59.4438 271.293 59.4438H302.134V53.166H271.293C257.96 53.166 257.96 73.1739 271.293 73.1739Z" fill="white"/>
<path d="M303.826 77.0078H296.795C300.596 82.5475 298.001 92.1427 289.001 92.1427H261.438V98.4205H289.001C302.072 98.4205 307.017 86.23 303.826 77.0078Z" fill="white"/>
<path d="M108.897 27.0568H113.859C114.804 27.0568 115.681 27.7318 115.715 28.643H115.749V24.8968H108.897V18.3494H115.512C116.457 18.3494 117.335 19.0244 117.369 19.9356H117.402V16.1895H103.531V16.2232C104.476 16.2906 105.151 17.2695 105.151 18.1806V35.3255C105.151 36.2367 104.442 37.2492 103.531 37.2829V37.3167H110.517V37.2829C109.572 37.2154 108.864 36.2367 108.864 35.3255L108.897 27.0568Z" fill="white"/>
<path d="M123.231 31.7044C123.231 33.8981 125.054 35.8218 127.315 35.8218C129.576 35.8218 131.433 33.8981 131.433 31.7044V18.2721C131.433 17.3608 130.724 16.3483 129.779 16.3146V16.2808H136.799C135.854 16.3483 135.145 17.3271 135.145 18.2383V31.2994C135.145 35.5181 131.669 37.9481 127.349 37.9481C123.029 37.9481 119.485 35.4844 119.485 31.2994V18.2383C119.485 17.3271 118.776 16.3146 117.865 16.2808V16.2471H124.851V16.2808C123.906 16.3483 123.231 17.3271 123.231 18.2383V31.7044Z" fill="white"/>
<path d="M180.477 19.6414C179.295 17.7515 176.629 17.9877 176.629 17.9877C172.242 17.9877 172.444 21.3289 172.444 21.3289C172.444 21.3289 172.14 23.0164 174.334 24.1301L178.722 26.4589C182.94 28.7201 182.434 31.9262 182.434 31.9262C182.434 31.9262 182.637 37.9337 173.794 37.9337C173.794 37.9337 171.229 38.0012 169.778 37.4612L168.529 33.58H168.563C169.913 35.5037 173.828 35.8075 173.828 35.8075C178.789 35.605 178.823 32.2301 178.823 32.2301C178.823 32.2301 179.059 30.7788 177.102 29.7325L172.748 27.4039C168.192 24.9739 168.732 21.7001 168.732 21.7001C168.732 21.7001 168.597 15.7939 176.427 15.7939C176.427 15.7939 179.937 15.8952 180.51 16.4352V19.6414H180.477Z" fill="white"/>
<path d="M146.315 8.86439C147.091 9.60693 148.171 10.0794 149.353 10.0794C151.749 10.0794 153.672 8.18947 153.672 5.89447C153.672 3.59947 151.749 1.70955 149.353 1.70955C149.353 1.70955 146.045 1.40574 144.526 5.5232V2.41828C145.64 1.00074 147.361 -0.0117188 149.319 -0.0117188C152.694 -0.0117188 155.394 2.62074 155.394 5.89447C155.394 9.1682 152.66 11.8007 149.319 11.8007C147.631 11.8007 146.113 11.1257 145.033 10.0794L142.94 7.78447C142.366 7.24447 141.59 6.8732 140.713 6.8732C138.958 6.8732 137.574 8.25693 137.574 9.94439C137.574 11.6319 138.991 13.0157 140.713 13.0157C140.713 13.0157 143.041 13.3194 144.526 10.5181V13.0157C143.615 14.0619 142.265 14.7706 140.713 14.7706C137.979 14.7706 135.785 12.6107 135.785 9.9782C135.785 7.34566 137.979 5.18574 140.713 5.18574C142.063 5.18574 143.311 5.72574 144.189 6.6032L146.315 8.86439Z" fill="white"/>
<path d="M147.445 18.2065C147.445 17.2953 146.736 16.3503 145.791 16.2828V16.249H152.777V16.2828C151.866 16.3503 151.157 17.2953 151.157 18.2065V35.3851C151.157 36.2963 151.866 37.3088 152.777 37.3425V37.3763H145.791V37.3425C146.736 37.2751 147.445 36.2963 147.445 35.3851V18.2065Z" fill="white"/>
<path d="M143.069 18.2246C143.069 17.3134 143.777 16.3009 144.689 16.2671V16.2334H137.702V16.2671C138.647 16.3347 139.322 17.3134 139.322 18.2246V39.7231C139.322 39.7231 139.255 43.5031 136.184 45.6968V45.7305C136.791 45.6293 143.035 44.4818 143.035 38.4406L143.069 18.2246Z" fill="white"/>
<path d="M152.771 20.0329H152.805C153.75 18.3791 155.201 18.3791 155.201 18.3791H158.981V35.389C158.981 36.3002 158.273 37.3127 157.328 37.3464V37.3802H164.348V37.3464C163.403 37.2789 162.694 36.3002 162.694 35.389V18.3791H165.866C166.845 18.3791 167.588 19.1217 167.621 20.0667H167.655L168.803 16.2529H153.885L152.771 20.0329Z" fill="white"/>
<path d="M187.674 31.7044C187.674 33.8981 189.497 35.8218 191.792 35.8218C194.053 35.8218 195.909 33.8981 195.909 31.7044V18.2721C195.909 17.3608 195.2 16.3483 194.289 16.3146V16.2808H201.275C200.33 16.3483 199.655 17.3271 199.655 18.2383V31.2994C199.655 35.5181 196.179 37.9481 191.825 37.9481C187.505 37.9481 183.996 35.4844 183.996 31.2994V18.2383C183.996 17.3271 183.287 16.3146 182.342 16.2808V16.2471H189.328V16.2808C188.383 16.3483 187.674 17.3271 187.674 18.2383V31.7044Z" fill="white"/>
<path d="M9.30183 80.6904H2.48438V95.365H9.30183V80.6904Z" fill="white"/>
<path d="M56.1593 79.873H49.3418V96.008H56.1593V79.873Z" fill="white"/>
<path d="M44.7693 92.4838L40.0233 98.4203L30.6582 78.4362L37.2296 76.3965L44.7693 92.4838Z" fill="white"/>
<path d="M17.0492 85.7695H5.89844V90.0552H17.0492V85.7695Z" fill="white"/>
<path d="M34.0943 79.1504H29.8086V95.3647H34.0943V79.1504Z" fill="white"/>
<path d="M25.3889 76.3965H0V80.6822H25.3889V76.3965Z" fill="white"/>
<path d="M27.3262 80.6901H35.35L37.2309 76.3965H27.3262V80.6901Z" fill="white"/>
<path d="M58.6434 76.3965H49.3418V80.6822H58.6434V76.3965Z" fill="white"/>
<path d="M11.7937 94.1348H0V98.4205H11.7937V94.1348Z" fill="white"/>
<path d="M58.6433 94.1348H46.8496V98.4205H58.6433V94.1348Z" fill="white"/>
<path d="M36.5881 94.1348H27.3262V98.4205H36.5881V94.1348Z" fill="white"/>
<path d="M25.3906 78.0713H19.8906V84.9999H25.3906V78.0713Z" fill="white"/>
<path d="M48.8011 76.3965L39.5312 95.0949L42.6662 98.4203L53.5868 76.3965H48.8011Z" fill="white"/>
<path d="M42.6663 94.666H40.0234V98.42H42.6663V94.666Z" fill="white"/>
</g>
<defs>
<clipPath id="clip0_4_4729">
<rect width="304.762" height="100" fill="white"/>
</clipPath>
</defs>
</svg>
