<svg width="663" height="100" viewBox="0 0 663 100" fill="none" xmlns="http://www.w3.org/2000/svg">
<path fill-rule="evenodd" clip-rule="evenodd" d="M357.915 3.96795C331.88 9.93143 311.479 32.5364 318.653 47.4698C323.907 58.4054 342.231 58.0249 352.321 46.772C362.809 35.0719 362.151 15.6202 351.266 15.6202C347.387 15.6202 347.39 13.7774 351.271 12.1445C360.293 8.34458 390.255 7.46584 393.663 10.9006C394.857 12.1035 394.273 12.7553 389.652 15.383C379.727 21.0274 363.207 39.0322 359.207 48.5636C357.217 53.3036 355.438 54.1397 344.239 55.5952C341.439 55.9603 337.717 58.629 337.717 60.2738C337.717 62.4562 341.894 62.7769 348.015 61.0655C353.225 59.6067 354.119 60.5144 351.862 64.9695C342.909 82.6382 327.687 93.3571 315.673 90.4513C306.019 88.1188 305.474 83.4111 314.676 81.8447C325.368 80.0241 322.576 65.1658 311.542 65.1658C292.173 65.1658 289.941 88.1239 308.635 95.0736C330.268 103.115 362.098 88.5078 374.416 64.8842C378.34 57.3595 378.716 57.1069 389.603 54.6857C404.169 51.4489 409.804 47.5688 407.989 42.0268C405.867 35.548 409.584 29.6408 417.231 27.3356C420.472 26.3596 419.497 20.2408 415.367 15.6339C411.61 11.4432 411.749 10.9927 416.981 10.3614C418.701 10.155 419.59 9.34617 419.81 7.78492C420.176 5.18965 414.663 4.58051 408.065 6.48814C405.4 7.25767 403.378 7.01709 398.539 5.34834C390.431 2.55514 367.489 1.77366 357.915 3.96795ZM66.9322 7.07169C34.1772 14.233 10.5024 43.6477 28.3241 55.0372C43.2151 64.5549 63.3395 54.2284 65.4846 35.9728C66.7477 25.2334 64.3519 20.5582 57.1613 19.7255C51.0068 19.014 51.0711 17.6575 57.3712 15.2653C64.4772 12.5694 76.4002 13.4703 88.892 17.649C105.727 23.2814 116.439 22.5153 122.229 15.2636C126.65 9.73009 124.019 7.46925 115.745 9.69255C112.123 10.6651 109.26 10.4331 97.0731 8.17566C81.0325 5.20501 76.2681 5.02926 66.9322 7.07169ZM613.352 8.49644C598.926 13.1427 582.121 32.9561 566.862 63.3042C564.067 68.865 563.127 69.9434 561.465 69.5049C559.983 69.1141 558.295 70.242 555.076 73.7757C550.309 79.0089 548.197 78.6881 551.729 73.2655C552.941 71.4022 554.386 69.1499 554.938 68.261C555.49 67.3703 556.898 65.2852 558.068 63.6284C560.515 60.1629 563.896 53.5579 564.9 50.2835C565.586 48.0465 565.547 48.0397 553.239 48.1063C538.37 48.1865 537.018 48.7086 526.806 58.3201C518.739 65.9131 518.732 65.9114 518.036 57.3202C517.486 50.5309 515.319 47.9766 510.102 47.9766C504.303 47.9766 504.464 46.487 511.844 31.8521C518.9 17.8606 518.952 17.6336 515.178 17.4118C506.125 16.8812 501.921 19.7221 496.936 29.7415C495.682 32.2634 492.817 37.5119 490.57 41.4057C476.33 66.0786 470.15 77.1473 469.2 79.6846C468.274 82.1553 467.889 82.3856 466.552 81.2663C465.504 80.391 464.764 80.3057 464.312 81.0104C463.503 82.2696 456.737 83.6619 455.836 82.7542C455.489 82.4027 457.028 78.4612 459.256 73.9924C465.737 61.0041 465.687 51.9591 459.127 50.507C455.797 49.7699 446.678 52.3242 443.883 54.7779C441.631 56.7555 440.275 55.7351 439.481 51.4711C437.743 42.1394 424.259 48.1438 421.591 59.4377C421.146 61.3147 421.273 62.0791 421.957 61.6525C423.403 60.7516 423.271 63.4782 421.796 64.9644C421.134 65.6316 420.932 66.1776 421.347 66.1776C421.764 66.1776 420.006 70.1498 417.445 75.0042C412.682 84.0305 409.433 92.2753 410.296 93.1455C411.124 93.9799 427.014 92.2548 427.014 91.3317C427.014 90.8505 429.046 86.1053 431.528 80.7851C434.012 75.4649 436.044 70.7607 436.044 70.3324C436.044 68.5203 448.794 55.7641 449.91 56.4603C451.837 57.6598 451.366 59.2518 445.576 71.1429C437.132 88.4788 438.17 92.4664 451.121 92.4664C456.74 92.4664 458.433 92.0142 462.49 89.4207L467.258 86.3749L470.5 89.8404C477.538 97.36 497.819 94.531 506.787 84.7796C509.579 81.7424 510.297 82.0171 511.855 86.7264C514.013 93.2513 523.64 95.077 528.586 89.8984L530.79 87.5898L533.034 90.0281C537.602 94.9951 545.548 92.4681 554.687 83.1381C557.86 79.8979 560.474 77.3743 560.498 77.5278C560.52 77.6797 560.633 80.6026 560.748 84.0203C561.214 97.8395 569.82 98.6278 582.42 86.003C591.018 77.3913 591.56 77.335 591.56 85.0526C591.56 98.1501 601.705 97.6433 614.452 83.9094C623.917 73.7143 621.281 67.8924 611.669 77.7616C606.865 82.6945 605.606 82.7866 605.606 78.2121C605.606 72.5796 608.972 68.0067 617.789 61.6576C644.527 42.4038 666.634 12.3083 657.615 7.44366C652.834 4.86375 636.09 9.77445 631.77 15.0213C629.944 17.2378 628.683 16.0928 628.683 12.2247C628.683 6.10422 624.181 5.00878 613.352 8.49644ZM622.379 14.2586C623.478 17.5807 588.001 58.1051 585.409 56.491C582.579 54.7284 606.799 22.1894 615.864 15.5724C619.963 12.5796 621.707 12.2281 622.379 14.2586ZM652.917 15.2209C651.926 20.6776 618.089 58.0983 615.566 56.5268C614.032 55.5713 620.964 43.8371 629.577 32.8094C640.777 18.4731 654.156 8.38895 652.917 15.2209ZM404.025 16.7975C408.214 24.6857 400.346 39.9178 387.935 47.9442C379.295 53.5323 379.019 51.7082 386.215 36.5257C393.782 20.5565 401.489 12.0199 404.025 16.7975ZM162.04 21.4557C160.609 23.5306 156.593 30.2312 153.115 36.3499C131.604 74.1972 132.395 72.4857 132.124 81.8447C131.775 93.8673 135.553 97.2201 144.584 92.9015C149.39 90.6031 151.204 88.1444 151.752 83.1927C152.162 79.4952 152.032 79.0567 150.914 80.3603C150.188 81.21 148.689 81.8925 147.587 81.8772C144.096 81.8311 145.74 77.7189 157.099 58.0881L167.925 39.382L173.558 39.08C180.185 38.7234 182.816 32.8094 176.348 32.8094C172.085 32.8094 172.029 32.1456 175.761 25.7283C180.42 17.7189 180.381 17.6405 171.917 17.6643C164.662 17.6865 164.637 17.6968 162.04 21.4557ZM86.1965 24.6704C82.321 27.0523 73.251 38.9913 68.0886 48.5107C64.0556 55.9467 63.5155 56.3545 52.0599 60.6065C43.6502 63.7274 38.3761 67.041 37.9055 69.4997C37.3535 72.3885 41.0106 71.566 50.4244 66.6844C61.03 61.185 62.371 61.7958 57.4745 69.8888C48.7177 84.3649 35.3116 91.8487 22.5184 89.4036C10.9392 87.1905 9.52543 82.7405 19.674 80.4439C30.2323 78.0534 28.9743 67.9248 17.9453 66.524C2.07572 64.5071 -3.06796 83.005 11.1102 91.098C32.4367 103.272 69.8613 89.6886 80.9834 65.7357C83.4926 60.3284 84.5 59.0999 86.4183 59.0999C90.1449 59.0999 90.0213 60.0315 84.8065 71.2538C79.4359 82.8173 78.7485 87.3015 81.8689 90.4444C84.5661 93.1626 92.136 93.1694 97.1561 90.4581C100.867 88.4532 100.878 88.4532 101.943 90.4581C105.567 97.2867 122.211 89.436 128.767 77.806C134.176 68.2081 130.241 65.6776 123.686 74.5384C117.424 83.0033 119.553 76.3983 127.048 64.1044C135.546 50.1692 136.582 47.3265 132.788 48.3503C131.545 48.6864 128.421 48.9662 125.844 48.9748L121.159 48.9884L114.847 59.6664C108.06 71.1514 100.05 81.8379 98.4242 81.582C95.1142 81.0616 99.3233 69.312 107.35 56.6667C112.12 49.1522 112.054 48.9884 104.311 48.9884C98.0043 48.9884 97.4845 49.1727 94.3404 52.5324C92.5017 54.498 90.7459 55.6242 90.4005 55.0611C90.0568 54.5014 88.9275 54.0442 87.888 54.0442C83.7618 54.0442 85.1587 45.3216 91.4266 31.9477C96.1131 21.9471 94.4335 19.6095 86.1965 24.6704ZM331.092 28.2775C328.595 32.1183 327.919 42.9209 330.176 42.9209C334.392 42.9209 343.493 36.6076 344.636 32.8896C346.894 25.5542 352.778 21.64 351.122 28.5744C348.123 41.1412 335.012 51.9591 327.782 47.835C320.592 43.7347 320.451 38.3616 327.298 29.3251C330.859 24.626 334.037 23.7473 331.092 28.2775ZM56.4197 34.386C51.9008 47.7497 37.9867 56.4893 31.5512 50.0037C27.1576 45.5741 28.1057 38.551 33.9723 32.0825C36.9336 28.8167 37.621 30.0367 36.1158 35.8858C34.9476 40.4228 35.1338 46.9665 36.4308 46.9665C39.3615 46.9665 49.5202 39.4383 50.5818 36.4813C53.8749 27.2998 59.4961 25.2829 56.4197 34.386ZM412.621 32.637C410.328 35.1896 410.433 42.1274 412.795 44.2808C417.951 48.985 426.01 45.2738 426.01 38.1961C426.01 31.3556 417.096 27.6547 412.621 32.637ZM177.926 48.9475C173.238 49.8637 174.151 48.7342 168.143 61.0451C165.343 66.7867 161.879 73.0318 160.446 74.924C159.014 76.818 158.127 78.654 158.474 79.0038C158.823 79.3553 158.735 80.1385 158.281 80.7459C152.99 87.8151 166.171 95.6435 175.331 90.871C178.236 89.3575 178.514 89.39 180.759 91.516C185.721 96.2134 195.511 92.0091 203.973 81.5478C210.041 74.0453 209.875 64.4372 203.794 71.2094C199.429 76.0724 200.897 71.3118 206.836 61.3488C215.143 47.4169 215.151 47.533 206.03 48.4373C202.029 48.8349 198.73 49.2341 198.697 49.3263C197.961 51.4284 183.324 73.9651 180.688 77.0552C171.911 87.3441 174.259 74.7705 184.24 58.0352C190.745 47.1269 190.327 46.5245 177.926 48.9475ZM215.877 54.3752C209.132 61.0399 207.358 65.1658 211.238 65.1658C212.31 65.1658 213.47 64.7033 213.817 64.1386C214.162 63.5738 214.858 63.3673 215.363 63.6813C215.867 63.9952 213.126 70.5952 209.274 78.3468C205.421 86.0985 202.268 92.6746 202.268 92.9595C202.268 93.2445 205.4 93.4782 209.23 93.4782H216.194L222.462 81.2578C231.33 63.9628 240.675 55.3546 241.572 63.6506C242.026 67.8549 246.354 68.4708 248.817 64.6812C252.181 59.506 252.196 63.2991 248.832 68.9264C237.851 87.3066 244.422 98.4162 263.073 93.0022C273.174 90.0691 288.751 71.5678 282.505 69.9212C280.517 69.3974 280.529 69.2984 283.008 65.6179C294.88 47.9868 273.884 41.5814 257.318 57.7826C254.763 60.2824 252.398 61.8794 252.063 61.3334C251.727 60.7874 252.125 59.7773 252.946 59.0897C259.71 53.4333 250.053 48.1728 240.77 52.4556C234.778 55.2198 234.067 55.0901 231.977 50.8432C229.412 45.6304 223.39 46.9511 215.877 54.3752ZM600.071 57.1104C597.882 61.4648 595.55 67.0768 593.19 73.6767C592.662 75.1544 592.218 75.3352 591.326 74.436C589.179 72.2725 586.502 73.2126 581.574 77.8588C576.347 82.7849 574.866 82.5563 575.912 76.9818C576.965 71.3647 580.189 67.4573 590.637 59.134C601.925 50.1402 603.776 49.7426 600.071 57.1104ZM406.245 53.7404C404.006 54.1773 401.164 58.6733 393.511 73.8798C389.691 81.4711 388.602 89.7534 391.095 92.2651C392.759 93.9423 401.595 93.8741 401.595 92.1832C401.595 90.4581 410.217 71.537 415.096 62.5517C417.236 58.6119 418.987 54.8581 418.987 54.2114C418.987 53.0562 411.212 52.7679 406.245 53.7404ZM504.007 58.7245C503.462 63.6096 498.323 72.0353 491.879 78.6147C485.483 85.143 485.273 82 491.31 70.1532C499.585 53.9196 505.101 48.956 504.007 58.7245ZM278.123 56.4807C279.002 58.7876 275.878 63.7154 270.968 67.7713C262.582 74.6954 263.935 67.8719 272.836 58.3406C276.213 54.7233 277.307 54.3393 278.123 56.4807ZM547.022 56.4995C547.964 58.9702 531.104 82.9402 529.241 81.7799C526.263 79.9252 531.024 69.8546 538.966 61.2089C544.843 54.8103 546.1 54.0766 547.022 56.4995ZM273.394 77.1286C268.152 83.2303 260.024 87.0438 258.847 83.952C257.848 81.3277 260.381 78.5004 265.217 76.8419C267.844 75.941 271.115 74.5794 272.488 73.8132C276.449 71.6053 276.857 73.0966 273.394 77.1286Z" fill="white"/>
</svg>
