<svg width="691" height="100" viewBox="0 0 691 100" fill="none" xmlns="http://www.w3.org/2000/svg">
<g clip-path="url(#clip0_4_4771)">
<path d="M63.3729 45.4104H114.507L111.807 59.3953C103.942 60.3672 100.018 61.915 99.0281 67.0986L92.9086 99.0281H74.4601L71.9403 90.0648C63.3729 96.5083 54.9496 100 41.8827 100C17.5666 100 0 88.5349 0 60.0972C0 23.4161 32.8474 0 61.6451 0C70.0684 0 77.5918 1.63787 85.1692 6.11951L87.023 1.45788H98.9561L102.358 32.9194L88.5889 37.689C87.041 28.0238 77.7178 16.4507 64.3629 16.4507C43.8445 16.4507 34.5572 44.4025 34.5572 63.8769C34.5572 73.6501 38.9669 82.7034 49.496 82.7034C58.3513 82.7034 67.7826 75.7379 68.6825 65.8387C68.9885 62.491 67.6926 59.9532 60.6732 59.3953L63.3729 45.4104Z" fill="white"/>
<path d="M481.264 31.9118L498.866 2.82617H582.488L588.211 33.1717L574.28 38.1034C571.005 25.9183 564.831 18.2869 553.96 17.315L543.917 69.7628C543.179 73.5425 542.225 77.2502 542.225 78.7801C542.225 83.4057 546.023 83.6217 553.312 84.4496L550.684 98.1646H492.531L495.159 84.4496C503.798 84.0357 508.927 81.3719 509.827 76.3323L521.149 17.297C511.951 19.2049 502.178 22.4086 492.801 36.6815L481.264 31.9118Z" fill="white"/>
<path d="M576.639 98.1825L579.176 84.4676C587.816 84.0537 591.019 81.3899 591.955 76.3503C594.061 64.9032 600.703 30.616 600.703 30.616C600.703 30.616 602.179 22.3366 602.179 21.7247C602.179 19.9068 601.423 17.117 593.521 16.5411L596.059 2.82617H683.784L690.966 31.9838C690.966 31.9838 681.318 36.8435 678.043 37.9594C672.985 25.0724 662.762 17.819 649.299 17.819C638.428 17.819 636.502 17.297 635.008 25.7023L632.362 39.4892C646.797 39.3453 645.429 39.4712 649.443 26.1703H663.176L654.95 69.2949H641.469C641.613 67.621 641.775 66.1271 641.775 64.4352C641.775 56.1739 641.092 55.6699 629.338 55.382L625.577 75.0724C625.271 76.3323 625.343 77.8802 625.343 79.2661C625.343 83.0458 631.156 83.0638 633.856 83.0638C649.227 83.0638 663.842 76.0443 676.729 59.7916L688.392 65.7491L666.146 98.1646H576.639V98.1825Z" fill="white"/>
<path d="M173.56 27.2498L158.711 52.6818H178.419L173.56 27.2498ZM169.816 84.4672C179.499 84.4672 182.937 83.0633 182.937 79.5716C182.937 77.0518 182.289 72.8942 181.029 66.4147H150.702C146.688 73.1281 143.556 78.7437 143.556 80.4175C143.556 83.4953 144.528 84.4852 153.167 84.4852L150.54 98.2001H108.459L111.087 84.4852C120.464 83.5133 123.614 82.8114 132.235 68.5205L171.688 2.84375H203.311L218.88 76.7638C219.924 81.1015 222.444 83.2073 230.201 84.4672L227.591 98.1821H167.188L169.816 84.4672Z" fill="white"/>
<path d="M430.58 27.2494L415.731 52.6813H435.439L430.58 27.2494ZM426.836 84.4668C436.519 84.4668 439.957 83.0629 439.957 79.5712C439.957 77.0514 439.309 72.8937 438.049 66.4142H407.704C403.69 73.1277 400.558 78.7433 400.558 80.4171C400.558 83.4949 401.53 84.4848 410.169 84.4848L407.542 98.1997H365.461L368.089 84.4848C377.466 83.5129 380.616 82.8109 389.237 68.5201L428.69 2.86133H460.313L475.882 76.7814C476.926 81.1191 479.446 83.2249 487.203 84.4848L484.593 98.1997H424.208L426.836 84.4668Z" fill="white"/>
<path d="M327.393 2.84375L306.659 42.9445L304.211 2.84375H252.483H251.655L249.01 16.6306C255.093 17.8725 257.235 19.1324 257.235 22.1742C257.235 23.4341 256.929 25.252 256.317 27.7718L247.408 74.262C245.554 82.8114 242.314 83.7833 234.755 84.4852L232.127 98.2001H269.96L272.588 84.4852C266.738 83.6393 263.552 82.8654 263.552 79.2116C263.552 77.2498 264.164 73.8481 264.632 71.8862L274.118 22.4442L280.219 98.1821H295.788L332.775 24.514L323.02 75.36C321.472 82.2174 319.222 83.4773 310.583 84.4672L307.955 98.1821H359.719L362.347 84.4672C357.109 83.6213 354.499 82.6494 354.499 79.8416C354.499 78.0237 355.003 75.9179 355.471 73.5421L364.956 24.118C365.73 20.1944 368.142 16.5587 377.069 16.5587L379.697 2.84375H327.393Z" fill="white"/>
</g>
<defs>
<clipPath id="clip0_4_4771">
<rect width="690.965" height="100" fill="white"/>
</clipPath>
</defs>
</svg>
