<svg width="911" height="100" viewBox="0 0 911 100" fill="none" xmlns="http://www.w3.org/2000/svg">
<g clip-path="url(#clip0_4_4779)">
<path d="M77.6172 29.9172C71.3828 20.9759 61.0931 15.1483 49.4552 15.1483C30.4069 15.1483 14.9828 30.7483 14.9828 49.9931C14.9828 69.2345 30.4069 84.8379 49.4552 84.8379C63.2724 84.8379 75.1966 76.6034 80.7 64.731H50.2724V48.8862H98.8655C98.8828 49.2586 98.8931 49.6241 98.8931 49.9931C98.8931 55.1172 98.1379 60.0724 96.7138 64.731C90.4966 85.1448 71.6931 100 49.4552 100C22.1448 100 0 77.6034 0 49.9931C0 22.3793 22.1448 0 49.4552 0C69.6966 0 87.0862 12.3069 94.7414 29.9172H77.6172Z" fill="white"/>
<path d="M151.357 0.990234L88.8711 96.1213H108.216L121.564 75.804H151.357V96.1592H167.475V0.990234H151.357ZM132.261 59.5075L151.357 30.4454V59.5075H132.261Z" fill="white"/>
<path d="M293.677 0.990265L250.583 66.5696V0.990265H234.466L171.977 96.1213H191.342L234.466 30.4454V96.1592H250.583V96.0454L293.677 30.4454V96.1592H309.787V0.986816L293.677 0.990265Z" fill="white"/>
<path d="M371.779 17.2868V0.990234H322.824V96.1833L338.938 96.1213H371.779V79.8247H338.938V57.642H371.779V41.3523H338.938V17.2868H371.779Z" fill="white"/>
<path d="M474.393 64.8499C479.556 53.0948 487.318 35.4258 487.318 35.4258H471.507L463.183 54.3913L450.79 42.8223C456.466 38.212 461.449 32.381 461.449 22.6568C461.449 17.4396 459.404 12.5086 455.728 8.77062C451.518 4.52579 445.597 2.09131 439.456 2.09131C428.818 2.09131 417.804 9.78441 417.804 22.6568C417.804 31.6223 422.69 37.4189 427.542 41.7086C418.559 48.1396 410.738 54.9879 410.738 69.1086C410.738 77.1223 413.607 84.412 418.811 89.6741C424.059 94.9844 431.387 97.912 439.456 97.912C454.735 97.912 462.314 90.4361 468.121 78.8775L486.862 96.3913L496.68 85.6672L474.393 64.8499ZM433.773 18.9361C435.138 17.5534 437.324 16.7051 439.456 16.7051C441.728 16.7051 444.038 17.6223 445.504 19.0982C446.518 20.1189 447.011 21.2775 447.011 22.6568C447.011 26.7603 445.062 28.9948 439.749 32.9672C435.097 29.2051 432.256 26.5844 432.256 22.6568C432.256 21.1948 432.752 19.9706 433.773 18.9361ZM456.697 69.1499C451.711 80.381 448.169 83.2913 439.456 83.2913C435.176 83.2913 431.58 81.9189 429.024 79.3568C426.511 76.8086 425.19 73.2672 425.19 69.1086C425.19 61.4292 429.093 58.3879 438.707 51.6534C438.756 51.6223 438.811 51.581 438.845 51.5499L456.987 68.4879L456.697 69.1499Z" fill="white"/>
<path d="M680.679 3.33398L618.199 98.465H637.541L650.889 78.1547H680.679V98.5133H696.803V3.33398H680.679ZM661.585 61.865L680.679 32.8064V61.865H661.585Z" fill="white"/>
<path d="M548.831 98.5128L591.904 32.9128V98.5128H608.021L670.51 3.37829H651.159L608.021 69.0404V3.33691H591.904V3.46105L548.831 69.0404V3.33691H532.707V98.5128H548.831Z" fill="white"/>
<path d="M894.226 3.33398V41.6512H865.126V3.33398H849.012V98.4961H865.126V57.9581H894.226V98.4961H910.346V3.33398H894.226Z" fill="white"/>
<path d="M755.708 3.33398H703.102V19.6236H721.35V98.4961H737.471V19.6236H755.708V3.33398Z" fill="white"/>
<path d="M826.236 72.8468C820.047 79.8019 811.095 84.164 801.116 84.164C782.436 84.164 767.299 68.864 767.299 49.995C767.299 31.1192 782.436 15.8192 801.116 15.8192C810.936 15.8192 819.788 20.2812 825.954 27.1399H844.836C836.581 11.2709 820.099 0.0605469 801.116 0.0605469C773.836 0.0605469 751.723 22.4192 751.723 49.995C751.723 77.5674 773.836 99.9364 801.116 99.9364C820.233 99.9364 836.809 88.9123 845.019 72.8468H826.236Z" fill="white"/>
</g>
<defs>
<clipPath id="clip0_4_4779">
<rect width="910.345" height="100" fill="white"/>
</clipPath>
</defs>
</svg>
