<svg width="852" height="100" viewBox="0 0 852 100" fill="none" xmlns="http://www.w3.org/2000/svg">
<g clip-path="url(#clip0_4_4844)">
<path d="M320.405 83.2353C313.227 92.832 306.118 95.5588 303.008 97.0297C299.904 98.5049 295.197 99.6601 291.081 99.6601C279.532 99.6601 270.52 95.9555 264.041 88.5715C257.562 81.1567 254.324 70.7637 254.324 57.2794C254.324 41.3435 258.409 27.8256 266.614 16.6685C274.817 5.54634 285.693 0.00341797 299.248 0.00341797C309.531 0.00341797 317.943 2.84473 324.528 8.55947C331.111 14.2463 334.387 23.1851 334.387 35.3452H314.495C314.495 29.5242 313.189 25.4355 310.58 23.0803C307.98 20.7573 304.242 19.5769 299.352 19.5769C291.359 19.5769 285.197 23.4253 280.795 31.0846C276.431 38.776 274.208 47.5052 274.208 57.3129C274.208 64.0027 275.656 69.4772 278.469 73.7014C281.322 77.9662 285.578 80.0783 291.253 80.0783C297.167 80.0783 301.741 78.4132 305.052 75.1207C308.328 71.8673 310.756 67.636 312.306 62.4717H293.784L296.781 44.7324H332.901L329.84 61.9157C329.844 61.9241 327.553 73.6372 320.405 83.2353Z" fill="white"/>
<path d="M492.149 2.46452L475.99 97.3424H458.598L472.294 23.8092L442.084 97.3424H427.828L421.245 23.8428L410.851 97.3424H393.254L409.339 2.46452H434.025L439.553 69.2702L467.296 2.28711L492.149 2.46452Z" fill="white"/>
<path d="M510.562 39.1935H538.978L536.014 57.5949H507.603L503.945 77.797H536.014L532.853 97.3425H482.293L498.275 2.35986H548.232L545.175 22.0395H513.732L510.562 39.1935Z" fill="white"/>
<path d="M359.139 2.28711L320.27 97.3424H339.212L346.146 78.8013H370.933L372.551 97.3424H390.894L379.909 2.2913H359.139V2.28711ZM352.167 62.586L366.252 24.7787L369.524 62.586H352.167Z" fill="white"/>
<path d="M646.35 83.2353C639.169 92.832 632.067 95.5588 628.958 97.0297C625.849 98.5049 621.143 99.6601 617.027 99.6601C605.482 99.6601 596.466 95.9555 589.991 88.5757C583.507 81.1567 580.27 70.7637 580.27 57.2836C580.27 41.3435 584.354 27.8298 592.56 16.6727C600.761 5.55053 611.639 0.00341797 625.198 0.00341797C635.477 0.00341797 643.892 2.84892 650.474 8.56366C657.061 14.2505 660.332 23.1893 660.332 35.3493H640.444C640.444 29.5284 639.143 25.4397 636.534 23.0845C633.93 20.7614 630.195 19.5853 625.301 19.5853C617.309 19.5853 611.146 23.4295 606.749 31.0888C602.38 38.7801 600.162 47.5094 600.162 57.3171C600.162 64.0069 601.605 69.4814 604.418 73.7056C607.276 77.9704 611.532 80.0825 617.203 80.0825C623.121 80.0825 627.694 78.4216 631.006 75.1249C634.282 71.8715 636.71 67.6444 638.26 62.4773H619.738L622.731 44.7366H658.855L655.789 61.9241C655.789 61.9241 653.498 73.6372 646.35 83.2353Z" fill="white"/>
<path d="M683.466 39.227H711.842L708.921 57.5949H680.507L676.815 77.797H708.921L705.753 97.3718H655.191L671.179 2.35986H721.14L718.077 22.0395H686.63L683.466 39.227Z" fill="white"/>
<path d="M746.271 2.32617L707.402 97.3759H726.383L733.279 78.8347H758.1L759.72 97.3759H778.028L767.042 2.32617H746.271ZM739.334 62.5817L753.385 24.7787L756.695 62.5817H739.334Z" fill="white"/>
<path d="M807.395 44.112L811.622 20.7236H821.759C825.489 20.7236 828.274 21.3815 830.14 22.7002C832.004 24.0496 832.919 26.7177 832.919 30.738C832.919 35.2444 831.408 38.5691 828.414 40.786C825.382 43.0084 821.549 44.112 816.903 44.112H807.395ZM795.952 2.35986L779.969 97.3718H798.449L804.65 61.1612H813.203L827.497 97.3718H848.692L832.847 57.2792C838.375 54.5106 843.13 49.8994 846.44 45.0856C849.888 40.1294 851.614 34.342 851.614 27.7249C851.614 18.7512 849.571 12.303 845.451 8.31907C841.37 4.33649 835.554 2.35986 828.093 2.35986H795.952Z" fill="white"/>
<path d="M15.4315 38.8569C31.7385 11.9357 54.1927 -4.86905 65.5801 1.26757C76.9421 7.43072 72.9381 34.2457 56.5956 61.1488C40.2872 88.0741 17.8373 104.875 6.47537 98.7367C-4.91211 92.5792 -0.881146 65.7558 15.4315 38.8569Z" fill="white"/>
<path d="M88.3915 38.8569C104.704 11.9357 127.154 -4.86905 138.537 1.26757C149.899 7.43072 145.895 34.2457 129.557 61.1488C113.244 88.0741 90.7945 104.875 79.4368 98.7367C68.0493 92.5792 72.0788 65.7558 88.3915 38.8569Z" fill="white"/>
<path d="M161.358 38.8569C177.667 11.9315 200.121 -4.86909 211.504 1.26333C222.866 7.42648 218.861 34.2457 202.522 61.1487C186.211 88.0741 163.765 104.875 152.403 98.7325C141.012 92.5791 145.046 65.7557 161.358 38.8569Z" fill="white"/>
</g>
<defs>
<clipPath id="clip0_4_4844">
<rect width="851.613" height="100" fill="white"/>
</clipPath>
</defs>
</svg>
