<svg width="357" height="100" viewBox="0 0 357 100" fill="none" xmlns="http://www.w3.org/2000/svg">
<g clip-path="url(#clip0_4_4790)">
<mask id="mask0_4_4790" style="mask-type:luminance" maskUnits="userSpaceOnUse" x="296" y="37" width="61" height="49">
<path d="M296.133 37.8398H356.513V85.1648H296.133V37.8398ZM339.452 42.0772H300.37V80.9275H308.659V48.6697H322.169V80.9275H330.458V48.6697H337.301C340.973 48.6697 343.968 51.6739 343.968 55.3364V80.9275H352.257V54.9006C352.276 47.8167 346.536 42.0772 339.452 42.0772Z" fill="white"/>
</mask>
<g mask="url(#mask0_4_4790)">
<path d="M340.214 82.4386V55.3361C340.214 53.7321 338.916 52.434 337.312 52.434H334.243V82.4293C334.243 83.6811 333.232 84.6917 331.98 84.6917H320.668C319.416 84.6917 318.406 83.6811 318.406 82.4293V52.4432H312.434V82.4386C312.434 83.6903 311.424 84.701 310.172 84.701H298.86C297.608 84.701 296.598 83.6903 296.598 82.4386V40.5656C296.598 39.3139 297.608 38.3032 298.86 38.3032H339.453C348.614 38.3032 356.051 45.7302 356.051 54.9003V82.4386C356.051 83.6903 355.04 84.701 353.788 84.701H342.476C341.224 84.701 340.214 83.6903 340.214 82.4386Z" fill="white"/>
</g>
<mask id="mask1_4_4790" style="mask-type:luminance" maskUnits="userSpaceOnUse" x="187" y="70" width="25" height="19">
<path d="M210.93 70.9966C209.827 69.0866 203.874 71.6086 197.541 76.4208C191.208 81.2331 186.461 86.5182 188.278 88.1223C190.532 90.1065 196.345 87.3063 202.372 82.763C207.592 78.8223 211.755 72.4245 210.93 70.9966ZM201.306 81.7616C196.086 85.7115 190.634 88.0295 189.326 87.0374C187.694 85.795 192.228 81.2238 197.717 77.0421C203.207 72.8696 208.343 70.2734 209.141 71.7106C209.734 72.7954 205.84 78.3402 201.306 81.7616Z" fill="white"/>
</mask>
<g mask="url(#mask1_4_4790)">
<path d="M203.966 87.2877C205.255 86.4996 206.349 85.4147 207.137 84.1259C207.146 84.1073 207.156 84.0888 207.165 84.0703C207.36 83.755 207.536 83.4212 207.694 83.0781C211.634 79.2024 216.428 72.99 214.193 69.105C213.266 67.5009 211.541 66.5737 209.474 66.5737C206.85 66.5737 203.595 68.048 200.749 69.7077C200.239 69.615 199.719 69.5594 199.191 69.5501C199.126 69.5501 199.061 69.5408 198.996 69.5408C198.672 69.5408 198.356 69.5594 198.041 69.5872C197.939 69.5964 197.847 69.615 197.754 69.6335C197.541 69.6614 197.327 69.6892 197.114 69.7355C196.993 69.7633 196.873 69.7912 196.752 69.8282C196.576 69.8746 196.4 69.9117 196.224 69.9673C196.085 70.0044 195.955 70.0601 195.825 70.1064C195.668 70.162 195.519 70.2084 195.371 70.2733C195.232 70.3289 195.093 70.3939 194.954 70.4588C194.824 70.5237 194.685 70.5793 194.555 70.6535C194.407 70.7276 194.267 70.8111 194.128 70.8945C194.017 70.9594 193.897 71.0336 193.785 71.1078C193.637 71.2005 193.498 71.3025 193.359 71.4045C193.257 71.4787 193.164 71.5436 193.071 71.627C192.923 71.7383 192.784 71.8589 192.654 71.9887C192.571 72.0628 192.496 72.1277 192.413 72.2112C192.274 72.3503 192.135 72.4894 192.005 72.6284C191.94 72.7026 191.875 72.7675 191.81 72.8417C191.671 72.9993 191.541 73.1569 191.412 73.3238C191.365 73.3888 191.31 73.4537 191.263 73.5186C191.133 73.6947 191.013 73.8802 190.892 74.0656C190.855 74.1212 190.818 74.1862 190.781 74.2418C190.661 74.4458 190.549 74.6405 190.447 74.8537C190.42 74.9001 190.401 74.9557 190.373 75.0114C190.271 75.2339 190.169 75.4564 190.076 75.6882C190.058 75.7346 190.049 75.7717 190.03 75.8181C189.937 76.0591 189.854 76.3095 189.789 76.5598C189.78 76.5876 189.77 76.6247 189.761 76.6525C189.687 76.9214 189.631 77.1811 189.576 77.4592C189.576 77.4778 189.566 77.4963 189.566 77.5056C189.52 77.793 189.474 78.0805 189.455 78.3772C186.525 81.2515 184.207 84.3391 184.105 87.0188C184.05 88.5765 184.634 89.9766 185.765 90.978C186.59 91.7012 188.037 92.5728 190.271 92.5728C190.939 92.5728 191.653 92.4894 192.413 92.3317C192.83 92.4337 193.266 92.4894 193.72 92.4894C195.714 92.4894 197.466 91.4509 198.477 89.8839C199.182 89.4945 199.914 89.0401 200.665 88.5672C201.824 88.3633 202.918 87.946 203.892 87.3526C203.92 87.3155 203.948 87.3062 203.966 87.2877Z" fill="white"/>
</g>
<mask id="mask2_4_4790" style="mask-type:luminance" maskUnits="userSpaceOnUse" x="90" y="37" width="62" height="49">
<path d="M90.8203 37.8398H151.2V85.1648H90.8203V37.8398ZM134.149 42.0772H130.765H125.164H116.875H113.175H103.366H95.0762V80.9275H103.366V48.6697H113.175H116.875V80.9275H125.164V48.6697H130.765H132.007C135.679 48.6697 138.674 51.6739 138.674 55.3364V80.9275H146.963V54.9006C146.972 47.8167 141.233 42.0772 134.149 42.0772Z" fill="white"/>
</mask>
<g mask="url(#mask2_4_4790)">
<path d="M134.901 82.4386V55.3361C134.901 53.7321 133.603 52.434 131.999 52.434H128.93V82.4293C128.93 83.6811 127.919 84.6917 126.668 84.6917H115.356C114.104 84.6917 113.093 83.6811 113.093 82.4293V52.4432H107.122V82.4386C107.122 83.6903 106.111 84.701 104.86 84.701H93.5476C92.2958 84.701 91.2852 83.6903 91.2852 82.4386V40.5656C91.2852 39.3139 92.2958 38.3032 93.5476 38.3032H134.141C143.302 38.3032 150.738 45.7302 150.738 54.9003V82.4386C150.738 83.6903 149.727 84.701 148.476 84.701H137.164C135.921 84.701 134.901 83.6903 134.901 82.4386Z" fill="white"/>
</g>
<mask id="mask3_4_4790" style="mask-type:luminance" maskUnits="userSpaceOnUse" x="45" y="37" width="45" height="49">
<path d="M45.2344 37.8398H89.5294V85.1648H45.2344V37.8398ZM70.2062 58.2107H60.8414C54.5641 58.2107 49.483 63.3011 49.483 69.5691C49.483 75.8463 54.5734 80.9275 60.8414 80.9275H77.012H85.3013V74.335V64.7939V58.2015V54.8913C85.3013 47.8074 79.5618 42.0679 72.4779 42.0679H51.4951V48.6604H70.336C74.0078 48.6604 77.0027 51.6646 77.0027 55.3271V58.1922H70.2062M77.0027 74.335V64.7939H62.4825C59.8771 64.7939 57.7723 66.8987 57.7723 69.5042V69.6247C57.7723 72.2209 59.8771 74.335 62.4825 74.335H77.0027Z" fill="white"/>
</mask>
<g mask="url(#mask3_4_4790)">
<path d="M60.8333 84.701C52.5719 84.701 45.8403 78.0529 45.7012 69.8285C45.5621 61.363 52.7666 54.4367 61.232 54.4367H73.0818C72.7017 53.2777 71.6076 52.4432 70.328 52.4432H49.9849C48.7332 52.4432 47.7225 51.4326 47.7225 50.1808V40.5656C47.7225 39.3139 48.7332 38.3032 49.9849 38.3032H72.4699C81.6307 38.3032 89.067 45.7302 89.067 54.9003V82.4386C89.067 83.6903 88.0563 84.701 86.8046 84.701H60.8333ZM62.4838 68.5675C61.9645 68.5675 61.5473 68.9847 61.5473 69.504V69.6245C61.5473 70.1437 61.9645 70.561 62.4838 70.561H73.2302V68.5675H62.4838Z" fill="white"/>
</g>
<mask id="mask4_4_4790" style="mask-type:luminance" maskUnits="userSpaceOnUse" x="-1" y="37" width="47" height="64">
<path d="M-0.464844 37.8398H45.423V100.473H-0.464844V37.8398ZM19.6279 42.0772C9.2709 42.0772 3.77252 51.3586 3.77252 61.5023C3.77252 71.6461 9.2709 80.9275 19.6279 80.9275H32.887V82.9673C32.887 86.6391 29.8829 89.634 26.2204 89.634H7.37938V96.2265H28.3622C35.4461 96.2265 41.1856 90.487 41.1856 83.4031V80.9182V74.3257V48.6697V42.0772H32.8963H19.6279ZM32.887 74.335V48.6697C29.0206 48.6697 24.8017 48.6697 22.6042 48.6697C21.0002 48.6697 13.0817 49.4578 13.0817 61.5023C13.0817 73.5468 21.0094 74.335 22.6042 74.335C24.8017 74.335 29.0206 74.335 32.887 74.335Z" fill="white"/>
</mask>
<g mask="url(#mask4_4_4790)">
<path d="M3.60686 97.7469V88.1317C3.60686 86.88 4.61752 85.8693 5.86926 85.8693H26.2216C27.1674 85.8693 28.0111 85.4057 28.5396 84.701H19.6198C8.06676 84.701 0 75.16 0 61.5021C0 47.8442 8.06676 38.3032 19.6291 38.3032H42.6982C43.9499 38.3032 44.9606 39.3139 44.9606 40.5656V83.4122C44.9606 92.573 37.5336 100.009 28.3635 100.009H5.86926C4.6268 100 3.60686 98.9894 3.60686 97.7469ZM22.6055 52.4432C21.261 52.4432 16.8567 53.0923 16.8567 61.5021C16.8567 69.9119 21.2517 70.561 22.6055 70.561H29.1145V52.4432H22.6055Z" fill="white"/>
</g>
<mask id="mask5_4_4790" style="mask-type:luminance" maskUnits="userSpaceOnUse" x="150" y="37" width="41" height="49">
<path d="M150.969 37.8398H190.913V85.1648H150.969V37.8398ZM174.047 48.6697C178.73 48.6697 186.685 48.6697 186.685 48.6697V42.0772H171.071C160.714 42.0772 155.215 51.3586 155.215 61.5023C155.215 71.6461 160.714 80.9275 171.071 80.9275H186.685V74.335C186.685 74.335 178.73 74.335 174.047 74.335C172.61 74.335 166.055 73.6859 164.756 64.7939H186.685V58.2015H164.756C166.055 49.3095 172.61 48.6697 174.047 48.6697Z" fill="white"/>
</mask>
<g mask="url(#mask5_4_4790)">
<path d="M171.063 84.701C159.51 84.701 151.434 75.16 151.434 61.5021C151.434 47.8442 159.51 38.3032 171.063 38.3032H188.188C189.44 38.3032 190.451 39.3139 190.451 40.5656V50.1716C190.451 51.4233 189.44 52.434 188.188 52.434H174.039C173.325 52.434 171.517 52.6287 170.126 54.4275H188.188C189.44 54.4275 190.451 55.4381 190.451 56.6899V66.2958C190.451 67.5475 189.44 68.5582 188.188 68.5582H170.126C171.526 70.357 173.325 70.5517 174.039 70.5517H188.188C189.44 70.5517 190.451 71.5624 190.451 72.8141V82.4201C190.451 83.6718 189.44 84.6825 188.188 84.6825H171.063V84.701Z" fill="white"/>
</g>
<mask id="mask6_4_4790" style="mask-type:luminance" maskUnits="userSpaceOnUse" x="208" y="37" width="41" height="49">
<path d="M208.344 37.8398H248.288V85.1648H208.344V37.8398ZM221.89 61.5023C221.89 49.4578 229.809 48.6697 231.413 48.6697C236.095 48.6697 244.051 48.6697 244.051 48.6697V42.0772H228.436C218.079 42.0772 212.581 51.3586 212.581 61.5023C212.581 71.6461 218.079 80.9275 228.436 80.9275H244.051V74.335C244.051 74.335 236.095 74.335 231.413 74.335C229.818 74.335 221.89 73.5468 221.89 61.5023Z" fill="white"/>
</mask>
<g mask="url(#mask6_4_4790)">
<path d="M228.438 84.701C216.885 84.701 208.809 75.16 208.809 61.5021C208.809 47.8442 216.875 38.3032 228.438 38.3032H245.563C246.815 38.3032 247.826 39.3139 247.826 40.5656V50.1716C247.826 51.4233 246.815 52.434 245.563 52.434H231.414C230.07 52.434 225.665 53.083 225.665 61.4928C225.665 69.9027 230.06 70.5517 231.414 70.5517H245.563C246.815 70.5517 247.826 71.5624 247.826 72.8141V82.4201C247.826 83.6718 246.815 84.6825 245.563 84.6825H228.438V84.701Z" fill="white"/>
</g>
<mask id="mask7_4_4790" style="mask-type:luminance" maskUnits="userSpaceOnUse" x="247" y="37" width="50" height="50">
<path d="M247.129 37.5244H296.438V86.8336H247.129V37.5244ZM271.784 41.7711C259.303 41.7711 251.366 49.0682 251.366 62.1883C251.366 75.3084 259.303 82.6055 271.784 82.6055C284.264 82.6055 292.201 75.3084 292.201 62.1883C292.201 49.0682 284.264 41.7711 271.784 41.7711ZM271.784 76.3469C279.591 76.3469 283.364 71.071 283.374 62.1883C283.374 53.3056 279.591 48.0297 271.784 48.0297C263.976 48.0297 260.193 53.3056 260.193 62.1883C260.193 71.071 263.976 76.3469 271.784 76.3469Z" fill="white"/>
</mask>
<g mask="url(#mask7_4_4790)">
<path d="M271.785 86.3698C256.866 86.3698 247.594 77.0977 247.594 62.1788C247.594 47.2599 256.866 37.9878 271.785 37.9878C286.704 37.9878 295.976 47.2599 295.976 62.1788C295.976 77.0977 286.704 86.3698 271.785 86.3698ZM271.785 51.794C269.643 51.794 263.968 51.794 263.968 62.1788C263.968 72.5636 269.643 72.5636 271.785 72.5636C273.927 72.5636 279.601 72.5636 279.601 62.1788C279.592 51.794 273.917 51.794 271.785 51.794Z" fill="white"/>
</g>
<path d="M198.998 84.9237C202.199 84.9237 204.793 82.3291 204.793 79.1286C204.793 75.928 202.199 73.3335 198.998 73.3335C195.798 73.3335 193.203 75.928 193.203 79.1286C193.203 82.3291 195.798 84.9237 198.998 84.9237Z" fill="white"/>
<path d="M203.279 75.2158C204.216 76.245 204.791 77.6173 204.791 79.1194C204.791 82.3183 202.195 84.9145 198.996 84.9145C196.845 84.9145 194.962 83.7462 193.961 82.003" fill="white"/>
<path d="M193.722 88.6878C194.762 88.6878 195.604 87.8451 195.604 86.8056C195.604 85.766 194.762 84.9233 193.722 84.9233C192.683 84.9233 191.84 85.766 191.84 86.8056C191.84 87.8451 192.683 88.6878 193.722 88.6878Z" fill="white"/>
<path d="M149.513 0H141.836V26.6852H149.513V0Z" fill="white"/>
<path d="M120.75 6.54613H126.36V6.62958V26.5276V26.6852H134.037V26.5276V6.62958V6.54613H139.647V0H120.75V6.54613Z" fill="white"/>
<path d="M163.001 0C155.352 0 151.281 6.67594 151.281 13.3426C151.281 20.0093 155.352 26.6852 163.001 26.6852H176.798V26.5183V20.1391V16.6064V10.0603H163.261V16.6064H169.121V20.1391H165.208C156.14 20.1391 156.14 6.53686 165.208 6.53686H176.798V0H163.001Z" fill="white"/>
<path d="M261.288 11.21C259.165 10.0788 256.597 11.6922 256.597 14.1029C256.597 14.2698 256.597 14.4367 256.597 14.6036C256.597 15.5587 257.07 16.4024 257.784 17.0329C258.841 17.9694 258.442 20.1484 256.597 20.1484H221.752V17.5985C221.752 16.5415 221.149 15.6328 220.269 15.1785C222.206 13.6022 223.421 10.9597 223.421 8.31711C223.421 4.16319 220.454 0.00927734 216.337 0.00927734H204.089H200.25V18.0899H207.927V6.54613H213.676C214.631 6.54613 215.484 7.26009 215.54 8.21512C215.595 9.23505 214.779 10.0788 213.778 10.0788H210.041V16.6249H212.202C213.231 16.6249 214.075 17.4594 214.075 18.4979V26.7038H221.752H256.597C262.132 26.7038 265.85 22.5498 265.85 18.3959C265.85 15.5587 264.135 12.7306 261.288 11.21Z" fill="white"/>
<path d="M137.124 7.05615C135.733 7.05615 134.602 8.18735 134.602 9.57817C134.602 10.969 135.733 12.1002 137.124 12.1002C138.514 12.1002 139.646 10.969 139.646 9.57817C139.646 8.18735 138.514 7.05615 137.124 7.05615Z" fill="white"/>
<path d="M123.272 7.05615C121.881 7.05615 120.75 8.18735 120.75 9.57817C120.75 10.969 121.881 12.1002 123.272 12.1002C124.663 12.1002 125.794 10.969 125.794 9.57817C125.794 8.18735 124.663 7.05615 123.272 7.05615Z" fill="white"/>
<path d="M187.306 18.3774C187.306 17.4038 188.094 16.6157 189.067 16.6157H198.84V10.0695H189.067C188.094 10.0695 187.306 9.28141 187.306 8.30783C187.306 7.33426 188.094 6.54613 189.067 6.54613H198.84V0H186.592H185.331C181.529 0 178.441 3.08762 178.441 6.8892V7.87204C178.441 10.8948 180.815 13.3519 181.557 13.3519C180.815 13.3519 178.441 15.7997 178.441 18.8317V19.8146C178.441 23.6161 181.529 26.7038 185.331 26.7038H186.592H207.927V20.1576H189.058C188.094 20.1484 187.306 19.3602 187.306 18.3774Z" fill="white"/>
</g>
<defs>
<clipPath id="clip0_4_4790">
<rect width="356.05" height="100" fill="white"/>
</clipPath>
</defs>
</svg>
