<svg width="574" height="100" viewBox="0 0 574 100" fill="none" xmlns="http://www.w3.org/2000/svg">
<g clip-path="url(#clip0_4_4857)">
<path d="M548.973 0.929688H573.896L538.759 55.7075L533.06 98.4454H510.537L517.137 49.6815L494.613 0.929688H518.939L530.955 28.6229L548.973 0.929688Z" fill="white"/>
<path d="M286.508 59.9206H316.229L319.235 38.2513H289.808L291.913 22.5979H326.139L329.449 0.929688H272.69L259.176 98.4454H315.631L318.638 76.766H284.402L286.508 59.9206Z" fill="white"/>
<path d="M113.526 50.2817L121.033 30.12L123.438 50.2817H113.526ZM105.418 69.5436H125.838L129.445 98.436H166.381L183.499 45.467L191.91 98.436H211.43L233.052 42.4581L236.657 98.436H258.278L252.271 0.925332H226.444L206.319 52.3868L198.509 0.925332H175.387L148.961 80.9798L139.049 0.925332H110.219L78.0849 81.8807L82.2899 50.2807H43.2448L40.5399 69.5426H57.6598L56.4572 76.1631C53.4538 77.9669 46.5479 78.2692 43.8451 78.2692C41.1422 78.2692 21.0229 76.4644 21.9228 54.7941C22.8157 33.1269 51.6458 12.9631 85.8805 24.098L89.1867 3.33168C66.3615 -4.49198 6.41552 -0.113492 0.292153 53.592C-3.3106 85.192 25.5195 100.241 44.7379 99.9415C55.8499 100.544 68.464 96.3289 72.9677 93.9205L71.4675 98.436H94.2917L105.404 69.5436H105.418Z" fill="white"/>
<path d="M470.288 0.0277552C454.67 -0.574845 432.147 8.45401 424.64 44.8717C417.132 81.2854 437.252 96.0329 455.871 98.4403C474.493 100.848 500.619 89.1111 505.424 54.1999C510.232 19.2876 493.105 0.931655 470.288 0.0277552ZM467.889 20.7941C474.194 20.7941 487.707 25.0083 484.403 50.286C481.101 75.5668 465.486 78.5768 459.778 77.9742C454.072 77.3716 442.36 73.4618 445.664 50.286C448.974 27.1143 461.284 20.4928 467.894 20.7941H467.889Z" fill="white"/>
<path d="M375.388 38.2512H388.002C397.312 38.2512 399.114 32.2313 399.411 29.826C399.712 27.4166 397.011 22.6009 392.207 22.6009H377.491L375.396 38.2512H375.388ZM369.982 76.772H387.102C396.41 76.772 398.511 69.5499 398.81 67.1415C399.113 64.7342 396.41 59.9205 391.605 59.9205H372.386L369.987 76.772H369.982ZM344.766 98.4422L358.28 0.932617H399.721C409.634 0.932617 424.047 12.3698 422.247 27.7179C420.446 43.0669 415.639 43.9698 412.335 46.3772C417.442 50.8886 422.547 58.1127 420.446 71.656C418.342 85.2013 407.23 98.4412 387.71 98.4412L344.769 98.4422H344.766Z" fill="white"/>
</g>
<defs>
<clipPath id="clip0_4_4857">
<rect width="573.913" height="100" fill="white"/>
</clipPath>
</defs>
</svg>
