<svg width="362" height="100" viewBox="0 0 362 100" fill="none" xmlns="http://www.w3.org/2000/svg">
<g clip-path="url(#clip0_4_4864)">
<path d="M345.937 0.580566H361.642L339.501 34.8496L335.91 61.5843H321.717L325.877 31.0788L311.684 0.580566H327.011L334.584 17.9052L345.937 0.580566Z" fill="white"/>
<path d="M180.55 37.4833H199.279L201.173 23.9283H182.63L183.958 14.1356H205.525L207.61 0.580566H171.844L163.328 61.5843H198.903L200.796 48.0232H179.224L180.55 37.4833Z" fill="white"/>
<path d="M71.5473 31.4552L76.2788 18.8416L77.7941 31.4552H71.5473ZM66.4385 43.5051H79.3046L81.5781 61.5793H104.852L115.64 28.4424L120.939 61.5793H133.241L146.866 26.5607L149.137 61.5793H162.76L158.976 0.577949H142.701L130.02 32.7721L125.1 0.577949H110.529L93.8752 50.6592L87.6308 0.577949H69.4642L49.2146 51.2217L51.8642 31.4552H27.2603L25.5558 43.5027H36.3436L35.5854 47.6452C33.694 48.7738 29.3422 48.9633 27.6389 48.9633C25.9367 48.9633 13.2575 47.8347 13.8241 34.2773C14.3882 20.7234 32.5536 8.10866 54.1269 15.0745L56.21 2.08313C41.8274 -2.81021 4.05364 -0.0708984 0.193687 33.5241C-2.07503 53.2941 16.0928 62.7078 28.2018 62.5219C35.2033 62.8985 43.1534 60.2624 45.9899 58.7548L45.0448 61.5793H59.4274L66.4288 43.5051H66.4385Z" fill="white"/>
<path d="M296.358 0.0169458C286.518 -0.360849 272.324 5.28808 267.594 28.0697C262.864 50.849 275.541 60.0756 287.275 61.5831C299.008 63.0883 315.472 55.7459 318.498 33.907C321.53 12.0656 310.736 0.581839 296.358 0.0169458ZM294.848 13.0083C298.821 13.0083 307.335 15.6445 305.253 31.4567C303.173 47.2725 293.332 49.1555 289.738 48.7801C286.139 48.4011 278.76 45.9556 280.842 31.4567C282.928 16.9626 290.685 12.8188 294.851 13.0083H294.848Z" fill="white"/>
<path d="M236.555 23.9281H244.504C250.369 23.9281 251.506 20.1621 251.692 18.6569C251.882 17.1506 250.179 14.1378 247.154 14.1378H237.881L236.56 23.9281H236.555ZM233.148 48.0266H243.936C249.801 48.0266 251.126 43.5087 251.315 42.0011C251.504 40.4959 249.801 37.4831 246.774 37.4831H234.664L233.151 48.0266H233.148ZM217.258 61.5828L225.775 0.581543H251.888C258.134 0.581543 267.217 7.73806 266.082 17.3377C264.947 26.9408 261.918 27.5069 259.837 29.0121C263.055 31.8342 266.27 36.3521 264.947 44.8255C263.621 53.3001 256.619 61.5828 244.321 61.5828H217.259H217.258Z" fill="white"/>
<path d="M74.6123 68.2632H66.5838L47.6602 99.9608H70.1894V92.9338H61.0072L70.1894 76.5483L83.5003 99.9992H93.7602V99.9248H109.782C123.649 99.9248 130.602 94.5985 130.602 84.0586C130.602 82.2452 130.378 80.5445 129.894 78.9542L142.682 99.926H148.817L167.219 68.3028H157.478L145.989 89.0119L133.87 68.3004H123.387L126.286 73.0342C122.905 69.8535 118.034 68.3004 111.677 68.3004H90.5982V94.5961L74.6123 68.2632ZM99.6694 75.4365H111.753C118.034 75.4365 121.231 78.1746 121.231 83.6472C121.231 86.9407 120.229 89.3453 118.331 90.6011C116.509 91.8964 113.053 92.5248 108.22 92.5248H99.7068V75.4365H99.6694Z" fill="white"/>
<path d="M180.788 68.2632H172.721L153.871 99.9596H163.39V99.8852H176.4V92.8211H167.294L176.328 76.5111L189.637 99.9596H200.007V99.8852H205.287V80.764L229.34 99.8852H235.585V68.2632H227.257V87.1613L202.981 68.2632H196.772V94.5601L180.788 68.2632Z" fill="white"/>
<path d="M240.345 70.0361C239.043 71.1851 238.375 73.2552 238.375 76.2152V91.8967C238.375 94.9298 239.043 97.0011 240.307 98.1477C241.535 99.2954 243.763 99.8867 247.038 99.8867H265.736C268.971 99.8867 271.312 99.2954 272.54 98.1477C273.765 97.0023 274.473 94.9298 274.473 91.8967V87.495L265.291 87.3487V92.2301H247.52V75.6239H265.291V79.9511H274.473V76.2152C274.473 73.1089 273.767 71.0364 272.54 70.0361C271.312 68.8164 269.157 68.2251 265.736 68.2251H247.038C243.802 68.2635 241.571 68.8188 240.345 70.0361Z" fill="white"/>
<path d="M286.702 79.988V75.4365H311.497V68.2632H277.52V99.8852H311.906V92.562H286.702V86.9406H301.237V79.988H286.702Z" fill="white"/>
</g>
<defs>
<clipPath id="clip0_4_4864">
<rect width="361.644" height="100" fill="white"/>
</clipPath>
</defs>
</svg>
