<svg width="362" height="100" viewBox="0 0 362 100" fill="none" xmlns="http://www.w3.org/2000/svg">
<g clip-path="url(#clip0_4_4875)">
<path d="M174.069 81.026C173.488 79.2718 171.95 77.6003 171.95 77.6003C171.95 77.6003 169.641 74.6195 165.104 73.6003C161.218 72.7922 158.167 74.496 158.167 74.496C158.167 74.496 155.396 75.6003 153.313 77.8845C149.995 81.0596 149.041 85.6962 149.041 85.6962C149.041 85.6962 147.769 89.7322 149.783 92.93L151.971 95.5631C155.061 98.1266 158.361 98.3868 158.361 98.3868C158.361 98.3868 161.025 98.9852 164.134 98.1794C166.852 97.6326 168.829 96.2981 168.829 96.2981C168.829 96.2981 173.329 93.8233 174.564 88.7694L174.069 81.026ZM167.059 89.4336C167.059 89.4336 165.26 92.5595 161.308 92.189C156.665 91.7166 156.119 87.6615 156.119 87.6615C156.119 87.6615 155.483 84.6771 158.342 82.0775C161.238 79.6579 164.256 80.0248 164.256 80.0248C164.256 80.0248 166.284 80.2166 167.328 83.5535C168.668 87.8017 167.059 89.4336 167.059 89.4336Z" fill="white"/>
<path d="M189.067 89.4864C187.582 89.1614 185.201 89.7669 185.201 89.7669C185.201 89.7669 181.885 90.978 181.373 90.96C181.177 90.6806 180.757 85.2897 180.877 83.1315C180.949 79.3221 180.629 76.2142 180.629 76.2142C180.629 76.2142 180.471 72.544 178.494 70.3689C176.165 68.0332 174.54 69.0356 173.606 69.5943C171.363 71.5979 172.406 74.0356 172.406 74.0356L173.571 77.3209C173.571 77.3209 174.135 78.725 174.066 81.0235L174.559 88.7669C174.559 89.8029 175.407 96.7729 175.407 96.7729C175.407 96.7729 175.493 99.0379 177.683 99.4408C179.926 99.8101 182.131 98.7021 183.066 98.2621C184.002 97.8256 185.237 97.4396 185.237 97.4396C185.237 97.4396 186.261 97.2105 187.284 97.1242C189.686 96.894 190.549 96.4755 190.549 96.4755C190.549 96.4755 191.477 96.3352 192.104 95.4552C192.728 94.5763 193.483 90.454 189.067 89.4864Z" fill="white"/>
<path d="M149.781 92.9264C148.202 92.4576 146.394 92.7705 146.394 92.7705C146.394 92.7705 141.274 93.2609 138.609 92.6998C134.48 91.9804 134.618 87.5559 134.618 87.5559C134.618 87.5559 134.48 84.6219 136.967 80.6555C140.039 75.7574 143.428 74.8797 143.428 74.8797C143.428 74.8797 144.272 74.5644 145.068 74.9852C145.562 77.8269 148.331 77.8089 148.331 77.8089C148.331 77.8089 152.324 78.0751 152.126 73.2646C151.668 69.3138 147.839 68.7718 146.232 68.4013C141.417 67.5404 138.288 70.1051 138.288 70.1051C138.288 70.1051 135.06 71.8413 131.195 77.8977C128.562 81.6543 128.245 84.6063 128.245 84.6063C128.245 84.6063 127.93 85.3065 128.051 88.4336C127.983 90.8725 128.901 92.6458 128.901 92.6458C128.901 92.6458 130.295 96.8449 134.708 98.5643C137.39 99.6698 141.308 99.653 141.308 99.653C141.308 99.653 145.103 99.599 148.014 99.442C149.604 99.5643 150.362 98.7381 150.362 98.7381C150.362 98.7381 152.143 97.5799 151.968 95.5607C151.968 95.5607 151.623 93.4756 149.781 92.9264Z" fill="white"/>
<path d="M213.901 80.0945C210.815 75.0754 205.377 74.32 205.377 74.32C205.377 74.32 203.647 73.7384 199.941 74.2288C192.988 75.5478 190.569 80.8667 190.569 80.8667C190.569 80.8667 188.08 84.7636 189.068 89.4866L192.107 95.4554C194.348 97.5453 195.265 97.5453 195.405 97.67C198.372 99.0033 201.812 98.2312 201.812 98.2312C201.812 98.2312 206.157 97.8091 210.128 94.736C213.303 92.4194 214.681 89.0142 214.681 89.0142L215.102 84.4434L213.901 80.0945ZM205.449 90.3451C200.455 93.3319 197.31 90.0657 197.31 90.0657C197.31 90.0657 195.916 89.152 195.615 86.3787C195.402 83.1665 198.618 81.4986 198.618 81.4986C198.618 81.4986 200.312 80.4614 202.43 80.6209C204.546 80.778 205.215 80.6389 206.931 81.9039C208.552 83.3595 208.446 84.429 208.446 84.429C208.446 84.429 209.03 88.0477 205.449 90.3451Z" fill="white"/>
<path d="M214.68 89.014C214.68 89.014 214.786 91.8221 214.345 92.508C213.745 93.7885 213.834 95.0332 213.834 95.0332C213.834 95.0332 213.425 98.8269 217.842 99.4564C220.874 99.4408 221.245 96.9288 221.298 95.8581C221.473 95.0164 221.404 91.1015 221.404 91.1015L225.342 94.2957C225.342 94.2957 228.2 96.683 229.879 98.0691C231.626 99.4384 232.066 99.6854 232.066 99.6854C232.066 99.6854 232.437 100.123 233.778 99.9648C234.856 99.984 235.845 99.0164 235.845 99.0164C235.845 99.0164 237.095 98.1063 237.413 96.5068C237.8 94.6111 236.319 93.6806 236.319 93.6806C236.319 93.6806 230.849 89.291 227.144 86.2718C229.629 84.9193 230.83 83.9912 230.83 83.9912C230.83 83.9912 234.292 81.7083 235.031 78.2143C236.057 74.3677 233.143 72.8594 233.143 72.8594C233.143 72.8594 231.324 71.5608 229.791 70.8749C225.924 68.9973 222.324 69.3821 222.324 69.3821C222.324 69.3821 217.206 69.032 213.871 73.1243C212.334 75.1064 213.289 77.7059 213.289 77.7059C213.289 77.7059 213.478 78.1219 213.906 80.0919C214.761 84.0596 214.68 89.014 214.68 89.014ZM221.388 81.2178L221.052 76.6363C221.052 76.6363 224.282 76.5656 225.624 76.7946C228.272 77.1963 228.129 77.9361 228.129 77.9361C228.129 77.9361 228.041 78.8665 226.03 79.779C223.843 80.8318 221.388 81.2178 221.388 81.2178Z" fill="white"/>
<path d="M345.937 0.580078H361.642L339.501 34.8402L335.91 61.5679H321.717L325.877 31.0704L311.684 0.580078H327.011L334.584 17.9002L345.937 0.580078Z" fill="white"/>
<path d="M180.55 37.4732H199.279L201.173 23.9217H182.63L183.958 14.1316H205.525L207.61 0.580078H171.844L163.328 61.5679H198.903L200.796 48.0104H179.224L180.55 37.4732Z" fill="white"/>
<path d="M71.5473 31.4471L76.2788 18.8368L77.7941 31.4471H71.5473ZM66.4385 43.4938H79.3046L81.5781 61.5633H104.852L115.64 28.4351L120.939 61.5633H133.241L146.866 26.5538L149.137 61.5633H162.76L158.976 0.577851H142.701L130.02 32.7636L125.1 0.577851H110.529L93.8752 50.646L87.6308 0.577851H69.4642L49.2146 51.2084L51.8642 31.4471H27.2603L25.5558 43.4914H36.3436L35.5854 47.6329C33.694 48.7612 29.3422 48.9506 27.6389 48.9506C25.9367 48.9506 13.2575 47.8223 13.8241 34.2684C14.3882 20.7181 32.5536 8.10661 54.1269 15.0706L56.21 2.08264C41.8274 -2.80943 4.05364 -0.0708281 0.193687 33.5154C-2.07503 53.2803 16.0928 62.6916 28.2018 62.5057C35.2033 62.8822 43.1534 60.2467 45.9899 58.7395L45.0448 61.5633H59.4274L66.4288 43.4938H66.4385Z" fill="white"/>
<path d="M296.358 0.0169412C286.518 -0.360755 272.324 5.28671 267.594 28.0624C262.864 50.8357 275.541 60.0599 287.275 61.5671C299.008 63.0719 315.472 55.7314 318.498 33.8981C321.53 12.0625 310.736 0.581688 296.358 0.0169412ZM294.848 13.0049C298.821 13.0049 307.335 15.6404 305.253 31.4485C303.173 47.2602 293.332 49.1427 289.738 48.7674C286.139 48.3885 278.76 45.9437 280.842 31.4485C282.928 16.9581 290.685 12.8155 294.851 13.0049H294.848Z" fill="white"/>
<path d="M236.555 23.922H244.504C250.369 23.922 251.506 20.157 251.692 18.6522C251.882 17.1462 250.179 14.1343 247.154 14.1343H237.881L236.56 23.922H236.555ZM233.148 48.0142H243.936C249.801 48.0142 251.126 43.4975 251.315 41.9903C251.504 40.4855 249.801 37.4735 246.774 37.4735H234.664L233.151 48.0142H233.148ZM217.258 61.567L225.775 0.581543H251.888C258.134 0.581543 267.217 7.7362 266.082 17.3333C264.947 26.934 261.918 27.4999 259.837 29.0047C263.055 31.8261 266.27 36.3428 264.947 44.814C263.621 53.2864 256.619 61.567 244.321 61.567H217.259H217.258Z" fill="white"/>
</g>
<defs>
<clipPath id="clip0_4_4875">
<rect width="361.644" height="100" fill="white"/>
</clipPath>
</defs>
</svg>
