<svg width="472" height="100" viewBox="0 0 472 100" fill="none" xmlns="http://www.w3.org/2000/svg">
<g clip-path="url(#clip0_4_4887)">
<path d="M56.7875 50.8179V61.2661H13.6357V87.95H45.0786V80.5554H26.95V69.3839H57.5893C57.5893 69.3839 57.5893 81.5661 57.5893 89.7589C57.4571 93.1732 50.6464 100.002 46.8411 100.002C39.7821 100.002 20.7 100.002 11.7321 100.002C6.78571 100.002 0 93.2054 0 89.775C0 79.3482 0 69.1875 0 60.3C0 54.5607 3.73571 50.8179 8.60357 50.8179C16.6625 50.8179 56.7875 50.8179 56.7875 50.8179Z" fill="white"/>
<path d="M90.2215 87.6677V99.2409H54.668L83.543 50.2373H94.9733L117.113 87.6659V50.2373H129.684L149.475 83.8087L169.207 50.2373H181.659V99.2409H169.207L169.147 74.3462L154.709 99.2409H144.122L129.743 74.2837L129.684 99.2409H108.45L88.8376 65.6659L75.843 87.6659L90.2215 87.6677Z" fill="white"/>
<path d="M186.289 50.2373V99.2409H236.459V87.6659H199.884V79.2266H221.06V68.4998H199.884V60.7837H236.459V50.2373H186.289Z" fill="white"/>
<path d="M286.589 69.5032H299.1V58.8943C299.1 58.8943 300.462 50.1782 291.4 50.1782C291.4 50.1782 262.284 50.1782 251.941 50.1782C248.052 50.1782 246.207 52.0264 246.207 54.9979C246.207 60.0211 246.207 79.0693 246.207 89.7157C246.207 94.5818 250.859 99.2407 253.827 99.2407C262.489 99.2407 292.448 99.2407 292.448 99.2407C292.448 99.2407 299.173 100.162 299.173 92.6086C299.173 85.0532 299.173 78.1836 299.173 78.1836H286.632V87.7461H258.718V61.7479H285.63V69.5014L286.589 69.5032Z" fill="white"/>
<path d="M303.953 50.1748H317.428V87.7873H345.312V50.1748H358.801V90.7105C358.801 90.7105 359.66 99.3891 347.267 99.3891C334.875 99.3891 314.544 99.3891 314.544 99.3891C314.544 99.3891 303.955 100.355 303.955 90.7105C303.953 83.9909 303.953 50.1748 303.953 50.1748Z" fill="white"/>
<path d="M416.545 79.0693V91.6747C416.545 96.1372 413.274 99.4175 403.061 99.4175C394.004 99.4175 363.609 99.4175 363.609 99.4175V50.1782C363.609 50.1782 403.543 50.1782 409.827 50.1782C414.083 50.1782 416.549 52.6461 416.549 56.9282C416.549 60.4086 416.549 69.0104 416.549 70.4104C416.549 71.48 415.093 73.3229 411.754 73.3229C411.775 73.5514 411.754 73.3229 411.754 74.2586C413.995 74.2586 416.545 76.8139 416.545 79.0693ZM404.034 86.8354C404.034 85.6961 404.034 82.6782 404.034 81.0764C404.034 79.4854 403.659 79.1086 403.07 79.1086C401.865 79.1086 377.102 79.1086 377.102 79.1086V87.7889C377.102 87.7889 395.765 87.7889 402.127 87.7889C403.513 87.7889 404.034 87.2675 404.034 86.8354ZM404.034 67.5461C404.034 66.4068 404.034 63.3889 404.034 61.7872C404.034 60.1979 403.659 59.8229 403.07 59.8229C401.865 59.8229 377.102 59.8229 377.102 59.8229V68.4997C377.102 68.4997 395.765 68.4997 402.127 68.4997C403.513 68.4997 404.034 67.9782 404.034 67.5461Z" fill="white"/>
<path d="M421.32 99.4172H471.429V87.7279H433.833V79.169H455.008V68.5011H433.833V60.785H470.467V50.1172H421.32V99.4172Z" fill="white"/>
<path d="M184.148 0.514648V6.30036H195.697V37.1004H203.477V6.30036H214.947V0.514648H184.148Z" fill="white"/>
<path d="M10.3945 0.0283203V36.614H17.1302V9.73189L31.5677 36.614H39.2088V0.0283203H31.5088V22.0872L19.9588 0.0283203H10.3945Z" fill="white"/>
<path d="M125.879 0.0283203V36.614H132.616V9.73189L147.054 36.614H154.695V0.0283203H146.995V22.0872L135.447 0.0283203H125.879Z" fill="white"/>
<path d="M86.3988 0.0283203H78.7148V36.614H86.3988V0.0283203Z" fill="white"/>
<path d="M252.943 13.5087V14.4926H274.116V20.2801H252.943C252.943 20.2801 252.943 25.9319 252.943 27.9962C252.943 28.8247 254.975 30.8587 255.8 30.8587C258.234 30.8587 274.116 30.8587 274.116 30.8587V36.6962C274.116 36.6962 258.555 36.6962 252.943 36.6962C248.982 36.6962 246.184 33.2855 246.184 29.9247C246.184 29.123 246.184 12.5658 246.184 6.76046C246.184 2.55153 248.7 0.0283203 252.901 0.0283203H274.116V5.81403C274.116 5.81403 261.321 5.81403 256.791 5.81403C254.946 5.81403 252.943 7.82296 252.943 8.76761" fill="white"/>
<path d="M400.264 6.78011V29.9819C400.264 31.7372 395.318 36.6944 392.45 36.6944C386.671 36.6944 371.332 36.6944 371.332 36.6944V0.0283203C371.332 0.0283203 386.309 0.0283203 390.523 0.0283203C396.489 0.0283203 400.264 3.80868 400.264 6.78011ZM393.448 28.014C393.448 25.5069 393.448 14.0997 393.448 8.76582C393.448 8.09082 391.178 5.81403 389.591 5.81403C386.671 5.81403 378.068 5.81403 378.068 5.81403V31.8533C378.068 31.8533 386.298 31.8533 389.618 31.8533C390.802 31.8533 393.448 29.1997 393.448 28.014Z" fill="white"/>
<path d="M462.787 8.70731C462.787 11.3912 462.787 22.6341 462.787 27.9395C462.787 33.4823 458.628 37.6412 452.256 37.6412C452.228 37.6412 452.21 37.6412 452.179 37.6412C446.703 37.6412 448.272 37.6412 442.576 37.6412H442.497C436.338 37.6412 432.258 33.7734 431.978 28.518C431.969 28.3252 431.969 28.1323 431.969 27.9395C431.969 24.2734 431.969 12.3377 431.969 8.7091C431.969 8.04303 431.969 7.6591 431.969 7.6591C431.969 3.97517 435.933 0.00195391 440.603 0.00195391C444.056 0.00195391 454.076 0.00195391 454.076 0.00195391C459.726 0.000168192 462.787 3.05731 462.787 8.70731ZM455.038 27.0609C455.038 26.1537 455.038 11.3037 455.038 9.67338C455.038 8.25553 452.574 5.78588 451.188 5.78588C449.803 5.78588 443.547 5.78588 443.547 5.78588C441.565 5.78588 439.638 7.71624 439.638 9.51803C439.638 10.6966 439.638 25.218 439.638 27.0609C439.638 29.8073 440.688 30.8609 442.554 30.8609C444.269 30.8609 448.965 30.8609 451.247 30.8609C453.115 30.8609 455.038 28.9305 455.038 27.0609Z" fill="white"/>
<path d="M306.352 0.514648V37.1004H313.087V10.22L327.525 37.1004H335.164V0.514648H327.466V22.5736L315.916 0.514648H306.352Z" fill="white"/>
</g>
<defs>
<clipPath id="clip0_4_4887">
<rect width="471.429" height="100" fill="white"/>
</clipPath>
</defs>
</svg>
