<svg width="420" height="100" viewBox="0 0 420 100" fill="none" xmlns="http://www.w3.org/2000/svg">
<g clip-path="url(#clip0_4_4903)">
<path fill-rule="evenodd" clip-rule="evenodd" d="M6.18729 48.5143L29.7016 34.9H145.416L166.332 4.94922H250.614L271.776 34.9H389.225L412.86 48.6397V80.5651L387.86 95.0461H31.1857L6.18729 80.5651V48.5143ZM389.346 100.002L419.048 82.7969V46.4095L390.586 29.9508H274.249L253.333 0H163.857L142.817 29.9508H28.3413L0 46.2857V82.7969L29.827 100.002H389.346Z" fill="white"/>
<path fill-rule="evenodd" clip-rule="evenodd" d="M192.957 27.6301C192.957 29.1983 194.235 30.4411 195.768 30.4253H207.249V26.9285H196.467V25.9491H204.963V22.4697H192.974L192.957 27.6301Z" fill="white"/>
<path fill-rule="evenodd" clip-rule="evenodd" d="M192.974 16.1052C192.974 14.6592 194.219 13.3179 195.768 13.3242H207.249V16.8036H196.467V17.783H204.963V21.31H192.957L192.974 16.1052Z" fill="white"/>
<path fill-rule="evenodd" clip-rule="evenodd" d="M269.672 60.8904H306.058V75.3697L293.064 84.157H252.902L266.207 75.2443H289.72V69.7999H253.334V55.6269L266.766 46.5332H306.863L293.618 55.4411H269.672V60.8904Z" fill="white"/>
<path fill-rule="evenodd" clip-rule="evenodd" d="M311.133 46.5332H327.468V84.157H311.133V46.5332Z" fill="white"/>
<path fill-rule="evenodd" clip-rule="evenodd" d="M350.118 60.8904H386.503V75.3697L373.505 84.157H333.348L346.652 75.2443H370.167V69.7999H333.781V55.6269L347.208 46.5332H387.308L374.064 55.4411H350.118V60.8904Z" fill="white"/>
<path fill-rule="evenodd" clip-rule="evenodd" d="M217.942 75.2443V69.7999H233.594L246.899 60.8904H217.942V55.4411H241.515L254.759 46.5332H215.837L201.605 55.2602V84.157H241.209L254.574 75.2443H217.942Z" fill="white"/>
<path fill-rule="evenodd" clip-rule="evenodd" d="M103.589 75.2443V69.7999H119.244L132.548 60.8904H103.589V55.4411H127.163L140.406 46.5332H101.483L87.2539 55.2602V84.157H126.856L140.222 75.2443H103.589Z" fill="white"/>
<path fill-rule="evenodd" clip-rule="evenodd" d="M180.69 71.657L160.393 59.0316V84.157H144.055V46.5332H160.639L180.69 57.5475V46.5332H197.026V84.157H180.69V71.657Z" fill="white"/>
<path fill-rule="evenodd" clip-rule="evenodd" d="M46.4091 55.4411V75.2443H66.7044V69.7999H50.1218L63.3647 60.8904H83.0425V75.7427L70.5409 84.157H30.0742V55.6935L43.625 46.5332H87.9314L74.7504 55.4411H46.4091Z" fill="white"/>
<path fill-rule="evenodd" clip-rule="evenodd" d="M195.358 8.6337C191.461 8.6337 188.301 11.794 188.301 15.6892V28.04C188.301 31.9368 191.461 35.0956 195.358 35.0956H207.252V31.6178H195.653C193.607 31.6178 191.793 29.6781 191.793 27.6337V16.0924C191.793 14.0464 193.607 12.1559 195.653 12.1559H207.252V8.62891H195.358V8.6337Z" fill="white"/>
<path fill-rule="evenodd" clip-rule="evenodd" d="M217.874 27.0243V16.8036H229.215V13.3242H217.238C215.688 13.3179 214.444 14.6592 214.444 16.1052L214.43 27.6306C214.43 29.1988 215.704 30.4417 217.238 30.4258H224.544L224.525 22.4084H219.028V25.856H221.06V27.0227H217.874V27.0243Z" fill="white"/>
<path fill-rule="evenodd" clip-rule="evenodd" d="M184.935 8.59961H173.541C168.741 8.59961 164.848 12.4917 164.848 17.2917C164.848 22.0933 168.741 25.8917 173.541 25.8504H177.013V27.0235H164.924V30.4266H176.619C178.817 30.4266 180.602 28.6425 180.602 26.4473C180.602 24.2488 178.817 22.4964 176.619 22.4964L173.589 22.4838C170.737 22.4838 168.424 20.1711 168.424 17.3203C168.424 14.4679 170.735 12.1552 173.589 12.1552H184.943L184.935 8.59961Z" fill="white"/>
<path fill-rule="evenodd" clip-rule="evenodd" d="M184.937 16.7099H173.094V17.8766L176.646 17.883C181.45 17.883 185.34 21.6814 185.34 26.4814C185.34 31.283 181.45 35.0909 176.646 35.0909L164.926 35.0671V31.6084H176.621C179.473 31.6084 181.786 29.2972 181.786 26.4448C181.786 23.5941 179.473 21.3115 176.621 21.3115L173.591 21.3004C171.392 21.3004 169.608 19.5163 169.608 17.3179C169.608 15.1194 171.392 13.3369 173.591 13.3369H184.945L184.937 16.7099Z" fill="white"/>
<path fill-rule="evenodd" clip-rule="evenodd" d="M242.465 12.7285C242.324 12.3968 242.275 12.3174 241.894 12.3174C241.511 12.3174 241.419 12.5158 241.273 12.8476L234.051 35.0952L237.851 35.0999L241.937 22.7666L243.281 26.9317H240.584V30.4412H248.259L242.465 12.7285Z" fill="white"/>
<path fill-rule="evenodd" clip-rule="evenodd" d="M216.828 35.0989C212.931 35.0989 209.77 31.9386 209.77 28.0434V15.6926C209.77 11.7957 212.931 8.63699 216.828 8.63699H229.216V12.164H217.127C215.077 12.164 213.263 14.0544 213.263 16.1005V27.6402C213.263 29.6862 215.076 31.6243 217.127 31.6243H225.69V21.2497H219.031V17.7862H229.23V34.2862L236.495 11.8052C237.276 9.57827 239.397 7.98145 241.893 7.98145C244.439 7.98145 246.601 9.64809 247.336 11.9528L254.881 35.1005H240.584V31.6227H249.871L243.574 12.3163C243.206 11.2544 242.549 11.1291 241.893 11.1291C241.208 11.1291 240.574 11.41 240.217 12.3799L232.825 35.1005H216.828V35.0989Z" fill="white"/>
</g>
<defs>
<clipPath id="clip0_4_4903">
<rect width="419.048" height="100" fill="white"/>
</clipPath>
</defs>
</svg>
