<svg width="538" height="100" viewBox="0 0 538 100" fill="none" xmlns="http://www.w3.org/2000/svg">
<g clip-path="url(#clip0_4_4921)">
<path d="M56.9336 74.1835V59.2324L25.2693 59.2324L25.2693 74.1835H56.9336Z" fill="white"/>
<path d="M108.853 55.7061H93.9023V99.0767H108.853V55.7061Z" fill="white"/>
<path d="M108.853 55.706C103.874 55.706 98.8815 55.706 93.9024 55.706C93.9024 49.2025 84.1542 49.2025 84.1542 55.706C79.1752 55.706 74.1821 55.706 69.2031 55.706C69.1891 29.2725 108.853 29.2725 108.853 55.706Z" fill="white"/>
<path d="M84.1385 55.7061H69.1875V99.0767H84.1385V55.7061Z" fill="white"/>
<path d="M107.527 81.6591V66.708H71.1497V81.6591H107.527Z" fill="white"/>
<path d="M433.174 45.791H418.223V99.0777H433.174V45.791Z" fill="white"/>
<path d="M442.805 50.8368V35.8857L408.595 35.8857V50.8368L442.805 50.8368Z" fill="white"/>
<path d="M353.006 55.7061H338.055V99.0767H353.006V55.7061Z" fill="white"/>
<path d="M353.006 55.706C348.027 55.706 343.034 55.706 338.055 55.706C338.055 49.2025 328.307 49.2025 328.307 55.706C323.327 55.706 318.334 55.706 313.355 55.706C313.355 29.2725 353.006 29.2725 353.006 55.706Z" fill="white"/>
<path d="M328.307 55.7061H313.355V99.0767H328.307V55.7061Z" fill="white"/>
<path d="M351.688 81.6649V66.7139H315.31V81.6649H351.688Z" fill="white"/>
<path d="M155.943 55.0625H140.992V99.0765H155.943V55.0625Z" fill="white"/>
<path d="M131.244 55.0625H116.293V99.0765H131.244V55.0625Z" fill="white"/>
<path d="M148.475 55.706C143.496 55.706 145.985 55.706 140.992 55.706C140.992 49.2025 131.244 49.2025 131.244 55.706C126.265 55.706 121.272 55.706 116.293 55.706C116.293 29.2725 148.475 29.2725 148.475 55.706Z" fill="white"/>
<path d="M180.658 55.706C175.679 55.706 170.686 55.706 165.707 55.706C165.707 49.2025 155.959 49.2025 155.959 55.706C150.98 55.706 153.47 55.706 148.477 55.706C148.477 29.2725 180.658 29.2725 180.658 55.706Z" fill="white"/>
<path d="M180.658 55.0625H165.707V99.0765H180.658V55.0625Z" fill="white"/>
<path d="M281.205 55.0625H266.254V99.0765H281.205V55.0625Z" fill="white"/>
<path d="M256.49 55.0625H241.539V99.0765H256.49V55.0625Z" fill="white"/>
<path d="M273.737 55.706C268.757 55.706 271.247 55.706 266.254 55.706C266.254 49.2025 256.506 49.2025 256.506 55.706C251.527 55.706 246.534 55.706 241.555 55.706C241.541 29.2725 273.737 29.2725 273.737 55.706Z" fill="white"/>
<path d="M305.916 55.706C300.937 55.706 295.944 55.706 290.965 55.706C290.965 49.2025 281.217 49.2025 281.217 55.706C276.238 55.706 278.727 55.706 273.734 55.706C273.734 29.2725 305.916 29.2725 305.916 55.706Z" fill="white"/>
<path d="M305.904 55.0625H290.953V99.0765H305.904V55.0625Z" fill="white"/>
<path d="M219.449 74.9598V60.0088L192.484 60.0088V74.9598H219.449Z" fill="white"/>
<path d="M219.453 50.8368V35.8857L192.488 35.8857V50.8368L219.453 50.8368Z" fill="white"/>
<path d="M203.049 84.1258V35.874H188.098V87.0209C188.098 93.6782 193.496 99.0768 200.154 99.0768H219.454V84.1258H203.049Z" fill="white"/>
<path d="M479.836 74.9501V59.999L452.871 59.999V74.9501H479.836Z" fill="white"/>
<path d="M479.84 50.827V35.876L452.875 35.876V50.827L479.84 50.827Z" fill="white"/>
<path d="M463.439 84.1258V35.874H448.488V87.0209C448.488 93.6782 453.887 99.0768 460.544 99.0768H479.845V84.1258H463.439Z" fill="white"/>
<path d="M502.24 57.7627H487.289V99.0774H502.24V57.7627Z" fill="white"/>
<path d="M517.147 71.5524L513.987 74.7272L502.238 65.5244L506.588 82.1258L524.462 99.9999L535.035 89.4265L517.147 71.5524Z" fill="white"/>
<path d="M512.169 32.8672C498.42 32.8672 487.273 44.014 487.273 57.7623C487.273 67.9721 493.427 76.7413 502.224 80.5735V65.5245L506.532 81.9861C508.35 82.4057 510.224 82.6434 512.155 82.6434C525.903 82.6434 537.05 71.4966 537.05 57.7483C537.064 44.014 525.917 32.8672 512.169 32.8672ZM512.169 67.7063C506.686 67.7063 502.224 63.2588 502.224 57.7623C502.224 52.2798 506.672 47.8182 512.169 47.8182C517.665 47.8182 522.113 52.2658 522.113 57.7623C522.113 63.2588 517.665 67.7063 512.169 67.7063Z" fill="white"/>
<path d="M402.907 35.8877H394.11C385.369 35.8877 377.9 42.2094 376.474 50.8387L371.872 78.573C371.341 81.7758 368.572 84.1394 365.313 84.1394H358.684V99.0905H368.474C377.215 99.0905 384.684 92.7688 386.11 84.1394L390.712 56.4052C391.243 53.2024 394.012 50.8387 397.271 50.8387H402.907V35.8877Z" fill="white"/>
<path d="M53.1608 59.2304L47.4545 64.9367C47.4825 65.3004 47.5105 65.65 47.5105 66.0137C47.5105 75.0067 40.2238 82.2934 31.2308 82.2934C22.2378 82.2934 14.951 75.0067 14.951 66.0137C14.951 57.0207 22.2378 49.7479 31.2308 49.7479C36.5035 49.7479 41.1608 52.2654 44.1399 56.1395L54.7692 45.5102C49.049 38.9507 40.6294 34.7969 31.2308 34.7969C13.986 34.7969 0 48.7689 0 66.0276C0 83.2864 13.986 97.2584 31.2308 97.2584C48.4755 97.2584 62.4615 83.2724 62.4615 66.0276C62.4615 63.692 62.2098 61.4262 61.7203 59.2444H53.1608V59.2304Z" fill="white"/>
<path d="M181.512 0.489258H189.078V8.47527H195.987V0.489258H203.554V23.1046H195.987V14.9928H189.078V23.1046H181.512V0.489258Z" fill="white"/>
<path d="M215.05 0.321289H222.547L232.085 23.1045H223.875L222.673 20.0695H214.756L213.596 23.1045H205.512L215.05 0.321289ZM220.798 14.6989L218.729 9.20241L216.659 14.6989H220.798Z" fill="white"/>
<path d="M234.041 0.489258H245.09C249.09 0.489258 251.65 1.49625 253.23 3.07667C254.587 4.43331 255.3 6.11164 255.3 8.43331V8.50324C255.3 11.8039 253.594 14.0976 250.839 15.4123L256.111 23.1046H247.482L243.216 16.6431H243.146H241.594V23.1046H234.027V0.489258H234.041ZM244.867 11.2445C246.671 11.2445 247.776 10.4333 247.776 9.0487V8.97877C247.776 7.52422 246.643 6.81094 244.894 6.81094H241.594V11.2305H244.867V11.2445Z" fill="white"/>
<path d="M263.958 6.88087H257.301V0.489258H278.182V6.88087H271.525V23.1046H263.958V6.88087Z" fill="white"/>
<path d="M280.727 12.9508V0.489258H288.419V12.8669C288.419 15.6781 289.873 16.8669 291.901 16.8669C293.929 16.8669 295.384 15.762 295.384 13.0207V0.489258H303.076V12.7969C303.076 20.5172 298.587 23.5522 291.831 23.5522C285.09 23.5522 280.727 20.4473 280.727 12.9508Z" fill="white"/>
<path d="M306.506 0.489258H313.583L321.625 10.4753V0.489258H329.122V23.1046H322.394L313.989 12.6711V23.1046H306.492V0.489258H306.506Z" fill="white"/>
<path d="M332.227 11.8601V11.7902C332.227 5.03497 337.555 0 344.702 0C348.576 0 351.709 1.28671 354.171 3.42657L349.933 8.53147C348.45 7.27273 346.8 6.55944 344.926 6.55944C341.989 6.55944 339.849 8.82517 339.849 11.8881V11.958C339.849 15.1608 342.073 17.3566 345.248 17.3566C346.534 17.3566 347.248 17.1608 347.835 16.8392V14.5734H343.961V9.72028H354.912V20.1818C352.45 22.1818 349.038 23.5804 344.926 23.5804C337.877 23.5944 332.227 18.8671 332.227 11.8601Z" fill="white"/>
</g>
<defs>
<clipPath id="clip0_4_4921">
<rect width="537.063" height="100" fill="white"/>
</clipPath>
</defs>
</svg>
