<svg width="412" height="100" viewBox="0 0 412 100" fill="none" xmlns="http://www.w3.org/2000/svg">
<g clip-path="url(#clip0_4_4975)">
<path d="M211.927 1.07158V98.9284H1.07158V1.07158H211.927ZM212.998 0H0V100H212.998V0Z" fill="white"/>
<path d="M355.851 14.6807C353.89 14.6807 352.293 21.0351 352.293 28.8791V71.0994C352.293 78.9327 353.89 85.2979 355.851 85.2979C357.812 85.2979 359.408 78.9434 359.408 71.0994V28.8791C359.408 21.0459 357.812 14.6807 355.851 14.6807Z" fill="white"/>
<path d="M326.929 14.6807C324.968 14.6807 323.371 21.0351 323.371 28.8791V71.0994C323.371 78.9327 324.968 85.2979 326.929 85.2979C328.89 85.2979 330.486 78.9434 330.486 71.0994V28.8791C330.486 21.0459 328.89 14.6807 326.929 14.6807Z" fill="white"/>
<path d="M213 0V100H411.382V0H213ZM250.484 87.5161H249.745L247.151 79.0613H247.119C245.587 84.5371 244.376 87.8375 241.386 87.8375C234.614 87.8375 229.127 70.9066 229.127 50C229.127 29.0934 234.614 12.1625 241.386 12.1625C243.315 12.1625 244.933 13.4162 246.208 15.838L248.577 12.4518H249.316V35.5122C249.316 35.5122 248.898 35.5122 248.694 35.5122C248.652 35.5122 248.63 35.5122 248.609 35.5122C248.577 35.5122 248.566 35.5122 248.566 35.5122C246.851 24.8928 243.69 14.6807 241.386 14.6807C239.082 14.6807 237.228 21.0351 237.228 28.8791V71.1102C237.228 78.9434 239.093 85.3086 241.386 85.3086C243.326 85.3086 244.097 80.7973 244.569 74.6892V48.3819L240.915 45.8208V45.0814H250.484V87.5161ZM285.042 87.5054H272.291V86.766L275.591 84.4513L269.247 55.8508L262.271 84.7728L265.122 86.766V87.5054H255.885V86.766L259.421 84.3013L267.822 49.4213L260.482 16.3095L257.085 13.9306V13.1912H269.837V13.9306L266.547 16.2452L272.066 41.138L278.131 15.988L275.173 13.9306V13.1912H284.421V13.9306L281.013 16.3095L273.48 47.5675L281.646 84.3978L285.042 86.766V87.5054ZM309.582 65.2272H304.459V84.3871L307.867 86.766V87.5054H295.126V86.766L298.523 84.3871V65.2272H287.111L298.126 13.1912H305.499L290.936 62.3339H298.523V48.9713L304.459 44.7921V62.3339H309.582V65.2272ZM326.931 87.8268C321.123 87.8268 316.429 70.8958 316.429 49.9893C316.429 29.0827 321.133 12.1517 326.931 12.1517C332.728 12.1517 337.432 29.0827 337.432 49.9893C337.432 70.8958 332.728 87.8268 326.931 87.8268ZM355.842 87.8268C350.034 87.8268 345.34 70.8958 345.34 49.9893C345.34 29.0827 350.045 12.1517 355.842 12.1517C361.639 12.1517 366.343 29.0827 366.343 49.9893C366.343 70.8958 361.65 87.8268 355.842 87.8268ZM384.753 87.8268C378.945 87.8268 374.252 70.8958 374.252 49.9893C374.252 29.0827 378.956 12.1517 384.753 12.1517C390.54 12.1517 395.255 29.0827 395.255 49.9893C395.255 70.8958 390.561 87.8268 384.753 87.8268Z" fill="white"/>
<path d="M384.753 14.6807C382.792 14.6807 381.195 21.0351 381.195 28.8791V71.1102C381.195 78.9434 382.792 85.3086 384.753 85.3086C386.714 85.3086 388.311 78.9434 388.311 71.0994V28.8791C388.311 21.0459 386.714 14.6807 384.753 14.6807Z" fill="white"/>
<path d="M37.1935 76.1034H26.8206L25.9633 65.8055H21.752L20.9698 76.1034H10.6719L17.23 24.0781H30.7212L37.1935 76.1034ZM23.8523 37.0121L22.3735 57.2221H25.3418L23.8523 37.0121Z" fill="white"/>
<path d="M72.1511 76.1034H62.2497V46.6135L58.3491 76.1034H51.9518L47.8155 46.4527V76.1034H37.9141V24.0674H52.434L55.0165 47.0742L57.749 24.0674H72.1832V76.1034H72.1511Z" fill="white"/>
<path d="M88.3617 41.9309V35.7586C88.3617 34.119 88.2867 33.5725 88.1367 33.176C87.8259 32.6295 87.3544 32.233 86.8079 32.233C86.2614 32.233 85.6399 32.6188 85.4042 33.176C85.2434 33.6475 85.1791 34.0333 85.1791 35.7586V39.5734C85.1791 41.2986 85.6506 41.9094 87.6759 43.0024L92.3587 45.585C98.531 49.014 99.3776 50.4178 99.3776 57.4366V65.795C99.3776 70.3278 99.0668 71.8066 97.8131 73.4461C96.0985 75.7821 94.2233 76.2536 86.1114 76.2536C79.6283 76.2536 77.8495 75.8678 76.1243 73.9176C75.117 72.8246 74.6455 71.5815 74.4097 69.6312C74.249 68.624 74.249 67.4452 74.249 63.9304V54.5755H85.1791V63.3089V64.6377C85.1791 66.7487 85.6506 67.606 86.8187 67.606C87.8259 67.606 88.3724 66.7487 88.3724 65.2699V63.9411V58.1653L88.2974 57.0723C88.2224 55.122 87.9867 54.7363 86.1114 53.7183C85.4149 53.3325 84.8577 53.0967 84.7826 53.0217L80.1641 50.4392C75.0955 47.5459 74.2383 45.9064 74.2383 39.4448V33.3582C74.2383 29.0719 74.7098 27.1859 76.3493 25.7071C78.0638 24.1533 80.0998 23.7568 87.6652 23.7568C94.2876 23.7568 96.0878 24.2283 97.7274 26.4036C99.0561 28.1289 99.3669 29.7577 99.3669 34.5905V41.9309H88.3617Z" fill="white"/>
<path d="M116.588 76.1034H105.583V32.49H100.043V24.0674H121.968V32.49H116.588V76.1034Z" fill="white"/>
<path d="M134.353 24.0674L138.254 24.1424C145.905 24.3031 147.769 26.3284 147.769 34.2045V39.6589C147.769 46.9135 146.676 49.421 142.851 50.4283C144.715 51.0498 145.819 51.9071 146.601 53.3216C147.608 55.1111 147.769 56.5256 147.769 62.6122V76.1034H136.839V60.5012C136.839 55.3576 136.839 55.4326 134.107 55.3576C133.946 55.3576 133.882 55.3576 133.635 55.3576V76.1141H122.641V24.0674H134.353ZM134.417 45.8312C136.528 45.8312 136.839 45.3597 136.839 42.0164V36.4013L136.764 34.9975C136.764 33.133 136.293 32.5757 134.814 32.5757H134.117H133.646V45.8419C134.032 45.8312 134.278 45.8312 134.417 45.8312Z" fill="white"/>
<path d="M174.604 76.1034H164.231L163.373 65.8055H159.162L158.38 76.1034H148.082L154.64 24.0781H168.131L174.604 76.1034ZM161.262 37.0121L159.784 57.2221H162.752L161.262 37.0121Z" fill="white"/>
<path d="M185.984 24.0674C195.425 24.0674 196.754 24.2924 198.543 26.4034C200.183 28.268 200.569 30.304 200.569 37.4836V63.1587C200.569 69.556 200.344 71.2813 199.09 73.1458C197.611 75.3318 195.425 76.0391 190.046 76.0391L184.506 76.1141H175.301V24.0674H185.984ZM187.324 67.6057C189.038 67.6057 189.435 67.0592 189.435 64.8732C189.435 64.5625 189.435 64.3267 189.435 63.7802C189.435 62.9229 189.435 61.9907 189.435 61.1977V36.7871V35.4583C189.435 33.1222 189.049 32.565 187.324 32.565C187.099 32.565 186.702 32.64 186.317 32.64V67.5843C186.692 67.6057 187.077 67.6057 187.324 67.6057Z" fill="white"/>
<path d="M131.482 100L179.532 0H178.343L130.293 100H131.482Z" fill="white"/>
<path d="M90.1416 100L139.659 0H138.459L88.9414 100H90.1416Z" fill="white"/>
</g>
<defs>
<clipPath id="clip0_4_4975">
<rect width="411.38" height="100" fill="white"/>
</clipPath>
</defs>
</svg>
