<svg width="678" height="100" viewBox="0 0 678 100" fill="none" xmlns="http://www.w3.org/2000/svg">
<g clip-path="url(#clip0_4_4990)">
<path d="M25.4989 4.90918H0V98.2872H25.4989V4.90918Z" fill="white"/>
<path d="M82.6242 22.3913V59.3152L58.5734 26.1349C50.9449 15.6104 34.293 21.0139 34.293 34.0106V98.2874H46.9541V53.5585L77.3973 95.5327C83.0127 103.302 95.2677 99.3116 95.2677 89.7407V22.3913H82.6242Z" fill="white"/>
<path d="M665.265 22.3913V59.3152L641.214 26.1349C633.586 15.6104 616.934 21.0139 616.934 34.0106V98.2874H629.595V53.5585L660.038 95.5327C665.653 103.302 677.908 99.3116 677.908 89.7407V22.3913H665.265Z" fill="white"/>
<path d="M412.131 0H399.063L378.597 79.6927L362.687 22.391H336.234L355.676 87.3565C360.833 104.574 385.396 104.097 389.863 86.6855L412.131 0Z" fill="white"/>
<path d="M139.96 85.6085C138 85.6085 136.429 84.0192 136.429 82.0768V38.6016C136.429 36.6415 138.018 35.0522 139.978 35.0522H154.493V22.3911H136.411V4.90918L91.1523 35.0522H107.38C109.341 35.0522 110.93 36.6415 110.93 38.6016V82.0238C110.93 91.012 118.223 98.2872 127.193 98.2872H136.411H154.458V85.6261L139.96 85.6085Z" fill="white"/>
<path d="M240.384 82.0763V22.3906H214.902V82.0057C214.902 90.9938 222.195 98.2691 231.166 98.2691H240.384H258.431V85.608H243.915C241.955 85.608 240.384 84.0187 240.384 82.0763Z" fill="white"/>
<path d="M288.31 85.608C286.35 85.608 284.778 84.0187 284.778 82.0763V22.3906H259.297V82.0057C259.297 90.9938 266.59 98.2691 275.56 98.2691H284.778H302.825V85.608H288.31Z" fill="white"/>
<path d="M211.019 35.0518V22.3906H183.03H173.812C164.824 22.3906 157.531 29.6836 157.531 38.6717V82.0233C157.531 91.0115 164.824 98.3045 173.812 98.3045H183.03H211.019V85.6433H186.579C184.619 85.6433 183.03 84.0541 183.03 82.094V66.6781H206.251V54.017H183.03V38.6188C183.03 36.6587 184.619 35.0694 186.579 35.0694L211.019 35.0518Z" fill="white"/>
<path d="M330.655 41.4268H305.156V98.2694H330.655V41.4268Z" fill="white"/>
<path d="M330.655 22.3906H305.156V35.0518H330.655V22.3906Z" fill="white"/>
<path d="M528.784 41.4268H503.285V98.2694H528.784V41.4268Z" fill="white"/>
<path d="M528.784 22.3906H503.285V35.0518H528.784V22.3906Z" fill="white"/>
<path d="M435.104 41.4268H409.605V98.2694H435.104V41.4268Z" fill="white"/>
<path d="M435.104 22.3906H409.605V35.0518H435.104V22.3906Z" fill="white"/>
<path d="M572.91 22.6738C558.783 22.6738 533.391 25.87 533.391 61.2753C533.391 96.6805 558.783 99.8767 572.91 99.8767C587.037 99.8767 612.43 96.6805 612.43 61.2753C612.43 25.87 587.037 22.6738 572.91 22.6738ZM584.459 75.1195C584.459 81.0704 579.709 89.4406 572.91 89.4406C566.112 89.4406 561.362 81.0881 561.362 75.1195V47.3957C561.362 41.4448 566.112 33.0747 572.91 33.0747C579.709 33.0747 584.459 41.4271 584.459 47.3957V75.1195Z" fill="white"/>
<path d="M498.412 65.8836C498.341 65.4244 498.235 65.0006 498.147 64.5592C495.622 52.8516 486.439 50.5913 472.136 46.7947C472.136 46.7947 472.065 46.7771 471.977 46.7418L468.693 45.8588C462.494 44.1989 463.695 35.0342 470.123 35.0342H472.931H475.738H490.783L490.695 22.373H466.326C451.564 22.373 440.121 32.6326 440.121 47.6423C440.121 63.1112 457.179 68.0202 466.203 68.9914C471.871 69.5918 477.345 71.9581 477.345 77.5205C477.345 81.9881 473.496 85.6257 469.311 85.6257H440.121V98.1456C440.121 98.1456 473.019 98.3045 473.478 98.2869C487.605 97.5982 498.836 86.0672 498.836 72.0817C498.836 69.7508 498.712 67.72 498.412 65.8836Z" fill="white"/>
</g>
<defs>
<clipPath id="clip0_4_4990">
<rect width="677.909" height="100" fill="white"/>
</clipPath>
</defs>
</svg>
