<svg width="207" height="100" viewBox="0 0 207 100" fill="none" xmlns="http://www.w3.org/2000/svg">
<g clip-path="url(#clip0_4_5007)">
<path d="M206.251 77.0344C204.645 77.0344 203.127 77.0656 201.609 77.0188C200.71 76.993 200.242 76.5344 200.06 75.6172C199.962 75.1281 199.983 74.6172 199.889 74.1274C199.728 73.2891 199.27 73.0594 198.522 73.4508C198.085 73.7008 197.675 73.982 197.29 74.2992C192.95 77.6859 188.116 78.7274 182.783 77.4203C178.52 76.3781 175.75 72.8875 175.438 68.3922C174.945 61.2766 179.602 56.775 184.971 55.2805C187.077 54.6914 189.316 54.5563 191.505 54.3008C193.438 54.0719 195.388 53.9672 197.321 53.7852C198.397 53.6813 198.745 53.3063 198.652 52.2484C198.496 50.4672 198.444 48.6484 198.034 46.9242C197.368 44.0961 195.352 42.6633 192.529 42.3766C188.298 41.9391 184.191 42.5641 180.205 44.0438C179.888 44.1633 179.55 44.3774 179.238 44.3461C178.957 44.3195 178.563 44.0852 178.448 43.8352C178.157 43.1688 177.991 42.4391 177.772 41.736C177.47 40.7828 177.674 40.2461 178.583 39.9078C183.557 38.0578 188.62 36.6516 193.989 37.1672C195.689 37.3133 197.368 37.6625 198.99 38.1992C202.961 39.5688 204.822 42.6734 205.82 46.6328C206.298 48.5133 206.215 50.3313 206.225 52.1758C206.266 60.0781 206.241 67.9859 206.241 75.8938L206.251 77.0344ZM194.951 58.3227C192.581 58.375 190.226 58.4891 187.929 59.182C184.914 60.0992 183.209 62.0422 182.897 65.2461C182.507 69.2625 184.914 72.268 188.88 72.5703C190.933 72.7313 192.815 72.075 194.649 71.2469C196.812 70.2781 198.2 68.6367 198.413 66.2617C198.62 63.9281 198.59 61.568 198.626 59.2188C198.631 58.6297 198.231 58.3227 197.633 58.3227C196.739 58.3172 195.845 58.3227 194.951 58.3227Z" fill="white"/>
<path d="M131.473 61.1195C131.473 65.7766 131.473 70.4336 131.473 75.0906C131.473 76.7156 131.156 77.0336 129.54 77.0492C129.066 77.0492 128.594 77.0648 128.12 77.0492C126.436 76.9766 125.719 76.268 125.522 74.575C125.469 74.1063 125.277 73.6578 125.147 73.1945C124.664 73.4133 124.108 73.5438 123.702 73.8609C121.015 75.9656 118.026 77.3828 114.627 77.8461C111.227 78.3102 108.015 77.7211 105.094 75.8672C102.999 74.5336 102.011 72.4336 101.508 70.1055C100.328 64.6406 101.965 58.6758 109.33 55.8945C112.324 54.7797 115.479 54.1805 118.665 54.1227C119.872 54.0914 121.072 54.0758 122.273 54.0445C123.312 54.0188 123.884 53.6594 124.103 52.7422C124.695 50.2109 124.55 47.7523 123.224 45.4547C122.023 43.3758 120.064 42.6469 117.823 42.3602C114.128 41.8813 110.604 42.6938 107.095 43.7047C106.466 43.8813 105.847 44.1 105.224 44.3141C104.564 44.5375 104.231 44.2461 104.07 43.6266C103.929 43.0945 103.8 42.5586 103.608 42.0422C103.134 40.7711 103.363 40.1359 104.662 39.7352C106.846 39.0523 109.039 38.375 111.258 37.8539C115.469 36.8695 119.695 36.7078 123.905 37.932C128.604 39.2922 131.344 42.8656 131.411 47.7883C131.436 50.0125 131.411 52.232 131.411 54.4563V61.1242L131.473 61.1195ZM124.321 63.1141H124.269C124.269 61.9266 124.279 60.7336 124.269 59.5508C124.258 58.5563 124.029 58.3109 123.058 58.3219C121.69 58.332 120.319 58.3008 118.957 58.4211C117.314 58.5617 115.646 58.6969 114.05 59.082C110.661 59.9055 109.07 61.6922 108.665 64.9789C108.374 67.3445 108.743 69.5531 110.77 71.1109C112.558 72.4805 114.622 72.9023 116.815 72.4445C119.237 71.9391 121.28 70.6109 123.261 69.2094C124.154 68.5734 124.326 67.5633 124.326 66.5211C124.321 65.3859 124.321 64.25 124.321 63.1141Z" fill="white"/>
<path d="M155.3 69.7043C156.334 66.6051 157.499 63.5418 158.382 60.4004C159.817 55.2691 161.121 50.0965 162.369 44.9183C162.795 43.1316 162.914 41.2668 163.118 39.4222C163.263 38.1254 163.382 37.9379 164.697 37.9277C166.439 37.9066 168.175 37.9066 169.906 37.959C170.836 37.9847 171.07 38.3394 170.862 39.2504C168.518 49.4926 166.111 59.7183 162.317 69.5535C161.579 71.4707 160.768 73.3613 159.946 75.2527C159.307 76.7215 158.559 77.091 156.963 77.0496C155.045 76.9972 153.122 77.0082 151.204 77.0496C149.857 77.0754 149.421 76.8207 149.016 75.5183C145.279 63.5262 141.546 51.534 137.814 39.5371C137.736 39.2871 137.674 39.0269 137.632 38.766C137.544 38.2144 137.757 37.9066 138.35 37.9121C139.852 37.9121 141.354 37.9012 142.851 37.9121C144.343 37.9222 145.418 38.6722 145.918 40.0894C146.734 42.4027 147.555 44.7152 148.252 47.0754C150.284 53.9566 152.254 60.859 154.255 67.7457C154.447 68.3972 154.743 69.0168 154.993 69.6527L155.3 69.7043Z" fill="white"/>
<path d="M94.4965 49.8561C94.4965 55.7272 94.5637 61.5929 94.4699 67.4585C94.4184 70.678 94.3246 73.9186 93.8465 77.0905C92.9684 82.9515 89.8965 87.3741 84.6152 90.2343C82.4582 91.4061 79.6926 89.8749 78.9652 88.2757C78.6949 87.6866 78.6481 87.2179 79.3442 86.8218C83.7676 84.2796 85.9199 80.2632 86.4551 75.3147C86.6785 73.2468 86.7043 71.1468 86.7098 69.0577C86.7512 59.4366 86.7723 49.8147 86.7668 40.1882C86.7668 35.5827 86.6942 30.9882 86.6684 26.3882C86.6582 23.9921 87.1567 23.5022 89.5527 23.5858C90.5512 23.6171 91.5488 23.6796 92.5418 23.7991C93.6645 23.9397 94.0957 24.3772 94.2778 25.5077C94.3613 26.0866 94.3973 26.6647 94.3817 27.2475C94.3926 34.7804 94.3926 42.3186 94.3817 49.8561H94.4965Z" fill="white"/>
<path d="M48.6302 0.00878906C48.724 0.122852 48.8646 0.22207 48.9005 0.352539C49.8107 3.95176 50.0599 7.5416 48.7654 11.1197C47.8349 13.683 46.3123 15.8447 44.3888 17.7361C41.1927 20.8822 37.9591 23.9869 34.7833 27.1541C33.7177 28.2174 32.7669 29.3893 31.7951 30.5353C28.749 34.1143 28.156 38.0783 30.1576 42.3346C31.1505 44.4338 32.356 46.4291 33.4529 48.476C33.5826 48.7158 33.6818 48.9768 33.7904 49.2314L33.5623 49.4143C33.2498 49.0596 32.9435 48.69 32.6162 48.3463C29.8404 45.4807 27.413 42.3033 25.3701 38.8705C23.7904 36.2135 23.7537 33.5564 25.4998 31.0455C26.7474 29.2643 28.1248 27.5088 29.7154 26.0393C32.8498 23.1432 36.1919 20.4658 39.4099 17.6627C40.9224 16.3502 42.4451 15.0268 43.8068 13.5635C46.7701 10.365 48.1943 6.46816 48.5162 2.14473C48.5474 1.73301 48.4177 1.31113 48.3865 0.893945C48.3654 0.612695 48.3865 0.325977 48.3865 0.0400391L48.6302 0.00878906Z" fill="white"/>
<path d="M57.2547 19.877C54.3703 22.0441 51.5476 23.9926 48.9172 26.1855C47.2804 27.5613 45.8195 29.202 44.5047 30.9004C42.675 33.2598 42.6695 35.823 44.2757 38.3652C45.2578 39.9277 46.2718 41.4754 47.1812 43.0793C48.1429 44.7723 48.8547 46.5754 48.5586 48.591C48.4961 49.1434 48.3453 49.6746 48.1117 50.1801C46.875 52.6129 44.9515 54.3996 42.7422 55.8949L42.5601 55.7746C42.6953 55.5559 42.8203 55.327 42.9656 55.1129C44.6812 52.5918 44.7179 50.034 43.0804 47.4707C42.5187 46.5801 41.8328 45.7676 41.214 44.9137C39.8211 43.0012 38.6203 40.9855 38.1578 38.6207C37.4461 35.0309 38.4851 31.9316 40.8968 29.2543C43.4859 26.3887 46.6203 24.2738 50.0922 22.6645C52.182 21.6949 54.3547 20.8723 56.4961 19.9918C56.6882 19.9137 56.9218 19.9238 57.2547 19.877Z" fill="white"/>
<path d="M69.6818 86.4623C70.2638 87.0982 70.1287 87.6084 69.6717 87.942C68.5959 88.7334 67.5349 89.6037 66.3396 90.1662C63.3873 91.5412 60.2217 92.2764 57.0303 92.8436C50.299 94.042 43.4896 94.4381 36.6756 94.6459C29.5076 94.86 22.3506 94.7139 15.2029 94.2607C11.149 94.0006 7.13104 93.4795 3.2115 92.3701C2.35447 92.1147 1.52791 91.7654 0.758379 91.3178C-0.0994338 90.8279 -0.23459 90.0826 0.378691 89.3068C0.820879 88.7178 1.36619 88.2131 1.99041 87.8217C4.39666 86.4412 7.03182 85.749 9.83885 85.5615C9.57947 85.6811 9.31385 85.7904 9.05916 85.9154C8.32088 86.2693 7.57244 86.5975 6.86619 86.999C6.28338 87.3217 5.90447 87.8326 5.9615 88.5514C6.01854 89.2701 6.5076 89.6607 7.10994 89.8225C9.03885 90.3326 10.9615 90.9318 12.9217 91.2397C21.7576 92.5889 30.6412 92.8232 39.5498 92.2865C45.3303 91.9318 51.1099 91.5834 56.8795 91.0834C60.549 90.7654 64.2037 90.2232 67.6443 88.7545C68.6263 88.3272 69.4584 87.7748 69.6818 86.4623Z" fill="white"/>
<path d="M52.3214 82.0457C49.6237 82.7176 46.9518 83.5355 44.2229 84.041C37.4401 85.3121 30.6565 85.1707 23.9518 83.4574C22.7096 83.1293 21.5245 82.6137 20.4331 81.9309C18.894 80.9668 18.9464 79.6285 20.4534 78.5863C21.0464 78.1801 21.7167 77.8832 22.5065 77.4512C22.5745 79.4613 23.8323 79.9512 25.3237 80.1074C32.0034 80.8371 38.7503 80.6699 45.3878 79.6129C47.1604 79.3262 48.5792 79.4254 50.0089 80.4465C50.726 80.9566 51.5471 81.3316 52.3167 81.7691L52.3214 82.0457Z" fill="white"/>
<path d="M53.6064 71.0853C50.6017 71.7213 47.6127 72.4611 44.5978 72.9924C38.6361 74.0236 32.6377 73.6799 26.6447 73.2424C23.7447 73.0338 20.8853 72.6533 18.1564 71.5752C17.3564 71.2572 16.5767 70.94 16.4572 69.9236C16.3322 68.9025 16.8103 68.1213 17.6525 67.6002C18.3853 67.1471 19.165 66.7775 19.9814 66.3291C19.7158 68.7104 20.1322 69.1111 22.476 69.7518C23.8533 70.1322 25.3299 70.2104 26.7697 70.2885C34.5095 70.6947 42.1705 69.9189 49.801 68.6994C50.3103 68.6478 50.8197 68.7572 51.2564 69.0174C52.0783 69.5174 52.8213 70.1533 53.6064 70.7416V71.0853Z" fill="white"/>
<path d="M56.7708 58.5096C55.295 60.2705 53.3559 60.369 51.4848 60.6244C44.1302 61.6244 36.7645 62.6299 29.3262 62.5986C22.9278 62.5729 16.5239 62.4221 10.2606 60.9158C9.79266 60.8221 9.34578 60.6658 8.92 60.4627C8.64969 60.3221 8.27 59.994 8.28562 59.7752C8.30672 59.4471 8.55594 58.994 8.83641 58.8432C10.0841 58.1658 11.3364 57.4572 12.6723 56.9932C14.8817 56.2229 17.1427 55.6182 19.388 54.9674C19.6223 54.894 19.8927 54.9565 20.1989 55.1026C19.7262 55.3268 19.2372 55.5455 18.7591 55.7697C17.8755 56.1862 16.9864 56.5822 16.1239 57.0408C15.5161 57.358 15.0528 57.8322 15.1778 58.619C15.3028 59.4057 15.952 59.5307 16.5762 59.6815C20.1106 60.5463 23.7231 60.5049 27.32 60.6033C35.902 60.8486 44.4052 59.9112 52.9036 58.9471L56.7708 58.5096Z" fill="white"/>
<path d="M19.9664 98.1689C21.5828 98.1689 23.2094 98.0697 24.8211 98.1846C32.6594 98.726 40.4922 98.8463 48.3312 98.2369C55.0359 97.7103 61.7047 96.9658 68.0617 94.5955C69.7562 93.9596 71.368 93.0947 73.0156 92.3346C73.1977 92.251 73.3797 92.1627 73.5609 92.0791L73.7227 92.2666C73.1297 92.7932 72.5891 93.3814 71.9445 93.8346C68.8984 95.9549 65.4477 97.0541 61.8609 97.7729C53.3258 99.4713 44.7078 100.107 36.0227 99.9971C30.6945 99.9299 25.393 99.633 20.1797 98.4189C20.1062 98.4033 20.0336 98.3721 19.9609 98.351L19.9664 98.1689Z" fill="white"/>
<path d="M62.332 71.4552C63.0961 70.8615 63.8758 70.2724 64.6242 69.6787C66.4437 68.2255 68.2477 66.7357 69.4484 64.7091C70.1086 63.599 70.7109 62.3545 70.9711 61.099C71.7141 57.5146 69.5367 54.6443 65.8562 54.1341C65.207 54.0451 64.5469 54.0138 63.8969 53.9513L63.8656 53.7279C64.8328 53.5974 65.7891 53.3732 66.7555 53.3529C69.3023 53.2951 71.4234 54.3271 73.1336 56.1654C74.8852 58.0459 75.2281 61.0732 73.9234 63.4115C73.3883 64.4068 72.718 65.324 71.9328 66.1365C69.5883 68.4802 66.7453 70.2513 63.6164 71.3193C63.2266 71.4552 62.8156 71.5334 62.4102 71.6373L62.332 71.4552Z" fill="white"/>
</g>
<defs>
<clipPath id="clip0_4_5007">
<rect width="206.25" height="100" fill="white"/>
</clipPath>
</defs>
</svg>
