<svg width="305" height="100" viewBox="0 0 305 100" fill="none" xmlns="http://www.w3.org/2000/svg">
<g clip-path="url(#clip0_4_5020)">
<path d="M202.428 21.3643C202.942 21.3962 203.457 21.4282 203.973 21.4632C207.919 21.7363 211.693 22.6632 215.219 24.4937C217.737 25.8033 219.97 27.4983 221.962 29.5181C224.125 31.713 225.915 34.1719 227.261 36.946C228.25 38.9841 228.937 41.1196 229.414 43.3297C229.994 46.0399 230.186 48.7841 230.072 51.5429C229.886 55.9724 228.906 60.2044 226.818 64.1445C225.362 66.8942 223.462 69.3059 221.204 71.4384C217.58 74.8592 213.335 77.0907 208.457 78.1242C206.652 78.5054 204.834 78.746 202.988 78.8039C202.906 78.8069 202.822 78.8313 202.739 78.845H200.569C200.096 78.8099 199.623 78.778 199.154 78.7429C193.507 78.3343 188.351 76.5907 183.883 73.0343C180.358 70.2297 177.595 66.8074 175.713 62.6978C174.756 60.611 174.114 58.4221 173.687 56.1678C173.206 53.6176 173.052 51.0429 173.18 48.4561C173.452 43.0115 174.887 37.9262 178.047 33.4201C181.745 28.149 186.578 24.3993 192.82 22.5871C194.723 22.0348 196.662 21.6663 198.639 21.515C199.267 21.4663 199.893 21.4419 200.52 21.4039C200.623 21.3978 200.724 21.378 200.826 21.3643H202.428ZM201.57 71.4536C203.578 71.4384 205.52 71.2739 207.426 70.8028C211.577 69.7785 215.03 67.6247 217.774 64.3414C220.576 60.9907 222.031 57.0962 222.426 52.779C222.563 51.3023 222.578 49.8221 222.491 48.3404C222.394 46.7323 222.184 45.1409 221.757 43.5846C220.424 38.7262 217.696 34.85 213.504 32.0455C210.369 29.9495 206.859 28.9907 203.119 28.8044C201.075 28.7039 199.041 28.7967 197.024 29.1627C193.502 29.8028 190.368 31.2572 187.667 33.6231C185.048 35.9186 183.153 38.7064 181.983 41.9856C181.094 44.4653 180.74 47.0338 180.704 49.6556C180.673 51.6922 180.816 53.7165 181.258 55.7074C182.062 59.3003 183.678 62.4709 186.199 65.1719C188.424 67.5577 191.072 69.2724 194.154 70.3226C196.577 71.1475 199.078 71.4277 201.57 71.4536Z" fill="white"/>
<path d="M304.568 77.5525C304.356 78.0662 304.193 78.1697 303.612 78.1697C301.717 78.1697 299.822 78.1713 297.925 78.1697C297.257 78.1697 297.012 77.9215 297.012 77.2504V22.9768C297.012 22.2804 297.257 22.0362 297.965 22.0362C299.859 22.0362 301.755 22.0301 303.649 22.0469C303.883 22.0484 304.138 22.1418 304.339 22.2652C304.459 22.3398 304.494 22.553 304.568 22.7073V77.5525Z" fill="white"/>
<path d="M149.986 44.8062C150.942 46.0763 151.889 47.3336 152.837 48.5925C154.845 51.26 156.85 53.9281 158.859 56.5986C161.441 60.0311 164.024 63.4626 166.606 66.8935C169.138 70.258 171.665 73.6204 174.2 76.9819C174.389 77.2286 174.47 77.4803 174.336 77.7682C174.199 78.058 173.933 78.1524 173.635 78.1676C173.497 78.1768 173.36 78.1692 173.222 78.1692C170.888 78.1692 168.553 78.1676 166.217 78.1722C165.818 78.1722 165.525 78.0382 165.274 77.7072C160.871 71.822 156.459 65.9428 152.047 60.0631C149.543 56.725 147.035 53.3854 144.529 50.0484C144.51 50.0209 144.485 49.9966 144.45 49.9539C144.145 50.2372 143.844 50.5194 143.543 50.7986C141.51 52.6991 139.479 54.5986 137.447 56.4991C136.328 57.5448 135.208 58.592 134.082 59.6316C133.935 59.7646 133.876 59.8986 133.876 60.0966C133.882 65.7808 133.88 71.4681 133.88 77.1539C133.88 77.2209 133.882 77.291 133.88 77.361C133.865 77.8808 133.6 78.1646 133.08 78.1676C131.089 78.1737 129.1 78.1722 127.11 78.1676C126.605 78.1646 126.339 77.8808 126.329 77.3732C126.327 77.3154 126.329 77.2529 126.329 77.1935V23.0265V22.9732C126.329 22.289 126.576 22.0372 127.257 22.0372C129.074 22.0372 130.893 22.0372 132.71 22.0372C132.83 22.0372 132.951 22.0326 133.072 22.0372C133.598 22.0621 133.857 22.3209 133.88 22.8453C133.884 22.923 133.88 23.0006 133.88 23.0768V49.3367V49.7006C134.331 49.2788 134.738 48.9022 135.143 48.5209C137.543 46.2697 139.939 44.0169 142.342 41.7666C145.49 38.8174 148.639 35.8676 151.788 32.9179C154.427 30.4443 157.064 27.9671 159.701 25.493C160.812 24.4489 161.926 23.4093 163.036 22.3621C163.266 22.1443 163.531 22.0372 163.847 22.0372C166.63 22.0372 169.413 22.0372 172.196 22.0372C172.67 22.0372 172.938 22.2098 173.037 22.5646C173.12 22.8575 173.006 23.0844 172.802 23.2813C171.996 24.0463 171.193 24.8118 170.385 25.5737C168.955 26.9215 167.524 28.2656 166.095 29.6133C164.112 31.4793 162.134 33.3448 160.155 35.2138C158.126 37.1281 156.099 39.0458 154.068 40.959C152.718 42.2377 151.363 43.5108 149.986 44.8062Z" fill="white"/>
<path d="M238.703 50.109V23.075C238.703 22.9973 238.703 22.9197 238.705 22.842C238.714 22.3329 238.973 22.0664 239.479 22.0369C239.514 22.0354 239.548 22.0369 239.58 22.0369C247.31 22.0369 255.038 22.0187 262.766 22.0476C266.319 22.0603 269.72 22.8588 272.966 24.3116C275.788 25.5735 278.267 27.3329 280.421 29.5476C283.932 33.1527 286.264 37.4039 287.409 42.309C288.069 45.1339 288.341 47.9933 288.282 50.8852C288.2 54.772 287.524 58.5446 286.052 62.1572C284.823 65.1709 283.061 67.8491 280.84 70.2242C277.437 73.872 273.297 76.2694 268.449 77.4451C266.356 77.9512 264.237 78.1765 262.083 78.1735C254.599 78.1644 247.111 78.1704 239.624 78.1689C239.496 78.1689 239.367 78.1598 239.241 78.1415C238.963 78.0973 238.791 77.9314 238.743 77.6552C238.717 77.5121 238.705 77.3654 238.705 77.2207C238.703 68.1831 238.703 59.1471 238.703 50.109ZM246.264 70.9451H246.598C251.63 70.9451 256.66 70.9496 261.691 70.939C262.594 70.9374 263.5 70.8994 264.399 70.8309C266.268 70.6831 268.05 70.1877 269.754 69.4055C271.981 68.3872 273.853 66.9009 275.466 65.0644C276.967 63.3557 278.154 61.4517 279.03 59.3527C279.96 57.1182 280.46 54.7872 280.645 52.376C280.816 50.1776 280.747 47.9887 280.416 45.8105C280.023 43.2359 279.186 40.8075 277.892 38.5456C276.455 36.0303 274.598 33.8765 272.215 32.2121C269.362 30.2197 266.156 29.2928 262.698 29.276C257.314 29.2501 251.927 29.2684 246.543 29.2669H246.264V70.9451Z" fill="white"/>
<path d="M100.439 50.8602C100.114 51.9105 99.4037 52.68 98.6433 53.4394C93.5489 58.5151 88.4718 63.6095 83.3865 68.6978C81.554 70.5298 79.5971 70.5252 77.7586 68.6856C72.5103 63.4328 67.2636 58.1831 62.0185 52.9303C60.2317 51.142 60.2332 49.1877 62.0245 47.3968C67.2987 42.112 72.5743 36.8318 77.8515 31.5531C79.5677 29.8349 81.586 29.8333 83.3027 31.5516C88.4164 36.6668 93.5245 41.7902 98.6494 46.8983C99.4098 47.6562 100.117 48.4273 100.439 49.4805V50.8602Z" fill="white"/>
<path d="M49.8649 100.053C48.8177 99.7205 48.0598 98.9967 47.3055 98.2373C42.2324 93.1388 37.1441 88.0551 32.0604 82.9652C30.2421 81.1454 30.2406 79.2018 32.0543 77.386C37.3167 72.121 42.5771 66.8545 47.839 61.5911C49.5888 59.8398 51.5933 59.8337 53.3324 61.5759C58.5944 66.8393 63.8548 72.1058 69.1152 77.3708C70.9218 79.182 70.9279 81.1652 69.1274 82.9622C64.0015 88.0977 58.8659 93.2241 53.7502 98.3688C53.0172 99.1018 52.2639 99.7647 51.2441 100.053H49.8649Z" fill="white"/>
<path d="M31.4017 37.5535C31.4017 31.6987 31.4535 25.8423 31.3682 19.9905C31.3439 18.2966 31.7479 16.9738 33.0418 15.855C34.0814 14.9555 35.0037 13.9174 35.9794 12.9403C39.8357 9.07938 43.6926 5.21948 47.5505 1.36009C49.3647 -0.454124 51.3215 -0.452601 53.1342 1.36009C58.3824 6.60983 63.6291 11.8596 68.8758 17.1093C70.6789 18.9139 70.6758 20.8971 68.8743 22.7022C62.6702 28.9154 56.4631 35.1271 50.256 41.3367C44.7763 46.8261 39.2961 52.3119 33.8149 57.7966C32.7982 58.8134 31.8987 58.5768 31.5296 57.1672C31.4169 56.7312 31.4078 56.2601 31.4078 55.8042C31.3987 49.721 31.4017 43.6372 31.4017 37.5535Z" fill="white"/>
<path d="M18.8537 50.2387C18.8537 55.6093 18.8613 60.9839 18.8415 66.3555C18.8385 66.8662 18.7593 67.4073 18.5765 67.8799C18.2182 68.8129 17.5446 68.9286 16.84 68.2261C14.3694 65.7596 11.906 63.2854 9.43948 60.8149C6.58922 57.9596 3.73694 55.1047 0.888207 52.2479C-0.291996 51.0636 -0.296564 49.4235 0.877547 48.2347C6.12577 42.9281 11.374 37.622 16.6237 32.3159C16.9715 31.9667 17.2989 31.49 17.8887 31.7139C18.4527 31.9256 18.6755 32.4347 18.7547 32.9986C18.805 33.3479 18.8446 33.7032 18.8446 34.0565C18.8506 39.4514 18.8476 44.8443 18.8476 50.2387H18.8537Z" fill="white"/>
</g>
<defs>
<clipPath id="clip0_4_5020">
<rect width="304.569" height="100" fill="white"/>
</clipPath>
</defs>
</svg>
