<svg width="478" height="100" viewBox="0 0 478 100" fill="none" xmlns="http://www.w3.org/2000/svg">
<g clip-path="url(#clip0_4_5030)">
<path fill-rule="evenodd" clip-rule="evenodd" d="M15.6073 0.0244141H43.1281L33.27 57.9409H6.57031L15.6073 0.0244141Z" fill="white"/>
<path fill-rule="evenodd" clip-rule="evenodd" d="M31.2182 73.1388H53.8106L50.5232 96.5511H0L4.92974 66.5693H32.0393L31.2182 73.1388Z" fill="white"/>
<path fill-rule="evenodd" clip-rule="evenodd" d="M358.184 4.9541H383.238L380.776 21.383H355.719L358.184 4.9541Z" fill="white"/>
<path fill-rule="evenodd" clip-rule="evenodd" d="M354.69 28.3662H379.745L375.229 58.7632H350.172L354.69 28.3662Z" fill="white"/>
<path fill-rule="evenodd" clip-rule="evenodd" d="M348.943 66.5693H373.998L369.479 96.5511H344.422L348.943 66.5693Z" fill="white"/>
<path fill-rule="evenodd" clip-rule="evenodd" d="M234.339 66.5693H259.395L254.876 96.5511H229.82L234.339 66.5693Z" fill="white"/>
<path fill-rule="evenodd" clip-rule="evenodd" d="M81.1214 66.5697C80.9105 68.5065 80.7645 70.9741 80.982 73.1922C81.2805 75.8985 82.3312 78.0636 84.8995 78.0636C88.2824 78.0636 90.3201 75.0866 91.4888 71.5737C92.1495 69.743 92.6218 68.2306 92.9641 66.506L116.314 66.4424L111.557 96.6364H90.7977L92.0168 90.6241C86.8735 97.167 82.7544 98.7431 74.0981 98.7431C57.567 98.7431 54.9257 80.4038 55.9738 66.575L81.1214 66.5697Z" fill="white"/>
<path fill-rule="evenodd" clip-rule="evenodd" d="M94.0066 58.7639C94.0256 57.0446 94.004 56.0257 93.9204 54.8211C93.6789 51.7062 92.7039 49.0039 89.5943 49.0039C86.348 49.0039 84.4059 52.2501 83.0461 56.1743C82.8523 56.7845 82.6826 57.3735 81.9198 58.7532L56.5547 58.7369C59.9217 44.2781 67.4994 27.3636 84.0105 27.0227C88.5184 26.9298 96.9385 27.5454 100.233 33.9862L100.952 34.1256L102.017 28.3057H122.361L117.675 58.7636L94.0066 58.7639Z" fill="white"/>
<path fill-rule="evenodd" clip-rule="evenodd" d="M123.845 58.7639C122.33 55.7392 121.698 52.1201 122.3 47.8126C124.36 33.0685 135.444 25.585 152.08 25.585C159.248 25.585 164.231 27.2684 169.962 30.784L167.233 49.7163C163.072 46.2352 155.539 44.3859 151.074 44.3859C149.181 44.3859 146.829 44.833 146.251 47.0803C145.408 50.3425 149.063 52.1361 153.509 53.7068C157.185 55.0069 160.309 56.6147 162.803 58.732L123.845 58.7639Z" fill="white"/>
<path fill-rule="evenodd" clip-rule="evenodd" d="M168.487 66.6328C169.619 69.7371 169.957 73.4729 169.407 77.4156C167.155 93.5102 153.344 99.565 138.602 99.565C128.864 99.565 124.767 97.7501 117.023 93.1494L120.486 71.9659C123.123 75.3461 132.061 80.7375 138.041 80.4298C140.338 80.3129 144.975 78.7317 145.334 76.1633C145.693 73.5949 144.588 71.7006 138.819 69.8645C136.119 69.0101 133.553 68.1027 131.281 66.7018L168.487 66.6328Z" fill="white"/>
<path fill-rule="evenodd" clip-rule="evenodd" d="M195.912 66.5797C194.914 72.6185 194.686 82.1012 200.191 82.7698C203.737 83.205 207.433 80.3288 208.554 73.043H230.826C226.944 95.9353 213.528 100.09 197.569 99.9735C180.181 99.8461 169.771 85.6884 171.047 66.5479L195.912 66.5797Z" fill="white"/>
<path fill-rule="evenodd" clip-rule="evenodd" d="M429.641 58.758C432.907 40.8128 441.649 26.1536 466.648 25.5844C471.554 25.473 475.454 27.1339 477.495 28.3199L474.263 47.7511C464.342 43.7287 458.946 51.6248 457.041 58.7899L429.641 58.758Z" fill="white"/>
<path fill-rule="evenodd" clip-rule="evenodd" d="M456.469 66.5802C457.138 71.0536 459.714 75.2245 464.732 75.2245L470.187 74.8106L467.008 96.5566C463.134 97.5808 459.438 98.1963 454.424 98.1274C435.339 97.8568 427.517 83.8264 428.626 66.5537L456.469 66.5802Z" fill="white"/>
<path fill-rule="evenodd" clip-rule="evenodd" d="M315.481 66.5803C312.493 71.4198 309.506 74.9858 302.729 74.3703L303.899 66.5591L277.513 66.5754L272.742 96.5518H299.442C321.535 96.5518 336.704 86.8887 344.139 66.5117L315.481 66.5803Z" fill="white"/>
<path fill-rule="evenodd" clip-rule="evenodd" d="M304.894 58.7794L310.124 25.0818C320.803 25.0818 323.266 33.2962 321.212 48.0828C320.7 51.7801 319.981 55.6804 319.018 58.8378L346.8 58.8695C347.805 54.7092 348.246 50.0913 348.734 45.2079C352.43 8.23887 332.305 0.0244141 312.178 0.0244141H287.12L283.629 26.3128C279.521 27.134 269.458 28.3665 264.117 35.5554C263.09 36.5823 262.474 36.171 262.679 34.9386L263.705 28.3664H240.089L235.57 58.7634H260.628C261.652 54.4492 272.949 48.0828 279.933 51.3688L278.76 58.7369L304.894 58.7794Z" fill="white"/>
<path fill-rule="evenodd" clip-rule="evenodd" d="M380.983 58.7639C379.468 55.7392 378.834 52.1201 379.436 47.8126C381.498 33.0685 392.581 25.585 409.216 25.585C416.386 25.585 421.368 27.2684 427.099 30.784L424.369 49.7163C420.209 46.2352 412.674 44.3859 408.211 44.3859C406.319 44.3859 403.966 44.833 403.387 47.0803C402.546 50.3425 406.2 52.1361 410.647 53.7068C414.321 55.0069 417.447 56.6147 419.938 58.732L380.983 58.7639Z" fill="white"/>
<path fill-rule="evenodd" clip-rule="evenodd" d="M425.623 66.6328C426.756 69.7371 427.093 73.4729 426.543 77.4156C424.293 93.5102 410.481 99.565 395.739 99.565C385.999 99.565 381.902 97.7501 374.16 93.1494L377.623 71.9659C380.26 75.3461 389.196 80.7375 395.177 80.4298C397.474 80.3129 402.112 78.7317 402.47 76.1633C402.831 73.5949 401.725 71.7006 395.957 69.8645C393.256 69.0101 390.69 68.1027 388.419 66.7018L425.623 66.6328Z" fill="white"/>
<path fill-rule="evenodd" clip-rule="evenodd" d="M466.931 19.3307H466.069V13.7257H463.914V12.9629H469.085V13.7257H466.931V19.3307Z" fill="white"/>
<path fill-rule="evenodd" clip-rule="evenodd" d="M475.122 19.3307V15.571C475.122 15.3841 475.142 14.5774 475.142 13.9831H475.122L473.331 19.3307H472.48L470.689 13.9923H470.672C470.672 14.5774 470.689 15.384 470.689 15.571V19.3307H469.855V12.9629H471.089L472.907 18.345H472.923L474.732 12.9629H475.955V19.3307H475.122Z" fill="white"/>
<path fill-rule="evenodd" clip-rule="evenodd" d="M205.974 25.5847C185.869 25.7214 175.975 39.83 172.07 58.753L232.775 58.7694C233.447 49.9898 233.13 41.4874 230.476 37.6283C225.849 30.8957 219.757 25.4919 205.974 25.5847ZM206.365 41.4353C211.1 41.4353 211.869 46.5746 211.456 50.4961H199.148C199.523 46.8453 201.902 41.4353 206.365 41.4353Z" fill="white"/>
</g>
<defs>
<clipPath id="clip0_4_5030">
<rect width="477.495" height="100" fill="white"/>
</clipPath>
</defs>
</svg>
