<svg width="800" height="100" viewBox="0 0 800 100" fill="none" xmlns="http://www.w3.org/2000/svg">
<g clip-path="url(#clip0_4_5052)">
<path d="M13.072 0H0V13.072H13.072V0Z" fill="white"/>
<path d="M13.072 14.4727H0V27.5447H13.072V14.4727Z" fill="white"/>
<path d="M13.072 28.9463H0V42.0183H13.072V28.9463Z" fill="white"/>
<path d="M13.072 43.4189H0V56.491H13.072V43.4189Z" fill="white"/>
<path d="M13.072 57.8926H0V70.9646H13.072V57.8926Z" fill="white"/>
<path d="M13.072 72.3652H0V85.4372H13.072V72.3652Z" fill="white"/>
<path d="M13.072 86.8379H0V99.9099H13.072V86.8379Z" fill="white"/>
<path d="M27.8259 0H14.7539V13.072H27.8259V0Z" fill="white"/>
<path d="M127.849 0H114.777V13.072H127.849V0Z" fill="white"/>
<path d="M142.767 0H129.695V13.072H142.767V0Z" fill="white"/>
<path d="M157.689 0H144.617V13.072H157.689V0Z" fill="white"/>
<path d="M172.607 0H159.535V13.072H172.607V0Z" fill="white"/>
<path d="M199.197 0H186.125V13.072H199.197V0Z" fill="white"/>
<path d="M214.084 0H201.012V13.072H214.084V0Z" fill="white"/>
<path d="M199.197 14.4727H186.125V27.5447H199.197V14.4727Z" fill="white"/>
<path d="M214.084 14.4727H201.012V27.5447H214.084V14.4727Z" fill="white"/>
<path d="M258.795 14.4727H245.723V27.5447H258.795V14.4727Z" fill="white"/>
<path d="M273.681 14.4727H260.609V27.5447H273.681V14.4727Z" fill="white"/>
<path d="M199.197 72.3652H186.125V85.4372H199.197V72.3652Z" fill="white"/>
<path d="M214.084 72.3652H201.012V85.4372H214.084V72.3652Z" fill="white"/>
<path d="M258.795 72.3652H245.723V85.4372H258.795V72.3652Z" fill="white"/>
<path d="M273.681 72.3652H260.609V85.4372H273.681V72.3652Z" fill="white"/>
<path d="M199.197 28.9463H186.125V42.0183H199.197V28.9463Z" fill="white"/>
<path d="M214.084 28.9463H201.012V42.0183H214.084V28.9463Z" fill="white"/>
<path d="M273.701 28.9463H260.629V42.0183H273.701V28.9463Z" fill="white"/>
<path d="M288.588 28.9463H275.516V42.0183H288.588V28.9463Z" fill="white"/>
<path d="M199.197 43.4189H186.125V56.491H199.197V43.4189Z" fill="white"/>
<path d="M214.084 43.4189H201.012V56.491H214.084V43.4189Z" fill="white"/>
<path d="M273.701 43.4189H260.629V56.491H273.701V43.4189Z" fill="white"/>
<path d="M288.588 43.4189H275.516V56.491H288.588V43.4189Z" fill="white"/>
<path d="M199.197 57.8926H186.125V70.9646H199.197V57.8926Z" fill="white"/>
<path d="M214.084 57.8926H201.012V70.9646H214.084V57.8926Z" fill="white"/>
<path d="M273.701 57.8926H260.629V70.9646H273.701V57.8926Z" fill="white"/>
<path d="M288.588 57.8926H275.516V70.9646H288.588V57.8926Z" fill="white"/>
<path d="M228.97 0H215.898V13.072H228.97V0Z" fill="white"/>
<path d="M243.861 0H230.789V13.072H243.861V0Z" fill="white"/>
<path d="M258.748 0H245.676V13.072H258.748V0Z" fill="white"/>
<path d="M199.197 86.9277H186.125V99.9997H199.197V86.9277Z" fill="white"/>
<path d="M214.084 86.9277H201.012V99.9997H214.084V86.9277Z" fill="white"/>
<path d="M228.97 86.9277H215.898V99.9997H228.97V86.9277Z" fill="white"/>
<path d="M243.861 86.9277H230.789V99.9997H243.861V86.9277Z" fill="white"/>
<path d="M258.748 86.9277H245.676V99.9997H258.748V86.9277Z" fill="white"/>
<path d="M27.8259 14.4727H14.7539V27.5447H27.8259V14.4727Z" fill="white"/>
<path d="M113.123 14.4727H100.051V27.5447H113.123V14.4727Z" fill="white"/>
<path d="M127.873 14.4727H114.801V27.5447H127.873V14.4727Z" fill="white"/>
<path d="M27.8259 28.9463H14.7539V42.0183H27.8259V28.9463Z" fill="white"/>
<path d="M98.3689 28.9463H85.2969V42.0183H98.3689V28.9463Z" fill="white"/>
<path d="M113.123 28.9463H100.051V42.0183H113.123V28.9463Z" fill="white"/>
<path d="M27.8259 43.4189H14.7539V56.491H27.8259V43.4189Z" fill="white"/>
<path d="M98.3689 43.4189H85.2969V56.491H98.3689V43.4189Z" fill="white"/>
<path d="M113.123 43.4189H100.051V56.491H113.123V43.4189Z" fill="white"/>
<path d="M27.8259 57.8926H14.7539V70.9646H27.8259V57.8926Z" fill="white"/>
<path d="M27.8259 72.3652H14.7539V85.4372H27.8259V72.3652Z" fill="white"/>
<path d="M113.123 72.3652H100.051V85.4372H113.123V72.3652Z" fill="white"/>
<path d="M127.873 72.3652H114.801V85.4372H127.873V72.3652Z" fill="white"/>
<path d="M27.7751 86.8379H14.7031V99.9099H27.7751V86.8379Z" fill="white"/>
<path d="M42.4744 86.8691H29.4023V99.9412H42.4744V86.8691Z" fill="white"/>
<path d="M57.1775 86.8984H44.1055V99.9705H57.1775V86.8984Z" fill="white"/>
<path d="M71.8767 86.9277H58.8047V99.9997H71.8767V86.9277Z" fill="white"/>
<path d="M127.888 86.8379H114.816V99.9099H127.888V86.8379Z" fill="white"/>
<path d="M142.588 86.8691H129.516V99.9412H142.588V86.8691Z" fill="white"/>
<path d="M157.291 86.8984H144.219V99.9705H157.291V86.8984Z" fill="white"/>
<path d="M171.994 86.9277H158.922V99.9997H171.994V86.9277Z" fill="white"/>
<path d="M98.3689 57.8926H85.2969V70.9646H98.3689V57.8926Z" fill="white"/>
<path d="M113.123 57.8926H100.051V70.9646H113.123V57.8926Z" fill="white"/>
<path d="M371.744 0H358.672V13.072H371.744V0Z" fill="white"/>
<path d="M386.666 0H373.594V13.072H386.666V0Z" fill="white"/>
<path d="M401.584 0H388.512V13.072H401.584V0Z" fill="white"/>
<path d="M416.502 0H403.43V13.072H416.502V0Z" fill="white"/>
<path d="M357.017 14.4727H343.945V27.5447H357.017V14.4727Z" fill="white"/>
<path d="M371.767 14.4727H358.695V27.5447H371.767V14.4727Z" fill="white"/>
<path d="M342.263 28.9463H329.191V42.0183H342.263V28.9463Z" fill="white"/>
<path d="M357.017 28.9463H343.945V42.0183H357.017V28.9463Z" fill="white"/>
<path d="M342.263 43.4189H329.191V56.491H342.263V43.4189Z" fill="white"/>
<path d="M357.017 43.4189H343.945V56.491H357.017V43.4189Z" fill="white"/>
<path d="M357.017 72.3652H343.945V85.4372H357.017V72.3652Z" fill="white"/>
<path d="M371.767 72.3652H358.695V85.4372H371.767V72.3652Z" fill="white"/>
<path d="M415.853 72.3652H402.781V85.4372H415.853V72.3652Z" fill="white"/>
<path d="M430.603 72.3652H417.531V85.4372H430.603V72.3652Z" fill="white"/>
<path d="M415.853 57.8926H402.781V70.9646H415.853V57.8926Z" fill="white"/>
<path d="M430.603 57.8926H417.531V70.9646H430.603V57.8926Z" fill="white"/>
<path d="M371.783 86.8379H358.711V99.9099H371.783V86.8379Z" fill="white"/>
<path d="M386.486 86.8691H373.414V99.9412H386.486V86.8691Z" fill="white"/>
<path d="M401.185 86.8984H388.113V99.9705H401.185V86.8984Z" fill="white"/>
<path d="M415.888 86.9277H402.816V99.9997H415.888V86.9277Z" fill="white"/>
<path d="M430.603 86.9277H417.531V99.9997H430.603V86.9277Z" fill="white"/>
<path d="M342.263 57.8926H329.191V70.9646H342.263V57.8926Z" fill="white"/>
<path d="M357.017 57.8926H343.945V70.9646H357.017V57.8926Z" fill="white"/>
<path d="M415.853 43.4189H402.781V56.491H415.853V43.4189Z" fill="white"/>
<path d="M401.185 43.4189H388.113V56.491H401.185V43.4189Z" fill="white"/>
<path d="M430.603 43.4189H417.531V56.491H430.603V43.4189Z" fill="white"/>
<path d="M471.338 57.8926H458.266V70.9646H471.338V57.8926Z" fill="white"/>
<path d="M486.092 57.8926H473.02V70.9646H486.092V57.8926Z" fill="white"/>
<path d="M500.756 57.8926H487.684V70.9646H500.756V57.8926Z" fill="white"/>
<path d="M515.506 57.8926H502.434V70.9646H515.506V57.8926Z" fill="white"/>
<path d="M471.338 86.9277H458.266V99.9997H471.338V86.9277Z" fill="white"/>
<path d="M486.092 86.9277H473.02V99.9997H486.092V86.9277Z" fill="white"/>
<path d="M500.756 86.9277H487.684V99.9997H500.756V86.9277Z" fill="white"/>
<path d="M515.506 86.9277H502.434V99.9997H515.506V86.9277Z" fill="white"/>
<path d="M456.588 72.3652H443.516V85.4372H456.588V72.3652Z" fill="white"/>
<path d="M471.338 72.3652H458.266V85.4372H471.338V72.3652Z" fill="white"/>
<path d="M500.756 72.3652H487.684V85.4372H500.756V72.3652Z" fill="white"/>
<path d="M515.506 72.3652H502.434V85.4372H515.506V72.3652Z" fill="white"/>
<path d="M500.756 43.4189H487.684V56.491H500.756V43.4189Z" fill="white"/>
<path d="M515.506 43.4189H502.434V56.491H515.506V43.4189Z" fill="white"/>
<path d="M486.006 28.9463H472.934V42.0183H486.006V28.9463Z" fill="white"/>
<path d="M471.338 28.9463H458.266V42.0183H471.338V28.9463Z" fill="white"/>
<path d="M500.756 28.9463H487.684V42.0183H500.756V28.9463Z" fill="white"/>
<path d="M556.404 28.9463H543.332V42.0183H556.404V28.9463Z" fill="white"/>
<path d="M541.74 28.9463H528.668V42.0183H541.74V28.9463Z" fill="white"/>
<path d="M571.154 28.9463H558.082V42.0183H571.154V28.9463Z" fill="white"/>
<path d="M615.322 28.9463H602.25V42.0183H615.322V28.9463Z" fill="white"/>
<path d="M600.658 28.9463H587.586V42.0183H600.658V28.9463Z" fill="white"/>
<path d="M630.072 28.9463H617V42.0183H630.072V28.9463Z" fill="white"/>
<path d="M541.74 57.8926H528.668V70.9646H541.74V57.8926Z" fill="white"/>
<path d="M556.49 57.8926H543.418V70.9646H556.49V57.8926Z" fill="white"/>
<path d="M541.74 86.9277H528.668V99.9997H541.74V86.9277Z" fill="white"/>
<path d="M556.49 86.9277H543.418V99.9997H556.49V86.9277Z" fill="white"/>
<path d="M541.74 72.3652H528.668V85.4372H541.74V72.3652Z" fill="white"/>
<path d="M556.49 72.3652H543.418V85.4372H556.49V72.3652Z" fill="white"/>
<path d="M541.74 43.4189H528.668V56.491H541.74V43.4189Z" fill="white"/>
<path d="M556.49 43.4189H543.418V56.491H556.49V43.4189Z" fill="white"/>
<path d="M585.908 57.8926H572.836V70.9646H585.908V57.8926Z" fill="white"/>
<path d="M600.658 57.8926H587.586V70.9646H600.658V57.8926Z" fill="white"/>
<path d="M585.908 86.9277H572.836V99.9997H585.908V86.9277Z" fill="white"/>
<path d="M600.658 86.9277H587.586V99.9997H600.658V86.9277Z" fill="white"/>
<path d="M585.908 72.3652H572.836V85.4372H585.908V72.3652Z" fill="white"/>
<path d="M600.658 72.3652H587.586V85.4372H600.658V72.3652Z" fill="white"/>
<path d="M585.908 43.4189H572.836V56.491H585.908V43.4189Z" fill="white"/>
<path d="M600.658 43.4189H587.586V56.491H600.658V43.4189Z" fill="white"/>
<path d="M630.072 57.8926H617V70.9646H630.072V57.8926Z" fill="white"/>
<path d="M630.072 86.9277H617V99.9997H630.072V86.9277Z" fill="white"/>
<path d="M644.826 86.9277H631.754V99.9997H644.826V86.9277Z" fill="white"/>
<path d="M630.072 72.3652H617V85.4372H630.072V72.3652Z" fill="white"/>
<path d="M644.826 72.3652H631.754V85.4372H644.826V72.3652Z" fill="white"/>
<path d="M630.072 43.4189H617V56.491H630.072V43.4189Z" fill="white"/>
<path d="M644.826 43.4189H631.754V56.491H644.826V43.4189Z" fill="white"/>
<path d="M644.525 57.8926H631.453V70.9646H644.525V57.8926Z" fill="white"/>
<path d="M669.232 57.8926H656.16V70.9646H669.232V57.8926Z" fill="white"/>
<path d="M683.982 57.8926H670.91V70.9646H683.982V57.8926Z" fill="white"/>
<path d="M698.65 28.9463H685.578V42.0183H698.65V28.9463Z" fill="white"/>
<path d="M683.982 28.9463H670.91V42.0183H683.982V28.9463Z" fill="white"/>
<path d="M713.4 28.9463H700.328V42.0183H713.4V28.9463Z" fill="white"/>
<path d="M713.4 43.4189H700.328V56.491H713.4V43.4189Z" fill="white"/>
<path d="M728.15 43.4189H715.078V56.491H728.15V43.4189Z" fill="white"/>
<path d="M669.232 43.4189H656.16V56.491H669.232V43.4189Z" fill="white"/>
<path d="M683.982 43.4189H670.91V56.491H683.982V43.4189Z" fill="white"/>
<path d="M669.232 72.3652H656.16V85.4372H669.232V72.3652Z" fill="white"/>
<path d="M683.982 72.3652H670.91V85.4372H683.982V72.3652Z" fill="white"/>
<path d="M698.65 57.8926H685.578V70.9646H698.65V57.8926Z" fill="white"/>
<path d="M713.4 57.8926H700.328V70.9646H713.4V57.8926Z" fill="white"/>
<path d="M728.15 57.8926H715.078V70.9646H728.15V57.8926Z" fill="white"/>
<path d="M683.982 86.9277H670.91V99.9997H683.982V86.9277Z" fill="white"/>
<path d="M698.65 86.9277H685.578V99.9997H698.65V86.9277Z" fill="white"/>
<path d="M713.4 86.9277H700.328V99.9997H713.4V86.9277Z" fill="white"/>
<path d="M755.47 57.8926H742.398V70.9646H755.47V57.8926Z" fill="white"/>
<path d="M770.134 57.8926H757.062V70.9646H770.134V57.8926Z" fill="white"/>
<path d="M755.47 43.4189H742.398V56.491H755.47V43.4189Z" fill="white"/>
<path d="M770.134 43.4189H757.062V56.491H770.134V43.4189Z" fill="white"/>
<path d="M784.884 57.8926H771.812V70.9646H784.884V57.8926Z" fill="white"/>
<path d="M799.638 57.8926H786.566V70.9646H799.638V57.8926Z" fill="white"/>
<path d="M770.134 28.9463H757.062V42.0183H770.134V28.9463Z" fill="white"/>
<path d="M784.884 28.9463H771.812V42.0183H784.884V28.9463Z" fill="white"/>
<path d="M799.638 28.9463H786.566V42.0183H799.638V28.9463Z" fill="white"/>
<path d="M728.15 86.9277H715.078V99.9997H728.15V86.9277Z" fill="white"/>
<path d="M755.384 86.9277H742.312V99.9997H755.384V86.9277Z" fill="white"/>
<path d="M770.134 86.9277H757.062V99.9997H770.134V86.9277Z" fill="white"/>
<path d="M784.884 86.9277H771.812V99.9997H784.884V86.9277Z" fill="white"/>
<path d="M784.884 72.3652H771.812V85.4372H784.884V72.3652Z" fill="white"/>
<path d="M799.638 72.3652H786.566V85.4372H799.638V72.3652Z" fill="white"/>
</g>
<defs>
<clipPath id="clip0_4_5052">
<rect width="799.64" height="100" fill="white"/>
</clipPath>
</defs>
</svg>
