<svg width="850" height="100" viewBox="0 0 850 100" fill="none" xmlns="http://www.w3.org/2000/svg">
<g clip-path="url(#clip0_4_7231)">
<path d="M0 0V100H231.25L250 81.25L268.75 100H581.25L600 81.25V0H518.75L500 18.75V0H400V18.75L381.25 0H200.104L200 18.75L181.354 0H118.75L100 18.75V62.5H75V25L50 0H0ZM12.5 12.5H37.5V75H87.5V87.5H12.5V12.5ZM125 12.5H175L187.5 25V75L175 87.5H125L112.5 75V25L125 12.5ZM212.5 12.5H237.5V50L250.104 37.3962L262.5 49.8962V12.5H287.5V87.5H275L250 62.5L225 87.5H212.5V12.5ZM312.5 12.5H375L387.5 25V37.5L375 50H362.5L387.5 75V87.5H368.75L337.5 56.25V87.5H312.5V12.5ZM412.5 12.5H487.5V25H437.5V37.5H462.5V50H437.5V75H487.5V87.5H412.5V12.5ZM525 12.5H587.5V25H537.5V37.5H575L587.5 50V75L575 87.5H512.5V75H562.5V50H525L512.5 37.5V25L525 12.5ZM137.5 25V75H162.5V25H137.5ZM337.5 25V37.5H362.5V25H337.5Z" fill="white"/>
<mask id="mask0_4_7231" style="mask-type:luminance" maskUnits="userSpaceOnUse" x="644" y="-6" width="212" height="112">
<path d="M644.793 -5.20801H855.21V105.209H644.793V-5.20801ZM712.501 12.5003V37.5003L687.501 12.5003H662.501V87.5003H687.501V50.0003L712.501 75.0003V87.5003H737.501V12.5003H712.501ZM837.501 12.5003H812.501L800.105 25.0003L787.501 12.5003H762.501V25.0003L781.251 43.7503L762.501 62.5003V87.5003H787.501V68.6462L800.001 56.2503L812.501 68.6462V87.5003H837.501V62.5003L818.751 43.7503L837.501 25.0003V12.5003Z" fill="white"/>
</mask>
<g mask="url(#mask0_4_7231)">
<path d="M850 0H650V100H850V56.25L837.5 43.75L850 31.25V0Z" fill="white"/>
</g>
</g>
<defs>
<clipPath id="clip0_4_7231">
<rect width="850" height="100" fill="white"/>
</clipPath>
</defs>
</svg>
