<svg width="291" height="100" viewBox="0 0 291 100" fill="none" xmlns="http://www.w3.org/2000/svg">
<g clip-path="url(#clip0_4_5233)">
<path d="M133.422 28.9336H137.77V66.31H160.807V70.0707H133.422V28.9336Z" fill="white"/>
<path d="M194.541 39.1582V70.0697H190.544V64.428C189.448 66.309 187.94 67.7777 186.02 68.8356C184.1 69.8545 181.905 70.364 179.437 70.364C175.402 70.364 172.209 69.2479 169.858 67.0142C167.547 64.7417 166.391 61.4308 166.391 57.0829V39.1582H170.564V56.6706C170.564 59.9232 171.367 62.3914 172.974 64.0754C174.58 65.7606 176.872 66.6033 179.849 66.6033C183.101 66.6033 185.667 65.6232 187.547 63.6645C189.428 61.6668 190.368 58.9043 190.368 55.3782V39.1582H194.541Z" fill="white"/>
<path d="M222.512 68.1901C221.728 68.8953 220.749 69.4437 219.573 69.8352C218.438 70.1877 217.243 70.364 215.989 70.364C213.089 70.364 210.857 69.5811 209.289 68.0138C207.722 66.4465 206.938 64.2323 206.938 61.3726V42.6843H201.414V39.1583H206.938V32.4004H211.111V39.1583H220.513V42.6843H211.111V61.138C211.111 62.9787 211.562 64.3892 212.463 65.3692C213.403 66.3091 214.735 66.7797 216.458 66.7797C217.32 66.7797 218.144 66.6422 218.926 66.3674C219.75 66.0939 220.455 65.7024 221.042 65.1929L222.512 68.1901Z" fill="white"/>
<path d="M234.089 45.2111C235.069 43.1357 236.518 41.5684 238.438 40.5105C240.397 39.4527 242.807 38.9238 245.667 38.9238V42.9788L244.667 42.9191C241.416 42.9191 238.869 43.9186 237.028 45.9163C235.186 47.9153 234.265 50.7168 234.265 54.3206V70.0699H230.094V39.1584H234.089V45.2111Z" fill="white"/>
<path d="M253.19 39.1587H257.363V70.0702H253.19V39.1587ZM255.305 32.4009C254.445 32.4009 253.719 32.1066 253.132 31.5194C252.544 30.9308 252.25 30.2255 252.25 29.4037C252.25 28.6193 252.544 27.9336 253.132 27.3464C253.719 26.7591 254.445 26.4648 255.305 26.4648C256.168 26.4648 256.892 26.7591 257.481 27.3464C258.068 27.8947 258.362 28.5611 258.362 29.344C258.362 30.2061 258.068 30.9308 257.481 31.5194C256.892 32.1066 256.168 32.4009 255.305 32.4009Z" fill="white"/>
<path d="M277.283 70.3642C274.776 70.3642 272.366 70.0116 270.054 69.3064C267.782 68.5623 265.999 67.6419 264.707 66.5439L266.587 63.2538C267.88 64.2727 269.506 65.114 271.465 65.7804C273.424 66.4078 275.462 66.7201 277.577 66.7201C280.398 66.7201 282.475 66.2898 283.806 65.4277C285.178 64.5268 285.864 63.2732 285.864 61.667C285.864 60.5301 285.491 59.6486 284.746 59.0225C284.002 58.3561 283.062 57.8661 281.925 57.5523C280.79 57.1997 279.281 56.868 277.401 56.5542C274.894 56.0836 272.875 55.613 271.347 55.1438C269.82 54.6343 268.507 53.7916 267.41 52.6158C266.352 51.4414 265.823 49.8158 265.823 47.739C265.823 45.1528 266.9 43.0371 269.055 41.3921C271.211 39.7456 274.208 38.9238 278.046 38.9238C280.045 38.9238 282.043 39.1973 284.041 39.7456C286.04 40.2551 287.685 40.9409 288.977 41.803L287.156 45.1528C284.61 43.3897 281.573 42.5082 278.046 42.5082C275.382 42.5082 273.365 42.9788 271.994 43.9186C270.662 44.8584 269.996 46.0926 269.996 47.621C269.996 48.7968 270.368 49.7367 271.112 50.4419C271.897 51.1471 272.856 51.676 273.991 52.0286C275.128 52.3424 276.696 52.6756 278.693 53.0281C281.162 53.4974 283.14 53.9679 284.629 54.4386C286.118 54.9078 287.391 55.7116 288.448 56.8471C289.506 57.9841 290.035 59.5514 290.035 61.549C290.035 64.2519 288.9 66.4078 286.627 68.014C284.393 69.5813 281.28 70.3642 277.283 70.3642Z" fill="white"/>
<path fill-rule="evenodd" clip-rule="evenodd" d="M38.4371 1.43554C42.8051 0.424079 46.3973 -0.0893617 49.9614 0.0127787C53.5255 0.114919 57.0618 0.832364 61.3087 2.28919C62.5831 3.05604 63.6547 3.78029 64.5614 4.39313C67.2615 6.21798 68.4998 7.05495 69.2793 5.08728C71.2566 0.0954504 74.2558 5.37499 74.2558 5.37499C74.3684 6.08162 74.9358 5.9729 76.0463 5.7601C78.4241 5.30445 83.2922 4.37162 91.5185 9.94362C91.7468 10.0983 91.9976 10.2492 92.2622 10.4085C94.3428 11.6612 97.2751 13.4266 96.827 21.5185C96.8175 21.6905 96.8181 21.8562 96.827 22.0161C96.7484 22.0035 96.6682 21.9971 96.5868 21.9971C95.5443 21.9971 94.6992 23.0591 94.6992 24.3692C94.6992 25.6792 95.5443 26.7412 96.5868 26.7412C96.8595 26.7412 97.1187 26.6686 97.3528 26.5378C98.4266 28.3705 99.0119 30.4759 98.9864 32.8658C98.6977 38.7705 92.651 41.6535 87.87 40.2199C84.753 39.159 81.9177 37.9999 79.1343 36.862C71.4191 33.708 64.1024 30.717 52.2915 30.4313C45.8231 30.5182 36.2056 32.903 28.405 46.3662C21.1939 63.5479 30.1468 82.6527 47.8273 88.4924C54.0231 90.4169 60.2849 90.2786 66.1808 88.4229C78.7896 82.7554 87.4804 70.9007 84.6988 54.3558C84.3616 52.1467 86.0925 50.1319 88.5624 49.863C91.0322 49.5942 93.3111 51.1712 93.6495 53.382C94.5122 61.1454 93.0408 73.1128 87.3736 81.4103C81.6232 89.4734 72.4202 95.2855 60.7996 98.945C52.0438 100.973 41.5623 99.9395 33.0685 97.0258C16.991 91.5371 5.25257 78.9223 1.47383 62.1556C-0.526488 53.2804 -0.679755 42.9393 2.1947 34.3297C7.60957 18.0329 21.896 5.26582 38.4371 1.43554ZM62.9844 11.7078C57.6641 9.88157 51.6221 8.58959 45.867 8.76748C43.9487 8.82677 42.0631 9.04849 40.2455 9.46937C26.458 12.662 14.4205 23.3863 9.89339 36.9634C7.49115 44.1537 7.73164 52.9325 9.39701 60.3219C12.5467 74.2974 22.2731 84.6308 35.6674 89.2196C35.9012 89.2999 36.1445 89.3714 36.3879 89.443L36.3881 89.4431L36.3884 89.4432L36.3892 89.4434C36.5382 89.4872 36.6872 89.5311 36.8341 89.5769C24.1749 80.6584 16.8969 62.645 22.5623 44.4945C29.6755 24.7957 58.8861 15.3506 79.0615 17.557C72.2984 7.61489 72.067 8.06601 71.1551 9.84424C70.3825 11.3509 69.1212 13.8103 62.9844 11.7078ZM86.6088 21.7655C86.6088 23.7971 84.9786 25.4441 82.9675 25.4441C80.9565 25.4441 79.3262 23.7971 79.3262 21.7655C79.3262 19.7339 80.9565 18.0869 82.9675 18.0869C84.9786 18.0869 86.6088 19.7339 86.6088 21.7655ZM93.1883 29.3199C94.2078 28.8253 94.6805 28 94.6805 28C94.6805 28 97.9707 29.5792 98.0403 31.8608C98.1098 33.335 96.794 35.0327 95.1262 35.1029C93.4584 35.1731 89.8794 32.6926 91.3445 29.7217C91.7864 29.2681 92.2469 29.3141 92.6308 29.3523C92.8464 29.3738 93.0378 29.3929 93.1883 29.3199Z" fill="white"/>
<path d="M97.9744 24.3692C97.9744 25.5157 97.2527 26.2412 96.5868 26.2412C95.921 26.2412 95.1992 25.5157 95.1992 24.3692C95.1992 23.2226 95.921 22.4971 96.5868 22.4971C97.2527 22.4971 97.9744 23.2226 97.9744 24.3692Z" stroke="white"/>
</g>
<defs>
<clipPath id="clip0_4_5233">
<rect width="291" height="100" fill="white"/>
</clipPath>
</defs>
</svg>
