<svg width="271" height="100" viewBox="0 0 271 100" fill="none" xmlns="http://www.w3.org/2000/svg">
<g clip-path="url(#clip0_4_5240)">
<path d="M23.0621 82.1179H12.7308V63.928H10.2346V84.4682H16.6888H23.0621V82.1179ZM25.5996 69.7991C25.5996 73.8027 25.5361 77.7019 25.6295 81.5973C25.6683 83.2193 26.7337 84.2856 28.2585 84.7854C30.9444 85.6653 33.2999 85.0054 35.5311 82.7902C35.4178 84.9726 36.5861 84.4781 37.6334 84.3729V69.8413H35.121C35.121 72.5292 35.185 75.0914 35.0902 77.6474C35.0504 78.717 34.8465 79.8521 34.4117 80.8202C33.6906 82.4285 31.933 83.1259 30.266 82.7447C28.4164 82.3227 28.1845 80.9525 28.1983 79.3713C28.2263 76.2089 28.2064 73.0464 28.2064 69.7991H25.5996ZM40.8765 74.2853C42.0025 73.9748 43.2599 73.9686 43.4458 73.5201C44.4571 71.0731 46.4318 71.5164 48.2766 71.716C49.4842 71.8464 50.2414 72.606 50.1888 73.9781C50.1371 75.3057 49.205 75.5005 48.2013 75.6869C46.4622 76.0088 44.6737 76.1904 43.0058 76.7352C41.0049 77.3885 40.1563 78.947 40.27 81.017C40.3786 82.9861 41.5436 84.3373 43.5657 84.9162C46.0307 85.6222 48.1031 84.7071 49.4307 83.7598C51.0783 84.3146 52.2266 84.7564 53.411 85.0532C53.6471 85.112 54.2194 84.6583 54.2848 84.3639C54.3753 83.9528 54.2061 83.107 54.025 83.0714C52.4594 82.7651 52.8387 81.5803 52.8264 80.6021C52.7984 78.3993 52.8216 76.1951 52.8169 73.9919C52.8107 71.1167 51.8269 69.902 49.1358 69.4303C45.1815 68.7362 42.0101 69.8769 41.197 72.3144C41.0481 72.7601 41.0381 73.2522 40.8765 74.2853ZM44.568 64.7094C49.7583 64.6923 53.9183 60.5176 53.8614 55.3828C53.804 50.2177 49.6383 46.1648 44.4239 46.2013C39.3403 46.2374 35.2708 50.3305 35.241 55.4378C35.2106 60.5774 39.3849 64.7269 44.568 64.7094ZM31.5456 99.9996C14.2992 100.1 0.0986543 86.0186 0.000509966 68.7196C-0.0971603 51.303 13.8469 37.1977 31.3252 37.0336C48.5701 36.871 62.8646 50.9644 62.9594 68.2222C63.0557 85.7772 49.0974 99.8977 31.5456 99.9996Z" fill="white"/>
<path d="M53.8555 36.9262C53.8712 31.7706 57.8823 27.8239 63.0849 27.8448C68.2097 27.8657 72.2602 31.956 72.2223 37.0742C72.1848 42.1265 68.0049 46.2334 62.9317 46.2007C57.8183 46.1684 53.8403 42.1037 53.8555 36.9262Z" fill="white"/>
<path d="M50.0144 77.3184C50.5369 81.3243 48.4062 83.6024 44.9294 82.6912C44.1547 82.4878 43.0699 81.5281 43.0476 80.8852C43.0201 80.0963 43.792 78.8294 44.515 78.5558C46.2536 77.8992 48.1658 77.7024 50.0144 77.3184Z" fill="white"/>
<path d="M67.1602 77.2801C67.4399 72.2577 69.9153 69.5732 74.5874 69.2285C79.3438 69.4627 81.9335 71.5574 82.3559 75.5135L77.252 75.4941C76.9594 73.6076 76.4644 72.3611 75.7689 71.7561C75.0724 71.1378 74.3631 71.2421 73.641 72.0685C72.9251 72.8945 72.5477 74.5895 72.5083 77.1536C72.4372 80.5436 72.788 82.4624 73.5628 82.9118C74.337 83.3537 75.1179 83.2987 75.905 82.7459C76.6925 82.1931 77.1154 81.0376 77.1737 79.281L74.5091 79.271L74.4802 77.1246H82.327C81.9496 81.5421 80.4632 84.0801 77.8669 84.7367C75.2711 85.3939 72.899 85.2118 70.7517 84.1901C68.6048 83.1688 67.4077 80.8655 67.1602 77.2801Z" fill="white"/>
<path d="M90.298 75.2123C89.0748 75.2645 88.4404 76.2109 88.3949 78.0524V80.9995C88.4921 82.8083 89.1397 83.7552 90.3369 83.84C91.508 83.7163 92.0841 83.1924 92.0646 82.2683V77.1255C92.1552 75.9605 91.5668 75.3228 90.298 75.2123ZM92.0058 74.1773L96.583 74.1873V74.9976V76.3635V77.281V79.1064V80.4827V82.3077V83.2251V85.1576H91.9959L91.9864 84.7864C91.6284 85.0661 90.5384 85.1738 88.7163 85.1083C86.8558 85.0695 85.4894 84.4773 84.618 83.3323C83.746 82.1806 83.3648 80.9313 83.4758 79.5847C83.4952 78.3487 83.8432 77.226 84.5198 76.2175C85.1969 75.209 86.4917 74.4637 88.4043 73.9825C90.2198 73.8587 91.4203 74.0441 92.0058 74.5391V74.1773Z" fill="white"/>
<path d="M104.521 73.9228C106.85 73.552 108.314 74.2741 108.912 76.0895C109.225 75.2698 110.257 74.4988 112.007 73.7763C115.065 73.3273 116.711 74.46 116.945 77.1729V85.088L113.11 85.0686L113.139 78.5493C113.178 77.0591 112.563 76.346 111.294 76.4115C110.194 76.2488 109.401 76.7727 108.912 77.9832V85.1364H107.341H106.551H105.76H104.97V77.6513C104.97 76.6623 104.391 76.1156 103.233 76.0113C102.42 75.9397 101.808 76.3304 101.398 77.1824V79.0566V79.9835V82.3262V83.2631V85.1364H99.4264H98.6356H97.8452H97.3867V74.3722H98.6356H99.4264H100.217H101.417L101.408 75.6794C102.286 74.6648 103.324 74.0788 104.521 73.9228Z" fill="white"/>
<path d="M123.99 75.2115C122.859 75.2698 122.276 76.1446 122.243 77.8368H123.932H124.781H125.63C125.618 76.2228 125.071 75.3481 123.99 75.2115ZM123.932 74.0205C127.778 74.1381 129.791 75.9758 129.973 79.5346H128.598H127.748H125.63H124.781H123.513H122.243C122.185 81.8967 122.472 83.2342 123.102 83.5457C123.733 83.8515 124.358 83.8131 124.976 83.4291C125.607 83.045 125.858 82.1703 125.728 80.8038H127.328H128.178H129.027H129.876C129.297 83.1394 128.08 84.5058 126.226 84.9027C124.371 85.2995 122.63 85.1829 121.004 84.5518C119.384 83.9141 118.33 82.4567 117.842 80.1789L117.832 79.418C118.313 75.9824 120.347 74.1831 123.932 74.0205Z" fill="white"/>
<path d="M134.492 69.502H138.913H147.336V72.5956L138.913 72.5862V76.1094H145.599V78.5004H138.913V85.1079H134.492V69.502Z" fill="white"/>
<path d="M155.29 74.3136C158.316 74.06 159.825 75.1723 159.819 77.6515H156.305C156.332 76.5326 155.638 75.9954 154.227 76.0414C153.459 76.2102 153.071 76.5904 153.065 77.1831V79.0568V79.9842V82.3264V83.2633V85.1375H150.733H149.796H148.859H148.312V74.3724H149.796H150.733H151.669H153.085L153.075 75.6796C153.569 74.9774 154.308 74.5218 155.29 74.3136Z" fill="white"/>
<path d="M167.383 75.2123C166.16 75.2645 165.526 76.2109 165.481 78.0524V80.9995C165.578 82.8083 166.226 83.7552 167.423 83.84C168.594 83.7163 169.17 83.1924 169.151 82.2683V77.1255C169.241 75.9605 168.653 75.3228 167.383 75.2123ZM169.092 74.1773L173.669 74.1873V74.9976V76.3635V77.281V79.1064V80.4827V82.3077V83.2251V85.1576H169.082L169.072 84.7864C168.714 85.0661 167.624 85.1738 165.802 85.1083C163.941 85.0695 162.575 84.4773 161.703 83.3323C160.832 82.1806 160.451 80.9313 160.562 79.5847C160.581 78.3487 160.929 77.226 161.606 76.2175C162.283 75.209 163.578 74.4637 165.49 73.9825C167.305 73.8587 168.506 74.0441 169.092 74.5391V74.1773Z" fill="white"/>
<path d="M181.603 73.9228C183.932 73.552 185.396 74.2741 185.995 76.0895C186.307 75.2698 187.339 74.4988 189.089 73.7763C192.147 73.3273 193.793 74.46 194.027 77.1729V85.088L190.192 85.0686L190.221 78.5493C190.26 77.0591 189.645 76.346 188.377 76.4115C187.277 76.2488 186.483 76.7727 185.995 77.9832V85.1364H184.424H183.633H182.842H182.052V77.6513C182.052 76.6623 181.473 76.1156 180.315 76.0113C179.502 75.9397 178.89 76.3304 178.48 77.1824V79.0566V79.9835V82.3262V83.2631V85.1364H176.509H175.718H174.928H174.469V74.3722H175.718H176.509H177.299H178.499L178.49 75.6794C179.368 74.6648 180.406 74.0788 181.603 73.9228Z" fill="white"/>
<path d="M201.072 75.2115C199.941 75.2698 199.358 76.1446 199.325 77.8368H201.014H201.863H202.713C202.699 76.2228 202.153 75.3481 201.072 75.2115ZM201.014 74.0205C204.859 74.1381 206.873 75.9758 207.056 79.5346H205.679H204.83H202.713H201.863H200.594H199.325C199.267 81.8967 199.553 83.2342 200.184 83.5457C200.816 83.8515 201.44 83.8131 202.058 83.4291C202.689 83.045 202.94 82.1703 202.81 80.8038H204.41H205.26H206.108H206.958C206.378 83.1394 205.162 84.5058 203.308 84.9027C201.453 85.2995 199.713 85.1829 198.086 84.5518C196.466 83.9141 195.412 82.4567 194.924 80.1789L194.914 79.418C195.395 75.9824 197.429 74.1831 201.014 74.0205Z" fill="white"/>
<path d="M207.836 73.8066H212.286L214.219 80.9214L216.649 73.8066H220.797L223.325 80.9214L225.257 73.8066H229.669L225.257 85.1084H221.168L218.738 78.3061L216.395 85.1084H212.286L207.836 73.8066Z" fill="white"/>
<path d="M236.939 75.3673C235.645 75.4066 234.98 76.2525 234.949 77.9053V81.1649C235.039 82.7788 235.716 83.6275 236.978 83.7119C238.228 83.5948 238.839 82.7267 238.813 81.1061V77.9442C238.781 76.2392 238.156 75.3805 236.939 75.3673ZM230.527 79.1736C230.696 77.2282 231.363 75.8684 232.528 75.0942C233.693 74.3195 235.091 73.9586 236.725 74.0108H237.447C239.229 74.1023 240.622 74.575 241.624 75.4308C242.626 76.2866 243.196 77.5241 243.332 79.1446C243.378 81.1549 242.818 82.6129 241.653 83.517C240.495 84.4084 239.083 84.9385 237.418 85.1078H236.666C234.526 84.9447 232.98 84.3852 232.03 83.4289C231.087 82.4858 230.586 81.0672 230.527 79.1736Z" fill="white"/>
<path d="M251.209 74.3136C254.234 74.06 255.744 75.1723 255.737 77.6515H252.224C252.25 76.5326 251.557 75.9954 250.145 76.0414C249.377 76.2102 248.99 76.5904 248.983 77.1831V79.0568V79.9842V82.3264V83.2633V85.1375H246.651H245.714H244.777H244.23V74.3724H245.714H246.651H247.587H249.003L248.993 75.6796C249.488 74.9774 250.226 74.5218 251.209 74.3136Z" fill="white"/>
<path d="M261.253 85.1374H258.92H257.984H257.047H256.5V74.3724L256.519 69.541H261.263L261.253 76.129L265.323 71.0146H267.782L264.64 75.1917L270.613 85.1664H265.45L261.653 79.0861L261.312 79.4963L261.253 85.1374Z" fill="white"/>
<path d="M155.98 0.405113C154.84 0.901999 153.934 1.92469 153.35 3.26884C152.999 4.17443 152.911 5.75232 152.911 11.9762V19.5736H150.662C147.622 19.5736 146.191 20.2748 145.022 22.3198C143.883 24.2485 143.883 25.7093 144.964 27.7841C146.074 29.9461 147.535 30.6772 150.603 30.6772H152.882L152.97 43.2999C153.087 55.3968 153.116 56.0397 153.73 57.8807C154.956 61.5334 157.937 65.1562 161.005 66.7047C164.278 68.3708 169.654 68.9843 173.453 68.1366C176.55 67.4064 178.186 65.2439 177.982 62.0886C177.836 59.8678 176.96 58.5237 174.973 57.5593C173.541 56.8576 172.605 56.8576 169.479 57.5299C167.667 57.9395 165.389 57.2084 164.482 56.0108C163.898 55.1924 163.869 54.8127 163.781 42.9201L163.694 30.6772H167.726C173.219 30.6478 174.359 30.1509 175.732 27.0534C176.17 26.0601 176.317 25.2712 176.2 24.5116C175.995 22.8754 174.621 21.0055 173.073 20.2161C171.933 19.6315 171.349 19.5736 167.755 19.5736H163.752L163.665 11.4504L163.577 3.29776L162.729 2.21675C161.24 0.258608 158.171 -0.559262 155.98 0.405113Z" fill="white"/>
<path d="M81.76 1.42727C80.357 2.07066 79.7435 2.71311 79.13 4.17389C78.7502 5.10887 78.6914 8.84926 78.6914 34.6797C78.6914 62.1464 78.7208 64.1918 79.2177 65.1263C81.0289 68.75 86.3178 69.071 88.5386 65.7114L89.3569 64.4549V34.9429C89.3569 18.6964 89.2692 5.05103 89.1526 4.61246C88.5974 2.71311 86.0845 0.87207 84.0391 0.87207C83.4251 0.87207 82.4029 1.13521 81.76 1.42727Z" fill="white"/>
<path d="M199.514 19.6894C192.648 21.2967 187.71 25.1537 185.43 30.7347C183.765 34.8544 183.59 36.6072 183.59 50.8088C183.59 63.4898 183.59 63.8406 184.203 65.0971C185.489 67.7266 188.82 68.8375 191.479 67.4933C192.852 66.7916 193.7 65.6523 194.08 63.9573C194.255 63.1977 194.401 57.529 194.401 50.0781C194.401 38.1856 194.43 37.426 195.014 35.731C195.745 33.5396 197.206 31.7863 198.843 31.114C200.508 30.4422 204.073 30.2373 206.177 30.6759C208.164 31.0851 209.625 32.1955 210.53 34.0066C211.758 36.4906 213.423 37.6892 215.586 37.6892C217.339 37.6892 218.595 37.1335 219.735 35.8482C221.809 33.4813 221.693 31.1439 219.355 27.6955C215.76 22.3777 210.822 19.6605 204.365 19.3974C202.349 19.3386 200.654 19.4263 199.514 19.6894Z" fill="white"/>
<path d="M102.213 20.069C100.869 20.7703 100.284 21.3843 99.7002 22.6407C99.2033 23.7217 99.1445 24.8316 99.1445 37.0456C99.1445 48.0326 99.2323 50.6621 99.6125 52.5325C100.46 56.6522 101.921 59.3993 104.959 62.6424C107.093 64.8926 109.518 66.4411 112.411 67.4054C114.485 68.0773 115.245 68.165 118.722 68.1944C122.229 68.1944 122.93 68.1067 125.004 67.4054C131.52 65.2429 135.874 60.5387 137.774 53.6135C138.387 51.3927 138.416 50.6043 138.534 37.9811C138.65 23.8094 138.591 23.2248 137.218 21.6175C134.501 18.374 129.592 19.1924 127.926 23.1371C127.547 24.0726 127.488 26.1469 127.488 37.2211C127.488 49.4645 127.459 50.3117 126.875 52.1229C125.676 56.0676 122.842 57.792 117.992 57.4995C114.339 57.2662 112.469 56.0098 111.008 52.8829C110.424 51.6265 110.395 50.984 110.248 37.3671L110.103 23.1665L109.314 21.9978C107.882 19.8358 104.405 18.9003 102.213 20.069Z" fill="white"/>
<path d="M254.244 31.2609C255.91 31.9621 257.458 33.5106 258.394 35.3223C260.614 39.6762 260.322 49.465 257.868 53.4681C256.29 56.0393 253.309 57.5589 249.92 57.5589C245.01 57.5589 241.826 54.8705 240.686 49.7277C240.044 46.8644 240.219 39.4135 240.978 37.251C242.118 34.0075 243.842 32.1665 246.881 30.9399C248.78 30.1799 252.082 30.3259 254.244 31.2609ZM245.742 20.0407C239.137 21.5015 233.586 26.3518 231.307 32.634C229.963 36.3744 229.641 38.3908 229.641 43.8253C229.612 51.3061 230.693 55.6595 233.674 60.1594C236.157 63.8704 239.751 66.4122 244.368 67.6691C246.998 68.3993 252.871 68.3993 255.472 67.6981C260.994 66.1785 265.407 62.5846 267.861 57.5589C269.497 54.1399 270.315 50.7215 270.549 45.9878C271.28 32.8971 265.494 22.9627 255.617 20.3327C253.046 19.631 248.167 19.4855 245.742 20.0407Z" fill="white"/>
</g>
<defs>
<clipPath id="clip0_4_5240">
<rect width="270.611" height="100" fill="white"/>
</clipPath>
</defs>
</svg>
