<svg width="384" height="100" viewBox="0 0 384 100" fill="none" xmlns="http://www.w3.org/2000/svg">
<g clip-path="url(#clip0_4_5268)">
<path d="M55.2864 15.9549C57.1024 13.7298 58.5193 11.3051 59.4573 8.61106C60.465 5.65755 60.8043 2.82379 60.465 0C57.9705 0.129715 55.3463 0.878068 52.5824 2.28497C49.8185 3.69188 47.6033 5.44801 45.7774 7.53343C43.9514 9.61884 42.6143 11.9737 41.6065 14.538C40.4591 17.5713 40.0599 20.3253 40.4591 23.0194C43.1531 23.2189 45.8472 22.6202 48.671 21.2034C51.2453 19.9361 53.4704 18.18 55.2864 15.9549Z" fill="white"/>
<path d="M26.3321 99.9998C27.6791 99.93 29.096 99.6606 30.443 99.2614C31.1116 99.0619 32.259 98.5929 34.0152 97.8446C35.4919 97.2359 36.7092 96.7669 37.7869 96.4975C39.3335 96.0984 40.9499 95.8889 42.6362 95.8889C44.3225 95.8889 45.9389 96.0884 47.4855 96.4975C48.4235 96.7669 49.7106 97.2359 51.2572 97.9144C52.8038 98.5829 54.0212 98.992 54.8294 99.2614C56.2463 99.6606 57.6532 99.8701 59.1399 99.8003C61.2951 99.8003 63.3107 99.1916 65.1966 97.9843C66.813 96.9066 68.4295 95.4299 70.1157 93.4043C71.1934 92.1271 72.6103 90.1714 74.4263 87.5472C76.382 84.5837 78.1281 81.4207 79.6148 77.9184C80.1537 76.6412 80.7623 75.0946 81.3011 73.3385C80.2235 72.9393 79.076 72.3307 77.7988 71.4526C75.1746 69.7065 73.0194 67.5512 71.4029 65.0567C69.1179 61.6242 67.9705 57.653 67.9006 53.1329C67.9006 49.4311 68.7787 45.8589 70.5947 42.626C71.8719 40.3411 73.628 38.2457 75.7134 36.3598C76.6514 35.4818 77.6691 34.7434 78.7468 34.0748C76.1924 30.3031 72.7499 27.6091 68.5093 25.9228C66.0846 24.9848 63.3905 24.3762 60.4271 24.1766C58.8805 24.0469 57.264 24.1068 55.6476 24.3762C54.3005 24.5757 52.8238 24.9848 51.2672 25.4538C50.2594 25.8529 48.9822 26.3319 47.3658 26.9306C45.7494 27.5991 44.6019 28.0082 44.0032 28.2078C42.9256 28.547 41.9876 28.7466 41.3091 28.7466C40.431 28.7466 39.2936 28.547 37.9465 28.078C37.5474 27.9483 36.2602 27.4095 33.9753 26.5314C32.2291 25.8629 30.7424 25.3241 29.535 24.9848C27.8487 24.5857 26.3021 24.3762 24.8254 24.3762C20.5847 24.446 16.6733 25.5835 12.9715 27.8785C9.26961 30.1036 6.37597 33.1269 4.22071 36.9685C1.41688 41.748 0 47.4754 0 54.011C0 59.8681 1.00778 65.8549 3.09319 72.1211C4.97905 77.8485 7.47356 82.8974 10.4969 87.2678C12.2431 89.8921 13.7298 91.9176 14.9371 93.3245C16.6833 95.4798 18.4394 97.0264 20.1257 98.104C22.1513 99.3912 24.1768 99.9998 26.3321 99.9998Z" fill="white"/>
<path d="M26.3321 99.9998C27.6791 99.93 29.096 99.6606 30.443 99.2614C31.1116 99.0619 32.259 98.5929 34.0152 97.8446C35.4919 97.2359 36.7092 96.7669 37.7869 96.4975C39.3335 96.0984 40.9499 95.8889 42.6362 95.8889C44.3225 95.8889 45.9389 96.0884 47.4855 96.4975C48.4235 96.7669 49.7106 97.2359 51.2572 97.9144C52.8038 98.5829 54.0212 98.992 54.8294 99.2614C56.2463 99.6606 57.6532 99.8701 59.1399 99.8003C61.2951 99.8003 63.3107 99.1916 65.1966 97.9843C66.813 96.9066 68.4295 95.4299 70.1157 93.4043C71.1934 92.1271 72.6103 90.1714 74.4263 87.5472C76.382 84.5837 78.1281 81.4207 79.6148 77.9184C80.1537 76.6412 80.7623 75.0946 81.3011 73.3385C80.2235 72.9393 79.076 72.3307 77.7988 71.4526C75.1746 69.7065 73.0194 67.5512 71.4029 65.0567C69.1179 61.6242 67.9705 57.653 67.9006 53.1329C67.9006 49.4311 68.7787 45.8589 70.5947 42.626C71.8719 40.3411 73.628 38.2457 75.7134 36.3598C76.6514 35.4818 77.6691 34.7434 78.7468 34.0748C76.1924 30.3031 72.7499 27.6091 68.5093 25.9228C66.0846 24.9848 63.3905 24.3762 60.4271 24.1766C58.8805 24.0469 57.264 24.1068 55.6476 24.3762C54.3005 24.5757 52.8238 24.9848 51.2672 25.4538C50.2594 25.8529 48.9822 26.3319 47.3658 26.9306C45.7494 27.5991 44.6019 28.0082 44.0032 28.2078C42.9256 28.547 41.9876 28.7466 41.3091 28.7466C40.431 28.7466 39.2936 28.547 37.9465 28.078C37.5474 27.9483 36.2602 27.4095 33.9753 26.5314C32.2291 25.8629 30.7424 25.3241 29.535 24.9848C27.8487 24.5857 26.3021 24.3762 24.8254 24.3762C20.5847 24.446 16.6733 25.5835 12.9715 27.8785C9.26961 30.1036 6.37597 33.1269 4.22071 36.9685C1.41688 41.748 0 47.4754 0 54.011C0 59.8681 1.00778 65.8549 3.09319 72.1211C4.97905 77.8485 7.47356 82.8974 10.4969 87.2678C12.2431 89.8921 13.7298 91.9176 14.9371 93.3245C16.6833 95.4798 18.4394 97.0264 20.1257 98.104C22.1513 99.3912 24.1768 99.9998 26.3321 99.9998Z" fill="white"/>
<path d="M26.3321 99.9998C27.6791 99.93 29.096 99.6606 30.443 99.2614C31.1116 99.0619 32.259 98.5929 34.0152 97.8446C35.4919 97.2359 36.7092 96.7669 37.7869 96.4975C39.3335 96.0984 40.9499 95.8889 42.6362 95.8889C44.3225 95.8889 45.9389 96.0884 47.4855 96.4975C48.4235 96.7669 49.7106 97.2359 51.2572 97.9144C52.8038 98.5829 54.0212 98.992 54.8294 99.2614C56.2463 99.6606 57.6532 99.8701 59.1399 99.8003C61.2951 99.8003 63.3107 99.1916 65.1966 97.9843C66.813 96.9066 68.4295 95.4299 70.1157 93.4043C71.1934 92.1271 72.6103 90.1714 74.4263 87.5472C76.382 84.5837 78.1281 81.4207 79.6148 77.9184C80.1537 76.6412 80.7623 75.0946 81.3011 73.3385C80.2235 72.9393 79.076 72.3307 77.7988 71.4526C75.1746 69.7065 73.0194 67.5512 71.4029 65.0567C69.1179 61.6242 67.9705 57.653 67.9006 53.1329C67.9006 49.4311 68.7787 45.8589 70.5947 42.626C71.8719 40.3411 73.628 38.2457 75.7134 36.3598C76.6514 35.4818 77.6691 34.7434 78.7468 34.0748C76.1924 30.3031 72.7499 27.6091 68.5093 25.9228C66.0846 24.9848 63.3905 24.3762 60.4271 24.1766C58.8805 24.0469 57.264 24.1068 55.6476 24.3762C54.3005 24.5757 52.8238 24.9848 51.2672 25.4538C50.2594 25.8529 48.9822 26.3319 47.3658 26.9306C45.7494 27.5991 44.6019 28.0082 44.0032 28.2078C42.9256 28.547 41.9876 28.7466 41.3091 28.7466C40.431 28.7466 39.2936 28.547 37.9465 28.078C37.5474 27.9483 36.2602 27.4095 33.9753 26.5314C32.2291 25.8629 30.7424 25.3241 29.535 24.9848C27.8487 24.5857 26.3021 24.3762 24.8254 24.3762C20.5847 24.446 16.6733 25.5835 12.9715 27.8785C9.26961 30.1036 6.37597 33.1269 4.22071 36.9685C1.41688 41.748 0 47.4754 0 54.011C0 59.8681 1.00778 65.8549 3.09319 72.1211C4.97905 77.8485 7.47356 82.8974 10.4969 87.2678C12.2431 89.8921 13.7298 91.9176 14.9371 93.3245C16.6833 95.4798 18.4394 97.0264 20.1257 98.104C22.1513 99.3912 24.1768 99.9998 26.3321 99.9998Z" fill="white"/>
<path d="M26.3321 99.9998C27.6791 99.93 29.096 99.6606 30.443 99.2614C31.1116 99.0619 32.259 98.5929 34.0152 97.8446C35.4919 97.2359 36.7092 96.7669 37.7869 96.4975C39.3335 96.0984 40.9499 95.8889 42.6362 95.8889C44.3225 95.8889 45.9389 96.0884 47.4855 96.4975C48.4235 96.7669 49.7106 97.2359 51.2572 97.9144C52.8038 98.5829 54.0212 98.992 54.8294 99.2614C56.2463 99.6606 57.6532 99.8701 59.1399 99.8003C61.2951 99.8003 63.3107 99.1916 65.1966 97.9843C66.813 96.9066 68.4295 95.4299 70.1157 93.4043C71.1934 92.1271 72.6103 90.1714 74.4263 87.5472C76.382 84.5837 78.1281 81.4207 79.6148 77.9184C80.1537 76.6412 80.7623 75.0946 81.3011 73.3385C80.2235 72.9393 79.076 72.3307 77.7988 71.4526C75.1746 69.7065 73.0194 67.5512 71.4029 65.0567C69.1179 61.6242 67.9705 57.653 67.9006 53.1329C67.9006 49.4311 68.7787 45.8589 70.5947 42.626C71.8719 40.3411 73.628 38.2457 75.7134 36.3598C76.6514 35.4818 77.6691 34.7434 78.7468 34.0748C76.1924 30.3031 72.7499 27.6091 68.5093 25.9228C66.0846 24.9848 63.3905 24.3762 60.4271 24.1766C58.8805 24.0469 57.264 24.1068 55.6476 24.3762C54.3005 24.5757 52.8238 24.9848 51.2672 25.4538C50.2594 25.8529 48.9822 26.3319 47.3658 26.9306C45.7494 27.5991 44.6019 28.0082 44.0032 28.2078C42.9256 28.547 41.9876 28.7466 41.3091 28.7466C40.431 28.7466 39.2936 28.547 37.9465 28.078C37.5474 27.9483 36.2602 27.4095 33.9753 26.5314C32.2291 25.8629 30.7424 25.3241 29.535 24.9848C27.8487 24.5857 26.3021 24.3762 24.8254 24.3762C20.5847 24.446 16.6733 25.5835 12.9715 27.8785C9.26961 30.1036 6.37597 33.1269 4.22071 36.9685C1.41688 41.748 0 47.4754 0 54.011C0 59.8681 1.00778 65.8549 3.09319 72.1211C4.97905 77.8485 7.47356 82.8974 10.4969 87.2678C12.2431 89.8921 13.7298 91.9176 14.9371 93.3245C16.6833 95.4798 18.4394 97.0264 20.1257 98.104C22.1513 99.3912 24.1768 99.9998 26.3321 99.9998Z" fill="white"/>
<path d="M26.3321 99.9998C27.6791 99.93 29.096 99.6606 30.443 99.2614C31.1116 99.0619 32.259 98.5929 34.0152 97.8446C35.4919 97.2359 36.7092 96.7669 37.7869 96.4975C39.3335 96.0984 40.9499 95.8889 42.6362 95.8889C44.3225 95.8889 45.9389 96.0884 47.4855 96.4975C48.4235 96.7669 49.7106 97.2359 51.2572 97.9144C52.8038 98.5829 54.0212 98.992 54.8294 99.2614C56.2463 99.6606 57.6532 99.8701 59.1399 99.8003C61.2951 99.8003 63.3107 99.1916 65.1966 97.9843C66.813 96.9066 68.4295 95.4299 70.1157 93.4043C71.1934 92.1271 72.6103 90.1714 74.4263 87.5472C76.382 84.5837 78.1281 81.4207 79.6148 77.9184C80.1537 76.6412 80.7623 75.0946 81.3011 73.3385C80.2235 72.9393 79.076 72.3307 77.7988 71.4526C75.1746 69.7065 73.0194 67.5512 71.4029 65.0567C69.1179 61.6242 67.9705 57.653 67.9006 53.1329C67.9006 49.4311 68.7787 45.8589 70.5947 42.626C71.8719 40.3411 73.628 38.2457 75.7134 36.3598C76.6514 35.4818 77.6691 34.7434 78.7468 34.0748C76.1924 30.3031 72.7499 27.6091 68.5093 25.9228C66.0846 24.9848 63.3905 24.3762 60.4271 24.1766C58.8805 24.0469 57.264 24.1068 55.6476 24.3762C54.3005 24.5757 52.8238 24.9848 51.2672 25.4538C50.2594 25.8529 48.9822 26.3319 47.3658 26.9306C45.7494 27.5991 44.6019 28.0082 44.0032 28.2078C42.9256 28.547 41.9876 28.7466 41.3091 28.7466C40.431 28.7466 39.2936 28.547 37.9465 28.078C37.5474 27.9483 36.2602 27.4095 33.9753 26.5314C32.2291 25.8629 30.7424 25.3241 29.535 24.9848C27.8487 24.5857 26.3021 24.3762 24.8254 24.3762C20.5847 24.446 16.6733 25.5835 12.9715 27.8785C9.26961 30.1036 6.37597 33.1269 4.22071 36.9685C1.41688 41.748 0 47.4754 0 54.011C0 59.8681 1.00778 65.8549 3.09319 72.1211C4.97905 77.8485 7.47356 82.8974 10.4969 87.2678C12.2431 89.8921 13.7298 91.9176 14.9371 93.3245C16.6833 95.4798 18.4394 97.0264 20.1257 98.104C22.1513 99.3912 24.1768 99.9998 26.3321 99.9998Z" fill="white"/>
<path d="M26.3321 99.9998C27.6791 99.93 29.096 99.6606 30.443 99.2614C31.1116 99.0619 32.259 98.5929 34.0152 97.8446C35.4919 97.2359 36.7092 96.7669 37.7869 96.4975C39.3335 96.0984 40.9499 95.8889 42.6362 95.8889C44.3225 95.8889 45.9389 96.0884 47.4855 96.4975C48.4235 96.7669 49.7106 97.2359 51.2572 97.9144C52.8038 98.5829 54.0212 98.992 54.8294 99.2614C56.2463 99.6606 57.6532 99.8701 59.1399 99.8003C61.2951 99.8003 63.3107 99.1916 65.1966 97.9843C66.813 96.9066 68.4295 95.4299 70.1157 93.4043C71.1934 92.1271 72.6103 90.1714 74.4263 87.5472C76.382 84.5837 78.1281 81.4207 79.6148 77.9184C80.1537 76.6412 80.7623 75.0946 81.3011 73.3385C80.2235 72.9393 79.076 72.3307 77.7988 71.4526C75.1746 69.7065 73.0194 67.5512 71.4029 65.0567C69.1179 61.6242 67.9705 57.653 67.9006 53.1329C67.9006 49.4311 68.7787 45.8589 70.5947 42.626C71.8719 40.3411 73.628 38.2457 75.7134 36.3598C76.6514 35.4818 77.6691 34.7434 78.7468 34.0748C76.1924 30.3031 72.7499 27.6091 68.5093 25.9228C66.0846 24.9848 63.3905 24.3762 60.4271 24.1766C58.8805 24.0469 57.264 24.1068 55.6476 24.3762C54.3005 24.5757 52.8238 24.9848 51.2672 25.4538C50.2594 25.8529 48.9822 26.3319 47.3658 26.9306C45.7494 27.5991 44.6019 28.0082 44.0032 28.2078C42.9256 28.547 41.9876 28.7466 41.3091 28.7466C40.431 28.7466 39.2936 28.547 37.9465 28.078C37.5474 27.9483 36.2602 27.4095 33.9753 26.5314C32.2291 25.8629 30.7424 25.3241 29.535 24.9848C27.8487 24.5857 26.3021 24.3762 24.8254 24.3762C20.5847 24.446 16.6733 25.5835 12.9715 27.8785C9.26961 30.1036 6.37597 33.1269 4.22071 36.9685C1.41688 41.748 0 47.4754 0 54.011C0 59.8681 1.00778 65.8549 3.09319 72.1211C4.97905 77.8485 7.47356 82.8974 10.4969 87.2678C12.2431 89.8921 13.7298 91.9176 14.9371 93.3245C16.6833 95.4798 18.4394 97.0264 20.1257 98.104C22.1513 99.3912 24.1768 99.9998 26.3321 99.9998Z" fill="white"/>
<path d="M26.3321 99.9998C27.6791 99.93 29.096 99.6606 30.443 99.2614C31.1116 99.0619 32.259 98.5929 34.0152 97.8446C35.4919 97.2359 36.7092 96.7669 37.7869 96.4975C39.3335 96.0984 40.9499 95.8889 42.6362 95.8889C44.3225 95.8889 45.9389 96.0884 47.4855 96.4975C48.4235 96.7669 49.7106 97.2359 51.2572 97.9144C52.8038 98.5829 54.0212 98.992 54.8294 99.2614C56.2463 99.6606 57.6532 99.8701 59.1399 99.8003C61.2951 99.8003 63.3107 99.1916 65.1966 97.9843C66.813 96.9066 68.4295 95.4299 70.1157 93.4043C71.1934 92.1271 72.6103 90.1714 74.4263 87.5472C76.382 84.5837 78.1281 81.4207 79.6148 77.9184C80.1537 76.6412 80.7623 75.0946 81.3011 73.3385C80.2235 72.9393 79.076 72.3307 77.7988 71.4526C75.1746 69.7065 73.0194 67.5512 71.4029 65.0567C69.1179 61.6242 67.9705 57.653 67.9006 53.1329C67.9006 49.4311 68.7787 45.8589 70.5947 42.626C71.8719 40.3411 73.628 38.2457 75.7134 36.3598C76.6514 35.4818 77.6691 34.7434 78.7468 34.0748C76.1924 30.3031 72.7499 27.6091 68.5093 25.9228C66.0846 24.9848 63.3905 24.3762 60.4271 24.1766C58.8805 24.0469 57.264 24.1068 55.6476 24.3762C54.3005 24.5757 52.8238 24.9848 51.2672 25.4538C50.2594 25.8529 48.9822 26.3319 47.3658 26.9306C45.7494 27.5991 44.6019 28.0082 44.0032 28.2078C42.9256 28.547 41.9876 28.7466 41.3091 28.7466C40.431 28.7466 39.2936 28.547 37.9465 28.078C37.5474 27.9483 36.2602 27.4095 33.9753 26.5314C32.2291 25.8629 30.7424 25.3241 29.535 24.9848C27.8487 24.5857 26.3021 24.3762 24.8254 24.3762C20.5847 24.446 16.6733 25.5835 12.9715 27.8785C9.26961 30.1036 6.37597 33.1269 4.22071 36.9685C1.41688 41.748 0 47.4754 0 54.011C0 59.8681 1.00778 65.8549 3.09319 72.1211C4.97905 77.8485 7.47356 82.8974 10.4969 87.2678C12.2431 89.8921 13.7298 91.9176 14.9371 93.3245C16.6833 95.4798 18.4394 97.0264 20.1257 98.104C22.1513 99.3912 24.1768 99.9998 26.3321 99.9998Z" fill="white"/>
<path d="M116.665 35.1127C116.954 35.1127 117.193 35.1526 117.393 35.2424C117.593 35.3322 117.752 35.5418 117.862 35.891L129.287 70.6046C129.516 71.2931 129.716 71.6324 129.886 71.6324C130.115 71.6324 130.345 71.3231 130.574 70.6845L141.829 36.5695C141.939 36.1105 142.099 35.7513 142.298 35.4919C142.498 35.2325 142.827 35.1027 143.286 35.1027H154.372C155.17 35.1027 155.579 35.4719 155.579 36.2103C155.579 36.6693 155.449 36.9686 155.19 37.1083C154.93 37.248 154.601 37.3478 154.202 37.4077C153.803 37.4675 153.354 37.5075 152.865 37.5374C152.376 37.5673 151.877 37.697 151.358 37.9265C150.73 38.2159 150.341 38.5651 150.201 38.9942C150.061 39.4232 149.981 40.2015 149.981 41.339V43.3845L150.929 80.7723C150.989 82.3089 151.089 83.4165 151.229 84.1049C151.368 84.7835 151.897 85.3322 152.815 85.7314C153.334 85.9609 153.843 86.0906 154.362 86.1105C154.881 86.1405 155.32 86.1704 155.689 86.1904C156.058 86.2203 156.357 86.3201 156.587 86.4897C156.816 86.6593 156.926 87.0086 156.926 87.5174C156.926 87.8567 156.766 88.166 156.457 88.4155C156.138 88.6749 155.699 88.8046 155.13 88.8046C154.212 88.8046 153.114 88.7048 151.817 88.5053C150.53 88.3057 149.023 88.2059 147.307 88.2059C145.421 88.2059 143.765 88.3057 142.368 88.5053C140.961 88.7048 139.864 88.8046 139.055 88.8046C137.908 88.8046 137.339 88.3456 137.339 87.4276C137.339 86.5695 137.768 86.1405 138.626 86.1405C139.714 86.1405 140.562 86.0606 141.161 85.881C141.759 85.7114 142.218 85.4121 142.538 84.983C142.857 84.554 143.037 84.0052 143.096 83.3167C143.156 82.6382 143.186 81.7801 143.186 80.7523V78.7866L142.588 47.2061C142.588 46.5775 142.448 46.2682 142.159 46.2682C141.989 46.2682 141.819 46.5575 141.64 47.1263L129.007 85.7912C128.718 86.6493 128.259 87.0784 127.631 87.0784C126.882 87.0784 126.423 86.7391 126.254 86.0507L113.452 47.2161C113.162 46.4777 112.963 46.1085 112.853 46.1085C112.564 46.1085 112.394 46.6474 112.334 47.735L110.877 73.8475C110.817 74.8154 110.778 75.6934 110.748 76.4917C110.718 77.2899 110.708 77.9984 110.708 78.627C110.708 81.3011 110.937 83.2468 111.396 84.4741C111.855 85.7014 112.913 86.3101 114.579 86.3101C114.749 86.3101 114.918 86.3001 115.098 86.2702C115.268 86.2402 115.467 86.2303 115.697 86.2303C116.784 86.2303 117.333 86.6593 117.333 87.5174C117.333 88.4354 116.615 88.8944 115.188 88.8944C114.559 88.8944 113.741 88.8345 112.743 88.7248C111.745 88.615 110.578 88.5552 109.261 88.5552C108.113 88.5552 107.096 88.615 106.208 88.7248C105.32 88.8445 104.561 88.8944 103.933 88.8944C102.556 88.8944 101.867 88.4354 101.867 87.5174C101.867 86.6593 102.266 86.2303 103.075 86.2303C103.414 86.2303 103.723 86.2402 103.973 86.2702C104.232 86.3001 104.442 86.3101 104.621 86.3101C105.369 86.3101 105.968 86.0706 106.427 85.5817C106.886 85.1027 107.225 84.3145 107.455 83.2369C107.684 82.1592 107.854 80.7523 107.974 79.0161C108.084 77.28 108.203 75.1347 108.313 72.5703L109.77 43.3945C109.77 43.2847 109.78 43.0852 109.81 42.7958C109.84 42.5065 109.85 42.1373 109.85 41.6883C109.85 40.3811 109.73 39.4731 109.51 38.9543C109.281 38.4454 108.762 38.0463 107.964 37.7569C107.445 37.5873 106.966 37.4875 106.507 37.4576C106.048 37.4276 105.649 37.3977 105.3 37.3678C104.96 37.3378 104.681 37.258 104.481 37.1083C104.282 36.9686 104.182 36.6693 104.182 36.2103C104.182 35.462 104.581 35.0928 105.389 35.0928H116.665V35.1127Z" fill="white"/>
<path d="M182.278 79.2857C182.278 81.1216 182.388 82.4986 182.618 83.4066C182.847 84.3246 183.446 84.7836 184.424 84.7836C185.052 84.7836 185.631 84.4942 186.14 83.9255C186.659 83.3567 187.168 83.0673 187.687 83.0673C188.375 83.0673 188.714 83.4964 188.714 84.3545C188.714 84.8135 188.455 85.3723 187.936 86.0308C187.417 86.6894 186.808 87.3379 186.09 87.9666C185.372 88.5952 184.603 89.144 183.765 89.603C182.937 90.062 182.179 90.2915 181.48 90.2915C179.983 90.2915 178.746 89.8025 177.768 88.8347C176.79 87.8568 175.982 86.4 175.354 84.4543H174.835L173.019 86.0009C171.522 87.2581 170.115 88.3358 168.798 89.2238C167.471 90.1118 166.014 90.5509 164.398 90.5509C162.562 90.5509 161.075 89.9322 159.958 88.7049C158.84 87.4776 158.281 85.7714 158.281 83.5962C158.281 81.7103 158.601 80.044 159.229 78.6171C159.858 77.1903 160.776 75.8832 161.993 74.7057C163.2 73.5283 164.647 72.4307 166.343 71.393C168.04 70.3553 169.926 69.3276 171.991 68.2998L174.146 67.1823C174.605 66.9528 174.875 66.7133 174.965 66.4539C175.054 66.1945 175.094 65.7554 175.094 65.1268V59.0302C175.094 56.6255 174.905 54.8794 174.535 53.7917C174.166 52.7041 173.228 52.1554 171.732 52.1554C170.235 52.1554 169.057 52.6543 168.199 53.662C167.341 54.6598 166.503 56.0867 165.695 57.9127C165.056 59.3495 164.358 60.5668 163.58 61.5646C162.801 62.5724 161.554 63.0713 159.828 63.0713C159.369 63.0713 158.98 62.9316 158.66 62.6423C158.341 62.3529 158.191 61.9837 158.191 61.5247C158.191 60.2675 158.581 58.9205 159.359 57.4836C160.137 56.0568 161.225 54.7496 162.632 53.5722C164.039 52.3948 165.705 51.427 167.631 50.6487C169.556 49.8804 171.642 49.4912 173.887 49.4912C175.723 49.4912 177.21 49.7107 178.327 50.1398C179.445 50.5688 180.293 51.1975 180.872 52.0256C181.45 52.8538 181.819 53.8915 181.989 55.1188C182.159 56.3561 182.248 57.773 182.248 59.3695V79.2857H182.278ZM174.715 69.577C174.545 69.577 174.256 69.6968 173.857 69.9163L171.023 71.2932C167.641 73.0095 165.954 75.8732 165.954 79.8843C165.954 81.5507 166.254 82.8079 166.852 83.666C167.451 84.5241 168.239 84.9532 169.217 84.9532C169.906 84.9532 170.594 84.7636 171.283 84.3944C171.971 84.0252 172.6 83.5064 173.168 82.8478C173.737 82.1893 174.216 81.401 174.585 80.483C174.955 79.565 175.144 78.5373 175.144 77.3898V70.6048C175.144 69.9163 174.994 69.577 174.715 69.577Z" fill="white"/>
<path d="M208.503 49.9699C209.71 50.2793 210.748 50.6784 211.636 51.1773C212.524 51.6762 213.242 52.235 213.781 52.8636C214.32 53.4922 214.599 54.1807 214.599 54.929C214.599 57.1042 214.38 58.8105 213.951 60.0378C213.522 61.2751 212.963 61.8837 212.274 61.8837C211.466 61.8837 210.698 61.0556 209.95 59.3892C209.431 58.3016 208.972 57.2839 208.573 56.3359C208.174 55.388 207.744 54.5998 207.285 53.9711C206.826 53.3425 206.328 52.8436 205.779 52.4645C205.23 52.0953 204.561 51.9057 203.763 51.9057C202.735 51.9057 201.668 52.2948 200.58 53.0631C199.493 53.8314 198.515 54.939 197.657 56.3958C196.799 57.8526 196.09 59.5988 195.551 61.6542C195.002 63.7097 194.733 66.0446 194.733 68.6688C194.733 71.3529 195.032 73.7476 195.631 75.853C196.23 77.9584 197.058 79.7444 198.126 81.2012C199.183 82.658 200.431 83.7656 201.867 84.5339C203.294 85.3022 204.871 85.6914 206.597 85.6914C207.685 85.6914 208.672 85.5018 209.56 85.1326C210.448 84.7634 211.197 84.3443 211.796 83.8853C212.394 83.4263 212.883 83.0172 213.252 82.6381C213.622 82.2689 213.901 82.0793 214.071 82.0793C214.809 82.0793 215.188 82.4485 215.188 83.1968C215.188 83.7157 214.889 84.3842 214.29 85.2124C213.691 86.0406 212.853 86.8488 211.796 87.6171C210.738 88.3954 209.461 89.0639 207.974 89.6327C206.487 90.2014 204.881 90.4908 203.165 90.4908C200.87 90.4908 198.754 90.0218 196.809 89.0739C194.863 88.126 193.167 86.779 191.74 85.0328C190.303 83.2866 189.195 81.1713 188.387 78.6768C187.589 76.1823 187.18 73.3884 187.18 70.2952C187.18 67.0923 187.619 64.2086 188.517 61.6642C189.405 59.1198 190.622 56.9346 192.169 55.1286C193.715 53.3226 195.551 51.9356 197.667 50.9578C199.782 49.9799 202.107 49.501 204.631 49.501C206.008 49.511 207.295 49.6606 208.503 49.9699Z" fill="white"/>
<path d="M227.181 82.2592C227.181 83.2869 227.281 84.0652 227.48 84.5841C227.68 85.1029 228.039 85.502 228.558 85.7914C229.017 86.0209 229.456 86.1606 229.885 86.2205C230.314 86.2803 230.683 86.3502 231.003 86.44C231.312 86.5298 231.571 86.6595 231.781 86.8291C231.981 86.9987 232.08 87.2881 232.08 87.6872C232.08 88.6052 231.561 89.0642 230.534 89.0642C229.676 89.0642 228.648 88.9644 227.451 88.7649C226.253 88.5653 224.976 88.4655 223.619 88.4655C222.152 88.4655 220.895 88.5653 219.877 88.7649C218.849 88.9644 218.021 89.0642 217.393 89.0642C216.535 89.0642 216.105 88.5753 216.105 87.6074C216.105 87.2083 216.175 86.9189 216.325 86.7493C216.465 86.5797 216.664 86.4599 216.924 86.41C217.183 86.3502 217.452 86.3103 217.742 86.2803C218.031 86.2504 218.341 86.1506 218.69 85.981C219.318 85.6417 219.708 85.2226 219.847 84.7337C219.987 84.2448 220.067 83.4266 220.067 82.2891V61.9838C220.067 60.4372 219.877 59.4094 219.508 58.8906C219.139 58.3717 218.73 58.0424 218.301 57.9028C217.872 57.7631 217.472 57.6733 217.093 57.6433C216.724 57.6134 216.535 57.314 216.535 56.7453C216.535 56.1167 216.924 55.5978 217.692 55.1987C218.47 54.7996 219.568 54.2009 220.985 53.3927C221.833 52.8738 222.551 52.3649 223.15 51.8461C223.739 51.3272 224.238 50.8682 224.637 50.4691C225.036 50.07 225.355 49.7407 225.615 49.4813C225.874 49.2218 226.113 49.0921 226.333 49.0921C226.902 49.0921 227.181 49.6908 227.181 50.8982V82.2592ZM226.662 35.8612C227.411 36.8391 227.78 37.9267 227.78 39.1241C227.78 40.3314 227.411 41.419 226.662 42.3869C225.914 43.3647 225.026 43.8437 223.998 43.8437C222.97 43.8437 222.082 43.3548 221.334 42.3869C220.586 41.409 220.216 40.3214 220.216 39.1241C220.216 37.9167 220.586 36.8291 221.334 35.8612C222.082 34.8834 222.97 34.4044 223.998 34.4044C225.026 34.3945 225.914 34.8834 226.662 35.8612Z" fill="white"/>
<path d="M244.633 54.7098C244.633 55.4582 244.712 55.8274 244.892 55.8274C245.062 55.8274 245.291 55.6578 245.58 55.3085L246.518 54.191C247.716 52.7042 249.103 51.5568 250.669 50.7585C252.236 49.9603 253.882 49.5512 255.598 49.5512C259.141 49.5512 261.895 50.7685 263.86 53.2032C265.836 55.6378 266.814 59.2299 266.814 63.9894V82.4588C266.814 84.2349 267.243 85.4123 268.101 85.981C268.5 86.2105 268.919 86.3502 269.348 86.4101C269.777 86.47 270.166 86.5298 270.506 86.5797C270.845 86.6396 271.124 86.7493 271.324 86.919C271.523 87.0886 271.623 87.4079 271.623 87.8669C271.623 88.7849 271.104 89.2439 270.077 89.2439C269.268 89.2439 268.301 89.1441 267.163 88.9445C266.026 88.745 264.718 88.6452 263.242 88.6452C261.775 88.6452 260.508 88.745 259.45 88.9445C258.392 89.1441 257.584 89.2439 257.005 89.2439C256.087 89.2439 255.628 88.7549 255.628 87.7871C255.628 87.3879 255.698 87.0986 255.848 86.929C255.988 86.7593 256.187 86.6396 256.447 86.5897C256.706 86.5298 256.985 86.4899 257.305 86.46C257.614 86.4301 257.953 86.3303 258.293 86.1606C258.981 85.8214 259.38 85.3724 259.5 84.8236C259.61 84.2848 259.669 83.4965 259.669 82.4588V65.097C259.669 61.6645 259.031 59.0702 257.764 57.3241C256.496 55.5779 254.68 54.6999 252.316 54.6999C250.13 54.6999 248.344 55.4482 246.957 56.9349C245.571 58.4217 244.882 60.7166 244.882 63.8098V82.4588C244.882 83.4366 244.952 84.195 245.102 84.7338C245.241 85.2826 245.6 85.6917 246.179 85.981C246.698 86.2704 247.157 86.4301 247.556 86.45C247.955 86.4799 248.314 86.5199 248.634 86.5797C248.943 86.6396 249.193 86.7493 249.362 86.919C249.532 87.0886 249.622 87.4378 249.622 87.9467C249.622 88.8048 249.103 89.2339 248.075 89.2339C247.277 89.2339 246.299 89.1341 245.161 88.9345C244.024 88.735 242.747 88.6352 241.33 88.6352C239.863 88.6352 238.606 88.735 237.588 88.9345C236.56 89.1341 235.732 89.2339 235.104 89.2339C234.186 89.2339 233.727 88.745 233.727 87.7771C233.727 87.378 233.796 87.0886 233.946 86.919C234.086 86.7493 234.275 86.6296 234.505 86.5797C234.734 86.5199 235.004 86.4799 235.323 86.45C235.632 86.4201 235.972 86.3203 236.311 86.1507C236.94 85.8613 237.339 85.4622 237.518 84.9433C237.688 84.4245 237.778 83.5963 237.778 82.4488V62.1834C237.778 60.6368 237.588 59.6091 237.219 59.0902C236.85 58.5713 236.431 58.262 235.972 58.1423C235.513 58.0325 235.094 57.9527 234.724 57.9228C234.355 57.8928 234.166 57.5935 234.166 57.0247C234.166 56.456 234.535 55.9471 235.283 55.5181C236.032 55.089 237.119 54.4404 238.546 53.5823C240.202 52.6045 241.37 51.6665 242.058 50.7486C242.747 49.8306 243.345 49.3716 243.854 49.3716C244.024 49.3716 244.194 49.5113 244.363 49.8006C244.533 50.09 244.623 50.549 244.623 51.1776V54.7098H244.633Z" fill="white"/>
<path d="M279.224 49.9801C279.224 50.7284 279.594 51.0976 280.342 51.0976H286.788C287.307 51.0976 287.616 51.1575 287.736 51.2672C287.846 51.387 287.905 51.6065 287.905 51.9557V53.6819C287.905 54.1409 287.846 54.4502 287.736 54.6298C287.616 54.7994 287.307 54.8892 286.788 54.8892H280.262C279.574 54.8892 279.234 55.2584 279.234 56.0068V77.749C279.234 80.443 279.474 82.4087 279.963 83.636C280.452 84.8733 281.35 85.4819 282.667 85.4819C283.296 85.4819 283.854 85.3722 284.343 85.1427C284.832 84.9132 285.271 84.6438 285.67 84.3245C286.069 84.0152 286.429 83.7358 286.748 83.5063C287.057 83.2768 287.367 83.167 287.646 83.167C288.215 83.167 288.504 83.5662 288.504 84.3744C288.504 84.7735 288.245 85.3223 287.726 86.0108C287.207 86.6993 286.508 87.3878 285.62 88.0762C284.732 88.7647 283.705 89.3534 282.527 89.8424C281.35 90.3313 280.113 90.5708 278.795 90.5708C274.315 90.5708 272.08 86.9387 272.08 79.6548V76.0427L272.419 57.5733C272.419 56.7751 272.36 56.1265 272.25 55.6376C272.14 55.1487 271.791 54.9092 271.222 54.9092H269.676C268.648 54.9092 268.129 54.54 268.129 53.7917C268.129 53.4524 268.269 53.1331 268.558 52.8437C268.847 52.5544 269.246 52.2451 269.765 51.8958C270.284 51.5566 270.863 51.1275 271.521 50.6087C272.18 50.0898 272.898 49.4013 273.677 48.5432C275.024 46.9367 276.012 45.5698 276.66 44.4223C277.299 43.2748 277.877 42.7061 278.376 42.7061C278.766 42.7061 279.005 42.8956 279.085 43.2648C279.165 43.634 279.215 44.1429 279.215 44.7715V49.9801H279.224Z" fill="white"/>
<path d="M287.848 61.5846C288.706 59.0601 289.943 56.9149 291.54 55.1388C293.146 53.3627 295.062 51.9857 297.297 51.0178C299.532 50.04 302.027 49.561 304.771 49.561C307.405 49.561 309.81 50.0599 311.985 51.0677C314.16 52.0655 316.006 53.4724 317.523 55.2785C319.039 57.0845 320.217 59.2497 321.045 61.7642C321.873 64.2886 322.292 67.0925 322.292 70.1857C322.292 73.219 321.863 76.0029 321.005 78.5173C320.147 81.0418 318.93 83.1871 317.353 84.9632C315.776 86.7392 313.841 88.1162 311.556 89.0841C309.261 90.0619 306.686 90.5409 303.823 90.5409C301.248 90.5409 298.894 90.042 296.778 89.0342C294.653 88.0364 292.837 86.6295 291.32 84.8235C289.804 83.0174 288.626 80.8622 287.798 78.3377C286.97 75.8133 286.551 73.0394 286.551 70.0061C286.561 66.9129 286.99 64.0991 287.848 61.5846ZM296.878 56.3361C295.102 59.2597 294.214 63.4106 294.214 68.7987C294.214 74.8753 295.172 79.6149 297.098 83.0174C299.013 86.4299 301.518 88.1262 304.611 88.1262C307.764 88.1262 310.239 86.6494 312.045 83.6959C313.851 80.7424 314.749 76.6115 314.749 71.2832C314.749 65.2166 313.791 60.467 311.875 57.0645C309.959 53.662 307.475 51.9558 304.441 51.9558C301.169 51.9558 298.644 53.4225 296.878 56.3361Z" fill="white"/>
<path d="M343.076 50.6583C344.393 51.3967 345.051 52.5142 345.051 54.0209C345.051 56.0265 344.962 57.5033 344.792 58.4412C344.622 59.3891 344.243 59.8581 343.674 59.8581C343.046 59.8581 342.677 59.459 342.557 58.6507C342.437 57.8525 342.038 56.8447 341.349 55.6474C339.913 53.1828 338.027 51.9555 335.682 51.9555C334.016 51.9555 332.689 52.4244 331.691 53.3724C330.693 54.3103 330.184 55.5276 330.184 57.0044C330.184 57.9722 330.384 58.7904 330.783 59.439C331.182 60.0976 331.761 60.7062 332.499 61.275C333.247 61.8437 334.145 62.4025 335.203 62.9413C336.261 63.4801 337.448 64.0988 338.765 64.7773C341.569 66.264 343.634 67.9303 344.952 69.7862C346.269 71.6422 346.927 73.967 346.927 76.7609C346.927 78.9261 346.598 80.8719 345.939 82.5781C345.281 84.2843 344.353 85.7312 343.146 86.8986C341.938 88.066 340.521 88.9641 338.895 89.5927C337.258 90.2213 335.472 90.5306 333.527 90.5306C331.581 90.5306 329.835 90.3111 328.288 89.882C326.742 89.453 325.564 88.984 324.766 88.4652C324.247 88.1758 323.938 87.8066 323.818 87.3476C323.698 86.8886 323.648 86.26 323.648 85.4618V83.3165C323.648 80.9716 323.708 79.2654 323.818 78.2077C323.928 77.15 324.307 76.6212 324.936 76.6212C325.335 76.6212 325.624 76.7609 325.794 77.0503C325.963 77.3396 326.123 77.7487 326.263 78.2975C326.402 78.8463 326.572 79.5049 326.782 80.2732C326.981 81.0415 327.31 81.9196 327.769 82.8974C329.376 86.3897 331.661 88.1359 334.644 88.1359C336.48 88.1359 337.977 87.5073 339.154 86.25C340.332 84.9928 340.92 83.2965 340.92 81.1812C340.92 80.0936 340.731 79.1357 340.362 78.3075C339.992 77.4793 339.444 76.731 338.725 76.0724C338.007 75.4139 337.139 74.7852 336.101 74.1866C335.073 73.5879 333.926 72.9393 332.669 72.2508C331.232 71.5025 329.975 70.7741 328.887 70.0557C327.799 69.3372 326.881 68.5689 326.133 67.7308C325.385 66.9026 324.826 65.9547 324.457 64.897C324.087 63.8393 323.898 62.5921 323.898 61.1552C323.898 57.6031 324.995 54.7793 327.211 52.6938C329.416 50.5985 332.24 49.5607 335.672 49.5607C339.294 49.5508 341.759 49.92 343.076 50.6583Z" fill="white"/>
<path d="M358.06 54.7094C358.06 55.4578 358.12 55.827 358.23 55.827C358.4 55.827 358.629 55.6573 358.919 55.3081L359.777 54.1906C360.864 52.7637 362.151 51.6262 363.648 50.798C365.135 49.9699 366.681 49.5508 368.288 49.5508C371.72 49.5508 374.404 50.7282 376.32 53.073C378.236 55.4179 379.194 58.7705 379.194 63.1309V82.3786C379.194 83.2965 379.254 84.015 379.364 84.5238C379.473 85.0427 379.763 85.4418 380.222 85.7312C380.681 86.0704 381.08 86.29 381.429 86.3798C381.768 86.4696 382.078 86.5494 382.327 86.6392C382.586 86.729 382.786 86.8587 382.926 87.0283C383.065 87.198 383.145 87.5173 383.145 87.9763C383.145 88.7745 382.716 89.1836 381.858 89.1836C381.229 89.1836 380.381 89.0938 379.334 88.9242C378.276 88.7545 377.049 88.6647 375.632 88.6647C374.165 88.6647 372.838 88.7545 371.67 88.9242C370.503 89.0938 369.515 89.1836 368.717 89.1836C367.689 89.1836 367.17 88.7246 367.17 87.8066C367.17 87.4075 367.26 87.1181 367.43 86.9485C367.599 86.7789 367.829 86.6591 368.118 86.6093C368.408 86.5494 368.737 86.4995 369.106 86.4396C369.475 86.3798 369.864 86.27 370.264 86.1004C371.122 85.7013 371.641 85.2423 371.81 84.7234C371.98 84.2045 372.07 83.4362 372.07 82.3985V65.0367C372.07 58.102 369.795 54.6396 365.245 54.6396C363.169 54.6396 361.453 55.3879 360.096 56.8747C358.739 58.3614 358.06 60.6564 358.06 63.7495V82.3985C358.06 83.2566 358.15 83.9751 358.32 84.5438C358.49 85.1125 358.839 85.5715 359.348 85.9208C359.747 86.2101 360.146 86.3698 360.555 86.3897C360.954 86.4197 361.313 86.4795 361.633 86.5594C361.952 86.6492 362.201 86.7789 362.411 86.9485C362.61 87.1181 362.71 87.4674 362.71 87.9763C362.71 88.7745 362.221 89.1836 361.253 89.1836C360.685 89.1836 359.827 89.0938 358.679 88.9242C357.542 88.7545 356.145 88.6647 354.508 88.6647C352.862 88.6647 351.475 88.7545 350.337 88.9242C349.2 89.0938 348.282 89.1836 347.593 89.1836C346.566 89.1836 346.047 88.7246 346.047 87.8066C346.047 87.4075 346.137 87.1381 346.306 86.9884C346.476 86.8487 346.695 86.7489 346.955 86.6891C347.214 86.6292 347.524 86.5793 347.903 86.5194C348.272 86.4596 348.691 86.3498 349.15 86.1802C350.068 85.8409 350.597 85.3919 350.737 84.8431C350.876 84.3043 350.956 83.4861 350.956 82.3985V39.5029C350.956 38.2457 350.757 37.3576 350.357 36.8388C349.958 36.3199 349.529 35.9707 349.07 35.7611C348.611 35.5616 348.182 35.4219 347.783 35.3321C347.384 35.2423 347.184 34.9729 347.184 34.5139C347.184 33.8852 347.574 33.4662 348.342 33.2666C349.11 33.067 350.048 32.7677 351.136 32.3686C353.121 31.6202 354.578 30.9218 355.506 30.2632C356.444 29.6047 357.053 29.2754 357.332 29.2754C357.781 29.2754 358.07 29.4151 358.18 29.7044C358.29 29.9938 358.35 30.3929 358.35 30.9118C358.35 31.71 358.31 32.5981 358.22 33.5759C358.13 34.5538 358.09 35.6115 358.09 36.7589V54.7094H358.06Z" fill="white"/>
</g>
<defs>
<clipPath id="clip0_4_5268">
<rect width="383.157" height="100" fill="white"/>
</clipPath>
</defs>
</svg>
