<svg width="410" height="100" viewBox="0 0 410 100" fill="none" xmlns="http://www.w3.org/2000/svg">
<g clip-path="url(#clip0_4_5288)">
<path d="M304.455 0.933594C302.137 0.933594 300.258 3.33047 300.258 5.64839V42.229C300.258 44.5469 302.137 46.5284 304.455 46.5284H352.486V33.7824H314.558V13.4726H352.486V0.933594H304.455Z" fill="white"/>
<path d="M304.452 47.1511C301.768 47.1405 299.637 44.8829 299.633 42.2286V5.6487C299.652 3.02301 301.68 0.35629 304.452 0.311523V0.933282V1.55504C303.514 1.5538 302.626 2.04312 301.956 2.82529C301.289 3.60374 300.873 4.65824 300.876 5.6487V42.2286C300.879 44.2108 302.499 45.902 304.451 45.9064H351.86V34.4032H313.933V12.8499H351.86V1.55504H304.451V0.933282V0.311523H353.103V14.0934H315.176V33.1603H353.103V47.1517L304.452 47.1511Z" fill="white"/>
<path d="M137.77 58.4981C137.77 56.1796 139.649 53.7827 141.967 53.7827H193.936V99.3782H179.325V66.3211H173.003V99.3782H158.288V66.3211H151.76V99.3782H137.355L137.77 58.4981Z" fill="white"/>
<path d="M157.666 99.9999V66.941H152.381V99.9999H136.727L137.148 58.4975H137.147C137.166 55.8712 139.195 53.2044 141.967 53.1597H194.557V99.9986H178.701V66.9422H173.624V99.9999H157.666ZM179.946 65.6987L179.945 98.7557H193.313V54.4044H141.967C141.029 54.4019 140.141 54.8919 139.472 55.6747C138.803 56.4525 138.388 57.507 138.392 58.4975H137.77L138.391 58.5043L137.983 98.7557H151.138V65.6987H158.91V98.7557H172.381V65.6987H179.946Z" fill="white"/>
<path d="M260.258 58.4981C260.258 56.1796 262.136 53.7827 264.455 53.7827H316.424V99.3782H301.812V66.3211H295.491V99.3782H280.776V66.3211H274.247V99.3782H259.844L260.258 58.4981Z" fill="white"/>
<path d="M280.153 99.9999V66.941H274.869V99.9999H259.215L259.636 58.4906C259.658 55.8674 261.686 53.2044 264.454 53.1597H317.045V99.9986H301.19V66.9422H296.113V99.9999H280.153ZM302.433 65.6987V98.7557H315.802V54.4044H264.454C263.517 54.4019 262.629 54.8919 261.959 55.6747C261.292 56.4525 260.876 57.507 260.879 58.4975H260.258L260.879 58.5043L260.471 98.7557H273.625V65.6987H281.397L281.396 98.7557H294.868V65.6987H302.433Z" fill="white"/>
<path d="M16.1159 0.933594H1.08984V16.3744H16.1159V0.933594Z" fill="white"/>
<path d="M0.464844 16.9958V0.311523H16.7344V16.374V16.9958H0.464844ZM1.70836 15.7523H15.4915V1.55442H1.70836V15.7523Z" fill="white"/>
<path d="M237.464 0.933594H222.438V16.3744H237.464V0.933594Z" fill="white"/>
<path d="M221.812 16.9958V0.311523H238.082V16.374V16.9958H221.812ZM223.057 15.7523H236.839V1.55442H223.057V15.7523Z" fill="white"/>
<path d="M213.831 53.7817H198.805V69.2225H213.831V53.7817Z" fill="white"/>
<path d="M198.184 69.8446V53.1597H214.453V69.2228V69.8446H198.184ZM199.427 68.5998H213.211V54.4038H199.427V68.5998Z" fill="white"/>
<path d="M1.29297 46.5281L37.7697 0.932617H57.3551V46.5281H25.6454L34.868 34.5076H42.4329V16.3728L18.3913 46.5281H1.29297Z" fill="white"/>
<path d="M24.3835 47.1495L34.5617 33.8849H41.8114V18.1494L18.6919 47.1495H1.29326H0L37.4716 0.310547H57.9772V47.1495H24.3835ZM18.0919 45.9066L43.055 14.5967V35.1297L35.1742 35.1278L26.906 45.9054H56.7336V1.55406H38.0684L2.58652 45.9066H18.0919Z" fill="white"/>
<path d="M199.324 99.3772L235.8 53.7817H255.386V99.3772H223.676L232.899 87.3567H240.464V69.2225L216.423 99.3772H199.324Z" fill="white"/>
<path d="M222.415 99.9986L232.594 86.734H239.841V70.9992L216.723 99.9986H199.325H198.031L235.502 53.1597H256.008V99.9986H222.415ZM216.124 98.7557L241.086 67.4464V87.9788L233.206 87.9776L224.937 98.7539H254.764V54.4032H236.1L200.618 98.7557H216.124Z" fill="white"/>
<path d="M237.354 46.5281L200.878 0.932617H181.293V46.5281H213.003L203.779 34.5076H196.215V16.3728L220.256 46.5281H237.354Z" fill="white"/>
<path d="M219.954 47.1495L196.834 18.1507V33.8849H204.083L214.262 47.1495H180.668V0.310547H201.174L237.837 46.1392L238.646 47.1495H219.954ZM220.553 45.9066H236.058L200.576 1.55406H181.911V45.9054H211.739L203.471 35.1297H195.59V14.5955L220.553 45.9066Z" fill="white"/>
<path d="M109.84 0.62207H62.3281V30.2595H77.0427V13.9905H99.633V34.6118L62.3281 34.613V46.8399H109.84C112.341 46.8356 114.346 44.7154 114.348 42.2302V5.64899C114.338 3.17626 112.385 0.645075 109.84 0.62207Z" fill="white"/>
<path d="M61.707 47.4607V33.9909L99.0119 33.9897V14.6113H77.6651V30.8809H61.707V0H109.841V0.621138L109.847 0C112.827 0.0627977 114.946 2.87564 114.969 5.64868V42.2299C114.966 45.0489 112.706 47.4495 109.841 47.4607H61.707ZM62.9505 46.2172H109.84C111.978 46.2147 113.728 44.3805 113.727 42.2299V5.65117C113.731 3.47625 111.942 1.23979 109.836 1.24352H62.9505V29.6374H76.4216V13.3678H100.255V35.2332H62.9505V46.2172Z" fill="white"/>
<path d="M119.742 0.933594V46.5291H140.156L175.701 0.933594H158.706L134.146 30.6748V0.933594H119.742Z" fill="white"/>
<path d="M119.117 47.1511V0.933282V0.311523H134.766V28.9429L158.41 0.311523H176.971L140.458 47.1511H119.117ZM120.361 45.9064H139.85L174.424 1.55504H158.996L133.521 32.403V1.55504H120.361L120.361 45.9064Z" fill="white"/>
<path d="M175.909 30.8818H160.883V46.529H175.909V30.8818Z" fill="white"/>
<path d="M160.258 47.1514V30.2588H176.527V46.5284V47.1514H160.258ZM161.501 45.9066H175.284V31.5029H161.501V45.9066Z" fill="white"/>
<path d="M242.742 46.5291V0.933594H260.048L280.048 25.286V0.933594H294.763V46.5291H279.012L257.146 20.0011V46.5291H242.742Z" fill="white"/>
<path d="M278.719 47.1511L257.769 21.733V47.1511H242.743H242.121V0.311523H260.342L279.427 23.5479V0.311523H295.385V47.1511H278.719ZM243.365 45.9064L256.525 45.9045V18.2673L279.306 45.9045H294.141V1.55504H280.67V27.0229L259.755 1.55504H243.365V45.9064Z" fill="white"/>
<path d="M357.355 0.933594V46.5291H409.376V34.3015H371.967V29.6383H409.376V17.0993H371.863V13.5758H409.376V0.933594H357.355Z" fill="white"/>
<path d="M356.734 47.1511V0.933282V0.311523H409.999V14.1973H372.485V16.4773H409.999V30.2598H372.589V33.6788H409.999V47.1511H356.734ZM357.978 45.9045H408.754V34.9224H371.346V29.015H408.754V17.7208H371.242V12.9537H408.754V1.55504H357.978V45.9045Z" fill="white"/>
<path d="M321.293 53.7827V99.3782H373.314V87.1507H335.904V82.4875H373.314V69.9485H335.801V66.4256H373.314V53.7827H321.293Z" fill="white"/>
<path d="M320.668 99.9999V53.7827V53.1597H373.933V67.0473L336.42 67.046V69.326H373.933V83.1086L336.523 83.1067V86.5276H373.933V99.9999H320.668ZM321.911 98.7557H372.689V87.7711H335.28V81.865H372.689V70.5695H335.177V65.8025H372.689V54.4044H321.911L321.911 98.7557Z" fill="white"/>
</g>
<defs>
<clipPath id="clip0_4_5288">
<rect width="410" height="100" fill="white"/>
</clipPath>
</defs>
</svg>
