<svg width="350" height="100" viewBox="0 0 350 100" fill="none" xmlns="http://www.w3.org/2000/svg">
<g clip-path="url(#clip0_4_5286)">
<path d="M328.94 24.4554L349.968 3.42722H292.681H292.061L244.581 50.9069V0L212.843 31.7382V0L159.347 53.4956L159.356 0L108.45 50.9069V0L76.7113 31.7382V0L0 76.7113H31.7382L60.3956 48.0631V79.8013L86.0086 54.1883V73.3479L59.3565 100H91.0947L136.906 54.1974V76.7113H145.757H167.879L196.527 48.0631V79.8013L222.14 54.1883V73.3479L218.786 76.7113H297.174L318.193 55.6832H271.552L276.657 50.5788H289.746L310.774 29.5597H297.676L302.78 24.4554H328.94Z" fill="white"/>
</g>
<defs>
<clipPath id="clip0_4_5286">
<rect width="349.968" height="100" fill="white"/>
</clipPath>
</defs>
</svg>
