<svg width="273" height="100" viewBox="0 0 273 100" fill="none" xmlns="http://www.w3.org/2000/svg">
<g clip-path="url(#clip0_4_5336)">
<path d="M65.0508 46.9447H85.4982C93.857 46.9447 100.657 40.1427 100.657 31.786C100.657 23.4313 93.857 16.6695 85.4982 16.6695H80.1673C79.7477 16.6695 79.4095 16.3344 79.4095 15.9138C79.4095 15.452 79.7456 15.1169 80.1673 15.1169H100.574L100.617 8.7334H80.1673C76.2188 8.7334 73.0281 11.9252 73.0281 15.8726C73.0281 19.8623 76.2188 23.0953 80.1673 23.0953H85.4982C90.2858 23.0953 94.192 27.0014 94.192 31.787C94.192 36.5746 90.2858 40.4375 85.4982 40.4375H65.0508V46.9447Z" fill="white"/>
<path d="M65.0489 38.9682H85.4964C89.486 38.9682 92.6788 35.7342 92.6788 31.7867C92.6788 27.8403 89.4871 24.6074 85.4964 24.6074H80.1654C75.3788 24.6074 71.5149 20.6599 71.5149 15.8723C71.5149 11.0857 75.3788 7.22385 80.1654 7.22385H100.614L100.572 0.756836H80.1634C71.8077 0.756836 65.0469 7.51663 65.0469 15.9146C65.0469 24.2713 71.8077 31.0311 80.1634 31.0311H85.4541C85.8737 31.0311 86.2108 31.3682 86.2108 31.7867C86.2108 32.2074 85.8737 32.5424 85.4541 32.5424H65.0469L65.0489 38.9682Z" fill="white"/>
<path d="M116.485 40.4795C112.959 40.4795 110.062 37.6661 110.062 34.0548V13.5208C110.062 10.0785 112.959 7.18055 116.485 7.18055H138.321V0.756836H116.485C109.39 0.756836 103.637 6.50941 103.637 13.6053V34.0548C103.637 41.1517 109.389 46.9043 116.485 46.9043H138.238V40.4805L116.485 40.4795Z" fill="white"/>
<path d="M111.613 13.6038C111.613 10.9172 113.797 8.69043 116.484 8.69043H138.321V15.1162H119.509C117.996 15.1162 117.996 16.6275 117.996 16.6275H133.701V23.0523H111.613V13.6038Z" fill="white"/>
<path d="M116.484 38.9271C113.797 38.9271 111.613 36.7426 111.613 34.055V24.6055H133.7V31.0302H117.996C117.996 32.5426 119.507 32.5426 119.507 32.5426H138.235V38.9251L116.484 38.9271Z" fill="white"/>
<path d="M153.647 40.4795C150.079 40.4795 147.18 37.5805 147.18 34.0548V13.6053C147.18 10.0785 150.079 7.18055 153.606 7.18055H174.769V0.756836H153.563C146.466 0.756836 140.715 6.50941 140.715 13.6053V34.0548C140.715 41.1517 146.508 46.9043 153.606 46.9043H174.769V16.629H156.587V23.0537H168.345V40.4795H153.647Z" fill="white"/>
<path d="M148.691 34.0543C148.691 36.7409 150.919 38.9677 153.606 38.9677H166.833V24.5647H156.587V31.0306H160.409V32.542H156.631C155.789 32.542 155.118 31.8306 155.118 31.0306V16.6286C155.118 16.6286 155.118 15.1162 156.631 15.1162H174.77V8.69043H153.606C150.919 8.69043 148.692 10.9162 148.692 13.6038L148.691 34.0543Z" fill="white"/>
<path d="M194.633 8.60948C194.926 7.76927 195.683 7.18164 196.607 7.18164C197.53 7.18164 198.288 7.7703 198.582 8.60948L208.827 39.0105H193.839V31.8713H198.878L196.61 25.1105L189.218 46.9043H181.66L194.633 8.60948Z" fill="white"/>
<path d="M210.923 40.4794H193.832V46.9031H219.825L206.303 6.80206C205.127 2.89794 201.222 0 196.602 0C191.985 0 188.08 2.85567 186.903 6.80206L173.254 46.9031H180.057L193.283 7.89485C193.829 6.59278 195.088 5.71134 196.599 5.71134C198.07 5.71134 199.331 6.59278 199.877 7.89485L210.923 40.4794Z" fill="white"/>
<path d="M44.4866 88.8096H28.6196V87.0127C29.1938 86.9982 29.932 86.9374 30.834 86.8343C31.7381 86.7343 32.3567 86.591 32.6948 86.4034C33.2186 86.0848 33.6021 85.7188 33.8464 85.3034C34.0918 84.8889 34.2134 84.3714 34.2134 83.7467V57.6333H33.834L21.5856 88.2271H20.3217L8.65464 57.0003H8.3268V78.4333C8.3268 80.5075 8.4567 82.0859 8.71856 83.1652C8.98041 84.2456 9.38041 85.0209 9.92165 85.492C10.2928 85.8446 11.0588 86.1859 12.2227 86.5075C13.3866 86.8271 14.1464 86.9972 14.501 87.0106V88.8075H0V87.0106C0.759794 86.9446 1.55567 86.8178 2.39175 86.6333C3.22577 86.4477 3.87113 86.1704 4.32784 85.7982C4.91753 85.3281 5.32268 84.6013 5.54227 83.6219C5.76289 82.6456 5.8701 81.0075 5.8701 78.7127V60.3405C5.8701 59.2776 5.74433 58.4096 5.49175 57.7353C5.23918 57.0611 4.87629 56.5127 4.40412 56.091C3.88144 55.6343 3.23918 55.2982 2.48041 55.0776C1.72062 54.8601 0.971134 54.7333 0.228866 54.6982V52.9023H12.4773L22.7495 79.8261L31.5309 57.3044C31.8515 56.4807 32.1268 55.6157 32.3536 54.7106C32.5814 53.8085 32.7052 53.2044 32.7217 52.9023H44.4371V54.6982C43.965 54.7157 43.3608 54.792 42.6278 54.9261C41.8948 55.0632 41.3577 55.1889 41.0206 55.3054C40.4485 55.5065 40.0588 55.8467 39.8557 56.3188C39.6536 56.79 39.5526 57.3044 39.5526 57.8611V83.7477C39.5526 84.3384 39.6536 84.8353 39.8557 85.2405C40.0588 85.6446 40.4464 86.0003 41.0206 86.3013C41.3258 86.4724 41.865 86.6281 42.6412 86.7714C43.4165 86.9127 44.033 86.9962 44.4876 87.0096V88.8085L44.4866 88.8096Z" fill="white"/>
<path d="M66.9437 88.3525C66.1519 88.6421 65.456 88.872 64.856 89.0494C64.2571 89.2267 63.5787 89.3143 62.82 89.3143C61.5024 89.3143 60.454 89.0091 59.6684 88.3916C58.8839 87.7772 58.3828 86.8793 58.1633 85.6978H58.0107C56.9148 86.9102 55.7375 87.8411 54.4808 88.4803C53.2231 89.1225 51.7086 89.4411 49.9375 89.4411C48.0653 89.4411 46.5261 88.872 45.32 87.7205C44.1138 86.5751 43.5117 85.0731 43.5117 83.2164C43.5117 82.2545 43.6468 81.3927 43.9169 80.6349C44.1859 79.8751 44.5921 79.1927 45.1303 78.5854C45.553 78.0823 46.1097 77.6308 46.8004 77.2318C47.4932 76.837 48.1416 76.5215 48.7488 76.2834C49.5097 75.9978 51.0488 75.4648 53.3674 74.6885C55.687 73.9153 57.2509 73.3071 58.0612 72.8679V70.3628C58.0612 70.1432 58.0158 69.7215 57.921 69.0978C57.8282 68.4741 57.6313 67.8823 57.3272 67.3256C56.989 66.704 56.5138 66.1586 55.8963 65.6937C55.2818 65.2318 54.4086 64.9978 53.2787 64.9978C52.5014 64.9978 51.7818 65.1298 51.1148 65.3906C50.4478 65.6545 49.9798 65.9267 49.7107 66.2133C49.7107 66.5524 49.7911 67.0473 49.9519 67.705C50.1117 68.3628 50.1921 68.971 50.1921 69.5267C50.1921 70.1184 49.9251 70.6576 49.3932 71.1452C48.8633 71.6391 48.1241 71.8793 47.1798 71.8793C46.3375 71.8793 45.7169 71.5834 45.3189 70.9823C44.9241 70.3854 44.7261 69.7143 44.7261 68.97C44.7261 68.1958 44.9993 67.4524 45.5478 66.7432C46.0973 66.0349 46.8086 65.403 47.687 64.8463C48.4468 64.3762 49.3664 63.972 50.4447 63.6442C51.5251 63.3143 52.5787 63.1504 53.6086 63.1504C55.0261 63.1504 56.2602 63.2473 57.3158 63.4411C58.3705 63.637 59.3272 64.0525 60.188 64.6937C61.0478 65.3195 61.7014 66.1669 62.1488 67.236C62.5952 68.3092 62.82 69.6865 62.82 71.3741C62.82 73.7865 62.7932 75.9246 62.7437 77.7875C62.6921 79.6525 62.6694 81.6906 62.6694 83.8999C62.6694 84.5576 62.7828 85.0823 63.0097 85.471C63.2375 85.8597 63.588 86.1885 64.0602 86.4555C64.3138 86.6092 64.7138 86.6927 65.2622 86.7092C65.8107 86.7256 66.3715 86.736 66.9447 86.736L66.9437 88.3525ZM58.1127 74.9916C56.6787 75.4143 55.4231 75.8246 54.3426 76.2318C53.2622 76.636 52.2591 77.1411 51.3323 77.7504C50.488 78.3236 49.822 79.0019 49.3323 79.7854C48.8437 80.57 48.5983 81.505 48.5983 82.5824C48.5983 83.9834 48.9643 85.0112 49.6993 85.6689C50.4334 86.3256 51.3643 86.6566 52.4942 86.6566C53.6932 86.6566 54.7468 86.3648 55.6581 85.7823C56.5684 85.1999 57.3375 84.5164 57.9602 83.7195L58.1127 74.9916Z" fill="white"/>
<path d="M80.5216 76.5863C81.2134 77.1935 81.7443 77.8946 82.1165 78.6843C82.4876 79.4801 82.6732 80.4502 82.6732 81.5946C82.6732 83.908 81.8072 85.7966 80.0804 87.2636C78.3505 88.7306 76.1103 89.4657 73.3608 89.4657C71.9093 89.4657 70.5722 89.2028 69.3495 88.6801C68.1258 88.1574 67.2526 87.6781 66.7299 87.2379L66.2247 88.8832H64.3268L64.0742 80.2018H65.8196C65.9546 80.8595 66.2412 81.6296 66.6794 82.5028C67.1185 83.3812 67.6505 84.1719 68.2742 84.8812C68.9319 85.6255 69.7206 86.2492 70.6402 86.7554C71.5598 87.2595 72.5938 87.5152 73.7402 87.5152C75.3598 87.5152 76.6093 87.1482 77.4866 86.4131C78.3629 85.6801 78.8031 84.6296 78.8031 83.2616C78.8031 82.5523 78.6639 81.9451 78.3856 81.4286C78.1072 80.9152 77.6969 80.4657 77.1577 80.0739C76.601 79.6863 75.9175 79.3379 75.1072 79.0245C74.2979 78.7131 73.3959 78.4038 72.4 78.0997C71.6062 77.8647 70.7258 77.541 69.7557 77.1255C68.7856 76.7111 67.9546 76.2255 67.2629 75.6698C66.5206 75.0812 65.9134 74.3533 65.4402 73.4946C64.968 72.6337 64.732 71.6214 64.732 70.4575C64.732 68.4162 65.4907 66.6884 67.0093 65.2698C68.5289 63.8523 70.5608 63.143 73.1082 63.143C74.0856 63.143 75.0856 63.2698 76.1072 63.5214C77.1268 63.776 77.9577 64.0781 78.599 64.4317L79.1814 63.1162H81.0031L81.3825 71.1368H79.6371C79.2835 69.3492 78.5185 67.8946 77.3464 66.7708C76.1732 65.6502 74.7433 65.0884 73.0567 65.0884C71.6742 65.0884 70.5845 65.4368 69.7917 66.1275C68.9979 66.8214 68.6031 67.6564 68.6031 68.6337C68.6031 69.3925 68.733 70.0255 68.9948 70.5306C69.2567 71.0379 69.6474 71.4657 70.1722 71.8224C70.6763 72.1605 71.3144 72.477 72.0825 72.7708C72.8505 73.0657 73.7979 73.4018 74.9299 73.7698C76.0433 74.1234 77.0938 74.5389 78.0804 75.01C79.067 75.4904 79.8794 76.0142 80.5216 76.5863Z" fill="white"/>
<path d="M96.452 87.7193C95.3551 88.176 94.318 88.5605 93.3397 88.8708C92.3613 89.1842 91.1634 89.3389 89.7458 89.3389C87.6541 89.3389 86.1819 88.8141 85.3304 87.7585C84.4778 86.7038 84.052 85.2141 84.052 83.2935V66.3894H79.5469V63.9595H84.1531V56.1904H88.7592V63.9595H95.9201V66.3894H88.8098V80.3317C88.8098 81.3791 88.8469 82.2523 88.9242 82.9533C88.9994 83.6523 89.1809 84.2677 89.4675 84.7863C89.7366 85.276 90.1427 85.6471 90.6819 85.8997C91.2211 86.1523 91.9469 86.2791 92.8582 86.2791C93.2788 86.2791 93.8984 86.2409 94.718 86.1626C95.5366 86.0873 96.1139 85.9925 96.452 85.8719V87.7193Z" fill="white"/>
<path d="M115.746 82.938C114.7 84.9298 113.3 86.5143 111.545 87.6947C109.79 88.8772 107.774 89.4648 105.497 89.4648C103.49 89.4648 101.732 89.1112 100.219 88.403C98.7111 87.6947 97.4678 86.7329 96.4874 85.5184C95.5101 84.305 94.7792 82.8885 94.2987 81.2689C93.8173 79.6483 93.5781 77.9401 93.5781 76.1329C93.5781 74.5133 93.8348 72.9226 94.3493 71.3617C94.8647 69.804 95.6194 68.3978 96.6142 67.1494C97.5761 65.9535 98.7688 64.9865 100.196 64.2514C101.62 63.5164 103.22 63.1504 104.99 63.1504C106.812 63.1504 108.373 63.4401 109.671 64.0112C110.971 64.5854 112.025 65.3689 112.835 66.3628C113.611 67.3112 114.188 68.4246 114.569 69.705C114.947 70.9865 115.138 72.3793 115.138 73.8793V75.5494H98.6142C98.6142 77.1875 98.7699 78.672 99.0812 80.005C99.3946 81.338 99.8874 82.5092 100.562 83.5226C101.218 84.5019 102.079 85.2731 103.143 85.838C104.205 86.405 105.471 86.6834 106.939 86.6834C108.44 86.6834 109.734 86.3339 110.822 85.6318C111.912 84.936 112.962 83.672 113.973 81.8514L115.746 82.938ZM110.153 73.4236C110.153 72.4793 110.073 71.4669 109.913 70.3875C109.752 69.3071 109.496 68.4061 109.141 67.6793C108.754 66.904 108.222 66.2741 107.546 65.7813C106.873 65.2937 106.003 65.0483 104.941 65.0483C103.168 65.0483 101.697 65.7854 100.525 67.2638C99.3524 68.7401 98.7152 70.7927 98.6142 73.4236H110.153Z" fill="white"/>
<path d="M132.411 67.0706C132.411 67.9304 132.201 68.6943 131.779 69.3603C131.357 70.0293 130.709 70.3592 129.831 70.3592C128.885 70.3592 128.164 70.1149 127.665 69.6242C127.17 69.1376 126.92 68.5963 126.92 68.0066C126.92 67.6355 126.949 67.2984 127.008 66.9943C127.068 66.6891 127.122 66.385 127.173 66.0829C126.38 66.0829 125.451 66.4036 124.389 67.0448C123.326 67.6871 122.424 68.5963 121.681 69.7767V84.3015C121.681 84.8953 121.796 85.3747 122.023 85.7458C122.25 86.119 122.609 86.3963 123.098 86.5819C123.52 86.7499 124.064 86.8767 124.73 86.9582C125.396 87.0458 125.974 87.1025 126.464 87.1365V88.8066H113.306V87.1365C113.693 87.1036 114.094 87.0716 114.507 87.0365C114.92 87.0046 115.279 86.9376 115.583 86.8324C116.054 86.6809 116.406 86.4159 116.632 86.0376C116.86 85.6582 116.975 85.1634 116.975 84.5572V69.1469C116.975 68.6242 116.852 68.1077 116.608 67.6036C116.362 67.0963 116.02 66.6922 115.582 66.3891C115.262 66.185 114.884 66.0407 114.444 65.9458C114.005 65.8541 113.532 65.7912 113.027 65.7572V64.1118L121.326 63.5541L121.68 63.9087V67.4262H121.806C122.854 66.0592 124.018 65.0221 125.298 64.3139C126.582 63.6046 127.754 63.251 128.816 63.251C129.88 63.251 130.744 63.5984 131.411 64.2891C132.079 64.9798 132.411 65.9066 132.411 67.0706Z" fill="white"/>
<path d="M159.362 72.3362C160.12 73.1815 160.68 74.1032 161.043 75.1073C161.408 76.1114 161.589 77.2805 161.589 78.6114C161.589 81.7857 160.415 84.4011 158.072 86.4568C155.726 88.5176 152.817 89.5434 149.341 89.5434C147.738 89.5434 146.137 89.297 144.533 88.798C142.931 88.3022 141.547 87.697 140.383 86.9898L139.295 88.8372H137.273L136.918 76.5393H138.967C139.39 78.0558 139.883 79.429 140.449 80.6506C141.015 81.8764 141.76 83.0156 142.688 84.0805C143.565 85.0764 144.59 85.8681 145.761 86.4589C146.934 87.0506 148.296 87.3444 149.847 87.3444C151.012 87.3444 152.026 87.1929 152.897 86.8888C153.765 86.5836 154.472 86.1516 155.01 85.597C155.549 85.0403 155.948 84.3877 156.212 83.6372C156.475 82.8877 156.605 82.0217 156.605 81.0413C156.605 79.6125 156.201 78.2712 155.392 77.031C154.583 75.7898 153.377 74.8506 151.773 74.2094C150.676 73.7702 149.419 73.2846 148.001 72.7547C146.586 72.2238 145.362 71.7217 144.333 71.2475C142.309 70.3372 140.735 69.1434 139.613 67.6671C138.491 66.1919 137.931 64.263 137.931 61.8836C137.931 60.5187 138.21 59.2455 138.765 58.063C139.322 56.8826 140.115 55.8269 141.145 54.8991C142.122 54.0238 143.279 53.3341 144.611 52.8362C145.944 52.3393 147.337 52.0908 148.786 52.0908C150.44 52.0908 151.919 52.3424 153.227 52.8506C154.533 53.3558 155.729 53.9475 156.808 54.6197L157.846 52.8991H159.871L160.074 64.8166H158.025C157.655 63.4506 157.237 62.1465 156.772 60.8929C156.309 59.6465 155.707 58.5145 154.963 57.5032C154.239 56.5269 153.352 55.7434 152.307 55.1609C151.26 54.5805 149.978 54.2877 148.461 54.2877C146.86 54.2877 145.491 54.8042 144.361 55.831C143.231 56.863 142.665 58.1187 142.665 59.6011C142.665 61.1547 143.027 62.4403 143.753 63.462C144.479 64.4826 145.534 65.3207 146.917 65.9784C148.148 66.5692 149.357 67.0785 150.546 67.5073C151.736 67.9393 152.887 68.4001 154 68.8877C155.014 69.3269 155.986 69.8248 156.922 70.3815C157.855 70.9444 158.668 71.5929 159.362 72.3362Z" fill="white"/>
<path d="M158.136 96.9586C158.136 96.1153 158.366 95.4276 158.831 94.8946C159.294 94.3627 159.871 94.0977 160.564 94.0977C161.104 94.0977 161.567 94.1967 161.957 94.4019C162.344 94.605 162.69 94.8678 162.994 95.1854C163.247 95.4369 163.519 95.7843 163.804 96.2225C164.091 96.6627 164.319 97.0256 164.486 97.3111C165.331 96.8555 166.339 95.6658 167.513 93.7441C168.683 91.8204 169.535 90.1369 170.054 88.6812C168.45 84.6854 167.002 81.1091 165.702 77.9524C164.403 74.7977 163.045 71.5338 161.628 68.1586C161.308 67.3843 160.767 66.7782 160.008 66.3483C159.25 65.9173 158.49 65.6452 157.73 65.5256V63.8555H169.118V65.6266C168.611 65.6431 168.006 65.7503 167.295 65.9421C166.587 66.1379 166.234 66.3596 166.234 66.6132C166.234 66.7142 166.272 66.8833 166.348 67.1184C166.424 67.3565 166.511 67.6008 166.615 67.8524C167.256 69.5225 168.233 71.9318 169.55 75.0771C170.868 78.2266 171.887 80.741 172.611 82.6318C173.372 80.8256 174.16 78.9596 174.977 77.0276C175.796 75.0957 176.714 72.8153 177.724 70.1823C177.842 69.8637 178.014 69.4215 178.228 68.8544C178.447 68.2895 178.559 67.8039 178.559 67.3998C178.559 66.9627 178.177 66.5524 177.408 66.172C176.64 65.7936 175.911 65.5606 175.218 65.4751V63.8565H184.48V65.4266C183.973 65.5132 183.305 65.8019 182.48 66.2998C181.652 66.7988 181.037 67.5019 180.632 68.4111C178.623 73.0689 176.837 77.3111 175.279 81.14C173.718 84.9709 172.535 87.7874 171.725 89.5916C170.661 91.9565 169.713 93.7967 168.878 95.1214C168.043 96.4472 167.227 97.4864 166.435 98.2452C165.658 98.9555 164.954 99.4328 164.324 99.6771C163.692 99.9194 163.035 100.043 162.364 100.043C161.048 100.043 160.015 99.7318 159.263 99.1091C158.51 98.4874 158.136 97.7678 158.136 96.9586Z" fill="white"/>
<path d="M196.636 76.5863C197.326 77.1935 197.859 77.8946 198.23 78.6843C198.602 79.4801 198.786 80.4502 198.786 81.5946C198.786 83.908 197.92 85.7966 196.195 87.2636C194.463 88.7306 192.225 89.4657 189.474 89.4657C188.025 89.4657 186.685 89.2028 185.465 88.6801C184.24 88.1574 183.367 87.6781 182.844 87.2379L182.338 88.8832H180.44L180.188 80.2018H181.933C182.066 80.8595 182.353 81.6296 182.794 82.5028C183.233 83.3812 183.764 84.1719 184.39 84.8812C185.045 85.6255 185.834 86.2492 186.755 86.7554C187.673 87.2595 188.706 87.5152 189.853 87.5152C191.472 87.5152 192.723 87.1482 193.599 86.4131C194.474 85.6801 194.915 84.6296 194.915 83.2616C194.915 82.5523 194.775 81.9451 194.497 81.4286C194.218 80.9152 193.808 80.4657 193.269 80.0739C192.713 79.6863 192.03 79.3379 191.222 79.0245C190.411 78.7131 189.507 78.4038 188.512 78.0997C187.717 77.8647 186.836 77.541 185.868 77.1255C184.895 76.7111 184.067 76.2255 183.374 75.6698C182.634 75.0812 182.024 74.3533 181.551 73.4946C181.078 72.6337 180.843 71.6214 180.843 70.4575C180.843 68.4162 181.604 66.6884 183.123 65.2698C184.642 63.8523 186.671 63.143 189.22 63.143C190.198 63.143 191.199 63.2698 192.218 63.5214C193.238 63.776 194.071 64.0781 194.712 64.4317L195.296 63.1162H197.116L197.496 71.1368H195.749C195.396 69.3492 194.631 67.8946 193.462 66.7708C192.287 65.6502 190.86 65.0884 189.171 65.0884C187.787 65.0884 186.698 65.4368 185.906 66.1275C185.112 66.8214 184.717 67.6564 184.717 68.6337C184.717 69.3925 184.847 70.0255 185.109 70.5306C185.371 71.0379 185.763 71.4657 186.285 71.8224C186.793 72.1605 187.432 72.477 188.198 72.7708C188.963 73.0657 189.913 73.4018 191.044 73.7698C192.16 74.1234 193.209 74.5389 194.197 75.01C195.18 75.4904 195.994 76.0142 196.636 76.5863Z" fill="white"/>
<path d="M212.567 87.7193C211.471 88.176 210.434 88.5605 209.453 88.8708C208.476 89.1842 207.281 89.3389 205.862 89.3389C203.77 89.3389 202.298 88.8141 201.446 87.7585C200.594 86.7038 200.167 85.2141 200.167 83.2935V66.3894H195.664V63.9595H200.267V56.1904H204.874V63.9595H212.036V66.3894H204.924V80.3317C204.924 81.3791 204.963 82.2523 205.039 82.9533C205.115 83.6533 205.297 84.2677 205.586 84.7863C205.853 85.276 206.261 85.6471 206.797 85.8997C207.336 86.1523 208.062 86.2791 208.972 86.2791C209.394 86.2791 210.014 86.2409 210.833 86.1626C211.651 86.0873 212.229 85.9925 212.566 85.8719L212.567 87.7193Z" fill="white"/>
<path d="M231.863 82.938C230.818 84.9298 229.418 86.5143 227.662 87.6947C225.908 88.8772 223.891 89.4648 221.614 89.4648C219.611 89.4648 217.85 89.1112 216.339 88.403C214.828 87.6947 213.586 86.7329 212.604 85.5184C211.628 84.305 210.895 82.8885 210.415 81.2689C209.933 79.6483 209.695 77.9401 209.695 76.1329C209.695 74.5133 209.954 72.9226 210.466 71.3617C210.981 69.804 211.737 68.3978 212.731 67.1494C213.692 65.9535 214.886 64.9865 216.312 64.2514C217.737 63.5164 219.337 63.1504 221.106 63.1504C222.929 63.1504 224.488 63.4401 225.787 64.0112C227.086 64.5854 228.14 65.3689 228.95 66.3628C229.727 67.3112 230.304 68.4246 230.684 69.705C231.061 70.9865 231.252 72.3793 231.252 73.8793V75.5494H214.729C214.729 77.1875 214.887 78.672 215.197 80.005C215.508 81.338 216 82.5092 216.679 83.5226C217.333 84.5019 218.198 85.2731 219.258 85.838C220.32 86.405 221.585 86.6834 223.055 86.6834C224.557 86.6834 225.849 86.3339 226.94 85.6318C228.027 84.936 229.078 83.672 230.092 81.8514L231.863 82.938ZM226.27 73.4236C226.27 72.4793 226.19 71.4669 226.03 70.3875C225.872 69.3071 225.612 68.4061 225.258 67.6793C224.872 66.904 224.341 66.2741 223.664 65.7813C222.988 65.2937 222.12 65.0483 221.056 65.0483C219.287 65.0483 217.813 65.7854 216.641 67.2638C215.47 68.7401 214.832 70.7927 214.73 73.4236H226.27Z" fill="white"/>
<path d="M272.161 88.8097H259.989V87.1376C260.377 87.1056 260.769 87.0726 261.166 87.0386C261.562 87.0067 261.91 86.9386 262.214 86.8355C262.686 86.683 263.037 86.417 263.265 86.0386C263.494 85.6603 263.608 85.1644 263.608 84.5592V71.6788C263.608 69.9252 263.206 68.5706 262.404 67.617C261.602 66.6644 260.605 66.1881 259.407 66.1881C258.581 66.1881 257.804 66.3128 257.079 66.5665C256.354 66.819 255.688 67.1726 255.081 67.6293C254.59 68.0015 254.181 68.4005 253.85 68.8314C253.523 69.2613 253.273 69.6211 253.103 69.9056V84.3036C253.103 84.8974 253.206 85.3809 253.409 85.7592C253.612 86.1376 253.957 86.4314 254.447 86.6335C254.835 86.785 255.185 86.8994 255.498 86.9747C255.808 87.05 256.217 87.1056 256.724 87.1386V88.8087H244.808V87.1386C245.198 87.1056 245.569 87.0726 245.934 87.0386C246.295 87.0067 246.63 86.9386 246.931 86.8335C247.404 86.6819 247.754 86.417 247.981 86.0376C248.21 85.6592 248.326 85.1644 248.326 84.5572V71.6768C248.326 69.9232 247.924 68.5695 247.121 67.6159C246.321 66.6634 245.319 66.186 244.125 66.186C243.298 66.186 242.519 66.317 241.795 66.5788C241.07 66.8438 240.403 67.2005 239.796 67.6551C239.307 68.0273 238.894 68.4448 238.557 68.9077C238.219 69.3747 237.967 69.7232 237.796 69.9582V84.2551C237.796 84.8293 237.915 85.3118 238.151 85.6984C238.388 86.0881 238.74 86.3819 239.211 86.585C239.565 86.7551 239.93 86.8788 240.299 86.9623C240.673 87.0489 241.083 87.1067 241.539 87.1417V88.8128H229.416V87.1417C229.805 87.1087 230.205 87.0757 230.621 87.0407C231.033 87.0098 231.39 86.9407 231.696 86.8376C232.168 86.686 232.519 86.4201 232.744 86.0396C232.972 85.6623 233.085 85.1685 233.085 84.5603V69.0489C233.085 68.5097 232.967 68.0232 232.719 67.5943C232.474 67.1623 232.133 66.7953 231.696 66.4912C231.374 66.2881 230.979 66.1252 230.507 65.9984C230.035 65.8716 229.545 65.7933 229.039 65.7572V64.1139L237.392 63.5561L237.745 63.9097V67.4778H237.923C238.344 67.0582 238.859 66.5582 239.466 65.984C240.076 65.4139 240.639 64.9458 241.163 64.5933C241.752 64.1902 242.492 63.853 243.379 63.5809C244.264 63.3128 245.222 63.1768 246.25 63.1768C247.869 63.1768 249.26 63.6108 250.426 64.4778C251.592 65.3479 252.427 66.3984 252.93 67.6293C253.539 67.0407 254.074 66.5221 254.538 66.0737C255.001 65.6273 255.613 65.151 256.372 64.6438C257.014 64.2056 257.767 63.851 258.637 63.5809C259.505 63.3128 260.47 63.1768 261.535 63.1768C263.643 63.1768 265.313 63.8716 266.546 65.251C267.776 66.6355 268.393 68.7623 268.393 71.6293V84.3077C268.393 84.8984 268.493 85.3809 268.699 85.7623C268.902 86.1397 269.245 86.4355 269.736 86.6345C270.126 86.7871 270.507 86.9005 270.886 86.9768C271.267 87.052 271.692 87.1077 272.165 87.1407V88.8118H272.162V88.8097H272.161Z" fill="white"/>
</g>
<defs>
<clipPath id="clip0_4_5336">
<rect width="272.165" height="100" fill="white"/>
</clipPath>
</defs>
</svg>
