<svg width="265" height="100" viewBox="0 0 265 100" fill="none" xmlns="http://www.w3.org/2000/svg">
<g clip-path="url(#clip0_4_5358)">
<path d="M0 34.5438C2.33645 31.0391 4.42756 27.8265 6.56542 24.6139C11.2383 17.6045 15.9112 10.5952 20.5841 3.51574C21.218 2.41623 22.1386 1.50947 23.2476 0.892227C24.3566 0.274989 25.6123 -0.0295611 26.8808 0.011068C31.215 0.0694792 35.5491 0.011068 40.0467 0.011068V3.21199L40.3037 3.4807C43.0607 -0.362762 47.0561 -0.0823886 50.993 -0.0239773C55.4322 0.0344339 59.8715 -0.0239916 64.3107 0.0344196C64.7196 0.0344196 65.1285 0.0344282 65.6192 0.116204V34.4036H53.014V9.63722C52.425 9.50071 51.8081 9.55111 51.2491 9.78142C50.6901 10.0117 50.2168 10.4105 49.8949 10.9223C49.0888 11.9503 48.3879 13.0601 47.6869 14.1583C43.4696 20.6536 39.2757 27.1723 35.035 33.6559C34.8983 33.879 34.7165 34.0712 34.5013 34.22C34.286 34.3689 34.0421 34.4712 33.785 34.5204C29.778 34.5204 25.7593 34.5204 21.7407 34.5204C21.5205 34.4614 21.3086 34.375 21.1098 34.2634L37.465 9.35686L37.3131 8.90126C35.2936 8.9186 33.2783 9.09042 31.285 9.41526C30.1942 9.7958 29.2693 10.5432 28.6682 11.5298C23.8201 18.7844 19.0537 26.0975 14.2991 33.4106C14.1165 33.7842 13.8267 34.0949 13.4667 34.303C13.1067 34.5111 12.6929 34.6071 12.278 34.5788C8.27103 34.5087 4.29907 34.5438 0 34.5438Z" fill="white"/>
<path d="M177.092 90.1745C176.979 89.6861 176.901 89.1903 176.858 88.6909C176.858 85.5717 176.858 82.4409 176.858 79.3451C176.858 78.4105 176.636 77.9899 175.62 78.0133C173.494 78.0133 171.356 78.0133 169.008 78.0133C169.008 79.5203 169.008 80.8054 169.008 82.0904C169.008 82.4993 168.587 83.2586 168.342 83.2586C165.935 83.3404 163.517 83.2586 160.982 83.2586V78.9829C160.982 74.7773 160.982 70.5717 160.982 66.3661C160.982 65.1161 161.379 64.7189 162.548 64.7423C164.417 64.7423 166.286 64.7423 168.143 64.8124C168.482 64.8124 169.02 65.4432 169.055 65.8171C169.171 66.9853 169.055 68.2353 169.055 69.8474H173.926C176.882 69.8474 176.882 69.8474 176.882 66.8568C176.882 64.4269 176.882 61.997 176.882 59.567C176.882 58.4689 176.578 58.0834 175.48 58.0951C168.996 58.2002 162.501 58.2586 156.017 58.3287H155.281C155.632 57.9199 155.819 57.6745 156.041 57.4642C164.405 49.7306 173.739 43.5624 184.744 40.2797C189.078 38.9829 193.517 38.247 198.015 39.31C199.639 39.8143 201.228 40.427 202.77 41.1441L202.968 41.7516C202.474 42.0755 201.998 42.4265 201.543 42.803C194.432 49.2828 187.33 55.7703 180.235 62.2656C179.851 62.546 179.577 62.9513 179.46 63.4118C179.342 63.8723 179.389 64.3593 179.592 64.789L205.351 46.004L205.877 46.553C205.415 46.749 204.976 46.9959 204.569 47.289C196.843 54.2984 189.132 61.3077 181.438 68.3171C180.613 69.1188 179.833 69.9651 179.101 70.8521L179.545 71.296L205.246 53.4222L205.538 53.7493C205.153 54.0414 204.732 54.31 204.37 54.6371C196.317 61.81 188.272 68.9985 180.235 76.2026C179.761 76.7816 179.368 77.4222 179.066 78.1068L179.522 78.4806L202.524 61.9853L202.77 62.2306C202.349 62.6745 201.975 63.1418 201.52 63.5507C194.44 69.9993 187.357 76.444 180.27 82.8848C179.829 83.3452 179.437 83.8503 179.101 84.3918L179.545 84.8357C184.522 81.2376 189.491 77.6317 194.452 74.018L194.709 74.2984C193.204 76.0435 191.614 77.7122 189.942 79.2984C185.889 82.803 181.695 86.1792 177.571 89.6021C177.365 89.7769 177.17 89.9642 176.987 90.1628L177.092 90.1745Z" fill="white"/>
<path d="M142.323 27.5112V20.8757H134.041C135.758 18.3173 137.265 16.0392 138.807 13.7963C138.901 13.7006 139.014 13.6253 139.139 13.5751C139.263 13.5248 139.397 13.5007 139.531 13.5042H154.041V34.5322C153.538 34.5322 153.048 34.6257 152.557 34.6257H117.662C117.101 34.6257 116.494 34.6257 115.992 34.5439C113.083 34.4388 112.487 33.7612 112.487 30.8056C112.487 24.6374 112.428 18.4808 112.487 12.3126C112.521 11.4046 112.795 10.5218 113.281 9.75421C115.057 6.95047 116.973 4.24019 118.784 1.4715C119.025 1.04403 119.377 0.689369 119.802 0.444758C120.228 0.200146 120.711 0.0746061 121.202 0.0813098H151.272C151.472 0.0959689 151.671 0.123273 151.868 0.163076V7.00887H127.487C125.443 7.00887 124.566 7.82664 124.531 9.97617C124.473 14.6491 124.531 19.322 124.473 23.9949C124.41 24.832 124.43 25.6732 124.531 26.5065C124.601 26.8921 125.174 27.4645 125.524 27.4645C131.073 27.5229 136.634 27.5112 142.323 27.5112Z" fill="white"/>
<path d="M69.4842 34.2399C69.4842 33.6675 69.4141 33.1651 69.4141 32.6628C69.4141 25.8871 69.4141 19.1114 69.4141 12.3357C69.4408 11.4693 69.6903 10.6244 70.1384 9.88243C71.879 7.05533 73.7482 4.32167 75.5472 1.52962C75.7655 1.09552 76.0989 0.729754 76.5109 0.472232C76.923 0.21471 77.3978 0.0753329 77.8837 0.0693359C87.837 0.0693359 97.7435 0.0693359 107.732 0.0693359C107.951 0.08075 108.169 0.104164 108.386 0.139444V6.99692H85.0215C84.419 6.97391 83.8309 7.18476 83.3802 7.58538C82.9295 7.98599 82.6511 8.54534 82.6033 9.14644C82.5215 10.5249 82.6033 11.9268 82.6033 13.4572H108.585C106.949 15.9338 105.501 18.2002 103.912 20.3848C103.678 20.7236 102.942 20.8404 102.428 20.8521C96.4585 20.8521 90.4771 20.8521 84.4958 20.8521H82.7201V27.4525H108.421V34.2049L69.4842 34.2399Z" fill="white"/>
<path d="M170.492 21.986V34.4159C170.036 34.4159 169.628 34.4977 169.23 34.4977C166.24 34.4977 163.249 34.4977 160.258 34.4977C159.09 34.4977 158.6 34.1589 158.635 32.9089C158.728 30.1636 158.693 27.4066 158.705 24.6496V0.116859C159.172 0.116859 159.581 0.0233988 159.978 0.0233988C166.707 0.0233988 173.436 0.0233988 180.165 0.0233988C180.58 -0.00831362 180.996 0.0713316 181.369 0.254117C181.743 0.436902 182.061 0.716194 182.291 1.06312L205.807 33.8318C205.935 34.0321 206.044 34.2432 206.135 34.4626C203.378 34.4626 200.761 34.2757 198.191 34.4626C197.127 34.6681 196.026 34.5159 195.058 34.0299C194.09 33.5439 193.31 32.7513 192.84 31.7757C191.987 30.2454 191.018 28.3879 189.604 27.6636C188.191 26.9393 186.1 27.4533 184.359 27.4416C181.602 27.4416 178.845 27.4416 176.1 27.4416C175.489 27.3782 174.923 27.0911 174.511 26.6355C173.214 25.0701 172.034 23.4113 170.796 21.7874L170.492 21.986ZM184.324 20.7477C184.278 20.5766 184.211 20.4119 184.125 20.2571C181.053 16.0514 177.992 11.8342 174.885 7.64023C174.643 7.32266 174.286 7.11285 173.892 7.05611C172.84 6.97434 171.777 7.05611 170.621 7.05611V20.7828L184.324 20.7477Z" fill="white"/>
<path d="M199.147 75.7474C200.864 74.1703 202.429 72.6983 204.03 71.2847C209.871 66.0511 215.841 60.7707 221.798 55.6188C222.287 55.2611 222.647 54.7549 222.823 54.1758C223 53.5967 222.985 52.9759 222.78 52.4062L196.296 71.7871L196.051 71.495C196.319 71.2146 196.576 70.9226 196.857 70.6656C205.245 63.0877 213.644 55.5176 222.055 47.9553C222.435 47.6715 222.713 47.2719 222.845 46.8167C222.978 46.3615 222.959 45.8754 222.791 45.4319L196.588 64.252L196.308 63.9483C196.915 63.3642 197.476 62.7801 198.13 62.2193C206.098 55.21 214.057 48.2006 222.009 41.1913C222.491 40.6097 222.885 39.9602 223.177 39.2637L222.64 38.7847L199.544 55.4319L199.252 55.1516C199.819 54.4247 200.432 53.7341 201.086 53.0838C208.041 46.9857 214.995 40.8914 221.95 34.8011C222.448 34.2257 222.864 33.585 223.189 32.8969L222.651 32.4179L207.873 43.3992C208.586 40.8174 220.081 30.4436 225.116 27.71V31.8104C225.116 40.4553 225.116 49.1002 225.116 57.745C225.116 59.0651 225.443 59.509 226.822 59.4974C232.569 59.4156 238.317 59.4974 244.065 59.4974C244.906 59.4974 245.735 59.4156 246.658 59.3688C246.539 59.6052 246.39 59.8251 246.214 60.0231C237.546 68.0721 227.885 74.474 216.343 77.6282C212.254 78.7964 208.095 79.3455 203.89 78.2474C202.095 77.9044 200.444 77.034 199.147 75.7474Z" fill="white"/>
<path d="M177.093 90.1753C176.135 90.7361 175.165 91.2735 174.207 91.8459C168.121 95.4791 161.789 98.5632 154.71 99.6496C152.13 100.041 149.512 100.1 146.917 99.8249C140.457 99.0889 136.906 94.4043 137.572 87.8856C137.911 84.4863 138.844 81.1728 140.329 78.0959C143.241 71.9876 147.159 66.4117 151.917 61.6006C151.917 62.138 152.058 62.4768 152.058 62.7688C152.058 69.4043 152.058 76.0398 152.058 82.6286C152.046 83.5613 152.128 84.4928 152.303 85.409C152.526 86.7111 153.213 87.8883 154.238 88.7219C155.263 89.5555 156.555 89.9889 157.875 89.9417H175.434C175.983 89.9417 176.602 90.0468 177.093 90.0936V90.1753Z" fill="white"/>
<path d="M250.489 55.8051V50.1859C250.489 44.7186 250.489 39.2513 250.489 33.8308C250.489 29.6952 248.153 27.4522 244.017 27.4522H225.793C225.91 27.2069 225.933 27.0551 226.015 27.0083C232.697 22.6976 239.73 19.1695 247.674 17.9195C249.99 17.5361 252.348 17.4654 254.683 17.7093C261.903 18.5037 265.501 23.3284 264.566 30.5597C264.047 34.1722 262.913 37.669 261.214 40.8985C258.388 46.3657 254.775 51.3882 250.489 55.8051Z" fill="white"/>
<path d="M233.809 43.3758C233.809 40.8174 233.879 38.2473 233.809 35.6889C233.809 34.3571 234.253 33.9949 235.491 34.0767C236.886 34.1935 238.289 34.1935 239.685 34.0767C240.853 33.9599 241.239 34.4389 241.239 35.5604C241.239 40.1281 241.239 44.6959 241.239 49.2636C241.239 52.7683 241.239 52.7683 237.734 52.7683C233.855 52.7683 233.855 52.7683 233.855 48.8314V43.3758H233.809Z" fill="white"/>
</g>
<defs>
<clipPath id="clip0_4_5358">
<rect width="264.696" height="100" fill="white"/>
</clipPath>
</defs>
</svg>
