<svg width="407" height="100" viewBox="0 0 407 100" fill="none" xmlns="http://www.w3.org/2000/svg">
<g clip-path="url(#clip0_4_5378)">
<path d="M251.159 60.5896V34.6093H233.824V24.9922H260.9V62.0407L261.363 62.1333C262.011 60.2809 262.69 58.4284 263.323 56.5606C268.531 41.2163 273.733 25.8721 278.93 10.5279C279.956 7.44312 281.931 4.76117 284.571 2.86442C287.211 0.96768 290.383 -0.0470288 293.634 -0.0350514C296.885 -0.023074 300.049 1.01498 302.676 2.93113C305.302 4.84728 307.256 7.54368 308.26 10.6359C314.713 29.7982 321.176 48.9502 327.649 68.0919C327.88 68.7866 328.081 69.4812 328.328 70.3148H289.535V60.8057H315.006C313.941 57.7184 312.984 54.7699 311.996 51.8678L298.705 12.6427C298.531 11.9195 298.206 11.2415 297.75 10.6535C297.295 10.0656 296.72 9.58112 296.063 9.23227C295.406 8.88342 294.683 8.67814 293.941 8.63005C293.198 8.58195 292.454 8.69214 291.758 8.95329C290.895 9.29884 290.128 9.84656 289.521 10.5504C288.914 11.2542 288.485 12.0935 288.269 12.9977L275.21 51.7134C273.11 57.8881 270.995 64.0629 268.865 70.3766H230.165C218.587 70.3766 210.329 62.8434 209.974 51.2812C209.649 40.4754 209.727 29.7931 210.051 19.0644C210.255 14.3468 212.238 9.88135 215.6 6.56533C218.961 3.2493 223.454 1.32839 228.174 1.18855C238.794 0.956996 249.415 1.18855 260.035 1.18855C260.306 1.20733 260.574 1.24864 260.838 1.31205V10.8366H230.165C223.697 10.8366 219.652 14.881 219.652 21.3491V50.6791C219.591 52.026 219.811 53.3708 220.298 54.6281C220.785 55.8853 221.529 57.0273 222.481 57.9814C223.434 58.9355 224.575 59.6807 225.831 60.1696C227.088 60.6585 228.432 60.8804 229.779 60.8211H249.415C249.955 60.6976 250.495 60.6359 251.159 60.5896Z" fill="white"/>
<path d="M96.7862 58.5047V48.8413H125.499C125.982 48.9433 126.482 48.9433 126.965 48.8413C127.457 48.4974 127.899 48.087 128.277 47.6218C127.83 47.2976 127.397 46.711 126.934 46.6955C124.403 46.6029 121.871 46.6955 119.339 46.6955C114.155 46.6997 109.125 44.9283 105.087 41.6761C101.049 38.4239 98.2468 33.8871 97.1461 28.8206C96.0455 23.754 96.713 18.4634 99.0377 13.829C101.362 9.19467 105.204 5.49611 109.923 3.34882C112.618 2.13294 115.521 1.44142 118.475 1.31116C128.648 1.06417 138.836 1.21855 149.025 1.21855C149.309 1.23373 149.592 1.26464 149.874 1.31116V10.8666C149.163 10.8666 148.438 10.9901 147.728 10.9901C138.296 10.9901 128.849 10.9901 119.401 10.9901C116.24 10.9793 113.185 12.1263 110.811 14.2146C108.438 16.3028 106.912 19.1877 106.521 22.3244C106.129 25.4612 106.9 28.6327 108.687 31.24C110.474 33.8473 113.154 35.71 116.221 36.4763C119.146 36.882 122.099 37.0472 125.051 36.9703C126.774 36.9519 128.494 37.0914 130.192 37.3871C132.665 38.1047 134.802 39.6825 136.215 41.836C137.628 43.9896 138.226 46.5771 137.9 49.1323C137.574 51.6875 136.346 54.0422 134.437 55.772C132.529 57.5018 130.065 58.4928 127.49 58.5665C120.883 58.69 114.276 58.5665 107.669 58.5665L96.7862 58.5047Z" fill="white"/>
<path d="M96.7891 70.3753V60.5884H99.0583C108.506 60.5884 117.953 60.5884 127.4 60.5884C130.611 60.5859 133.705 59.387 136.078 57.2258C138.452 55.0647 139.935 52.0964 140.238 48.9005C140.541 45.7046 139.642 42.5106 137.716 39.942C135.79 37.3735 132.977 35.6149 129.824 35.0095C126.51 34.6895 123.178 34.6018 119.852 34.7471C118.084 34.8195 116.326 34.451 114.736 33.6749C113.146 32.8989 111.774 31.7395 110.744 30.3013C109.544 28.7498 108.805 26.8918 108.611 24.94C108.417 22.9881 108.776 21.0211 109.648 19.2639C110.398 17.4268 111.681 15.8566 113.332 14.7559C114.983 13.6553 116.926 13.0747 118.91 13.0891C129.083 12.9193 139.271 13.0891 149.46 13.0891C149.621 13.126 149.776 13.1831 149.923 13.2589V22.7526H120.871C120.32 22.6839 119.761 22.71 119.219 22.8298C118.991 22.9404 118.789 23.0981 118.627 23.2923C118.465 23.4865 118.346 23.713 118.277 23.9567C118.277 24.2037 118.802 24.8212 119.157 24.8829C120.072 25.0116 120.997 25.0633 121.92 25.0373C126.227 25.0373 130.534 24.7594 134.748 26.2259C139.623 27.9306 143.773 31.244 146.514 35.6208C149.255 39.9977 150.425 45.1773 149.83 50.3074C148.194 61.7307 139.426 70.0975 128.357 70.3753C117.876 70.5606 107.379 70.3753 96.7891 70.3753Z" fill="white"/>
<path d="M206.281 1.11047V10.7739H174.605C168.106 10.7739 164.077 14.7875 164.077 21.2556V50.5084C163.998 51.871 164.208 53.2349 164.695 54.51C165.182 55.7851 165.934 56.9423 166.902 57.9052C167.869 58.8682 169.03 59.6149 170.307 60.0961C171.584 60.5773 172.949 60.7821 174.311 60.6968H206.111V70.3603H173.972C171.404 70.4061 168.853 69.9351 166.471 68.9754C164.089 68.0157 161.924 66.5869 160.105 64.7738C158.287 62.9607 156.851 60.8004 155.884 58.4214C154.916 56.0423 154.437 53.4931 154.475 50.9252C154.475 40.7987 154.475 30.6772 154.475 20.5609C154.435 17.9918 154.913 15.4408 155.879 13.06C156.845 10.6792 158.281 8.51706 160.1 6.70233C161.919 4.8876 164.084 3.45735 166.467 2.4967C168.851 1.53604 171.403 1.06462 173.972 1.11047H206.389H206.281Z" fill="white"/>
<path d="M311.856 58.4125H289.426V51.5276L289.04 51.435C288.639 52.5619 288.222 53.6733 287.836 54.8002C286.292 59.5239 284.61 64.2476 283.066 68.9867C283.034 69.2068 282.959 69.4184 282.844 69.6088C282.729 69.7993 282.577 69.9649 282.397 70.0958C282.218 70.2267 282.013 70.3202 281.797 70.371C281.58 70.4218 281.356 70.4288 281.136 70.3915C277.879 70.3143 274.622 70.3915 271.18 70.3915C273.202 64.4174 275.147 58.644 277.107 52.8861C281.543 39.7442 285.984 26.6074 290.429 13.4757C290.565 12.745 290.944 12.0817 291.504 11.5939C292.065 11.1061 292.774 10.8227 293.517 10.7897C294.301 10.7736 295.064 11.0436 295.664 11.5493C296.263 12.0551 296.658 12.7619 296.774 13.5375C296.774 13.7073 296.913 13.8771 296.975 14.0469L305.913 40.6909C307.703 46.0115 309.489 51.3269 311.269 56.6372C311.501 57.193 311.655 57.7795 311.856 58.4125ZM293.609 37.7734L290.291 47.7147H296.913C295.832 44.4884 294.814 41.4165 293.609 37.7734Z" fill="white"/>
<path d="M239.287 48.8412V46.6029H233.838V36.8159H248.966V58.4275C248.426 58.4275 247.947 58.5356 247.422 58.5356C241.556 58.5356 235.69 58.5356 229.824 58.5356C224.884 58.5356 221.828 55.4482 221.812 50.5856C221.812 40.706 221.812 30.8264 221.812 20.9468C221.812 16.0225 224.9 13.0586 229.84 13.0586H260.713V22.7684H234.903C232.047 22.7684 231.522 23.2778 231.507 26.0873V45.5223C231.507 48.054 232.294 48.8412 234.81 48.8721C236.231 48.8567 237.635 48.8412 239.287 48.8412Z" fill="white"/>
<path d="M206.283 13.2452V22.7389H204.044C195.662 22.7389 187.264 22.7389 178.882 22.7389C177.462 22.7389 176.32 22.9858 175.995 24.8846H178.079C184.625 24.8846 191.154 24.8846 197.7 24.8846C199.104 24.8846 199.521 25.3014 199.475 26.6753C199.382 29.2378 199.475 31.8158 199.475 34.5018H166.332V24.3443C166.332 22.9241 166.332 21.5039 166.332 20.0837C166.384 18.2744 167.114 16.5507 168.378 15.2552C169.642 13.9596 171.348 13.187 173.155 13.0908C183.961 13.0908 194.875 13.0908 205.727 13.0908C205.918 13.1197 206.104 13.1715 206.283 13.2452Z" fill="white"/>
<path d="M166.331 36.9561H199.289V46.5115H176.134L175.794 47.0209C176.301 47.6196 176.894 48.1399 177.554 48.5646C178.253 48.8052 178.996 48.8895 179.73 48.8116H206.081V58.4133H174.59C169.156 58.4133 166.27 55.5112 166.27 50.062L166.331 36.9561Z" fill="white"/>
<path d="M101.326 82.9258H111.175C111.175 85.3957 111.175 87.7729 111.175 90.1502C111.175 93.4691 111.746 94.0557 115.019 94.0557H129.638C130.371 94.1265 131.111 94.0041 131.783 93.7007C132.401 93.2994 133.126 92.4194 133.049 91.8328C132.899 91.4744 132.66 91.1602 132.355 90.9198C132.05 90.6794 131.688 90.5208 131.305 90.459C128.048 90.32 124.775 90.4589 121.502 90.3818H119.326V85.3494C119.943 85.3494 120.592 85.2722 121.24 85.2722H135.859C140.69 85.2722 143.253 87.5723 143.392 91.9718C143.493 92.9592 143.382 93.9567 143.069 94.8983C142.755 95.84 142.245 96.7043 141.572 97.434C140.899 98.1637 140.079 98.7421 139.166 99.1311C138.253 99.5201 137.268 99.7107 136.275 99.6902C133.188 99.86 130.224 99.7674 127.214 99.7674C121.471 99.7674 115.729 99.7674 110.002 99.7674C108.587 99.7607 107.178 99.5897 105.803 99.258C104.565 99.0413 103.442 98.3975 102.63 97.4385C101.818 96.4796 101.367 95.2662 101.357 94.0094C101.234 90.3663 101.326 86.7387 101.326 82.9258Z" fill="white"/>
<path d="M370.44 82.6172C373.728 82.6172 376.614 82.6172 379.517 82.6172C379.825 82.6172 380.319 82.8024 380.412 83.0494C381.184 84.7629 382.697 84.7166 384.194 84.7166L401.591 84.8092H403.722V89.9651H383.546C382.937 89.8618 382.313 89.9042 381.724 90.0887C381.107 90.4592 380.35 91.1692 380.319 91.7713C380.288 92.3733 381.076 93.0371 381.662 93.315C382.295 93.5623 382.978 93.6523 383.654 93.5774C390.508 93.5774 397.346 93.67 404.2 93.5774C405.744 93.5774 406.377 93.917 406.253 95.6305C405.991 99.4125 406.068 99.428 402.286 99.4434C394.568 99.4434 386.741 99.4434 378.961 99.4434C377.832 99.5121 376.701 99.3419 375.642 98.9439C374.584 98.5459 373.621 97.929 372.816 97.1336C372.012 96.3382 371.385 95.3821 370.975 94.3277C370.566 93.2734 370.383 92.1445 370.44 91.0148C370.424 88.406 370.44 85.6428 370.44 82.6172Z" fill="white"/>
<path d="M70.439 90.3208C70.0376 93.0068 70.6705 93.8095 73.1713 93.8404C79.9635 93.9484 86.7557 94.0102 93.5325 94.0874H95.8635V99.5057C95.3695 99.5057 94.8292 99.5983 94.3198 99.5983C85.6751 99.5983 77.0305 99.4903 68.4013 99.3822C62.7668 99.3822 60.2815 96.7579 60.2969 91.1698V82.6641C63.3843 82.6641 66.3173 82.6641 69.204 82.6641C69.3955 82.7007 69.5759 82.7811 69.7312 82.8989C69.8865 83.0167 70.0125 83.1688 70.0994 83.3433C70.5625 84.995 71.782 85.2883 73.1867 85.2883H92.8224C93.1775 85.2883 93.548 85.2883 94.0728 85.381V90.2899L70.439 90.3208Z" fill="white"/>
<path d="M343.779 92.2805C344.906 90.7368 345.77 89.61 346.619 88.4368C347.978 86.5226 348.935 83.8057 350.772 82.9103C352.609 82.015 355.403 82.6479 357.672 82.6325H361.516C361.084 83.4198 360.868 83.8829 360.59 84.3151C357.348 89.0388 354.152 93.7933 350.818 98.4553C350.528 98.8106 350.169 99.1043 349.763 99.319C349.358 99.5338 348.913 99.6652 348.456 99.7057C345.261 99.8446 342.05 99.8137 338.839 99.7057C338.463 99.7135 338.089 99.6435 337.741 99.5001C337.393 99.3566 337.078 99.1428 336.817 98.8721C333.436 93.6544 330.179 88.3596 326.598 82.6633C328.391 82.8044 330.192 82.8044 331.985 82.6633C335.999 81.9841 338.592 83.5124 340.306 87.1401C341.344 88.931 342.505 90.6486 343.779 92.2805Z" fill="white"/>
<path d="M188.73 99.6293H178.603L178.372 94.7821H160.48V87.8201H178.495V82.834H188.73V99.6293Z" fill="white"/>
<path d="M273.199 87.7886H286.66C290.272 87.7886 290.812 87.2638 291.029 83.6824C291.054 83.4075 291.095 83.1343 291.152 82.8643H301.695C302.236 86.9242 301.325 90.2122 297.636 92.5741L304.52 99.2273L304.212 99.7831C303.641 99.7831 303.054 99.8757 302.483 99.8757C301.249 99.7986 300.012 99.7986 298.778 99.8757C294.147 100.478 290.365 99.2891 287.602 95.2447C287.328 94.9802 287.004 94.7741 286.648 94.6387C286.293 94.5034 285.913 94.4417 285.533 94.4574C281.458 94.4574 277.398 94.4574 273.184 94.4574L273.199 87.7886Z" fill="white"/>
<path d="M0.0625 80.7029C0.0625 79.1592 0.0625 77.6927 0.0625 76.2416C0.0625 75.8866 0.664543 75.4852 1.08134 75.2845C1.44245 75.2059 1.81624 75.2059 2.17735 75.2845C16.4307 75.2845 30.6789 75.2845 44.922 75.2845C46.5845 75.2551 48.2466 75.3584 49.8927 75.5933C51.1214 75.7561 52.2473 76.3652 53.0558 77.3047C53.8643 78.2441 54.2989 79.4482 54.2768 80.6874L0.0625 80.7029Z" fill="white"/>
<path d="M253.781 82.8027C253.944 86.6714 253.913 90.5457 253.689 94.4112C253.541 95.8871 252.855 97.2568 251.761 98.259C250.668 99.2612 249.244 99.8258 247.761 99.845C239.888 99.9839 232 99.845 223.973 99.845V94.0408H227.894C232.2 94.0408 236.523 94.0408 240.83 94.0408C243.469 94.0408 244.288 93.2226 244.334 90.6292C244.38 88.0358 244.334 85.4887 244.334 82.8027H253.781Z" fill="white"/>
<path d="M253.379 80.9975H212.656V75.363H243.792C245.274 75.3474 246.755 75.4403 248.223 75.6409C249.535 75.88 250.74 76.526 251.665 77.4873C252.59 78.4486 253.19 79.6766 253.379 80.9975Z" fill="white"/>
<path d="M101.93 80.9813C101.972 79.6678 102.477 78.4116 103.355 77.4342C104.233 76.4569 105.429 75.8215 106.731 75.6401C108.13 75.4242 109.545 75.3313 110.96 75.3623C120.655 75.3623 130.334 75.4394 140.028 75.4857C140.478 75.5075 140.926 75.5539 141.371 75.6247V80.9813H101.93Z" fill="white"/>
<path d="M301.094 80.951H261.375C261.645 79.5327 262.367 78.2399 263.432 77.266C264.498 76.292 265.851 75.6893 267.287 75.5481C269.248 75.3474 271.239 75.3783 273.215 75.3628C280.054 75.3628 286.908 75.3628 293.746 75.3628C295.435 75.272 297.1 75.7841 298.446 76.8076C299.792 77.8312 300.731 79.2996 301.094 80.951Z" fill="white"/>
<path d="M148.996 80.9956C149.06 79.4915 149.713 78.0727 150.813 77.0449C151.913 76.017 153.373 75.4623 154.878 75.5001C159.925 75.3457 164.973 75.3611 170.037 75.3457C173.911 75.3457 177.755 75.3457 181.676 75.4846C183.202 75.5639 184.658 76.1485 185.815 77.1462C186.972 78.1439 187.764 79.4981 188.067 80.9956H148.996Z" fill="white"/>
<path d="M370.547 80.5653V75.4248H405.882V80.5653H370.547Z" fill="white"/>
<path d="M60.5123 80.8109C59.9874 75.3617 59.9874 75.3926 65.1433 75.408C74.637 75.408 84.1307 75.408 93.6243 75.408H95.9707V80.7337L60.5123 80.8109Z" fill="white"/>
<path d="M260.543 99.5521C260.543 94.0874 260.543 88.8697 260.543 83.6367C260.627 83.4105 260.768 83.2096 260.952 83.053C261.136 82.8963 261.356 82.7891 261.593 82.7413C264.68 82.6642 267.767 82.7413 270.855 82.7413V99.5521H260.543Z" fill="white"/>
<path d="M307.703 99.5821V82.6787H317.783V99.5821H307.703Z" fill="white"/>
<path d="M158.536 99.5681C155.449 99.5681 152.655 99.5681 149.83 99.5681C149.428 99.5681 148.703 99.0587 148.688 98.7808C148.688 93.5014 148.688 88.2066 148.688 82.8809H158.536V99.5681Z" fill="white"/>
<path d="M22.2109 82.6338H31.8127V99.0895H22.2109V82.6338Z" fill="white"/>
<path d="M54.2895 82.8027V99.2275H45.0273V82.8027H54.2895Z" fill="white"/>
<path d="M221.934 99.6138H212.672V82.9111H221.934V99.6138Z" fill="white"/>
<path d="M9.19962 99.0881H-0.0625C-0.0625 93.7932 -0.0625 88.7608 -0.0625 83.6512C-0.00382133 83.4194 0.113681 83.2067 0.278644 83.0336C0.443606 82.8606 0.650446 82.7329 0.87915 82.6632C3.5806 82.586 6.28205 82.6632 9.09156 82.6632L9.19962 99.0881Z" fill="white"/>
<path d="M351.977 80.4402C352.98 78.8965 353.968 77.3528 355.064 75.8091C355.188 75.645 355.343 75.5071 355.52 75.4038C355.698 75.3004 355.894 75.2335 356.098 75.207C359.448 75.207 362.813 75.207 366.719 75.207C365.283 77.2756 364.172 78.9273 363.014 80.5482C362.898 80.6828 362.756 80.7931 362.597 80.8726C362.438 80.9521 362.265 80.9993 362.088 81.0113C358.769 81.0113 355.465 81.0113 352.146 81.0113L351.977 80.4402Z" fill="white"/>
<path d="M321.965 75.2842C325.346 75.2842 328.232 75.2842 331.119 75.2842C331.383 75.2907 331.642 75.3516 331.881 75.4632C332.12 75.5748 332.334 75.7346 332.508 75.9325C333.604 77.4762 334.592 79.0199 335.781 80.9032C332.369 80.9032 329.266 80.9032 326.164 80.9032C325.987 80.8803 325.816 80.8221 325.663 80.7319C325.509 80.6418 325.375 80.5215 325.268 80.3784C324.219 78.8347 323.215 77.2292 321.965 75.2842Z" fill="white"/>
<path d="M307.871 80.8266V75.4082H317.751V80.8266H307.871Z" fill="white"/>
</g>
<defs>
<clipPath id="clip0_4_5378">
<rect width="406.267" height="100" fill="white"/>
</clipPath>
</defs>
</svg>
