<svg width="149" height="100" viewBox="0 0 149 100" fill="none" xmlns="http://www.w3.org/2000/svg">
<g clip-path="url(#clip0_4_5411)">
<path d="M115.765 86.251H111.824V100H115.765V86.251Z" fill="white"/>
<path d="M121.207 90.8507L117.266 92.1105V86.251H121.207V90.8507Z" fill="white"/>
<path d="M132.949 92.1105L129.008 90.8507V86.251H132.949V92.1105Z" fill="white"/>
<path d="M121.937 100H126.686L118.545 86.251L117.266 92.1105L121.937 100Z" fill="white"/>
<path d="M128.276 100H123.527L131.669 86.251L132.948 92.1105L128.276 100Z" fill="white"/>
<path d="M14.7167 87.2292L13.9087 88.5936V86.251H9.17981C8.53108 86.251 7.92487 86.6177 7.56276 87.2292L0 100H4.7491L10.8245 89.741H13.2292L7.15391 100H11.903L18.2453 89.2903C18.3257 89.1546 18.512 89.2192 18.512 89.3827V100H22.4531V86.251H16.3337C15.685 86.251 15.0788 86.6177 14.7167 87.2292Z" fill="white"/>
<path d="M30.7131 89.1712H37.9113V86.2509L31.9346 86.2266H27.7073C27.381 86.2266 27.0762 86.411 26.8941 86.7185L25.0039 89.9103V99.9999H37.9114V97.0796H28.9449V94.595H36.182L37.9113 91.6748H28.9449V91.275L29.8992 89.6635C30.0814 89.3557 30.3866 89.1712 30.7131 89.1712Z" fill="white"/>
<path d="M140.975 89.1712H148.173V86.2509L142.196 86.2266H137.969C137.643 86.2266 137.338 86.411 137.156 86.7185L135.266 89.9103V99.9999H148.173V97.0796H139.207V94.595H146.444L148.173 91.6748H139.207V91.275L140.161 89.6635C140.343 89.3557 140.648 89.1712 140.975 89.1712Z" fill="white"/>
<path d="M72.0244 100L64.4691 87.2408C64.1027 86.622 63.4893 86.251 62.8329 86.251H55.6523V100H59.5935V94.6073V89.1712H60.2496C60.633 89.1712 60.9913 89.388 61.2054 89.7494L64.0821 94.6073L59.5935 94.6073L61.3228 97.5275H61.3294H65.8114L67.2755 99.9999L72.0244 100Z" fill="white"/>
<path d="M53.6098 91.687H53.1886H49.6838H48.4323L46.7101 94.595H48.3928V94.6072H49.6838V97.0796H43.1012V92.0782L44.5311 89.6637C44.7134 89.3558 45.0186 89.1712 45.3452 89.1712H52.837V86.2509H46.5522L46.5666 86.2266H42.494C42.071 86.2266 41.6758 86.4656 41.4397 86.8644L39.1602 90.7137V98.4405C39.1602 99.3017 39.7747 99.9999 40.5328 99.9999H42.0925H43.1012H49.6837H52.252C53.0102 99.9999 53.6248 99.3017 53.6248 98.4404V97.0796V91.687H53.6098Z" fill="white"/>
<path d="M91.1225 87.5432C90.6442 86.7354 89.8433 86.251 88.9864 86.251L85.608 86.2511H78.207V100L88.1371 99.9999H88.9863C89.8433 99.9999 90.6441 99.5155 91.1225 98.7077L93.9192 93.9846C94.0205 93.8135 94.0747 93.6118 94.0747 93.4055V92.8454C94.0747 92.6391 94.0205 92.4375 93.9192 92.2663L91.1225 87.5432ZM87.3374 97.0798H82.1481V89.1714H87.3374L89.3105 92.5031C89.5333 92.8794 89.5333 93.3715 89.3105 93.7477L87.3374 97.0798Z" fill="white"/>
<path d="M106.344 94.8714L108.607 91.0492C108.708 90.8781 108.762 90.6766 108.762 90.4704V89.9924C108.762 89.7862 108.708 89.5847 108.607 89.4136L107.499 87.5433C107.021 86.7355 106.22 86.251 105.363 86.251H101.985L94.5195 86.2511V100H98.4606V89.1714H103.463C103.62 89.1714 103.767 89.2603 103.855 89.4086L104.165 89.9318C104.272 90.1129 104.272 90.3499 104.165 90.531L102.628 93.1255H100.561L104.632 100H109.381L106.344 94.8714Z" fill="white"/>
<path d="M43.0021 52.7817V6.4209L4.35547 63.8655L74.1919 63.8617V6.4209L43.0021 52.7817Z" fill="white"/>
<path d="M82.2812 7.71777V9.21279V63.8653H100.818V7.71777H82.2812ZM103.15 7.71777V26.6045H104.593C104.899 26.6045 105.201 26.6202 105.498 26.6493L108.461 7.76083C107.95 7.73314 107.436 7.71777 106.919 7.71777H103.15ZM111.386 8.0733L106.099 26.7297C106.735 26.8348 107.351 27.0037 107.936 27.2327L116.362 9.34622C114.765 8.77582 113.101 8.34768 111.386 8.0733ZM119.194 10.5392L108.503 27.4787C109.117 27.7683 109.694 28.1237 110.224 28.5362L123.702 13.2878C122.296 12.2369 120.787 11.315 119.194 10.5392ZM126.085 15.2819L110.695 28.9265C111.18 29.358 111.618 29.8403 112.002 30.3646L129.529 19.1524C128.501 17.7581 127.348 16.4625 126.085 15.2819ZM131.251 21.7843L112.345 30.8685C112.651 31.3503 112.913 31.8622 113.127 32.3993L133.372 26.3804C132.802 24.7763 132.09 23.2389 131.251 21.7843ZM134.264 29.4262L113.338 32.9838C113.504 33.5014 113.626 34.0388 113.698 34.5919H134.965C134.891 32.8225 134.651 31.0962 134.264 29.4262ZM113.732 36.7086C113.27 41.349 109.355 44.9731 104.593 44.9731H103.15V63.8652H106.919C122.116 63.8652 134.492 51.7886 134.976 36.7086H113.732Z" fill="white"/>
</g>
<defs>
<clipPath id="clip0_4_5411">
<rect width="148.174" height="100" fill="white"/>
</clipPath>
</defs>
</svg>
