<svg width="485" height="100" viewBox="0 0 485 100" fill="none" xmlns="http://www.w3.org/2000/svg">
<g clip-path="url(#clip0_4_5431)">
<path d="M73.3456 0C74.3709 0.12393 75.4074 0.180257 76.4101 0.383051C79.0013 0.87877 80.297 2.32086 80.342 5.23884C80.342 8.87787 80.2519 12.5282 80.0266 16.1672C79.514 22.3117 79.514 28.4882 80.0266 34.6327C80.4717 39.5655 80.6635 44.518 80.6012 49.4705C80.6012 58.3371 80.4322 67.215 80.3082 76.0816C80.2806 77.2123 80.1903 78.3407 80.0378 79.4615C79.9187 80.4109 79.4613 81.2856 78.7494 81.925C78.0375 82.5645 77.119 82.9258 76.1622 82.9428C75.233 83.0556 74.2958 82.8095 73.542 82.2546C72.7882 81.6997 72.2747 80.8779 72.1063 79.9572C71.5737 76.8535 71.1977 73.725 70.9797 70.5836C70.0784 56.8387 69.3123 43.0825 68.411 29.3375C68.1519 25.2591 67.6336 21.1807 67.1379 17.1248C66.9914 15.9982 66.9238 14.4772 65.3465 14.297C63.7692 14.1167 63.2623 15.4236 62.8003 16.5502C60.8851 20.9667 58.9698 25.3831 57.2686 29.8896C52.762 41.7868 48.2555 53.6954 44.0194 65.694C42.3838 70.5799 39.4515 74.9297 35.5358 78.2785C32.0883 81.1965 28.9225 80.374 27.379 76.0816C26.7819 74.4141 26.8382 72.5327 26.4213 70.7976C24.476 62.7535 22.4894 54.7206 20.4615 46.699C19.6052 43.3191 18.6363 39.9392 17.6336 36.5593C17.3062 35.4857 16.8404 34.4593 16.2478 33.5061C15.9887 33.1005 15.3353 32.9315 14.8734 32.6498C14.5804 33.0627 14.3629 33.5243 14.2312 34.0131C13.8932 38.1478 13.5327 42.2713 13.3411 46.406C12.9355 54.9009 12.6426 63.4069 12.2708 71.913C12.2032 73.434 12.023 74.9549 11.8089 76.4759C11.8016 76.8486 11.7137 77.2153 11.5511 77.5507C11.3885 77.8862 11.1552 78.1824 10.8672 78.419C10.5792 78.6556 10.2433 78.827 9.88268 78.9214C9.52206 79.0158 9.14528 79.0309 8.77827 78.9657C6.00675 78.8869 2.20999 76.0027 1.79314 73.265C1.24772 69.6626 0.897947 66.0332 0.745368 62.393C0.407378 54.3826 0.0581213 46.3722 0.0581213 38.3619C-0.0476469 28.9038 0.592766 19.452 1.9734 10.0946C2.17132 8.32232 2.88544 6.64718 4.02709 5.27719C5.16875 3.90721 6.68765 2.90273 8.39521 2.38846C12.0214 1.18561 15.857 0.744528 19.6615 1.09284C20.3013 1.13794 20.9053 1.40437 21.3699 1.84639C21.8346 2.28841 22.1308 2.87842 22.2077 3.51509C22.8274 6.14015 23.3344 8.799 23.8639 11.4015C26.372 23.9015 29.8911 36.1771 34.3866 48.1072C34.7653 49.0184 35.1902 49.9096 35.6597 50.7774C35.8777 51.0911 36.1227 51.3852 36.3921 51.6561C36.9926 50.7472 37.5309 49.7987 38.0031 48.817C41.3042 40.5475 44.6953 32.3231 46.6106 23.5579C48.0337 17.2574 50.7163 11.3097 54.4971 6.07255C57.1446 2.3096 60.5696 0.191515 65.2902 0.304179C67.5435 0.304179 69.7967 0.112663 72.05 0H73.3456Z" fill="white"/>
<path d="M319.414 45.854C319.042 49.9324 318.783 54.0108 318.287 58.0667C318.075 59.5898 317.558 61.0545 316.766 62.3729C315.974 63.6912 314.924 64.8362 313.679 65.739C309.495 69.0306 304.813 71.6357 299.81 73.4565C288.747 77.5574 277.999 82.3681 267.397 87.5394C264.941 88.7449 262.339 89.6575 259.781 90.6376C259.057 90.9009 258.297 91.0565 257.528 91.0996C255.579 91.2235 254.711 90.4574 254.79 88.5083C254.914 85.2749 255.004 82.0189 255.432 78.808C257.179 65.739 259.049 52.6814 260.896 39.6349C261.41 36.5613 261.182 33.4095 260.232 30.4416C259.063 26.9508 259.035 23.1785 260.153 19.671C261.279 15.863 265.279 14.9166 267.769 18.0148C271.633 22.8368 274.213 28.2672 273.56 34.6665C272.546 44.5583 271.374 54.4276 270.315 64.3195C270.14 65.9281 270.095 67.5481 270.18 69.164C270.153 69.463 270.199 69.7642 270.315 70.0411C270.431 70.318 270.613 70.5622 270.846 70.7524C271.078 70.9425 271.354 71.0727 271.648 71.1317C271.942 71.1907 272.247 71.1765 272.535 71.0906C273.607 70.9599 274.66 70.695 275.667 70.3019C284.163 66.8947 292.241 62.5249 299.743 57.278C304.7 53.8981 306.097 49.0311 305.748 43.3866C305.691 42.3501 305.624 41.3249 305.59 40.2884C305.601 37.017 304.576 33.8262 302.661 31.1739C300.351 28.132 297.996 25.1126 295.529 22.1609C293.839 20.2628 291.643 18.8869 289.197 18.1951C282.185 16.0256 274.984 14.5169 267.69 13.6886C265.641 13.4357 263.61 13.0595 261.606 12.5619C260.755 12.3211 259.98 11.8674 259.353 11.2438C257.156 8.99687 255.844 6.03244 255.658 2.89542C255.511 0.833676 256.063 0.135166 258.091 0.292895C261.871 0.519207 265.633 0.974458 269.357 1.65613C279.182 3.66154 288.972 5.82468 298.751 8.06668C308.812 10.3199 314.524 17.0797 317.003 26.7913C318.535 33.0554 318.817 39.4434 319.414 45.854Z" fill="white"/>
<path d="M177.605 50.5182C177.189 59.689 176.794 68.8598 176.344 78.0306C176.242 80.0585 176.006 82.0752 175.769 84.0806C175.239 88.4632 172.614 91.4375 169.099 93.7584C164.767 96.4467 159.927 98.2111 154.881 98.9409C147.092 100.234 139.149 100.318 131.335 99.1888C130.226 99.0294 129.145 98.7145 128.124 98.2536C127.441 97.9946 126.865 97.5142 126.487 96.8894C126.109 96.2645 125.952 95.5311 126.039 94.8061C126.141 93.2965 127.166 92.643 128.428 92.1923C131.348 91.2308 134.44 90.9006 137.497 91.2235C142.308 91.5164 147.107 91.9783 151.873 90.8291C157.608 89.4434 161.585 86.255 162.723 80.1824C162.716 80.1414 162.716 80.0996 162.723 80.0585C163.387 76.6223 162.497 75.552 159.005 75.6309C155.413 75.828 151.814 75.828 148.223 75.6309C144.966 75.2566 141.757 74.5468 138.646 73.5128C130.039 70.7976 125.532 61.8408 127.29 52.9404C128.528 47.0722 131.664 41.7748 136.213 37.8661C141.732 32.6303 148.545 28.9559 155.951 27.2194C156.833 27.0395 157.737 26.9939 158.633 27.0842C159.058 27.0636 159.48 27.1638 159.851 27.3732C160.221 27.5827 160.525 27.8928 160.727 28.2677C160.928 28.6425 161.019 29.0668 160.99 29.4914C160.96 29.9161 160.811 30.3236 160.559 30.6669C160.221 31.3567 159.746 31.9702 159.162 32.4695C156.166 34.8354 153.157 37.1901 150.059 39.4321C146.767 41.5792 143.842 44.242 141.395 47.3185C140.377 48.6733 139.667 50.2348 139.317 51.8932C138.967 53.5515 138.984 55.2665 139.367 56.9175C140.404 61.7958 144.246 64.556 149.901 64.4321C153.552 64.2813 157.148 63.4919 160.526 62.1C164.052 60.7593 164.739 57.6498 165.032 54.4163C165.393 50.1577 165.539 45.8765 165.888 41.6178C166.328 36.2212 167.015 30.8697 169.347 25.8449C169.958 24.4937 170.738 23.2255 171.668 22.0707C172.369 21.2837 173.26 20.6894 174.256 20.3443C175.252 19.9991 176.32 19.9147 177.357 20.0991C178.484 20.2005 178.653 21.0567 178.631 21.958C178.552 25.6083 178.507 29.2586 178.36 32.8976C178.135 38.7899 177.842 44.6822 177.583 50.5745L177.605 50.5182Z" fill="white"/>
<path d="M218.387 23.817C218.989 22.2773 219.678 20.7728 220.449 19.3105C221.321 17.7466 222.388 16.3003 223.626 15.0067C225.677 13.0013 228.347 13.8801 228.741 16.6516C229.231 20.2149 229.513 23.8037 229.586 27.3997C229.811 36.6381 229.778 45.8652 230.059 55.0924C230.24 60.7255 230.78 66.3587 231.254 71.9243C231.389 73.5241 231.896 75.0901 232.177 76.6787C232.309 77.3722 232.225 78.0893 231.937 78.7338C231.649 79.3782 231.171 79.9192 230.566 80.2839C230.021 80.701 229.358 80.9345 228.671 80.9507C227.985 80.9668 227.311 80.765 226.747 80.374C225.599 79.6723 224.569 78.794 223.694 77.7715C222.24 75.9464 221.012 73.941 219.717 72.0031C219.435 71.5976 219.244 71.1356 218.973 70.7188C217.711 68.7246 217.554 68.6908 215.785 70.2906C214.861 71.1356 214.027 72.0933 213.115 72.9608C211.447 74.553 209.459 75.7707 207.283 76.5324C205.106 77.2941 202.793 77.5821 200.496 77.3774C198.2 77.1726 195.973 76.4796 193.966 75.3449C191.959 74.2102 190.218 72.6598 188.858 70.7976C185.107 65.7278 183.225 59.8806 182.098 53.7629C181.163 48.772 180.69 43.7134 182.098 38.7675C182.785 36.351 183.87 34.0662 185.309 32.0077C187.352 29.0423 189.681 26.2839 192.261 23.7719C197.567 18.7359 203.888 18.0599 210.602 20.4597C213.194 21.4398 215.661 22.6679 218.387 23.817ZM192.249 51.1041C192.556 53.4551 193.073 55.774 193.793 58.0329C194.838 60.6068 196.225 63.0283 197.916 65.2321C199.584 67.4853 201.567 67.4065 203.55 65.356C204.329 64.4835 205.052 63.5615 205.713 62.5958C212.349 53.425 215.357 42.7783 218.106 32.0302C218.511 30.4304 218.399 30.1712 216.731 30.0698C212.281 29.8107 207.831 29.6981 203.381 29.5403C202.685 29.491 201.99 29.6433 201.378 29.979C200.767 30.3147 200.265 30.8195 199.933 31.4331C199.176 32.5554 198.352 33.6314 197.466 34.6552C193.928 39.0716 192.441 44.164 192.249 51.1041Z" fill="white"/>
<path d="M428.595 25.879C428.513 22.8488 429.367 19.8669 431.04 17.3392C431.612 16.4804 432.342 15.7386 433.192 15.1535C434.803 14.0269 436.268 14.6578 436.493 16.5618C437.022 20.9782 437.327 25.4284 437.845 29.8448C438.273 33.5063 438.893 37.1454 439.433 40.7844C439.463 40.9646 439.508 41.1418 439.569 41.3139C440.695 44.8854 441.54 45.4712 445.134 44.5023C449.742 43.2517 454.271 41.742 458.857 40.4464C462.41 39.5569 466.159 39.8889 469.5 41.3889C472.841 42.889 475.581 45.4698 477.277 48.7159C478.663 51.5325 478.64 54.2589 476.511 56.7826C475.666 57.7853 474.945 58.8781 474.1 59.8696C473.937 60.0142 473.81 60.1941 473.727 60.3956C473.644 60.597 473.608 60.8147 473.623 61.032C473.637 61.2493 473.7 61.4606 473.808 61.6496C473.916 61.8386 474.066 62.0005 474.246 62.1228C476.41 64.0945 478.595 66.0548 480.668 68.1165C481.863 69.2757 482.925 70.5643 483.834 71.9584C485.017 73.8398 484.409 75.0904 482.291 75.71C480.142 76.3242 477.847 76.1688 475.801 75.2707C471.452 73.4455 467.194 71.4063 462.856 69.5474C457.685 67.2941 452.525 65.1197 447.286 63.103C443.839 61.7736 442.397 62.6524 441.653 66.2914C441.281 68.1391 441.371 70.0656 441.022 71.9246C440.816 73.25 440.349 74.5214 439.648 75.665C439.026 76.4622 438.131 77.0002 437.135 77.1747C434.69 77.569 433.519 76.5888 433.26 74.1102C432.674 68.3306 432.133 62.551 431.615 56.7713C430.657 47.0936 429.666 37.427 428.697 27.7492C428.595 27.062 428.595 26.341 428.595 25.879ZM459.488 56.1517C462.024 56.1908 464.477 55.2413 466.326 53.5041C467.588 52.3775 467.599 52.1183 466.259 51.0368C463.408 48.7835 456.75 48.7159 453.325 51.1269C452.951 51.3827 452.638 51.7168 452.406 52.1059C452.175 52.495 452.031 52.9298 451.984 53.3802C451.984 53.9885 453.043 54.8448 453.776 55.0476C455.894 55.5884 458.079 55.8926 459.488 56.1517Z" fill="white"/>
<path d="M84.082 47.4205C84.3299 45.4377 84.6679 41.9451 85.2087 38.5089C85.4245 37.3992 85.8658 36.3457 86.5053 35.4135C87.1449 34.4814 87.9689 33.6905 88.9266 33.0898C91.8333 31.0393 94.7062 28.94 97.5453 26.7919C99.9985 24.835 103.087 23.8521 106.22 24.0316C108.237 24.1443 110.265 24.1555 112.27 24.3583C113.093 24.4319 113.877 24.7453 114.524 25.2597C119.12 29.3155 120.878 33.5967 119.413 38.7793C118.869 40.8698 118.03 42.8726 116.923 44.7279C116.003 46.1535 114.73 47.3176 113.228 48.1078C109.397 50.0907 105.409 51.7693 101.489 53.5607L100.869 53.8198C95.8216 56.0731 95.5286 56.2083 96.0807 62.371C96.2947 64.6242 97.8044 66.0663 99.6408 67.1817C104.285 70.1262 109.387 72.2774 114.738 73.5472C120.27 74.7865 125.869 75.7216 131.423 76.8257C132.786 77.0961 134.127 77.4791 135.468 77.8509C136.001 77.9801 136.464 78.3067 136.765 78.7647C137.067 79.2227 137.183 79.778 137.09 80.3182C137.09 82.6616 135.885 84.284 133.53 84.4305C128.866 84.7121 124.19 84.8023 119.515 84.791C112.079 84.791 105.443 81.6702 98.6719 79.1578C96.5201 78.3579 94.4583 77.3327 92.3177 76.4989C91.088 76.0067 89.9841 75.2453 89.0873 74.2704C88.1904 73.2956 87.5234 72.1322 87.1352 70.8658C85.7992 66.7989 84.9926 62.5768 84.7355 58.3038C84.4651 55.1605 84.3637 52.051 84.082 47.4205ZM104.463 35.5571L104.395 35.4106C102.818 35.6878 101.261 36.0641 99.731 36.5372C98.5284 36.9585 97.5007 37.7691 96.8109 38.8405C96.1212 39.912 95.8087 41.1829 95.923 42.4521C96.0244 43.5787 96.5989 44.0068 97.5904 43.9054C99.024 43.7779 100.45 43.571 101.86 43.2858C103.232 42.9951 104.519 42.3941 105.622 41.529C106.726 40.6639 107.616 39.5575 108.226 38.2948C108.902 37.0104 108.541 36.2331 107.099 35.8838C106.227 35.7251 105.347 35.616 104.463 35.5571Z" fill="white"/>
<path d="M332.653 40.8633C333.047 46.5753 333.205 52.2986 334.794 57.8529C334.996 58.5853 335.289 59.295 335.526 60.0161C338.805 70.1558 352.718 69.9079 357.698 64.286C359.589 61.9181 360.741 59.046 361.01 56.0278C361.946 50.0679 362.655 44.0855 363.478 38.1143C363.624 37.0891 363.838 36.0751 364.041 35.0612C364.126 34.4541 364.399 33.8889 364.821 33.4445C365.243 33.0001 365.794 32.6987 366.396 32.5826C366.984 32.4295 367.604 32.4455 368.184 32.6289C368.764 32.8122 369.281 33.1554 369.674 33.6191C370.52 34.4391 371.15 35.4556 371.508 36.578C371.865 37.7004 371.94 38.8939 371.725 40.0521C370.969 45.4185 371.275 50.881 372.626 56.1292C373.449 59.3514 374.192 62.5961 374.936 65.8295C375.521 68.3757 376.081 70.9257 376.614 73.4794C376.901 74.6193 376.886 75.8142 376.569 76.9463C376.253 78.0784 375.648 79.1085 374.812 79.935C373.28 81.501 371.781 81.6812 370.204 80.1941C369.106 79.1354 368.131 77.9563 367.297 76.679C366.047 74.7525 364.841 74.0089 362.565 74.4933C360.422 74.9859 358.305 75.5875 356.222 76.2959C352.561 77.4902 348.899 78.5492 344.956 78.1774C335.943 77.4226 327.561 70.1107 325.916 61.2103C324.03 50.6198 323.219 39.866 323.494 29.1125C323.561 25.7326 325.961 24.3581 329.003 25.8791C330.054 26.3146 330.956 27.0456 331.6 27.9834C332.244 28.9213 332.602 30.0258 332.631 31.163C332.721 34.3852 332.653 37.6186 332.653 40.8633Z" fill="white"/>
<path d="M377.628 45.201C376.885 36.3794 380.276 28.9662 385.594 22.3078C387.411 19.9006 389.815 17.999 392.576 16.7841C395.337 15.5693 398.364 15.0816 401.366 15.3677C408.321 15.6878 414.91 18.5784 419.854 23.4795C420.535 24.1259 421.006 24.9619 421.206 25.8792C421.454 27.4678 419.922 28.6057 417.928 28.2451C415.911 27.8163 413.918 27.2823 411.957 26.6453C410.064 26.0707 408.216 25.361 406.324 24.8427C401.558 23.5358 397.739 25.1244 394.393 28.5944C391.986 31.0362 390.105 33.9457 388.867 37.1431C387.628 40.3404 387.059 43.7577 387.193 47.1838C387.272 54.4056 390.573 60.0613 395.283 65.0297C398.156 68.0829 402.155 68.5786 406.098 67.9702C410.977 67.2041 415.787 66.0437 420.632 65.0635C421.511 64.8945 422.412 64.7593 423.291 64.6354C423.897 64.5593 424.513 64.649 425.072 64.895C425.632 65.141 426.114 65.5341 426.468 66.0324C426.629 66.1704 426.759 66.3402 426.851 66.5311C426.943 66.7221 426.994 66.93 427.001 67.1418C427.009 67.3535 426.972 67.5645 426.894 67.7614C426.816 67.9583 426.697 68.1368 426.547 68.2857C425.737 69.3089 424.823 70.2453 423.82 71.0797C416.306 76.5327 407.833 78.9662 398.708 77.3438C387.689 75.3271 381.448 67.835 378.766 57.3461C377.775 53.4254 377.718 49.2569 377.223 45.201H377.628Z" fill="white"/>
</g>
<defs>
<clipPath id="clip0_4_5431">
<rect width="484.43" height="100" fill="white"/>
</clipPath>
</defs>
</svg>
