<svg width="387" height="100" viewBox="0 0 387 100" fill="none" xmlns="http://www.w3.org/2000/svg">
<g clip-path="url(#clip0_4_5440)">
<path d="M377.488 26.3668L386.445 5.75743H321.513L296.267 64.2372H335.183L327.182 81.365H274.5L291.126 43.3814H252.408L259.816 26.3668H301.575L310.531 5.75743H244.534L219.287 64.2372H257.611L249.61 81.365H162.847L170.551 64.2372H188.939L197.889 43.3814H175.802L183.209 26.3668H223.667L232.914 5.75743H167.447L138.499 70.0499H134.068V2.87872L93.9257 47.6596V0L0 99.4102H40.3023L75.5101 65.6183V98.8175L108.753 64.7289V100.003H343.024L368.162 43.3814H329.974L337.383 26.3668H377.488Z" fill="white"/>
</g>
<defs>
<clipPath id="clip0_4_5440">
<rect width="386.445" height="100" fill="white"/>
</clipPath>
</defs>
</svg>
