<svg width="192" height="100" viewBox="0 0 192 100" fill="none" xmlns="http://www.w3.org/2000/svg">
<g clip-path="url(#clip0_4_5442)">
<path d="M63.331 72.9728C63.0818 71.5773 62.8277 70.147 62.5187 68.6768C60.3856 68.8014 58.6014 69.225 56.5879 69.7034C53.7671 70.3762 50.5675 71.1338 45.798 71.1338C44.3328 71.1338 42.7629 71.059 41.1182 70.9145C40.0118 72.3997 39.045 73.7802 37.6794 75.7388C36.8371 76.9499 35.8802 78.3204 34.6492 80.0548C34.1459 80.7625 33.6724 81.4353 33.2239 82.0732C28.9827 88.0937 26.8546 91.1138 23.7148 92.923C21.5817 94.149 19.3839 94.747 16.9866 94.747C15.9201 94.747 14.9732 94.6374 14.1359 94.5377L13.8967 94.5078C12.8302 94.3832 11.7985 93.516 11.2652 92.3C10.732 91.0839 10.8316 89.833 11.5393 88.8612C14.9832 84.1265 18.103 80.304 21.1182 76.601C22.6333 74.742 24.0936 72.9479 25.5289 71.1288C25.0903 71.1437 24.6268 71.1537 24.1534 71.1537C22.1299 71.1537 20.4305 70.9693 19.1048 70.6055C18.5217 70.446 18.0083 70.2516 17.5498 70.0174C17.5249 70.0274 17.495 70.0324 17.4701 70.0423C17.3305 70.0872 17.196 70.127 17.0564 70.1669C12.6358 71.5275 2.86255 74.144 0.560032 75.9531C0.25602 76.1923 0.0815867 76.4166 0.0666353 76.6209C-0.312134 81.5549 1.07336 85.9805 2.90242 89.7084C4.91089 93.8001 7.44765 97.0545 8.76836 99.2075C8.79826 99.2574 8.83314 99.3072 8.86803 99.3521C8.87301 99.362 8.88298 99.372 8.88797 99.382C8.92285 99.4268 8.95774 99.4667 8.99761 99.5066C9.00259 99.5115 9.01256 99.5215 9.01755 99.5265C9.05243 99.5614 9.08732 99.5963 9.12719 99.6262C9.13217 99.6312 9.13716 99.6361 9.14712 99.6411C9.18699 99.676 9.23185 99.7009 9.2767 99.7308C9.28667 99.7358 9.29664 99.7458 9.30661 99.7508C9.35146 99.7757 9.39631 99.8006 9.44615 99.8255C9.45114 99.8255 9.45612 99.8305 9.4611 99.8305C9.50596 99.8504 9.55081 99.8704 9.60065 99.8853C9.61062 99.8903 9.62059 99.8903 9.63055 99.8953C9.68039 99.9103 9.73023 99.9252 9.78505 99.9402C9.79502 99.9451 9.80499 99.9451 9.81994 99.9451C9.87476 99.9551 9.9246 99.9651 9.97942 99.975C9.9844 99.975 9.9844 99.975 9.98939 99.975C10.0492 99.985 10.109 99.99 10.1688 99.995C10.1788 99.995 10.1937 99.995 10.2037 99.995C10.2635 100 10.3233 100 10.3881 100C10.3981 100 10.408 100 10.418 100C10.4728 100 10.5326 99.995 10.5874 99.995C10.6024 99.995 10.6173 99.995 10.6323 99.99C10.7021 99.985 10.7669 99.98 10.8366 99.9701H10.8416C10.9114 99.9601 10.9812 99.9501 11.0509 99.9402C11.0659 99.9352 11.0808 99.9352 11.0958 99.9302C11.2403 99.9053 11.3948 99.8754 11.5493 99.8355C11.5643 99.8305 11.5792 99.8305 11.5942 99.8255C11.6689 99.8056 11.7437 99.7906 11.8184 99.7657C11.8234 99.7657 11.8284 99.7607 11.8334 99.7607C11.9181 99.7358 11.9979 99.7159 12.0876 99.686C12.0975 99.681 12.1075 99.681 12.1225 99.676C12.2022 99.6511 12.277 99.6262 12.3567 99.6013C12.3667 99.5963 12.3766 99.5963 12.3816 99.5913C12.4713 99.5614 12.561 99.5315 12.6507 99.5016C12.6557 99.5016 12.6557 99.5016 12.6607 99.4966C12.7504 99.4667 12.8351 99.4368 12.9248 99.4019C12.9348 99.3969 12.9448 99.3969 12.9498 99.3919C13.1391 99.3222 13.3285 99.2524 13.5279 99.1726C13.5329 99.1726 13.5379 99.1677 13.5478 99.1677C14.2755 98.8836 15.0479 98.5547 15.8553 98.2207C15.9151 98.1958 15.97 98.1709 16.0298 98.151C16.0896 98.1261 16.1494 98.1011 16.2092 98.0762C16.274 98.0513 16.3437 98.0214 16.4085 97.9965C16.4434 97.9815 16.4833 97.9666 16.5182 97.9516C16.6079 97.9167 16.7026 97.8769 16.7923 97.842C16.8022 97.837 16.8072 97.837 16.8172 97.832C18.0233 97.3486 21.3774 96.0029 26.097 94.2237C26.102 94.2237 26.107 94.2187 26.112 94.2187C26.2216 94.1789 26.3313 94.139 26.4409 94.0942C26.4459 94.0942 26.4459 94.0942 26.4509 94.0892C26.5555 94.0493 26.6602 94.0094 26.7699 93.9696C26.7848 93.9646 26.7948 93.9596 26.8097 93.9546C26.9144 93.9147 27.0141 93.8799 27.1187 93.84C27.1337 93.835 27.1436 93.83 27.1586 93.825C27.2682 93.7852 27.3779 93.7453 27.4875 93.7004C27.4925 93.7004 27.5025 93.6954 27.5075 93.6954C27.6121 93.6556 27.7168 93.6157 27.8264 93.5758C27.8464 93.5709 27.8613 93.5609 27.8812 93.5559C27.9809 93.516 28.0806 93.4811 28.1853 93.4413C28.2052 93.4363 28.2251 93.4263 28.2451 93.4213C28.3447 93.3865 28.4444 93.3466 28.5441 93.3117C28.569 93.3017 28.5989 93.2918 28.6238 93.2818C28.7185 93.2469 28.8182 93.212 28.9129 93.1721C28.9428 93.1622 28.9677 93.1522 28.9976 93.1422C29.0923 93.1074 29.187 93.0725 29.2817 93.0376C29.3166 93.0276 29.3465 93.0127 29.3814 93.0027C29.4761 92.9678 29.5708 92.9329 29.6654 92.898C29.6953 92.8881 29.7252 92.8781 29.7552 92.8681C29.8498 92.8333 29.9445 92.7984 30.0392 92.7635C30.0741 92.7485 30.109 92.7386 30.1489 92.7236C30.2386 92.6887 30.3283 92.6588 30.413 92.6239C30.4579 92.609 30.4977 92.594 30.5426 92.5741C30.6273 92.5442 30.712 92.5093 30.8017 92.4794C30.8466 92.4644 30.8915 92.4445 30.9363 92.4296C31.026 92.3997 31.1107 92.3648 31.2005 92.3349C31.2453 92.3199 31.2902 92.305 31.335 92.285C31.4197 92.2551 31.5045 92.2252 31.5892 92.1903C31.639 92.1704 31.6938 92.1505 31.7487 92.1305C31.8284 92.1006 31.9131 92.0707 31.9929 92.0408C32.0427 92.0209 32.0975 92.001 32.1474 91.986C32.2271 91.9561 32.3118 91.9262 32.3916 91.8963C32.4464 91.8764 32.5012 91.8564 32.556 91.8365C32.6358 91.8066 32.7155 91.7767 32.7953 91.7518C32.8551 91.7268 32.9199 91.7069 32.9797 91.682C33.0494 91.6571 33.1242 91.6322 33.194 91.6023C33.2588 91.5773 33.3285 91.5524 33.3933 91.5275C33.4681 91.5026 33.5428 91.4727 33.6176 91.4478C33.6824 91.4228 33.7422 91.4029 33.807 91.378C33.8817 91.3531 33.9565 91.3232 34.0362 91.2982C34.101 91.2733 34.1658 91.2484 34.2356 91.2285C34.3103 91.2035 34.3851 91.1736 34.4599 91.1487C34.5296 91.1238 34.5994 91.0989 34.6692 91.074C34.739 91.0491 34.8087 91.0241 34.8735 90.9992C34.9483 90.9743 35.028 90.9444 35.1028 90.9195C35.1676 90.8946 35.2373 90.8696 35.3021 90.8497C35.3769 90.8248 35.4566 90.7949 35.5314 90.77C35.5962 90.745 35.6659 90.7201 35.7307 90.7002C35.8105 90.6703 35.8902 90.6454 35.965 90.6155C36.0298 90.5905 36.0995 90.5706 36.1643 90.5457C36.2441 90.5158 36.3288 90.4859 36.4085 90.461C36.4733 90.436 36.5381 90.4161 36.6029 90.3912C36.6826 90.3613 36.7674 90.3314 36.8471 90.3065C36.9119 90.2815 36.9767 90.2616 37.0415 90.2367C37.1312 90.2068 37.2159 90.1769 37.3056 90.142C37.3604 90.1221 37.4202 90.1021 37.4751 90.0822C37.5648 90.0523 37.6595 90.0174 37.7492 89.9875C37.809 89.9676 37.8688 89.9476 37.9286 89.9277C38.0183 89.8978 38.108 89.8629 38.1977 89.833C38.2575 89.8131 38.3173 89.7931 38.3771 89.7682C38.4718 89.7383 38.5615 89.7034 38.6562 89.6735C38.716 89.6536 38.7708 89.6336 38.8307 89.6137C38.9204 89.5838 39.0151 89.5489 39.1048 89.519C39.1646 89.4991 39.2294 89.4742 39.2892 89.4542C39.3789 89.4243 39.4686 89.3894 39.5633 89.3595C39.6231 89.3396 39.6829 89.3197 39.7477 89.2947C39.8424 89.2599 39.9371 89.23 40.0318 89.1951C40.0866 89.1751 40.1464 89.1552 40.2012 89.1353C40.3009 89.1004 40.4006 89.0655 40.5002 89.0306C40.5501 89.0107 40.6049 88.9957 40.6547 88.9758C40.7594 88.9409 40.8591 88.906 40.9637 88.8711C41.0185 88.8512 41.0684 88.8362 41.1232 88.8163C41.2279 88.7814 41.3325 88.7465 41.4372 88.7067C41.487 88.6917 41.5369 88.6718 41.5817 88.6568C41.6914 88.6219 41.796 88.5821 41.9057 88.5472C41.9555 88.5322 42.0053 88.5123 42.0552 88.4973C42.1598 88.4625 42.2645 88.4276 42.3741 88.3877C42.429 88.3678 42.4788 88.3528 42.5336 88.3329C42.6383 88.298 42.7429 88.2631 42.8476 88.2282C42.8974 88.2133 42.9523 88.1933 43.0021 88.1784C43.1117 88.1385 43.2264 88.1036 43.336 88.0638C43.3809 88.0488 43.4257 88.0338 43.4706 88.0189C43.5852 87.979 43.6948 87.9441 43.8095 87.9043C43.8543 87.8893 43.9042 87.8744 43.949 87.8594C44.0587 87.8245 44.1683 87.7847 44.278 87.7498C44.3278 87.7348 44.3826 87.7149 44.4324 87.6949C44.5421 87.6601 44.6517 87.6202 44.7614 87.5853C44.8112 87.5704 44.8611 87.5504 44.9109 87.5355C45.0255 87.4956 45.1352 87.4607 45.2498 87.4208C45.2996 87.4059 45.3495 87.3909 45.3943 87.371C45.509 87.3311 45.6186 87.2962 45.7332 87.2564C45.7831 87.2414 45.8279 87.2265 45.8778 87.2065C45.9924 87.1667 46.107 87.1318 46.2266 87.0919C46.2715 87.077 46.3213 87.062 46.3662 87.0471C46.4808 87.0072 46.6004 86.9723 46.72 86.9324C46.7649 86.9175 46.8097 86.9025 46.8596 86.8876C46.9742 86.8477 47.0938 86.8128 47.2084 86.7729C47.2533 86.758 47.3031 86.743 47.348 86.7281C47.4626 86.6882 47.5822 86.6533 47.6968 86.6135C47.7467 86.5985 47.7915 86.5836 47.8414 86.5686C47.961 86.5287 48.0806 86.4939 48.1952 86.454C48.2401 86.439 48.2849 86.4241 48.3298 86.4091C48.4494 86.3693 48.569 86.3344 48.6886 86.2945C48.7335 86.2795 48.7783 86.2646 48.8282 86.2496C48.9428 86.2148 49.0624 86.1749 49.177 86.14C49.2269 86.1251 49.2767 86.1101 49.3265 86.0902C49.4412 86.0553 49.5558 86.0154 49.6704 85.9805C49.7252 85.9656 49.7751 85.9456 49.8299 85.9307C49.9495 85.8908 50.0691 85.8559 50.1887 85.8161C50.2336 85.8011 50.2785 85.7862 50.3233 85.7712C50.4479 85.7313 50.5725 85.6915 50.6921 85.6566C50.737 85.6416 50.7768 85.6317 50.8217 85.6167C50.9463 85.5768 51.0659 85.5419 51.1905 85.5021C51.2353 85.4871 51.2802 85.4722 51.325 85.4622C51.4447 85.4223 51.5643 85.3874 51.6839 85.3476C51.7287 85.3326 51.7786 85.3177 51.8234 85.3027C51.948 85.2629 52.0676 85.228 52.1922 85.1881C52.2371 85.1731 52.277 85.1632 52.3218 85.1482C52.4414 85.1084 52.566 85.0735 52.6856 85.0336C52.7305 85.0186 52.7803 85.0037 52.8252 84.9887C52.9498 84.9489 53.0694 84.914 53.194 84.8741C53.2388 84.8592 53.2837 84.8492 53.3285 84.8342C53.4481 84.7994 53.5678 84.7595 53.6874 84.7246C53.7372 84.7097 53.787 84.6947 53.8369 84.6797C53.9515 84.6449 54.0711 84.61 54.1857 84.5751C54.2356 84.5601 54.2904 84.5452 54.3402 84.5253C54.4599 84.4904 54.5795 84.4555 54.6941 84.4156C54.7439 84.4007 54.7938 84.3857 54.8436 84.3708C54.9632 84.3359 55.0828 84.296 55.2074 84.2611C55.2573 84.2462 55.3021 84.2312 55.352 84.2163C55.4716 84.1814 55.5912 84.1465 55.7108 84.1116C55.7606 84.0966 55.8105 84.0817 55.8603 84.0667C55.9799 84.0319 56.1045 83.992 56.2241 83.9571C56.269 83.9421 56.3188 83.9272 56.3637 83.9172C56.4883 83.8823 56.6079 83.8475 56.7325 83.8076C56.7773 83.7926 56.8272 83.7777 56.872 83.7677C56.9916 83.7328 57.1063 83.6979 57.2259 83.6631C57.2807 83.6481 57.3305 83.6332 57.3854 83.6182C57.495 83.5883 57.6046 83.5534 57.7143 83.5235C57.7741 83.5036 57.8339 83.4886 57.8937 83.4687C58.0083 83.4338 58.118 83.4039 58.2326 83.369C58.2874 83.3541 58.3422 83.3391 58.402 83.3192C58.5117 83.2893 58.6213 83.2544 58.731 83.2245C58.7908 83.2095 58.8506 83.1896 58.9104 83.1746C59.02 83.1447 59.1297 83.1148 59.2343 83.0799C59.2941 83.065 59.354 83.0451 59.4138 83.0301C59.5234 83.0002 59.633 82.9703 59.7427 82.9354C59.8025 82.9205 59.8623 82.9005 59.9221 82.8856C60.0318 82.8557 60.1464 82.8208 60.256 82.7909C60.3158 82.7759 60.3706 82.761 60.4305 82.741C60.5351 82.7111 60.6348 82.6812 60.7394 82.6563C60.8042 82.6364 60.874 82.6165 60.9388 82.6015C61.0335 82.5766 61.1332 82.5467 61.2279 82.5218C61.3026 82.5018 61.3724 82.4819 61.4472 82.462C61.5319 82.437 61.6216 82.4171 61.7063 82.3922C61.791 82.3673 61.8758 82.3473 61.9555 82.3224C62.0253 82.3025 62.095 82.2875 62.1598 82.2676C62.2595 82.2427 62.3592 82.2128 62.4589 82.1878C62.5087 82.1729 62.5585 82.1629 62.6084 82.148C63.5653 81.8888 64.5222 81.6396 65.4691 81.3954C64.4075 79.0431 63.8992 76.1873 63.331 72.9728Z" fill="white"/>
<path d="M91.6591 10.451C87.8166 13.1971 85.9477 16.0528 84.5223 20.1146C83.3112 23.5634 83.7049 27.386 85.2848 30.3763C85.8131 31.373 86.471 32.2801 87.2434 33.0526L88.0907 29.7234C86.5009 26.758 87.0491 25.4971 87.0491 25.4971L87.9561 26.1949L89.1921 27.1468L91.061 23.5784C90.6424 22.4072 90.5477 21.4652 90.5527 20.8522C90.5527 20.8024 90.5527 20.7526 90.5527 20.7027V20.6977C90.5676 20.2841 90.6225 20.0598 90.6225 20.0598L92.93 21.7045C93.2639 21.4154 93.5978 21.1662 93.9267 20.9519C95.5614 19.8804 96.9419 19.7259 96.9419 19.7259C96.9419 19.7259 93.538 23.9522 93.9217 29.6088C93.9716 30.3464 94.0862 31.0491 94.2457 31.702C95.088 35.1009 97.2858 37.3187 99.3591 37.7324L99.4687 34.4929C98.153 33.0127 98.153 30.6504 98.153 30.6504L99.7777 31.5475L99.9671 30.2118C98.8158 28.9509 98.7909 26.2098 98.7909 26.2098L100.784 27.381L102.439 24.7197C102.055 22.8507 102.275 21.1513 102.275 21.1513L104.198 23.0202C104.243 23.0003 104.288 22.9803 104.338 22.9604C104.602 22.8458 104.926 22.7162 105.29 22.5816C106.037 22.2975 106.949 21.9786 107.856 21.6845C107.737 21.7792 107.617 21.8839 107.503 21.9885C107.458 22.0334 107.408 22.0782 107.363 22.1231C107.353 22.1331 107.343 22.143 107.333 22.153C106.944 22.5417 106.596 22.9853 106.306 23.4637C106.272 23.5186 106.242 23.5734 106.212 23.6332C106.202 23.6481 106.197 23.6581 106.187 23.6731C106.167 23.7129 106.147 23.7528 106.127 23.7877C106.112 23.8176 106.092 23.8525 106.077 23.8824C106.072 23.8924 106.067 23.9073 106.062 23.9173C105.928 24.1914 105.818 24.4804 105.728 24.7745C105.429 25.7912 105.554 26.9076 106.052 27.8595C106.615 28.9409 107.662 29.8181 109.102 30.1271C109.137 30.1321 109.172 30.142 109.202 30.147C109.247 30.157 109.297 30.167 109.342 30.1719C109.377 30.1769 109.411 30.1819 109.446 30.1869C109.491 30.1919 109.536 30.2018 109.576 30.2068C109.611 30.2118 109.646 30.2118 109.681 30.2168C109.72 30.2218 109.765 30.2268 109.805 30.2268C109.84 30.2268 109.875 30.2317 109.905 30.2317C109.945 30.2317 109.985 30.2367 110.024 30.2367C110.069 30.2367 110.109 30.2367 110.154 30.2367C110.174 30.2367 110.194 30.2367 110.214 30.2367C110.274 30.2367 110.328 30.2317 110.383 30.2268C110.388 30.2268 110.393 30.2268 110.398 30.2268C110.458 30.2218 110.518 30.2118 110.578 30.2068C110.598 30.2018 110.613 30.2018 110.632 30.1969C110.672 30.1919 110.712 30.1819 110.752 30.1769C110.772 30.1719 110.797 30.167 110.817 30.162C110.852 30.152 110.887 30.147 110.921 30.1371C110.941 30.1321 110.966 30.1271 110.986 30.1171C111.021 30.1072 111.051 30.0972 111.086 30.0872C111.106 30.0822 111.126 30.0723 111.146 30.0673C111.181 30.0573 111.211 30.0424 111.245 30.0324C111.265 30.0274 111.28 30.0174 111.3 30.0125C111.34 29.9975 111.375 29.9826 111.41 29.9626C111.425 29.9576 111.435 29.9527 111.45 29.9477C111.5 29.9228 111.544 29.9028 111.594 29.8779C111.604 29.8729 111.609 29.8679 111.619 29.8629C111.659 29.843 111.694 29.8231 111.734 29.7982C111.749 29.7882 111.764 29.7782 111.779 29.7732C111.809 29.7533 111.839 29.7334 111.868 29.7134C111.883 29.7035 111.898 29.6935 111.913 29.6835C111.943 29.6636 111.968 29.6437 111.993 29.6237C112.008 29.6138 112.023 29.5988 112.038 29.5888C112.063 29.5689 112.093 29.544 112.118 29.524C112.133 29.5141 112.143 29.5041 112.157 29.4892C112.187 29.4642 112.217 29.4393 112.242 29.4144C112.252 29.4044 112.262 29.3945 112.272 29.3895C112.347 29.3197 112.422 29.245 112.491 29.1652C112.496 29.1552 112.506 29.1503 112.511 29.1403C112.541 29.1104 112.566 29.0805 112.591 29.0456C112.601 29.0356 112.611 29.0207 112.621 29.0107C112.646 28.9808 112.666 28.9509 112.691 28.926C112.701 28.911 112.711 28.9011 112.721 28.8861C112.741 28.8562 112.766 28.8263 112.785 28.7964C112.795 28.7864 112.805 28.7715 112.81 28.7615C112.83 28.7316 112.855 28.6967 112.875 28.6668C112.88 28.6569 112.89 28.6469 112.895 28.6369C112.92 28.5971 112.95 28.5572 112.975 28.5123L112.98 28.5074C113.035 28.4176 113.084 28.3279 113.134 28.2332C113.139 28.2233 113.144 28.2133 113.149 28.2033C113.169 28.1685 113.184 28.1336 113.204 28.0987C113.209 28.0837 113.219 28.0738 113.224 28.0588C113.239 28.0239 113.254 27.994 113.269 27.9591C113.274 27.9442 113.284 27.9292 113.289 27.9193C113.304 27.8844 113.319 27.8545 113.334 27.8196C113.339 27.8046 113.344 27.7947 113.349 27.7797C113.364 27.7448 113.379 27.705 113.393 27.6701C113.398 27.6601 113.403 27.6501 113.403 27.6402C113.423 27.5953 113.438 27.5455 113.458 27.5006C113.488 27.4259 113.508 27.3511 113.533 27.2764C113.543 27.2514 113.553 27.2265 113.558 27.2016C113.563 27.1916 113.563 27.1767 113.568 27.1617C114.011 25.6466 113.737 23.8973 113.179 22.5966C113.179 22.6015 113.184 22.6015 113.184 22.6065V22.6015C116.444 26.6833 121.208 33.9497 124.104 40.5632C124.383 40.1844 124.627 39.8006 124.786 39.4219C125.056 38.7889 125.788 37.3137 127.298 35.8435C126.984 35.2554 126.645 34.6574 126.292 34.0493C126.287 34.0394 126.282 34.0294 126.272 34.0194C126.192 33.8799 126.107 33.7453 126.022 33.6058C126.007 33.5858 125.997 33.5609 125.983 33.541C125.903 33.4064 125.823 33.2769 125.738 33.1423C125.723 33.1124 125.703 33.0875 125.688 33.0576C125.609 32.928 125.524 32.7984 125.444 32.6638C125.424 32.6339 125.409 32.604 125.389 32.5791C125.305 32.4446 125.22 32.315 125.135 32.1804C125.12 32.1555 125.105 32.1306 125.085 32.1057C124.996 31.9661 124.906 31.8266 124.811 31.687C124.806 31.682 124.801 31.6721 124.796 31.6621C124.398 31.064 123.974 30.456 123.531 29.843C123.506 29.8131 123.486 29.7782 123.461 29.7483C123.376 29.6287 123.286 29.5141 123.197 29.3945C123.157 29.3446 123.122 29.2898 123.082 29.24C122.997 29.1303 122.918 29.0207 122.833 28.911C122.788 28.8512 122.738 28.7914 122.693 28.7266C122.613 28.622 122.529 28.5173 122.449 28.4127C122.399 28.3479 122.344 28.2831 122.295 28.2183C122.215 28.1136 122.13 28.014 122.05 27.9093C121.995 27.8395 121.941 27.7698 121.886 27.705C121.801 27.6053 121.721 27.5006 121.637 27.4009C121.577 27.3312 121.517 27.2614 121.462 27.1916C121.378 27.092 121.293 26.9923 121.208 26.8926C121.148 26.8228 121.083 26.7481 121.024 26.6783C120.939 26.5786 120.854 26.4789 120.765 26.3793C120.705 26.3095 120.64 26.2397 120.58 26.1699C120.266 25.8161 119.947 25.4573 119.613 25.1034C119.534 25.0187 119.459 24.939 119.379 24.8542C119.294 24.7645 119.21 24.6798 119.13 24.5901C119.05 24.5054 118.965 24.4206 118.886 24.3309C118.801 24.2462 118.716 24.1565 118.631 24.0718C118.547 23.987 118.462 23.8973 118.377 23.8126C118.293 23.7279 118.203 23.6382 118.118 23.5535C118.028 23.4637 117.939 23.379 117.854 23.2893C117.769 23.2046 117.68 23.1199 117.59 23.0351C117.5 22.9454 117.405 22.8557 117.311 22.771C117.221 22.6863 117.131 22.6015 117.047 22.5168C116.952 22.4271 116.852 22.3374 116.758 22.2477C116.668 22.163 116.578 22.0832 116.488 21.9985C116.389 21.9038 116.284 21.8141 116.179 21.7194C116.09 21.6397 116.005 21.5599 115.915 21.4802C115.806 21.3805 115.691 21.2808 115.576 21.1812C115.492 21.1064 115.412 21.0366 115.327 20.9619C115.173 20.8273 115.018 20.6927 114.859 20.5632C114.814 20.5283 114.774 20.4884 114.729 20.4535C114.699 20.4236 114.674 20.4037 114.649 20.3738C114.649 20.3738 114.649 20.3738 114.654 20.3738C114.814 20.3688 114.968 20.3688 115.128 20.3688C115.133 20.3688 115.143 20.3688 115.148 20.3688C115.158 20.3688 115.173 20.3688 115.183 20.3688C115.257 20.3688 115.337 20.3688 115.412 20.3688C115.437 20.3688 115.462 20.3688 115.487 20.3688C115.561 20.3688 115.631 20.3738 115.706 20.3738C115.731 20.3738 115.756 20.3738 115.781 20.3788C115.85 20.3838 115.925 20.3838 115.995 20.3887C116.015 20.3887 116.04 20.3937 116.06 20.3937C116.135 20.3987 116.204 20.4037 116.279 20.4087C116.289 20.4087 116.294 20.4087 116.304 20.4087C116.528 20.4286 116.748 20.4485 116.962 20.4784C116.997 20.4834 117.037 20.4884 117.072 20.4934C117.116 20.4984 117.161 20.5083 117.206 20.5133C117.251 20.5183 117.291 20.5283 117.331 20.5333C117.371 20.5383 117.41 20.5482 117.45 20.5532C117.495 20.5632 117.54 20.5682 117.585 20.5781C117.625 20.5831 117.66 20.5931 117.694 20.603C117.739 20.613 117.784 20.623 117.829 20.6329C117.864 20.6429 117.899 20.6479 117.934 20.6579C117.979 20.6678 118.023 20.6778 118.068 20.6928C118.098 20.7027 118.133 20.7077 118.163 20.7177C118.208 20.7276 118.253 20.7426 118.298 20.7575C118.327 20.7675 118.357 20.7725 118.387 20.7825C118.432 20.7974 118.482 20.8124 118.527 20.8273C118.552 20.8373 118.577 20.8423 118.607 20.8522C118.656 20.8672 118.706 20.8871 118.756 20.9021C118.776 20.9071 118.796 20.917 118.816 20.922C118.886 20.9469 118.95 20.9718 119.02 21.0017L120.007 19.8006L120.779 18.8587C120.779 18.8587 121.168 19.8505 121.263 21.0117C121.293 21.4204 121.293 21.849 121.218 22.2626L121.856 22.9355L122.369 23.4737L124.732 21.6596C124.732 21.6596 125.006 23.8824 124.263 25.3676L124.363 25.4822L125.17 26.4391L126.292 25.4224L126.984 24.7944C126.984 24.7944 126.88 25.5121 126.77 26.3743C126.69 27.0272 126.606 27.7648 126.571 28.3329L127.149 30.2268C127.971 29.0954 128.445 27.8993 128.659 26.6035C128.699 26.3593 128.734 26.1101 128.754 25.861C128.754 25.846 128.759 25.8311 128.759 25.8161C128.778 25.5968 128.793 25.3725 128.798 25.1433C128.803 24.9589 128.808 24.7745 128.808 24.5851C128.808 24.5652 128.808 24.5502 128.808 24.5303C128.788 22.163 128.205 19.4767 127.557 16.307H127.562C127.562 16.307 127.567 16.307 127.572 16.307C127.572 16.307 127.577 16.307 127.577 16.312C127.582 16.312 127.587 16.317 127.597 16.322C127.602 16.322 127.602 16.3269 127.607 16.3269C127.617 16.3319 127.627 16.3369 127.637 16.3419C127.642 16.3419 127.642 16.3469 127.647 16.3469C127.657 16.3519 127.672 16.3618 127.682 16.3668C127.687 16.3718 127.692 16.3718 127.697 16.3768C127.712 16.3818 127.722 16.3917 127.737 16.4017C127.742 16.4067 127.752 16.4117 127.757 16.4166C127.772 16.4266 127.787 16.4316 127.802 16.4416C127.812 16.4465 127.822 16.4515 127.832 16.4615C127.846 16.4715 127.861 16.4765 127.876 16.4864C127.891 16.4964 127.906 16.5014 127.921 16.5113C127.936 16.5213 127.946 16.5263 127.961 16.5363C127.981 16.5462 128.001 16.5612 128.021 16.5711C128.031 16.5761 128.041 16.5861 128.051 16.5911C128.076 16.606 128.101 16.621 128.121 16.6359C128.131 16.6409 128.141 16.6459 128.151 16.6509C128.175 16.6658 128.205 16.6858 128.23 16.7007C128.24 16.7057 128.245 16.7107 128.255 16.7157C128.285 16.7356 128.315 16.7506 128.345 16.7705C128.355 16.7755 128.36 16.7805 128.37 16.7854C128.405 16.8054 128.44 16.8303 128.474 16.8502C128.479 16.8552 128.484 16.8552 128.489 16.8602C128.524 16.8851 128.564 16.9051 128.604 16.93C128.609 16.935 128.614 16.935 128.614 16.9399C128.649 16.9649 128.689 16.9848 128.724 17.0097C128.729 17.0147 128.739 17.0197 128.744 17.0247C128.778 17.0446 128.813 17.0695 128.853 17.0944C128.863 17.0994 128.868 17.1044 128.878 17.1094C128.908 17.1293 128.943 17.1493 128.978 17.1692C128.993 17.1792 129.008 17.1891 129.023 17.1991C129.053 17.219 129.077 17.234 129.107 17.2539C129.127 17.2639 129.142 17.2788 129.162 17.2888C129.187 17.3038 129.212 17.3187 129.237 17.3337C129.262 17.3486 129.287 17.3636 129.312 17.3785C129.332 17.3885 129.347 17.4034 129.367 17.4134C129.396 17.4333 129.426 17.4533 129.456 17.4732C129.471 17.4832 129.486 17.4931 129.501 17.5031C129.536 17.5231 129.571 17.548 129.606 17.5679C129.616 17.5729 129.621 17.5779 129.631 17.5829C129.671 17.6078 129.71 17.6377 129.75 17.6626C129.75 17.6626 129.755 17.6626 129.755 17.6676C130.224 17.9766 130.687 18.2906 131.036 18.5497C131.126 18.4401 131.235 18.3105 131.35 18.1709C131.684 17.7673 132.083 17.2739 132.322 16.9798C132.452 16.8203 132.531 16.7207 132.531 16.7207C132.531 16.7207 132.571 16.7954 132.626 16.93C132.81 17.3586 133.184 18.3753 133.124 19.4169C133.119 19.5415 133.104 19.6611 133.084 19.7857L134.011 21.0017L135.711 23.2295C136.065 22.0284 136.563 19.9302 136.219 17.6875C136.025 16.4117 135.561 15.091 134.649 13.855C133.139 11.8216 131.31 10.5806 129.167 9.44929C128.425 9.05557 127.647 8.6768 126.83 8.28308C126.83 8.28308 126.83 8.28308 126.83 8.2781C126.8 8.15849 126.77 8.03887 126.74 7.92425C126.735 7.9093 126.73 7.89434 126.73 7.87939C126.7 7.76975 126.665 7.66011 126.63 7.55545C126.625 7.53551 126.62 7.52056 126.61 7.50062C126.576 7.39596 126.536 7.29629 126.496 7.19661C126.491 7.17668 126.481 7.16172 126.476 7.14179C126.436 7.04211 126.396 6.94244 126.351 6.84774C126.346 6.83279 126.341 6.82283 126.331 6.80788C126.287 6.7082 126.237 6.61351 126.187 6.51881C126.187 6.51383 126.182 6.51383 126.182 6.50885C126.132 6.41415 126.082 6.32445 126.027 6.23474C126.022 6.22477 126.017 6.2148 126.007 6.20483C125.958 6.12011 125.903 6.03539 125.848 5.95066C125.838 5.93571 125.828 5.92076 125.818 5.91079C125.763 5.83105 125.708 5.75131 125.654 5.67655C125.644 5.6616 125.634 5.65163 125.624 5.63668C125.564 5.56192 125.509 5.48717 125.444 5.41739C125.434 5.40743 125.424 5.39746 125.414 5.38749C125.35 5.31273 125.285 5.24296 125.22 5.17319C125.215 5.1682 125.21 5.16322 125.21 5.16322C125.145 5.09345 125.08 5.02866 125.011 4.96387C125.006 4.95888 124.996 4.94892 124.991 4.94393C124.926 4.87914 124.856 4.81934 124.786 4.75953C124.776 4.74956 124.762 4.7396 124.752 4.72963C124.682 4.66982 124.617 4.615 124.547 4.56018C124.532 4.55021 124.522 4.54024 124.507 4.53028C124.438 4.47546 124.368 4.42562 124.293 4.37578C124.283 4.36581 124.268 4.36083 124.258 4.35086C124.183 4.30102 124.109 4.25118 124.034 4.20135C124.029 4.19636 124.019 4.19138 124.014 4.18639C123.939 4.14154 123.864 4.09669 123.785 4.05183C123.775 4.04685 123.77 4.04186 123.76 4.03688C123.685 3.99203 123.605 3.95216 123.526 3.91229C123.511 3.9073 123.496 3.89733 123.481 3.89235C123.406 3.85248 123.326 3.81759 123.251 3.78271C123.236 3.77772 123.217 3.76775 123.202 3.76277C123.127 3.72788 123.047 3.693 122.967 3.6631C122.952 3.65811 122.937 3.64814 122.922 3.64316C122.843 3.61326 122.763 3.57837 122.683 3.54847C122.673 3.54348 122.658 3.5385 122.648 3.5385C122.569 3.5086 122.489 3.48368 122.414 3.45876C122.404 3.45378 122.394 3.45378 122.384 3.44879C122.305 3.42387 122.22 3.39895 122.14 3.37403C122.125 3.36905 122.105 3.36407 122.09 3.35908C122.01 3.33915 121.931 3.31423 121.851 3.29429C121.831 3.28931 121.811 3.28433 121.791 3.27934C121.711 3.25941 121.632 3.23947 121.557 3.22452C121.537 3.21954 121.517 3.21455 121.502 3.21455C121.422 3.1996 121.343 3.17967 121.263 3.16471C121.248 3.15973 121.233 3.15973 121.218 3.15475C121.143 3.1398 121.064 3.12983 120.989 3.11488C120.979 3.11488 120.964 3.10989 120.954 3.10989C120.874 3.09993 120.794 3.08497 120.715 3.07501C120.695 3.07501 120.68 3.07002 120.66 3.07002C120.58 3.06005 120.505 3.05009 120.426 3.0451C120.406 3.0451 120.386 3.04012 120.366 3.04012C120.291 3.03514 120.211 3.02517 120.137 3.02018C120.117 3.02018 120.097 3.0152 120.077 3.0152C120.002 3.01022 119.922 3.00523 119.847 3.00025C119.833 3.00025 119.813 3.00025 119.798 3.00025C119.723 2.99527 119.653 2.99527 119.583 2.99028C119.568 2.99028 119.553 2.99028 119.538 2.99028C119.464 2.99028 119.394 2.99028 119.319 2.99028C119.304 2.99028 119.289 2.99028 119.269 2.99028C119.125 2.99028 118.975 2.99527 118.836 3.00025C118.831 3.00025 118.821 3.00025 118.816 3.00025C118.671 3.00523 118.527 3.0152 118.387 3.02517H118.382V3.02018C118.382 2.99028 118.377 2.96038 118.372 2.93048C118.372 2.92549 118.372 2.91552 118.367 2.91054C118.362 2.88064 118.357 2.85074 118.352 2.81585C118.352 2.80588 118.347 2.8009 118.347 2.79093C118.342 2.76103 118.337 2.72614 118.327 2.69624C118.327 2.69125 118.322 2.68129 118.322 2.6763C118.317 2.6464 118.307 2.6165 118.298 2.58659C118.298 2.58161 118.293 2.57164 118.293 2.56666C118.283 2.53177 118.273 2.50187 118.263 2.46698C118.258 2.45701 118.258 2.44705 118.253 2.44206C118.243 2.40718 118.228 2.37229 118.218 2.34239C118.213 2.33242 118.213 2.32744 118.208 2.31747C118.193 2.28258 118.178 2.25268 118.163 2.21779C118.163 2.21281 118.158 2.20782 118.158 2.20284C118.143 2.16795 118.123 2.13307 118.108 2.09818C118.103 2.08821 118.098 2.08323 118.093 2.07326C118.073 2.03838 118.053 2.00349 118.033 1.9686C118.028 1.95863 118.023 1.94867 118.018 1.94368C117.998 1.9088 117.974 1.87391 117.949 1.83902C117.944 1.83404 117.939 1.82906 117.934 1.81909C117.909 1.7842 117.889 1.7543 117.864 1.71941C117.859 1.71443 117.854 1.70446 117.849 1.69948C117.824 1.66459 117.794 1.6297 117.764 1.59482C117.754 1.58485 117.749 1.57488 117.739 1.5699C117.709 1.53501 117.68 1.50012 117.645 1.46524C117.64 1.45527 117.63 1.45029 117.625 1.44032C117.59 1.40543 117.555 1.37553 117.52 1.34064C117.515 1.33566 117.51 1.33566 117.51 1.33068C117.47 1.29579 117.43 1.2609 117.39 1.22602C117.38 1.21605 117.371 1.21106 117.366 1.2011C117.326 1.16621 117.281 1.13631 117.241 1.10142C117.231 1.09145 117.221 1.08647 117.211 1.0765C117.166 1.04161 117.116 1.01171 117.072 0.976825C117.067 0.971842 117.057 0.966858 117.052 0.961874C117.007 0.931971 116.957 0.902068 116.907 0.872166C116.897 0.867182 116.887 0.862198 116.877 0.857214C116.822 0.827311 116.767 0.797408 116.713 0.767506C116.698 0.762522 116.688 0.752554 116.673 0.74757C116.618 0.717668 116.558 0.687765 116.498 0.662846C116.488 0.657862 116.473 0.652878 116.463 0.647894C116.404 0.622975 116.339 0.593073 116.274 0.568154C116.269 0.568154 116.264 0.56317 116.259 0.56317C116.189 0.538251 116.12 0.508348 116.05 0.483429C116.035 0.478445 116.02 0.473461 116.005 0.468477C115.935 0.443558 115.86 0.418639 115.786 0.398704C115.771 0.39372 115.751 0.388737 115.736 0.383753C115.661 0.358834 115.581 0.338899 115.497 0.318963C115.487 0.31398 115.477 0.31398 115.467 0.31398C115.387 0.294044 115.307 0.274109 115.227 0.254174C115.213 0.24919 115.198 0.24919 115.183 0.244206C115.098 0.224271 115.008 0.20932 114.919 0.189385C114.899 0.184401 114.879 0.184401 114.859 0.179417C114.769 0.164465 114.674 0.149514 114.58 0.134563C114.565 0.129579 114.545 0.129579 114.525 0.129579C114.43 0.114627 114.33 0.10466 114.231 0.0897084C114.221 0.0897084 114.216 0.0897085 114.206 0.0847247C114.101 0.074757 113.992 0.0647894 113.882 0.0548218C113.862 0.0548218 113.837 0.049838 113.817 0.049838C113.707 0.0398704 113.598 0.0348866 113.488 0.024919C113.463 0.024919 113.443 0.024919 113.418 0.0199352C113.304 0.0149514 113.184 0.00996761 113.06 0.0049838C113.05 0.0049838 113.035 0.0049838 113.025 0.0049838C112.905 0 112.785 0 112.661 0C112.641 0 112.616 0 112.596 0C112.526 0 112.452 0 112.382 0C112.362 0 112.337 0 112.317 0C112.222 0 112.123 0.0049838 112.028 0.0049838C112.003 0.0049838 111.973 0.0049838 111.948 0.00996761C111.873 0.0149514 111.799 0.0149514 111.724 0.0199352C111.689 0.0199352 111.654 0.024919 111.619 0.024919C111.549 0.0299028 111.48 0.0299028 111.41 0.0348866C111.37 0.0348866 111.335 0.0398704 111.295 0.0398704C111.226 0.0448542 111.156 0.049838 111.081 0.0548218C111.041 0.0598056 111.006 0.0598056 110.966 0.0647894C110.892 0.0697732 110.812 0.0797408 110.737 0.0847247C110.702 0.0897085 110.667 0.0897085 110.637 0.0946923C110.548 0.10466 110.458 0.114627 110.363 0.119611C110.338 0.119611 110.318 0.124595 110.294 0.124595C110.174 0.139546 110.054 0.149514 109.935 0.164465C103.456 0.931971 104.223 5.21804 104.114 7.19163C104.109 7.18664 104.099 7.18166 104.094 7.17668C104.039 7.13681 103.989 7.09195 103.934 7.05208C103.914 7.03713 103.894 7.02218 103.874 7.00723C103.82 6.96736 103.765 6.92749 103.71 6.88263C103.7 6.87765 103.69 6.86768 103.685 6.8627C103.625 6.81784 103.56 6.77299 103.496 6.72813C103.476 6.71318 103.456 6.70321 103.436 6.68826C103.381 6.64839 103.326 6.61351 103.271 6.57364C103.261 6.56367 103.246 6.55868 103.236 6.54872C103.172 6.50386 103.107 6.46399 103.037 6.41914C103.017 6.40917 102.997 6.39422 102.982 6.38425C102.927 6.34937 102.868 6.31448 102.813 6.27959C102.798 6.26962 102.783 6.25966 102.768 6.25467C102.698 6.2148 102.628 6.17493 102.559 6.13506C102.539 6.12509 102.519 6.11513 102.499 6.10017C102.439 6.07027 102.384 6.03539 102.324 6.00548C102.309 5.99551 102.29 5.98555 102.275 5.98056C102.205 5.94069 102.13 5.90581 102.06 5.87092C102.04 5.86095 102.02 5.85098 102 5.84102C101.941 5.81111 101.881 5.7862 101.821 5.75629C101.801 5.74632 101.781 5.73636 101.761 5.73137C101.687 5.69649 101.612 5.66658 101.537 5.6317C101.517 5.62173 101.497 5.61675 101.477 5.60678C101.417 5.58186 101.353 5.55694 101.288 5.53202C101.268 5.52205 101.243 5.51707 101.223 5.5071C101.143 5.4772 101.069 5.45228 100.989 5.42238C100.969 5.41739 100.954 5.41241 100.934 5.40244C100.869 5.38251 100.804 5.35759 100.735 5.33765C100.71 5.33267 100.69 5.3227 100.665 5.31772C100.585 5.2928 100.5 5.26788 100.421 5.24794C100.406 5.24296 100.391 5.23798 100.371 5.23798C100.301 5.21804 100.226 5.20309 100.156 5.18814C100.132 5.18315 100.107 5.17817 100.087 5.17319C100.002 5.15325 99.9173 5.1383 99.8275 5.11837C99.8176 5.11837 99.8026 5.11338 99.7927 5.11338C99.7129 5.09843 99.6382 5.08846 99.5584 5.07351C99.5335 5.06853 99.5086 5.06853 99.4837 5.06354C99.394 5.04859 99.3042 5.03862 99.2096 5.02866C99.2046 5.02866 99.1996 5.02866 99.1946 5.02866C99.1099 5.01869 99.0202 5.01371 98.9305 5.00374C98.9055 5.00374 98.8806 4.99875 98.8607 4.99875C98.766 4.99377 98.6713 4.98879 98.5766 4.9838C98.5766 4.9838 98.5766 4.9838 98.5716 4.9838C98.472 4.97882 98.3773 4.97882 98.2776 4.9838C98.2577 4.9838 98.2377 4.9838 98.2128 4.9838C98.1131 4.9838 98.0134 4.98879 97.9138 4.99377H97.9088C97.8091 4.99875 97.7094 5.00872 97.6098 5.01371C97.5898 5.01371 97.5699 5.01869 97.55 5.01869C97.4503 5.02866 97.3456 5.03862 97.241 5.05358C97.231 5.05358 97.221 5.05856 97.2061 5.05856C97.1114 5.07351 97.0117 5.08846 96.917 5.10341C96.8971 5.1084 96.8771 5.1084 96.8572 5.11338C96.7525 5.13332 96.6479 5.15325 96.5432 5.17319C96.5283 5.17817 96.5083 5.18316 96.4934 5.18316C96.3987 5.20309 96.299 5.22801 96.1993 5.25293C96.1844 5.25791 96.1694 5.2629 96.1495 5.2629C96.0399 5.28781 95.9302 5.31772 95.8206 5.3526C95.8006 5.35759 95.7757 5.36756 95.7558 5.37254C95.6511 5.40244 95.5465 5.43733 95.4418 5.47222C95.4318 5.4772 95.4219 5.4772 95.4119 5.48218C95.2973 5.51707 95.1876 5.56192 95.073 5.60179C95.0481 5.61176 95.0281 5.62173 95.0032 5.62671C94.8886 5.67157 94.774 5.71642 94.6544 5.76128C93.9068 6.07027 93.2439 6.53875 92.7356 7.12684C92.7306 7.13681 92.7206 7.14179 92.7157 7.15176C92.7107 7.15674 92.7107 7.15674 92.7107 7.16172C92.1625 7.80962 91.7986 8.59706 91.694 9.48916C91.679 9.60379 91.674 9.71842 91.6691 9.83304C91.6691 9.84799 91.6691 9.86295 91.6691 9.8779C91.6342 10.0424 91.6392 10.2467 91.6591 10.451Z" fill="white"/>
<path d="M191.331 58.1211C191.381 57.5828 190.399 56.9 188.78 56.5761C188.6 56.5412 188.346 56.4814 188.017 56.4066C185.675 55.8634 179.435 54.3832 168.411 53.4961C167.125 54.0244 164.369 55.1208 161.01 56.4565C156.604 58.2108 151.122 60.3937 146.532 62.2526C144.135 63.2245 141.713 64.301 139.41 65.3575C140.292 65.213 141.174 65.0735 142.052 64.9339C142.067 64.9339 142.081 64.9289 142.096 64.9289C142.256 64.904 142.415 64.8791 142.575 64.8542C142.595 64.8492 142.62 64.8492 142.64 64.8442C142.799 64.8193 142.954 64.7944 143.113 64.7695C143.138 64.7645 143.158 64.7645 143.183 64.7595C143.332 64.7346 143.487 64.7146 143.636 64.6897C143.666 64.6847 143.701 64.6797 143.731 64.6748C143.881 64.6498 144.025 64.6299 144.175 64.605C144.205 64.6 144.239 64.595 144.269 64.59C144.419 64.5651 144.563 64.5452 144.713 64.5203C144.743 64.5153 144.773 64.5103 144.803 64.5053C144.952 64.4804 145.102 64.4605 145.251 64.4355C145.281 64.4306 145.306 64.4256 145.336 64.4206C145.49 64.3957 145.64 64.3757 145.794 64.3508C145.819 64.3458 145.844 64.3458 145.864 64.3408C146.024 64.3159 146.178 64.296 146.338 64.2711C146.348 64.2711 146.363 64.2661 146.373 64.2661C146.542 64.2412 146.711 64.2163 146.876 64.1913C146.876 64.1913 146.876 64.1913 146.881 64.1913C149.527 63.8026 152.149 63.4388 154.71 63.0999C163.312 61.9636 171.287 61.0914 177.606 60.3937C177.611 60.3937 177.611 60.3937 177.616 60.3937C177.726 60.3837 177.83 60.3688 177.935 60.3588C177.99 60.3538 178.04 60.3488 178.089 60.3438C178.164 60.3339 178.239 60.3289 178.314 60.3189C178.379 60.3139 178.443 60.304 178.508 60.299C178.563 60.294 178.613 60.289 178.668 60.284C178.742 60.2741 178.822 60.2691 178.897 60.2591C178.942 60.2541 178.987 60.2491 179.036 60.2442C179.121 60.2342 179.206 60.2242 179.286 60.2143C179.31 60.2093 179.34 60.2093 179.365 60.2043C179.585 60.1794 179.804 60.1545 180.018 60.1295C180.038 60.1295 180.053 60.1246 180.073 60.1246C184.942 59.5813 188.565 59.1527 190.345 58.7789C190.988 58.6493 191.302 58.4051 191.331 58.1211Z" fill="white"/>
<path d="M118.845 53.1371C119.025 52.5142 119.204 51.8713 119.364 51.2333C119.364 51.2333 119.364 51.2333 119.364 51.2284C119.389 51.1237 119.414 51.019 119.439 50.9144V50.9094C119.463 50.8047 119.488 50.7001 119.508 50.6004C119.578 50.2914 119.638 49.9824 119.693 49.6834C119.693 49.6784 119.693 49.6734 119.698 49.6684C119.713 49.5737 119.728 49.479 119.743 49.3893C119.743 49.3794 119.748 49.3744 119.748 49.3644C119.762 49.2747 119.772 49.18 119.787 49.0903C119.787 49.0803 119.787 49.0753 119.792 49.0654C119.802 48.9757 119.812 48.886 119.822 48.7963C119.822 48.7913 119.822 48.7863 119.822 48.7863C119.842 48.6019 119.852 48.4275 119.862 48.253C119.862 48.248 119.862 48.2431 119.862 48.2381C119.867 48.1583 119.867 48.0736 119.867 47.9939C119.867 47.9839 119.867 47.9739 119.867 47.964C119.867 47.8892 119.867 47.8095 119.862 47.7347C119.862 47.7247 119.862 47.7148 119.862 47.7048C119.857 47.63 119.852 47.5553 119.847 47.4855C119.847 47.4755 119.847 47.4656 119.842 47.4606C119.837 47.3858 119.827 47.3161 119.817 47.2463C119.817 47.2413 119.817 47.2363 119.817 47.2313C119.807 47.1616 119.792 47.0918 119.782 47.022C119.782 47.017 119.782 47.017 119.782 47.0121C119.767 46.9473 119.752 46.8825 119.733 46.8177C119.733 46.8077 119.728 46.8027 119.728 46.7928C119.708 46.733 119.693 46.6781 119.668 46.6183C119.663 46.6084 119.663 46.5984 119.658 46.5884C119.638 46.5336 119.613 46.4788 119.588 46.4289C119.583 46.419 119.578 46.409 119.573 46.404C119.548 46.3542 119.518 46.3044 119.488 46.2545C119.483 46.2495 119.478 46.2396 119.473 46.2346C119.443 46.1847 119.409 46.1399 119.374 46.095C119.369 46.09 119.369 46.09 119.364 46.0851C119.329 46.0402 119.294 46.0003 119.254 45.9655C119.249 45.9605 119.244 45.9555 119.239 45.9505C119.199 45.9106 119.159 45.8757 119.115 45.8458C119.105 45.8409 119.1 45.8309 119.09 45.8259C119.045 45.796 119 45.7661 118.955 45.7362C118.945 45.7312 118.935 45.7262 118.925 45.7212C118.875 45.6963 118.826 45.6714 118.776 45.6465C118.766 45.6415 118.756 45.6365 118.741 45.6315C118.686 45.6116 118.631 45.5917 118.571 45.5717C118.561 45.5668 118.551 45.5668 118.541 45.5618C118.482 45.5468 118.422 45.5319 118.357 45.5169C118.352 45.5169 118.352 45.5169 118.347 45.5169C118.327 45.5119 118.307 45.5119 118.282 45.5069C118.277 45.5069 118.272 45.5069 118.267 45.5069C118.252 45.5069 118.232 45.5069 118.217 45.502C118.208 45.502 118.198 45.502 118.188 45.502C118.183 45.502 118.173 45.502 118.168 45.502C118.123 45.502 118.073 45.5069 118.023 45.5119C118.018 45.5119 118.013 45.5119 118.008 45.5169C117.958 45.5219 117.908 45.5319 117.854 45.5468C117.849 45.5468 117.844 45.5518 117.839 45.5518C117.784 45.5667 117.734 45.5817 117.679 45.5967C117.674 45.5967 117.669 45.6016 117.664 45.6016C117.609 45.6216 117.55 45.6415 117.49 45.6664C117.48 45.6714 117.475 45.6714 117.465 45.6764C117.405 45.7013 117.35 45.7262 117.29 45.7561C117.281 45.7611 117.271 45.7661 117.261 45.7711C117.201 45.801 117.141 45.8309 117.081 45.8608C117.071 45.8658 117.056 45.8708 117.046 45.8807C116.986 45.9156 116.927 45.9505 116.862 45.9854C116.847 45.9904 116.837 46.0003 116.822 46.0053C116.762 46.0402 116.697 46.0801 116.633 46.12C116.618 46.1299 116.608 46.1349 116.593 46.1449C116.528 46.1847 116.463 46.2296 116.398 46.2744C116.383 46.2844 116.368 46.2944 116.354 46.3044C116.289 46.3492 116.224 46.3941 116.154 46.4439C116.139 46.4539 116.124 46.4638 116.109 46.4738C116.045 46.5236 115.975 46.5735 115.905 46.6233C115.89 46.6333 115.875 46.6433 115.86 46.6582C115.79 46.713 115.721 46.7629 115.651 46.8177C115.636 46.8277 115.621 46.8376 115.611 46.8526C115.541 46.9074 115.471 46.9672 115.397 47.027C115.382 47.037 115.372 47.0469 115.357 47.0619C115.282 47.1217 115.212 47.1815 115.137 47.2463C115.128 47.2563 115.113 47.2662 115.103 47.2762C115.028 47.341 114.953 47.4058 114.878 47.4706C114.868 47.4805 114.858 47.4905 114.848 47.5005C114.774 47.5702 114.694 47.64 114.614 47.7098C114.604 47.7198 114.599 47.7247 114.589 47.7347C114.51 47.8045 114.43 47.8792 114.355 47.954C114.35 47.959 114.34 47.964 114.335 47.9739C114.255 48.0487 114.181 48.1234 114.101 48.1982C114.091 48.2082 114.086 48.2131 114.076 48.2231C113.996 48.2979 113.921 48.3726 113.842 48.4524C113.832 48.4623 113.822 48.4723 113.807 48.4823C113.732 48.557 113.657 48.6318 113.578 48.7065C113.563 48.7215 113.553 48.7315 113.538 48.7464C113.463 48.8212 113.393 48.8959 113.318 48.9707C113.303 48.9856 113.289 49.0006 113.274 49.0155C113.204 49.0903 113.129 49.1601 113.059 49.2348C113.044 49.2498 113.024 49.2697 113.009 49.2847C112.94 49.3594 112.87 49.4292 112.8 49.504C112.78 49.5239 112.765 49.5438 112.745 49.5588C112.68 49.6286 112.611 49.7033 112.546 49.7731C112.526 49.793 112.506 49.8179 112.486 49.8379C112.421 49.9076 112.357 49.9774 112.297 50.0472C112.277 50.0721 112.257 50.092 112.237 50.117C112.177 50.1867 112.112 50.2565 112.053 50.3213C112.033 50.3462 112.008 50.3711 111.988 50.3961C111.928 50.4608 111.868 50.5306 111.808 50.5954C111.783 50.6203 111.763 50.6452 111.739 50.6751C111.684 50.7399 111.624 50.8047 111.569 50.8695C111.544 50.8994 111.524 50.9243 111.499 50.9542C111.444 51.014 111.395 51.0788 111.34 51.1386C111.315 51.1685 111.29 51.1984 111.265 51.2284C111.22 51.2832 111.175 51.333 111.135 51.3828C111.106 51.4227 111.071 51.4576 111.041 51.4975C111.006 51.5423 110.966 51.5872 110.931 51.632C110.896 51.6769 110.856 51.7217 110.822 51.7666C110.792 51.8065 110.757 51.8463 110.727 51.8812C110.707 51.9061 110.687 51.9311 110.672 51.951C110.323 52.3946 109.89 52.9478 109.416 53.5558C109.401 53.5757 109.386 53.5957 109.371 53.6156C109.346 53.6455 109.321 53.6804 109.296 53.7103C109.267 53.7502 109.237 53.79 109.207 53.8299C109.202 53.8399 109.197 53.8448 109.187 53.8548C107.208 56.4215 104.711 59.7507 104.711 59.7507C104.711 59.7507 105.419 57.2189 106.082 54.7718C106.102 54.7021 106.117 54.6323 106.137 54.5625C106.167 54.4529 106.197 54.3432 106.226 54.2336C106.241 54.1788 106.256 54.1289 106.266 54.0791C106.336 53.8299 106.401 53.5807 106.466 53.3415C106.481 53.2916 106.491 53.2418 106.506 53.197C106.52 53.1421 106.535 53.0823 106.55 53.0275C107.004 51.323 108.145 48.253 108.619 46.3542C108.813 45.5817 108.893 45.0036 108.773 44.7893C108.609 44.4952 108.519 44.1862 108.449 43.8723C108.429 43.7726 108.409 43.6729 108.389 43.5682C108.305 43.1048 108.235 42.6413 108.031 42.2376C108.001 42.1778 107.966 42.118 107.936 42.0631C107.921 42.0432 107.911 42.0183 107.896 41.9983C107.891 41.9934 107.886 41.9834 107.881 41.9784C107.871 41.9585 107.856 41.9435 107.846 41.9286C107.841 41.9186 107.831 41.9086 107.826 41.9037C107.816 41.8887 107.801 41.8738 107.791 41.8588C107.781 41.8488 107.776 41.8389 107.766 41.8289C107.756 41.8139 107.747 41.804 107.732 41.789C107.722 41.7791 107.712 41.7691 107.702 41.7591C107.692 41.7492 107.682 41.7342 107.667 41.7242C107.657 41.7143 107.647 41.7043 107.637 41.6943C107.627 41.6844 107.617 41.6744 107.602 41.6644C107.592 41.6545 107.582 41.6445 107.567 41.6345C107.557 41.6246 107.547 41.6196 107.532 41.6096C107.522 41.5996 107.507 41.5947 107.497 41.5847C107.487 41.5747 107.472 41.5697 107.462 41.5648C107.447 41.5548 107.438 41.5498 107.423 41.5398C107.413 41.5349 107.398 41.5249 107.388 41.5199C107.373 41.5149 107.363 41.505 107.348 41.5C107.338 41.495 107.323 41.49 107.313 41.485C107.298 41.48 107.283 41.475 107.273 41.4701C107.263 41.4651 107.248 41.4601 107.238 41.4551C107.223 41.4501 107.208 41.4451 107.193 41.4402C107.178 41.4352 107.168 41.4352 107.153 41.4302C107.138 41.4252 107.124 41.4252 107.109 41.4202C107.094 41.4202 107.084 41.4152 107.069 41.4152C107.054 41.4152 107.039 41.4103 107.019 41.4103C107.004 41.4103 106.994 41.4053 106.979 41.4053C106.964 41.4053 106.944 41.4053 106.929 41.4053C106.914 41.4053 106.904 41.4053 106.889 41.4053C106.879 41.4053 106.869 41.4053 106.859 41.4053C106.839 41.4053 106.82 41.4053 106.8 41.4103C106.79 41.4103 106.775 41.4103 106.765 41.4152C106.745 41.4152 106.725 41.4202 106.705 41.4202C106.695 41.4202 106.68 41.4252 106.67 41.4252C106.65 41.4302 106.63 41.4302 106.61 41.4352C106.6 41.4402 106.585 41.4402 106.575 41.4451C106.555 41.4501 106.535 41.4551 106.511 41.4601C106.496 41.4651 106.486 41.4651 106.471 41.4701C106.451 41.475 106.426 41.485 106.406 41.49C106.391 41.495 106.381 41.5 106.366 41.5049C106.341 41.5149 106.321 41.5199 106.296 41.5299C106.281 41.5349 106.271 41.5398 106.256 41.5448C106.231 41.5548 106.207 41.5648 106.187 41.5747C106.172 41.5797 106.162 41.5847 106.147 41.5897C106.122 41.5996 106.097 41.6146 106.072 41.6246C106.062 41.6295 106.047 41.6345 106.037 41.6445C106.012 41.6594 105.982 41.6744 105.957 41.6844C105.947 41.6894 105.932 41.6993 105.922 41.7043C105.893 41.7193 105.863 41.7392 105.833 41.7541C105.823 41.7591 105.813 41.7641 105.798 41.7741C105.768 41.794 105.733 41.8139 105.703 41.8339C105.693 41.8389 105.683 41.8438 105.678 41.8488C105.643 41.8738 105.603 41.8987 105.569 41.9236C105.564 41.9286 105.559 41.9336 105.554 41.9336C105.424 42.0233 105.285 42.1279 105.14 42.2426C102.992 43.962 98.068 49.8877 93.3832 55.8733C88.4891 62.1279 83.8641 68.4474 82.9571 70.0771C81.9952 71.8115 80.7792 70.8396 80.7891 73.3913C80.7941 74.0492 81.3423 74.5426 81.9803 74.5426C82.045 74.5426 82.1098 74.5376 82.1796 74.5276C82.7777 74.428 83.3408 74.3034 83.9439 74.1489C84.2279 74.0741 84.4722 73.8997 84.6316 73.6505C87.4724 69.2049 92.6057 61.0564 98.5364 53.5458C98.5464 53.5359 98.5514 53.5259 98.5614 53.5159C98.8205 53.187 99.0797 52.863 99.3438 52.5391C99.3488 52.5291 99.3588 52.5192 99.3638 52.5092C99.902 51.8463 100.44 51.1885 100.988 50.5406C100.993 50.5356 100.993 50.5356 100.998 50.5306C101.268 50.2117 101.532 49.8977 101.801 49.5887C101.816 49.5737 101.826 49.5588 101.841 49.5438C102.105 49.2348 102.374 48.9308 102.643 48.6318C102.653 48.6218 102.658 48.6119 102.668 48.6019C102.942 48.2929 103.221 47.9839 103.5 47.6799C103.48 47.7347 103.46 47.7945 103.441 47.8493C103.406 47.944 103.371 48.0387 103.336 48.1334C103.311 48.2082 103.281 48.2879 103.256 48.3627C103.226 48.4424 103.196 48.5271 103.171 48.6069C103.141 48.6866 103.117 48.7713 103.087 48.8511C103.062 48.9308 103.032 49.0106 103.007 49.0903C102.977 49.175 102.952 49.2597 102.922 49.3445C102.897 49.4242 102.872 49.504 102.842 49.5837C102.813 49.6734 102.783 49.7581 102.758 49.8478C102.733 49.9226 102.708 49.9974 102.688 50.0721C102.573 50.4359 102.459 50.8047 102.349 51.1835C102.334 51.2333 102.319 51.2832 102.304 51.333C102.269 51.4526 102.234 51.5722 102.2 51.6918C102.185 51.7417 102.17 51.7915 102.155 51.8463C102.12 51.9709 102.085 52.0955 102.05 52.2201C102.04 52.265 102.025 52.3049 102.015 52.3497C101.975 52.4843 101.94 52.6188 101.901 52.7584C101.896 52.7733 101.891 52.7883 101.886 52.8082C101.661 53.6156 101.447 54.4329 101.238 55.2503C101.113 55.7337 100.993 56.2122 100.874 56.6856C100.361 58.7489 99.892 61.505 99.6429 63.0948C99.4784 64.1314 99.897 65.1979 100.779 65.7661C101.043 65.9356 101.332 66.0502 101.621 66.0502C101.701 66.0502 101.781 66.0402 101.866 66.0203C104.173 65.4721 106.256 62.5067 109.77 57.4531C110.587 56.2769 111.375 55.2154 112.087 54.2884C112.097 54.2735 112.112 54.2585 112.122 54.2436C112.177 54.1688 112.237 54.099 112.292 54.0292C112.302 54.0193 112.307 54.0093 112.317 53.9993C112.491 53.7751 112.656 53.5608 112.82 53.3564C112.83 53.3415 112.84 53.3315 112.85 53.3166C112.9 53.2518 112.955 53.187 113.004 53.1272C113.014 53.1172 113.024 53.1023 113.034 53.0923C113.189 52.8979 113.338 52.7185 113.478 52.5441C113.493 52.5291 113.503 52.5092 113.518 52.4942C113.558 52.4444 113.602 52.3946 113.642 52.3447C113.657 52.3248 113.677 52.3048 113.692 52.2849C113.812 52.1404 113.931 51.9959 114.041 51.8663C114.066 51.8364 114.091 51.8065 114.116 51.7816C114.141 51.7516 114.171 51.7168 114.196 51.6869C114.225 51.652 114.255 51.6171 114.285 51.5822C114.305 51.5573 114.325 51.5373 114.345 51.5124C114.395 51.4576 114.44 51.4028 114.485 51.348C114.495 51.338 114.5 51.328 114.51 51.3181C114.549 51.2682 114.589 51.2234 114.629 51.1785C114.639 51.1685 114.644 51.1586 114.654 51.1536C115.177 50.5456 115.486 50.2166 115.486 50.2166C115.486 50.2166 115.128 51.3629 114.52 53.0823C114.515 53.0973 114.51 53.1172 114.5 53.1322C114.485 53.172 114.47 53.2169 114.455 53.2617C114.445 53.2867 114.44 53.3066 114.43 53.3315C114.415 53.3764 114.4 53.4162 114.385 53.4611C114.37 53.496 114.36 53.5359 114.345 53.5707C114.33 53.6106 114.315 53.6505 114.3 53.6904C114.285 53.7302 114.27 53.7701 114.255 53.81C114.245 53.8299 114.24 53.8498 114.23 53.8747C114.215 53.9196 114.201 53.9645 114.181 54.0093C114.176 54.0243 114.171 54.0342 114.166 54.0492C114.126 54.1588 114.086 54.2735 114.041 54.3881C113.548 55.7337 112.95 57.2837 112.282 58.8536C110.413 63.2443 110.154 65.173 111.17 66.5535C111.604 67.1366 112.038 67.2961 112.461 67.2961C112.965 67.2961 113.453 67.0719 113.882 67.0719C114.056 67.0719 114.225 67.1067 114.38 67.2114C114.445 67.2563 114.534 67.2762 114.639 67.2762C116.059 67.2762 120.689 63.4835 119.13 62.0831C118.975 61.9435 118.835 61.8887 118.711 61.8887C118.063 61.8887 117.644 63.339 116.513 63.339C116.458 63.339 116.408 63.334 116.354 63.329C115.571 63.2393 116.124 61.2308 116.832 59.2722C117.575 57.2388 118.247 55.2004 118.845 53.1371Z" fill="white"/>
<path d="M81.1735 77.6473C81.1984 77.6423 81.2283 77.6373 81.2532 77.6274C81.4874 77.5725 81.7267 77.5177 81.9609 77.4679C82.0008 77.4579 82.0407 77.4479 82.0805 77.438C82.3048 77.3881 82.5291 77.3333 82.7533 77.2835C82.7982 77.2735 82.843 77.2635 82.8879 77.2536C83.1072 77.2037 83.3315 77.1539 83.5507 77.1041C83.5906 77.0941 83.6355 77.0841 83.6753 77.0742C83.8996 77.0243 84.1239 76.9745 84.3432 76.9246C84.388 76.9147 84.4379 76.9047 84.4827 76.8947C84.702 76.8449 84.9263 76.7951 85.1456 76.7452C85.1904 76.7353 85.2353 76.7253 85.2801 76.7153C85.5144 76.6605 85.7436 76.6107 85.9779 76.5558C86.0028 76.5509 86.0227 76.5459 86.0476 76.5409C86.2968 76.4861 86.541 76.4312 86.7902 76.3764C86.8101 76.3714 86.8301 76.3665 86.85 76.3615C87.1042 76.3017 87.3634 76.2468 87.6175 76.187C87.6275 76.187 87.6325 76.1821 87.6424 76.1821C101.268 73.132 114.774 70.3111 121.497 68.811C121.114 68.1731 120.854 67.4554 120.755 66.6929C120.536 65.0283 121.054 63.3587 122.175 62.1078C122.848 61.3552 123.695 60.5379 124.677 59.596C126.227 58.1008 128.25 56.1571 130.717 53.3662C130.712 53.3662 130.707 53.3662 130.702 53.3662C129.481 53.436 128.29 53.5058 127.124 53.5755C124.712 53.7151 122.419 53.8546 120.237 53.9842C120.202 54.1088 120.162 54.2334 120.127 54.353C119.858 55.265 118.447 59.4066 118.118 60.3734C118.298 60.3186 118.497 60.2837 118.711 60.2837C119.08 60.2837 119.633 60.3884 120.187 60.8818C121.019 61.6294 121.253 62.7706 120.805 63.9369C120.271 65.3323 118.906 66.5633 118.138 67.1763C117.361 67.7993 115.871 68.8359 114.64 68.8359C114.331 68.8359 114.032 68.7711 113.768 68.6515C113.708 68.6665 113.643 68.6814 113.588 68.6914C113.284 68.7662 112.905 68.8559 112.457 68.8559C111.754 68.8559 110.737 68.6166 109.89 67.4654C108.44 65.4968 108.868 63.0597 110.324 59.4116C107.064 64.0814 104.946 66.8972 102.225 67.5451C102.026 67.59 101.821 67.6149 101.617 67.6149C101.044 67.6149 100.476 67.4355 99.9225 67.0816C98.5321 66.1945 97.8094 64.5249 98.0735 62.8304C98.3128 61.3104 98.7962 58.4347 99.3344 56.2867C99.4092 55.9827 99.4889 55.6737 99.5687 55.3597C99.5537 55.3597 99.5338 55.3647 99.5188 55.3647C99.3793 55.3747 99.2398 55.3846 99.1052 55.3946C93.8373 62.1726 89.2572 69.3592 86.4663 73.73C86.2968 73.9942 86.1373 74.2483 85.9828 74.4925C85.609 75.0806 85.0309 75.4993 84.3581 75.6737C83.6355 75.8631 83.0474 75.9877 82.4543 76.0874C82.3048 76.1123 82.1503 76.1223 82.0008 76.1223C80.4807 76.1223 79.2348 74.8962 79.2248 73.3911C79.2198 72.3894 79.3793 71.6518 79.7232 71.0637C80.1019 70.4258 80.6203 70.1068 80.9641 69.8975C81.2682 69.7131 81.4077 69.6284 81.5921 69.2994C82.4942 67.6747 86.6706 61.9533 91.2457 56.0575C91.2408 56.0575 91.2308 56.0575 91.2258 56.0575C86.1672 56.521 81.7566 57.0144 77.3359 57.5825C77.3509 58.5444 77.3758 59.4514 77.4157 60.2688C78.0536 60.503 78.6267 60.8319 79.1052 61.2406C79.9724 61.9782 80.4757 62.9401 80.5256 63.9518C80.5854 65.2326 80.1418 66.3191 79.2348 67.0966C78.8012 67.4704 78.3177 67.7295 77.8592 67.9289C78.0735 71.8561 78.4722 74.9261 79.5388 78.0111C79.8129 77.9463 80.092 77.8815 80.3711 77.8217C80.3761 77.8217 80.381 77.8217 80.386 77.8167C80.6601 77.7669 80.9143 77.7071 81.1735 77.6473Z" fill="white"/>
<path d="M141.566 35.7684C141.541 35.7435 141.516 35.7186 141.491 35.6986C141.451 35.6588 141.406 35.6239 141.366 35.589C141.341 35.5641 141.316 35.5441 141.287 35.5192C141.242 35.4843 141.197 35.4494 141.157 35.4146C141.127 35.3946 141.102 35.3697 141.072 35.3498C141.027 35.3149 140.983 35.285 140.933 35.2501C140.903 35.2302 140.873 35.2102 140.843 35.1853C140.798 35.1554 140.748 35.1205 140.698 35.0906C140.669 35.0707 140.639 35.0507 140.604 35.0308C140.554 35.0009 140.504 34.971 140.454 34.9411C140.419 34.9212 140.389 34.9012 140.355 34.8863C140.305 34.8564 140.25 34.8315 140.2 34.8065C140.165 34.7866 140.13 34.7716 140.095 34.7517C140.041 34.7268 139.991 34.7019 139.936 34.677C139.896 34.662 139.861 34.6421 139.821 34.6271C139.766 34.6022 139.712 34.5823 139.657 34.5573C139.617 34.5424 139.577 34.5225 139.537 34.5075C139.482 34.4876 139.428 34.4676 139.368 34.4477C139.323 34.4328 139.283 34.4178 139.238 34.4028C139.183 34.3829 139.124 34.368 139.069 34.348C139.024 34.3331 138.979 34.3181 138.929 34.3082C138.874 34.2932 138.815 34.2783 138.755 34.2633C138.705 34.2483 138.655 34.2384 138.61 34.2234C138.55 34.2085 138.496 34.1985 138.436 34.1836C138.386 34.1736 138.331 34.1586 138.281 34.1487C138.222 34.1387 138.162 34.1238 138.107 34.1138C138.052 34.1038 137.997 34.0939 137.942 34.0839C137.883 34.0739 137.823 34.0639 137.763 34.059C137.703 34.049 137.643 34.044 137.584 34.034C137.524 34.0291 137.464 34.0191 137.404 34.0141C137.339 34.0091 137.28 33.9992 137.215 33.9942C137.155 33.9892 137.095 33.9842 137.035 33.9792C136.971 33.9742 136.901 33.9693 136.836 33.9643C136.776 33.9593 136.716 33.9593 136.657 33.9543C136.587 33.9493 136.517 33.9493 136.442 33.9493C136.382 33.9493 136.323 33.9493 136.268 33.9443C136.168 33.9443 136.069 33.9443 135.964 33.9443C135.854 33.9443 135.745 33.9493 135.64 33.9543C135.615 33.9543 135.59 33.9543 135.565 33.9593C135.48 33.9643 135.401 33.9693 135.316 33.9742C135.286 33.9742 135.261 33.9792 135.231 33.9792C135.147 33.9842 135.062 33.9942 134.982 33.9992C134.962 33.9992 134.942 34.0041 134.922 34.0041C134.818 34.0141 134.713 34.0241 134.613 34.039C134.608 34.039 134.603 34.039 134.598 34.039C134.504 34.049 134.409 34.0639 134.314 34.0789C134.289 34.0839 134.264 34.0889 134.239 34.0889C134.165 34.0988 134.09 34.1138 134.02 34.1238C133.995 34.1287 133.965 34.1337 133.94 34.1387C133.861 34.1537 133.776 34.1686 133.696 34.1836C133.681 34.1885 133.666 34.1885 133.656 34.1935C133.562 34.2135 133.467 34.2334 133.372 34.2583C133.357 34.2633 133.347 34.2633 133.332 34.2683C133.253 34.2882 133.178 34.3082 133.103 34.3281C133.078 34.3331 133.053 34.343 133.028 34.348C132.959 34.368 132.894 34.3829 132.824 34.4028C132.799 34.4078 132.779 34.4178 132.754 34.4228C132.67 34.4477 132.59 34.4726 132.505 34.4975C132.5 34.4975 132.5 34.4975 132.495 34.5025C132.405 34.5324 132.321 34.5623 132.236 34.5922C132.221 34.5972 132.206 34.6022 132.186 34.6072C132.116 34.6321 132.052 34.657 131.982 34.6819C131.962 34.6919 131.937 34.6969 131.917 34.7069C131.852 34.7318 131.787 34.7567 131.723 34.7816C131.708 34.7866 131.688 34.7966 131.673 34.8016C131.513 34.8713 131.354 34.9411 131.199 35.0109C131.184 35.0159 131.169 35.0258 131.154 35.0308C131.095 35.0607 131.03 35.0906 130.97 35.1205C130.955 35.1305 130.935 35.1355 130.92 35.1454C130.855 35.1803 130.791 35.2102 130.731 35.2451C130.721 35.2501 130.711 35.2551 130.701 35.2601C130.551 35.3398 130.407 35.4245 130.267 35.5093C130.257 35.5142 130.242 35.5242 130.232 35.5292C130.173 35.5641 130.118 35.6039 130.058 35.6388C130.048 35.6488 130.033 35.6538 130.023 35.6637C129.819 35.7983 129.619 35.9329 129.435 36.0774C129.425 36.0824 129.42 36.0874 129.41 36.0973C129.355 36.1422 129.296 36.1821 129.241 36.2269C129.236 36.2319 129.231 36.2369 129.226 36.2419C129.041 36.3864 128.862 36.5359 128.692 36.6904C128.687 36.6954 128.688 36.6954 128.683 36.7004C128.458 36.9047 128.244 37.114 128.05 37.3234C127.133 38.3052 126.539 39.3069 126.23 40.0395C125.897 40.827 125.348 41.5596 124.785 42.2324C124.785 42.2324 124.785 42.2324 124.785 42.2374C124.466 42.6162 124.142 42.97 123.848 43.3039C123.818 43.3388 123.783 43.3737 123.754 43.4086C123.734 43.4285 123.714 43.4534 123.699 43.4734C123.664 43.5132 123.634 43.5481 123.599 43.588C123.584 43.6079 123.564 43.6279 123.549 43.6428C123.509 43.6877 123.469 43.7325 123.435 43.7824C123.425 43.7923 123.42 43.8023 123.41 43.8123C123.365 43.8671 123.32 43.9219 123.28 43.9767C123.27 43.9867 123.265 43.9967 123.255 44.0066C123.22 44.0515 123.19 44.0914 123.16 44.1312C123.15 44.1462 123.141 44.1611 123.131 44.1761C123.101 44.216 123.076 44.2508 123.051 44.2907C123.041 44.3057 123.031 44.3156 123.021 44.3306C122.991 44.3804 122.961 44.4253 122.931 44.4701L122.926 44.4751C122.896 44.525 122.871 44.5698 122.846 44.6196C122.841 44.6296 122.837 44.6396 122.832 44.6545C122.812 44.6894 122.797 44.7243 122.782 44.7592C122.777 44.7741 122.772 44.7891 122.767 44.7991C122.752 44.8339 122.742 44.8638 122.732 44.8938C122.727 44.9087 122.722 44.9187 122.722 44.9336C122.712 44.9785 122.702 45.0183 122.692 45.0632C122.687 45.0981 122.682 45.133 122.682 45.1679C122.682 45.1778 122.682 45.1878 122.682 45.1978C122.682 45.2227 122.682 45.2476 122.682 45.2725C122.682 45.2825 122.682 45.2974 122.682 45.3074C122.682 45.3323 122.682 45.3523 122.687 45.3772C122.687 45.3871 122.687 45.4021 122.692 45.4121C122.697 45.437 122.697 45.4619 122.702 45.4918C122.702 45.5018 122.702 45.5068 122.707 45.5167C122.712 45.5516 122.722 45.5865 122.727 45.6164C122.727 45.6214 122.732 45.6314 122.732 45.6363C122.737 45.6613 122.747 45.6912 122.752 45.7161C122.757 45.726 122.757 45.736 122.762 45.751C122.767 45.7709 122.777 45.7958 122.787 45.8158C122.792 45.8257 122.797 45.8407 122.802 45.8506C122.812 45.8706 122.822 45.8955 122.832 45.9154C122.837 45.9254 122.841 45.9354 122.846 45.9453C122.861 45.9752 122.876 46.0002 122.891 46.0301C122.891 46.035 122.896 46.035 122.896 46.04C122.911 46.0699 122.931 46.0998 122.951 46.1297C122.956 46.1397 122.961 46.1447 122.966 46.1547C122.981 46.1746 122.996 46.1945 123.011 46.2145C123.016 46.2244 123.026 46.2344 123.031 46.2444C123.046 46.2643 123.061 46.2792 123.076 46.2992C123.086 46.3092 123.091 46.3191 123.101 46.3291C123.116 46.349 123.136 46.369 123.15 46.3889C123.155 46.3939 123.165 46.4038 123.17 46.4088C123.195 46.4337 123.22 46.4587 123.245 46.4836C123.25 46.4886 123.255 46.4936 123.26 46.4936C123.28 46.5135 123.305 46.5334 123.33 46.5534C123.34 46.5633 123.35 46.5683 123.36 46.5783C123.38 46.5932 123.4 46.6082 123.42 46.6231C123.43 46.6331 123.44 46.6381 123.45 46.648C123.469 46.663 123.489 46.678 123.509 46.6879C123.519 46.6929 123.529 46.7029 123.539 46.7079C123.564 46.7228 123.589 46.7378 123.614 46.7527C123.619 46.7577 123.629 46.7627 123.634 46.7627C123.664 46.7826 123.699 46.7976 123.729 46.8125C123.739 46.8175 123.749 46.8225 123.759 46.8275C123.783 46.8374 123.803 46.8474 123.828 46.8574C123.843 46.8624 123.853 46.8673 123.868 46.8723C123.888 46.8823 123.913 46.8873 123.933 46.8972C123.948 46.9022 123.958 46.9072 123.973 46.9122C123.998 46.9222 124.018 46.9271 124.043 46.9321C124.053 46.9371 124.068 46.9371 124.077 46.9421C124.112 46.9521 124.147 46.962 124.187 46.967C124.192 46.967 124.197 46.967 124.207 46.972C124.237 46.977 124.267 46.982 124.302 46.9869C124.317 46.9869 124.332 46.9919 124.342 46.9919C124.367 46.9969 124.391 46.9969 124.411 47.0019C124.426 47.0019 124.441 47.0069 124.456 47.0069C124.481 47.0069 124.506 47.0119 124.526 47.0119C124.541 47.0119 124.556 47.0119 124.571 47.0119C124.586 47.0119 124.596 47.0119 124.611 47.0119C124.656 47.0119 124.7 47.0069 124.745 47.0069C124.76 47.0069 124.77 47.0069 124.785 47.0019C124.84 46.9969 124.895 46.9869 124.95 46.977C124.96 46.977 124.965 46.972 124.975 46.972C125.024 46.962 125.069 46.9521 125.119 46.9371C125.134 46.9321 125.149 46.9271 125.164 46.9222C125.219 46.9072 125.274 46.8873 125.333 46.8624C125.368 46.8474 125.403 46.8324 125.438 46.8125C125.448 46.8075 125.458 46.7976 125.473 46.7926C125.498 46.7776 125.528 46.7577 125.553 46.7427C125.563 46.7328 125.578 46.7278 125.588 46.7178C125.622 46.6929 125.657 46.663 125.697 46.6381C125.712 46.6231 125.727 46.6132 125.747 46.5982C125.772 46.5783 125.792 46.5583 125.817 46.5384C125.837 46.5185 125.857 46.5035 125.882 46.4836C125.902 46.4686 125.921 46.4487 125.936 46.4288C125.996 46.3739 126.051 46.3191 126.116 46.2543C127.123 45.2426 128.563 43.294 130.532 42.1875C130.541 42.1826 130.546 42.1776 130.556 42.1726C130.636 42.1277 130.721 42.0829 130.806 42.043C130.821 42.033 130.841 42.0281 130.855 42.0181C130.93 41.9782 131.01 41.9433 131.09 41.9085C131.115 41.8985 131.14 41.8835 131.169 41.8736C131.239 41.8437 131.314 41.8138 131.384 41.7839C131.419 41.7689 131.454 41.7589 131.488 41.744C131.553 41.7191 131.618 41.6942 131.688 41.6742C131.733 41.6593 131.782 41.6443 131.827 41.6294C131.887 41.6094 131.947 41.5945 132.002 41.5745C132.062 41.5596 132.121 41.5446 132.181 41.5297C132.231 41.5197 132.276 41.5048 132.326 41.4948C132.425 41.4749 132.52 41.4549 132.62 41.44C132.635 41.44 132.645 41.435 132.66 41.435C132.834 41.4101 132.998 41.3901 133.163 41.3752C133.173 41.3752 133.183 41.3752 133.193 41.3702C133.263 41.3652 133.327 41.3602 133.392 41.3602C133.412 41.3602 133.427 41.3553 133.447 41.3553C133.507 41.3503 133.567 41.3503 133.626 41.3503C133.646 41.3503 133.671 41.3503 133.691 41.3503C133.696 41.3503 133.696 41.3503 133.701 41.3503C133.856 41.3503 134 41.3553 134.145 41.3702C134.155 41.3702 134.17 41.3752 134.18 41.3752C134.239 41.3802 134.299 41.3852 134.354 41.3951C134.374 41.3951 134.389 41.4001 134.409 41.4051C134.459 41.4101 134.509 41.42 134.553 41.43C134.573 41.435 134.593 41.44 134.618 41.44C134.663 41.4499 134.708 41.4599 134.748 41.4699C134.768 41.4749 134.793 41.4798 134.813 41.4848C134.852 41.4948 134.892 41.5048 134.937 41.5197C134.957 41.5247 134.982 41.5347 135.002 41.5397C135.042 41.5496 135.082 41.5646 135.117 41.5795C135.137 41.5845 135.156 41.5945 135.176 41.6044C135.211 41.6194 135.251 41.6343 135.286 41.6493C135.306 41.6593 135.326 41.6642 135.346 41.6742C135.381 41.6892 135.416 41.7041 135.451 41.7241C135.47 41.734 135.485 41.744 135.505 41.754C135.54 41.7739 135.575 41.7888 135.605 41.8088C135.62 41.8187 135.64 41.8287 135.655 41.8387C135.69 41.8586 135.72 41.8786 135.755 41.8985C135.769 41.9085 135.784 41.9184 135.799 41.9284C135.834 41.9533 135.864 41.9732 135.894 41.9982C135.909 42.0081 135.919 42.0181 135.934 42.0281C135.969 42.053 135.999 42.0829 136.034 42.1078C136.044 42.1178 136.054 42.1228 136.064 42.1327C136.098 42.1626 136.133 42.1975 136.168 42.2324C136.173 42.2374 136.178 42.2424 136.183 42.2474C136.303 42.367 136.407 42.4965 136.502 42.6361C136.532 42.6809 136.562 42.7258 136.587 42.7756C136.592 42.7856 136.597 42.7906 136.602 42.8006C136.627 42.8404 136.647 42.8803 136.672 42.9251C136.677 42.9351 136.682 42.9501 136.687 42.96C136.706 42.9999 136.726 43.0398 136.741 43.0796C136.746 43.0946 136.751 43.1096 136.761 43.1195C136.776 43.1594 136.796 43.1993 136.811 43.2391C136.816 43.2541 136.821 43.269 136.826 43.284C136.841 43.3239 136.856 43.3637 136.866 43.4036C136.871 43.4185 136.876 43.4385 136.881 43.4534C136.891 43.4933 136.906 43.5332 136.916 43.573C136.921 43.588 136.926 43.6079 136.931 43.6229C136.941 43.6628 136.951 43.7076 136.961 43.7475C136.966 43.7624 136.971 43.7824 136.971 43.7973C136.981 43.8422 136.986 43.882 136.996 43.9269C137 43.9418 137 43.9618 137.005 43.9767C137.01 44.0216 137.02 44.0664 137.025 44.1163C137.025 44.1312 137.03 44.1512 137.03 44.1661C137.035 44.216 137.04 44.2658 137.045 44.3156C137.045 44.3306 137.05 44.3455 137.05 44.3605C137.055 44.4153 137.055 44.4701 137.06 44.525C137.06 44.5349 137.06 44.5449 137.06 44.5549C137.065 44.6196 137.065 44.6844 137.065 44.7492V44.7542C137.065 44.9585 137.055 45.1728 137.035 45.3921C137.035 45.3971 137.035 45.4021 137.035 45.4071C137.03 45.4719 137.02 45.5367 137.01 45.6064C137.01 45.6214 137.005 45.6363 137.005 45.6513C136.995 45.7111 136.991 45.7659 136.981 45.8257C136.976 45.8457 136.976 45.8656 136.971 45.8855C136.961 45.9404 136.951 45.9952 136.941 46.05C136.936 46.0749 136.931 46.0948 136.926 46.1198C136.916 46.1696 136.906 46.2244 136.896 46.2792C136.891 46.3042 136.886 46.3291 136.881 46.354C136.871 46.4038 136.856 46.4587 136.846 46.5085C136.841 46.5334 136.831 46.5633 136.826 46.5882C136.811 46.6381 136.801 46.6929 136.786 46.7427C136.781 46.7677 136.771 46.7976 136.766 46.8225C136.751 46.8723 136.736 46.9271 136.721 46.977C136.711 47.0069 136.706 47.0318 136.696 47.0617C136.682 47.1115 136.667 47.1664 136.647 47.2162C136.637 47.2461 136.627 47.271 136.622 47.3009C136.607 47.3557 136.587 47.4056 136.567 47.4604C136.557 47.4903 136.547 47.5152 136.537 47.5451C136.517 47.6 136.497 47.6548 136.477 47.7096C136.467 47.7345 136.457 47.7644 136.447 47.7893C136.427 47.8491 136.402 47.904 136.378 47.9638C136.368 47.9887 136.358 48.0086 136.353 48.0335C136.328 48.0983 136.298 48.1681 136.268 48.2329C136.263 48.2478 136.258 48.2628 136.248 48.2778C136.178 48.4422 136.103 48.6117 136.019 48.7811C136.014 48.7911 136.009 48.806 136.004 48.816C135.969 48.8858 135.934 48.9605 135.899 49.0303C135.889 49.0552 135.874 49.0801 135.859 49.1051C135.829 49.1649 135.799 49.2247 135.769 49.2845C135.755 49.3144 135.74 49.3443 135.725 49.3742C135.695 49.429 135.665 49.4838 135.635 49.5387C135.615 49.5735 135.6 49.6034 135.58 49.6383C135.55 49.6882 135.52 49.743 135.495 49.7928C135.475 49.8277 135.456 49.8626 135.436 49.8925C135.406 49.9423 135.376 49.9922 135.346 50.042C135.326 50.0769 135.306 50.1118 135.281 50.1467C135.251 50.1965 135.221 50.2464 135.191 50.2962C135.171 50.3311 135.147 50.366 135.127 50.4009C135.097 50.4507 135.062 50.5005 135.032 50.5504C135.007 50.5853 134.987 50.6201 134.962 50.655C134.927 50.7049 134.897 50.7547 134.862 50.8045C134.838 50.8394 134.818 50.8743 134.793 50.9092C134.758 50.959 134.723 51.0089 134.688 51.0587C134.663 51.0936 134.638 51.1285 134.618 51.1634C134.583 51.2132 134.543 51.263 134.509 51.3179C134.484 51.3528 134.459 51.3827 134.439 51.4175C134.399 51.4724 134.359 51.5222 134.319 51.577C134.294 51.6069 134.274 51.6368 134.249 51.6717C134.205 51.7265 134.165 51.7863 134.12 51.8412C134.1 51.8661 134.08 51.896 134.06 51.9209C134.01 51.9857 133.955 52.0555 133.901 52.1203C133.886 52.1352 133.876 52.1552 133.861 52.1701C133.791 52.2548 133.721 52.3396 133.651 52.4243C128.658 58.3799 125.249 61.0811 123.355 63.1993C121.999 64.7143 121.939 67.0019 123.16 68.4771C123.215 68.5419 123.27 68.6017 123.325 68.6615C123.34 68.6765 123.36 68.6964 123.375 68.7113C123.415 68.7562 123.459 68.7961 123.504 68.8359C123.524 68.8559 123.544 68.8708 123.564 68.8908C123.609 68.9306 123.654 68.9705 123.704 69.0054C123.724 69.0203 123.744 69.0353 123.764 69.0502C123.833 69.1001 123.903 69.1499 123.973 69.1998C124.197 69.3493 124.431 69.4689 124.671 69.5536C124.695 69.5636 124.725 69.5735 124.755 69.5785C124.765 69.5785 124.775 69.5835 124.785 69.5835C124.805 69.5885 124.83 69.5935 124.85 69.5935C124.86 69.5935 124.875 69.5985 124.89 69.5985C124.91 69.5985 124.935 69.6034 124.96 69.6034C124.975 69.6034 124.99 69.6034 124.999 69.6034C125.024 69.6034 125.049 69.6034 125.074 69.6034C125.089 69.6034 125.109 69.6034 125.124 69.6034C125.149 69.6034 125.179 69.6034 125.204 69.5985C125.219 69.5985 125.239 69.5935 125.254 69.5935C125.284 69.5885 125.313 69.5885 125.343 69.5835C125.358 69.5835 125.373 69.5785 125.393 69.5785C125.428 69.5735 125.463 69.5686 125.498 69.5636C125.513 69.5636 125.528 69.5586 125.543 69.5536C125.583 69.5486 125.622 69.5387 125.662 69.5337C125.677 69.5287 125.687 69.5287 125.702 69.5237C125.747 69.5137 125.792 69.5038 125.837 69.4938C125.847 69.4888 125.857 69.4888 125.872 69.4838C125.921 69.4739 125.971 69.4589 126.026 69.444C126.036 69.444 126.041 69.439 126.051 69.439C126.111 69.424 126.166 69.4091 126.23 69.3891C126.235 69.3891 126.235 69.3891 126.24 69.3842C126.569 69.2944 126.933 69.1699 127.337 69.0253C131.299 67.595 138.67 63.7475 145.921 60.807C154.653 57.2635 166.574 52.5788 168.324 51.8312C168.398 51.7963 168.473 51.7664 168.548 51.7315C168.553 51.7265 168.558 51.7265 168.563 51.7216C168.613 51.6966 168.663 51.6767 168.712 51.6518C168.742 51.6368 168.772 51.6219 168.802 51.6119C168.847 51.592 168.887 51.572 168.927 51.5521C168.962 51.5372 168.996 51.5172 169.026 51.5023C169.066 51.4823 169.101 51.4624 169.136 51.4475C169.171 51.4275 169.206 51.4126 169.236 51.3926C169.271 51.3727 169.301 51.3577 169.335 51.3378C169.37 51.3179 169.4 51.3029 169.435 51.283C169.465 51.268 169.495 51.2481 169.525 51.2331C169.555 51.2132 169.59 51.1933 169.619 51.1783C169.644 51.1634 169.674 51.1484 169.699 51.1285C169.729 51.1086 169.759 51.0886 169.789 51.0687C169.814 51.0537 169.834 51.0388 169.859 51.0238C169.889 51.0039 169.918 50.984 169.943 50.964C169.963 50.9491 169.983 50.9391 169.998 50.9242C170.028 50.8992 170.058 50.8793 170.088 50.8544C170.103 50.8444 170.113 50.8344 170.128 50.8245C170.168 50.7896 170.208 50.7597 170.242 50.7298C170.247 50.7248 170.247 50.7248 170.252 50.7198C170.282 50.6899 170.312 50.665 170.337 50.6351C170.347 50.6251 170.357 50.6152 170.362 50.6052C170.382 50.5853 170.397 50.5653 170.417 50.5454C170.427 50.5354 170.432 50.5205 170.442 50.5105C170.457 50.4906 170.467 50.4756 170.482 50.4557C170.492 50.4457 170.497 50.4308 170.502 50.4208C170.512 50.4058 170.522 50.3859 170.527 50.371C170.532 50.361 170.536 50.346 170.541 50.3361C170.546 50.3211 170.551 50.3062 170.556 50.2912C170.561 50.2812 170.561 50.2713 170.566 50.2563C170.571 50.2414 170.571 50.2264 170.571 50.2115C170.571 50.2015 170.571 50.1915 170.571 50.1816C170.571 50.1666 170.566 50.1517 170.566 50.1367C170.566 50.1267 170.561 50.1168 170.561 50.1068C170.556 50.0919 170.551 50.0769 170.546 50.0669C170.541 50.057 170.541 50.052 170.536 50.042C170.527 50.0271 170.517 50.0121 170.507 49.9972C170.502 49.9922 170.497 49.9822 170.492 49.9772C170.472 49.9573 170.452 49.9374 170.427 49.9174C170.422 49.9124 170.412 49.9075 170.407 49.9025C170.387 49.8875 170.367 49.8726 170.342 49.8626C170.332 49.8576 170.317 49.8526 170.302 49.8427C170.282 49.8327 170.262 49.8227 170.237 49.8128C170.223 49.8078 170.203 49.8028 170.188 49.7928C170.163 49.7829 170.143 49.7779 170.118 49.7679C170.098 49.7629 170.078 49.7579 170.058 49.753C170.033 49.748 170.008 49.738 169.978 49.733C169.958 49.728 169.933 49.7231 169.909 49.7181C169.879 49.7131 169.849 49.7081 169.819 49.7031C169.794 49.6981 169.769 49.6932 169.739 49.6882C169.709 49.6832 169.674 49.6782 169.639 49.6732C169.61 49.6682 169.585 49.6682 169.55 49.6633C169.515 49.6583 169.48 49.6583 169.44 49.6533C169.41 49.6483 169.375 49.6483 169.345 49.6483C169.305 49.6483 169.266 49.6433 169.221 49.6433C169.186 49.6433 169.156 49.6383 169.121 49.6383C169.076 49.6383 169.026 49.6383 168.982 49.6383C168.947 49.6383 168.912 49.6383 168.877 49.6383C168.802 49.6383 168.722 49.6383 168.643 49.6433C168.613 49.6433 168.578 49.6433 168.548 49.6483C168.493 49.6483 168.433 49.6533 168.374 49.6533C168.339 49.6533 168.304 49.6583 168.269 49.6583C168.194 49.6633 168.119 49.6682 168.045 49.6732C168.025 49.6732 168.01 49.6732 167.99 49.6782C167.432 49.7181 164.815 50.1816 161.446 50.9092C161.431 50.9142 161.421 50.9142 161.406 50.9192C161.316 50.9391 161.227 50.959 161.132 50.979C161.112 50.984 161.092 50.9889 161.072 50.9939C160.983 51.0139 160.893 51.0338 160.808 51.0537C160.788 51.0587 160.773 51.0637 160.753 51.0637C160.649 51.0886 160.544 51.1086 160.439 51.1335C160.434 51.1335 160.434 51.1335 160.429 51.1335C160.325 51.1584 160.215 51.1833 160.11 51.2032C160.08 51.2082 160.051 51.2182 160.016 51.2232C159.941 51.2381 159.866 51.2581 159.791 51.273C159.752 51.283 159.712 51.293 159.672 51.2979C159.607 51.3129 159.537 51.3278 159.472 51.3428C159.428 51.3528 159.378 51.3627 159.333 51.3727C159.273 51.3876 159.213 51.4026 159.149 51.4126C159.099 51.4225 159.049 51.4375 158.999 51.4475C158.944 51.4624 158.884 51.4724 158.83 51.4873C158.725 51.5122 158.62 51.5372 158.516 51.5621C158.471 51.572 158.421 51.582 158.376 51.597C158.311 51.6119 158.246 51.6269 158.182 51.6418C158.137 51.6518 158.097 51.6618 158.052 51.6717C157.982 51.6867 157.918 51.7016 157.848 51.7216C157.808 51.7315 157.768 51.7415 157.728 51.7515C157.658 51.7664 157.584 51.7864 157.514 51.8013C157.484 51.8113 157.449 51.8163 157.419 51.8262C157.339 51.8462 157.26 51.8661 157.18 51.886C157.175 51.886 157.17 51.886 157.17 51.891C156.881 51.9608 156.597 52.0306 156.308 52.1053C156.293 52.1103 156.278 52.1153 156.258 52.1153C156.173 52.1352 156.083 52.1601 155.999 52.1801C155.979 52.1851 155.959 52.19 155.939 52.195C155.849 52.2199 155.76 52.2399 155.675 52.2648C155.665 52.2648 155.655 52.2698 155.645 52.2698C155.147 52.3994 154.643 52.5289 154.145 52.6635C154.14 52.6635 154.14 52.6635 154.135 52.6635C153.935 52.7183 153.731 52.7731 153.532 52.828C152.211 53.1868 150.915 53.5656 149.699 53.9593C141.541 56.5857 130.756 61.2057 130.756 61.2057C130.756 61.2057 135.944 56.0525 137.922 53.132C138.486 52.3047 139.014 51.5322 139.502 50.7946C139.507 50.7846 139.512 50.7796 139.517 50.7697C139.602 50.6451 139.682 50.5254 139.762 50.4009C139.781 50.3709 139.801 50.346 139.816 50.3161C139.886 50.2065 139.956 50.1018 140.026 49.9972C140.051 49.9573 140.075 49.9174 140.1 49.8776C140.16 49.7829 140.225 49.6882 140.285 49.5885C140.315 49.5387 140.345 49.4938 140.375 49.444C140.429 49.3543 140.484 49.2695 140.539 49.1798C140.574 49.125 140.604 49.0752 140.639 49.0203C140.688 48.9406 140.738 48.8559 140.788 48.7761C140.823 48.7163 140.858 48.6615 140.893 48.6017C140.938 48.5269 140.983 48.4522 141.027 48.3724C141.062 48.3126 141.097 48.2479 141.132 48.188C141.172 48.1133 141.212 48.0435 141.257 47.9688C141.292 47.904 141.326 47.8442 141.361 47.7794C141.401 47.7096 141.436 47.6398 141.476 47.5701C141.511 47.5053 141.546 47.4405 141.581 47.3757C141.615 47.3109 141.65 47.2411 141.685 47.1763C141.72 47.1066 141.755 47.0418 141.79 46.972C141.82 46.9072 141.855 46.8424 141.885 46.7776C141.919 46.7079 141.954 46.6381 141.984 46.5683C142.014 46.5035 142.039 46.4437 142.069 46.3789C142.099 46.3091 142.134 46.2344 142.164 46.1646C142.189 46.1048 142.214 46.04 142.238 45.9802C142.268 45.9055 142.298 45.8357 142.328 45.7609C142.353 45.7011 142.373 45.6413 142.398 45.5815C142.428 45.5068 142.458 45.432 142.483 45.3572C142.503 45.2974 142.523 45.2376 142.547 45.1778C142.572 45.1031 142.602 45.0233 142.627 44.9486C142.647 44.8888 142.662 44.829 142.682 44.7692C142.707 44.6894 142.732 44.6147 142.757 44.5349C142.772 44.4751 142.787 44.4153 142.807 44.3555C142.827 44.2758 142.851 44.196 142.871 44.1163C142.886 44.0565 142.901 43.9967 142.916 43.9369C142.936 43.8571 142.956 43.7774 142.971 43.6927C142.986 43.6328 142.996 43.573 143.006 43.5132C143.021 43.4285 143.041 43.3488 143.056 43.264C143.066 43.2042 143.076 43.1444 143.086 43.0796C143.101 42.9949 143.116 42.9102 143.126 42.8255C143.136 42.7657 143.141 42.7009 143.15 42.6411C143.16 42.5563 143.175 42.4666 143.18 42.3819C143.185 42.3221 143.19 42.2573 143.195 42.1925C143.205 42.1028 143.21 42.0131 143.22 41.9234C143.225 41.8586 143.225 41.7938 143.23 41.734C143.235 41.6443 143.24 41.5496 143.245 41.4599C143.245 41.3951 143.245 41.3303 143.25 41.2655C143.25 41.1709 143.255 41.0811 143.255 40.9865C143.255 40.9217 143.25 40.8519 143.25 40.7821C143.25 40.6874 143.25 40.5927 143.245 40.498C143.245 40.4332 143.24 40.3685 143.235 40.3037C143.23 40.204 143.225 40.0993 143.22 39.9997C143.215 39.9498 143.21 39.895 143.205 39.8452C143.185 39.5561 143.155 39.2621 143.116 38.958C143.106 38.8634 143.091 38.7736 143.076 38.6839C143.076 38.669 143.071 38.654 143.066 38.6391C143.051 38.5643 143.036 38.4896 143.021 38.4148C143.016 38.3849 143.006 38.355 143.001 38.3251C142.986 38.2653 142.976 38.2105 142.956 38.1556C142.946 38.1158 142.936 38.0809 142.921 38.046C142.906 37.9962 142.891 37.9463 142.876 37.9015C142.861 37.8616 142.846 37.8217 142.837 37.7819C142.822 37.737 142.807 37.6922 142.792 37.6523C142.777 37.6074 142.757 37.5676 142.742 37.5277C142.727 37.4878 142.712 37.4479 142.692 37.4081C142.672 37.3632 142.652 37.3234 142.632 37.2785C142.617 37.2436 142.597 37.2037 142.582 37.1689C142.562 37.124 142.537 37.0841 142.513 37.0393C142.493 37.0044 142.478 36.9695 142.458 36.9396C142.433 36.8947 142.408 36.8499 142.378 36.81C142.358 36.7801 142.343 36.7452 142.323 36.7153C142.293 36.6705 142.268 36.6306 142.238 36.5858C142.219 36.5558 142.199 36.5259 142.179 36.496C142.149 36.4512 142.114 36.4113 142.084 36.3665C142.064 36.3366 142.044 36.3116 142.019 36.2817C141.984 36.2419 141.949 36.197 141.915 36.1571C141.895 36.1322 141.87 36.1023 141.85 36.0774C141.815 36.0375 141.775 35.9977 141.74 35.9578C141.715 35.9329 141.695 35.908 141.67 35.883C141.645 35.8432 141.606 35.8033 141.566 35.7684Z" fill="white"/>
<path d="M132.165 51.7018C132.26 51.5922 132.35 51.4825 132.445 51.3729C132.579 51.2084 132.714 51.044 132.843 50.8795C132.823 50.7998 132.808 50.72 132.788 50.6403C132.769 50.5456 132.744 50.4509 132.724 50.3562C132.699 50.2515 132.674 50.1469 132.649 50.0472C132.629 49.9675 132.609 49.8877 132.594 49.808C132.569 49.6983 132.544 49.5937 132.514 49.484C132.499 49.4192 132.484 49.3594 132.47 49.2946C132.415 49.0803 132.365 48.866 132.31 48.6567C132.295 48.6019 132.285 48.5521 132.27 48.4972C132.24 48.3776 132.21 48.263 132.175 48.1434C132.161 48.0936 132.151 48.0387 132.136 47.9889C132.026 47.5802 131.916 47.1765 131.802 46.7828C131.797 46.7629 131.792 46.7429 131.787 46.723C131.747 46.5934 131.712 46.4639 131.672 46.3343C131.667 46.3094 131.657 46.2844 131.652 46.2595C131.528 45.8508 131.403 45.4472 131.278 45.0584C131.278 45.0534 131.273 45.0485 131.273 45.0435C131.229 44.9139 131.189 44.7843 131.144 44.6547C131.139 44.6448 131.139 44.6348 131.134 44.6298C131.044 44.3707 130.954 44.1115 130.865 43.8623C129.788 44.585 128.866 45.6166 128.114 46.4539C127.501 47.1367 127.017 47.6749 126.504 48.0337C126.663 48.9358 126.798 49.9126 126.913 50.9443C126.913 50.9443 126.913 50.9443 126.913 50.9493C126.933 51.1137 126.947 51.2782 126.962 51.4427C126.962 51.4576 126.967 51.4776 126.967 51.4925C126.982 51.647 126.997 51.8015 127.012 51.956C127.012 51.971 127.012 51.9809 127.017 51.9959C128.188 51.9261 129.395 51.8563 130.63 51.7866C131.139 51.7566 131.652 51.7267 132.165 51.7018Z" fill="white"/>
<path d="M139.254 54.0199C138.666 54.887 137.829 55.9237 136.922 56.9653C140.296 55.6246 144.437 54.0398 148.155 52.7988C145.564 52.8138 142.838 52.8636 139.972 52.9533C139.902 53.053 139.832 53.1577 139.763 53.2623C139.598 53.5065 139.429 53.7607 139.254 54.0199Z" fill="white"/>
<path d="M154.767 86.6535C150.177 83.0253 142.926 78.4402 136.85 77.9069H136.626C136.506 76.342 136.177 72.4297 135.599 67.6104C135.021 67.71 134.448 67.8147 133.87 67.9194C130.969 69.255 128.851 70.187 127.291 70.7003C127.247 72.0908 127.192 73.3617 127.142 74.4631C127.142 74.483 127.142 74.5079 127.137 74.5279C127.132 74.5927 127.132 74.6624 127.127 74.7272C127.127 74.7571 127.122 74.787 127.122 74.8169C127.117 74.8718 127.117 74.9216 127.112 74.9764C127.112 75.0113 127.107 75.0512 127.107 75.0861C127.107 75.1259 127.102 75.1658 127.102 75.2057C127.102 75.2505 127.097 75.3004 127.097 75.3452C127.097 75.3502 127.097 75.3502 127.097 75.3552C127.042 76.4765 126.987 77.3587 126.952 77.9268C115.435 78.3554 103.588 80.7327 92.335 85.1384C91.109 85.6218 89.8879 86.1252 88.6719 86.6535H154.767Z" fill="white"/>
<path d="M79.7277 82.9857C79.7127 82.6418 79.628 82.283 79.4835 81.9192C79.3938 81.6899 79.2791 81.4557 79.1496 81.2264C79.1446 81.2115 79.1396 81.2015 79.1346 81.1865C79.0798 81.0669 79.025 80.9473 78.9701 80.8277C78.9452 80.7729 78.9203 80.7131 78.8954 80.6583C78.8655 80.5835 78.8306 80.5137 78.8007 80.439C78.7708 80.3692 78.7409 80.2994 78.711 80.2297C78.6861 80.1748 78.6661 80.12 78.6412 80.0652C78.6063 79.9854 78.5764 79.9007 78.5415 79.821C78.5266 79.7861 78.5166 79.7562 78.5017 79.7213C76.877 75.6446 76.4583 71.8369 76.239 66.878C77.3903 66.4245 79.0499 66.0109 78.9552 64.0373C78.9004 62.886 77.7192 61.8145 75.9101 61.5105C75.8403 60.4489 75.7955 59.1831 75.7705 57.7976C75.7705 57.7876 75.7705 57.7826 75.7705 57.7726C75.7656 57.6331 75.7656 57.4886 75.7656 57.349C75.7656 57.3241 75.7656 57.2992 75.7656 57.2693C75.7656 57.1297 75.7606 56.9952 75.7606 56.8556C75.7606 56.8457 75.7606 56.8357 75.7606 56.8207C75.7606 56.6712 75.7556 56.5217 75.7556 56.3672C75.7556 56.3423 75.7556 56.3174 75.7556 56.2924C75.7506 55.9835 75.7506 55.6745 75.7506 55.3605C75.7506 55.3356 75.7506 55.3106 75.7506 55.2907C75.7506 55.1312 75.7506 54.9717 75.7506 54.8123C75.7506 54.8023 75.7506 54.7973 75.7506 54.7873C75.7506 54.6279 75.7506 54.4734 75.7506 54.3139C75.7506 54.2989 75.7506 54.284 75.7506 54.269C75.7506 54.1046 75.7506 53.9401 75.7506 53.7756C75.7506 53.7607 75.7506 53.7457 75.7506 53.7308C75.7506 53.3969 75.7506 53.0629 75.7556 52.729C75.7556 52.7091 75.7556 52.6941 75.7556 52.6742C75.7556 52.3403 75.7606 52.0014 75.7606 51.6625C75.7606 51.6475 75.7606 51.6326 75.7606 51.6176C75.7905 48.0742 75.8652 44.5257 75.8902 41.974C75.9201 39.2379 76.2041 36.2177 76.6228 33.2075C77.181 29.2154 77.9784 25.2483 78.7509 22.0039C78.8854 21.4407 79.02 20.8975 79.1496 20.3792C79.1894 20.2297 79.2243 20.0801 79.2592 19.9256C79.8722 17.1845 79.8672 13.7756 76.9567 13.5713C76.9318 13.5713 76.9019 13.5713 76.872 13.5713C76.852 13.5713 76.8321 13.5713 76.8122 13.5763C76.7922 13.5813 76.7673 13.5862 76.7424 13.5912C76.7225 13.5962 76.6975 13.6012 76.6726 13.6062C76.6477 13.6112 76.6228 13.6211 76.5979 13.6311C76.5729 13.6411 76.548 13.646 76.5231 13.656C76.4982 13.666 76.4683 13.676 76.4434 13.6909C76.4135 13.7009 76.3885 13.7158 76.3586 13.7258C76.3287 13.7407 76.3038 13.7557 76.2739 13.7706C76.244 13.7856 76.2141 13.8005 76.1792 13.8205C76.1493 13.8354 76.1194 13.8554 76.0895 13.8703C76.0546 13.8903 76.0247 13.9102 75.9898 13.9301C75.9599 13.9501 75.93 13.97 75.8951 13.9899C75.8603 14.0148 75.8204 14.0348 75.7805 14.0647C75.7506 14.0846 75.7157 14.1095 75.6858 14.1295C75.646 14.1594 75.6061 14.1843 75.5612 14.2142C75.5313 14.2341 75.4964 14.2591 75.4665 14.284C75.4217 14.3189 75.3768 14.3488 75.332 14.3836C75.3021 14.4086 75.2722 14.4335 75.2373 14.4534C75.1874 14.4933 75.1376 14.5282 75.0878 14.568C75.0579 14.593 75.028 14.6179 74.9981 14.6428C74.9432 14.6877 74.8884 14.7275 74.8336 14.7724C74.8037 14.7973 74.7738 14.8222 74.7439 14.8471C74.6841 14.897 74.6243 14.9468 74.5645 14.9967C74.5395 15.0216 74.5096 15.0415 74.4847 15.0664C74.4199 15.1213 74.3551 15.1761 74.2904 15.2359C74.2654 15.2558 74.2405 15.2807 74.2156 15.3057C74.1458 15.3655 74.0761 15.4302 74.0063 15.4901C73.9814 15.51 73.9614 15.5299 73.9365 15.5499C73.8618 15.6196 73.787 15.6894 73.7073 15.7592C73.6873 15.7791 73.6674 15.7941 73.6474 15.814C73.5677 15.8888 73.483 15.9685 73.3983 16.0482C73.3833 16.0632 73.3684 16.0781 73.3534 16.0931C73.2637 16.1778 73.174 16.2625 73.0843 16.3523C73.0743 16.3622 73.0643 16.3722 73.0544 16.3822C72.9597 16.4768 72.86 16.5715 72.7603 16.6662C72.7553 16.6712 72.7504 16.6762 72.7404 16.6862C67.7416 21.5553 59.7078 31.1043 53.8917 37.5185C51.3748 40.2944 48.7932 43.1751 46.2116 46.1056C42.2644 50.591 38.3272 55.186 34.6741 59.7064C34.6641 59.7064 34.6542 59.7064 34.6442 59.7064C34.5047 59.7113 34.3651 59.7113 34.2256 59.7113C34.2106 59.7113 34.1957 59.7113 34.1807 59.7113C34.1757 59.7113 34.1658 59.7113 34.1608 59.7113C34.0013 59.7113 33.8468 59.7113 33.6923 59.7064C33.6724 59.7064 33.6524 59.7064 33.6325 59.7064C33.478 59.7014 33.3235 59.6964 33.169 59.6914C33.1491 59.6914 33.1241 59.6914 33.1042 59.6914C32.9547 59.6864 32.8052 59.6814 32.6557 59.6715C32.6308 59.6715 32.6058 59.6665 32.5809 59.6665C32.4364 59.6565 32.2919 59.6515 32.1523 59.6416C32.1224 59.6416 32.0975 59.6366 32.0676 59.6366C31.933 59.6266 31.7935 59.6166 31.6589 59.6067C31.624 59.6067 31.5941 59.6017 31.5592 59.5967C31.4346 59.5867 31.3051 59.5768 31.1805 59.5668C31.1356 59.5618 31.0957 59.5618 31.0509 59.5568C30.9462 59.5469 30.8366 59.5369 30.7319 59.5269C30.6621 59.522 30.5924 59.517 30.5226 59.507C30.4728 59.502 30.4279 59.497 30.3781 59.492C29.6953 59.4322 29.0424 59.3675 28.4145 59.3176H28.4095C28.2699 59.3076 28.1354 59.2977 27.9958 59.2877C27.9908 59.2877 27.9858 59.2877 27.9759 59.2877C27.8413 59.2777 27.7117 59.2728 27.5822 59.2678C27.5722 59.2678 27.5672 59.2678 27.5572 59.2678C27.4326 59.2628 27.3031 59.2578 27.1785 59.2528C27.1685 59.2528 27.1585 59.2528 27.1486 59.2528C27.024 59.2478 26.9044 59.2478 26.7848 59.2478C26.7698 59.2478 26.7499 59.2478 26.7349 59.2478C26.7 59.2478 26.6651 59.2478 26.6352 59.2478C26.6053 59.2478 26.5804 59.2478 26.5505 59.2478C26.5206 59.2478 26.4857 59.2478 26.4558 59.2478C26.4259 59.2478 26.396 59.2478 26.3711 59.2478C26.3412 59.2478 26.3113 59.2478 26.2814 59.2528C26.2515 59.2528 26.2216 59.2578 26.1917 59.2578C26.1618 59.2578 26.1319 59.2628 26.107 59.2628C26.0771 59.2628 26.0422 59.2678 26.0123 59.2678C25.9873 59.2678 25.9574 59.2728 25.9325 59.2728C25.8976 59.2777 25.8627 59.2777 25.8279 59.2827C25.8029 59.2827 25.783 59.2877 25.7581 59.2877C25.7083 59.2927 25.6584 59.2977 25.6136 59.3027C25.6036 59.3027 25.5986 59.3027 25.5886 59.3076C25.5338 59.3126 25.474 59.3226 25.4192 59.3276C25.4042 59.3276 25.3893 59.3326 25.3793 59.3326C25.3395 59.3376 25.2946 59.3425 25.2547 59.3525C25.2348 59.3575 25.2198 59.3575 25.1999 59.3625C25.165 59.3675 25.1251 59.3724 25.0903 59.3824C25.0703 59.3874 25.0504 59.3924 25.0305 59.3924C24.9956 59.3974 24.9607 59.4073 24.9258 59.4123C24.9059 59.4173 24.8859 59.4223 24.866 59.4273C24.8311 59.4322 24.8012 59.4422 24.7663 59.4472C24.7464 59.4522 24.7264 59.4572 24.7065 59.4621C24.6716 59.4721 24.6417 59.4771 24.6068 59.4871C24.5869 59.492 24.567 59.497 24.547 59.502C24.5121 59.512 24.4822 59.522 24.4473 59.5319C24.4274 59.5369 24.4075 59.5419 24.3875 59.5519C24.3527 59.5618 24.3228 59.5718 24.2879 59.5818C24.2679 59.5867 24.248 59.5917 24.233 59.6017C24.1982 59.6117 24.1683 59.6266 24.1334 59.6366C24.1184 59.6416 24.0985 59.6465 24.0835 59.6565C24.0486 59.6715 24.0138 59.6864 23.9739 59.6964C23.9589 59.7014 23.944 59.7064 23.934 59.7113C23.8892 59.7313 23.8493 59.7462 23.8044 59.7662C23.7995 59.7711 23.7945 59.7711 23.7845 59.7761C23.7347 59.7961 23.6848 59.821 23.635 59.8459C23.63 59.8459 23.63 59.8509 23.625 59.8509C23.5802 59.8708 23.5353 59.8957 23.4905 59.9207C23.4755 59.9256 23.4655 59.9356 23.4506 59.9456C23.4157 59.9655 23.3858 59.9805 23.3509 60.0004C23.336 60.0104 23.316 60.0203 23.3011 60.0303C23.2712 60.0502 23.2413 60.0652 23.2114 60.0851C23.1914 60.0951 23.1765 60.11 23.1565 60.12C23.1316 60.1399 23.1017 60.1549 23.0768 60.1748C23.0569 60.1898 23.0419 60.1997 23.022 60.2147C22.9971 60.2346 22.9721 60.2496 22.9472 60.2695C22.9273 60.2845 22.9123 60.2994 22.8924 60.3144C22.8675 60.3343 22.8426 60.3542 22.8176 60.3742C22.7977 60.3891 22.7828 60.4041 22.7628 60.419C22.7379 60.439 22.713 60.4589 22.6931 60.4788C22.6731 60.4938 22.6582 60.5087 22.6382 60.5287C22.6133 60.5486 22.5934 60.5735 22.5685 60.5935C22.5485 60.6084 22.5336 60.6284 22.5136 60.6433C22.4887 60.6682 22.4688 60.6882 22.4439 60.7131C22.4289 60.728 22.409 60.748 22.394 60.7629C22.3691 60.7878 22.3442 60.8128 22.3193 60.8427C22.3043 60.8576 22.2894 60.8775 22.2744 60.8925C22.2445 60.9274 22.2096 60.9623 22.1797 61.0021C22.1747 61.0121 22.1648 61.0171 22.1598 61.0271C21.7212 61.5504 21.1032 61.974 20.4404 62.3677C18.4618 63.5489 16.0795 64.4759 16.8072 67.0375C16.8072 67.0375 16.8072 67.0375 16.8072 67.0425C16.8221 67.1023 16.8421 67.1571 16.862 67.212C16.867 67.2219 16.867 67.2319 16.872 67.2419C16.8919 67.2967 16.9168 67.3465 16.9417 67.3964C16.9467 67.4063 16.9517 67.4163 16.9567 67.4263C16.9816 67.4761 17.0115 67.5259 17.0414 67.5708C17.0464 67.5808 17.0514 67.5857 17.0564 67.5957C17.0863 67.6406 17.1212 67.6904 17.1511 67.7353C17.156 67.7402 17.156 67.7402 17.156 67.7452C17.1909 67.7901 17.2308 67.8349 17.2707 67.8798C17.2806 67.8898 17.2856 67.8997 17.2956 67.9047C17.3355 67.9446 17.3753 67.9845 17.4152 68.0243C17.4252 68.0343 17.4351 68.0443 17.4451 68.0542C17.485 68.0941 17.5298 68.134 17.5747 68.1688C17.5847 68.1788 17.5946 68.1838 17.6046 68.1938C17.6494 68.2287 17.6893 68.2635 17.7392 68.2934C17.7491 68.2984 17.7541 68.3034 17.7641 68.3134C17.8139 68.3483 17.8637 68.3831 17.9136 68.4131C17.9285 68.423 17.9435 68.433 17.9584 68.443C18.0083 68.4729 18.0581 68.5028 18.1129 68.5327C18.1279 68.5426 18.1478 68.5526 18.1678 68.5626C18.2226 68.5925 18.2724 68.6174 18.3272 68.6473C18.3422 68.6573 18.3621 68.6623 18.3821 68.6722C18.4269 68.6922 18.4768 68.7171 18.5216 68.737C18.5415 68.747 18.5665 68.7569 18.5864 68.7669C18.6362 68.7868 18.6911 68.8118 18.7459 68.8317C18.7708 68.8417 18.7957 68.8516 18.8206 68.8616C18.8755 68.8815 18.9303 68.9015 18.9901 68.9214C19.02 68.9314 19.0449 68.9413 19.0748 68.9513C19.1246 68.9663 19.1695 68.9812 19.2193 68.9962C19.2592 69.0061 19.2941 69.0211 19.334 69.031C19.3738 69.041 19.4137 69.056 19.4536 69.0659C19.4984 69.0809 19.5433 69.0909 19.5931 69.1058C19.638 69.1158 19.6779 69.1257 19.7227 69.1407C19.7576 69.1507 19.7975 69.1606 19.8373 69.1706C19.8922 69.1856 19.947 69.1955 20.0068 69.2105C20.0467 69.2204 20.0915 69.2304 20.1314 69.2354C21.3773 69.4945 22.8127 69.5842 24.1583 69.5842C26.7249 69.5842 28.9677 69.2753 28.9677 69.2753C24.0287 75.8638 18.8605 81.5105 12.8251 89.8085C11.948 91.0146 13.1441 92.8437 14.086 92.9533C14.9482 93.053 15.9201 93.1776 16.9916 93.1776C18.711 93.1776 20.6945 92.8536 22.9323 91.5628C26.082 89.7487 28.3148 86.29 33.3634 79.1531C36.9019 74.1494 38.3023 72.0164 40.3905 69.2703C42.4189 69.4796 44.2031 69.5643 45.8029 69.5643C54.3203 69.5643 57.4949 67.0724 63.7845 67.0724C65.0753 72.5197 65.3843 77.5334 67.0389 81.032C67.0688 81.1018 67.1037 81.1666 67.1386 81.2314C67.1585 81.2713 67.1785 81.3111 67.1984 81.351C67.2283 81.4108 67.2582 81.4706 67.2881 81.5254C67.318 81.5753 67.3429 81.6301 67.3728 81.6799C67.3978 81.7298 67.4277 81.7746 67.4526 81.8245C67.4974 81.9042 67.5473 81.984 67.5971 82.0637C67.6071 82.0786 67.617 82.0986 67.627 82.1135C67.6769 82.1933 67.7267 82.273 67.7815 82.3478C67.7915 82.3627 67.8014 82.3727 67.8064 82.3876C67.8463 82.4474 67.8912 82.5072 67.931 82.5671C67.946 82.587 67.9609 82.6069 67.9759 82.6269C68.0108 82.6767 68.0506 82.7216 68.0855 82.7714C68.1055 82.7963 68.1204 82.8162 68.1403 82.8362C68.1752 82.881 68.2101 82.9209 68.245 82.9658C68.2649 82.9857 68.2849 83.0106 68.2998 83.0305C68.3347 83.0704 68.3696 83.1103 68.4045 83.1502C68.4244 83.1701 68.4444 83.19 68.4593 83.2149C68.4942 83.2548 68.5341 83.2897 68.569 83.3296C68.5889 83.3495 68.6038 83.3645 68.6238 83.3844C68.6636 83.4243 68.7035 83.4641 68.7484 83.504C68.7633 83.519 68.7783 83.5289 68.7882 83.5439C68.8979 83.6485 69.0125 83.7432 69.1222 83.8329C69.1371 83.8479 69.1521 83.8579 69.172 83.8678C69.2119 83.8977 69.2517 83.9276 69.2916 83.9575C69.3115 83.9725 69.3315 83.9874 69.3514 84.0024C69.3863 84.0273 69.4212 84.0522 69.4561 84.0771C69.481 84.0921 69.5009 84.1071 69.5258 84.122C69.5607 84.1419 69.5956 84.1669 69.6255 84.1868C69.6504 84.2017 69.6704 84.2167 69.6953 84.2316C69.7302 84.2516 69.7601 84.2715 69.795 84.2915C69.8199 84.3064 69.8398 84.3164 69.8647 84.3313C69.8996 84.3513 69.9295 84.3662 69.9644 84.3861C69.9844 84.3961 70.0093 84.4111 70.0292 84.421C70.0641 84.441 70.099 84.4559 70.1339 84.4759C70.1538 84.4858 70.1737 84.4958 70.1937 84.5058C70.2385 84.5257 70.2884 84.5506 70.3332 84.5705C70.3482 84.5755 70.3631 84.5855 70.3781 84.5905C70.4229 84.6104 70.4728 84.6303 70.5176 84.6503C70.5376 84.6603 70.5625 84.6652 70.5824 84.6752C70.6123 84.6852 70.6472 84.7001 70.6771 84.7101C70.702 84.7201 70.7269 84.725 70.7469 84.735C70.7768 84.745 70.8017 84.7549 70.8316 84.7649C70.8565 84.7749 70.8814 84.7799 70.9064 84.7898C70.9313 84.7998 70.9612 84.8048 70.9861 84.8148C71.011 84.8197 71.0359 84.8297 71.0609 84.8347C71.0858 84.8397 71.1107 84.8496 71.1356 84.8546C71.1605 84.8596 71.1855 84.8696 71.2104 84.8746C71.2353 84.8795 71.2602 84.8845 71.2801 84.8895C71.3051 84.8945 71.33 84.8995 71.3549 84.9045C71.3798 84.9094 71.3998 84.9144 71.4247 84.9194C71.4496 84.9244 71.4745 84.9294 71.4994 84.9344C71.5194 84.9393 71.5393 84.9394 71.5592 84.9443C71.6091 84.9543 71.6589 84.9593 71.7088 84.9643C71.7237 84.9643 71.7386 84.9693 71.7536 84.9693C71.7785 84.9742 71.8034 84.9742 71.8284 84.9792C71.8433 84.9792 71.8632 84.9842 71.8782 84.9842C71.9031 84.9842 71.928 84.9892 71.948 84.9892C71.9629 84.9892 71.9829 84.9892 71.9978 84.9942C72.0227 84.9942 72.0427 84.9942 72.0676 84.9991C72.0825 84.9991 72.0975 84.9991 72.1124 84.9991C72.1324 84.9991 72.1573 84.9991 72.1772 84.9991C72.1922 84.9991 72.2071 84.9991 72.2221 84.9991C72.242 84.9991 72.262 84.9991 72.2819 84.9991C72.2968 84.9991 72.3068 84.9991 72.3218 84.9991C72.3417 84.9991 72.3616 84.9992 72.3816 84.9942C72.3915 84.9942 72.4015 84.9942 72.4164 84.9892C72.4364 84.9892 72.4563 84.9842 72.4763 84.9842C72.4812 84.9842 72.4912 84.9842 72.4962 84.9842C72.5161 84.9842 72.5361 84.9792 72.556 84.9792C72.6507 84.9643 72.7354 84.9543 72.8251 84.9493C72.8451 84.9493 72.87 84.9443 72.8899 84.9443C72.9547 84.9394 73.0195 84.9344 73.0793 84.9294C73.1042 84.9294 73.1291 84.9244 73.1491 84.9244C73.2139 84.9194 73.2737 84.9194 73.3335 84.9194C73.3484 84.9194 73.3684 84.9194 73.3833 84.9194C73.3933 84.9194 73.3983 84.9194 73.4082 84.9194C73.473 84.9194 73.5378 84.9194 73.5976 84.9244C73.6126 84.9244 73.6225 84.9244 73.6375 84.9244C73.7023 84.9294 73.7621 84.9294 73.8219 84.9344C73.8318 84.9344 73.8368 84.9344 73.8468 84.9344C73.9116 84.9393 73.9764 84.9493 74.0412 84.9543C74.0561 84.9543 74.0661 84.9593 74.0761 84.9593C74.1309 84.9692 74.1907 84.9742 74.2455 84.9842C74.2505 84.9842 74.2555 84.9842 74.2605 84.9892C74.3203 84.9992 74.3751 85.0141 74.4349 85.0241C74.4449 85.0291 74.4598 85.029 74.4698 85.034C74.5246 85.044 74.5744 85.059 74.6243 85.0739H74.6293C74.6841 85.0889 74.7339 85.1038 74.7838 85.1188C74.7937 85.1238 74.8037 85.1237 74.8137 85.1287C74.9133 85.1586 75.013 85.1935 75.1027 85.2284C75.1127 85.2334 75.1177 85.2334 75.1276 85.2384C75.2223 85.2733 75.317 85.3131 75.4067 85.348C75.4117 85.348 75.4117 85.353 75.4167 85.353C75.4765 85.3779 75.5363 85.4028 75.5911 85.4278C75.6111 85.4377 75.631 85.4427 75.6509 85.4527C75.6709 85.4626 75.6858 85.4676 75.7058 85.4726C75.7406 85.4876 75.7805 85.5025 75.8154 85.5175C75.8254 85.5225 75.8353 85.5274 75.8453 85.5274C75.8752 85.5374 75.9051 85.5524 75.935 85.5623C75.945 85.5673 75.9599 85.5723 75.9699 85.5773C76.0098 85.5922 76.0447 85.6022 76.0845 85.6171C76.0945 85.6221 76.1045 85.6221 76.1094 85.6271C76.1393 85.6371 76.1742 85.647 76.2041 85.657C76.2141 85.662 76.2241 85.662 76.234 85.667C76.2739 85.677 76.3138 85.6869 76.3487 85.6969C76.3586 85.6969 76.3686 85.7019 76.3786 85.7019C76.4135 85.7069 76.4483 85.7168 76.4782 85.7218C76.4882 85.7218 76.4982 85.7268 76.5081 85.7268C76.548 85.7318 76.5879 85.7368 76.6327 85.7417C76.6427 85.7417 76.6527 85.7417 76.6626 85.7417C76.6975 85.7467 76.7374 85.7467 76.7723 85.7467C76.7823 85.7467 76.7872 85.7467 76.7972 85.7467C76.8221 85.7467 76.852 85.7467 76.877 85.7467C76.9019 85.7467 76.9268 85.7467 76.9467 85.7417C76.9766 85.7417 77.0065 85.7367 77.0364 85.7318C77.0613 85.7268 77.0813 85.7268 77.1062 85.7218C77.1361 85.7168 77.171 85.7118 77.2059 85.7019C77.2258 85.6969 77.2507 85.6969 77.2707 85.6869C77.3105 85.6769 77.3454 85.667 77.3853 85.657C77.4052 85.652 77.4252 85.6471 77.4451 85.6421C77.49 85.6271 77.5348 85.6122 77.5846 85.5972C77.5996 85.5922 77.6146 85.5872 77.6295 85.5823C77.6893 85.5623 77.7491 85.5374 77.8089 85.5125C77.8139 85.5125 77.8189 85.5075 77.8239 85.5075C77.9584 85.4527 78.098 85.3829 78.2525 85.2982C78.7409 85.0291 79.0947 84.7201 79.329 84.3762C79.633 83.9476 79.7476 83.4791 79.7277 82.9857ZM63.7446 53.6311C63.7247 53.8454 63.7097 54.0647 63.6948 54.284C63.6749 54.5631 63.6499 54.8422 63.63 55.1213C63.6151 55.3306 63.6001 55.5399 63.5852 55.7492C63.5652 56.0383 63.5453 56.3273 63.5303 56.6164C63.5204 56.8108 63.5104 57.0051 63.4954 57.1995C63.4805 57.5035 63.4606 57.8125 63.4456 58.1165C63.4356 58.271 63.4307 58.4305 63.4257 58.585C63.4107 58.9289 63.3958 59.2728 63.3808 59.6166C63.3609 60.12 63.3459 60.6234 63.331 61.1267C62.4588 61.1616 61.6365 61.1816 60.859 61.1816C58.7808 61.1816 57.0215 61.0669 55.4067 60.9174H55.4017C55.2124 60.9025 55.023 60.8825 54.8336 60.8626C54.8186 60.8626 54.7987 60.8576 54.7838 60.8576C54.6043 60.8377 54.4199 60.8227 54.2455 60.8028C54.2455 60.8028 54.2455 60.8028 54.2405 60.8028C53.8319 60.7629 53.4282 60.7181 53.0245 60.6782C52.8799 60.6632 52.7404 60.6483 52.5959 60.6333C52.551 60.6284 52.5062 60.6234 52.4663 60.6184C52.3467 60.6084 52.2221 60.5935 52.1025 60.5835C52.0476 60.5785 51.9928 60.5735 51.943 60.5686C51.7835 60.5536 51.624 60.5386 51.4645 60.5237C51.4546 60.5237 51.4396 60.5237 51.4297 60.5187C51.2752 60.5038 51.1256 60.4938 50.9711 60.4788C50.9263 60.4739 50.8814 60.4689 50.8316 60.4689C50.6871 60.4589 50.5425 60.444 50.393 60.434C50.3731 60.434 50.3482 60.429 50.3282 60.429C50.1638 60.419 49.9993 60.4091 49.8348 60.3991C49.795 60.3941 49.7501 60.3941 49.7102 60.3941C49.5707 60.3842 49.4262 60.3792 49.2866 60.3742C49.2567 60.3742 49.2218 60.3692 49.1919 60.3692C49.0225 60.3592 48.853 60.3542 48.6786 60.3493C48.6387 60.3493 48.6038 60.3493 48.564 60.3443C48.4194 60.3393 48.2749 60.3343 48.1254 60.3343C48.0855 60.3343 48.0457 60.3343 48.0058 60.3343C47.8314 60.3343 47.6569 60.3293 47.4775 60.3293C47.3479 60.3293 47.2134 60.3293 47.0838 60.3343C47.004 60.3343 46.9243 60.3343 46.8446 60.3393C46.6502 60.3443 46.4508 60.3493 46.2515 60.3542C46.2315 60.3542 46.2166 60.3542 46.1967 60.3542C52.4563 52.3353 59.2642 44.431 66.2914 36.746C66.1867 37.2394 66.082 37.7328 65.9774 38.2262C65.9475 38.3707 65.9176 38.5202 65.8877 38.6647C65.8179 39.0086 65.7481 39.3525 65.6833 39.6914C65.6435 39.8858 65.6086 40.0801 65.5737 40.2745C65.5189 40.5685 65.464 40.8626 65.4092 41.1517C65.3694 41.366 65.3295 41.5852 65.2946 41.7995C65.2448 42.0687 65.1999 42.3378 65.1501 42.6069C65.1102 42.8362 65.0753 43.0654 65.0354 43.2897C64.9906 43.5489 64.9507 43.803 64.9059 44.0622C64.866 44.2964 64.8311 44.5357 64.7962 44.7699C64.7563 45.0191 64.7215 45.2683 64.6816 45.5125C64.6467 45.7567 64.6118 46.0009 64.5769 46.2401C64.542 46.4793 64.5072 46.7235 64.4723 46.9628C64.4374 47.212 64.4025 47.4611 64.3726 47.7103C64.3427 47.9446 64.3128 48.1838 64.2829 48.418C64.253 48.6722 64.2181 48.9264 64.1882 49.1806C64.1583 49.4098 64.1334 49.6441 64.1085 49.8733C64.0785 50.1325 64.0486 50.3916 64.0237 50.6508C63.9988 50.88 63.9739 51.1043 63.9539 51.3336C63.929 51.5977 63.8991 51.8618 63.8742 52.126C63.8543 52.3503 63.8343 52.5695 63.8144 52.7938C63.7895 53.0879 63.7646 53.357 63.7446 53.6311Z" fill="white"/>
</g>
<defs>
<clipPath id="clip0_4_5442">
<rect width="191.328" height="100" fill="white"/>
</clipPath>
</defs>
</svg>
