<svg width="298" height="100" viewBox="0 0 298 100" fill="none" xmlns="http://www.w3.org/2000/svg">
<g clip-path="url(#clip0_4_5453)">
<path d="M115.29 21.255C115.29 18.6243 113.1 16.4423 110.477 16.4423H106.972C103.799 16.4423 101.169 13.8115 101.169 10.6391C101.169 7.46673 103.799 4.83596 106.972 4.83596H120.543V0.564841H106.863C101.277 0.564841 96.7891 5.05262 96.7891 10.6391C96.7891 16.2256 101.277 20.7134 106.863 20.7134H110.368C110.693 20.7134 110.918 20.93 110.918 21.2628C110.918 21.5877 110.701 21.8121 110.477 21.8121H96.7891V26.0755H110.469C113.1 26.0755 115.29 23.8858 115.29 21.255ZM110.469 11.204H106.964C106.639 11.204 106.415 10.9873 106.415 10.6546C106.415 10.4379 106.631 10.2136 106.856 10.2136H120.543V5.83411L106.863 5.84184C104.233 5.84184 102.051 8.03157 102.051 10.6623C102.051 13.2931 104.24 15.4751 106.871 15.4751H110.376C113.549 15.4751 116.179 18.0981 116.179 21.2705C116.179 24.4429 113.556 27.0737 110.384 27.0737L96.8123 27.0814V31.3525L110.492 31.3448C116.079 31.3448 120.559 26.8493 120.559 21.2705C120.559 15.6917 116.056 11.204 110.469 11.204ZM158.094 10.0898H170.242V5.81863H156.012C154.147 5.81863 152.731 7.24234 152.731 9.09935V22.7793C152.731 24.6441 154.155 26.06 156.012 26.06H164.879V16.4423H158.094V20.7134H160.608V21.6961H158.094C157.544 21.6961 157.111 21.255 157.111 20.7134V11.0724C157.111 10.5308 157.544 10.0898 158.094 10.0898ZM192.905 26.0755L186.119 5.93469C185.902 5.38533 185.461 4.95203 184.804 4.95203C184.254 4.95203 183.713 5.39307 183.488 5.82637L174.729 31.3293H179.766L182.831 22.2454V26.0755H192.905ZM184.695 16.8756L186.119 21.255H183.163L184.695 16.8756ZM191.365 5.0294C190.491 2.18972 187.86 0 184.688 0C181.515 0 178.884 2.0814 178.118 4.92881L170.141 28.3581L170.133 11.173L158.094 11.1807V15.4519L165.978 15.4441L165.986 27.0504L156.136 27.0582C153.73 27.0582 151.865 25.0928 151.865 22.7948L151.857 9.11482C151.857 6.70845 153.822 4.8437 156.121 4.8437L170.242 4.83596V0.564841L156.012 0.572578C151.308 0.572578 147.478 4.4104 147.478 9.11482L147.485 22.7948C147.485 27.4992 151.323 31.3293 156.028 31.3293L173.654 31.3216L182.506 5.59424C182.831 4.61158 183.713 3.95388 184.804 3.95388C185.895 3.95388 186.777 4.61158 187.102 5.59424L194.336 27.0427L182.954 27.0504V31.3216L200.248 31.3138L191.365 5.0294ZM126.896 22.7871V9.10709C126.896 6.70071 128.869 4.83596 131.167 4.83596H145.837V0.564841H131.167C126.463 0.564841 122.625 4.39492 122.625 9.10709V22.7871C122.625 27.4915 126.455 31.3293 131.167 31.3293H145.837V27.0582H131.167C128.753 27.0582 126.896 25.0851 126.896 22.7871ZM133.14 21.9205C132.591 21.8121 132.157 21.3711 132.157 20.8295L142.773 20.8217V16.5506L127.886 16.5583V22.9109C127.886 24.7756 129.31 26.1916 131.175 26.1916L145.845 26.1838V21.9127L133.14 21.9205ZM133.132 10.1981H145.721V5.81863H131.159C129.294 5.81863 127.879 7.24234 127.879 9.09935V15.4519H142.766V11.1807H132.15C132.15 10.6391 132.591 10.1981 133.132 10.1981Z" fill="white"/>
<path d="M295.628 51.3613C294.692 49.102 293.446 47.1521 291.876 45.504C290.313 43.8559 288.502 42.556 286.444 41.6043C284.393 40.6526 282.266 40.1729 280.068 40.1729H235.577V48.2818H279.085C280.633 48.2818 282.01 48.5836 283.233 49.1948C284.455 49.8061 285.477 50.5953 286.312 51.5703C287.148 52.5452 287.79 53.6516 288.231 54.8974C288.68 56.1354 288.904 57.3657 288.904 58.5882V81.5842C288.904 82.8067 288.68 84.037 288.231 85.275C287.782 86.513 287.14 87.6195 286.312 88.6021C285.477 89.5771 284.455 90.374 283.233 90.9776C282.01 91.5888 280.633 91.8906 279.085 91.8906H252.847H230.71C229.163 91.8906 227.786 91.5888 226.563 90.9776C225.34 90.3663 224.319 89.5771 223.483 88.6021C222.648 87.6272 222.006 86.5207 221.565 85.275C221.116 84.037 220.891 82.8067 220.891 81.5842V40.1729H212.782V81.5842C212.782 84.1453 213.247 86.5517 214.183 88.811C215.119 91.0704 216.365 93.0203 217.936 94.6684C219.499 96.3165 221.309 97.6164 223.367 98.5681C225.418 99.5275 227.546 99.9995 229.743 99.9995H250.093H280.084C282.281 99.9995 284.401 99.5198 286.459 98.5681C288.51 97.6164 290.32 96.3087 291.891 94.6684C293.454 93.0203 294.708 91.0704 295.644 88.811C296.58 86.5517 297.044 84.1453 297.044 81.5842V58.5882C297.029 56.0271 296.565 53.6207 295.628 51.3613ZM278.884 59.0215C279.147 59.3078 279.279 59.6947 279.279 60.1821V61.0333H261.591V69.0803H286.715V59.8107C286.715 58.7507 286.544 57.6674 286.196 56.5455C285.848 55.4313 285.33 54.4177 284.641 53.5278C283.952 52.6303 283.078 51.903 282.018 51.3304C280.958 50.7578 279.72 50.4793 278.296 50.4793H235.577V58.5882H278.111C278.366 58.5882 278.621 58.7352 278.884 59.0215ZM116.117 44.3202C114.732 42.8578 112.976 41.7977 110.84 41.1478C108.705 40.4978 106.151 40.1729 103.188 40.1729H95.3807C92.4559 40.1729 89.9335 40.4978 87.8211 41.1478C85.7088 41.7977 83.9446 42.8578 82.5441 44.3202C81.1436 45.7826 80.1068 47.686 79.4336 50.0227C78.7604 52.3595 78.4277 55.2146 78.4277 58.5882V81.5842C78.4277 84.8339 78.7604 87.6349 79.4336 89.9717C80.1068 92.3084 81.1436 94.2196 82.5441 95.7052C83.9446 97.1908 85.7088 98.2741 87.8211 98.9704C89.9335 99.6591 92.4559 100.007 95.3807 100.007H103.188C106.159 100.007 108.705 99.6591 110.84 98.9704C112.976 98.2818 114.732 97.1908 116.117 95.7052C117.502 94.2196 118.516 92.3084 119.166 89.9717C119.816 87.6349 120.141 84.8417 120.141 81.5842V58.5882C120.141 55.2146 119.816 52.3595 119.166 50.0227C118.516 47.686 117.495 45.7826 116.117 44.3202ZM112.457 83.2864C112.457 84.509 112.303 85.6464 112.001 86.6987C111.699 87.7587 111.212 88.6718 110.539 89.4455C109.865 90.2193 109.006 90.8151 107.946 91.2484C106.886 91.6739 105.587 91.8906 104.047 91.8906H99.2881H94.5296C92.982 91.8906 91.6821 91.6739 90.6298 91.2484C89.5698 90.8228 88.7109 90.2193 88.0378 89.4455C87.3646 88.6718 86.8771 87.7587 86.5754 86.6987C86.2736 85.6387 86.1189 84.5012 86.1189 83.2864V56.8859C86.1189 55.6634 86.2736 54.526 86.5754 53.4737C86.8771 52.4136 87.3646 51.5006 88.0378 50.7269C88.7109 49.9531 89.5853 49.3573 90.6608 48.924C91.7363 48.4984 93.0517 48.2818 94.5915 48.2818H103.985C105.532 48.2818 106.84 48.4984 107.916 48.924C108.991 49.3496 109.865 49.9531 110.539 50.7269C111.212 51.5006 111.699 52.4136 112.001 53.4737C112.303 54.5337 112.457 55.6711 112.457 56.8859V83.2864ZM108.859 52.6767C108.333 51.9881 107.606 51.4465 106.693 51.0596C105.78 50.6727 104.612 50.4793 103.188 50.4793H99.2881H95.3884C93.9647 50.4793 92.7963 50.6727 91.8833 51.0596C90.9703 51.4465 90.243 51.9881 89.7168 52.6767C89.1907 53.3654 88.8193 54.1778 88.6181 55.114C88.4169 56.0503 88.3163 57.0484 88.3163 58.1007V82.0716C88.3163 83.4953 88.4169 84.6869 88.6181 85.6387C88.8193 86.5981 89.1752 87.3796 89.6859 87.9831C90.1965 88.5944 90.9084 89.0277 91.8214 89.2908C92.7344 89.5538 93.9028 89.6854 95.3265 89.6854H103.258C104.681 89.6854 105.85 89.5538 106.763 89.2908C107.676 89.0277 108.387 88.5867 108.898 87.9831C109.409 87.3719 109.765 86.5904 109.966 85.6387C110.167 84.6869 110.268 83.4953 110.268 82.0716V58.1007C110.268 57.0407 110.167 56.0503 109.966 55.114C109.749 54.1778 109.386 53.3654 108.859 52.6767ZM102.391 79.9902C102.391 80.4777 102.321 80.8646 102.174 81.1509C102.035 81.4372 101.718 81.5764 101.23 81.5764H97.3306C96.8431 81.5764 96.5258 81.4372 96.3866 81.1509C96.2473 80.8646 96.1699 80.4777 96.1699 79.9902V60.1744C96.1699 59.6869 96.2396 59.3001 96.3866 59.0138C96.5258 58.7275 96.8431 58.5882 97.3306 58.5882H101.23C101.718 58.5882 102.035 58.7275 102.174 59.0138C102.314 59.3001 102.391 59.6869 102.391 60.1744V79.9902ZM160.701 44.3202C159.316 42.8578 157.56 41.7977 155.424 41.1478C153.288 40.4978 150.735 40.1729 147.772 40.1729H124.288V48.2818H148.561C150.108 48.2818 151.416 48.4984 152.491 48.924C153.567 49.3496 154.441 49.9531 155.115 50.7269C155.788 51.5006 156.275 52.4136 156.577 53.4737C156.879 54.5337 157.033 55.6711 157.033 56.8859V83.2942C157.033 84.5167 156.879 85.6541 156.577 86.7064C156.275 87.7665 155.788 88.6795 155.115 89.4533C154.441 90.227 153.582 90.8228 152.522 91.2561C151.462 91.6817 150.162 91.8983 148.623 91.8983H131.972V60.5458H124.288V100.007H147.772C150.743 100.007 153.288 99.6591 155.424 98.9704C157.56 98.2818 159.316 97.1908 160.701 95.7052C162.086 94.2196 163.1 92.3084 163.75 89.9717C164.4 87.6349 164.725 84.8417 164.725 81.5842V58.5882C164.725 55.2146 164.4 52.3595 163.75 50.0227C163.1 47.686 162.078 45.7826 160.701 44.3202ZM146.766 59.0138C147.067 59.3001 147.222 59.6869 147.222 60.1744V79.998C147.222 80.4854 147.067 80.8723 146.766 81.1586C146.464 81.4449 146.062 81.5842 145.574 81.5842H144.236C143.222 81.5842 142.711 81.058 142.711 79.998V60.5458H134.169V89.7009H147.833C149.257 89.7009 150.426 89.5693 151.339 89.3062C152.252 89.0432 152.963 88.6021 153.474 87.9986C153.985 87.3873 154.341 86.6058 154.542 85.6541C154.743 84.7024 154.844 83.5108 154.844 82.0871V58.1007C154.844 57.0407 154.743 56.0503 154.542 55.114C154.341 54.1778 153.969 53.3654 153.443 52.6767C152.917 51.9881 152.19 51.4465 151.277 51.0596C150.364 50.6727 149.195 50.4793 147.772 50.4793H124.288V58.5882H145.574C146.062 58.5882 146.456 58.7352 146.766 59.0138ZM179.147 41.6043C177.097 42.5638 175.286 43.8637 173.716 45.504C172.153 47.1521 170.899 49.102 169.963 51.3613C169.027 53.6207 168.562 56.0271 168.562 58.5882V81.5842C168.562 84.1453 169.027 86.5517 169.963 88.811C170.899 91.0704 172.145 93.0203 173.716 94.6684C175.279 96.3165 177.089 97.6164 179.147 98.5681C181.198 99.5275 183.326 99.9995 185.523 99.9995H208.635V91.8906H186.498C184.95 91.8906 183.573 91.5888 182.351 90.9776C181.128 90.3663 180.107 89.5771 179.271 88.6021C178.435 87.6272 177.793 86.5207 177.352 85.275C176.903 84.037 176.679 82.8067 176.679 81.5842V58.5882C176.679 57.3657 176.903 56.1354 177.352 54.8974C177.801 53.6594 178.443 52.5529 179.271 51.5703C180.107 50.5953 181.128 49.7984 182.351 49.1948C183.573 48.5836 184.95 48.2818 186.498 48.2818H208.635V40.1729H185.523C183.326 40.1729 181.198 40.6526 179.147 41.6043ZM183.573 51.3304C182.513 51.903 181.639 52.6303 180.95 53.5278C180.262 54.4254 179.743 55.4313 179.395 56.5455C179.047 57.6674 178.877 58.7507 178.877 59.8107V69.0803H204.008V61.0333H186.312V60.1821C186.312 59.6947 186.444 59.3078 186.707 59.0215C186.97 58.7352 187.225 58.5959 187.473 58.5959H208.635V50.4793H187.287C185.864 50.4793 184.626 50.7655 183.573 51.3304ZM186.715 81.1509C186.452 80.8646 186.32 80.4777 186.32 79.9902V79.201H204.008V71.0921H178.877V80.3616C178.877 81.4217 179.047 82.505 179.395 83.6269C179.743 84.7488 180.262 85.7547 180.95 86.6445C181.639 87.5421 182.513 88.2694 183.573 88.842C184.633 89.4146 185.871 89.6931 187.295 89.6931H208.643V81.5842H187.473C187.233 81.5764 186.978 81.4372 186.715 81.1509ZM225.155 86.6368C225.843 87.5343 226.718 88.2617 227.778 88.8343C228.838 89.4068 230.076 89.6854 231.5 89.6854H250.077H278.304C279.728 89.6854 280.966 89.3991 282.026 88.8343C283.086 88.2617 283.96 87.5343 284.649 86.6368C285.337 85.7392 285.856 84.7334 286.204 83.6191C286.552 82.5049 286.722 81.414 286.722 80.3539V71.0921H261.591V79.201H279.279V79.9902C279.279 80.4777 279.147 80.8646 278.884 81.1509C278.621 81.4372 278.366 81.5764 278.118 81.5764H252.847H232.598V81.5145C232.351 81.5145 232.103 81.383 231.832 81.1199C231.569 80.8569 231.438 80.4777 231.438 79.9902V40.1729H223.081V80.3616C223.081 81.4217 223.251 82.505 223.6 83.6269C223.948 84.7411 224.466 85.747 225.155 86.6368ZM60.0433 44.3511C59.494 43.5619 58.8208 42.85 58.0316 42.2156C57.2423 41.5888 56.3061 41.0859 55.2228 40.7222C54.1473 40.3586 52.9325 40.1729 51.5939 40.1729C50.2089 40.1729 49.0096 40.3586 47.996 40.7222C46.9824 41.0859 46.0925 41.5888 45.342 42.2156C44.5915 42.85 43.9415 43.5542 43.3921 44.3511C42.8428 45.1404 42.3476 45.9683 41.8988 46.8194L40.0727 50.4793L38.2467 46.8194C37.8366 45.9683 37.3646 45.1404 36.8152 44.3511C36.2659 43.5619 35.6082 42.85 34.8344 42.2156C34.0607 41.5888 33.1631 41.0859 32.1495 40.7222C31.1359 40.3586 29.9366 40.1729 28.5515 40.1729C27.1665 40.1729 25.9517 40.3586 24.8917 40.7222C23.8316 41.0859 22.9109 41.5888 22.1139 42.2156C21.3247 42.85 20.6592 43.5542 20.1331 44.3511C19.6069 45.1404 19.1736 45.9683 18.8487 46.8194L0 99.9918H8.10894L25.6732 49.8603C25.797 49.4579 26.1606 49.0865 26.7719 48.7615C27.3832 48.4365 27.9712 48.2741 28.5438 48.2741C29.1937 48.2741 29.7818 48.4365 30.3157 48.7615C30.8418 49.0865 31.19 49.4502 31.3525 49.8603L40.0727 73.2199L48.7929 49.8603C48.9554 49.4579 49.3036 49.0865 49.8298 48.7615C50.3559 48.4365 50.944 48.2741 51.6017 48.2741C52.1743 48.2741 52.7623 48.4365 53.3736 48.7615C53.9848 49.0865 54.3485 49.4502 54.4723 49.8603L72.0365 99.9918H80.1455L61.2968 46.8194C61.0105 45.9683 60.5927 45.1404 60.0433 44.3511ZM52.5147 50.7501C52.1897 50.5644 51.8802 50.4793 51.6017 50.4793C51.3154 50.4793 51.0214 50.5721 50.7196 50.7501C50.4178 50.9358 50.2244 51.1447 50.1393 51.3923L40.0727 79.1391L30.0062 51.3923C29.9211 51.1447 29.7354 50.9358 29.4259 50.7501C29.1241 50.5644 28.8223 50.4793 28.5438 50.4793C28.2575 50.4793 27.9557 50.5721 27.6308 50.7501C27.3058 50.9358 27.1046 51.1447 27.0195 51.3923L10.3064 99.9995H18.4154L28.5361 69.2583L40.065 99.9995L51.5939 69.2583L62.0241 99.9995H69.8313L53.1182 51.3923C53.0409 51.1524 52.8397 50.9358 52.5147 50.7501Z" fill="white"/>
</g>
<defs>
<clipPath id="clip0_4_5453">
<rect width="297.044" height="100" fill="white"/>
</clipPath>
</defs>
</svg>
