<svg width="420" height="100" viewBox="0 0 420 100" fill="none" xmlns="http://www.w3.org/2000/svg">
<g clip-path="url(#clip0_4_5456)">
<path d="M49.8386 18.7164C32.4714 18.7164 18.3931 32.7954 18.3931 50.1618C18.3931 67.529 32.4714 81.6081 49.8386 81.6081C67.2058 81.6081 81.284 67.529 81.284 50.1618C81.284 32.7954 67.2058 18.7164 49.8386 18.7164ZM99.6764 50.1618C99.6764 77.6872 77.364 100 49.8386 100C22.3132 100 0 77.6872 0 50.1618C0 22.6373 22.3132 0.323242 49.8386 0.323242C77.364 0.323242 99.6764 22.6373 99.6764 50.1618Z" fill="white"/>
<path d="M50.802 81.6073H47.8164V18.7148H50.802V81.6073Z" fill="white"/>
<path d="M17.6875 49.6816H81.2863V52.6672H17.6875V49.6816Z" fill="white"/>
<path d="M28.057 74.7137L25.9453 72.6019L71.3371 27.2109L73.448 29.3227L28.057 74.7137Z" fill="white"/>
<path d="M72.7846 71.9401L70.6728 74.0518L25.9453 29.3227L28.0562 27.2109L72.7846 71.9401Z" fill="white"/>
<path d="M143.526 54.4794C143.362 50.0536 143.198 44.6974 143.198 39.342H143.035C141.887 44.0421 140.357 49.2882 138.936 53.6047L134.454 67.9767H127.952L124.018 53.714C122.815 49.3975 121.558 44.1513 120.684 39.342H120.575C120.357 44.3147 120.193 49.9978 119.919 54.5886L119.264 68.5778H111.559L113.908 31.7471H125.001L128.608 44.0421C129.755 48.3052 130.903 52.8944 131.723 57.2109H131.886C132.925 52.9494 134.182 48.0851 135.384 43.987L139.318 31.7471H150.193L152.215 68.5778H144.072L143.526 54.4794Z" fill="white"/>
<path d="M165.716 50.2707C165.716 57.4838 169.105 62.5657 174.678 62.5657C180.306 62.5657 183.53 57.2111 183.53 50.0523C183.53 43.4403 180.361 37.7573 174.624 37.7573C168.995 37.7573 165.716 43.1127 165.716 50.2707ZM192.328 49.7796C192.328 61.8561 185.006 69.1784 174.241 69.1784C163.311 69.1784 156.918 60.9265 156.918 50.435C156.918 39.3965 163.967 31.1445 174.841 31.1445C186.154 31.1445 192.328 39.6149 192.328 49.7796Z" fill="white"/>
<path d="M204.9 50.2707C204.9 57.4838 208.289 62.5657 213.861 62.5657C219.491 62.5657 222.713 57.2111 222.713 50.0523C222.713 43.4403 219.544 37.7573 213.808 37.7573C208.178 37.7573 204.9 43.1127 204.9 50.2707ZM231.512 49.7796C231.512 61.8561 224.189 69.1784 213.425 69.1784C202.496 69.1784 196.102 60.9265 196.102 50.435C196.102 39.3965 203.151 31.1445 214.025 31.1445C225.337 31.1445 231.512 39.6149 231.512 49.7796Z" fill="white"/>
<path d="M236.98 68.5778V31.7471H246.707L254.357 45.2444C256.543 49.124 258.729 53.714 260.368 57.8671H260.532C259.985 53.0036 259.822 48.0309 259.822 42.5121V31.7471H267.472V68.5778H258.729L250.86 54.3702C248.674 50.4355 246.27 45.6813 244.466 41.364L244.303 41.4182C244.521 46.2824 244.63 51.4736 244.63 57.4852V68.5778H236.98Z" fill="white"/>
<path d="M274.688 31.7471H283.049V61.5832H297.693V68.5778H274.688V31.7471Z" fill="white"/>
<path d="M310.974 68.5769H302.613V31.7461H310.974V68.5769Z" fill="white"/>
<path d="M348.953 66.8824C346.385 67.7562 341.522 68.9593 336.659 68.9593C329.936 68.9593 325.074 67.2651 321.686 63.9858C318.297 60.8166 316.44 56.0081 316.493 50.5977C316.549 38.3569 325.456 31.3623 337.533 31.3623C342.286 31.3623 345.948 32.292 347.752 33.1666L346.003 39.8327C343.981 38.9589 341.468 38.2485 337.424 38.2485C330.483 38.2485 325.238 42.1831 325.238 50.1608C325.238 57.7574 329.992 62.2373 336.823 62.2373C338.734 62.2373 340.264 62.0189 340.921 61.6912V53.987H335.238V47.4835H348.953V66.8824Z" fill="white"/>
<path d="M363.821 31.7471V45.8997H377.538V31.7471H385.843V68.5778H377.538V53.1678H363.821V68.5778H355.461V31.7471H363.821Z" fill="white"/>
<path d="M400.218 38.7417H390.328V31.7471H418.634V38.7417H408.58V68.5778H400.218V38.7417Z" fill="white"/>
</g>
<defs>
<clipPath id="clip0_4_5456">
<rect width="419.769" height="100" fill="white"/>
</clipPath>
</defs>
</svg>
