<svg width="368" height="100" viewBox="0 0 368 100" fill="none" xmlns="http://www.w3.org/2000/svg">
<g clip-path="url(#clip0_4_5471)">
<path d="M346.126 0.894531L327.766 7.77866V14.793L331.777 13.289V20.8933L339.809 23.905V10.2792L346.126 7.91072V0.894531Z" fill="white" stroke="white" stroke-width="4.9293"/>
<path d="M347.352 0.894531L365.711 7.77866V14.793L361.701 13.289V13.2947L353.669 10.284V10.2802L347.352 7.91072V0.894531Z" stroke="white" stroke-width="4.9293"/>
<path d="M347.102 0.53418L347.988 0.865751V7.88194L347.102 7.55037V0.53418Z" fill="white" stroke="white" stroke-width="2.94396"/>
<path d="M347.352 33.8054L365.711 26.9213V19.907L361.701 21.4109V13.8076L353.669 10.7959V24.4207L347.352 26.7902V33.8054Z" fill="white" stroke="white" stroke-width="4.9293"/>
<path d="M346.126 33.8057L327.766 26.9215V19.9072L331.777 21.4112V21.4055L339.809 24.4172V24.421L346.126 26.7895V33.8057Z" stroke="white" stroke-width="4.9293"/>
<path d="M346.379 34.1651L345.492 33.8336V26.8174L346.379 27.1499V34.1651Z" fill="white" stroke="white" stroke-width="2.94396"/>
<path d="M0.285156 2.18848V9.91721H13.7874V32.5125H23.4714V9.91721H36.9746V2.18848H0.285156Z" fill="white"/>
<path d="M37.7734 2.18848V32.5125H47.4574V21.5554H68.3255V32.5125H78.0085V2.18848H68.3255V13.0534H47.4574V2.18848H37.7734Z" fill="white"/>
<path d="M102.447 1.7334C89.7623 1.7334 86.9434 2.05167 84.6253 3.82448C82.3062 5.59824 81.625 8.68974 81.625 17.1453C81.625 26.0559 82.2606 29.0571 84.6253 30.8755C86.9434 32.6483 89.7623 32.9666 102.538 32.9666C115.085 32.9666 117.95 32.6483 120.269 30.8755C122.587 29.1027 123.269 26.0559 123.269 17.3277C123.269 8.64413 122.587 5.59824 120.269 3.82448C117.95 2.05167 115.131 1.7334 102.447 1.7334ZM102.447 9.59894C110.903 9.59894 111.903 9.7348 112.948 10.9623C113.767 11.9627 114.04 13.6899 114.04 18.1913C114.04 21.8737 113.722 23.1924 112.676 24.0104C111.448 24.9196 109.948 25.102 102.538 25.102C94.9002 25.102 93.4447 24.9652 92.2172 24.0104C91.1265 23.1468 90.8539 21.9193 90.8539 18.1457C90.8539 14.2818 91.0353 12.5536 91.5807 11.5076C92.4899 9.7348 93.3544 9.59894 102.447 9.59894Z" fill="white"/>
<path d="M126.922 2.18848V32.5125H136.015L135.788 9.82601H137.424L148.836 32.5125H156.519L167.93 9.82601H169.476L169.249 32.5125H178.341V2.18848H161.702L152.654 21.8737L143.652 2.18848H126.922Z" fill="white"/>
<path d="M181.508 22.4646V23.9192C181.508 28.1023 182.19 29.8751 184.281 31.1938C186.418 32.5571 190.101 32.9666 199.511 32.9666C208.559 32.9666 212.378 32.7395 214.197 32.0574C217.334 30.8755 218.606 28.2838 218.606 23.01C218.606 18.7822 217.833 16.7367 215.742 15.3725C213.787 14.145 211.832 13.9179 201.831 13.5996C195.42 13.4172 192.919 13.2814 192.101 13.0534C191.146 12.8263 190.737 12.2354 190.737 11.0991C190.737 8.8712 191.373 8.68973 199.193 8.68973C205.74 8.68973 206.876 8.77999 207.65 9.23507C208.332 9.64359 208.468 10.0531 208.559 11.7356H217.469C217.515 11.1447 217.515 10.5081 217.515 10.3257C217.515 6.73451 216.787 4.82489 214.969 3.59742C212.832 2.14287 209.65 1.7334 200.83 1.7334C193.556 1.7334 189.373 1.91486 187.601 2.27873C183.417 3.18794 181.78 5.7797 181.78 11.5532C181.78 18.2369 183.873 20.1465 191.373 20.3736L193.828 20.4638L198.739 20.6918L206.013 20.9645C208.968 21.0101 209.65 21.4642 209.65 23.2827C209.65 25.9656 209.65 25.9656 199.739 25.9656C193.237 25.9656 192.238 25.8744 191.373 25.3291C190.646 24.874 190.464 24.2831 190.464 22.4646H181.508Z" fill="white"/>
<path d="M242.033 1.7334C229.349 1.7334 226.53 2.05167 224.212 3.82448C221.893 5.59824 221.211 8.68974 221.211 17.1453C221.211 26.0559 221.847 29.0571 224.212 30.8755C226.53 32.6483 229.349 32.9666 242.125 32.9666C254.672 32.9666 257.536 32.6483 259.856 30.8755C262.174 29.1027 262.856 26.0559 262.856 17.3277C262.856 8.64413 262.174 5.59824 259.856 3.82448C257.536 2.05167 254.718 1.7334 242.033 1.7334ZM242.033 9.59894C250.49 9.59894 251.49 9.7348 252.535 10.9623C253.354 11.9627 253.627 13.6899 253.627 18.1913C253.627 21.8737 253.309 23.1924 252.263 24.0104C251.035 24.9196 249.535 25.102 242.125 25.102C234.487 25.102 233.032 24.9652 231.804 24.0104C230.713 23.1468 230.441 21.9193 230.441 18.1457C230.441 14.2818 230.622 12.5536 231.168 11.5076C232.077 9.7348 232.941 9.59894 242.033 9.59894Z" fill="white"/>
<path d="M266.512 2.18848V32.5125H275.923L275.696 9.87161H276.695L292.654 32.5125H308.702V2.18848H299.291L299.519 24.7837H298.564L282.697 2.18848H266.512Z" fill="white"/>
<path d="M17.9727 51.1924V94.5598H30.9761L30.6512 62.1152H32.9921L49.3113 94.5598H60.2997L76.6189 62.1152H78.8297L78.5047 94.5598H91.5082V51.1924H67.7121L54.7732 79.3455L41.899 51.1924H17.9727Z" stroke="white" stroke-width="4.76292"/>
<path d="M126.462 50.543C108.322 50.543 104.291 50.998 100.975 53.5338C97.6593 56.0695 96.6836 60.4901 96.6836 72.5844C96.6836 85.3275 97.5937 89.6189 100.975 92.2192C104.291 94.7549 108.322 95.21 126.592 95.21C144.537 95.21 148.634 94.7549 151.95 92.2192C155.265 89.6835 156.241 85.3275 156.241 72.8437C156.241 60.4255 155.265 56.0695 151.95 53.5338C148.634 50.998 144.603 50.543 126.462 50.543ZM126.462 61.7907C138.556 61.7907 139.986 61.9855 141.482 63.7412C142.652 65.172 143.042 67.6421 143.042 74.0797C143.042 79.3459 142.587 81.2318 141.091 82.4013C139.336 83.702 137.19 83.9623 126.592 83.9623C115.67 83.9623 113.589 83.7675 111.833 82.4013C110.272 81.1662 109.883 79.4105 109.883 74.0142C109.883 68.4877 110.143 66.0175 110.923 64.5221C112.223 61.9855 113.459 61.7907 126.462 61.7907Z" stroke="white" stroke-width="4.76292"/>
<path d="M203.181 46.1006L172.559 99.6041H176.647L176.619 99.6507H183.677L214.355 46.1481H210.267L210.295 46.1006H203.181Z" fill="white"/>
<path d="M230.672 51.1924V62.2454H249.982V94.5598H263.831V62.2454H283.142V51.1924H230.672Z" fill="white"/>
<path d="M315.931 50.543C297.791 50.543 293.759 50.998 290.444 53.5338C287.128 56.0695 286.152 60.4901 286.152 72.5844C286.152 85.3275 287.063 89.6189 290.444 92.2192C293.759 94.7549 297.791 95.21 316.061 95.21C334.006 95.21 338.102 94.7549 341.418 92.2192C344.734 89.6835 345.709 85.3275 345.709 72.8437C345.709 60.4255 344.734 56.0695 341.418 53.5338C338.102 50.998 334.071 50.543 315.931 50.543ZM315.931 61.7907C328.024 61.7907 329.454 61.9855 330.95 63.7412C332.12 65.172 332.511 67.6421 332.511 74.0797C332.511 79.3459 332.055 81.2318 330.56 82.4013C328.804 83.702 326.659 83.9623 316.061 83.9623C305.137 83.9623 303.057 83.7675 301.302 82.4013C299.741 81.1662 299.352 79.4105 299.352 74.0142C299.352 68.4877 299.611 66.0175 300.391 64.5221C301.692 61.9855 302.927 61.7907 315.931 61.7907Z" fill="white"/>
</g>
<defs>
<clipPath id="clip0_4_5471">
<rect width="367.334" height="100" fill="white"/>
</clipPath>
</defs>
</svg>
