<svg width="296" height="100" viewBox="0 0 296 100" fill="none" xmlns="http://www.w3.org/2000/svg">
<g clip-path="url(#clip0_4_5490)">
<path d="M224.454 0L243.097 26.2448L261.738 0H293.296L258.877 48.4586L295.49 100H263.924L243.096 70.6757L222.268 100H190.71L227.317 48.4604L211.174 25.7312H146.182C146.182 23.5857 146.182 21.4401 146.182 25.7312C138.585 25.7312 138.585 37.1305 146.182 37.1305H168.773C210.681 37.1305 210.684 99.9846 168.781 99.9923H125.698L125.7 100H99.0302L86.738 54.9569L74.4535 100H51.2392L38.9624 54.9569L26.6703 100H0L27.2783 0H50.6389L62.8464 44.7583L75.0539 0H98.4221L118.679 74.2611H168.773C176.37 74.2611 176.37 62.8618 168.773 62.8618H146.182C104.272 62.8618 104.272 0 146.182 0H224.454Z" fill="white"/>
</g>
<defs>
<clipPath id="clip0_4_5490">
<rect width="295.49" height="100" fill="white"/>
</clipPath>
</defs>
</svg>
