<svg width="296" height="100" viewBox="0 0 296 100" fill="none" xmlns="http://www.w3.org/2000/svg">
<g clip-path="url(#clip0_4_5494)">
<path d="M244.146 2.30769V97.6846H2.30769V2.30769H244.146ZM246.454 0H0V99.9923H246.454V0Z" fill="white"/>
<path d="M156.399 32.9539V32.9462H122.13C122.13 31.4423 122.13 29.9404 122.13 32.9462C116.792 32.9462 116.792 40.9539 122.13 40.9539C122.13 40.9564 122.13 40.959 122.13 40.9616H137.992C167.422 40.9616 167.422 85.1154 137.992 85.1154C137.992 85.1129 137.992 85.1103 137.992 85.1077H89.0071L80.3763 53.477L71.7609 85.1077H55.4532L46.8225 53.477L38.1994 85.1077H19.4609L38.6225 14.877H55.0302L63.6071 46.3154L72.184 14.877H88.584L102.81 67.0385H137.999V67.0462C143.33 67.0385 143.328 59.0385 137.992 59.0385C137.992 59.0359 137.992 59.0333 137.992 59.0308H122.13C122.13 57.5256 122.13 56.0206 122.13 59.0308C92.6994 59.0308 92.6994 14.877 122.13 14.877H177.099L190.187 33.3052L203.276 14.877H225.438L201.269 48.9092L226.976 85.1077H204.815L190.187 64.5129L175.561 85.1077H153.392L179.104 48.9085L167.772 32.9539H156.399Z" fill="white"/>
<path d="M252.386 56.323C252.478 49.5076 253.317 43.9999 256.493 40.0922C259.67 36.1691 265.078 33.9307 274.032 33.9307C291.386 33.9307 295.301 42.0537 295.301 51.9384C295.301 60.8999 292.032 66.5922 287.086 71.5307L276.824 81.5153C275.332 83.0076 273.186 84.9691 272.532 86.9307H295.309V99.9999H251.824C251.824 90.8537 254.155 82.4614 261.717 74.7153L273.293 62.9537C276.655 59.5922 277.963 57.0768 277.963 52.1307C277.963 46.5307 276.186 44.7537 273.486 44.7537C271.063 44.7537 268.632 46.0614 268.632 53.5307V56.3307H252.386V56.323Z" fill="white"/>
</g>
<defs>
<clipPath id="clip0_4_5494">
<rect width="295.308" height="100" fill="white"/>
</clipPath>
</defs>
</svg>
