<svg width="272" height="100" viewBox="0 0 272 100" fill="none" xmlns="http://www.w3.org/2000/svg">
<g clip-path="url(#clip0_4_5498)">
<path d="M269.718 2.08864V97.9114H2.08864V2.08864H269.718ZM271.807 0H269.718H2.08864H0V2.08864V97.9114V100H2.08864H269.711H271.8V97.9114V2.08864V0H271.807Z" fill="white"/>
<path d="M112.822 13.7778L120.825 25.048L128.83 13.7778H142.389L127.606 34.5959L143.331 56.7402H129.772L120.825 44.1443L111.881 56.7402H98.315L114.043 34.5966L107.111 24.837H79.1915C75.9276 24.837 75.9276 29.7365 79.1915 29.7365H88.8984C106.894 29.7365 106.896 56.7331 88.9055 56.7402H58.9352L53.6605 37.3972L48.3787 56.7402H38.4099L33.1352 37.3972L27.8534 56.7402H16.3906L28.1153 13.7778H38.155L43.3943 33.0146L48.6407 13.7778H58.6733L67.3746 45.681H88.8984C92.1624 45.681 92.1624 40.7815 88.8984 40.7815V40.7957H79.1915V40.7815C61.1938 40.7815 61.1938 13.7778 79.1915 13.7778H112.822Z" fill="white"/>
<path d="M32.4838 82.4343H39.3091V86.2222H25.9276C23.8389 86.2222 22.1397 84.53 22.1397 82.4343V72.7982H16.3906V69.0103H22.1397V63.1904H31.0465V69.0103H39.302V72.7982H31.0465V81.0041C31.0465 81.7971 31.6908 82.4414 32.4838 82.4343Z" fill="white"/>
<path d="M57.6532 69.0103V82.4342H52.6405V69.0103H43.7266V82.4342C43.7266 84.5299 45.4258 86.2221 47.5144 86.2221H48.7818H52.6405H57.6532H64.6413H66.56V69.0173H57.6532V69.0103Z" fill="white"/>
<path d="M89.3088 69.0103H81.2303H78.0372C74.8794 69.0103 72.3164 71.5733 72.3164 74.731V86.2221H81.2232V72.7981H89.3017L89.3088 69.0103Z" fill="white"/>
<path d="M101.749 69.0101V63.1831H92.8418V86.2148H109.955C113.112 86.2148 115.675 83.0571 115.675 78.3417V76.869C115.675 72.1607 113.112 68.9959 109.955 68.9959H101.749V69.0101ZM101.749 82.4411V72.805H106.761V82.4411H101.749Z" fill="white"/>
<path d="M137.617 69.0103H135.542H129.418H126.225C123.067 69.0103 120.504 72.168 120.504 76.8834V78.356C120.504 83.0643 123.067 86.2292 126.225 86.2292H127.35H135.542H137.617C140.774 86.2292 143.337 83.0714 143.337 78.356V76.8834C143.33 72.1751 140.774 69.0103 137.617 69.0103ZM134.423 82.4413H129.411V72.8052H134.423V82.4413Z" fill="white"/>
<path d="M167.24 6.06055V93.9535H265.746V6.06055H167.24ZM244.824 86.222H228.965V57.6253H219.017V57.6182H204.022V86.222H188.162V13.7779H204.022H219.725H224.958L240.831 26.4797L240.824 26.4868H240.831V41.7586H224.972V27.9948H224.965V29.6516H204.022V41.7657H224.958H224.965L244.817 57.6253H244.824V86.222Z" fill="white"/>
</g>
<defs>
<clipPath id="clip0_4_5498">
<rect width="271.807" height="100" fill="white"/>
</clipPath>
</defs>
</svg>
