<svg width="712" height="100" viewBox="0 0 712 100" fill="none" xmlns="http://www.w3.org/2000/svg">
<g clip-path="url(#clip0_4_5507)">
<path d="M266.569 0.00141781C262.644 0.0180948 258.699 0.259602 258.248 0.70988C257.673 1.28554 257.605 5.35719 257.605 39.3856C257.605 63.5863 257.457 77.8069 257.198 78.4881C256.377 80.6469 255.482 80.7469 237.038 80.7469C218.096 80.7469 217.971 80.7284 216.548 77.8804C215.882 76.5474 215.832 73.826 215.832 38.9007C215.832 5.31396 215.763 1.28554 215.188 0.70988C214.623 0.145334 212.437 0.0668903 197.382 0.0668903H180.219L179.569 1.0601C178.983 1.95386 178.934 5.77164 179.08 39.2497C179.235 74.9607 179.275 76.5944 180.082 80.133C182.656 91.4344 188.16 97.448 197.693 99.3757C199.917 99.8248 206.132 99.9199 228.732 99.8501C254.245 99.771 257.229 99.6932 259.448 99.0477C267.587 96.6796 271.647 92.2676 274.064 83.1639C274.974 79.7371 274.978 79.5641 275.112 40.4678C275.212 11.1083 275.127 1.06751 274.771 0.639466C274.4 0.192276 270.495 -0.0152591 266.569 0.00141781ZM702.926 0.0273598C698.933 0.0421837 694.955 0.242925 694.644 0.617848C694.317 1.01254 694.157 11.4783 694.082 37.4776L693.978 73.7871L677.623 37.4949C668.628 17.5345 661.012 0.947681 660.7 0.635142C660.229 0.164481 656.309 0.0668903 637.864 0.0668903H615.596L614.958 0.976711C614.39 1.78832 614.321 7.12804 614.321 50.1225C614.321 97.8118 614.33 98.3671 615.14 99.1768C615.897 99.9347 616.505 99.9965 623.253 99.9965C628.905 99.9965 630.725 99.8649 631.341 99.4146C632.115 98.8489 632.141 97.8674 632.341 62.2917L632.545 25.75L649.112 62.4931C658.765 83.9014 665.975 99.3949 666.389 99.616C666.799 99.8359 676.248 99.9965 688.802 99.9965C707.987 99.9965 710.581 99.9211 711.149 99.3523C711.727 98.7747 711.793 93.7241 711.793 49.8791C711.793 12.4468 711.678 0.93471 711.301 0.557934C710.929 0.185482 706.92 0.0131535 702.926 0.0273598ZM421.377 0.065655L385.836 0.0668903C352.035 0.0668903 350.142 0.105186 347.196 0.858737C342.978 1.93718 340.191 3.43193 337.642 5.98042C334.113 9.50976 331.769 15.1583 330.923 22.1713C330.374 26.7222 330.37 73.3467 330.918 77.7173C331.728 84.1818 333.787 89.6846 336.708 93.1966C339.224 96.2225 344.072 98.771 348.837 99.5734V99.5709C351.852 100.08 422.959 100.079 423.908 99.5709C424.68 99.1583 424.7 98.3893 424.7 69.2547V39.3621L423.65 38.9625C423.008 38.7185 412.755 38.5629 397.325 38.5629C375.113 38.5629 371.941 38.6407 371.141 39.2009C370.25 39.8248 370.23 40.0187 370.23 48.3337C370.23 54.3949 370.371 56.9693 370.722 57.3201C371.073 57.671 373.652 57.8118 379.732 57.8118H388.251V68.028C388.251 78.2337 388.248 78.2448 387.263 79.3924L386.275 80.5419L378.279 80.6679C369.402 80.8087 368.072 80.5277 367.472 78.3844C367.063 76.923 367.063 23.1373 367.472 21.6765C368.141 19.2855 367.796 19.3146 395.602 19.3146C420.468 19.3146 421.032 19.2967 421.833 18.4955C422.596 17.7327 422.652 17.1305 422.652 9.78153C422.652 3.29851 422.539 1.72347 422.015 0.976094L421.377 0.065655ZM1.27486 0.0668903L0.63743 0.976711C0.0691785 1.78832 0 7.12804 0 50.1225C0 97.8118 0.00864735 98.3671 0.818406 99.1768C1.57628 99.9347 2.18345 99.9965 8.93144 99.9965C14.5831 99.9965 16.404 99.8649 17.0198 99.4146C17.7925 98.8501 17.8203 97.9032 18.0198 65.8476L18.2242 32.8618L28.4107 65.9168C34.2903 84.9965 38.8684 99.1886 39.2397 99.4844C39.7202 99.8668 42.8425 99.9965 51.6028 99.9965C60.3453 99.9965 63.4947 99.8662 63.9994 99.4844C64.4151 99.17 68.7505 86.1392 75.2378 65.708L85.7999 32.4443L86.0043 65.8254C86.1828 94.9014 86.2891 99.2571 86.824 99.595C87.1847 99.8235 94.4033 99.986 104.332 99.9897C120.684 99.9959 121.252 99.9699 122.045 99.1768C122.855 98.3671 122.864 97.8118 122.864 50.1225C122.864 7.12804 122.795 1.78832 122.227 0.976711L121.589 0.0668903H100.12H78.6516L78.0587 0.987829C77.7326 1.49493 73.9246 12.8754 69.5967 26.2775C65.2681 39.6802 61.6053 50.7834 61.4571 50.952C61.3088 51.1206 57.7999 40.1027 53.659 26.4671C49.5188 12.8322 45.8777 1.31457 45.567 0.871708C45.0185 0.0885086 44.4114 0.0668903 23.139 0.0668903H1.27486ZM482.083 0.0668903L481.445 0.976711C480.877 1.78832 480.808 7.12804 480.808 50.1225C480.808 97.8118 480.817 98.3671 481.627 99.1768C482.434 99.9841 482.993 99.9965 520.356 99.9965C545.706 99.9965 558.529 99.8557 559.059 99.5721C559.804 99.1731 559.851 98.6302 559.851 90.4394C559.851 84.2114 559.711 81.5901 559.36 81.2386C558.99 80.8699 553.744 80.7469 538.267 80.7469H517.668V69.28V57.813H536.721H555.775L556.198 56.7006C556.833 55.0298 556.521 39.9829 555.838 39.3004C555.42 38.8834 551.242 38.7439 536.486 38.6543L517.668 38.54V28.9279V19.3152H537.967C551.177 19.3152 558.543 19.1676 559.059 18.8915C559.804 18.4925 559.851 17.9495 559.851 9.75806C559.851 3.53076 559.711 0.909386 559.36 0.557934C558.984 0.182394 549.791 0.0668903 520.476 0.0668903H482.083ZM100.406 3.34237H119.587V3.34793H100.558L100.406 3.34237ZM150.918 71.3275C136.439 71.3275 134.31 71.4078 133.746 71.9712C133.188 72.5295 133.103 74.3473 133.103 85.6617C133.103 96.9767 133.188 98.7945 133.746 99.3523C134.31 99.9162 136.439 99.9965 150.918 99.9965C165.398 99.9965 167.526 99.9162 168.09 99.3523C168.647 98.7945 168.733 96.9767 168.733 85.6617C168.733 74.3473 168.647 72.5295 168.09 71.9712C167.526 71.4078 165.398 71.3275 150.918 71.3275ZM303.679 71.3275C289.2 71.3275 287.071 71.4078 286.507 71.9712C285.949 72.5295 285.863 74.3473 285.863 85.6617C285.863 96.9767 285.949 98.7945 286.507 99.3523C287.071 99.9162 289.2 99.9965 303.679 99.9965C318.159 99.9965 320.287 99.9162 320.851 99.3523C321.409 98.7945 321.494 96.9767 321.494 85.6617C321.494 74.3473 321.409 72.5295 320.851 71.9712C320.287 71.4078 318.159 71.3275 303.679 71.3275ZM452.754 71.3275C438.274 71.3275 436.146 71.4078 435.582 71.9712C435.025 72.5295 434.939 74.3473 434.939 85.6617C434.939 96.9767 435.025 98.7945 435.582 99.3523C436.146 99.9162 438.274 99.9965 452.754 99.9965C467.233 99.9965 469.362 99.9162 469.926 99.3523C470.484 98.7945 470.569 96.9767 470.569 85.6617C470.569 74.3473 470.484 72.5295 469.926 71.9712C469.362 71.4078 467.233 71.3275 452.754 71.3275ZM586.266 71.3275C571.787 71.3275 569.659 71.4078 569.095 71.9712C568.537 72.5295 568.452 74.3473 568.452 85.6617C568.452 96.9767 568.537 98.7945 569.095 99.3523C569.659 99.9162 571.787 99.9965 586.266 99.9965C600.746 99.9965 602.875 99.9162 603.439 99.3523C603.996 98.7945 604.082 96.9767 604.082 85.6617C604.082 74.3473 603.996 72.5295 603.439 71.9712C602.875 71.4078 600.746 71.3275 586.266 71.3275Z" fill="white"/>
</g>
<defs>
<clipPath id="clip0_4_5507">
<rect width="711.797" height="100" fill="white"/>
</clipPath>
</defs>
</svg>
