<svg width="639" height="100" viewBox="0 0 639 100" fill="none" xmlns="http://www.w3.org/2000/svg">
<g clip-path="url(#clip0_4_5509)">
<path d="M187.967 59.5974H178.382C177.434 59.5936 176.666 58.8249 176.662 57.8768V3.81626C176.662 2.87005 177.436 2.0957 178.382 2.0957H187.969C188.915 2.0957 189.69 2.87005 189.69 3.81626V57.8787C189.684 58.8268 188.915 59.5936 187.967 59.5974ZM202.546 59.5974H192.959C192.011 59.5936 191.242 58.8249 191.238 57.8768V3.81626C191.238 2.87005 192.013 2.0957 192.959 2.0957H202.546C203.492 2.0957 204.266 2.87005 204.266 3.81626V57.8787C204.266 58.8231 203.492 59.5974 202.546 59.5974ZM83.1211 50.8662C79.8651 50.8662 79.7102 48.5243 79.7102 46.2522V26.5877H84.8133C85.803 26.5877 86.6113 25.8473 86.6113 24.9408V19.713C86.6113 18.8083 85.803 18.0661 84.8133 18.0661H79.7102V6.29794C79.7102 5.39328 78.9019 4.65104 77.9122 4.65104H68.4822C67.4925 4.65104 66.6842 5.39139 66.6842 6.29794V18.0699H56.7726C55.7829 18.0699 54.9746 18.8102 54.9746 19.7168V24.9445C54.9746 25.8492 55.7829 26.5914 56.7726 26.5914H66.6823V49.8048C66.6823 56.1355 71.4115 59.6012 77.0718 59.6012H91.4935V50.87C91.4953 50.8662 86.3771 50.8662 83.1211 50.8662Z" fill="white"/>
<path d="M114.56 16.4002C109.306 16.4002 104.624 18.508 101.262 22.3627V3.74065C101.262 2.83599 100.454 2.09375 99.4643 2.09375H90.0343C89.0447 2.09375 88.2363 2.8341 88.2363 3.74065V57.9504C88.2363 58.8551 89.0447 59.5973 90.0343 59.5973H99.4643C100.454 59.5973 101.262 58.857 101.262 57.9504V34.2366C101.262 29.9248 105.14 26.5876 109.85 26.5876C114.56 26.5876 117.414 30.0136 117.414 33.1903V57.9542C117.414 58.8589 118.222 59.6011 119.212 59.6011H128.642C129.632 59.6011 130.44 58.8608 130.44 57.9542V34.8372V30.8484C130.44 24.9728 125.029 16.4002 114.56 16.4002Z" fill="white"/>
<path d="M171.553 42.1678H177.419C177.614 40.9742 177.718 39.7484 177.718 38.4944C177.718 25.7611 167.353 15.4397 153.991 15.4397C140.63 15.4397 130.264 25.7611 130.264 38.4944C130.264 51.2276 140.629 61.1222 153.991 61.1222C164.189 61.1222 172.637 55.3524 176.067 46.9593H163.56C161.568 49.6374 158.178 51.3258 153.583 51.3258C148.704 51.3258 144.578 47.4749 143.199 42.1678H171.553ZM153.583 25.238C158.025 25.238 161.842 28.4336 163.53 33.0116H143.635C145.324 28.4336 149.141 25.238 153.583 25.238ZM228.367 15.4397C214.384 15.4397 203.536 25.7611 203.536 38.4944C203.536 51.2276 214.384 61.1222 228.367 61.1222C242.351 61.1222 253.199 51.2257 253.199 38.4944C253.199 25.763 242.351 15.4397 228.367 15.4397ZM228.367 51.7583C219.587 51.7583 217.194 45.9205 217.194 38.4075C217.194 30.8945 220.286 24.8055 228.367 24.8055C236.449 24.8055 239.541 30.8945 239.541 38.4075C239.541 45.9205 237.15 51.7583 228.367 51.7583ZM32.158 0C14.3971 0 0 13.8494 0 30.9341C0 48.0188 14.3971 61.8682 32.158 61.8682C49.9188 61.8682 64.3159 48.0188 64.3159 30.9341C64.3159 13.8494 49.9188 0 32.158 0ZM32.7642 51.3504C21.0527 51.3504 15.7192 42.2093 15.7192 30.9341C15.7192 19.6589 21.6325 10.5179 32.7642 10.5179C43.8959 10.5179 49.8092 19.6589 49.8092 30.9341C49.8092 42.2093 44.4757 51.3504 32.7642 51.3504Z" fill="white"/>
<path d="M547.687 13.4889H536.965C536.331 13.487 535.815 12.9714 535.813 12.3369V6.54817C535.813 5.91547 536.331 5.39609 536.965 5.39609H547.687C548.32 5.39609 548.839 5.91358 548.839 6.54817V12.3369C548.839 12.9696 548.32 13.4889 547.687 13.4889ZM490.506 13.4889H479.752C479.125 13.487 478.617 12.979 478.616 12.352V6.53117C478.616 5.90603 479.127 5.3942 479.752 5.3942H490.506C491.132 5.3942 491.643 5.90603 491.643 6.53117V12.352C491.642 12.979 491.133 13.487 490.506 13.4889ZM436.117 13.4889H425.256C424.659 13.487 424.175 13.0036 424.173 12.4067V6.47829C424.173 5.88336 424.661 5.39609 425.256 5.39609H436.117C436.712 5.39609 437.199 5.88336 437.199 6.47829V12.4067C437.198 13.0036 436.714 13.487 436.117 13.4889ZM395.538 60.3425H385.951C385.003 60.3387 384.234 59.57 384.23 58.6219V4.55942C384.23 3.61321 385.005 2.83887 385.951 2.83887H395.538C396.484 2.83887 397.258 3.61321 397.258 4.55942V58.6219C397.258 59.5681 396.484 60.3425 395.538 60.3425ZM547.119 60.3425H537.532C536.584 60.3387 535.815 59.57 535.811 58.6219V18.6166C535.811 17.6704 536.586 16.8961 537.532 16.8961H547.119C548.065 16.8961 548.839 17.6704 548.839 18.6166V58.6219C548.839 59.5681 548.065 60.3425 547.119 60.3425ZM489.923 60.3425H480.336C479.388 60.3387 478.619 59.57 478.616 58.6219V18.6166C478.616 17.6704 479.39 16.8961 480.336 16.8961H489.923C490.869 16.8961 491.643 17.6704 491.643 18.6166V58.6219C491.643 59.5681 490.869 60.3425 489.923 60.3425ZM435.481 60.3425H425.894C424.946 60.3387 424.177 59.57 424.173 58.6219V18.6166C424.173 17.6704 424.948 16.8961 425.894 16.8961H435.481C436.427 16.8961 437.201 17.6704 437.201 18.6166V58.6219C437.201 59.5681 436.427 60.3425 435.481 60.3425Z" fill="white"/>
<path d="M418.891 51.6116C415.635 51.6116 415.48 49.2697 415.48 46.9977V27.3331H421.18C421.841 27.3331 422.38 26.8383 422.38 26.2339V19.9126C422.38 19.3082 421.84 18.8134 421.18 18.8134H415.48V6.48246C415.48 5.88564 414.946 5.39648 414.294 5.39648H403.639C402.987 5.39648 402.453 5.88564 402.453 6.48246V18.8134H391.944C391.285 18.8134 390.745 19.3082 390.745 19.9126V26.2339C390.745 26.8383 391.285 27.3331 391.944 27.3331H402.453V50.5464C402.453 56.8772 407.182 60.3428 412.842 60.3428H427.264V51.6116H418.891ZM623.124 17.1457C617.87 17.1457 613.188 19.2535 609.826 23.1082V17.6897C609.826 16.785 609.017 16.0428 608.028 16.0428H598.598C597.608 16.0428 596.8 16.7831 596.8 17.6897V58.6959C596.8 59.6006 597.608 60.3428 598.598 60.3428H608.028C609.017 60.3428 609.826 59.6025 609.826 58.6959V34.9802C609.826 30.6684 613.703 27.3312 618.414 27.3312C623.124 27.3312 625.978 30.7572 625.978 33.9339V58.6978C625.978 59.6025 626.786 60.3447 627.776 60.3447H637.206C638.195 60.3447 639.004 59.6044 639.004 58.6978V35.5808V31.592C639.004 25.7164 633.593 17.1457 623.124 17.1457ZM354.472 59.2418C359.726 59.2418 364.408 57.134 367.769 53.2793V58.6959C367.769 59.6006 368.578 60.3428 369.567 60.3428H378.998C379.987 60.3428 380.795 59.6025 380.795 58.6959V17.6897C380.795 16.785 379.987 16.0428 378.998 16.0428H369.567C368.578 16.0428 367.769 16.7831 367.769 17.6897V41.4054C367.769 45.7172 363.892 49.0544 359.182 49.0544C354.472 49.0544 351.618 45.6284 351.618 42.4517V17.6897C351.618 16.785 350.809 16.0428 349.82 16.0428H340.39C339.4 16.0428 338.592 16.7831 338.592 17.6897V44.7955C338.592 50.6711 344.005 59.2418 354.472 59.2418Z" fill="white"/>
<path d="M572.972 16.186C558.989 16.186 548.14 26.5074 548.14 39.2407C548.14 51.9739 558.989 61.8685 572.972 61.8685C586.956 61.8685 597.804 51.972 597.804 39.2407C597.804 26.5093 586.956 16.186 572.972 16.186ZM572.972 52.5046C564.192 52.5046 561.797 46.6668 561.797 39.1538C561.797 31.6408 564.889 25.5518 572.972 25.5518C581.056 25.5518 584.147 31.6408 584.147 39.1538C584.147 46.6668 581.755 52.5046 572.972 52.5046ZM478.531 16.8961H469.101C468.111 16.8961 467.085 17.6365 466.821 18.543L458.367 47.428L448.259 18.543C447.942 17.6384 446.875 16.8961 445.885 16.8961H436.455C435.466 16.8961 434.916 17.6365 435.233 18.543L445.423 47.6659C445.511 48.0002 445.608 48.344 445.712 48.7009C449.317 61.0224 458.366 60.3425 458.366 60.3425C458.366 60.3425 467.414 61.0224 471.019 48.7009L479.845 18.543C480.111 17.6365 479.52 16.8961 478.531 16.8961ZM512.942 25.8407H541.243V16.8961H510.15C502.56 16.8961 496.348 22.5828 496.348 29.533C496.348 36.4833 502.558 42.17 510.15 42.17H513.331C516.062 42.17 518.37 44.2834 518.37 46.7839C518.37 49.2845 516.062 51.3979 513.329 51.3979H489.06V60.3425H517.051C525.197 60.3425 531.86 54.2403 531.86 46.7839C531.86 39.3257 525.195 33.2253 517.051 33.2253H512.942C510.757 33.2253 508.909 31.535 508.909 29.533C508.909 27.5311 510.757 25.8407 512.942 25.8407ZM334.359 8.19891L334.355 8.17624C334.206 6.86175 333.586 5.58313 332.493 4.58026C331.399 3.57739 330.002 3.0108 328.566 2.87482L328.542 2.87104C328.323 2.85026 328.104 2.84082 327.885 2.84082H327.881L327.773 2.84649C327.598 2.84837 327.42 2.85782 327.244 2.87104C327.154 2.87859 327.065 2.89559 326.974 2.90692C326.852 2.92203 326.727 2.93714 326.604 2.95981C326.532 2.97303 326.461 2.99191 326.391 3.00702C326.249 3.03724 326.107 3.06746 325.97 3.10712C325.934 3.11656 325.9 3.12978 325.866 3.14112C324.921 3.42252 324.032 3.89846 323.284 4.58215L318.723 8.75795L312.976 14.0197L306.481 19.9671L299.986 14.0197L294.238 8.75795L289.677 4.58215C288.937 3.91168 288.055 3.41875 287.096 3.14112L286.992 3.10712C286.852 3.06746 286.71 3.03724 286.571 3.00702C286.499 2.99191 286.429 2.97303 286.357 2.95981C286.234 2.93714 286.112 2.92392 285.987 2.90692C285.896 2.89559 285.808 2.88048 285.717 2.87104C285.541 2.85593 285.364 2.84837 285.188 2.84649L285.08 2.84082H285.077C284.858 2.84082 284.638 2.85215 284.419 2.87104L284.395 2.87482C282.958 3.0108 281.562 3.57739 280.468 4.58026C279.431 5.51325 278.769 6.79187 278.606 8.17624L278.602 8.19891C278.58 8.3991 278.568 8.5993 278.568 8.80139V58.6994C278.568 59.6041 279.377 60.3463 280.366 60.3463H289.796C290.786 60.3463 291.594 59.6059 291.594 58.6994V23.225L304.507 35.0479C305.635 36.0451 307.327 36.0451 308.454 35.0479L321.367 23.225V58.6994C321.367 59.6041 322.175 60.3463 323.165 60.3463H332.595C333.585 60.3463 334.393 59.6059 334.393 58.6994V8.80327V8.7995C334.393 8.5993 334.382 8.39722 334.359 8.19891Z" fill="white"/>
<path d="M105.613 73.3232H533.392V99.7643H105.613V73.3232ZM156.359 82.2282H150.335V78.0958H148.442V82.2244H139.717V83.9072H147.254C145.768 86.71 143.207 89.4957 139.569 92.2645L140.946 93.7055C144.325 91.1558 146.824 88.6288 148.442 86.1264V94.9784C148.442 95.0483 150.335 95.6791 150.335 95.0427V83.9091H156.359V82.2282ZM173.312 82.6985L164.975 83.9714V78.9986H162.977V84.2963L157.963 85.0536L158.237 86.9253L162.977 86.1887V92.4968C162.973 93.035 163.185 93.5525 163.566 93.9321C163.959 94.3439 164.435 94.5478 164.996 94.5478H173.291V92.6762H165.565C165.172 92.6762 164.975 92.4968 164.975 92.1398V85.9167L171.115 84.9913C170.241 86.3266 169.229 87.5655 168.097 88.6911L169.557 89.9433C170.904 88.625 172.271 86.8176 173.657 84.5191L173.312 82.6985ZM194.982 80.7437H182.912V93.1918H184.868V92.2456H193.025V93.1918H194.982V80.7437ZM184.868 90.4381V82.5738H193.025V90.4381H184.868ZM217.357 84.1924V82.4246H207.075C207.636 80.9326 208.021 79.7484 208.231 78.8721L206.444 78.3565C205.279 82.2414 203.643 85.3482 201.534 87.6826L203.111 88.8385C204.346 87.4258 205.402 85.8638 206.255 84.1924H211.417C211.081 88.2435 209.164 91.6601 205.666 94.4421L207.222 95.6829C210.92 92.6837 212.968 88.8536 213.361 84.1924H217.357ZM215.075 78.7474L213.74 79.4103C214.445 80.2168 215.068 81.0893 215.6 82.0167L216.956 81.3972C216.373 80.3528 215.746 79.4689 215.075 78.7474ZM217.313 77.8428L216.02 78.5472C216.888 79.5633 217.544 80.5133 217.986 81.3972L219.28 80.7022C218.69 79.5463 218.035 78.5926 217.313 77.8428ZM238.396 85.7807H222.575V87.6826H238.396V85.7807ZM254.172 86.3889L252.531 87.5447C253.577 88.5363 254.544 89.609 255.423 90.7517C252.501 91.1029 249.802 91.3258 247.328 91.424C249.086 87.6033 250.552 83.6522 251.711 79.6087L249.777 79.0836C248.487 83.8411 246.918 87.9905 245.067 91.5298H242.281L242.787 93.5601C248.455 93.3844 253.113 93.0294 256.758 92.4968C257.173 93.0804 257.56 93.6828 257.914 94.3061L259.449 93.1502C258.307 91.0614 256.546 88.8082 254.172 86.3889ZM281.854 80.6172H274.337C274.402 79.535 274.454 78.4528 274.494 77.3687L272.57 77.3479C272.553 78.4377 272.511 79.5293 272.443 80.6172H264.758V96.072H266.734V82.4057H272.201C271.767 85.8393 270.162 88.7969 267.387 91.2786L268.785 92.6346C271.021 90.4211 272.549 88.1283 273.368 85.76C274.995 87.7147 276.522 90.0359 277.952 92.7196L279.488 91.4901C277.845 88.7081 275.977 86.064 273.905 83.5843C274.001 83.1952 274.075 82.8023 274.126 82.4057H279.939V93.5808C279.939 94.0228 279.701 94.2438 279.225 94.2438C277.452 94.2438 276.362 94.2305 275.956 94.2022L276.619 96.0946C277.493 96.1475 278.371 96.1683 279.248 96.157C280.985 96.157 281.854 95.3958 281.854 93.8755V80.6172ZM301.981 91.5279C301.751 93.2522 301.47 94.1153 301.141 94.1153C300.979 94.1153 300.725 93.9321 300.378 93.5639C300.03 93.1956 299.738 92.7347 299.5 92.1814C300.557 90.372 301.479 88.1831 302.265 85.6108L300.561 85.1159C299.887 87.2822 299.264 88.897 298.69 89.9622C298.253 88.3909 298.002 86.4758 297.932 84.2113H303.336V82.6343H297.891C297.87 82.2282 297.87 81.8203 297.891 81.4142L296.042 81.3726C296.013 81.7919 296.013 82.215 296.042 82.6343H285.896V88.7742C285.896 91.3674 285.409 93.392 284.434 94.85L285.875 96.2061C287.095 94.3495 287.705 91.9736 287.705 89.0783V84.2113H296.104C296.272 87.456 296.718 90.1057 297.439 92.1587C296.801 93.0898 295.898 94.1739 294.727 95.4072L296.272 96.3118C297.141 95.4223 297.838 94.6272 298.363 93.9265C299.394 95.4336 300.357 96.1872 301.254 96.1872C301.991 96.1872 302.559 95.7282 302.958 94.8104C303.356 93.8925 303.57 93.0936 303.598 92.4137L301.981 91.5279ZM293.517 78.568H291.297V77.2969H289.384V78.568H284.579V80.2508H289.384V81.5861H291.297V80.2508H293.517V78.568ZM295.671 85.182H288.585V94.5271H295.345V93.0445H293.452V91.7734H295.303V87.8091H293.452V86.6212H295.671V85.182ZM290.332 87.8091V86.6212H291.751V87.8091H290.332ZM290.33 90.4589V89.1029H293.579V90.4589H290.33ZM290.332 93.0445V91.7734H291.751V93.0445H290.332ZM303.334 78.568H298.667V77.2969H296.701V78.568H294.419V80.2508H296.701V80.8287H298.667V80.2508H303.334V78.568ZM300.193 80.3773L299.182 81.4387C300.563 82.0507 301.324 82.4001 301.464 82.4907L302.452 81.3764C301.694 80.9836 300.941 80.6493 300.193 80.3773ZM327.474 88.8385C329.116 87.9923 330.63 86.9196 331.973 85.6523L330.617 84.4436C329.265 85.7751 327.848 86.8082 326.37 87.5447C325.977 86.4871 325.333 85.4672 324.436 84.4851C324.962 84.1773 325.399 83.8487 325.75 83.4974H330.166V81.8259H318.003V83.4974H323.229C320.732 84.8855 317.976 85.743 315.134 86.0206L315.997 87.6599C318.611 87.1972 320.908 86.4493 322.883 85.42C323.333 85.9035 323.578 86.1736 323.62 86.2302C320.843 88.2284 317.906 89.4863 314.809 90.0038L315.629 91.5713C318.938 90.8839 321.875 89.5486 324.439 87.5655C324.63 87.9225 324.781 88.3002 324.891 88.6893C321.997 91.3107 318.449 93.1011 314.62 93.8736L315.461 95.4922C319.251 94.5252 322.496 92.9028 325.195 90.6251C325.208 90.9273 325.216 91.2521 325.216 91.6034C325.216 92.7045 325.17 93.3618 325.08 93.5752C324.995 93.7829 324.862 93.968 324.696 94.1172C324.532 94.2645 324.186 94.3382 323.661 94.3382C323.24 94.3382 322.536 94.3212 321.548 94.2853L322.179 96.1154C322.753 96.1381 323.219 96.1475 323.576 96.1475C324.942 96.1475 325.865 95.8453 326.341 95.2391C326.817 94.6328 327.055 93.5053 327.055 91.8584C327.055 91.4788 327.044 91.1426 327.023 90.848C328.222 92.391 330.066 93.8604 332.553 95.2542L333.646 93.6866C330.863 92.2645 328.806 90.6478 327.474 88.8385ZM332.942 78.8947H325.142C324.842 78.313 324.519 77.7521 324.175 77.212L322.135 77.6218C322.449 78.0184 322.723 78.4452 322.955 78.8947H315.196V82.7948H317.098V80.5964H331.07V82.7948H332.942V78.8947ZM354.563 78.8947H346.941C346.429 77.975 346.106 77.4292 345.974 77.2535L343.924 77.686C344.244 78.0562 344.519 78.4604 344.744 78.8947H337.448V87.9357C337.448 90.7592 336.916 93.1502 335.851 95.105L337.407 96.2929C338.695 94.0776 339.341 91.3579 339.341 88.134V80.6814H354.563V78.8947ZM354.828 94.0096H348.344C346.431 94.0096 344.952 93.6488 343.907 92.9274C344.512 91.7923 344.935 90.3305 345.18 88.5438V86.7779H342.636C343.492 85.8865 344.257 84.9101 344.918 83.8657V82.0998H340.187V83.8657H342.752C341.792 85.1764 340.937 86.1471 340.187 86.7779V88.5438H343.288C343.218 89.6732 342.978 90.6383 342.572 91.4448C342.327 91.0727 342.019 90.3418 341.647 89.2483L339.922 89.8262C340.489 91.3334 341.042 92.3948 341.583 93.0124C340.923 93.6923 340.083 94.274 339.059 94.7575L340.289 96.2514C341.401 95.6206 342.27 94.9784 342.895 94.3269C344.372 95.3505 346.238 95.8623 348.487 95.8623H354.259L354.828 94.0133V94.0096ZM354.323 90.7743H350.863V88.0415H353.575V86.3077H350.863V83.8675C351.872 83.6995 353.005 83.4332 354.259 83.0687L353.23 81.4822C351.071 82.1357 348.518 82.5417 345.566 82.7023L346.291 84.4266C346.999 84.3775 347.889 84.3 348.961 84.1943V86.3077H346.164V88.0415H348.961V90.7743H345.46V92.5402H354.323V90.7743ZM374.458 93.9699V77.8012H358.522V87.337C358.512 88.761 358.346 90.1794 358.027 91.5676C357.698 93.0426 357.232 94.2287 356.629 95.1258L358.333 96.2287C359.37 94.5894 360.008 92.3853 360.246 89.6166H365.461V95.6395H367.289V89.6166H372.588V93.4959C372.585 93.6715 372.513 93.8396 372.388 93.9642C372.277 94.0983 372.111 94.1777 371.937 94.1796L369.531 94.2003L370.109 96.0928C370.628 96.1286 371.129 96.1456 371.612 96.1456C372.67 96.1456 373.408 95.9284 373.829 95.494C374.25 95.0597 374.458 94.5516 374.458 93.9699ZM360.435 82.7948V79.6729H365.461V82.7948H360.435ZM360.435 87.8091V84.5815H365.461V87.8091H360.435ZM367.289 82.7948V79.6729H372.588V82.7948H367.289ZM367.289 87.8091V84.5815H372.588V87.8091H367.289ZM394.697 85.4238V83.656H378.959V85.4219H386.149C386.164 87.286 386.096 88.6345 385.945 89.4636C385.794 90.2946 385.39 91.0897 384.731 91.8452C384.071 92.6025 383.01 93.3183 381.544 93.9907L382.838 95.4525C384.423 94.731 385.599 93.8755 386.366 92.8877C387.133 91.9 387.62 90.8404 387.828 89.7072C388.034 88.5759 388.138 87.1481 388.138 85.4238H394.697ZM392.208 79.4085H381.505V81.2178H392.208V79.4085ZM413.967 84.4474C412.144 86.9347 410.469 88.6666 408.941 89.6449C407.413 90.6213 405.657 91.3239 403.674 91.7526V79.2215H401.719V94.0341C404.754 93.6545 407.292 92.8726 409.336 91.6884C411.377 90.5042 413.389 88.5665 415.364 85.8752L413.967 84.4474ZM434.547 93.9699V92.1134H425.338C425.227 92.1134 425.102 92.0529 424.966 91.9302C424.828 91.8074 424.76 91.6903 424.76 91.577V86.54C428.032 86.2057 431.252 85.4974 434.36 84.4266L433.373 82.7967C430.772 83.6995 427.903 84.3454 424.762 84.7307V79.2215H422.734V91.8792C422.721 92.4514 422.964 93.001 423.397 93.3769C423.839 93.7735 424.358 93.9699 424.953 93.9699H434.547ZM433.352 79.1988L432.143 80.009C432.878 80.8835 433.533 81.824 434.1 82.8156L435.35 82.0374C434.838 81.0289 434.173 80.0827 433.352 79.1988ZM435.203 77.9485L433.994 78.7266C434.766 79.6049 435.433 80.5719 435.981 81.6068L437.222 80.7664C436.585 79.6313 435.911 78.6908 435.203 77.9485ZM457.381 82.4246H447.097C447.658 80.9326 448.045 79.7484 448.255 78.8721L446.467 78.3565C445.305 82.2414 443.666 85.3482 441.558 87.6826L443.135 88.8385C444.419 87.354 445.468 85.8053 446.28 84.1924H451.443C451.103 88.2435 449.19 91.6601 445.692 94.4421L447.245 95.6829C450.948 92.6837 452.992 88.8536 453.387 84.1924H457.381V82.4246ZM455.098 78.7474L453.762 79.4103C454.467 80.2168 455.09 81.0893 455.625 82.0167L456.979 81.3972C456.401 80.3528 455.774 79.4689 455.098 78.7474ZM457.338 77.8428L456.046 78.5472C456.913 79.5633 457.57 80.5133 458.012 81.3972L459.304 80.7022C458.716 79.5463 458.061 78.5926 457.338 77.8428ZM478.498 85.7807H462.677V87.6826H478.498V85.7807ZM494.155 86.3889L492.516 87.5447C493.56 88.5382 494.527 89.6109 495.407 90.7517C492.72 91.0822 490.019 91.3069 487.312 91.424C489.071 87.6014 490.536 83.6522 491.696 79.6087L489.762 79.0836C488.474 83.8411 486.901 87.9905 485.052 91.5298H482.266L482.77 93.5601C488.44 93.3844 493.097 93.0294 496.742 92.4968C497.035 92.8896 497.42 93.4921 497.898 94.3061L499.434 93.1502C498.291 91.0614 496.533 88.8082 494.155 86.3889Z" fill="white"/>
</g>
<defs>
<clipPath id="clip0_4_5509">
<rect width="639.002" height="100" fill="white"/>
</clipPath>
</defs>
</svg>
