<svg width="822" height="100" viewBox="0 0 822 100" fill="none" xmlns="http://www.w3.org/2000/svg">
<g clip-path="url(#clip0_4_5517)">
<path d="M443.849 89.8554C443.849 90.8732 442.832 91.8896 441.815 91.8896H404.856C403.838 91.8896 402.821 90.8732 402.821 89.8554V63.0691C402.821 62.0513 403.838 61.0335 404.856 61.0335H441.815C442.832 61.0335 443.849 62.0513 443.849 63.0691V89.8554ZM442.153 52.8965L404.516 52.8992C399.092 52.8992 394.684 57.3074 394.684 62.7335V89.5198C394.684 94.9444 399.092 99.3526 404.516 99.3526H442.153C447.58 99.3526 451.988 94.9444 451.988 89.5198V62.7335C451.988 57.3074 447.58 52.8992 442.153 52.8992" fill="white"/>
<path d="M8.81644 12.8856V47.4705H0V0.678711H7.46027L42.7233 34.9253V0.678711H49.5055H51.2V47.4705H44.4192L8.81644 12.8856Z" fill="white"/>
<path d="M95.959 12.8856V47.4705H87.1426V0.678711H94.6015L129.866 34.9253V0.678711H136.647H138.343V47.4705H131.562L95.959 12.8856Z" fill="white"/>
<path d="M276.006 12.8856V47.4705H267.191V0.678711H274.65L309.915 34.9253V0.678711H316.696H318.391V47.4705H311.609L276.006 12.8856Z" fill="white"/>
<path d="M71.8842 0.678711H73.5801V47.4705H64.7637V0.678711H71.8842Z" fill="white"/>
<path d="M197.34 0.678711H199.036V8.81707H178.014V47.4705H168.858V8.81707H147.836V0.678711H197.002H197.34Z" fill="white"/>
<path d="M252.611 0.678711H254.307V8.81707H217.346V19.328H246.168V27.4664H217.346V39.6719H254.307V47.8102H208.531V1.01844H252.611V0.678711Z" fill="white"/>
<path d="M366.54 39.3335H340.092V8.81707H340.432H366.88C375.356 8.81707 378.069 16.9541 378.069 24.0746C378.069 31.1951 375.017 39.3335 366.88 39.3335M381.121 7.4609C377.73 3.05268 372.644 0.678711 366.54 0.678711H331.955V47.4705H366.54C372.644 47.4705 377.73 45.0979 381.121 40.6897C384.173 36.6212 385.867 30.8568 385.867 24.0746C385.867 17.2938 384.173 11.5294 381.121 7.4609Z" fill="white"/>
<path d="M443.849 37.6376C443.849 38.6554 442.832 39.6719 441.815 39.6719H404.856C403.838 39.6719 402.821 38.6554 402.821 37.6376V10.8513C402.821 9.83351 403.838 8.81707 404.856 8.81707H441.815C442.832 8.81707 443.849 9.83351 443.849 10.8513V37.6376ZM442.153 0.678711H404.516C399.092 0.678711 394.684 5.08693 394.684 10.5116V37.6376C394.684 43.0636 399.092 47.4705 404.516 47.4705H442.153C447.58 47.4705 451.988 43.0636 451.988 37.6376V10.5116C451.988 5.08693 447.58 0.678711 442.153 0.678711Z" fill="white"/>
<path d="M723.586 80.3604C732.402 83.7522 751.39 86.8029 766.309 86.8029C782.585 86.8029 789.367 81.3782 789.367 74.2577C789.367 68.1535 783.263 64.4248 765.291 57.6426C741.217 48.8275 723.924 41.707 723.924 26.1083C723.924 9.833 744.948 0.339844 777.16 0.339844C794.453 0.339844 800.216 1.35628 811.406 3.39053V18.9878C800.556 16.9535 791.061 13.5631 776.142 13.5631C760.206 13.5631 753.424 18.6494 753.424 23.7357C753.424 31.1946 763.935 34.9248 782.246 41.3672C807.676 50.522 821.917 57.6426 821.917 72.9015C821.917 88.8371 804.286 100.028 763.935 100.028C747.66 100.028 736.131 99.0097 723.586 96.9755V80.3604Z" fill="white"/>
<path d="M638.477 13.9034H619.49V86.1253H638.477C667.638 86.1253 686.287 73.5801 686.287 50.1842C686.287 26.7869 667.977 13.9034 638.477 13.9034ZM689.677 92.9075C680.184 97.3157 662.551 100.028 646.954 100.028H587.277V0.678711H646.954C662.551 0.678711 680.523 3.39104 690.017 7.79926C713.075 18.3102 720.533 34.5869 720.533 50.5225C720.533 66.1198 713.075 82.7349 690.017 93.2458" fill="white"/>
<path d="M545.232 45.4356C545.232 45.4356 573.036 41.0274 573.036 23.7356C573.036 6.78082 543.536 0 512.002 0C483.52 0 464.871 3.39041 464.871 3.39041V18.6493C477.756 15.5973 489.962 12.8849 506.917 12.8849C524.887 12.8849 538.79 18.3096 538.79 25.7699C538.79 34.9247 525.227 40.3493 495.727 40.3493H482.164V54.2521H494.71C525.565 54.2521 543.198 58.9986 543.198 70.189C543.198 80.3603 527.601 86.4644 507.934 86.4644C490.98 86.4644 475.383 82.7342 462.498 79.3438V95.9589C468.601 96.9753 484.876 100.366 514.716 100.366C547.945 100.366 577.105 89.5164 577.105 70.8671C577.105 54.9301 557.099 45.7753 545.232 45.7753" fill="white"/>
</g>
<defs>
<clipPath id="clip0_4_5517">
<rect width="821.918" height="100" fill="white"/>
</clipPath>
</defs>
</svg>
