<svg width="695" height="100" viewBox="0 0 695 100" fill="none" xmlns="http://www.w3.org/2000/svg">
<g clip-path="url(#clip0_4_5530)">
<path d="M38.3518 98.0205H72.3371V22.8301H49.3437V65.9464H49.1457L33.9807 22.8301H0V98.0205H22.9796V54.6171H23.1868L38.3518 98.0205Z" fill="white"/>
<path d="M166.562 98.0205H200.547V22.8301H177.568V65.9464H177.361L162.196 22.8301H128.215V98.0205H151.208V54.6171H151.406L166.562 98.0205Z" fill="white"/>
<path d="M387.335 98.0205H421.325V22.8301H398.337V65.9464H398.134L382.974 22.8301H348.988V98.0205H371.972V54.6171H372.175L387.335 98.0205Z" fill="white"/>
<path d="M86.2168 22.8301H114.564V98.0205H86.2168V22.8301Z" fill="white"/>
<path d="M226.781 43.2555H208.768V22.8301H273.195V43.2555H255.119V98.0205H226.781V43.2555Z" fill="white"/>
<path d="M281.564 22.8066H337.623V42.6983H309.465V50.5598H335.393V69.837H309.465V78.2725H338.525V97.9982H281.564V22.8066Z" fill="white"/>
<path d="M433.525 22.8301H467.109C495.749 22.8301 504.866 38.9703 504.866 61.2577C504.866 83.9624 490.801 98.0205 468.804 98.0205H433.525V22.8301ZM461.273 80.9338H464.036C468.597 80.9338 471.651 79.5434 473.437 76.5229C475.316 73.3951 475.533 67.7057 475.533 60.423C475.533 53.1357 475.316 47.4508 473.437 44.3185C471.651 41.2945 468.597 39.903 464.036 39.903H461.273V80.9338Z" fill="white"/>
<path d="M549.302 20.8555C573.975 20.8555 586.256 36.9911 586.256 60.4232C586.256 83.86 573.971 100 549.302 100C524.619 100 512.342 83.86 512.342 60.4232C512.342 36.9911 524.614 20.8555 549.302 20.8555ZM549.302 80.9479C553.655 80.9479 556.931 78.8162 556.931 60.4232C556.931 42.443 553.849 39.9032 549.302 39.9032C544.745 39.9032 541.668 42.443 541.668 60.4232C541.668 78.8162 544.939 80.9479 549.302 80.9479Z" fill="white"/>
<path d="M38.3518 98.0205H72.3371V22.8301H49.3437V65.9464H49.1457L33.9807 22.8301H0V98.0205H22.9796V54.6171H23.1868L38.3518 98.0205Z" fill="white"/>
<path d="M166.562 98.0205H200.547V22.8301H177.568V65.9464H177.361L162.196 22.8301H128.215V98.0205H151.208V54.6171H151.406L166.562 98.0205Z" fill="white"/>
<path d="M387.335 98.0205H421.325V22.8301H398.337V65.9464H398.134L382.974 22.8301H348.988V98.0205H371.972V54.6171H372.175L387.335 98.0205Z" fill="white"/>
<path d="M86.2168 22.8301H114.564V98.0205H86.2168V22.8301Z" fill="white"/>
<path d="M226.781 43.2555H208.768V22.8301H273.195V43.2555H255.119V98.0205H226.781V43.2555Z" fill="white"/>
<path d="M281.564 22.8066H337.623V42.6983H309.465V50.5598H335.393V69.837H309.465V78.2725H338.525V97.9982H281.564V22.8066Z" fill="white"/>
<path d="M636.951 12.8324C635.442 12.7022 633.977 12.761 631.931 12.8555C619.974 13.4066 615.139 18.4769 613.498 24.2125H613.787C616.766 21.6185 620.443 20.4114 625.374 20.4114C634.86 20.4114 643.523 27.2768 643.523 40.159C643.523 52.4855 634.005 62.0878 621.232 62.0878C604.404 62.0878 597.09 49.2909 597.09 35.5694C597.09 24.4269 601.06 14.986 607.577 8.89768C613.783 3.17597 621.777 0.286869 631.571 0.0620583C634.162 -0.0855095 635.703 0.0620583 636.951 0.173887V12.8324ZM621.02 49.9642C624.897 49.9642 627.248 46.0191 627.248 40.981C627.217 36.7315 625.261 32.0958 620.06 32.0958C616.888 32.0958 614.41 34.1018 613.476 36.5205C613.116 37.2653 612.976 38.319 612.976 40.114C613.31 44.9204 615.635 49.9642 620.926 49.9642H621.02Z" fill="white"/>
<path d="M673.173 61.074V47.5808H647.98V36.798L668.207 0.910156H688.333V35.2185H694.737V47.5808H688.333V61.074H673.173ZM673.173 35.2185V24.8807C673.173 21.0566 673.403 17.0861 673.601 12.9035H673.272C671.398 16.9651 669.766 20.8284 667.639 25.0237L662.686 35.0387L662.631 35.2231L673.173 35.2185Z" fill="white"/>
</g>
<defs>
<clipPath id="clip0_4_5530">
<rect width="694.737" height="100" fill="white"/>
</clipPath>
</defs>
</svg>
