<svg width="239" height="100" viewBox="0 0 239 100" fill="none" xmlns="http://www.w3.org/2000/svg">
<g clip-path="url(#clip0_4_5548)">
<path d="M119.813 13.3909L121.964 15.542L123.207 14.2986L121.336 12.4273H125.495V13.4469C125.495 13.6334 125.346 13.7826 125.159 13.7826H124.09V15.542H126.079C126.726 15.542 127.254 15.0136 127.254 14.367V13.7826V12.4335H129.841V11.072H127.261V10.4689H128.865V5.61349H128.237H124.811V5.01045H129.847V3.64893H124.811V2.85938H123.052V3.64893H118.01V5.01045H123.052V5.61349H119.956H118.998V10.4689H120.758H125.501V11.072H118.01V12.4335H120.77L119.813 13.3909ZM127.105 9.38098H124.811V8.33653H127.105V9.38098ZM127.105 6.70146V7.24856H124.811V6.70146H127.105ZM123.052 7.24856H120.758V6.70146H123.052V7.24856ZM120.758 8.33653H123.052V9.38098H120.758V8.33653Z" fill="white"/>
<path d="M134.02 11.7567V11.5267H136.308V15.5491H138.067V11.5267H140.361V12.4344V13.4539C140.361 13.6404 140.212 13.7897 140.026 13.7897H138.956V15.5491H140.946C141.592 15.5491 142.121 15.0206 142.121 14.374V13.7897V9.61806V3.64355H141.63H132.839H132.254V11.7629C132.261 12.8633 131.595 13.7834 130.818 14.5668C131.235 14.9771 131.888 15.5304 132.304 15.9407C133.411 14.8279 134.026 13.3234 134.02 11.7567ZM134.02 9.76727V8.46793H136.308V9.76727H134.02ZM140.368 6.70852H138.074V5.40296H140.368V6.70852ZM136.308 6.70852H134.02V5.40296H136.308V6.70852ZM138.067 9.76727V8.46793H140.361V9.76727H138.067Z" fill="white"/>
<path d="M156.376 3.70508H155.438V6.5338H156.376V3.70508Z" fill="white"/>
<path d="M158.501 3.70508H157.562V6.5338H158.501V3.70508Z" fill="white"/>
<path d="M196.457 9.97184C198.26 10.0962 199.982 10.8049 201.63 11.6566C201.941 11.0536 202.382 10.034 202.693 9.43097C200.753 8.43003 198.614 7.91402 196.457 7.88916V4.00977H194.418V15.5485H196.457V9.97184Z" fill="white"/>
<path d="M213.28 3.81055H205.695V5.84971H213.28V3.81055Z" fill="white"/>
<path d="M220.398 15.5422H222.437V8.4176C223.874 7.28611 225.03 5.7816 225.739 4.00977H223.501C222.027 6.85714 219.074 8.67871 215.816 8.66628V10.7054C217.433 10.7117 218.993 10.3449 220.398 9.67964V15.5422Z" fill="white"/>
<path d="M154.188 3.92285H148.406V5.96202H154.188V3.92285Z" fill="white"/>
<path d="M158.656 11.893C159.682 11.8371 160.807 11.5262 161.877 11.004V15.5486H163.916V9.68602C165.072 8.72239 165.986 7.47899 166.372 6.06152C165.694 6.06152 165.01 6.06152 164.332 6.06152C163.45 8.21881 160.235 9.86631 158.314 9.86631L158.656 11.893Z" fill="white"/>
<path d="M167.758 13.5346C167.808 13.7149 168.243 15.4183 168.274 15.5427C170.257 15.3251 172.191 13.9076 173.583 12.0612C174.783 12.9937 175.778 14.5355 176.791 16.0214L178.277 14.2122C177.195 12.7637 175.964 11.2343 174.652 10.3453C175.287 9.08946 175.666 7.75903 175.666 6.53428V4.49512H168.23V6.53428H173.627C173.62 8.11339 171.942 12.2352 167.758 13.5346Z" fill="white"/>
<path d="M200.441 3.70508H199.502V6.5338H200.441V3.70508Z" fill="white"/>
<path d="M202.568 3.70508H201.629V6.5338H202.568V3.70508Z" fill="white"/>
<path d="M238.669 3.70508H237.73V6.52758H238.669V3.70508Z" fill="white"/>
<path d="M207.739 13.5096H205.383L205.7 15.5488H207.739C212.066 15.5488 214.205 12.4217 214.205 9.17641V7.16211H204.258V9.20128H212.166C212.153 11.4145 210.692 13.5096 207.739 13.5096Z" fill="white"/>
<path d="M183.009 6.52747H186.845V7.15539H186.851C186.851 10.7861 183.488 13.1983 179.919 13.5278C180.019 14.2427 180.137 14.9515 180.236 15.5421C185.26 14.7774 188.89 11.8306 188.89 7.15539H188.884V6.01768V4.48831H183.774C183.824 4.33288 183.867 4.18367 183.911 4.03447L181.903 3.53711C181.38 5.41464 180.529 7.71491 179.148 9.10752L179.988 11.041C181.237 9.87842 182.257 8.23092 183.009 6.52747Z" fill="white"/>
<path d="M234.217 7.35444C234.217 11.2338 231.936 13.5465 228.063 13.5465C228.063 13.5465 228.063 13.5465 227.746 13.5465C227.746 13.5465 228.025 15.3495 228.056 15.5484C233.701 15.5484 236.257 12.3591 236.257 7.36066V7.35444V6.52758V3.70508H235.318V6.30999H234.578V4.49463H227.348V6.5338H234.217V7.35444Z" fill="white"/>
<path d="M3.7737 8.99579H3.80479L6.29158 16.1515H11.8682V3.75488H8.0945V10.8671H8.06341L5.57662 3.75488H0V16.1515H3.7737V8.99579Z" fill="white"/>
<path d="M24.8128 8.99579H24.8439L27.3306 16.1515H32.9073V3.75488H29.1398V10.8671H29.1087L26.6157 3.75488H21.0391V16.1515H24.8128V8.99579Z" fill="white"/>
<path d="M61.0452 8.99579H61.0763L63.5631 16.1515H69.1397V3.75488H65.3722V10.8671H65.3349L62.8481 3.75488H57.2715V16.1515H61.0452V8.99579Z" fill="white"/>
<path d="M18.7948 3.75488H14.1445V16.1453H18.7948V3.75488Z" fill="white"/>
<path d="M37.2151 16.1515H41.8654V7.12448H44.8309V3.75488H34.2559V7.12448H37.2151V16.1515Z" fill="white"/>
<path d="M82.8472 10.0838C82.8472 6.41575 81.3489 3.75488 76.6489 3.75488H71.1406V16.1453H76.9286C80.5407 16.1453 82.8472 13.8264 82.8472 10.0838ZM75.6914 13.3415V6.58361H76.1453C76.8975 6.58361 77.3949 6.81363 77.6871 7.31099C77.9917 7.827 78.029 8.76576 78.029 9.96564C78.029 11.1593 77.9979 12.0981 77.6871 12.6141C77.3949 13.1114 76.8913 13.3415 76.1453 13.3415H75.6914Z" fill="white"/>
<path d="M90.14 16.4811C94.1935 16.4811 96.2078 13.8264 96.2078 9.95946C96.2078 6.0925 94.1873 3.43164 90.14 3.43164C86.0866 3.43164 84.0723 6.0925 84.0723 9.95946C84.0723 13.8202 86.0928 16.4811 90.14 16.4811ZM90.14 6.57121C90.8861 6.57121 91.3896 6.99397 91.3896 9.95946C91.3896 12.9933 90.855 13.3415 90.14 13.3415C89.4251 13.3415 88.8842 12.9871 88.8904 9.95946C88.8904 6.98775 89.394 6.57121 90.14 6.57121Z" fill="white"/>
<path d="M101.952 10.2269C104.041 10.2269 105.608 8.64779 105.608 6.61484C105.608 4.49485 104.184 3.36336 102.63 3.36336C101.822 3.36336 101.213 3.56231 100.728 3.99128H100.678C100.945 3.0463 101.735 2.21322 103.699 2.11997C104.035 2.10132 104.278 2.0951 104.52 2.11375L104.532 0.0310673C104.334 0.0124164 104.072 -0.0124515 103.65 0.0124164C102.046 0.0497182 100.734 0.522208 99.7143 1.46719C98.645 2.46812 97.9922 4.02236 97.9922 5.86259C97.9922 8.11935 99.1921 10.2269 101.952 10.2269ZM100.678 6.01801C100.833 5.61391 101.244 5.29063 101.76 5.29063C102.611 5.29063 102.928 6.05531 102.935 6.75783C102.935 7.58469 102.549 8.23747 101.909 8.23747C101.032 8.24369 100.653 7.41061 100.597 6.61484C100.597 6.31643 100.616 6.14235 100.678 6.01801Z" fill="white"/>
<path d="M110.47 10.0649H112.957V7.83919H114.008V5.80002H112.957V0.142578H109.656L106.336 6.05492V7.83919H110.47V10.0649ZM108.729 5.80002L108.742 5.76894L109.556 4.12144C109.904 3.43136 110.172 2.79723 110.483 2.12579H110.539C110.508 2.82209 110.47 3.47488 110.47 4.10279V5.80624L108.729 5.80002Z" fill="white"/>
<path d="M55.5492 12.9H50.7808V11.5137H55.0394V8.33057H50.7808V7.03123H55.4062V3.75488H46.2051V16.1515H55.5492V12.9Z" fill="white"/>
<path d="M204.134 23.7983H195.206H183.071H180.839H176.966H175.629V48.2434C171.961 33.9444 160.727 23.7983 142.424 23.7983H133.497H121.361H119.129H115.256H113.926V66.54H102.617V23.7921H77.6496L55.9151 62.5425C52.4398 53.0678 44.0593 48.1129 35.0945 48.1129C28.9583 48.1129 24.4013 49.5987 20.7208 52.8254H20.3664C22.4056 45.6821 28.3863 39.378 43.22 38.6693C45.7752 38.5512 47.5719 38.5077 49.4432 38.6382V22.8782C47.9138 22.7352 45.999 22.5673 42.7786 22.7352C30.6244 23.0336 20.7208 26.627 13.0118 33.7455C4.93592 41.324 0.00585938 53.0865 0.00585938 66.9814C0.00585938 84.0656 9.09507 100.006 29.9717 99.9997C42.4367 99.9997 52.4025 92.5829 56.0767 81.9332H83.8293V98.7439L102.617 98.7377V81.927H113.926V98.7439H115.256H119.129H121.361H133.497H142.424C160.727 98.7439 171.961 88.5978 175.629 74.2988V98.7439H176.96H180.833H183.065H195.2H204.128C226.845 98.7439 238.663 83.1144 238.663 63.3196V59.2164C238.669 39.4216 226.845 23.7983 204.134 23.7983ZM29.6733 84.9049H29.5738C23.0087 84.9049 20.1302 78.6071 19.7199 72.6202C19.7199 70.3945 19.894 69.0703 20.3354 68.144C21.4793 65.1225 24.5629 62.6482 28.4796 62.6482C34.9452 62.6482 37.3699 68.4113 37.4009 73.7206C37.4009 79.9997 34.5038 84.9049 29.6733 84.9049ZM83.8293 53.6584V66.5462H70.7177L70.7985 66.31L76.9533 53.8263C79.5769 48.6102 81.5974 43.7983 83.9474 38.7377H84.3453C84.0966 43.9537 83.8293 48.9087 83.8293 53.6584ZM142.424 83.2512H133.497V39.2972H142.424C149.456 39.2972 155.511 46.4405 155.511 61.2742C155.511 76.1079 149.456 83.2512 142.424 83.2512ZM204.134 83.2512H195.206V39.2972H204.134C211.165 39.2972 217.221 46.4405 217.221 61.2742C217.221 76.1079 211.165 83.2512 204.134 83.2512Z" fill="white"/>
<path d="M146.895 7.48535V9.52452H151.483V10.8239V10.8301C151.483 11.9927 151.775 12.6703 148.001 13.864L148.53 15.5488C151.296 14.84 153.522 14.0256 153.522 10.8301V10.8239V9.52452H157.345V7.48535H146.895Z" fill="white"/>
</g>
<defs>
<clipPath id="clip0_4_5548">
<rect width="238.67" height="100" fill="white"/>
</clipPath>
</defs>
</svg>
