<svg width="312" height="100" viewBox="0 0 312 100" fill="none" xmlns="http://www.w3.org/2000/svg">
<g clip-path="url(#clip0_4_5603)">
<path d="M117.629 41.4736H68.0508V51.2173H117.629V41.4736Z" fill="white"/>
<path d="M311.373 3.94238H301.629V62.5664H311.373V3.94238Z" fill="white"/>
<path d="M280.968 3.94238L246.423 43.9473L211.887 3.94238V62.5664H221.63V30.1228L246.423 58.8588L271.233 30.1228V62.5664H280.968V3.94238Z" fill="white"/>
<path d="M57.6733 3.95117H47.9297V52.6531H57.6733V3.95117Z" fill="white"/>
<path d="M9.74363 13.3135H0V62.5752H9.74363V13.3135Z" fill="white"/>
<path d="M57.6667 49.9841V62.5672L0 15.3256V2.73438L57.6667 49.9841Z" fill="white"/>
<path d="M168.661 0C149.952 0 134.781 15.1631 134.781 33.8796C134.781 52.5961 149.944 67.7592 168.661 67.7592C187.369 67.7592 202.54 52.5961 202.54 33.8796C202.54 15.1631 187.377 0 168.661 0ZM168.661 9.74363C155.323 9.74363 144.525 20.5501 144.525 33.8796C144.525 47.2092 155.331 58.0156 168.661 58.0156C181.99 58.0156 192.797 47.2092 192.797 33.8796C192.797 20.5501 181.99 9.74363 168.661 9.74363ZM168.661 56.2632C156.313 56.2632 146.269 46.2194 146.269 33.8715C146.269 21.5236 156.313 11.4798 168.661 11.4798C181.009 11.4798 191.053 21.5236 191.053 33.8715C191.061 46.2194 181.009 56.2632 168.661 56.2632ZM168.661 58.0156C155.323 58.0156 144.525 47.2092 144.525 33.8796C144.525 20.5501 155.331 9.74363 168.661 9.74363C181.99 9.74363 192.797 20.5501 192.797 33.8796C192.797 47.201 181.99 58.0156 168.661 58.0156Z" fill="white"/>
<path d="M79.0946 62.5669L100.789 22.919L122.491 62.5669H133.597L100.789 2.63672L67.9961 62.5669H79.0946Z" fill="white"/>
<path d="M43.4672 82.5332H35.9141V91.0437H43.2076C43.8242 91.0437 44.4245 91.0193 45.033 90.9869C45.755 90.9625 46.9152 90.9301 47.5156 90.4433C48.3187 89.7781 48.2863 87.8391 48.2863 86.8817C48.2944 82.5332 47.5156 82.5332 43.4672 82.5332Z" fill="white"/>
<path d="M109.28 83.8794C108.996 82.9465 108.404 82.7193 107.503 82.5895C106.286 82.4272 105.053 82.4597 103.844 82.4597H100.55C96.3721 82.4597 96.4532 83.2872 96.4532 87.2869C96.4532 88.2604 96.3477 89.9155 97.2239 90.6132C98.1975 91.3839 101.816 91.2298 103 91.2298C103.828 91.2298 104.68 91.2054 105.507 91.2054C106.456 91.2054 108.014 91.2054 108.801 90.6132C109.653 89.9723 109.572 88.2361 109.572 87.2869C109.572 86.3458 109.572 84.78 109.28 83.8794Z" fill="white"/>
<path d="M80.2698 82.5332H71.5078V86.76H78.8825C79.2719 86.76 79.6532 86.7357 80.0426 86.7357C81.9248 86.6789 82.444 86.6302 82.444 84.5696C82.4359 82.8253 81.9978 82.5332 80.2698 82.5332Z" fill="white"/>
<path d="M0 73.6572V99.9999H311.455V73.6572H0ZM26.5699 88.4633C26.5455 89.2097 26.5455 89.9561 26.4887 90.6782C26.4076 92.0411 26.3265 93.1851 25.3042 94.1586C24.6877 94.7508 23.8926 95.0348 23.0651 95.2133C20.4933 95.7569 17.4509 95.6757 14.8142 95.6757C13.6784 95.6757 12.5426 95.6757 11.4149 95.6189C9.63816 95.5621 7.18806 95.5135 5.66283 94.4831C4.96512 94.0207 4.58381 93.4528 4.29985 92.6577C3.7644 91.0595 3.83742 88.2037 3.83742 86.5487C3.83742 85.4697 3.86176 84.3825 3.94289 83.2954C4.12948 80.7479 4.94889 78.9387 7.62616 78.4276C10.1331 77.9327 13.2241 77.9652 15.7472 77.9652C17.0128 77.9652 18.2541 77.9652 19.4792 78.0463C21.337 78.1275 24.3307 78.2329 25.645 79.75C26.6185 80.8615 26.5699 82.7924 26.5942 84.1797H21.3614C21.3614 83.6848 21.3857 83.0682 20.9476 82.7356C20.6961 82.549 20.4527 82.4841 20.1444 82.4273C19.682 82.3462 19.1627 82.3462 18.7003 82.3218C17.5645 82.265 16.4287 82.265 15.301 82.265C14.368 82.265 13.4188 82.2894 12.4858 82.3218C11.7394 82.3462 10.417 82.3786 9.80854 82.8654C8.95668 83.5307 9.08648 85.8023 9.08648 86.7596C9.08648 87.7656 9.02969 89.1367 9.28931 90.1102C9.39478 90.4997 9.50024 90.7268 9.80854 91.0189C10.4251 91.5868 11.999 91.5381 12.7698 91.5381C13.5973 91.5381 14.4248 91.5625 15.2523 91.5625C16.2015 91.5625 17.1589 91.5381 18.1162 91.5381C18.8869 91.5381 20.8746 91.6436 21.3451 90.8161C21.5317 90.4834 21.5317 90.0129 21.5317 89.6559V89.1124H14.652V85.6806H26.6104C26.6104 85.8428 26.6348 86.0132 26.6348 86.1755L26.5699 88.4633ZM53.3506 89.9318C53.2452 91.3191 52.8558 92.9985 51.8011 93.972C50.0243 95.5946 45.8949 95.4161 43.6557 95.4161H30.7561V78.2248H43.5746C44.5562 78.2248 45.5379 78.2248 46.5114 78.2491C49.1887 78.3059 51.9796 78.5331 52.9531 81.4781C53.4886 83.1007 53.448 84.9099 53.448 86.5892C53.448 87.6926 53.4155 88.8284 53.3506 89.9318ZM63.9461 90.9864H55.3627V87.4817H63.9542V90.9864H63.9461ZM87.4899 92.6171V95.4323H82.33C82.33 94.402 82.3868 93.3149 82.1678 92.3089C81.9406 91.1731 81.1374 91.0676 80.099 91.0676H71.4912V95.4242H66.2502V78.2329H78.9064C79.8313 78.2329 80.7886 78.2573 81.7216 78.2573C83.6849 78.2816 85.8673 78.0707 87.0274 80.0097C87.6927 81.1211 87.644 82.6626 87.644 83.9039C87.644 85.0397 87.6684 86.3864 87.0761 87.3843C86.5082 88.3579 85.5022 88.6012 84.4475 88.7716C87.0761 88.9582 87.4899 90.2157 87.4899 92.6171ZM114.725 89.8506C114.644 91.4489 114.498 93.4366 113.102 94.4912C112.38 95.0591 111.553 95.262 110.652 95.3999C108.145 95.7569 105.517 95.6838 102.994 95.6838C101.647 95.6838 100.284 95.6838 98.9534 95.6595C97.1524 95.6352 94.4183 95.6352 92.8931 94.4994C91.5058 93.4933 91.3435 91.4327 91.2705 89.8587C91.1894 88.8527 91.1894 87.8467 91.1894 86.8407C91.1894 85.8347 91.1894 84.8287 91.2705 83.8227C91.376 82.2488 91.522 80.2368 92.8931 79.1821C93.6151 78.6386 94.467 78.379 95.3432 78.2491C97.7689 77.8597 100.56 77.9652 103.002 77.9652C104.365 77.9652 105.712 77.9895 107.074 78.022C108.876 78.0463 111.585 78.0463 113.102 79.1821C114.49 80.2125 114.62 82.2488 114.725 83.8227C114.806 84.8287 114.806 85.8347 114.806 86.8407C114.798 87.8467 114.798 88.8527 114.725 89.8506ZM148.166 95.4242H143.015L143.145 82.5571H142.268L135.802 95.4242H131.446L124.98 82.5571H124.047L124.177 95.4242H119.017V78.2329H128.501L133.612 89.3963L138.747 78.2329H148.183L148.166 95.4242ZM179.742 94.3209C178.501 95.6676 175.799 95.6108 174.128 95.6433C172.781 95.7001 171.451 95.7001 170.104 95.7001C167.865 95.7001 165.155 95.7812 162.964 95.2863C162.137 95.0997 161.415 94.7671 160.831 94.1748C159.955 93.323 159.849 92.2115 159.849 91.0514C159.849 90.6133 159.873 90.1752 159.906 89.7289H164.96C164.96 90.1184 164.96 90.4753 165.09 90.8404C165.171 91.0676 165.277 91.2298 165.479 91.384C165.974 91.7734 167.443 91.7166 168.003 91.7166C168.749 91.7166 169.471 91.741 170.217 91.741C171.15 91.741 172.043 91.7166 172.976 91.7166C173.617 91.7166 175.247 91.7977 175.686 91.1731C175.864 90.8891 175.864 90.5078 175.864 90.1914C175.864 88.869 174.834 88.9258 173.771 88.9014C171.013 88.8203 168.254 88.6743 165.488 88.5688C163.995 88.512 162.088 88.4633 161.001 87.2464C160.093 86.2404 160.028 84.7963 160.028 83.5144C160.028 80.4478 160.831 78.5088 164.125 78.1761C166.339 77.949 168.635 77.9733 170.875 77.9733C173.041 77.9733 175.337 77.9165 177.446 78.4357C179.791 79.0361 180.286 80.5694 180.286 82.8248V83.6524H175.207V83.4009C175.207 82.906 175.158 82.549 174.712 82.265C174.217 81.9324 173.057 81.9568 172.497 81.9568H168.043C167.508 81.9568 165.974 81.9324 165.52 82.265C165.187 82.4922 165.106 82.906 165.106 83.2954C165.106 83.6037 165.187 84.0174 165.439 84.2284C165.617 84.3906 165.877 84.4312 166.104 84.4555C166.705 84.561 167.321 84.561 167.905 84.5853C169.065 84.6421 170.226 84.6908 171.386 84.7151C173.373 84.7719 176.205 84.7395 178.144 85.2587C178.76 85.4453 179.304 85.6968 179.799 86.1349C180.853 87.0679 180.91 88.8446 180.91 90.1346C180.902 91.5625 180.772 93.2094 179.742 94.3209ZM197.615 89.3476V95.4323H192.195V89.3476L182.322 78.2329H189.234L194.824 85.1451L200.187 78.2329H206.993L197.615 89.3476ZM228.355 94.3209C227.113 95.6676 224.412 95.6108 222.741 95.6433C221.394 95.7001 220.063 95.7001 218.717 95.7001C216.477 95.7001 213.768 95.7812 211.577 95.2863C210.75 95.0997 210.028 94.7671 209.443 94.1748C208.567 93.323 208.462 92.2115 208.462 91.0514C208.462 90.6133 208.486 90.1752 208.519 89.7289H213.573C213.573 90.1184 213.573 90.4753 213.703 90.8404C213.784 91.0676 213.889 91.2298 214.092 91.384C214.587 91.7734 216.056 91.7166 216.615 91.7166C217.362 91.7166 218.084 91.741 218.83 91.741C219.763 91.741 220.656 91.7166 221.589 91.7166C222.229 91.7166 223.86 91.7977 224.298 91.1731C224.477 90.8891 224.477 90.5078 224.477 90.1914C224.477 88.869 223.446 88.9258 222.384 88.9014C219.625 88.8203 216.867 88.6743 214.1 88.5688C212.608 88.512 210.701 88.4633 209.614 87.2464C208.705 86.2404 208.64 84.7963 208.64 83.5144C208.64 80.4478 209.443 78.5088 212.737 78.1761C214.952 77.949 217.248 77.9733 219.487 77.9733C221.653 77.9733 223.949 77.9165 226.059 78.4357C228.403 79.0361 228.898 80.5694 228.898 82.8248V83.6524H223.82V83.4009C223.82 82.906 223.763 82.549 223.325 82.265C222.83 81.9324 221.67 81.9568 221.11 81.9568H216.656C216.12 81.9568 214.587 81.9324 214.133 82.265C213.8 82.4922 213.719 82.906 213.719 83.2954C213.719 83.6037 213.8 84.0174 214.052 84.2284C214.23 84.3906 214.49 84.4312 214.717 84.4555C215.317 84.561 215.934 84.561 216.518 84.5853C217.678 84.6421 218.838 84.6908 219.998 84.7151C221.986 84.7719 224.817 84.7395 226.756 85.2587C227.373 85.4453 227.917 85.6968 228.412 86.1349C229.466 87.0679 229.523 88.8446 229.523 90.1346C229.515 91.5625 229.385 93.2094 228.355 94.3209ZM252.88 82.6139H245.222V95.4323H239.729V82.6139H232.07V78.2248H252.88V82.6139ZM274.671 95.4242H255.541V78.2329H274.574V82.2813H260.701V84.7882H273.876V88.5526H260.701V91.311H274.68V95.4242H274.671ZM307.634 95.4242H302.474L302.604 82.5571H301.728L295.262 95.4242H290.905L284.439 82.5571H283.506L283.636 95.4242H278.476V78.2329H287.96L293.072 89.3963L298.207 78.2329H307.642V95.4242H307.634Z" fill="white"/>
</g>
<defs>
<clipPath id="clip0_4_5603">
<rect width="311.455" height="100" fill="white"/>
</clipPath>
</defs>
</svg>
