<svg width="460" height="100" viewBox="0 0 460 100" fill="none" xmlns="http://www.w3.org/2000/svg">
<g clip-path="url(#clip0_4_5577)">
<path d="M173.606 61.2041H100.432V75.5805H173.606V61.2041Z" fill="white"/>
<path d="M459.54 5.8291H445.164V92.3505H459.54V5.8291Z" fill="white"/>
<path d="M414.676 5.8291L363.694 64.8667L312.725 5.8291V92.3386H327.101V44.4573L363.694 86.8681L400.299 44.4573V92.3386H414.676V5.8291Z" fill="white"/>
<path d="M85.1205 5.8291H70.7441V77.6989H85.1205V5.8291Z" fill="white"/>
<path d="M14.3763 19.6436H0V92.3512H14.3763V19.6436Z" fill="white"/>
<path d="M85.1089 73.7613V92.3392L0 22.6121V4.03418L85.1089 73.7613Z" fill="white"/>
<path d="M248.922 0C221.318 0 198.922 22.3845 198.922 50C198.922 77.6155 221.306 100 248.922 100C276.525 100 298.922 77.6155 298.922 50C298.922 22.3845 276.537 0 248.922 0ZM248.922 14.3763C229.243 14.3763 213.298 30.3208 213.298 50C213.298 69.6792 229.243 85.6237 248.922 85.6237C268.601 85.6237 284.546 69.6792 284.546 50C284.546 30.3208 268.601 14.3763 248.922 14.3763ZM248.922 83.0381C230.691 83.0381 215.884 68.2068 215.884 50C215.884 31.7692 230.715 16.9619 248.922 16.9619C267.153 16.9619 281.96 31.7932 281.96 50C281.972 68.2188 267.141 83.0381 248.922 83.0381ZM248.922 85.6237C229.243 85.6237 213.298 69.6792 213.298 50C213.298 30.3208 229.243 14.3763 248.922 14.3763C268.601 14.3763 284.546 30.3208 284.546 50C284.546 69.6672 268.601 85.6237 248.922 85.6237Z" fill="white"/>
<path d="M116.735 92.3393L148.756 33.8164L180.788 92.3393H197.164L148.756 3.89062L100.348 92.3393H116.735Z" fill="white"/>
</g>
<defs>
<clipPath id="clip0_4_5577">
<rect width="459.54" height="100" fill="white"/>
</clipPath>
</defs>
</svg>
