<svg width="571" height="100" viewBox="0 0 571 100" fill="none" xmlns="http://www.w3.org/2000/svg">
<g clip-path="url(#clip0_4_5586)">
<path d="M469.906 5.82812V7.71632H473.831V20.8147H476.418V7.76092L481.042 7.71632V5.82812H469.906Z" fill="white"/>
<path d="M498.096 20.8147H495.687V12.5037L490.156 19.5064L484.611 12.5037C484.611 12.5037 484.596 20.7999 484.625 20.8147C484.655 20.8296 482.41 20.8147 482.41 20.8147V5.82812L490.201 15.507L498.081 5.82812V20.8147H498.096Z" fill="white"/>
<path d="M459.588 5.82812H445.211V92.358H459.588V5.82812Z" fill="white"/>
<path d="M414.731 5.82812L363.735 64.8825L312.754 5.82812V92.358H327.131V44.4692L363.735 86.8718L400.354 44.4692V92.358H414.731V5.82812Z" fill="white"/>
<path d="M70.744 77.7158L85.1211 77.7158L85.1211 5.8306L70.7441 5.8306L70.744 77.7158Z" fill="white"/>
<path d="M-0.00204277 92.3564L14.375 92.3564L14.375 19.6386L-0.00203724 19.6386L-0.00204277 92.3564Z" fill="white"/>
<path d="M100.438 61.2167L100.438 75.5938L173.616 75.5938L173.616 61.2167L100.438 61.2167Z" fill="white"/>
<path d="M85.1175 73.7734V92.358L0 22.6137V4.04395L85.1175 73.7734Z" fill="white"/>
<path d="M248.957 0C221.348 0 198.957 22.3907 198.957 50C198.957 77.6093 221.348 100 248.957 100C276.566 100 298.957 77.6093 298.957 50C298.957 22.3907 276.566 0 248.957 0ZM248.957 14.377C229.287 14.377 213.334 30.3301 213.334 50C213.334 69.6699 229.287 85.623 248.957 85.623C268.627 85.623 284.58 69.6699 284.58 50C284.58 30.3301 268.627 14.377 248.957 14.377ZM248.957 83.0508C230.729 83.0508 215.906 68.2278 215.906 50C215.906 31.7722 230.729 16.9492 248.957 16.9492C267.185 16.9492 282.008 31.7722 282.008 50C282.008 68.2278 267.17 83.0508 248.957 83.0508ZM248.957 85.6378C229.287 85.6378 213.334 69.6848 213.334 50.0149C213.334 30.3449 229.287 14.3919 248.957 14.3919C268.627 14.3919 284.58 30.3449 284.58 50.0149C284.58 69.6848 268.627 85.6378 248.957 85.6378Z" fill="white"/>
<path d="M116.74 92.3582L148.779 33.839L180.804 92.3582H197.189L148.779 3.89551L100.355 92.3582H116.74Z" fill="white"/>
<path d="M521.031 77.9852L521.031 92.3623L570.764 92.3623L570.764 77.9852L521.031 77.9852Z" fill="white"/>
<path d="M564.377 15.1947C558.103 8.07305 550.044 4.31152 541.079 4.31152C530.389 4.31152 521.038 9.78283 515.105 14.3323L525.275 24.5464C532.278 19.5955 544.305 13.9755 553.702 24.6208C567.737 40.5143 525.483 74.5613 513.723 83.0061V92.3579H525.067C536.723 83.6009 568.034 58.1623 570.606 35.489C571.454 27.7876 569.298 20.77 564.377 15.1947Z" fill="white"/>
</g>
<defs>
<clipPath id="clip0_4_5586">
<rect width="570.77" height="100" fill="white"/>
</clipPath>
</defs>
</svg>
