<svg width="695" height="100" viewBox="0 0 695 100" fill="none" xmlns="http://www.w3.org/2000/svg">
<g clip-path="url(#clip0_4_5616)">
<path d="M441.779 89.9152C441.779 90.9775 440.914 91.9315 439.848 91.9315H402.894C401.818 91.9315 400.953 90.9775 400.953 89.9152V63.056C400.953 61.9972 401.818 61.148 402.894 61.148H439.848C440.914 61.148 441.779 61.9972 441.779 63.056V89.9152ZM440.174 53.0791H402.558C397.111 53.0791 392.668 57.5381 392.668 63.056V90.02C392.668 95.4365 397.111 100 402.558 100H440.174C445.631 100 450.064 95.4365 450.064 90.02V63.056C450.064 57.5381 445.631 53.0791 440.174 53.0791Z" fill="white"/>
<path d="M8.63211 12.7377C8.63211 12.7377 8.63211 46.9214 8.63211 47.4526C8.17705 47.4526 0.465474 47.4526 0 47.4526C0 46.9214 0 1.06242 0 0.53125C0.486316 0.53125 7.15579 0.53125 7.37463 0.53125L42.3373 34.7149C42.3373 34.7149 42.3373 1.06242 42.3373 0.53125C42.8097 0.53125 49.2464 0.53125 49.2464 0.53125C49.2464 0.53125 50.4726 0.53125 50.8513 0.53125C50.8513 1.06242 50.8513 46.9214 50.8513 47.4526C50.3858 47.4526 44.3416 47.4526 44.1088 47.4526L8.63211 12.7377Z" fill="white"/>
<path d="M95.1712 12.7377C95.1712 12.7377 95.1712 46.9214 95.1712 47.4526C94.7057 47.4526 87.0115 47.4526 86.5391 47.4526C86.5391 46.9214 86.5391 1.06242 86.5391 0.53125C87.0219 0.53125 93.681 0.53125 93.9033 0.53125L128.862 34.7149C128.862 34.7149 128.862 1.06242 128.862 0.53125C129.338 0.53125 135.785 0.53125 135.785 0.53125C135.785 0.53125 137.019 0.53125 137.39 0.53125C137.39 1.06242 137.39 46.9214 137.39 47.4526C136.914 47.4526 130.877 47.4526 130.648 47.4526L95.1712 12.7377Z" fill="white"/>
<path d="M274.527 12.7377C274.527 12.7377 274.527 46.9214 274.527 47.4526C274.055 47.4526 266.371 47.4526 265.898 47.4526C265.898 46.9214 265.898 1.06242 265.898 0.53125C266.381 0.53125 273.051 0.53125 273.263 0.53125L308.222 34.7149C308.222 34.7149 308.222 1.06242 308.222 0.53125C308.698 0.53125 315.145 0.53125 315.145 0.53125C315.145 0.53125 316.378 0.53125 316.75 0.53125C316.75 1.06242 316.75 46.9214 316.75 47.4526C316.274 47.4526 310.237 47.4526 310.014 47.4526L274.527 12.7377Z" fill="white"/>
<path d="M71.4083 0.53125C71.4083 0.53125 72.6311 0.53125 72.9993 0.53125C72.9993 1.06242 72.9993 46.9214 72.9993 47.4526C72.5477 47.4526 64.8327 47.4526 64.3672 47.4526C64.3672 46.9214 64.3672 1.06242 64.3672 0.53125C64.8431 0.53125 71.4083 0.53125 71.4083 0.53125Z" fill="white"/>
<path d="M196.175 0.53125C196.175 0.53125 197.377 0.53125 197.759 0.53125C197.759 0.957585 197.759 8.17383 197.759 8.60017C197.252 8.60017 176.948 8.60017 176.948 8.60017C176.948 8.60017 176.948 46.9214 176.948 47.4526C176.486 47.4526 168.445 47.4526 167.979 47.4526C167.979 46.9214 167.979 8.60017 167.979 8.60017C167.979 8.60017 147.679 8.60017 147.172 8.60017C147.172 8.17383 147.172 0.957585 147.172 0.53125C147.689 0.53125 196.175 0.53125 196.175 0.53125Z" fill="white"/>
<path d="M251.471 0.53125C251.471 0.53125 252.715 0.53125 253.086 0.53125C253.086 0.957585 253.086 8.17383 253.086 8.60017C252.59 8.60017 216.088 8.60017 216.088 8.60017V19.1083C216.088 19.1083 244.222 19.1083 244.708 19.1083C244.708 19.6394 244.708 26.646 244.708 27.1772C244.222 27.1772 216.088 27.1772 216.088 27.1772V39.3837C216.088 39.3837 252.59 39.3837 253.086 39.3837C253.086 39.81 253.086 46.9214 253.086 47.4526C252.59 47.4526 208.04 47.4526 207.543 47.4526C207.543 46.9214 207.543 1.06242 207.543 0.53125C208.04 0.53125 251.471 0.53125 251.471 0.53125Z" fill="white"/>
<path d="M364.737 39.3837H338.229V8.60017H364.737C373.032 8.60017 375.978 16.8788 375.978 23.9902C375.978 30.9967 373.032 39.3837 364.737 39.3837ZM378.899 7.43299C375.523 2.86561 370.531 0.53125 364.494 0.53125C364.494 0.53125 330.41 0.53125 329.906 0.53125C329.906 1.06242 329.906 46.9214 329.906 47.4526C330.41 47.4526 364.494 47.4526 364.494 47.4526C370.531 47.4526 375.523 45.0099 378.899 40.5508C382.064 36.4133 383.741 30.6787 383.741 23.9902C383.741 17.3051 382.064 11.5705 378.899 7.43299Z" fill="white"/>
<path d="M441.779 37.4721C441.779 38.4296 440.914 39.3837 439.848 39.3837H402.894C401.818 39.3837 400.953 38.4296 400.953 37.4721V10.5082C400.953 9.44934 401.818 8.60017 402.894 8.60017H439.848C440.914 8.60017 441.779 9.44934 441.779 10.5082V37.4721ZM440.174 0.53125H402.558C397.111 0.53125 392.668 4.99029 392.668 10.5082V37.4721C392.668 42.9935 397.111 47.4526 402.558 47.4526H440.174C445.631 47.4526 450.064 42.9935 450.064 37.4721V10.5082C450.064 4.99029 445.631 0.53125 440.174 0.53125Z" fill="white"/>
<path d="M596.875 80.1475C605.823 83.7574 624.724 86.6229 639.476 86.6229C655.618 86.6229 662.298 81.105 662.298 74.0984C662.298 67.7279 656.094 64.118 638.271 57.5378C614.434 48.7245 596.948 41.7214 596.948 25.9016C596.948 9.65894 617.992 0 650.057 0C667.28 0 673.188 1.06234 684.12 3.0787L684.207 18.577C673.463 16.5607 663.945 13.0591 649.161 13.0591C633.314 13.0591 626.558 18.1542 626.558 23.3541C626.558 30.8918 636.965 34.5017 655.209 41.0819C680.608 50.2132 694.736 57.2198 694.736 72.6098C694.736 88.5344 677.041 100 637.131 100C620.746 100 609.443 98.9377 596.875 96.8165V80.1475Z" fill="white"/>
<path d="M511.932 13.6949H492.938V86.0915H511.932C541.086 86.0915 559.479 73.4587 559.479 49.9997C559.479 26.5408 541.086 13.6949 511.932 13.6949ZM562.911 92.78C553.519 97.0259 535.747 99.7866 520.216 99.7866H460.848V0.212891H520.216C535.747 0.212891 553.519 2.97358 562.932 7.21946C585.796 17.6227 593.247 34.2882 593.247 49.9997C593.247 65.7112 585.862 82.3768 562.911 92.78Z" fill="white"/>
</g>
<defs>
<clipPath id="clip0_4_5616">
<rect width="694.737" height="100" fill="white"/>
</clipPath>
</defs>
</svg>
