<svg width="572" height="100" viewBox="0 0 572 100" fill="none" xmlns="http://www.w3.org/2000/svg">
<g clip-path="url(#clip0_4_5629)">
<path d="M95.7434 2.38086H66.7212V6.19095H70.5016C75.5767 6.19095 79.6845 10.9238 79.6845 15.9692V63.0595L30.1979 2.38086H0V6.19095C6.74207 6.19095 12.0702 12.2782 12.0702 19.0351V85.0271C12.0702 91.7692 4.95609 94.0165 0 94.0165V97.8266H32.8025V94.0165C26.6558 93.9868 23.4112 93.1384 21.3127 91.1589C19.2142 89.1646 18.6486 86.5303 18.6486 82.9137V21.0592L82.7206 99.181H86.2182V16.0734C86.2182 11.147 90.0729 6.96487 95.7434 6.75651V2.38086Z" fill="white"/>
<path d="M289.284 60.8717C295.399 60.8717 300.357 55.9142 300.357 49.7987C300.357 43.6832 295.399 38.7256 289.284 38.7256C283.169 38.7256 278.211 43.6832 278.211 49.7987C278.211 55.9142 283.169 60.8717 289.284 60.8717Z" fill="white"/>
<path d="M351.628 53.1776V57.7913H355.23C361.079 57.7913 362.746 60.6191 362.746 65.6645V88.2274C361.407 89.8646 356.837 91.9184 350.393 91.9184C349.083 91.9184 341.612 91.7696 336.031 87.1856C330.197 82.3932 326.267 72.6894 326.267 49.6205C326.267 19.5862 336.834 6.86114 352.149 6.86114C357.135 6.86114 374.027 10.2247 381.216 31.9542H385.726V0.61021H381.469C380.933 4.82215 377.599 7.1588 371.304 4.53937C361.794 0.595327 353.295 0 347.074 0C322.576 0 301.695 22.6968 301.695 49.7991C301.695 81.024 325.27 99.3154 350.587 99.3154C362.582 99.3154 375.307 96.5471 385.383 91.4422V65.6645C385.383 59.622 389.595 57.7913 395.281 57.7913V53.1776H351.628Z" fill="white"/>
<path d="M176.394 68.3728C174.027 81.4551 162.746 91.665 150.095 91.3375H139.171C135.748 91.3375 132.965 88.5544 132.965 85.1313V51.6739H135.956C144.886 51.6739 150.586 59.1453 150.586 72.0043H154.501V49.2182V48.0573V25.7028H150.586C150.586 37.014 145.809 45.1848 135.941 45.1848H132.95V8.11088H148.651C169.786 8.11088 170.5 26.9381 170.5 29.364H174.712V8.91457V2.38086H98.5547V6.17607H103.928C108.035 6.17607 111.369 10.0606 111.369 14.1534V84.4169C111.369 91.8138 106.517 93.4956 102.409 93.4956H98.5547V97.8415H111.369H175.813L180.159 68.3728H176.394Z" fill="white"/>
<path d="M228.233 1.38379C200.758 1.38379 179.609 21.61 179.609 50.6917C179.609 79.7734 200.773 99.9997 228.233 99.9997C255.707 99.9997 276.871 79.7734 276.871 50.6917C276.871 21.61 255.707 1.38379 228.233 1.38379ZM228.233 93.6148C215.031 93.6148 204.36 81.5296 204.36 50.6768C204.36 19.824 215.061 7.75378 228.233 7.75378C241.434 7.75378 252.105 19.8389 252.105 50.6917C252.135 81.5296 241.434 93.6148 228.233 93.6148Z" fill="white"/>
<path d="M470.89 68.3728C468.523 81.4551 457.242 91.665 444.591 91.3375H433.667C430.244 91.3375 427.461 88.5544 427.461 85.1313V51.6739H430.452C439.382 51.6739 445.082 59.1453 445.082 72.0043H448.997V49.2182V48.0573V25.7028H445.082C445.082 37.014 440.305 45.1848 430.437 45.1848H427.446V8.11088H443.148C464.282 8.11088 464.996 26.9381 464.996 29.364H469.208V8.91457V2.38086H393.051V6.17607H398.424C402.531 6.17607 405.865 10.0606 405.865 14.1534V84.4169C405.865 91.8138 401.013 93.4956 396.906 93.4956H393.051V97.8415H405.865H470.309L474.655 68.3728H470.89Z" fill="white"/>
<path d="M522.725 1.38379C495.251 1.38379 474.102 21.61 474.102 50.6917C474.102 79.7734 495.265 99.9997 522.725 99.9997C550.199 99.9997 571.363 79.7734 571.363 50.6917C571.363 21.61 550.199 1.38379 522.725 1.38379ZM522.725 93.6148C509.523 93.6148 498.852 81.5296 498.852 50.6768C498.852 19.824 509.553 7.7389 522.725 7.7389C535.926 7.7389 546.597 19.824 546.597 50.6768C546.627 81.5296 535.926 93.6148 522.725 93.6148Z" fill="white"/>
</g>
<defs>
<clipPath id="clip0_4_5629">
<rect width="571.365" height="100" fill="white"/>
</clipPath>
</defs>
</svg>
