<svg width="279" height="100" viewBox="0 0 279 100" fill="none" xmlns="http://www.w3.org/2000/svg">
<g clip-path="url(#clip0_4_5653)">
<path d="M120.06 23.846L121.216 21.1649L118.803 18.1133L116.529 18.215L115.127 21.1068L117.132 24.3256L120.06 23.846Z" fill="white"/>
<path d="M107.681 26.2656L106.213 27.4572L106.336 29.1429L107.913 30.1165L110.347 28.3582L109.461 26.44L107.681 26.2656Z" fill="white"/>
<path d="M111.109 0L97.0645 14.0449V38.7851L114.561 56.2813H139.301L153.346 42.2364L111.109 0ZM138.276 53.8109H115.585L99.5348 37.7607V15.0694L111.109 3.50214L149.844 42.2364L138.276 53.8109Z" fill="white"/>
<path d="M130.364 39.417L128.584 43.1226L125.307 45.4912L120.679 45.9708L116.043 44.7429L121.609 48.2886L125.895 48.2595L128.795 46.7918L131.962 42.7738L132.762 39.4751L131.541 33.459L130.364 39.417Z" fill="white"/>
<path d="M164.375 0.435547H139.635L125.59 14.4804L167.826 56.7169L181.871 42.672V17.9317L164.375 0.435547ZM147.024 24.224L143.464 21.1868L143.863 16.3696L147.961 15.4686L150.831 18.3386L151.1 22.6545L147.024 24.224ZM157 13.9864L154.094 13.5359L153.244 11.2471L154.682 8.90754L157.712 9.2781L158.729 11.5668L157 13.9864ZM172.2 33.844L169.003 34.9629L168.095 39.4895L162.457 40.1798L159.659 37.9492L158.86 33.1246L163.307 31.2137L163.983 29.1212L163.518 23.8679L170.972 22.531L172.593 31.1047L172.2 33.844Z" fill="white"/>
<path d="M267.921 70.2393C266.555 67.9142 263.772 66.4102 260.844 66.4102H256.172V94.1512C256.172 95.6334 257.378 96.8323 258.86 96.8323H261.287C264.288 96.8323 267.18 94.9432 268.466 92.1386C270.34 88.0551 270.486 83.0272 270.486 81.5885C270.478 80.8619 270.413 74.468 267.921 70.2393ZM267.543 91.7099C266.417 94.1657 263.895 95.8151 261.28 95.8151H258.853C257.93 95.8151 257.182 95.0667 257.182 94.1439V67.4128H260.844C263.423 67.4128 265.865 68.7207 267.049 70.7479C269.396 74.7514 269.468 80.891 269.468 81.574C269.468 82.969 269.33 87.8081 267.543 91.7099Z" fill="white"/>
<path d="M262.014 64.3105H243.486V66.8027H244.148C247.381 66.8027 248.042 68.0161 248.042 69.5202V94.2604C248.042 95.7572 247.374 96.9778 244.148 96.9778H243.436V99.47H248.878H256.26H262.029C270.661 99.47 278.951 93.4394 278.951 81.8939C278.937 69.6873 269.687 64.3105 262.014 64.3105ZM262.014 98.4528H244.446V97.9805C247.504 97.9079 249.059 96.6509 249.059 94.2604V69.5129C249.059 67.1297 247.526 65.88 244.504 65.7928V65.3205H262.022C265.931 65.3205 269.818 66.7664 272.688 69.2877C276.117 72.2957 277.927 76.6552 277.927 81.8939C277.927 93.265 269.68 98.4528 262.014 98.4528Z" fill="white"/>
<path d="M230.705 67.7177C236.081 67.7177 239.344 72.6294 240.092 76.2187H242.228V63.5107H240.412C240.412 63.5107 239.772 65.9448 238.37 65.9448C236.546 65.9448 234.25 64.0121 228.43 64.0121C220.089 64.0121 212.656 72.1571 212.656 82.0242C212.656 94.5505 221.027 99.9999 229.477 99.9999C234.163 99.9999 239.235 97.3115 242.221 92.9084V87.3791C240.034 91.6296 235.682 96.149 230.944 96.149C227.747 96.149 224.492 94.6377 222.996 90.5252C222.225 88.4108 221.964 85.5917 221.964 81.8643C221.971 76.6111 223.359 67.7177 230.705 67.7177ZM220.961 81.8643C220.961 86.0204 221.295 88.7959 222.051 90.8667C223.504 94.8629 226.752 97.1589 230.952 97.1589C234.912 97.1589 238.632 94.3252 241.218 90.8812V92.5887C238.45 96.4832 233.88 98.9827 229.484 98.9827C222.189 98.9827 213.673 94.5432 213.673 82.0169C213.673 77.5339 215.272 73.2543 218.178 69.9846C220.976 66.8312 224.718 65.0148 228.438 65.0148C231.998 65.0148 234.17 65.7704 235.762 66.3226C236.764 66.6714 237.556 66.9475 238.377 66.9475C239.896 66.9475 240.746 65.4653 241.138 64.5134H241.226V75.1942H240.891C239.671 70.9365 235.863 66.6932 230.712 66.6932C221.666 66.7077 220.961 78.3113 220.961 81.8643Z" fill="white"/>
<path d="M34.3166 64.376H23.9119V65.742H25.2707C27.0871 65.742 28.5621 67.4349 28.5621 69.2514V86.13L10.8261 64.376H0V65.742C2.41953 65.742 4.32319 67.9217 4.32319 70.3485V93.9989C4.32319 96.4184 1.77287 97.2177 0 97.2177V98.5836H11.7562V97.2177C9.5546 97.2031 8.39207 96.9052 7.63642 96.1932C6.88803 95.4811 6.68459 94.5365 6.68459 93.236V71.0751L29.6447 99.0704H30.9017V69.2804C30.9017 67.5148 32.2822 66.0181 34.3166 65.9454V64.376Z" fill="white"/>
<path d="M105.776 85.3445C107.967 85.3445 109.743 83.5683 109.743 81.3773C109.743 79.1863 107.967 77.4102 105.776 77.4102C103.585 77.4102 101.809 79.1863 101.809 81.3773C101.809 83.5683 103.585 85.3445 105.776 85.3445Z" fill="white"/>
<path d="M128.723 82.5837V84.2331H130.016C132.116 84.2331 132.704 85.243 132.704 87.0522V95.1391C132.225 95.7204 130.59 96.4615 128.272 96.4615C127.8 96.4615 125.126 96.4107 123.128 94.7686C121.035 93.0538 119.626 89.5735 119.626 81.3049C119.626 70.5369 123.411 65.9812 128.904 65.9812C130.692 65.9812 136.744 67.1874 139.323 74.9691H140.936V63.7434H139.411C139.214 65.2547 138.023 66.0902 135.77 65.1529C132.37 63.7361 129.326 63.5254 127.095 63.5254C118.311 63.5254 110.834 71.6559 110.834 81.3703C110.834 92.5598 119.284 99.1136 128.352 99.1136C132.653 99.1136 137.209 98.1181 140.82 96.2944V87.0522C140.82 84.887 142.331 84.2331 144.366 84.2331V82.5837H128.723Z" fill="white"/>
<path d="M63.212 88.0263C62.3619 92.7128 58.3221 96.3748 53.7882 96.2586H49.8791C48.6512 96.2586 47.6558 95.2631 47.6558 94.0352V82.0465H48.7311C51.9281 82.0465 53.9698 84.7276 53.9698 89.3342H55.3649V81.1674V80.7532V72.739H53.9626C53.9626 76.7933 52.2478 79.7215 48.7166 79.7215H47.6413V66.4322H53.265C60.836 66.4322 61.0976 73.1822 61.0976 74.0541H62.6089V66.7228V64.376H35.3184V65.7347H37.2438C38.7188 65.7347 39.9104 67.1297 39.9104 68.5974V93.7809C39.9104 96.4329 38.1738 97.036 36.6989 97.036H35.3184V98.5909H39.9104H63.0013L64.5562 88.0263H63.212Z" fill="white"/>
<path d="M83.2966 64.0195C73.4513 64.0195 65.873 71.2709 65.873 81.6901C65.873 92.1093 73.4586 99.3607 83.2966 99.3607C93.1418 99.3607 100.727 92.1093 100.727 81.6901C100.727 71.2709 93.1418 64.0195 83.2966 64.0195ZM83.2966 97.0792C78.5665 97.0792 74.7374 92.7487 74.7374 81.6901C74.7374 70.6315 78.5738 66.301 83.2966 66.301C88.0267 66.301 91.8558 70.6315 91.8558 81.6901C91.863 92.7487 88.0267 97.0792 83.2966 97.0792Z" fill="white"/>
<path d="M172.441 88.0263C171.59 92.7128 167.551 96.3748 163.017 96.2586H159.108C157.88 96.2586 156.884 95.2631 156.884 94.0352V82.0465H157.96C161.157 82.0465 163.198 84.7276 163.198 89.3342H164.601V81.1674V80.7532V72.739H163.191C163.191 76.7933 161.476 79.7215 157.945 79.7215H156.87V66.4322H162.494C170.065 66.4322 170.326 73.1822 170.326 74.0541H171.837V66.7228V64.376H144.547V65.7347H146.472C147.947 65.7347 149.139 67.1297 149.139 68.5974V93.7809C149.139 96.4329 147.402 97.036 145.927 97.036H144.547V98.5909H149.139H172.23L173.785 88.0263H172.441Z" fill="white"/>
<path d="M192.515 64.0195C182.67 64.0195 175.092 71.2709 175.092 81.6901C175.092 92.1093 182.677 99.3607 192.515 99.3607C202.361 99.3607 209.946 92.1093 209.946 81.6901C209.946 71.2709 202.361 64.0195 192.515 64.0195ZM192.515 97.0792C187.785 97.0792 183.956 92.7487 183.956 81.6901C183.956 70.6315 187.793 66.301 192.515 66.301C197.245 66.301 201.074 70.6315 201.074 81.6901C201.089 92.7487 197.245 97.0792 192.515 97.0792Z" fill="white"/>
</g>
<defs>
<clipPath id="clip0_4_5653">
<rect width="278.936" height="100" fill="white"/>
</clipPath>
</defs>
</svg>
