<svg width="315" height="100" viewBox="0 0 315 100" fill="none" xmlns="http://www.w3.org/2000/svg">
<g clip-path="url(#clip0_4_5669)">
<path d="M275.512 77.4393H38.7655C17.3917 77.4393 0 60.069 0 38.719C0 17.369 17.3929 0 38.7655 0H275.51C296.886 0 314.275 17.369 314.275 38.719C314.273 60.069 296.887 77.4393 275.512 77.4393ZM38.7655 9.15952C22.4476 9.15952 9.17024 22.4202 9.17024 38.7214C9.17024 55.0202 22.4464 68.2833 38.7655 68.2833H275.51C291.825 68.2833 305.105 55.0214 305.105 38.7214C305.105 22.4214 291.827 9.15952 275.51 9.15952H38.7655Z" fill="white"/>
<path d="M69.1715 56.6758V20.9365H58.4096V45.9246L42.5393 20.9365H30.9727V56.6758H41.7334V30.8794L58.4096 56.6758H69.1715Z" fill="white"/>
<path d="M86.658 56.6757V32.4912H75.8984V56.6757H86.658Z" fill="white"/>
<path d="M86.658 27.3841V20.9365H75.8984V27.3841H86.658Z" fill="white"/>
<path d="M124.318 56.6762V40.0131C124.318 36.5203 117.592 31.6846 114.097 31.6846H110.867C108.447 31.6846 105.756 33.8346 103.335 34.9096V32.4917H92.5742V56.6762H103.335V40.0131C103.335 38.4012 107.1 36.5203 108.716 36.5203C110.33 36.5203 113.289 38.4012 113.289 40.0131V56.675H124.318V56.6762Z" fill="white"/>
<path d="M214.351 57.509V40.8483C214.351 37.3543 207.628 32.5186 204.125 32.5186H200.9C198.477 32.5186 195.786 34.6686 193.364 35.7436V33.3257H182.605V57.5102H193.364V40.8483C193.364 39.2364 197.132 37.3543 198.746 37.3543C200.359 37.3543 203.316 39.2364 203.316 40.8483V57.509H214.351Z" fill="white"/>
<path d="M141.804 56.6764V32.4919H147.454V29.2669H141.804V24.1621H130.778V29.2669H125.127V32.4919H130.778V56.6764H141.804Z" fill="white"/>
<path d="M162.517 31.6855C153.91 31.6855 146.646 37.5963 146.646 44.851C146.646 52.3772 153.91 58.2879 162.517 58.2879C170.05 58.2879 176.237 53.9879 177.851 48.3451H166.824V51.5701C166.824 54.257 164.943 55.0665 162.521 55.0665C160.101 55.0665 158.486 54.2582 158.486 51.5701V44.8522H178.394C178.392 37.5975 171.396 31.6855 162.517 31.6855ZM162.517 34.1034C164.939 34.1034 166.821 35.7165 166.821 38.4034V40.8201H158.482V38.4034C158.482 35.7165 160.098 34.1034 162.517 34.1034Z" fill="white"/>
<path d="M268.512 31.6855C259.633 31.6855 252.639 37.5963 252.639 44.851C252.639 52.3772 259.63 58.2879 268.512 58.2879C277.116 58.2879 284.382 52.3772 284.382 44.851C284.378 37.5975 277.116 31.6855 268.512 31.6855ZM268.512 34.1034C270.929 34.1034 272.546 35.7165 272.546 38.4034V51.5689C272.546 54.2558 270.929 55.0629 268.512 55.0629C265.823 55.0629 264.205 54.2558 264.205 51.5689V38.4034C264.203 35.7165 265.82 34.1034 268.512 34.1034Z" fill="white"/>
<path d="M237.572 20.9365V34.1032C237.572 34.1032 234.343 31.6853 230.038 31.6853C223.313 31.6853 217.664 37.596 217.664 44.0449C217.664 50.7651 223.315 57.483 230.038 57.483C234.343 57.483 237.572 55.8699 237.572 55.8699V56.6746H248.333V20.9365H237.572ZM233.537 35.7163C235.957 35.7163 237.572 37.5972 237.572 40.0139V49.9568C237.572 52.377 235.957 53.1818 233.537 53.1818C230.849 53.1818 229.232 52.3782 229.232 49.9568V40.0139C229.232 37.5972 230.849 35.7163 233.537 35.7163Z" fill="white"/>
<path d="M31.7787 99.8479V91.1622C31.7787 89.5158 30.1311 87.8682 28.4823 87.8682H15.8906V99.8479H19.7882V91.7634C19.7882 91.1646 20.2371 90.5658 20.8371 90.5658H26.8323C27.4323 90.5658 28.0323 91.1646 28.0323 91.7634V99.8479H31.7787Z" fill="white"/>
<path d="M135.796 99.8479V91.1622C135.796 89.5158 134.147 87.8682 132.5 87.8682H119.908V99.8479H123.803V91.7634C123.803 91.1646 124.255 90.5658 124.855 90.5658H130.85C131.45 90.5658 132.047 91.1646 132.047 91.7634V99.8479H135.796Z" fill="white"/>
<path d="M192.731 99.8479V91.1622C192.731 89.5158 191.083 87.8682 189.433 87.8682H176.842V99.8479H180.738V91.7634C180.738 91.1646 181.187 90.5658 181.789 90.5658H187.783C188.383 90.5658 188.982 91.1646 188.982 91.7634V99.8479H192.731Z" fill="white"/>
<path d="M158.743 99.8479V91.1622C158.743 89.5158 157.094 87.8682 155.444 87.8682H138.506V99.8479H142.403V91.7634C142.403 91.1646 142.851 90.5658 143.451 90.5658H145.7C146.151 90.5658 146.75 91.1646 146.75 91.7634V99.8479H150.649V91.7634C150.649 91.1646 151.096 90.5658 151.696 90.5658H153.945C154.395 90.5658 154.995 91.1646 154.995 91.7634V99.8479H158.743Z" fill="white"/>
<path d="M13.1917 99.8479H3.29762C1.65 99.8479 0 98.8003 0 97.1538V87.7217H13.1917V90.5669H4.34643C3.89762 90.5669 3.29762 91.0169 3.29762 91.6157C3.29762 92.2157 3.89762 92.6645 4.34643 92.6645H12.5917V95.0586H4.34643C3.89762 95.0586 3.29762 95.6586 3.29762 96.1086C3.29762 96.7074 3.89762 97.305 4.34643 97.305H13.1917V99.8479Z" fill="white"/>
<path d="M61.9155 99.9997H52.0215C50.3727 99.9997 48.7227 98.952 48.7227 97.3056V87.8711H61.9155V90.7163H53.0691C52.6215 90.7163 52.0215 91.1663 52.0215 91.7663C52.0215 92.3663 52.6215 92.8151 53.0691 92.8151H61.3143V95.2092H53.0691C52.6215 95.2092 52.0215 95.8092 52.0215 96.2592C52.0215 96.8592 52.6215 97.4556 53.0691 97.4556H61.9155V99.9997Z" fill="white"/>
<path d="M174.694 99.8479H164.799C163.151 99.8479 161.5 98.8003 161.5 97.1538V87.7217H174.693V90.5669H165.849C165.399 90.5669 164.798 91.0169 164.798 91.6157C164.798 92.2157 165.398 92.6645 165.849 92.6645H174.09V95.0586H165.849C165.399 95.0586 164.798 95.6586 164.798 96.1086C164.798 96.7074 165.398 97.305 165.849 97.305H174.693V99.8503L174.694 99.8479Z" fill="white"/>
<path d="M33.4277 87.8701V90.5665H37.3254C38.3742 90.5665 38.3742 90.5666 38.3742 91.7642V99.8487H42.1218V91.7642C42.1218 90.5666 42.1218 90.5665 43.3206 90.5665H47.0682V87.8701H33.4277Z" fill="white"/>
<path d="M81.0586 87.8701V90.5665H84.955C86.0038 90.5665 86.0038 90.5666 86.0038 91.7642V99.8487H89.7503V91.7642C89.7503 90.5666 89.7503 90.5665 90.9515 90.5665H94.6991V87.8701H81.0586Z" fill="white"/>
<path d="M194.93 87.8701V90.5665H198.827C199.877 90.5665 199.877 90.5666 199.877 91.7642V99.8487H203.624V91.7642C203.624 90.5666 203.624 90.5665 204.823 90.5665H208.569V87.8701H194.93Z" fill="white"/>
<path d="M64.6055 87.8701V99.8511H68.5031V97.7558C68.5031 97.157 68.9531 96.5558 69.5519 96.5558H74.4983C75.0995 96.5558 75.5483 97.1558 75.5483 97.7558V99.8511H78.8459V96.5558C78.8459 96.1082 78.3971 95.5094 78.3971 94.9094C78.3971 94.4618 79.4471 93.4142 79.4471 92.2165V91.1677C79.4471 90.1177 77.7983 87.8713 76.7483 87.8713L64.6055 87.8701ZM69.5519 90.5665H74.4983C75.0995 90.5665 75.5471 91.1654 75.5471 91.7642V92.8118C75.5471 93.4106 75.0983 93.8606 74.4983 93.8606H69.5519C68.9531 93.8606 68.5031 93.4118 68.5031 92.8118V91.7642C68.5043 91.1666 68.9531 90.5665 69.5519 90.5665Z" fill="white"/>
<path d="M99.0824 87.8701C98.0324 87.8701 96.3848 90.1166 96.3848 91.1666V99.8511H100.281V96.5558H107.325V99.8511H111.222V91.1666C111.222 90.1166 109.574 87.8701 108.374 87.8701H99.0824ZM101.33 90.5665H106.276C106.725 90.5665 107.325 91.1654 107.325 91.7642V93.8606H100.281V91.7642C100.281 91.1666 100.731 90.5665 101.33 90.5665Z" fill="white"/>
<path d="M117.669 99.8479V87.8682H113.924V99.8491L117.669 99.8479Z" fill="white"/>
<path d="M314.286 99.8333V91.1488C314.286 89.5023 312.637 87.8535 310.986 87.8535H294.049V99.8333H297.945V91.7488C297.945 91.1488 298.394 90.5499 298.994 90.5499H301.242C301.693 90.5499 302.293 91.1488 302.293 91.7488V99.8321H306.188V91.7488C306.188 91.1488 306.637 90.5499 307.237 90.5499H309.486C309.936 90.5499 310.537 91.1488 310.537 91.7488V99.8321H314.285L314.286 99.8333Z" fill="white"/>
<path d="M291.365 99.8334H281.471C279.823 99.8334 278.174 98.7846 278.174 97.1406V87.7061H291.364V90.5513H282.521C282.071 90.5513 281.471 91.0001 281.471 91.6001C281.471 92.1989 282.071 92.6477 282.521 92.6477H290.764V95.043H282.521C282.071 95.043 281.471 95.643 281.471 96.0918C281.471 96.6918 282.071 97.2894 282.521 97.2894H291.364L291.365 99.8334Z" fill="white"/>
<path d="M262.877 87.8535V90.5476H266.773C267.823 90.5476 267.823 90.5476 267.823 91.7464V99.8297H271.57V91.7464C271.57 90.5476 271.57 90.5476 272.771 90.5476H276.516V87.8535H262.877Z" fill="white"/>
<path d="M218.48 87.9162C217.43 87.9162 215.182 89.5638 215.182 90.6103V92.2591C215.182 93.3067 217.43 94.9531 218.48 94.9531H225.076C225.676 94.9531 226.275 95.5531 226.275 96.0019C226.275 96.6008 225.675 97.1984 225.076 97.1984H215.182V99.8924H226.275C227.325 99.8924 229.422 98.246 229.422 97.1984V95.5519C229.422 94.3531 227.325 92.7055 226.275 92.7055H219.679C219.079 92.7055 218.48 92.2567 218.48 91.6567C218.48 91.0579 219.079 90.6079 219.679 90.6079H229.422V87.915L218.48 87.9162Z" fill="white"/>
<path d="M250.232 87.9162C249.182 87.9162 246.934 89.5638 246.934 90.6103V92.2591C246.934 93.3067 249.182 94.9531 250.232 94.9531H256.828C257.426 94.9531 258.026 95.5531 258.026 96.0019C258.026 96.6008 257.426 97.1984 256.828 97.1984H246.934V99.8924H258.026C259.075 99.8924 261.174 98.246 261.174 97.1984V95.5519C261.174 94.3531 259.075 92.7055 258.026 92.7055H251.43C250.83 92.7055 250.231 92.2567 250.231 91.6567C250.231 91.0579 250.831 90.6079 251.43 90.6079H261.174V87.915L250.232 87.9162Z" fill="white"/>
<path d="M230.621 87.916V93.3089C230.621 94.3565 232.269 96.0029 233.319 96.0029H236.015V99.8946H239.913V96.0029H242.612C243.659 96.0029 245.309 94.3565 245.309 93.3089V87.916H241.562V92.2601C241.562 92.7077 240.962 93.3089 240.363 93.3089H235.566C234.966 93.3089 234.366 92.7089 234.366 92.2601V87.916H230.621Z" fill="white"/>
</g>
<defs>
<clipPath id="clip0_4_5669">
<rect width="314.286" height="100" fill="white"/>
</clipPath>
</defs>
</svg>
