<svg width="867" height="100" viewBox="0 0 867 100" fill="none" xmlns="http://www.w3.org/2000/svg">
<path d="M121.502 74.066V1.92018H151.314V86.4369C151.314 88.8223 150.468 91.1077 148.779 93.2931C147.289 95.1806 145.649 96.6264 143.86 97.616C138.691 99.3056 133.724 99.7014 128.954 98.8077C123.983 98.1118 119.414 96.4743 115.239 93.891C111.364 91.0077 107.437 88.1264 103.464 85.2452C99.487 82.3639 95.2891 79.2077 90.8682 75.7806C86.4453 72.3514 81.7516 68.6514 76.7828 64.6743C66.7453 56.8243 57.2057 49.3723 48.1641 42.316C39.0203 35.3619 33.6536 30.5931 32.0641 28.0056V97.6181H3.44531V14.4431C3.44531 11.1639 4.8849 8.23477 7.76823 5.64727C10.8474 3.16602 13.9766 1.52435 17.1599 0.728516C18.3516 0.728516 19.7182 0.778518 21.2599 0.876434C22.7995 0.976434 24.5141 1.12643 26.4016 1.32435C30.0766 1.82227 33.2078 2.86602 35.7932 4.45352L121.502 74.066Z" fill="white"/>
<path d="M170.848 43.5098C171.741 41.9202 172.983 40.5286 174.575 39.3369C176.164 38.1432 178.027 37.2015 180.164 36.5057C182.3 35.8119 184.562 35.4619 186.948 35.4619C189.333 35.4619 191.568 35.8098 193.656 36.5057C195.741 37.2015 197.581 38.1452 199.17 39.3369C200.76 40.5286 202.002 41.9223 202.898 43.5098C203.791 45.0994 204.239 46.789 204.239 48.5765C204.239 50.3661 203.793 52.0557 202.898 53.6473C202.002 55.239 200.76 56.6057 199.17 57.7452C197.581 58.889 195.741 59.8077 193.656 60.5036C191.568 61.1994 189.333 61.5452 186.948 61.5452C184.562 61.5452 182.302 61.1994 180.164 60.5036C178.027 59.8077 176.164 58.889 174.575 57.7452C172.985 56.6057 171.743 55.239 170.848 53.6473C169.952 52.0557 169.506 50.3682 169.506 48.5765C169.506 46.789 169.954 45.0994 170.848 43.5098Z" fill="white"/>
<path d="M522.922 5.647C518.547 3.16575 514.372 1.91992 510.397 1.91992H402.18H401.137H237.17C232.199 1.91992 228.474 3.40951 225.991 6.39076C223.505 9.17409 222.264 12.6512 222.264 16.8241V82.7116C222.264 88.4783 223.703 92.3991 226.587 94.4866C229.568 96.5741 232.251 97.6178 234.637 97.6178H371.326C379.572 97.6178 383.697 93.4949 383.697 85.247V40.5283H283.08V59.1595H355.226V77.7908H252.076V21.8949H401.137H402.18H496.835C497.428 22.0949 498.026 22.2928 498.62 22.4908C499.909 22.8887 500.562 23.4866 500.562 24.2803V40.5283H416.043V59.1595H500.562V97.6178H529.032V16.8262C529.034 11.9595 526.995 8.23242 522.922 5.647Z" fill="white"/>
<path d="M597.301 59.1595H669.447V77.7908H566.295V21.8949H716.401V21.747H858.155V1.91992H716.401H715.355H551.391C546.42 1.91992 542.693 3.40951 540.211 6.39076C537.726 9.17409 536.484 12.6512 536.484 16.8241V82.7116C536.484 88.4783 537.922 92.3991 540.807 94.4866C543.789 96.5741 546.472 97.6178 548.855 97.6178H685.543C693.791 97.6178 697.916 93.4949 697.916 85.247V40.5283H597.301V59.1595Z" fill="white"/>
<path d="M715.355 39.1865V97.6178H863.224V76.4511H745.168V59.1594H830.876V39.1865H715.355Z" fill="white"/>
</svg>
