<svg width="456" height="100" viewBox="0 0 456 100" fill="none" xmlns="http://www.w3.org/2000/svg">
<g clip-path="url(#clip0_4_5707)">
<path d="M27.2808 87.2454L27.2261 53.937H31.5503V93.8203H27.2261L4.2149 60.2418L4.32186 93.8203H0V53.937H4.53807L27.2808 87.2454Z" fill="white"/>
<path d="M36.3789 53.937H57.5899V57.8715H40.81V71.723H57.483V75.6575H40.81V89.8858H57.5899V93.8203H36.3789V53.937Z" fill="white"/>
<path d="M59.6055 73.9864C59.6055 61.6992 69.1686 53.2354 80.4615 53.2354C92.1844 53.2354 101.315 62.1828 101.315 73.8774C101.315 85.5743 92.2391 94.5217 80.4615 94.5217C68.6293 94.5217 59.6055 85.4131 59.6055 74.0409V73.9864ZM64.0889 73.8774C64.0889 83.2562 71.1669 90.5872 80.5138 90.5872C89.97 90.5872 96.8864 82.9883 96.8864 73.8774C96.8864 64.7687 89.97 57.1699 80.4615 57.1699C71.0599 57.1699 64.0889 64.6075 64.0889 73.8229V73.8774Z" fill="white"/>
<path d="M138.222 64.285C136.979 62.5595 135.466 61.1042 133.738 59.9736C131.144 58.1936 128.01 57.1697 124.446 57.1697C115.693 57.1697 108.076 63.8536 108.076 73.8227C108.076 83.9553 115.748 90.6392 124.498 90.6392C128.713 90.6392 132.441 89.1862 135.197 87.0294C138.008 84.8181 139.951 81.8008 140.6 78.6722H118.838V75.0079H145.787C145.732 77.3259 145.193 80.2365 144.002 82.7157C140.545 90.2079 132.548 94.5738 124.498 94.5738C112.83 94.5738 103.59 85.6263 103.59 73.8227C103.59 61.858 112.991 53.2329 124.553 53.2329C132.657 53.2329 140.168 57.7623 143.301 64.2827H138.222V64.285Z" fill="white"/>
<path d="M147.93 53.937H170.081V57.8715H152.361V71.723H169.971V75.6575H152.361V89.8858H170.081V93.8203H147.93V53.937Z" fill="white"/>
<path d="M171.863 73.9864C171.863 61.6992 181.426 53.2354 192.719 53.2354C204.442 53.2354 213.573 62.1828 213.573 73.8774C213.573 85.5743 204.497 94.5217 192.719 94.5217C180.887 94.5217 171.863 85.4131 171.863 74.0409V73.9864ZM176.349 73.8774C176.349 83.2562 183.425 90.5872 192.772 90.5872C202.228 90.5872 209.142 82.9883 209.142 73.8774C209.142 64.7687 202.228 57.1699 192.719 57.1699C183.318 57.1699 176.349 64.6075 176.349 73.8229V73.8774Z" fill="white"/>
<path d="M262.914 73.9864C262.914 61.6992 272.477 53.2354 283.77 53.2354C295.495 53.2354 304.626 62.1828 304.626 73.8774C304.626 85.5743 295.55 94.5217 283.77 94.5217C271.938 94.5217 262.914 85.4131 262.914 74.0409V73.9864ZM267.398 73.8774C267.398 83.2562 274.475 90.5872 283.825 90.5872C293.279 90.5872 300.195 82.9883 300.195 73.8774C300.195 64.7687 293.281 57.1699 283.77 57.1699C274.371 57.1699 267.398 64.6075 267.398 73.8229V73.8774Z" fill="white"/>
<path d="M349.253 83.0947C346.661 89.2406 339.693 94.5237 330.885 94.5237C319.053 94.5237 310.031 85.4128 310.031 73.8794C310.031 62.5072 318.837 53.2373 330.83 53.2373C340.717 53.2373 346.93 59.8123 349.253 64.8797H344.445C343.093 62.5072 338.555 57.1718 330.83 57.1718C321.483 57.1718 314.46 64.555 314.46 73.8249C314.46 83.2582 321.536 90.5869 330.83 90.5869C339.206 90.5869 343.473 84.6045 344.445 83.0947H349.253Z" fill="white"/>
<path d="M393.125 53.937H415.278V57.8715H397.558V71.723H415.169V75.6575H397.558V89.8858H415.278V93.8203H393.125V53.937Z" fill="white"/>
<path d="M437.751 57.8715H424.867V53.937H455.173V57.8715H442.237V93.8203H437.751V57.8715Z" fill="white"/>
<path d="M381.828 93.8201H387.393L366.621 73.8229L385.716 53.9346H380.854L359.896 75.5597V70.4355V53.9368H355.465V93.8201H359.896V80.8224L363.974 76.5723L381.828 93.8201Z" fill="white"/>
<path d="M243.105 96.8692C234.405 79.6054 225.727 62.3893 217.044 45.1596C217.092 45.1256 217.131 45.0938 217.174 45.0711C219.341 43.9654 221.507 42.862 223.672 41.7564C226.731 40.1989 229.794 38.6483 232.85 37.0817C236.064 35.4334 239.441 34.4436 243.087 34.5616C245.57 34.6411 247.844 35.3608 249.842 36.8797C251.603 38.2214 252.848 39.9628 253.804 41.9312C254.71 43.7974 255.356 45.7431 255.393 47.8387C255.445 50.7515 254.562 53.3851 252.996 55.8303C251.949 57.465 250.752 58.9702 249.348 60.3029C248.381 61.2201 247.348 62.067 246.346 62.9456C242.678 60.3483 239.088 57.81 235.484 55.2604C236.166 52.7676 236.842 50.2974 237.52 47.8205C241.023 47.8205 244.475 47.8205 247.91 47.8205C247.91 45.196 247.91 42.5919 247.91 39.9514C242.546 40.0037 237.24 40.0536 231.935 40.1058C230.003 45.5547 228.08 50.9717 226.155 56.4002C232.366 61.5243 238.554 66.6304 244.749 71.7432C247.211 70.8056 249.546 69.6522 251.745 68.2287C255.247 65.9583 258.167 63.1068 260.311 59.5151C262.305 56.1754 263.304 52.5383 263.358 48.6537C263.392 46.2471 263.026 43.895 262.316 41.5884C261.376 38.5302 259.919 35.7649 257.696 33.4469C253.531 29.0946 248.422 26.7562 242.377 26.5405C238.804 26.4156 235.424 27.2193 232.236 28.8176C230.8 29.5373 229.393 30.3161 227.946 31.0153C224.728 32.5683 221.492 34.0894 218.262 35.6196C215.415 36.9705 212.566 38.3145 209.718 39.6608C208.756 40.1172 207.791 40.5735 206.828 41.0321C216.498 60.7025 226.159 80.3524 235.814 100C238.262 98.9488 240.661 97.9181 243.105 96.8692Z" fill="white"/>
<path d="M243.106 96.8693C240.659 97.9182 238.263 98.949 235.812 100C226.158 80.3525 216.497 60.7026 206.824 41.0322C207.789 40.5759 208.752 40.1173 209.715 39.6632C212.564 38.3146 215.411 36.9706 218.26 35.6197C221.488 34.0895 224.724 32.5684 227.944 31.0154C229.389 30.3185 230.796 29.5397 232.232 28.8177C235.42 27.2194 238.8 26.4157 242.373 26.5429C248.418 26.7563 253.527 29.0947 257.694 33.447C259.916 35.765 261.372 38.5303 262.314 41.5885C263.024 43.8952 263.391 46.2495 263.357 48.6561C263.3 52.5384 262.303 56.1755 260.309 59.5152C258.163 63.1069 255.245 65.9585 251.741 68.2311C249.542 69.6523 247.207 70.8057 244.747 71.7433C238.552 66.6305 232.362 61.5245 226.151 56.4003C228.076 50.9719 229.999 45.5548 231.934 40.1082C237.239 40.056 242.544 40.0038 247.908 39.9538C247.908 42.592 247.908 45.1961 247.908 47.8206C244.474 47.8206 241.021 47.8206 237.519 47.8206C236.841 50.2976 236.165 52.7677 235.48 55.2628C239.085 57.8124 242.676 60.3507 246.345 62.9457C247.346 62.0693 248.379 61.2202 249.346 60.303C250.748 58.9703 251.945 57.4673 252.995 55.8304C254.558 53.3852 255.441 50.7516 255.391 47.8388C255.352 45.7432 254.708 43.7998 253.803 41.9313C252.849 39.9629 251.6 38.2215 249.838 36.8798C247.842 35.3632 245.566 34.6435 243.086 34.5617C239.44 34.4437 236.062 35.4336 232.849 37.0818C229.792 38.6484 226.729 40.199 223.668 41.7588C221.504 42.8622 219.337 43.9678 217.173 45.0735C217.129 45.0962 217.088 45.128 217.041 45.1597C225.728 62.3895 234.405 79.6056 243.106 96.8693Z" fill="white"/>
<path d="M249.243 21.246C247.509 20.8895 245.82 20.5422 244.086 20.1857C245.096 13.4609 246.105 6.73841 247.117 0C250.276 0.458611 253.406 0.917223 256.583 1.38037C254.132 8.01889 251.692 14.6188 249.243 21.246Z" fill="white"/>
<path d="M277.424 15.7607C279.101 18.4693 280.753 21.1438 282.435 23.8614C276.96 27.2419 271.486 30.6202 265.999 34.0098C264.847 32.2957 263.719 30.6134 262.562 28.8902C267.513 24.5175 272.453 20.1539 277.424 15.7607Z" fill="white"/>
<path d="M264.201 5.19238C266.623 6.86109 269.001 8.50256 271.388 10.1486C267.073 15.2841 262.767 20.406 258.434 25.5597C256.918 24.6266 255.416 23.7003 253.871 22.749C257.301 16.9233 260.735 11.0817 264.201 5.19238Z" fill="white"/>
</g>
<defs>
<clipPath id="clip0_4_5707">
<rect width="455.172" height="100" fill="white"/>
</clipPath>
</defs>
</svg>
