<svg width="339" height="100" viewBox="0 0 339 100" fill="none" xmlns="http://www.w3.org/2000/svg">
<g clip-path="url(#clip0_4_5725)">
<path d="M20.2857 65.0319L20.2451 40.2041H23.4605V69.9329H20.2451L3.13415 44.9036L3.21369 69.9329H0V40.2041H3.37446L20.2857 65.0319Z" fill="white"/>
<path d="M27.0508 40.2041H42.8231V43.1369H30.3457V53.4616H42.7436V56.3944H30.3457V67.0001H42.8231V69.9329H27.0508V40.2041Z" fill="white"/>
<path d="M44.3242 55.1488C44.3242 45.9901 51.4353 39.6812 59.8325 39.6812C68.5496 39.6812 75.3391 46.3505 75.3391 55.0676C75.3391 63.7864 68.5902 70.4558 59.8325 70.4558C51.0342 70.4558 44.3242 63.6645 44.3242 55.1878V55.1488ZM47.6581 55.0676C47.6581 62.0585 52.9211 67.523 59.8715 67.523C66.903 67.523 72.0459 61.8588 72.0459 55.0676C72.0459 48.2781 66.903 42.6139 59.8325 42.6139C52.8416 42.6139 47.6581 48.1579 47.6581 55.027V55.0676Z" fill="white"/>
<path d="M102.779 47.9178C101.855 46.6317 100.73 45.5469 99.4454 44.7041C97.5161 43.3774 95.1858 42.6141 92.5357 42.6141C86.027 42.6141 80.3629 47.5963 80.3629 55.0272C80.3629 62.58 86.0677 67.5621 92.5746 67.5621C95.7087 67.5621 98.4807 66.4791 100.53 64.8714C102.62 63.2231 104.065 60.974 104.548 58.642H88.3658V55.9106H108.404C108.364 57.6385 107.963 59.808 107.078 61.656C104.507 67.2406 98.5603 70.4949 92.5746 70.4949C83.8981 70.4949 77.0273 63.8255 77.0273 55.0272C77.0273 46.1088 84.0183 39.6797 92.6152 39.6797C98.6415 39.6797 104.226 43.0558 106.556 47.9161H102.779V47.9178Z" fill="white"/>
<path d="M110 40.2041H126.471V43.1369H113.295V53.4616H126.39V56.3944H113.295V67.0001H126.471V69.9329H110V40.2041Z" fill="white"/>
<path d="M127.797 55.1488C127.797 45.9901 134.908 39.6812 143.305 39.6812C152.022 39.6812 158.812 46.3505 158.812 55.0676C158.812 63.7864 152.063 70.4558 143.305 70.4558C134.507 70.4558 127.797 63.6645 127.797 55.1878V55.1488ZM131.132 55.0676C131.132 62.0585 136.394 67.523 143.344 67.523C150.376 67.523 155.517 61.8588 155.517 55.0676C155.517 48.2781 150.376 42.6139 143.305 42.6139C136.314 42.6139 131.132 48.1579 131.132 55.027V55.0676Z" fill="white"/>
<path d="M195.5 55.1488C195.5 45.9901 202.611 39.6812 211.008 39.6812C219.727 39.6812 226.517 46.3505 226.517 55.0676C226.517 63.7864 219.768 70.4558 211.008 70.4558C202.21 70.4558 195.5 63.6645 195.5 55.1878V55.1488ZM198.834 55.0676C198.834 62.0585 204.097 67.523 211.049 67.523C218.079 67.523 223.222 61.8588 223.222 55.0676C223.222 48.2781 218.08 42.6139 211.008 42.6139C204.019 42.6139 198.834 48.1579 198.834 55.027V55.0676Z" fill="white"/>
<path d="M259.698 61.9386C257.771 66.5197 252.589 70.4577 246.04 70.4577C237.241 70.4577 230.531 63.6665 230.531 55.0713C230.531 46.5928 237.08 39.6831 245.997 39.6831C253.349 39.6831 257.97 44.5857 259.696 48.3613H256.121C255.115 46.5945 251.743 42.6159 245.997 42.6159C239.047 42.6159 233.824 48.1193 233.824 55.029C233.824 62.0605 239.086 67.525 245.997 67.525C252.227 67.525 255.398 63.064 256.121 61.9403L259.698 61.9386Z" fill="white"/>
<path d="M292.324 40.2041H308.797V43.1369H295.621V53.4616H308.716V56.3944H295.621V67.0001H308.797V69.9329H292.324V40.2041Z" fill="white"/>
<path d="M325.506 43.1369H315.926V40.2041H338.461V43.1369H328.841V69.9329H325.506V43.1369Z" fill="white"/>
<path d="M127.907 92.8417C126.682 97.0098 122.758 99.9798 118.045 99.9798C111.886 99.9798 107.473 95.1026 107.473 89.4909C107.473 84.1246 111.641 79.0562 118.017 79.0562C123.82 79.0849 127.117 83.3614 127.907 86.3043H123.629C123.003 84.9149 121.206 82.654 117.99 82.6269C114.066 82.6269 111.532 85.9218 111.532 89.4926C111.532 93.17 114.176 96.4142 118.017 96.4142C121.614 96.4142 123.248 93.5795 123.629 92.8434L127.907 92.8417Z" fill="white"/>
<path d="M138.777 89.6807C138.777 83.2245 143.736 79.0547 149.349 79.0547C155.452 79.0547 159.948 83.7948 159.948 89.5165C159.948 95.2382 155.479 99.9784 149.322 99.9784C143.137 99.9784 138.777 95.1011 138.777 89.7078V89.6807ZM142.837 89.5182C142.837 93.1973 145.481 96.411 149.403 96.411C153.492 96.411 155.888 92.869 155.888 89.5453C155.888 86.1675 153.492 82.6238 149.376 82.6238C145.343 82.6238 142.837 85.9475 142.837 89.4912V89.5182Z" fill="white"/>
<path d="M171.938 79.437H175.997V96.0301H182.618V99.5992H171.938V79.437Z" fill="white"/>
<path d="M192.602 89.6807C192.602 83.2245 197.56 79.0547 203.172 79.0547C209.276 79.0547 213.772 83.7948 213.772 89.5165C213.772 95.2382 209.303 99.9784 203.145 99.9784C196.961 99.9784 192.602 95.1011 192.602 89.7078V89.6807ZM196.661 89.5182C196.661 93.1973 199.305 96.411 203.226 96.411C207.314 96.411 209.711 92.869 209.711 89.5453C209.711 86.1675 207.313 82.6238 203.2 82.6238C199.168 82.6238 196.661 85.9475 196.661 89.4912V89.5182Z" fill="white"/>
<path d="M283.924 69.9331H288.062L272.616 55.0273L286.814 40.2026H283.2L267.615 56.3219V52.5023V40.2043H264.32V69.9331H267.615V60.2446L270.648 57.0766L283.924 69.9331Z" fill="white"/>
<path d="M230.333 79.4368C232.601 79.4943 234.604 79.6111 236.408 81.1223C236.872 81.5014 237.31 81.9938 237.629 82.488C238.559 83.9146 238.646 85.5104 238.646 86.0638C238.646 86.5563 238.588 87.9237 237.833 89.1743C237.629 89.4924 237.368 89.9291 236.757 90.4807C236.089 91.0629 235.391 91.3811 235.129 91.4978C234.635 91.7009 234.141 91.8464 233.066 92.08L238.996 99.956H234.432L228.734 92.1951V99.956H224.637V79.4351L230.333 79.4368ZM228.734 89.1743H230.77C231.001 89.1743 231.205 89.1743 231.438 89.1455C231.873 89.1455 233.327 89.0863 234.286 87.9254C234.518 87.6326 234.926 87.0234 234.926 86.0351C234.926 85.7152 234.897 84.93 234.373 84.2057C233.471 82.9838 232.076 82.8671 230.68 82.8383H228.732V89.1743H228.734Z" fill="white"/>
<path d="M180.772 72.2058C174.303 59.3375 167.85 46.5047 161.394 33.6618C161.429 33.6364 161.458 33.611 161.49 33.5958C163.101 32.7716 164.712 31.9475 166.322 31.125C168.596 29.9641 170.874 28.8065 173.147 27.6388C175.536 26.4119 178.048 25.6741 180.759 25.7604C182.605 25.8213 184.296 26.3578 185.781 27.4899C187.091 28.4884 188.017 29.7864 188.728 31.2536C189.401 32.6464 189.882 34.095 189.909 35.6587C189.948 37.8282 189.291 39.7913 188.127 41.6139C187.349 42.8341 186.458 43.9561 185.414 44.9478C184.695 45.6332 183.927 46.2644 183.182 46.9176C180.454 44.9833 177.785 43.0913 175.105 41.1908C175.614 39.3327 176.115 37.4898 176.619 35.6435C179.224 35.6435 181.791 35.6435 184.345 35.6435C184.345 33.6872 184.345 31.7478 184.345 29.7796C180.356 29.8185 176.411 29.8558 172.466 29.8947C171.03 33.9545 169.6 37.9941 168.168 42.0387C172.786 45.8582 177.388 49.6659 181.994 53.4753C183.825 52.7781 185.561 51.9184 187.196 50.8573C189.801 49.165 191.972 47.0378 193.566 44.3605C195.049 41.8728 195.793 39.1618 195.834 36.2662C195.857 34.4724 195.587 32.7175 195.059 30.9981C194.358 28.7202 193.275 26.659 191.622 24.9295C188.525 21.687 184.725 19.9439 180.231 19.7832C177.574 19.6884 175.061 20.2892 172.69 21.4805C171.622 22.017 170.576 22.5975 169.501 23.1187C167.107 24.2762 164.7 25.4084 162.299 26.549C160.182 27.5559 158.063 28.5595 155.946 29.563C155.23 29.9032 154.514 30.2433 153.797 30.5835C160.989 45.2473 168.171 59.8925 175.352 74.5395C177.171 73.7559 178.955 72.9876 180.772 72.2058Z" fill="white"/>
<path d="M180.772 72.2055C178.953 72.9873 177.171 73.7556 175.348 74.5392C168.169 59.8939 160.985 45.247 153.793 30.5849C154.511 30.243 155.226 29.9029 155.942 29.5627C158.061 28.5592 160.178 27.5556 162.297 26.5504C164.696 25.4098 167.103 24.2759 169.498 23.1184C170.572 22.5972 171.618 22.0167 172.686 21.4802C175.057 20.2889 177.57 19.6898 180.227 19.7829C184.722 19.9436 188.521 21.6867 191.619 24.9309C193.271 26.6587 194.354 28.7199 195.055 30.9995C195.583 32.7172 195.855 34.4721 195.83 36.2659C195.789 39.1615 195.046 41.8725 193.564 44.3619C191.968 47.0375 189.797 49.1647 187.191 50.857C185.558 51.9181 183.821 52.7778 181.99 53.475C177.385 49.6656 172.782 45.8596 168.164 42.0401C169.596 37.9938 171.026 33.9559 172.462 29.8944C176.407 29.8555 180.354 29.8182 184.342 29.7793C184.342 31.7475 184.342 33.6885 184.342 35.6449C181.787 35.6449 179.22 35.6449 176.617 35.6449C176.111 37.4912 175.608 39.3324 175.101 41.1905C177.781 43.091 180.45 44.983 183.178 46.919C183.924 46.2641 184.693 45.6329 185.41 44.9492C186.454 43.9558 187.345 42.8338 188.123 41.6153C189.287 39.7927 189.944 37.8296 189.907 35.6584C189.878 34.0964 189.397 32.6461 188.724 31.255C188.015 29.7878 187.087 28.4898 185.778 27.4896C184.293 26.3575 182.601 25.821 180.756 25.7618C178.045 25.6738 175.532 26.4116 173.143 27.6402C170.872 28.8079 168.594 29.9638 166.318 31.1247C164.707 31.9489 163.097 32.7713 161.488 33.5955C161.454 33.6124 161.425 33.6378 161.39 33.6615C167.849 46.5044 174.302 59.3372 180.772 72.2055Z" fill="white"/>
<path d="M185.335 15.8366C184.045 15.5709 182.79 15.312 181.5 15.0463C182.251 10.0337 183.001 5.02277 183.754 0C186.103 0.341846 188.43 0.683692 190.792 1.02892C188.97 5.97723 187.156 10.8968 185.335 15.8366Z" fill="white"/>
<path d="M206.289 11.748C207.536 13.767 208.765 15.7605 210.016 17.7862C205.944 20.306 201.874 22.8242 197.794 25.3508C196.937 24.0731 196.098 22.8191 195.238 21.5347C198.919 18.2753 202.593 15.0227 206.289 11.748Z" fill="white"/>
<path d="M196.459 3.87012C198.259 5.11396 200.028 6.3375 201.803 7.56442C198.594 11.3924 195.393 15.2103 192.17 19.0518C191.043 18.3563 189.926 17.6658 188.777 16.9567C191.328 12.6143 193.881 8.25996 196.459 3.87012Z" fill="white"/>
</g>
<defs>
<clipPath id="clip0_4_5725">
<rect width="338.462" height="100" fill="white"/>
</clipPath>
</defs>
</svg>
