<svg width="747" height="100" viewBox="0 0 747 100" fill="none" xmlns="http://www.w3.org/2000/svg">
<g clip-path="url(#clip0_4_7980)">
<path d="M405.798 67.6115H392.509L389.721 84.0771H369.361L381.15 15.9237H413.298C425.446 15.9237 431.517 21.6644 431.517 33.1512C431.517 38.6062 430.766 43.5242 429.266 47.9078C427.766 52.3179 426.113 55.8232 424.3 58.4158C422.47 60.9845 419.954 63.1671 416.763 64.9581C413.597 66.7279 409.941 67.6115 405.798 67.6115ZM403.118 33.3681H398.404L395.509 50.1644H400.224C402.655 50.1644 404.486 49.8972 405.726 49.3629C406.986 48.8073 407.798 47.5454 408.155 45.5824C409.084 40.2041 409.549 37.2597 409.549 36.7517C409.549 35.3708 409.012 34.4607 407.941 34.0242C406.869 33.5877 405.261 33.3681 403.118 33.3681ZM474.491 66.6274L471.491 84.0771H430.766L442.554 15.9237H462.917L454.129 66.6274H474.491ZM490.459 73.2808L486.279 84.0771H464.845L493.031 15.9237H524.539L529.253 84.0771H507.713L507.285 73.2808H490.459ZM505.676 36.8576H504.605L497.105 55.9449H505.676V36.8576ZM533.861 15.9237H556.367L557.761 39.9131H558.509L568.369 15.9237H590.875L563.869 65.5375L560.761 84.0771H540.398L543.507 65.5375L533.861 15.9237ZM602.557 84.0771H582.195L593.983 15.9237H614.345L602.557 84.0771ZM671.787 84.0771H652.607L641.676 59.8681C641.39 59.3602 641.245 58.6433 641.245 57.7226C641.245 56.8285 641.319 55.7994 641.459 54.6327H640.605L635.565 84.0771H615.203L626.991 15.9237H646.176L657.105 40.1327C657.319 40.6406 657.427 41.3576 657.427 42.2756C657.427 43.1724 657.359 44.2015 657.211 45.3655H658.073L663.216 15.9237H683.578L671.787 84.0771ZM721.835 64.011L722.372 61.0666H717.229L720.118 44.384H744.66L738.34 80.8073C729.626 84.0771 720.872 85.7147 712.081 85.7147C703.298 85.7147 696.946 83.9316 693.041 80.3708C689.163 76.8073 687.221 71.3179 687.221 63.9052C687.221 60.7756 687.721 56.1618 688.724 50.0533C690.861 37.4052 694.65 28.2808 700.078 22.683C705.512 17.0851 714.515 14.2861 727.086 14.2861C729.732 14.2861 733.097 14.5771 737.195 15.1591C741.314 15.7385 744.338 16.3946 746.271 17.1195L740.375 33.8047C735.015 32.7888 730.097 32.2782 725.623 32.2782C721.166 32.2782 717.98 32.6433 716.046 33.3681C714.121 34.0957 712.975 35.5507 712.621 37.7306L707.369 68.593H714.121C716.547 68.593 718.348 68.3285 719.512 67.7941C720.705 67.2359 721.48 65.974 721.835 64.011Z" fill="white"/>
<path d="M186.952 84.0771H167.769L156.838 59.8681C156.552 59.3602 156.41 58.6433 156.41 57.7226C156.41 56.8285 156.481 55.7994 156.624 54.6327H155.767L150.73 84.0771H130.367L142.156 15.9237H161.338L172.269 40.1327C172.484 40.6406 172.592 41.3576 172.592 42.2756C172.592 43.1724 172.521 44.2015 172.378 45.3655H173.235L178.378 15.9237H198.74L186.952 84.0771ZM227.245 38.7121L222.317 67.0639H230.783C233.568 67.0639 235.642 66.7279 236.999 66.048C238.357 65.347 239.248 63.7597 239.677 61.2861L244.608 32.9343H236.034C233.32 32.9343 231.283 33.2729 229.925 33.9502C228.568 34.6539 227.674 36.2412 227.245 38.7121ZM239.571 14.2861C248.645 14.2861 255.111 16.093 258.968 19.7015C262.825 23.2914 264.756 28.8258 264.756 36.3152C264.756 43.802 263.587 51.6433 261.253 59.8311C258.944 67.9978 255.264 74.347 250.216 78.8787C245.19 83.4343 237.83 85.7147 228.14 85.7147C218.47 85.7147 211.708 83.9211 207.849 80.3338C203.992 76.7226 202.063 71.1724 202.063 63.6856C202.063 60.1221 202.563 55.4211 203.563 49.5798C204.563 43.7174 205.886 38.6671 207.529 34.4237C209.171 30.1618 211.386 26.4634 214.171 23.3364C219.531 17.3047 227.997 14.2861 239.571 14.2861ZM324.447 53.9793L335.915 15.9237H357.24L335.486 84.0771H308.478V58.9978H307.301L298.407 84.0771H273.65V15.9237H294.976L293.047 53.9793H293.69L307.621 15.9237H323.804V53.9793H324.447Z" fill="white"/>
<path d="M66.4948 48.0477L45.7263 32.9515C44.9652 32.3934 43.9572 32.3165 43.122 32.7452C42.2786 33.1739 41.752 34.0352 41.752 34.9735V65.1579C41.752 66.1001 42.2786 66.9655 43.122 67.3942C43.4799 67.5681 43.8667 67.6571 44.2616 67.6571C44.7718 67.6571 45.2902 67.4912 45.7263 67.1758L66.4948 52.0877C67.149 51.6024 67.5275 50.8583 67.5275 50.0737C67.5316 49.2649 67.1449 48.5208 66.4948 48.0477Z" fill="white"/>
<path d="M50 0C22.3772 0 0 22.3835 0 50.0081C0 77.6246 22.3772 100 50 100C77.6146 100 100 77.6246 100 50.0081C100.004 22.3835 77.6146 0 50 0ZM50 91.6613C26.9974 91.6613 8.35185 73.0184 8.35185 50.0081C8.35185 27.0099 26.9974 8.34681 50 8.34681C72.9984 8.34681 91.644 27.0099 91.644 50.0081C91.6482 73.0184 72.9984 91.6613 50 91.6613Z" fill="white"/>
</g>
<defs>
<clipPath id="clip0_4_7980">
<rect width="746.271" height="100" fill="white"/>
</clipPath>
</defs>
</svg>
