<svg width="615" height="100" viewBox="0 0 615 100" fill="none" xmlns="http://www.w3.org/2000/svg">
<g clip-path="url(#clip0_4_5753)">
<path d="M603.505 0H586.614L579.25 8.35735H603.521C607.219 8.35735 607.219 13.8969 603.521 13.8969H581.715L574.35 22.2542L568.09 29.3468L559.301 39.3052H594.395L603.185 29.3468H579.458L585.718 22.2542H603.521C618.347 22.2703 618.347 0 603.505 0Z" fill="white"/>
<path d="M206.081 99.9843L194.906 71.7423H189.254C183.538 71.7423 178.335 68.4121 175.95 63.2088L153.855 15.018H184.051L195.642 46.35C196.331 48.2232 198.124 49.472 200.125 49.472H200.878C204.128 49.472 206.433 46.302 205.424 43.196L196.251 15.002H224.829L236.068 62.5684C237.173 67.2434 233.635 71.7263 228.831 71.7263H222.395L230.689 99.9683" fill="white"/>
<path d="M509.156 49.408C508.244 50.5767 506.851 51.2652 505.362 51.2652C501.439 51.2652 499.182 46.8143 501.503 43.6443L522.461 15.002H486.71L457.187 63.4009C454.481 67.8358 457.667 73.5354 462.871 73.5354H470.78L452.496 99.9843H481.395L503.265 73.5354H513.783C515.689 73.5354 517.514 72.7189 518.779 71.278L568.362 15.018H535.717L509.156 49.408Z" fill="white"/>
<path d="M372.59 99.9996H428.642L439.993 80.307H418.395C414.905 80.307 412.599 76.7047 414.04 73.5346L414.857 71.7575H444.94L457.78 49.4873H432.468C428.978 49.4873 426.672 45.8849 428.113 42.7149L428.93 40.9378H463.224L477.665 15.0332H400.079L372.59 99.9996Z" fill="white"/>
<path d="M318.761 27.9855L316.472 62.0393C316.12 67.2907 320.282 71.7415 325.55 71.7415H346.843L345.979 76.3845C345.562 78.658 343.577 80.307 341.272 80.307H315.239L313.91 99.9996H360.228C363.19 99.9996 365.799 98.0464 366.616 95.1965L376.927 59.6858C378.415 54.5785 374.573 49.4873 369.274 49.4873H349.325C346.379 49.4873 344.137 46.8616 344.602 43.9477L345.082 40.9378H382.386L389.911 15.0332H332.658C325.325 15.0172 319.258 20.6849 318.761 27.9855Z" fill="white"/>
<path d="M236.536 31.7643L243.148 63.1604C244.204 68.1716 248.623 71.7579 253.731 71.7579H284.422L284.614 75.2481C284.774 78.0019 282.581 80.3074 279.843 80.3074H246.75L250.897 100H299.584C303.186 100 306.132 97.1341 306.244 93.5318L307.125 62.1517C307.317 55.2193 301.745 49.4876 294.813 49.4876H270.013C267.579 49.4876 265.546 47.6785 265.258 45.2609L264.746 40.9222H307.717L308.454 15.0176H250.112C241.307 15.0176 234.71 23.1348 236.536 31.7643Z" fill="white"/>
<path d="M149.741 24.4156C146.955 18.6679 141.144 15.0176 134.755 15.0176H77.7109L95.6104 40.9222H132.354C134.083 40.9222 135.684 41.8668 136.533 43.3717L153.199 73.1828C154.976 76.3688 152.671 80.3074 149.021 80.3074H144.762L125.982 49.4876H101.518L136.405 100H175.694C180.609 100 183.827 94.8607 181.681 90.4419L149.741 24.4156Z" fill="white"/>
<path d="M74.2539 23.519C70.3954 18.1876 64.2154 15.0176 57.6352 15.0176H4.73738C0.574712 15.0176 -1.55465 19.9808 1.29517 23.0067L69.0665 94.7806C72.2046 98.1108 76.5754 99.984 81.1383 99.984H116.441C121.868 99.984 125.022 93.836 121.836 89.4332L74.2539 23.519ZM84.0521 80.3074C81.0262 80.3074 78.1444 78.9785 76.1751 76.6891L52.2878 48.8312C49.6301 45.7252 51.8235 40.9222 55.9221 40.9222H57.6352C60.7893 40.9222 63.7832 42.3631 65.7524 44.8287L87.7985 72.5264C90.2961 75.6644 88.0707 80.3074 84.0521 80.3074Z" fill="white"/>
</g>
<defs>
<clipPath id="clip0_4_5753">
<rect width="614.633" height="100" fill="white"/>
</clipPath>
</defs>
</svg>
