<svg width="1000" height="100" viewBox="0 0 1000 100" fill="none" xmlns="http://www.w3.org/2000/svg">
<g clip-path="url(#clip0_4_5762)">
<path d="M958.75 98.5C958 97.625 949.25 84.5 939.375 69.375L921.375 41.875L939.375 41.5L957.5 41.125V32.5V23.75H925.625H893.75V61.25V98.75H874.375H855V49.375V-0.125L916.625 0.25C984.125 0.625 981.5 0.375 988.875 8.375C995 14.875 996.25 19 996.25 31.875C996.25 39.25 995.625 45.375 994.5 47.875C992 53.75 986 58.75 978.75 61.125L972.375 63.25L985.125 80C992.25 89.25 998.5 97.125 999 97.25C999.625 97.5 999.75 98.25 999.25 98.875C998.125 100.75 960.375 100.25 958.75 98.5Z" fill="white"/>
<path d="M161.751 96.875C161.376 96.125 161.376 79.25 161.501 59.375L161.876 23.125H210.751H259.501L264.751 26.5C271.751 31.25 274.251 36.25 274.376 46.25C274.376 56.5 271.501 63.25 265.376 67.5C260.876 70.625 260.751 70.625 226.626 71L192.376 71.375L192.626 84.5L192.876 97.625L177.501 97.875C168.126 98 162.001 97.625 161.751 96.875ZM242.501 47.5V41.25H218.251H194.001L193.501 46.625C193.126 49.5 193.126 52.25 193.376 52.875C193.626 53.375 204.876 53.75 218.251 53.75H242.501V47.5Z" fill="white"/>
<path d="M408 97.625C407.75 97.375 407.5 80.25 407.5 59.75V22.5H454.375C505.375 22.5 506.25 22.625 512.75 29.5C514.625 31.5 516.625 35.625 517.375 38.75C518.625 44 519.375 96.5 518.25 97.625C518 97.875 511.5 98 503.875 97.75L490 97.375L489.75 69.625L489.375 41.875L465 41.5C451.625 41.375 439.375 41.5 437.875 41.875C435 42.5 435 42.625 435 70V97.375L421.75 97.75C414.5 98 408.25 97.875 408 97.625Z" fill="white"/>
<path d="M534.25 96.875C533.875 96.125 533.875 82.625 534 66.875L534.375 38.125L588.125 37.875L641.875 37.625L643 32.625C645.125 23.125 648.875 23.75 588.125 23.75H533.75V11.875V0H595.5C639.375 0 658.375 0.375 661.375 1.5C667.875 3.75 672 7.25 675.5 13.75C679.75 21.625 680.125 35.875 676.25 42.25L673.75 46.375L676.25 51.25C679.5 57.5 679.75 74.75 676.75 82C674.625 87.125 669.75 93 665.625 95.375C662.25 97.375 534.875 98.75 534.25 96.875ZM639.375 66.25V58.125H601.25H563.125L562.75 64.875C562.5 68.5 562.625 72.375 563 73.25C563.625 74.75 570.25 75 601.5 74.75L639.375 74.375V66.25Z" fill="white"/>
<path d="M12.2502 94.2497C9.62517 92.6247 6.00017 88.8747 4.12517 85.9997L0.625171 80.8747L0.250171 50.8747C-0.124829 20.9997 -0.124829 20.8747 3.00017 14.4997C6.37517 7.74972 11.7502 3.24972 18.8752 1.24972C24.7502 -0.50028 121.75 -0.37528 127.875 1.37472C130.5 1.99972 134.5 4.37472 137 6.49972C145.125 13.6247 145.5 15.3747 146 43.6247C146.25 57.7497 146.125 72.1247 145.625 75.7497C144.75 83.3747 140.625 89.3747 133.125 94.2497L128.25 97.4997L72.5002 97.3747H16.8752L12.2502 94.2497ZM108.125 49.1247V24.3747H73.1252H38.1252L37.7502 48.1247C37.6252 61.1247 37.6252 72.3747 37.8752 73.1247C38.2502 73.9997 50.2502 74.2497 73.2502 74.1247L108.125 73.8747V49.1247Z" fill="white"/>
<path d="M290.5 91.875C287.25 88.625 284.875 84.625 284.375 82.25C283.875 79.875 283.75 68.75 284 57.375C284.375 36.875 284.375 36.625 287.875 32.125C289.875 29.5 293.625 26.375 296.25 25C300.875 22.625 303.75 22.5 348.125 22.5H395V31.875V41.25L354.125 41.5L313.125 41.875V46.875V51.875L351.625 52.25L390.125 52.5L389.75 60.375L389.375 68.125L351.25 68.375L313.125 68.625L312.75 73.625L312.375 78.75L353.375 79L394.375 79.375L394.75 88.5L395.125 97.5H345.5H295.875L290.5 91.875Z" fill="white"/>
<path d="M706 93.3748C703 91.1248 699.375 86.8748 697.875 83.7498C695.125 78.4998 695 76.7498 695 49.3748C695 20.7498 695 20.3748 698.25 13.9998C700.625 9.1248 703 6.6248 707.25 3.9998L713.125 0.624805L764.625 0.249805C800.5 -0.000195318 817.875 0.374805 821.5 1.3748C828.625 3.2498 836.75 11.3748 838.75 18.6248C839.75 22.3748 840.125 33.3748 839.75 52.3748C839.375 79.3748 839.25 80.8748 836.5 85.2498C834.875 87.7498 831.25 91.6248 828.5 93.7498L823.25 97.4998H767.375H711.5L706 93.3748ZM802.25 49.3748L801.875 24.9998L767.125 24.6248L732.5 24.3748V49.1248V73.7498H767.5H802.5L802.25 49.3748Z" fill="white"/>
</g>
<defs>
<clipPath id="clip0_4_5762">
<rect width="1000" height="100" fill="white"/>
</clipPath>
</defs>
</svg>
