<svg width="352" height="100" viewBox="0 0 352 100" fill="none" xmlns="http://www.w3.org/2000/svg">
<g clip-path="url(#clip0_4_5771)">
<path d="M196.852 82.9755C197.094 83.4632 197.356 83.9396 197.634 84.407C197.882 84.7998 198.146 85.1814 198.426 85.5517C199.214 86.719 200.154 87.7757 201.219 88.697C202.219 89.555 203.622 90.273 205.439 90.842V97.5682H178.256L159.466 65.8854H186.595C186.595 65.8854 196.85 82.9777 196.852 82.9755ZM146.212 83.1222C146.212 85.5066 146.617 87.3422 147.42 88.6292C148.238 89.9162 149.836 90.6523 152.216 90.842V97.5682H116.169V90.7042C118.363 90.6071 119.906 89.8937 120.813 88.5547C121.721 87.2203 122.17 85.4546 122.17 83.2645V65.8854H122.168V34.1168H146.21V43.2071H157.938C162.422 43.3042 166.515 42.4191 170.241 40.5631C172.833 39.2626 174.524 37.1176 175.308 34.1236L183.504 34.1213H175.31C175.651 32.8276 175.82 31.3712 175.82 29.7591C175.82 24.4169 174.154 20.7433 170.819 18.7428C167.473 16.7423 163.424 15.7353 158.653 15.7353H146.212V34.1146H122.17V16.74C122.17 14.2564 121.766 12.4681 120.962 11.3708C120.145 10.2802 118.546 9.53736 116.167 9.15803V2.145H167.242C167.394 2.23306 167.563 2.28273 167.737 2.28951H168.094C176.014 2.3866 183.283 4.41645 189.916 8.37228C196.541 12.3281 200.093 18.7947 200.576 27.7586C200.576 29.9916 200.352 32.1118 199.907 34.1191H199.898C199.067 37.9643 197.313 41.5498 194.78 44.5596C190.916 49.1883 185.879 52.4532 179.683 54.3611L186.595 65.8854H159.466L154.077 56.7951H146.212V83.1222ZM27.4583 65.8854C28.5263 68.8094 29.8968 71.6115 31.5519 74.2487C36.0812 81.4988 43.2568 85.1205 53.0764 85.1205C61.8506 85.1205 68.5068 81.833 73.0384 75.2489C75.0547 72.3362 76.7143 69.191 77.981 65.8832C79.487 61.9115 80.4014 57.7435 80.695 53.5076C80.7875 52.9387 80.8327 52.3651 80.8327 51.7894V50.0756C80.8327 49.4096 80.8101 48.7367 80.7627 48.0684C80.7176 47.4023 80.6927 46.7339 80.6927 46.0679C80.3427 41.9788 79.4283 37.9575 77.9787 34.1191C77.972 34.1191 77.9674 34.1191 77.9674 34.1191C76.6962 30.8135 75.0412 27.6683 73.0339 24.7511C68.5972 18.2664 61.9973 15.024 53.2231 15.024C43.2997 15.024 36.0789 18.6751 31.5496 25.9703C29.9465 28.5421 28.6076 31.2719 27.5531 34.1146H2.37757C4.88157 26.3632 9.36124 19.6414 15.8098 13.947C26.3542 4.65127 38.8178 0 53.2254 0C67.2424 0 79.4757 4.62869 89.914 13.877C96.3874 19.6143 100.858 26.3609 103.321 34.1146H103.324C104.832 38.8652 105.588 43.9929 105.588 49.4999C105.588 55.384 104.794 60.83 103.204 65.8448C100.747 73.5939 96.3919 80.3044 90.1375 85.9762C79.8347 95.3239 67.3937 99.9977 52.7919 99.9977C38.1088 99.9977 25.6339 95.5136 15.3876 86.5497C8.94127 80.923 4.52257 74.0477 2.12694 65.9306C0.70898 61.1258 0 55.8875 0 50.2134V50.0756C0 44.3428 0.792522 39.0232 2.37982 34.1168C2.37982 34.1168 27.5486 34.1168 27.5554 34.1146C25.6994 39.1339 24.7669 44.4738 24.7578 50.1321C24.7736 55.5172 27.2551 65.1471 27.447 65.8854H27.4583ZM242.198 83.1222C242.198 85.5088 242.6 87.3422 243.417 88.6292C244.221 89.9162 245.819 90.6523 248.213 90.842V97.5682H212.154V90.7042C214.351 90.6071 215.902 89.8937 216.81 88.5547C217.706 87.2203 218.167 85.4569 218.167 83.2645V16.7423C218.167 14.2586 217.765 12.4704 216.948 11.373C216.144 10.2802 214.545 9.53961 212.152 9.16029V2.145H248.211V9.01578L246.486 9.30253C244.968 9.58477 243.909 10.3028 243.347 11.4475C242.767 12.6171 242.378 13.8725 242.198 15.1663V16.8778L242.2 34.1146V65.8425L242.198 83.1222ZM295.272 72.4649C301.849 80.713 310.483 84.836 321.166 84.836C322.841 84.8292 324.514 84.7344 326.18 84.5537C329.362 84.1857 332.446 83.2125 335.264 81.6907C338.07 80.1666 340.003 77.7349 341.049 74.3954L348.775 74.2509V97.566C346.58 98.1417 344.372 98.5888 342.13 98.923C339.888 99.2571 337.621 99.5213 335.334 99.711C332.333 99.9029 329.328 100 326.32 100H323.171C322.125 100 321.077 99.9481 320.032 99.8555C312.409 99.4762 304.85 98.2524 297.496 96.2112C290.149 94.1859 283.305 90.6546 277.396 85.8407C271.632 81.1375 266.969 75.2286 263.736 68.5294C263.309 67.6534 262.91 66.7705 262.539 65.8832H262.521V65.8425C260.033 59.8727 258.791 53.616 258.791 47.0681C258.791 42.4462 259.347 38.1268 260.457 34.1146H260.464C262.808 25.6249 267.642 18.5012 274.958 12.7345C285.741 4.24936 297.85 0 311.303 0C319.501 0 327.034 1.5015 333.898 4.51128C340.773 7.51654 346.777 12.2604 351.927 18.7451L337.262 34.1191H337.258L334.047 37.4833L328.641 34.1191H328.635L327.61 33.4801C328.097 32.7892 328.506 32.0441 328.829 31.2606C329.156 30.459 329.373 29.6191 329.472 28.7588C329.472 23.8953 327.655 20.2737 324.033 17.8871C320.411 15.5005 316.352 14.3106 311.867 14.3106C302.714 14.3106 296.01 17.2887 291.768 23.2496C289.634 26.2548 288.022 29.5965 286.997 33.1369L286.735 34.1146H286.728C285.847 37.454 285.409 41.0576 285.409 44.9231C285.409 52.4035 287.211 59.3782 290.815 65.8425C292.118 68.1682 293.608 70.3832 295.272 72.4649ZM24.7578 50.0756C24.7578 50.0802 24.7578 50.0847 24.7578 50.0892V50.0756Z" fill="white"/>
</g>
<defs>
<clipPath id="clip0_4_5771">
<rect width="351.927" height="100" fill="white"/>
</clipPath>
</defs>
</svg>
