<svg width="123" height="100" viewBox="0 0 123 100" fill="none" xmlns="http://www.w3.org/2000/svg">
<g clip-path="url(#clip0_4_5803)">
<path d="M72.4707 0.00122249V74.335H64.187V7.78851C64.187 7.13936 63.5 6.70171 62.8545 6.70171H60.6442V0H72.4707M44.0941 15.2103C36.7347 15.2103 32.8435 19.456 32.8435 27.5024L32.8411 33.132C33.6821 33.132 36.7323 33.1455 36.7323 33.1455C38.1296 33.1589 39.0061 32.9511 39.4743 32.4951C39.8081 32.1455 39.9658 31.6418 39.9658 30.8521V26.6271C39.9658 22.2628 41.6846 21.3729 44.2616 21.3729C46.7323 21.3729 47.9389 23.2628 47.9389 27.1589V35.6161L47.7946 35.6675C39.1381 38.9156 32.5 42.1724 32.5 51.9707V62.7604C32.5 71.1235 35.1027 74.5098 41.4707 74.5098C44.2017 74.5098 46.0636 73.599 47.9083 71.3631L48.1944 71.0208L48.302 71.4499C48.302 71.4609 48.5868 72.7127 49.1039 73.3435C49.9328 74.3301 50.5636 74.3301 51.1895 74.3301H55.6736V26.6259C55.6724 18.8362 52.0037 15.2103 44.0941 15.2103ZM47.9401 59.4841C47.9401 65.9511 46.8093 68.3667 43.7457 68.3667C40.5122 68.3667 40.2408 65.1076 40.2408 61.1528V52.7775C40.2408 46.2274 42.489 44.4376 47.6259 41.9425L47.9401 41.7836V59.4841ZM103.659 19.8594C105.194 17.0293 108.141 15.2506 111.359 15.2103C118.581 15.2103 122.249 19.9352 122.249 29.2469V74.3301H114.164V26.7885C114.164 23.22 112.845 21.489 110.139 21.489C107.397 21.489 105.587 22.7787 105.587 29.0831V74.3325H97.5V26.7922C97.5 23.2237 96.1858 21.4927 93.4768 21.4927C90.7457 21.4927 88.9279 22.7812 88.9279 29.0868V74.3362H80.6834V15.5697H85.2641C86.2983 15.5697 86.5966 15.5697 87.2408 16.0391C88.1614 16.7078 88.2885 18.6112 88.2885 18.6332L88.3276 19.2396L88.6956 18.7531C90.3753 16.434 92.7567 15.2164 95.5746 15.2164C98.1907 15.2164 101.425 15.7469 103.263 19.8521L103.439 20.2506L103.659 19.8594ZM15.7372 14.8142C12.9841 14.8142 10.1455 15.1002 8.15648 17.9866C8.03178 17.5782 7.86675 17.1822 7.66504 16.8044C6.83741 15.187 5.54401 15.187 4.40587 15.187H0.0220049V89.9438H0C2.7445 93.5477 5.80318 96.8998 9.13936 99.9645L9.1687 72.5917C11.368 74.9658 13.6919 75.2078 15.7372 75.2078C21.9963 75.2078 25.8961 70.2677 25.8961 62.3093V28.9707C25.8961 19.4438 22.566 14.8142 15.7372 14.8142ZM16.8386 60.9927C16.8386 64.1259 16.3826 66.0843 15.4401 67.0061C14.7531 67.6858 13.8496 67.7861 12.9719 67.7641C11.1357 67.7506 9.15648 65.7689 9.15648 62.5831V28.5526C9.15648 23.7763 10.5147 21.4658 13.3191 21.4658C15.3093 21.4658 16.8386 21.9572 16.8386 28.2066V60.9927Z" fill="white"/>
</g>
<defs>
<clipPath id="clip0_4_5803">
<rect width="122.249" height="100" fill="white"/>
</clipPath>
</defs>
</svg>
