<svg width="248" height="100" viewBox="0 0 248 100" fill="none" xmlns="http://www.w3.org/2000/svg">
<g clip-path="url(#clip0_4_5805)">
<path d="M0 0V6.76532H48.1865V0H0ZM54.9955 0V6.76532H123.653C123.653 6.76532 116.625 0 107.372 0H54.9955ZM137.096 0V6.76532H178.604L176.16 0H137.096ZM208.372 0L205.928 6.76532H247.087V0H208.372ZM0 13.1815V19.9468H48.1865V13.1815H0ZM54.9955 13.1815V19.9468H131.596C131.596 19.9468 130.68 14.7528 129.152 13.1815H54.9955ZM137.096 13.1815V19.9468H183.187L180.918 13.1815H137.096ZM203.44 13.1815L201.17 19.9468H247.043V13.1815H203.44ZM13.8362 26.3629V33.1283H34.6995V26.3629H13.8362ZM68.8317 26.3629V33.1283H89.695V26.3629H68.8317ZM109.991 26.3629V33.1283H130.854C130.854 33.1283 132.164 29.5492 132.164 26.3629H109.991ZM150.932 26.3629V33.1283H187.901L185.457 26.3629H150.932ZM198.9 26.3629L196.412 33.1283H233.6V26.3629H198.9ZM13.8362 39.5444V46.3097H34.6995V39.5444H13.8362ZM68.8317 39.5444V46.3097H122.125C122.125 46.3097 126.577 42.8179 128.017 39.5444H68.8317ZM150.932 39.5444V46.3097H171.795V42.556L173.105 46.3097H211.296L212.737 42.556V46.3097H233.6V39.5444H194.448L192.353 45.2622L190.258 39.5444H150.932ZM13.8362 52.6822V59.4475H34.6995V52.6822H13.8362ZM68.8317 52.6822V59.4475H127.974C126.533 56.174 122.081 52.6822 122.081 52.6822H68.8317ZM150.932 52.6822V59.4475H171.795V52.6822H150.932ZM175.593 52.6822L178.124 59.4475H206.757L209.157 52.6822H175.593ZM212.737 52.6822V59.4475H233.6V52.6822H212.737ZM13.8362 65.8637V72.629H34.6995V65.8637H13.8362ZM68.8317 65.8637V72.629H89.695V65.8637H68.8317ZM109.991 65.8637V72.629H132.164C132.164 69.4427 130.854 65.8637 130.854 65.8637H109.991ZM150.932 65.8637V72.629H171.795V65.8637H150.932ZM180.307 65.8637L182.751 72.629H201.956L204.4 65.8637H180.307ZM212.737 65.8637V72.629H233.6V65.8637H212.737ZM0.392825 79.0451V85.8104H48.5357V79.0451H0.392825ZM54.9955 79.0451V85.8104H129.152C130.723 84.2391 131.596 79.0451 131.596 79.0451H54.9955ZM137.489 79.0451V85.8104H171.795V79.0451H137.489ZM185.064 79.0451L187.596 85.8104H197.373L199.73 79.0451H185.064ZM212.737 79.0451V85.8104H247.436V79.0451H212.737ZM0.392825 92.2266V98.9919H48.5357V92.2266H0.392825ZM54.9955 92.2266V98.9919H107.329C116.625 98.9919 123.609 92.2266 123.609 92.2266H54.9955ZM137.489 92.2266V98.9919H171.795V92.2266H137.489ZM189.822 92.2266L192.222 98.9919H192.659L195.103 92.2266H189.822ZM212.737 92.2266V98.9919H247.436V92.2266H212.737Z" fill="white"/>
</g>
<defs>
<clipPath id="clip0_4_5805">
<rect width="247.783" height="100" fill="white"/>
</clipPath>
</defs>
</svg>
