<svg width="286" height="100" viewBox="0 0 286 100" fill="none" xmlns="http://www.w3.org/2000/svg">
<g clip-path="url(#clip0_4_5807)">
<path d="M237.501 100C237.311 99.8479 237.126 99.5707 236.92 99.5544C230.365 98.9729 225.436 95.7229 221.805 90.3588C218.892 86.0544 217.343 81.2011 216.311 76.1685C215.175 70.6631 214.887 65.0653 215.311 59.4946C215.746 53.7772 216.784 48.1577 219.49 42.9403C222.615 36.9131 227.322 33.1196 233.892 31.3261C239.512 29.7935 244.936 30.1903 250.251 32.2338C255.175 34.1305 258.648 37.7175 260.849 42.4729C262.773 46.6305 264.093 50.9783 264.735 55.5435C265.322 59.7338 265.93 63.924 265.659 68.1577C265.202 75.2609 264.072 82.2066 260.659 88.6196C257.773 94.049 253.273 97.3044 247.452 98.8805C246.164 99.2283 244.8 99.299 243.479 99.5435C243.273 99.5816 243.11 99.8425 242.925 100C241.126 100 239.311 100 237.501 100ZM230.958 65.6468C230.757 68.7175 231.262 72.174 232.072 75.5979C232.74 78.4077 233.757 81.0707 235.485 83.4294C237.92 86.7501 242.86 86.7446 244.92 84.1685C245.757 83.1196 246.659 82.0816 247.262 80.9022C249.974 75.5598 250.376 69.7283 250.425 63.8968C250.447 61.3316 249.86 58.7501 249.436 56.1957C248.914 53.0653 247.713 50.1414 245.952 47.5218C243.621 44.0435 238.365 43.1848 235.517 46.7283C234.485 48.0164 233.718 49.3914 233.142 50.9131C231.409 55.5218 230.865 60.3044 230.958 65.6468Z" fill="white"/>
<path d="M284.784 98.9128C284.377 99.0813 283.975 99.3911 283.567 99.3965C279.513 99.4346 275.458 99.4183 271.273 99.4183C271.273 76.3857 271.273 53.5378 271.273 30.4346C275.79 30.4346 280.29 30.4346 284.784 30.4346C284.784 53.2607 284.784 76.0867 284.784 98.9128Z" fill="white"/>
<path d="M204.393 63.7556C205.947 65.5545 207.371 67.0708 208.632 68.7121C210.164 70.7121 211.273 72.8153 211.572 75.5164C211.974 79.1088 211.561 82.4512 210.393 85.7827C209.126 89.3806 206.86 92.261 203.865 94.5382C199.181 98.098 193.795 99.7501 187.969 99.3805C180.952 98.9403 174.566 96.7338 169.773 91.223C166.914 87.9403 165.311 84.1251 165.191 79.7066C165.11 76.7936 165.229 73.9295 166.604 71.2936C167.816 68.9675 169.436 66.9186 171.224 65.0055C171.528 64.6795 171.947 64.4566 172.268 64.2175C170.882 61.4295 169.643 58.8642 168.338 56.3316C166.354 52.4838 166.594 48.5164 167.702 44.5327C169.67 37.4784 174.474 33.2501 181.382 31.3316C188.479 29.3642 195.311 30.0164 201.501 34.2229C206.257 37.4512 209.159 41.886 209.893 47.7664C210.545 52.9892 209.148 57.4838 206.05 61.5871C205.507 62.299 204.958 63.0164 204.393 63.7556ZM188.349 86.0871C189.403 85.8969 190.485 85.8153 191.496 85.5001C194.311 84.6088 195.936 81.7664 195.74 78.424C195.566 75.4349 194.398 73.1469 191.485 72.1795C188.643 71.2338 185.784 71.2284 183.387 73.4132C180.974 75.6197 180.316 78.7393 181.697 81.799C182.963 84.5871 185.094 86.2012 188.349 86.0871ZM194.55 50.0164C194.632 46.1958 191.952 43.5436 188.143 43.5436C184.691 43.5436 182.262 45.8208 182.148 49.8099C182.05 53.3316 184.969 56.0001 188.583 55.9675C192.045 55.9349 194.556 53.4295 194.55 50.0164Z" fill="white"/>
<path d="M121.663 63.7821C120.875 62.418 120.043 61.0267 119.255 59.6137C117.489 56.4398 116.147 53.1463 116.326 49.3963C116.717 41.2332 121.315 34.7115 128.935 31.9506C134.94 29.7767 140.897 29.6898 146.815 32.0485C153.266 34.6137 157.63 39.2604 159.087 46.0648C160.299 51.7169 159.201 57.1137 155.38 61.7224C154.82 62.4017 154.331 63.1408 153.907 63.7224C155.657 65.8963 157.293 67.9235 158.924 69.9615C160.201 71.5593 160.625 73.4234 160.962 75.4234C161.641 79.4724 160.858 83.2169 159.32 86.9126C158.076 89.9072 156.136 92.38 153.614 94.3202C148.647 98.1354 142.913 99.8528 136.706 99.3691C131.75 98.9832 127 97.5756 122.891 94.5756C117.717 90.7984 114.88 85.8311 114.565 79.293C114.299 73.8147 116.467 69.5321 119.989 65.6789C120.478 65.1463 120.978 64.6191 121.467 64.0919C121.532 64.0213 121.57 63.9343 121.663 63.7821ZM137.88 85.9452C142.391 86.3256 145.087 82.8093 145.239 79.13C145.413 74.9452 142.022 71.4506 137.891 71.63C133.538 71.8202 130.391 74.6245 130.462 78.7876C130.522 82.1789 133.07 86.4017 137.88 85.9452ZM144.005 50.1626C143.891 45.9615 141.386 43.6843 137.701 43.5485C134.413 43.4289 131.663 45.6191 131.581 49.9615C131.516 53.3474 134.402 55.9995 137.891 55.9669C141.413 55.9343 144.016 53.4778 144.005 50.1626Z" fill="white"/>
<path d="M13.6092 43.2821C13.6092 62.2169 13.6092 80.6679 13.6092 99.3853C8.9135 99.4832 4.34285 99.4016 -0.20606 99.4397C-0.782147 97.0266 -0.9778 41.0266 -0.46693 30.0321C0.0928526 29.9723 0.685244 29.8473 1.27764 29.8473C6.79937 29.8473 12.3211 29.7875 17.8429 29.9125C22.7124 30.0212 27.5005 30.8364 32.0168 32.6897C38.4244 35.3093 41.9461 40.1136 42.4624 47.1027C42.6255 49.3364 42.7287 51.5049 42.5005 53.7658C41.7124 61.5919 37.5494 66.7277 30.4026 69.5212C26.1907 71.168 21.745 71.7821 17.0548 71.7169C16.495 69.4886 16.9298 67.244 16.8483 65.0321C16.7668 62.8636 16.832 60.6897 16.832 58.3745C18.0494 58.1299 19.2396 57.744 20.4461 57.6951C21.8755 57.6353 23.0439 57.0049 24.245 56.4071C26.1037 55.4832 27.0113 53.8527 27.1255 51.869C27.1961 50.6408 27.0385 49.3527 26.745 48.1571C26.0657 45.4397 23.6526 44.7277 21.4081 44.2169C18.9842 43.6516 16.4461 43.5919 13.6092 43.2821Z" fill="white"/>
<path d="M90.687 44.5869C88.6055 44.3151 86.8229 44.1521 85.0729 43.8369C80.6327 43.0488 76.4914 44.0108 72.6598 46.1521C67.4588 49.0597 64.6761 53.7173 63.5348 59.489C62.437 65.0434 62.8174 70.4021 65.4805 75.4673C68.1924 80.6303 72.4044 84.0814 78.1272 85.1086C80.9968 85.6195 84.0511 85.1195 87.0185 85.0216C87.9751 84.989 88.9207 84.7771 90.1435 84.614C90.1435 87.0597 90.1435 89.2118 90.1435 91.3695C90.1435 92.9999 90.1653 94.6303 90.1381 96.2608C90.1109 97.9999 90.0946 98.0053 88.4316 98.3858C83.4805 99.5271 78.5185 99.864 73.4588 98.9999C69.4098 98.3042 65.6816 96.9782 62.2414 94.7336C55.6653 90.4401 51.7414 84.2553 49.5077 76.9021C48.0892 72.2227 47.4968 67.3966 47.8718 62.5053C48.5892 53.1629 51.6218 44.7608 58.4424 38.0814C62.7251 33.8858 67.9587 31.4619 73.8718 30.3858C78.5566 29.5325 83.1924 29.8369 87.8392 30.4836C88.3664 30.5597 88.8609 30.8532 89.3881 30.9075C90.4587 31.0271 90.6924 31.6955 90.6924 32.6086C90.6816 36.4945 90.687 40.3803 90.687 44.5869Z" fill="white"/>
<path d="M46.2399 12.0159C43.7725 7.1137 44.0008 3.96153 47.0714 1.63C49.6149 -0.304778 53.8975 -1.03847 57.5551 1.95609C59.0714 3.20066 59.729 4.91805 59.8432 6.93979C59.9519 8.89631 58.9682 10.3637 58.0823 11.8963C58.2888 12.2115 58.3921 12.467 58.5769 12.6409C60.7453 14.6191 60.7888 17.0757 60.0116 19.6083C59.1258 22.4996 56.8812 23.9724 54.0388 24.4126C51.8975 24.7441 49.778 24.5213 47.7562 23.4235C43.6203 21.1735 42.6312 16.38 45.6801 12.7496C45.8486 12.5485 46.0008 12.3311 46.2399 12.0159ZM52.153 19.63C53.7127 19.6463 54.8051 18.6626 54.8269 17.217C54.8432 16.092 53.2671 14.6572 52.0769 14.7115C50.9899 14.7604 49.5443 16.1409 49.5225 17.1463C49.5008 18.5213 50.6584 19.6191 52.153 19.63ZM52.0171 4.90175C50.9193 4.96153 50.028 5.89631 50.0171 7.005C50.0062 8.11913 51.2073 9.2387 52.3106 9.14631C53.4138 9.04848 54.3595 8.04848 54.316 7.01044C54.2671 5.80935 53.2019 4.83653 52.0171 4.90175Z" fill="white"/>
<path d="M63.7468 11.9995C62.2848 9.86906 61.4425 7.6734 62.0892 5.27123C62.4859 3.7984 63.2631 2.40166 64.6055 1.51579C67.5729 -0.446167 71.649 -0.826596 75.1055 2.06471C77.7794 4.30384 77.8935 7.51579 75.4968 12.0538C75.7251 12.3256 75.9642 12.7006 76.2848 12.9778C79.1164 15.4506 77.9207 21.8364 74.0511 23.5593C70.3283 25.2169 66.8338 24.8528 63.6272 22.456C60.9153 20.4288 60.5892 15.4995 62.4696 13.418C62.8338 13.0158 63.1925 12.6136 63.7468 11.9995ZM66.9207 17.2169C66.9805 18.7277 68.1598 19.7169 69.8175 19.6354C71.2305 19.5701 72.3446 18.3419 72.2088 17.0049C72.1055 15.9995 70.6598 14.7278 69.6001 14.7114C68.4261 14.6897 66.8827 16.1354 66.9207 17.2169ZM71.7142 7.05383C71.6979 5.85818 70.6544 4.86362 69.4588 4.90167C68.3609 4.93971 67.4479 5.85818 67.4153 6.96144C67.3772 8.09188 68.5348 9.21145 69.6598 9.14623C70.7468 9.08101 71.7305 8.08101 71.7142 7.05383Z" fill="white"/>
<path d="M97.0054 12.7283C97.0488 15.8098 96.3804 18.6359 94.8369 21.2881C94.2227 22.3424 93.4456 23.1305 92.364 23.6794C90.0271 24.8642 87.5869 25.1685 85.1141 24.3424C83.3858 23.7609 81.9564 22.7283 81.0651 20.9946C78.5488 16.1033 78.1901 11.0381 79.9456 5.90222C81.7717 0.565261 86.7988 -1.26083 91.9564 0.95113C94.5543 2.06526 95.4673 4.48918 96.1467 6.90766C96.6684 8.77179 96.7336 10.7772 97.0054 12.7283ZM91.538 12.6142C91.2608 11.0598 91.0434 9.55439 90.6956 8.07613C90.5597 7.48374 90.2119 6.90221 89.8423 6.40765C88.6032 4.75547 86.6358 4.92396 85.7771 6.80983C84.2064 10.2555 84.4456 13.8153 85.4238 17.3533C85.6032 18 86.1738 18.5816 86.6738 19.0761C87.4401 19.837 88.5923 19.8642 89.3314 19.0979C89.8804 18.5272 90.413 17.8207 90.6249 17.0816C91.0543 15.6359 91.2499 14.1196 91.538 12.6142Z" fill="white"/>
<path d="M115.208 17.951C113.926 23.3912 109.072 25.7553 103.714 23.9673C101.888 23.3586 100.708 22.0053 99.8876 20.364C98.0778 16.739 97.4909 12.9673 98.1865 8.90207C98.6594 6.1412 99.4474 3.72816 101.594 1.80424C105.578 -1.76097 112.529 -0.26098 114.529 4.70098C115.029 5.94011 115.426 7.24989 115.638 8.55968C115.855 9.88576 115.795 11.2608 115.855 12.614M103.795 12.0379C103.681 13.8531 103.779 15.7336 104.632 17.4727C105.148 18.5271 105.697 19.6249 107.148 19.5542C108.431 19.489 108.947 18.5216 109.426 17.5379C109.545 17.2988 109.654 17.0542 109.746 16.7988C110.648 14.2662 110.437 11.6575 110.154 9.07055C110.062 8.21729 109.638 7.34772 109.192 6.59229C108.148 4.82598 106.214 4.10315 104.844 6.49446C103.855 8.22815 103.725 10.0542 103.795 12.0379Z" fill="white"/>
<path d="M191.244 17.6789C189.467 19.467 187.907 20.8583 186.565 22.4344C184.722 24.6028 182.315 24.5322 179.874 24.3583C179.521 24.3311 179.005 23.6898 178.934 23.2713C178.787 22.3909 178.891 21.4724 178.891 20.5104C179.092 20.3746 179.293 20.1246 179.51 20.1083C181.907 19.8963 183.586 18.5702 185.13 16.8257C186.989 14.7278 189.043 12.8094 190.983 10.7876C191.603 10.1409 192.141 9.41805 192.717 8.72784C193.108 8.26045 193.809 7.77132 193.217 7.14088C192.842 6.74414 192.135 6.48871 191.576 6.47784C188.048 6.41805 184.521 6.46697 180.994 6.4398C179.016 6.42893 178.913 6.29306 178.88 4.24958C178.869 3.4561 178.88 2.66262 178.88 1.61914C179.869 1.61914 180.662 1.61914 181.451 1.61914C184.978 1.62458 188.505 1.63002 192.032 1.62458C195.929 1.61915 198.717 4.89088 198.44 8.43979C198.358 9.48327 198.146 10.3474 197.347 11.0865C196.364 11.9996 195.483 13.0159 194.516 14.0268C196.614 17.3148 198.956 20.3691 200.244 24.4181C198.532 24.4181 197.201 24.4181 195.869 24.4181C195.114 24.4181 194.842 23.8963 194.521 23.3039C193.538 21.505 192.461 19.7496 191.244 17.6789Z" fill="white"/>
<path d="M5.50985 14.4186C5.50985 13.6578 5.49898 12.8589 5.50985 12.0654C5.53159 10.3643 5.5642 10.4186 7.25442 9.6795C7.96094 9.36972 8.76529 8.8969 9.11855 8.26647C9.77072 7.09799 9.09137 5.82081 7.75442 5.26102C7.42833 5.12515 7.08594 4.97842 6.73811 4.94037C6.21094 4.88603 5.67289 4.92407 4.93376 4.92407C4.67833 8.20668 4.85224 11.4295 4.81963 14.6469C4.78702 17.8045 4.8142 20.9621 4.8142 24.3371C3.06963 24.636 1.40115 24.4947 -0.414062 24.4567C-0.414062 16.3534 -0.414062 8.33711 -0.414062 0.152331C1.94463 -0.309626 4.36311 -0.0378889 6.75985 0.00558939C7.81963 0.0273285 8.89572 0.233857 9.91746 0.5219C14.4609 1.80994 15.0588 4.29364 14.7816 7.91864C14.412 12.7665 10.8685 15.2121 5.50985 14.4186Z" fill="white"/>
<path d="M30.3583 5.03287C27.2822 4.77743 24.467 4.59265 22.3365 6.98939C20.5431 9.0057 20.4344 11.397 20.6681 13.8644C21.0539 17.9133 24.8039 20.1416 29.842 19.2992C29.842 20.9133 29.842 22.5111 29.842 24.3263C27.5322 24.5383 25.2768 24.8155 23.092 24.272C19.3855 23.3481 16.9452 20.8046 15.842 17.2611C14.3148 12.3698 14.8094 7.61982 18.1246 3.49482C19.7605 1.46221 22.0431 0.342654 24.63 0.0274371C25.967 -0.135606 27.342 -0.0486552 28.6952 0.021997C30.0376 0.0926492 30.2876 0.358957 30.3474 1.6307C30.3963 2.61439 30.3583 3.60352 30.3583 5.03287Z" fill="white"/>
<path d="M134.228 2.83105C136.033 2.83105 137.462 2.83105 139.098 2.83105C139.131 3.50497 139.185 4.10822 139.185 4.71692C139.19 8.33648 139.103 11.9561 139.201 15.5756C139.337 20.5756 134.631 24.2876 130.598 24.0213C127.353 23.8039 124.087 23.9832 120.832 23.9724C120.131 23.9669 119.435 23.8908 118.652 23.8419C118.652 22.2658 118.652 20.8419 118.652 19.2278C119.196 19.1626 119.788 19.0267 120.386 19.0213C123.641 18.9995 126.908 18.8908 130.158 19.0484C132.636 19.168 134.419 17.4669 134.272 14.9017C134.093 11.7441 134.228 8.57018 134.228 5.4017C134.228 4.60279 134.228 3.80388 134.228 2.83105Z" fill="white"/>
<path d="M153.879 1.73926C155.689 1.73926 157.287 1.73926 159.058 1.73926C159.107 2.32078 159.2 2.92404 159.2 3.52187C159.211 7.50013 159.314 11.4838 159.173 15.4621C159.048 18.9893 157.754 21.9621 154.216 23.424C153.564 23.6903 152.846 23.924 152.156 23.9349C148.819 23.9893 145.477 23.9567 141.999 23.9567C141.629 22.3914 141.792 20.8914 141.901 19.1143C143.276 19.1088 144.602 19.1034 145.933 19.098C147.471 19.098 149.02 18.9947 150.548 19.1251C152.596 19.299 153.971 18.0925 153.895 15.9023C153.803 13.2827 153.879 10.6577 153.884 8.03274C153.879 5.97295 153.879 3.91317 153.879 1.73926Z" fill="white"/>
<path d="M108.615 58.9023C108.615 62.1252 108.615 65.1632 108.615 68.3263C103.24 68.3263 97.9631 68.3263 92.474 68.3263C92.1914 65.2339 92.4034 62.136 92.3164 58.9023C97.8218 58.9023 103.099 58.9023 108.615 58.9023Z" fill="white"/>
<path d="M180.331 10.9454C180.331 12.3748 180.331 13.6193 180.331 14.8639C178.527 15.3748 164.897 15.5106 160.973 15.0432C160.973 13.7443 160.973 12.4291 160.973 11.1139C163.081 10.7389 175.549 10.6193 180.331 10.9454Z" fill="white"/>
<path d="M118.554 1.66797C122.418 1.66797 125.934 1.66797 129.413 1.66797C129.559 1.85275 129.76 1.98862 129.766 2.12449C129.902 7.42884 130.081 6.40166 125.549 6.48318C123.831 6.51579 122.114 6.51579 120.402 6.48318C118.755 6.45057 118.614 6.29297 118.565 4.57014C118.532 3.68971 118.554 2.7984 118.554 1.66797Z" fill="white"/>
<path d="M124.184 8.72795C125.635 8.72795 127.08 8.73339 128.531 8.72795C129.292 8.72795 129.7 9.1247 129.798 9.85296C129.836 10.1193 129.809 10.3964 129.82 10.6682C129.901 13.7877 129.586 13.603 127.042 13.5703C124.781 13.5377 122.515 13.5867 120.254 13.554C118.906 13.5323 118.651 13.2769 118.57 12.0269C118.531 11.4834 118.537 10.9399 118.57 10.3964C118.646 8.94535 118.825 8.77144 120.39 8.73339C121.646 8.70078 122.917 8.72252 124.184 8.72795Z" fill="white"/>
<path d="M141.891 12.6143C141.891 8.81535 141.891 5.33708 141.891 1.73926C143.478 1.73926 144.972 1.73926 146.613 1.73926C146.613 5.24469 146.613 8.72296 146.613 12.4186C145.184 12.723 143.673 12.4512 141.891 12.6143Z" fill="white"/>
<path d="M30.4414 14.5709C30.4414 13.0818 30.4414 11.9187 30.4414 10.6198C32.4197 10.1742 34.3871 10.4677 36.3327 10.4133C38.224 10.359 40.1153 10.4024 42.1208 10.4024C42.6099 11.734 42.3925 13.0383 42.3001 14.5818C38.3055 14.609 34.3979 14.6144 30.4414 14.5709Z" fill="white"/>
<path d="M203.814 3.64645C203.863 4.7171 203.004 5.68993 201.868 5.8421C201.146 5.93993 199.673 4.67906 199.575 3.87471C199.461 2.96167 200.521 1.70079 201.472 1.61927C202.716 1.51058 203.76 2.40732 203.814 3.64645Z" fill="white"/>
<path d="M208.751 3.70114C208.724 4.80441 207.778 5.81528 206.784 5.80984C205.664 5.80441 204.767 4.68484 204.849 3.40223C204.93 2.10875 205.588 1.55984 206.963 1.61962C208.257 1.67397 208.789 2.29354 208.751 3.70114Z" fill="white"/>
</g>
<defs>
<clipPath id="clip0_4_5807">
<rect width="285.326" height="100" fill="white"/>
</clipPath>
</defs>
</svg>
