<svg width="284" height="100" viewBox="0 0 284 100" fill="none" xmlns="http://www.w3.org/2000/svg">
<g clip-path="url(#clip0_4_5832)">
<path d="M53.9484 24.6012H48.3742L52.8667 15.4582C51.6205 15.4582 48.2678 14.8055 47.0215 13.7173C45.4527 12.2463 44.1538 9.36353 45.0194 5.87966C45.9936 2.06891 50.2699 -0.871952 54.9764 0.326973C58.3312 1.19794 60.2796 2.88504 60.8194 6.53342C61.0914 8.21837 60.9828 9.85171 59.8473 12.356L53.9484 24.6012ZM49.7817 8.11084C49.7817 12.0829 55.8957 12.1947 55.8957 8.27429C55.8957 4.13665 49.7817 4.13665 49.7817 8.11084Z" fill="white"/>
<path d="M68.72 0.272502C74.0792 -0.435025 78.7856 3.81014 77.1082 9.3639C76.8372 10.2327 75.3759 12.0833 75.3759 12.0833C75.3759 12.0833 77.6501 14.1521 77.8663 15.5134C78.8942 21.1747 74.6738 24.4392 70.3996 24.6015C65.8534 24.7112 60.8749 21.6628 61.8501 15.8392C61.9577 15.0768 62.4996 14.3144 62.7695 13.8252C63.0394 13.3359 64.2846 12.0833 64.2846 12.0833C64.2846 12.0833 62.6061 9.41551 62.4448 8.27465C61.9028 4.19293 64.3383 0.872502 68.72 0.272502ZM67.6932 7.02304C67.6932 9.96067 72.1297 9.96067 72.1297 7.18648C72.1297 4.08326 67.6932 4.02842 67.6932 7.02304ZM69.9663 19.9768C73.4297 19.9768 73.4297 14.751 69.9114 14.751C66.3405 14.751 66.448 19.9768 69.9663 19.9768Z" fill="white"/>
<path d="M87.3913 0.272174C90.0956 0.000131462 92.4763 0.979701 93.83 2.28615C97.8343 6.09691 98.4827 18.7249 93.6666 22.9141C91.7193 24.656 87.6074 25.5292 84.4677 24.0034C81.4924 22.5345 79.7074 18.5614 79.4354 13.9883C78.9494 6.80336 81.0053 0.925938 87.3913 0.272174ZM88.3107 19.9765C93.072 19.8679 92.9096 3.80981 87.5526 5.22594C83.7644 6.14959 83.8182 20.0302 88.3107 19.9765Z" fill="white"/>
<path d="M106.331 0.110102C109.037 -0.161941 111.418 0.816554 112.771 2.12408C116.775 5.93376 117.424 18.5617 112.608 22.7531C110.66 24.4929 106.548 25.3639 103.409 23.8413C100.433 22.3725 98.6469 18.3983 98.377 13.8252C97.89 6.64129 99.9469 0.76279 106.331 0.110102ZM107.25 19.8144C112.013 19.7047 111.851 3.64774 106.494 5.06279C102.706 5.9886 102.76 19.8682 107.25 19.8144Z" fill="white"/>
<path d="M30.6818 0.490724V5.27997C17.6947 1.74234 17.8033 22.9144 30.5205 19.3789V24.166C10.8227 29.066 10.7141 -4.08024 30.6818 0.490724Z" fill="white"/>
<path d="M6.33005 14.7505V10.0161C8.60209 10.0161 10.0096 9.2 10.0096 7.56559C10.0096 6.20645 9.79241 4.84409 5.13865 4.84409V24.6011H0.160156L0.268758 0H5.08381C14.3387 0.0548387 15.4214 3.75591 15.4214 7.40107C15.4214 12.5731 11.7946 14.7505 6.33005 14.7505Z" fill="white"/>
<path d="M129.598 1.7959V6.42386H118.883V1.7959H129.598Z" fill="white"/>
<path d="M199.887 24.3862H194.801C194.206 21.9368 190.904 17.5808 190.904 17.5808L185.331 23.3497C184.302 24.3862 182.463 24.3862 180.57 24.3862H179V20.0303H180.082C181.219 20.0303 182.246 19.9228 183.113 19.0518L192.852 8.70988C193.881 7.67547 193.34 6.20665 191.554 6.20665L179 6.26041V1.7959H191.608C197.723 1.7959 199.508 8.38299 197.289 10.7787L194.096 14.097C194.151 14.097 199.562 21.9368 199.887 24.3862Z" fill="white"/>
<path d="M146.752 1.7959V12.5733H141.828V1.7959H146.752Z" fill="white"/>
<path d="M158.982 1.7959V15.8389C158.982 20.5733 155.466 24.1131 151.082 24.1131H141.883V19.4841H150.432C152.814 19.4841 154.112 18.2346 154.112 15.6765C154.112 13.1196 154.112 1.7959 154.112 1.7959H158.982Z" fill="white"/>
<path d="M139.175 3.04883V15.7865C139.175 20.6305 134.794 24.1133 130.842 24.1133H118.883V19.2144H130.787C132.789 19.2144 134.358 18.1262 134.358 15.894V3.10367L139.175 3.04883Z" fill="white"/>
<path d="M129.598 13.4989H118.883V8.92578H129.598V13.4989Z" fill="white"/>
<path d="M42.7481 10.7207H30.8438V14.4229H42.7481V10.7207Z" fill="white"/>
<path d="M180.085 10.8857V15.3492H160.93V10.8857H180.085Z" fill="white"/>
<path d="M201.569 5.71521C202.674 5.71521 203.571 4.81358 203.571 3.70136C203.571 2.58914 202.674 1.6875 201.569 1.6875C200.463 1.6875 199.566 2.58914 199.566 3.70136C199.566 4.81358 200.463 5.71521 201.569 5.71521Z" fill="white"/>
<path d="M206.545 5.71521C207.651 5.71521 208.547 4.81358 208.547 3.70136C208.547 2.58914 207.651 1.6875 206.545 1.6875C205.439 1.6875 204.543 2.58914 204.543 3.70136C204.543 4.81358 205.439 5.71521 206.545 5.71521Z" fill="white"/>
<path d="M140.799 99.442H124.996L137.766 73.5345C134.304 73.5345 124.779 71.685 121.317 68.5291C116.827 64.4452 113.145 56.1732 115.689 46.3205C118.504 35.4893 130.624 27.2689 143.775 30.6442C153.189 33.0399 158.708 37.8302 160.333 48.2248C161.089 53.0162 160.764 57.6409 157.627 64.7162L140.799 99.442ZM129.11 52.9065C129.11 64.1732 146.424 64.5001 146.424 53.3431C146.424 41.6947 129.11 41.5861 129.11 52.9065Z" fill="white"/>
<path d="M184.954 30.7513C200.159 28.7932 213.418 40.8212 208.764 56.4459C208.059 58.8932 203.893 64.119 203.893 64.119C203.893 64.119 210.225 70.0502 210.928 73.861C213.849 89.8094 201.891 99.1707 189.716 99.5534C176.837 99.933 162.714 91.1685 165.474 74.7309C165.853 72.4997 167.313 70.3782 168.071 69.0717C168.829 67.7653 172.346 64.119 172.346 64.119C172.346 64.119 167.637 56.6083 167.205 53.3954C165.635 41.7492 172.508 32.3319 184.954 30.7513ZM181.924 49.8578C181.924 58.2395 194.478 58.1298 194.478 50.2932C194.478 41.4223 181.924 41.3115 181.924 49.8578ZM188.417 86.3814C198.212 86.3814 198.265 71.575 188.255 71.575C178.189 71.6309 178.461 86.3814 188.417 86.3814Z" fill="white"/>
<path d="M237.713 30.7518C245.396 29.9927 252.107 32.7669 255.894 36.4142C267.149 47.2454 268.99 82.8432 255.462 94.7088C249.888 99.6077 238.309 102.11 229.488 97.755C221.046 93.5658 216.067 82.4077 215.202 69.5067C213.904 49.2056 219.693 32.6034 237.713 30.7518ZM240.31 86.3819C253.839 86.1088 253.298 40.7153 238.146 44.6325C227.432 47.4088 227.594 86.7067 240.31 86.3819Z" fill="white"/>
<path d="M90.6933 31.2968V44.7957C53.9503 34.8355 54.2202 94.599 90.2051 84.6925V98.1914C34.4696 112.179 34.1997 18.343 90.6933 31.2968Z" fill="white"/>
<path d="M17.4247 71.7376L17.4774 58.2935C23.972 58.2935 27.8677 56.0096 27.8677 51.272C27.8677 47.3537 27.2183 43.4892 14.0677 43.4892L14.1226 99.4419H0L0.16129 29.9365H13.7978C39.9882 30.0451 43.0731 40.6043 43.0731 50.8376C43.0183 65.5344 32.8452 71.7376 17.4247 71.7376Z" fill="white"/>
<path d="M108.818 59.1104H92.5312V68.363H108.818V59.1104Z" fill="white"/>
<path d="M283.869 30.5898H270.504V99.4425H283.869V30.5898Z" fill="white"/>
</g>
<defs>
<clipPath id="clip0_4_5832">
<rect width="283.871" height="100" fill="white"/>
</clipPath>
</defs>
</svg>
