<svg width="804" height="100" viewBox="0 0 804 100" fill="none" xmlns="http://www.w3.org/2000/svg">
<g clip-path="url(#clip0_4_5856)">
<path d="M249.616 5.73464L184.992 94.2233H219.034L227.184 82.4228H259.896L261.497 94.2233H294.738L280.599 5.73464H249.616ZM241.066 61.5913L255.621 40.2481L258.151 61.5913H241.066ZM358.561 6.36681H322.118L297.012 94.2233H328.267L335.472 69.1171H343.222L353.63 94.2233H387.271L374.317 64.9779C392.747 59.5744 400.353 47.7889 400.353 34.107C400.353 27.1983 398.223 20.6809 393.003 15.7891C386.742 9.88889 375.79 6.36681 358.561 6.36681ZM352.701 48.1652H341.349L346.296 30.9762H357.377C361.78 30.9762 364.854 31.8492 366.583 33.4899C367.912 34.7392 368.585 36.3798 368.585 38.1408C368.585 43.6497 363.109 48.1652 352.701 48.1652ZM490.051 76.9139L468.419 60.8538C463.344 66.754 457.467 70.0202 450.262 70.0202C441.984 70.0202 435.579 64.6167 435.579 54.9535C435.579 42.8971 444.658 30.8558 458.684 30.8558C465.761 30.8558 471.237 34.3629 473.239 41.5274L501.148 30.1033C497.273 14.5248 482.974 4.48535 462.815 4.48535C422.497 4.48535 402.866 33.6103 402.866 57.5725C402.866 81.1735 421.024 96.1047 447.204 96.1047C467.09 96.1047 480.716 88.4585 490.051 76.9139ZM547.871 5.73464L483.246 94.2233H517.288L525.438 82.4228H558.15L559.751 94.2233H592.992L578.854 5.73464H547.871ZM539.32 61.5913L553.875 40.2481L556.405 61.5913H539.32ZM690.072 17.6706C682.995 11.0178 671.643 6.38186 653.485 6.38186H620.373L595.266 94.2383H635.856C657.488 94.2383 673.644 88.594 684.853 78.0427C694.86 68.6355 700.208 56.5791 700.208 43.3939C700.224 32.7222 697.006 24.188 690.072 17.6706ZM661.763 61.4709C656.96 65.9864 648.81 68.6204 639.331 68.6204H633.855L644.262 31.9697H649.466C656.944 31.9697 661.619 33.5952 664.549 36.3647C666.951 38.6225 668.424 41.7683 668.424 46.5246C668.44 51.9281 665.638 57.8284 661.763 61.4709ZM792.741 30.4645L799.69 6.36681H719.983L694.876 94.2233H775.256L782.061 70.1256H732.392L735.194 60.5828H780.86L786.865 39.3751H741.215L743.744 30.4645H792.741Z" stroke="white" stroke-width="5"/>
<path d="M50.1069 49.0651C56.0689 49.0651 60.4292 47.9083 63.1877 45.5947C66.0352 43.1921 67.459 40.2111 67.459 36.6517C67.459 34.516 66.7026 32.6918 65.1899 31.1791C64.1221 30.1113 62.7428 29.3549 61.0521 28.91C59.3613 28.465 57.6261 28.2426 55.8464 28.2426H49.9734L44.5008 49.0651H50.1069ZM25.547 3.28223H56.9143C65.5458 3.28223 72.6201 4.12759 78.1372 5.81831C83.6543 7.50902 88.1481 10.0896 91.6185 13.56C94.1101 16.0516 95.9343 18.8991 97.0911 22.1026C98.3369 25.2171 98.9598 28.643 98.9598 32.3804C98.9598 38.2534 97.8919 43.5925 95.7563 48.3977C93.6206 53.114 90.5062 57.2073 86.4128 60.6777C82.4085 64.0591 77.4698 66.6842 71.5968 68.5529C65.7238 70.4216 59.0944 71.3559 51.7086 71.3559H38.4943L31.6869 96.7167H0.453125L25.547 3.28223Z" fill="white"/>
<path d="M142.873 98.7191C136.288 98.7191 130.282 97.7848 124.854 95.9161C119.426 93.9584 114.754 91.1998 110.839 87.6404C107.012 84.081 103.987 79.8097 101.762 74.8266C99.6264 69.7544 98.5586 64.0594 98.5586 57.7414C98.5586 51.3345 99.7599 44.794 102.162 38.1202C104.654 31.4463 108.391 25.3953 113.375 19.9672C118.358 14.4501 124.587 9.95633 132.062 6.48591C139.625 3.01549 148.435 1.28027 158.49 1.28027C163.562 1.28027 168.19 1.94766 172.372 3.28244C176.643 4.52823 180.425 6.35243 183.717 8.75503C187.01 11.0686 189.768 13.9162 191.993 17.2976C194.218 20.6791 195.819 24.4164 196.798 28.5098L168.901 40.6562C167.923 36.8299 166.143 33.9823 163.562 32.1137C160.982 30.245 157.912 29.3106 154.352 29.3106C150.882 29.3106 147.723 30.067 144.875 31.5797C142.028 33.0035 139.581 34.9167 137.534 37.3193C135.576 39.7219 134.019 42.4804 132.862 45.5949C131.795 48.6204 131.261 51.7349 131.261 54.9384C131.261 60.0995 132.64 64.0593 135.398 66.8179C138.246 69.5764 141.761 70.9557 145.943 70.9557C149.592 70.9557 152.884 70.1103 155.821 68.4196C158.757 66.7289 161.516 64.3263 164.096 61.2118L185.72 78.297C181.003 84.437 175.175 89.3756 168.234 93.113C161.293 96.8504 152.84 98.7191 142.873 98.7191Z" fill="white"/>
</g>
<defs>
<clipPath id="clip0_4_5856">
<rect width="803.586" height="100" fill="white"/>
</clipPath>
</defs>
</svg>
