<svg width="695" height="100" viewBox="0 0 695 100" fill="none" xmlns="http://www.w3.org/2000/svg">
<g clip-path="url(#clip0_4_5884)">
<path d="M320.528 20.722C333.441 20.722 346.37 20.722 359.283 20.722C363.138 20.71 366.945 21.5798 370.413 23.265C373.651 24.8018 376.64 26.8169 379.28 29.2425C380.903 30.7033 382.329 32.3684 383.524 34.1963C385.135 36.6469 385.985 39.5196 385.967 42.4525C385.967 44.7478 385.967 47.043 385.967 49.3218C385.975 51.7106 385.515 54.0778 384.613 56.2901C383.927 58.0016 383.11 59.6578 382.169 61.2438C381.889 61.7062 381.608 62.185 381.294 62.6309C381.102 62.8917 380.999 63.207 380.999 63.5308C380.999 63.8546 381.102 64.1699 381.294 64.4308C381.641 64.9757 381.955 65.5206 382.285 66.082C383.199 67.6674 383.983 69.3241 384.63 71.0358C385.476 73.2675 385.913 75.6337 385.918 78.0206C385.918 82.6936 385.918 87.3667 385.918 92.0397C385.918 92.3204 385.918 92.6011 385.918 92.8653C385.97 93.7408 385.767 94.6127 385.334 95.375C384.9 96.1372 384.254 96.7569 383.474 97.1586C382.284 97.8501 380.99 98.3462 379.643 98.6282C376.416 99.3877 373.06 99.4216 369.818 98.7273C368.671 98.4819 367.561 98.0878 366.516 97.5549C365.63 97.1608 364.883 96.5088 364.374 95.684C363.864 94.8592 363.615 93.8999 363.659 92.9314C363.659 89.1831 363.659 85.4182 363.659 81.6698C363.659 80.8442 363.659 80.0186 363.659 79.193C363.512 77.4467 362.914 75.7684 361.925 74.3218C361.329 73.3353 360.484 72.5221 359.476 71.963C358.468 71.4039 357.331 71.1184 356.179 71.1349H304.99C303.983 71.1349 302.959 71.1349 301.968 71.1349C300.671 71.1877 299.442 71.7265 298.524 72.6444C297.606 73.5622 297.067 74.7917 297.014 76.0886C297.014 76.8152 297.014 77.5582 297.014 78.2848C297.014 82.7762 297.014 87.2676 297.014 91.759C297.014 92.403 297.014 93.0305 297.014 93.6745C296.993 94.2256 296.853 94.7656 296.605 95.2584C296.358 95.7511 296.007 96.1851 295.578 96.5311C294.65 97.2812 293.584 97.8422 292.44 98.1824C289.109 99.2471 285.573 99.513 282.12 98.9585C280.938 98.8268 279.778 98.5438 278.669 98.1163C277.72 97.7759 276.837 97.273 276.06 96.6302C275.636 96.2746 275.291 95.8333 275.049 95.3353C274.807 94.8373 274.673 94.2939 274.656 93.7405C274.656 93.0965 274.656 92.4691 274.656 91.8251V26.7821C274.656 26.1547 274.656 25.5107 274.656 24.8667C274.698 24.3062 274.803 23.7522 274.97 23.2154C275.154 22.5954 275.512 22.0409 276 21.6168C276.489 21.1927 277.088 20.9167 277.728 20.8211C278.173 20.7273 278.627 20.683 279.082 20.689H320.594L320.528 20.722ZM329.131 51.7986H358.226C358.829 51.8143 359.419 51.6323 359.908 51.2804C360.397 50.9285 360.758 50.4262 360.934 49.8502C361.379 48.6945 361.585 47.4608 361.539 46.2234C361.494 44.986 361.198 43.7706 360.67 42.6507C360.593 42.4836 360.493 42.328 360.373 42.1884C360.171 41.8818 359.9 41.6266 359.581 41.4432C359.263 41.2597 358.907 41.153 358.54 41.1316H356.08H300.35C299.843 41.1327 299.347 41.2717 298.914 41.5335C298.48 41.7953 298.126 42.1701 297.889 42.6177C297.276 43.8472 296.967 45.2064 296.99 46.5803C297.013 47.9542 297.367 49.3024 298.022 50.5107C298.231 50.867 298.524 51.1672 298.875 51.3858C299.225 51.6043 299.624 51.7346 300.036 51.7656C300.862 51.7656 301.687 51.7656 302.496 51.7656L329.131 51.7986Z" fill="white"/>
<path d="M585.489 21.7467H619.01C621.575 21.6903 624.139 21.9173 626.655 22.4237C630.256 23.1559 633.674 24.5985 636.711 26.6674C639.062 28.2825 641.057 30.3617 642.573 32.7771C643.935 34.8562 644.647 37.2932 644.621 39.7784C644.621 41.7104 644.621 43.6258 644.621 45.5578V90.8847C644.621 91.8095 644.621 92.7176 644.621 93.6423C644.622 94.3261 644.476 95.0021 644.191 95.6237C643.906 96.2452 643.489 96.7974 642.969 97.2421C642.011 98.0764 640.885 98.6957 639.667 99.0585C637.042 99.9132 634.248 100.117 631.526 99.6529C630.347 99.4815 629.193 99.1654 628.092 98.7117C627.243 98.3526 626.452 97.8684 625.747 97.2751C625.185 96.801 624.731 96.2126 624.415 95.5491C624.099 94.8857 623.928 94.1624 623.914 93.4277C623.914 92.6021 623.914 91.7764 623.914 90.9508V50.8418C623.914 50.0162 623.914 49.1906 623.914 48.3649C623.923 47.4697 623.753 46.5817 623.416 45.7525C623.078 44.9233 622.579 44.1695 621.948 43.5349C621.316 42.9003 620.565 42.3976 619.737 42.056C618.91 41.7145 618.023 41.5408 617.127 41.5453H605.568C604.747 41.5285 603.926 41.5615 603.108 41.6443C602.007 41.7549 600.958 42.1727 600.082 42.85C599.206 43.5272 598.539 44.4369 598.154 45.4752C597.727 46.491 597.492 47.5772 597.461 48.6787C597.461 49.6804 597.461 50.6877 597.461 51.7005V93.7414C597.464 94.4768 597.286 95.2016 596.944 95.8523C596.601 96.503 596.104 97.0596 595.496 97.4733C594.375 98.2788 593.098 98.8412 591.748 99.1245C588.164 99.98 584.417 99.8545 580.899 98.7612C579.93 98.479 579.015 98.0382 578.191 97.4568C577.524 97.0451 576.978 96.4651 576.607 95.7752C576.236 95.0853 576.053 94.3098 576.077 93.5268C576.077 92.7011 576.077 91.8755 576.077 91.0499V49.7685C576.077 48.7668 576.077 47.7595 576.077 46.7467C576.049 45.8291 575.842 44.9259 575.466 44.0882C575.211 43.3962 574.766 42.7904 574.182 42.3405C573.597 41.8906 572.898 41.6149 572.164 41.5453C571.526 41.512 570.886 41.512 570.248 41.5453H558.161C557.616 41.5453 557.055 41.5453 556.51 41.5453C555.219 41.6067 553.98 42.0692 552.965 42.8684C551.949 43.6676 551.209 44.7636 550.846 46.0037C550.521 46.9563 550.342 47.953 550.318 48.9594C550.318 49.8841 550.318 50.7923 550.318 51.717V91.826C550.318 92.6516 550.318 93.4772 550.318 94.3029C550.311 94.807 550.205 95.3048 550.003 95.7671C549.802 96.2293 549.51 96.6466 549.145 96.9944C548.422 97.7004 547.57 98.261 546.635 98.6456C545.456 99.1621 544.212 99.5122 542.936 99.6859C540.035 100.163 537.066 100.034 534.218 99.3062C533.035 99.0093 531.916 98.5002 530.915 97.8035C530.352 97.4044 529.884 96.8845 529.547 96.2817C529.21 95.6789 529.012 95.0085 528.967 94.3194C528.967 93.7744 528.967 93.2295 528.967 92.6681V44.3524C528.907 39.7387 530.23 35.2127 532.765 31.357C534.547 28.4499 537.045 26.0479 540.019 24.38C542.994 22.7121 546.346 21.834 549.756 21.8293C554.792 21.6972 559.829 21.8293 564.882 21.8293H585.489V21.7467Z" fill="white"/>
<path d="M456.343 22.2088C465.59 22.2088 474.837 22.2913 484.084 22.2088C489.264 22.1359 494.378 23.3803 498.945 25.825C506.632 29.6768 512.721 36.1054 516.151 43.9888C518.558 49.6594 519.539 55.8336 519.008 61.971C518.806 65.6359 518.134 69.2596 517.01 72.7537C515.315 78.2006 512.35 83.1668 508.359 87.2434C504.369 91.32 499.467 94.3903 494.058 96.2015C491.726 97.0327 489.267 97.4518 486.792 97.4399H481.013C463.707 97.4399 446.336 97.4399 429.097 97.4399C421.061 97.4929 413.254 94.7624 407.003 89.7121C401.498 85.3528 397.51 79.3655 395.61 72.6051C394.55 69.1951 393.961 65.6561 393.859 62.0866C393.859 59.8904 393.859 57.6777 393.859 55.4816C394.02 50.976 395.058 46.545 396.914 42.4367C398.843 38.1683 401.626 34.3401 405.09 31.1878C408.555 28.0356 412.628 25.6261 417.059 24.1077C420.592 22.8131 424.328 22.1643 428.09 22.1923C436.974 22.1923 445.841 22.1923 454.725 22.1923L456.343 22.2088ZM457.284 77.724H482.053C483.754 77.7312 485.437 77.3772 486.992 76.6855C488.546 75.9938 489.935 74.9801 491.069 73.7114C492.617 72.0176 493.797 70.0218 494.536 67.8495C495.571 64.8054 496.058 61.6018 495.973 58.3878C495.928 56.9231 495.701 55.4698 495.296 54.0615C494.602 51.6318 493.402 49.3766 491.774 47.4442C490.146 45.5117 488.127 43.9458 485.851 42.8495C484.331 42.0281 482.624 41.6183 480.897 41.6606H434.348C433.803 41.6606 433.242 41.6606 432.697 41.6606C431.888 41.7431 431.046 41.8257 430.253 41.9908C427.38 42.6143 424.708 43.9421 422.476 45.8548C420.494 47.421 418.913 49.4353 417.863 51.7318C416.812 54.0284 416.322 56.5417 416.432 59.0648C416.452 62.0546 417.171 64.9982 418.53 67.6614C419.888 70.3246 421.85 72.6337 424.259 74.4049C426.958 76.6761 430.411 77.8542 433.935 77.7075C434.48 77.7075 435.025 77.7075 435.587 77.7075L457.284 77.724Z" fill="white"/>
<path d="M164.699 97.1767H130.881C129.792 97.1767 128.685 97.1767 127.579 97.1767C126.853 97.1071 126.138 96.9519 125.449 96.7143C124.914 96.5541 124.435 96.2484 124.065 95.8314C123.695 95.4143 123.448 94.9025 123.352 94.3531C123.156 93.3712 123.018 92.3787 122.939 91.3808C122.906 90.7372 122.906 90.0924 122.939 89.4488V30.8788C122.881 29.5069 122.981 28.1329 123.236 26.7837C123.422 25.6393 123.984 24.5896 124.834 23.8002C125.683 23.0108 126.771 22.5267 127.926 22.4244C128.923 22.3031 129.927 22.2479 130.931 22.2593H198.55C203.786 22.3637 208.93 23.6567 213.593 26.0407C217.266 27.8425 220.548 30.3508 223.251 33.4222C225.954 36.4936 228.025 40.0678 229.346 43.9403C230.661 47.6632 231.434 51.556 231.641 55.499C231.847 58.5118 231.847 61.5351 231.641 64.5479C231.337 69.1253 230.282 73.6215 228.52 77.857C226.029 83.6572 221.877 88.5909 216.588 92.0374C211.3 95.4839 205.11 97.2892 198.797 97.2262C187.426 97.1822 176.06 97.1657 164.699 97.1767ZM173.253 78.435H182.318C186.892 78.435 191.482 78.435 196.056 78.435C197.899 78.4642 199.706 77.9346 201.241 76.9158C202.085 76.3661 202.885 75.7534 203.636 75.0829C204.862 73.9734 205.924 72.6946 206.79 71.285C209.956 66.403 211.165 60.5065 210.175 54.7725C209.753 52.0412 208.614 49.4711 206.872 47.3253C205.431 45.4769 203.576 43.9925 201.457 42.9916C199.337 41.9906 197.012 41.5012 194.669 41.5624C180.469 41.5624 166.268 41.5624 152.067 41.5624C151.423 41.5624 150.779 41.5624 150.135 41.5624C148.556 41.613 147.057 42.2685 145.947 43.3933C144.838 44.5182 144.203 46.0264 144.174 47.606C144.174 48.2335 144.174 48.8775 144.174 49.5215V72.3253C144.165 73.0587 144.198 73.7919 144.273 74.5215C144.311 75.3542 144.626 76.1506 145.167 76.7846C145.708 77.4186 146.445 77.8541 147.262 78.0222C148.508 78.335 149.792 78.4684 151.076 78.4184L173.253 78.435Z" fill="white"/>
<path d="M66.3324 23.002H105.962C106.467 23.0097 106.963 23.1327 107.412 23.3617C107.861 23.5907 108.252 23.9195 108.555 24.3231C109.135 25.0403 109.567 25.8653 109.826 26.7504C110.943 30.1666 110.989 33.8423 109.959 37.2854C109.721 38.1776 109.299 39.0102 108.72 39.7293C108.416 40.1298 108.024 40.4555 107.575 40.6816C107.126 40.9076 106.631 41.0281 106.128 41.0337H38.195C37.3694 41.0337 36.5437 41.0337 35.7181 41.0337C34.0635 41.0185 32.4305 41.4097 30.9625 42.1731C29.4765 42.9002 28.1118 43.8527 26.9169 44.9968C23.0659 48.6472 20.781 53.649 20.5431 58.9499C20.3667 61.9765 21.0114 64.9946 22.409 67.685C24.4494 71.7186 27.5857 75.0952 31.4579 77.4274C33.7999 78.8846 36.5101 79.641 39.2683 79.6071C60.7016 79.6071 82.1349 79.6071 103.568 79.6071H106.309C106.677 79.6168 107.038 79.7077 107.366 79.8733C107.694 80.0389 107.982 80.275 108.208 80.5648C108.791 81.2801 109.224 82.1057 109.48 82.9921C110.168 85.2758 110.459 87.6609 110.338 90.043C110.36 91.6965 110.086 93.3405 109.529 94.8977C109.263 95.5757 108.926 96.2234 108.522 96.8297C108.294 97.176 107.989 97.465 107.631 97.6741C107.273 97.8832 106.871 98.0067 106.458 98.0351C105.632 98.0351 104.807 98.0351 103.981 98.0351H28.7003C27.1378 98.0388 25.5916 97.7183 24.1593 97.0939C22.7159 96.5073 21.3378 95.7712 20.0477 94.8977C11.5766 89.2801 5.19284 81.0276 1.88388 71.4168C0.74214 68.126 0.118243 64.6778 0.0344757 61.1956C-0.393286 51.9542 2.43502 42.8557 8.02655 35.4855C10.6607 31.9473 13.9241 28.9246 17.6534 26.5688C19.3403 25.4653 21.153 24.5672 23.053 23.8937C24.7675 23.2463 26.5869 22.9216 28.4195 22.936C30.1699 22.936 31.9037 22.936 33.654 22.936L66.3324 23.002Z" fill="white"/>
<path d="M675.103 42.1238H659.185C658.453 42.1652 657.72 42.1652 656.989 42.1238C656.244 42.0874 655.54 41.7743 655.015 41.2458C654.49 40.7173 654.18 40.0116 654.148 39.2671C654.148 35.5188 654.148 31.7704 654.148 28.0221C654.181 27.0982 654.454 26.1987 654.941 25.4131C655.642 24.1227 656.61 22.9968 657.781 22.1106C658.804 21.3184 660.055 20.8782 661.348 20.8556C667.111 20.8556 672.907 20.1291 678.62 20.1951H678.901C679.872 20.2507 680.833 19.9734 681.626 19.409C682.419 18.8446 682.995 18.0269 683.26 17.0907C683.591 16.1838 683.737 15.2195 683.689 14.2552C683.641 13.2908 683.399 12.3459 682.979 11.4765C682.673 10.9149 682.283 10.4028 681.823 9.95733C681.389 9.49739 680.802 9.21004 680.172 9.14821C679.347 9.14821 678.521 9.04914 677.712 9.04914C672.114 9.04914 666.533 9.04914 660.952 9.04914C660.225 9.04914 659.482 9.04914 658.755 9.04914C658.386 9.03579 658.027 8.92087 657.718 8.71698C657.409 8.51308 657.163 8.22809 657.005 7.89326C656.473 6.92699 656.178 5.84763 656.147 4.74483C656.115 3.64203 656.347 2.54762 656.824 1.55245C656.971 1.223 657.2 0.936502 657.489 0.719869C657.778 0.503236 658.117 0.363575 658.475 0.314009C658.838 0.289365 659.202 0.289365 659.565 0.314009C665.889 0.314009 672.197 0.214922 678.521 0.198409C681.279 0.18592 683.994 0.873389 686.414 2.19644C689.652 3.79471 692.169 6.55375 693.465 9.9243C694.316 11.9179 694.625 14.101 694.362 16.2526C694.098 18.4041 693.27 20.4478 691.962 22.1766C690.639 24.1025 688.927 25.7294 686.936 26.9525C684.945 28.1755 682.719 28.9674 680.403 29.277C679.227 29.4395 678.041 29.5277 676.853 29.5412C674.376 29.5412 671.899 29.5412 669.439 29.5412C668.696 29.5412 667.969 29.5412 667.243 29.5412C666.781 29.562 666.335 29.721 665.964 29.9977C665.593 30.2744 665.314 30.6561 665.162 31.0934C664.934 31.5965 664.835 32.1488 664.876 32.6998C664.916 33.2508 665.094 33.7829 665.394 34.2473C665.54 34.5354 665.758 34.781 666.027 34.9603C666.296 35.1396 666.607 35.2466 666.929 35.2711C667.755 35.2711 668.58 35.2711 669.39 35.2711C676.358 35.2711 683.31 35.2711 690.261 35.2711C691.087 35.2711 691.913 35.2711 692.738 35.2711C693.199 35.2529 693.648 35.4154 693.991 35.7238C694.333 36.0323 694.541 36.4624 694.571 36.9223C694.763 38.0148 694.763 39.1324 694.571 40.2248C694.542 40.4029 694.504 40.5793 694.456 40.7532C694.387 41.1131 694.2 41.4399 693.925 41.682C693.65 41.9242 693.302 42.068 692.936 42.0907C692.21 42.0907 691.483 42.0907 690.74 42.0907L675.103 42.1238Z" fill="white"/>
<path d="M253.683 50.3626C255.509 50.333 257.315 50.7407 258.951 51.5515C259.948 52.0202 260.872 52.6322 261.692 53.3679C262.642 54.2002 263.404 55.2259 263.926 56.3764C264.448 57.5269 264.718 58.7757 264.718 60.039C264.718 61.3023 264.448 62.551 263.926 63.7015C263.404 64.8521 262.642 65.8778 261.692 66.71C260.134 68.1448 258.207 69.1169 256.127 69.5172C253.783 70.0037 251.35 69.8381 249.093 69.0383C247.532 68.5002 246.115 67.6136 244.948 66.4458C244.072 65.6329 243.374 64.6479 242.896 63.5526C242.418 62.4573 242.172 61.2752 242.172 60.0803C242.172 58.8853 242.418 57.7032 242.896 56.6079C243.374 55.5126 244.072 54.5277 244.948 53.7147C246.097 52.587 247.465 51.7076 248.967 51.1309C250.47 50.5543 252.075 50.2928 253.683 50.3626Z" fill="white"/>
</g>
<defs>
<clipPath id="clip0_4_5884">
<rect width="694.699" height="100" fill="white"/>
</clipPath>
</defs>
</svg>
