<svg width="207" height="100" viewBox="0 0 207 100" fill="none" xmlns="http://www.w3.org/2000/svg">
<g clip-path="url(#clip0_4_5875)">
<path d="M21.1303 73.5953C20.9872 73.5953 20.8431 73.5628 20.7062 73.4956C6.84651 66.7691 -0.310043 58.927 0.0103014 50.816C0.270646 44.1394 5.71927 37.836 15.7675 32.5842C25.3003 27.6032 38.7468 23.6497 54.6534 21.1504C55.1844 21.0677 55.6813 21.4304 55.7641 21.9604C55.8482 22.4904 55.4851 22.9873 54.9551 23.0711C22.7334 28.1311 2.42444 38.7922 1.95272 50.8935C1.66858 58.068 8.6303 65.4749 21.5555 71.748C22.0375 71.9825 22.2389 72.5622 22.0044 73.0477C21.8365 73.3929 21.49 73.5953 21.1303 73.5953Z" fill="white"/>
<path d="M141.954 23.7818C141.901 23.7818 141.848 23.7777 141.795 23.7694C131.556 22.0884 120.749 20.9663 109.672 20.4363C109.135 20.4115 108.721 19.9563 108.747 19.419C108.773 18.8839 109.237 18.4742 109.765 18.4959C120.916 19.029 131.799 20.1584 142.111 21.8518C142.64 21.938 142.999 22.438 142.911 22.9677C142.832 23.4449 142.422 23.7818 141.954 23.7818Z" fill="white"/>
<path d="M111.364 90.1513C111.092 90.1513 110.822 90.1513 110.55 90.1499C110.012 90.1489 109.581 89.7134 109.582 89.1761C109.584 88.6403 110.017 88.2075 110.553 88.2075C110.554 88.2075 110.555 88.2075 110.557 88.2075C110.823 88.2085 111.096 88.2085 111.365 88.2085C163.37 88.2096 204.407 74.6916 204.948 57.3185C205.138 51.2382 200.254 45.0706 190.822 39.483C181.43 33.9172 167.969 29.1734 151.898 25.7648C151.373 25.6537 151.038 25.1372 151.148 24.6123C151.259 24.0879 151.776 23.7537 152.301 23.8637C168.577 27.3161 182.24 32.1385 191.812 37.8113C201.89 43.7827 207.104 50.5496 206.89 57.3785C206.603 66.6179 196.396 75.0399 178.152 81.0903C160.511 86.9392 136.821 90.1513 111.364 90.1513Z" fill="white"/>
<path d="M128.962 39.5607L154.617 20.0049L124.485 32.0328L116.017 23.2187L118.717 35.4325L93.0625 54.9873L123.196 42.9563L131.662 51.7704L128.962 39.5607Z" fill="white"/>
<path d="M96.8326 63.9717C97.2008 62.161 97.8719 62.4245 99.7074 62.1321L101.417 61.8634L100.885 64.7131L99.1753 64.9858C97.3398 65.2776 96.5308 65.7679 96.8326 63.9717ZM93.1274 61.3624L91.7977 68.5183C91.4336 70.4721 92.0239 71.1007 93.9039 70.8031L104.79 69.0762L107.124 56.5276L96.2363 58.2524C94.3563 58.55 93.4881 59.4096 93.1274 61.3624ZM162.236 50.0679L162.108 50.7593L173.337 48.9769C174.224 48.8348 175.087 47.9386 175.268 46.97C175.446 46.0014 174.875 45.3303 173.989 45.4724L171.105 45.9279L166.503 46.66L165.337 46.8424C163.988 47.0583 162.508 48.5962 162.236 50.0679ZM83.4505 82.4265L83.5415 81.9276C83.9274 81.9565 84.445 82.1058 84.897 82.0386L96.5674 80.2083C96.1336 82.5362 93.0588 83.1203 88.365 83.8638L83.0243 84.7121L80.1598 100.114L87.1777 99.001C104.455 97.2958 111.028 88.3658 113.138 77.7214L134.191 74.3796L137.583 56.1252L139.296 55.8514C141.172 55.5538 140.895 55.2148 140.535 57.1645L137.43 73.8676L152.544 71.4686L152.75 70.3621C153.891 70.8652 155.225 71.0424 156.635 70.8207L182.775 66.6745L185.212 53.5545L183.518 52.3483C184.986 50.6089 186.13 48.4821 186.462 46.6962L186.873 44.6272C188.178 36.8886 181.043 34.8331 177.786 35.3507L162.786 37.7307C160.129 38.1527 157.205 40.0041 155.076 42.4565C153.107 40.5069 150.07 39.7489 148.303 40.03L131.603 42.6786L133.473 46.8103L148.533 44.4241C150.705 44.0776 152.156 44.9445 152.555 46.6652C152.394 47.1203 148.533 67.6772 148.533 67.6772L143.133 68.5348L146.028 52.9717C146.387 51.0227 145.798 50.3924 143.923 50.691L133.574 52.3348L130.179 70.5893L124.243 71.5341L128.127 50.6331L123.241 44.8689L105.65 51.2283L113.987 49.9048L114.122 49.8862L108.82 78.409C107.473 85.6538 99.7419 92.5824 92.8836 93.6714L85.8667 94.7831L86.9308 89.0752L92.2684 88.231C96.9612 87.4841 102.244 82.7872 103.156 77.8758L103.731 74.7852L89.8315 76.99C86.8508 77.4641 85.2332 75.6534 85.8191 72.5048L88.3122 59.0965C88.7529 56.7134 90.2401 54.7355 92.2291 53.7069L92.2612 53.349L99.2357 47.9821L95.1619 48.6676C92.9936 49.01 88.975 50.6352 86.4205 53.8924C84.4894 51.5879 81.1119 50.6858 79.2098 50.9876L64.2274 53.3676L66.6694 40.2434L77.6001 38.5086C83.4181 37.5876 89.8563 31.0427 91.0012 24.8969L92.6439 16.0527C93.7877 9.90309 89.4632 5.06722 83.6443 5.99033L59.7563 9.77964L54.6663 37.1645L32.6701 40.6552C30.8088 40.951 28.997 42.7865 28.6329 44.7538L20.4122 88.9672C20.0481 90.9355 21.2615 92.2931 23.1229 91.9996L65.0943 85.3396L68.4894 67.0852L70.1988 66.8114C72.0788 66.5169 71.8019 66.1786 71.437 68.1272L68.3329 84.8252L83.4505 82.4265ZM52.305 72.4176L38.2705 74.6441L38.7984 71.7955L50.1336 69.9931L52.8922 55.1596L41.557 56.961L42.0846 54.1093L56.1194 51.8817L52.305 72.4176ZM51.4557 76.9827L50.2901 83.2572L25.4594 87.1958L33.1981 45.5503L53.7112 42.2958L52.6515 48.0021L38.0763 50.3165L35.8508 62.2958L47.7253 60.4124L46.6657 66.1155L34.7901 67.9986L32.5601 79.9821L51.4557 76.9827ZM79.9784 78.551L74.0391 79.4893L76.9312 63.9314C77.2963 61.9807 76.7063 61.3479 74.826 61.6455L64.4781 63.2893L61.086 81.5438L55.1467 82.4876L59.5998 58.5293L59.7377 58.5065L79.4391 55.3807C82.4194 54.9069 84.0363 56.7145 83.4505 59.8658L79.9784 78.551ZM118.574 49.1717L124.378 48.2527L119.922 72.2124L113.986 73.1531L118.438 49.1965L118.574 49.1717ZM154.588 60.4634L156.649 49.3803C157.302 45.8748 161.07 42.4317 164.278 41.9217L178.165 39.721C180.505 39.3486 182.13 41.9621 181.653 44.5183L180.971 48.0858C180.493 50.6434 177.881 53.3614 175.543 53.7338L161.129 56.0217L160.922 57.3158C160.648 58.7865 161.624 59.9355 162.973 59.7207L179.084 57.1552L177.998 63.0021L159.823 65.8831C156.614 66.3914 153.939 63.9717 154.588 60.4634ZM68.6825 29.4021L70.6974 18.5617L78.2546 17.3627C79.246 17.2062 79.7522 17.7714 79.555 18.8165L78.1781 26.2358C77.9808 27.2845 77.2312 28.0455 76.2394 28.2031L68.6825 29.4021Z" fill="white"/>
<path d="M116.987 34.474L115.384 28.1199L114.479 28.2285L114.188 29.7958C113.987 30.8827 113.114 31.7661 112.089 31.9309L105.88 32.9151C104.855 33.0792 104.269 32.4227 104.471 31.3368L107.6 14.5072C107.801 13.4254 108.674 12.5399 109.698 12.3761L115.908 11.392C116.932 11.2289 117.518 11.8844 117.316 12.9661L116.916 15.1089L129.468 13.1154L129.944 10.5499C131.148 4.07543 126.746 -0.846639 120.617 0.121982L108.608 2.02819C102.483 3.00095 95.9255 9.66198 94.7224 16.1365L91.3821 34.1068C90.18 40.5813 94.5814 45.503 100.711 44.5303L104.724 43.8968L116.987 34.474Z" fill="white"/>
<path d="M125.886 30.6409C126.213 29.7595 126.439 29.4243 126.607 28.5202L127.034 26.2354L122.039 27.0298L125.886 30.6409Z" fill="white"/>
</g>
<defs>
<clipPath id="clip0_4_5875">
<rect width="206.897" height="100" fill="white"/>
</clipPath>
</defs>
</svg>
