<svg width="259" height="100" viewBox="0 0 259 100" fill="none" xmlns="http://www.w3.org/2000/svg">
<g clip-path="url(#clip0_4_5892)">
<path d="M18.3445 60.6034C22.9852 60.6017 27.606 60.3185 31.9655 58.6605C43.6255 54.6464 51.3505 42.3358 50.9649 30.1829C50.6267 24.2259 48.6065 18.3314 45.0024 13.5569C39.6353 5.97682 30.2875 1.67777 21.0664 1.90749L0.324747 1.89844V19.4093L0.269531 19.6497L0.324747 19.6463V83.6269H8.76498V60.6034M8.68216 9.45097C13.435 9.44192 18.1862 9.34064 22.93 9.55958C29.9933 10.0276 36.8564 13.9685 40.3134 20.2191C44.644 27.616 44.1496 37.6256 38.8101 44.3812C35.0847 49.3944 29.0209 52.6027 22.7553 52.7035C18.0943 52.7677 13.5286 52.7328 8.76498 52.7328L8.68216 9.45097Z" fill="white"/>
<path d="M142.699 48.907V33.0244H130.281C131.125 36.0232 131.586 39.1836 131.586 42.4522C131.586 44.6596 131.371 46.8137 130.978 48.907H142.699Z" fill="white"/>
<path d="M127.942 57.943C122.239 69.3757 110.428 77.2316 96.7734 77.2316C77.5467 77.2316 61.9603 61.6598 61.9603 42.45C61.9603 23.242 77.5467 7.66847 96.7734 7.66847C109.209 7.66847 120.114 14.1875 126.271 23.9859H135.025C128.151 9.79494 113.613 0 96.7717 0C73.3063 0 54.2832 19.0059 54.2832 42.45C54.2832 65.8959 73.3063 84.9018 96.7717 84.9018C114.764 84.9018 130.131 73.7243 136.327 57.943H127.942Z" fill="white"/>
<path d="M190.272 18.1021V1.89844H164.888H157.731H149.346V83.6545H164.888V48.9061H189.103V33.0236H164.888V18.1021H190.272Z" fill="white"/>
<path d="M255.434 83.6545L231.123 41.1752L253.6 1.89844H234.895L221.77 24.8319L208.647 1.89844H189.942L212.418 41.1752L188.107 83.6545H206.813L221.77 57.5184L236.729 83.6545H255.434Z" fill="white"/>
<path d="M8.90482 99.8328V91.386L5.33176 99.8328H4.51043L0.950314 91.386V99.8328H0V90.3447H1.47788L4.9349 98.4209L8.37769 90.3447H9.85686V99.8328H8.90482Z" fill="white"/>
<path d="M14.9504 100C13.0373 100 11.7246 98.845 11.7246 96.2651V90.3447H12.6766V96.2651C12.6766 98.2024 13.4747 99.1277 14.9634 99.1277C16.4283 99.1277 17.2388 98.2041 17.2388 96.2651V90.3447H18.1887V96.2651C18.1887 98.845 16.8786 100 14.9504 100Z" fill="white"/>
<path d="M20.0605 99.8328V90.3447H21.0126V98.9717H24.9441V99.8328H20.0605Z" fill="white"/>
<path d="M27.5758 91.2061V99.833H26.6255V91.2061H24.4531V90.3467H29.7482V91.2061H27.5758Z" fill="white"/>
<path d="M30.7324 99.8328V90.3447H31.6845V99.8328H30.7324Z" fill="white"/>
<path d="M42.4639 99.8328V91.386L38.8908 99.8328H38.069L34.5089 91.386V99.8328H33.5586V90.3447H35.0365L38.4918 98.4209L41.9363 90.3447H43.4137V99.8328H42.4639Z" fill="white"/>
<path d="M45.2852 99.8328V90.3447H50.4754V91.2041H46.2355V94.6067H50.3339V95.4661H46.2355V98.9717H50.4754V99.8328H45.2852Z" fill="white"/>
<path d="M54.6503 99.8328H52.0918V90.3447H54.3289C56.0509 90.3447 57.0526 90.5503 57.9533 91.0903C59.3665 91.9238 60.111 93.3362 60.111 95.1209C60.111 97.8572 58.3631 99.8328 54.6503 99.8328ZM57.4257 91.8213C56.7053 91.386 55.8063 91.2058 54.3673 91.2058H53.0438V98.9734H54.3673C56.0509 98.9734 57.0271 98.7295 57.7859 98.127C58.659 97.4202 59.1478 96.3293 59.1478 95.0842C59.1478 93.6702 58.5175 92.4768 57.4257 91.8213Z" fill="white"/>
<path d="M61.5703 99.8328V90.3447H62.5224V99.8328H61.5703Z" fill="white"/>
<path d="M71.7467 99.8328L70.3702 96.6358H65.9499L64.5622 99.8328H63.5605L67.6331 90.3447H68.7012L72.7872 99.8328H71.7467ZM68.1736 91.4243L66.3101 95.7764H69.9988L68.1736 91.4243Z" fill="white"/>
<path d="M77.3027 99.8328V90.3447H82.4952V91.2041H78.253V94.6067H82.3537V95.4661H78.253V98.9717H82.4952V99.8328H77.3027Z" fill="white"/>
<path d="M90.7167 99.8328L85.0614 91.4886V99.8328H84.1094V90.3447H85.3957L90.715 98.2153V90.3447H91.667V99.8328H90.7167Z" fill="white"/>
<path d="M95.7731 91.2061V99.833H94.8228V91.2061H92.6504V90.3467H97.9455V91.2061H95.7731Z" fill="white"/>
<path d="M98.9316 99.8328V90.3447H104.124V91.2041H99.8837V94.6067H103.982V95.4661H99.8837V98.9717H104.124V99.8328H98.9316Z" fill="white"/>
<path d="M109.376 96.2888L112.035 99.8328H110.853L107.654 95.5325C110.313 95.5325 111.212 95.0713 111.212 93.3638C111.212 91.7842 110.236 91.2058 108.025 91.2058H106.689V99.8328H105.738V90.3447H108.089C111.07 90.3447 112.175 91.4243 112.175 93.4004C112.177 95.0825 111.199 96.0979 109.376 96.2888Z" fill="white"/>
<path d="M115.695 91.2061V99.833H114.743V91.2061H112.572V90.3467H117.866V91.2061H115.695Z" fill="white"/>
<path d="M125.562 99.8328L124.187 96.6358H119.764L118.377 99.8328H117.375L121.448 90.3447H122.516L126.602 99.8328H125.562ZM121.989 91.4243L120.125 95.7764H123.812L121.989 91.4243Z" fill="white"/>
<path d="M127.637 99.8328V90.3447H128.589V99.8328H127.637Z" fill="white"/>
<path d="M137.067 99.8328L131.413 91.4886V99.8328H130.461V90.3447H131.746L137.067 98.2153V90.3447H138.019V99.8328H137.067Z" fill="white"/>
<path d="M148.795 99.8328V91.386L145.222 99.8328H144.401L140.841 91.386V99.8328H139.891V90.3447H141.368L144.826 98.4209L148.268 90.3447H149.746V99.8328H148.795Z" fill="white"/>
<path d="M151.617 99.8328V90.3447H156.808V91.2041H152.568V94.6067H156.666V95.4661H152.568V98.9717H156.808V99.8328H151.617Z" fill="white"/>
<path d="M165.027 99.8328L159.372 91.4886V99.8328H158.422V90.3447H159.707L165.027 98.2153V90.3447H165.978V99.8328H165.027Z" fill="white"/>
<path d="M170.086 91.2061V99.833H169.134V91.2061H166.963V90.3467H172.256V91.2061H170.086Z" fill="white"/>
<path d="M179.5 95.9949H177.675V99.8328H176.723V90.3447H179.345C181.953 90.3447 183.007 91.23 183.007 93.2202C183.009 95.0183 182.082 95.9949 179.5 95.9949ZM179.024 91.2058H177.675V95.1338H179.434C181.323 95.1338 182.044 94.5959 182.044 93.2202C182.044 91.2959 180.836 91.2058 179.024 91.2058Z" fill="white"/>
<path d="M184.25 99.8328V90.3447H185.202V98.9717H189.135V99.8328H184.25Z" fill="white"/>
<path d="M197.907 99.8328L196.53 96.6358H192.11L190.722 99.8328H189.721L193.794 90.3447H194.862L198.947 99.8328H197.907ZM194.334 91.4243L192.47 95.7764H196.159L194.334 91.4243Z" fill="white"/>
<path d="M202.31 96.6616V99.8328H201.36V96.6616L198.07 90.3447H199.123L201.822 95.6609L204.586 90.3447H205.626L202.31 96.6616Z" fill="white"/>
<path d="M206.547 99.8328V90.3447H211.739V91.2041H207.497V94.6067H211.598V95.4661H207.497V98.9717H211.739V99.8328H206.547Z" fill="white"/>
<path d="M216.989 96.2888L219.648 99.8328H218.467L215.267 95.5325C217.926 95.5325 218.827 95.0713 218.827 93.3638C218.827 91.7842 217.851 91.2058 215.64 91.2058H214.304V99.8328H213.352V90.3447H215.702C218.683 90.3447 219.79 91.4243 219.79 93.4004C219.792 95.0825 218.814 96.0979 216.989 96.2888Z" fill="white"/>
<path d="M227.328 95.9949H225.503V99.8328H224.553V90.3447H227.174C229.782 90.3447 230.837 91.23 230.837 93.2202C230.837 95.0183 229.912 95.9949 227.328 95.9949ZM226.854 91.2058H225.503V95.1338H227.264C229.153 95.1338 229.874 94.5959 229.874 93.2202C229.874 91.2959 228.664 91.2058 226.854 91.2058Z" fill="white"/>
<path d="M236.655 100C233.815 100 231.668 97.894 231.668 95.1211C231.668 92.2839 233.764 90.1777 236.59 90.1777C238.557 90.1777 240.228 91.1806 240.959 92.811H239.891C239.082 91.5388 237.965 91.0518 236.627 91.0518C234.366 91.0518 232.631 92.7981 232.631 95.0827C232.631 97.3045 234.443 99.1262 236.64 99.1262C238.029 99.1262 238.941 98.6009 239.943 97.3415H240.996C240.047 99.1025 238.582 100 236.655 100Z" fill="white"/>
<path d="M246.874 91.2058V94.6343H250.602V95.4937H246.874V99.8328H245.924V90.3447H250.743V91.2041H246.874V91.2058Z" fill="white"/>
<path d="M257.704 99.8328L255.019 95.7764L252.32 99.8328H251.203L254.429 94.9795L251.383 90.3447H252.501L255.021 94.146L257.526 90.3447H258.63L255.585 94.9795L258.823 99.8328H257.704Z" fill="white"/>
<path d="M243.146 95.9433C242.76 95.9433 242.453 95.6369 242.453 95.2512C242.453 94.8672 242.76 94.5586 243.146 94.5586C243.519 94.5586 243.839 94.8672 243.839 95.2512C243.839 95.6369 243.519 95.9433 243.146 95.9433Z" fill="white"/>
</g>
<defs>
<clipPath id="clip0_4_5892">
<rect width="258.824" height="100" fill="white"/>
</clipPath>
</defs>
</svg>
