<svg width="600" height="100" viewBox="0 0 600 100" fill="none" xmlns="http://www.w3.org/2000/svg">
<g clip-path="url(#clip0_4_5933)">
<path d="M39.9369 19.9167H60.9914V40.5099H39.9369V19.9167ZM0.00507812 100.008H39.6505L39.8142 59.9054L100.001 59.9281L99.7642 0.0712891L20.6869 0.0758345L-0.0449219 20.7372L0.00507812 100.008Z" fill="white"/>
<path d="M120.37 0.0996094H199.713V19.561H180.14V79.9496H199.656V99.911H120.354V80.3042H140.533L140.502 18.9792L120.143 19.011L120.37 0.0996094Z" fill="white"/>
<path d="M220.074 21.3659L241.442 0.00683594H299.82V19.7864H260.231V80.1659H299.401V99.8841H220.506L220.074 21.3659Z" fill="white"/>
<path d="M360.382 19.932H380.312V79.7161H360.382V19.932ZM320.164 99.607H398.694L419.88 78.4593V0.0751953H341.45L320.464 21.0206L320.164 99.607Z" fill="white"/>
<path d="M440.424 39.7686H480.244V59.7617H440.424V39.7686Z" fill="white"/>
<path d="M540.278 20.0205H580.894V40.0796H540.278V20.0205ZM540.349 59.8205H580.962V79.8796H540.349V59.8205ZM599.953 99.7273V0.00683594H520.444V21.4296L500.674 41.1591V99.8796L599.953 99.7273Z" fill="white"/>
</g>
<defs>
<clipPath id="clip0_4_5933">
<rect width="600" height="100" fill="white"/>
</clipPath>
</defs>
</svg>
