<svg width="364" height="100" viewBox="0 0 364 100" fill="none" xmlns="http://www.w3.org/2000/svg">
<g clip-path="url(#clip0_4_5940)">
<path fill-rule="evenodd" clip-rule="evenodd" d="M15.9323 62.3184V100H10.9844V62.3184H15.9323Z" fill="white"/>
<path fill-rule="evenodd" clip-rule="evenodd" d="M26.9164 62.3184V100H21.959V62.3184H26.9164Z" fill="white"/>
<path fill-rule="evenodd" clip-rule="evenodd" d="M37.9008 62.3184V100H32.9434V62.3184H37.9008Z" fill="white"/>
<path fill-rule="evenodd" clip-rule="evenodd" d="M4.95743 62.3184V100H0V62.3184H4.95743Z" fill="white"/>
<path fill-rule="evenodd" clip-rule="evenodd" d="M15.9323 62.3184V100H10.9844V62.3184H15.9323Z" fill="white"/>
<path fill-rule="evenodd" clip-rule="evenodd" d="M26.9164 62.3184V100H21.959V62.3184H26.9164Z" fill="white"/>
<path fill-rule="evenodd" clip-rule="evenodd" d="M37.8988 62.3184V100H32.9414V62.3184H37.8988Z" fill="white"/>
<path fill-rule="evenodd" clip-rule="evenodd" d="M48.8737 62.3184V100H43.9258V62.3184H48.8737Z" fill="white"/>
<path fill-rule="evenodd" clip-rule="evenodd" d="M59.8578 62.3184V100H54.9004V62.3184H59.8578Z" fill="white"/>
<path fill-rule="evenodd" clip-rule="evenodd" d="M70.8327 62.3184V100H65.8848V62.3184H70.8327Z" fill="white"/>
<path fill-rule="evenodd" clip-rule="evenodd" d="M81.8171 62.3184V100H76.8691V62.3184H81.8171Z" fill="white"/>
<path fill-rule="evenodd" clip-rule="evenodd" d="M92.8012 62.3184V100H87.8438V62.3184H92.8012Z" fill="white"/>
<path fill-rule="evenodd" clip-rule="evenodd" d="M103.774 62.3184V100H98.8262V62.3184H103.774Z" fill="white"/>
<path fill-rule="evenodd" clip-rule="evenodd" d="M114.758 62.3184V100H109.801V62.3184H114.758Z" fill="white"/>
<path fill-rule="evenodd" clip-rule="evenodd" d="M125.743 62.3184V100H120.785V62.3184H125.743Z" fill="white"/>
<path fill-rule="evenodd" clip-rule="evenodd" d="M136.716 62.3184V100H131.768V62.3184H136.716Z" fill="white"/>
<path fill-rule="evenodd" clip-rule="evenodd" d="M147.702 62.3184V100H142.744V62.3184H147.702Z" fill="white"/>
<path fill-rule="evenodd" clip-rule="evenodd" d="M158.686 62.3184V100H153.729V62.3184H158.686Z" fill="white"/>
<path fill-rule="evenodd" clip-rule="evenodd" d="M169.661 62.3184V100H164.713V62.3184H169.661Z" fill="white"/>
<path fill-rule="evenodd" clip-rule="evenodd" d="M180.643 62.3184V100H175.686V62.3184H180.643Z" fill="white"/>
<path d="M83.4155 25.0891C83.0749 21.9103 79.6501 21.9955 77.2376 21.9955C75.9226 21.9955 73.1789 22.0428 72.1193 22.951C71.107 23.8214 71.107 26.092 71.107 27.3124C71.107 28.4855 71.1449 30.056 72.0342 30.9359C73.0938 31.986 76.0077 32.0712 77.3606 32.0712C78.2877 32.0712 79.177 32.0712 80.1137 31.9387C81.9774 31.6738 83.0749 31.1062 83.3682 29.0627H90.984C90.8989 31.3711 90.7759 33.5943 89.1203 35.3446C87.389 37.2178 84.721 37.6152 82.3086 37.7476C80.4921 37.8328 78.7135 37.8801 76.897 37.8801C73.6425 37.8801 68.9878 37.9652 66.1969 35.9595C63.4911 34.0012 63.6141 29.8952 63.6141 26.8867C63.6141 23.9255 63.5763 20.3872 65.9793 18.2963C68.5999 16.0258 74.0588 16.2055 77.2754 16.2055C80.4921 16.2055 86.0739 16.0731 88.7419 18.2963C89.4609 18.9113 89.9244 19.5168 90.3029 20.4345C90.9367 21.9576 90.984 23.443 91.0219 25.0986H83.4155V25.0891Z" fill="white"/>
<path d="M121.562 30.6711C121.392 32.6767 120.881 34.4648 119.367 35.8177C116.784 38.1261 110.701 37.8707 107.522 37.8707C104.22 37.8707 98.3831 38.1734 95.6774 35.8177C94.9205 35.1649 94.4475 34.4648 94.0691 33.5471C93.227 31.409 93.35 28.7032 93.35 26.4421C93.35 25.3068 93.35 24.1337 93.473 22.9984C93.6433 21.04 94.3623 19.2898 95.9234 18.0694C98.4588 16.0637 104.514 16.1961 107.513 16.1961C110.559 16.1961 116.519 16.0637 119.102 18.0694C119.821 18.637 120.285 19.2047 120.71 20.0277C121.808 22.0334 121.685 24.6067 121.685 26.83C121.685 28.0977 121.647 29.4033 121.562 30.6711ZM113.274 23.1214C112.177 22.0334 108.96 21.9861 107.56 21.9861C106.207 21.9861 104.807 22.0334 103.501 22.2889C100.881 22.8092 100.833 24.9095 100.833 27.2557C100.833 28.391 100.796 29.9142 101.59 30.7846C102.735 32.0523 106.027 32.0523 107.551 32.0523C108.989 32.0523 110.512 32.0523 111.903 31.6644C114.23 31.0117 114.183 28.8262 114.183 26.6976C114.202 25.5244 114.164 24.0012 113.274 23.1214Z" fill="white"/>
<path d="M160.851 37.3407V27.7002C160.851 23.2537 160.388 21.986 155.78 21.986C150.624 21.986 150.236 24.0768 150.236 28.8355V37.3407H142.753V27.7002V26.2622C142.753 22.5158 141.192 21.986 137.805 21.986C132.478 21.986 132.138 23.9443 132.138 28.8355V37.3407H124.654V16.7163H131.721V19.81H132.062C133.462 16.6312 137.18 16.1865 140.179 16.1865C143.983 16.1865 147.332 16.8393 149.271 20.5006C150.794 16.6596 154.342 16.1865 157.937 16.1865C160.851 16.1865 164.115 16.5366 166.225 18.845C166.944 19.6302 167.493 20.4628 167.786 21.5035C168.382 23.5091 168.335 25.6473 168.335 27.7002V37.3407H160.851Z" fill="white"/>
<path d="M207.748 37.3407V27.7002C207.748 23.2537 207.284 21.986 202.677 21.986C197.521 21.986 197.133 24.0768 197.133 28.8355V37.3407H189.649V27.7002V26.2622C189.649 22.5158 188.088 21.986 184.701 21.986C179.375 21.986 179.034 23.9443 179.034 28.8355V37.3407H171.551V16.7163H178.618V19.81H178.959C180.359 16.6312 184.077 16.1865 187.076 16.1865C190.879 16.1865 194.228 16.8393 196.168 20.5006C197.691 16.6596 201.239 16.1865 204.834 16.1865C207.748 16.1865 211.012 16.5366 213.121 18.845C213.84 19.6302 214.389 20.4628 214.682 21.5035C215.278 23.5091 215.231 25.6473 215.231 27.7002V37.3407H207.748Z" fill="white"/>
<path d="M246.234 30.6711C246.064 32.6767 245.553 34.4648 244.039 35.8177C241.456 38.1261 235.373 37.8707 232.194 37.8707C228.892 37.8707 223.055 38.1734 220.349 35.8177C219.592 35.1649 219.119 34.4648 218.741 33.5471C217.899 31.409 218.022 28.7032 218.022 26.4421C218.022 25.3068 218.022 24.1337 218.145 22.9984C218.315 21.04 219.034 19.2898 220.595 18.0694C223.131 16.0637 229.186 16.1961 232.185 16.1961C235.231 16.1961 241.191 16.0637 243.774 18.0694C244.493 18.637 244.957 19.2047 245.382 20.0277C246.48 22.0334 246.357 24.6067 246.357 26.83C246.357 28.0977 246.319 29.4033 246.234 30.6711ZM237.946 23.1214C236.849 22.0334 233.632 21.9861 232.232 21.9861C230.879 21.9861 229.479 22.0334 228.173 22.2889C225.553 22.8092 225.505 24.9095 225.505 27.2557C225.505 28.391 225.468 29.9142 226.262 30.7846C227.407 32.0523 230.699 32.0523 232.222 32.0523C233.661 32.0523 235.184 32.0523 236.574 31.6644C238.902 31.0117 238.854 28.8262 238.854 26.6976C238.873 25.5244 238.826 24.0012 237.946 23.1214Z" fill="white"/>
<path d="M270 37.3411V34.6353H269.621C269.111 35.5057 268.732 36.0734 267.89 36.5937C266.026 37.7668 262.895 37.8614 260.785 37.8614C257.701 37.8614 253.51 37.9087 251.059 35.6855C248.865 33.6798 248.902 29.7157 248.902 26.9248C248.902 23.6987 248.988 19.7725 251.864 17.7668C254.399 16.0261 257.956 16.1963 260.87 16.1963C263.065 16.1963 265.478 16.149 267.427 17.3316C268.401 17.8993 268.742 18.4669 269.29 19.4698H269.584V8.25879H277.067V37.3411H270ZM269.234 23.9068C268.344 21.816 265.128 21.9863 263.311 21.9863C261.447 21.9863 257.682 21.7687 256.755 23.9447C256.414 24.8151 256.376 25.9504 256.376 26.8681C256.376 28.0885 256.339 29.9617 257.218 30.9267C258.231 32.062 261.495 32.062 262.848 32.062C264.371 32.062 266.234 31.9769 267.673 31.4944C269.707 30.8416 269.659 28.8359 269.659 26.9627C269.659 26.0071 269.621 24.8245 269.234 23.9068Z" fill="white"/>
<path d="M308.232 30.6711C308.062 32.6767 307.551 34.4648 306.037 35.8177C303.454 38.1261 297.371 37.8707 294.192 37.8707C290.89 37.8707 285.053 38.1734 282.347 35.8177C281.59 35.1649 281.117 34.4648 280.739 33.5471C279.897 31.409 280.02 28.7032 280.02 26.4421C280.02 25.3068 280.02 24.1337 280.143 22.9984C280.313 21.04 281.032 19.2898 282.593 18.0694C285.129 16.0637 291.184 16.1961 294.183 16.1961C297.229 16.1961 303.189 16.0637 305.772 18.0694C306.491 18.637 306.955 19.2047 307.38 20.0277C308.478 22.0334 308.355 24.6067 308.355 26.83C308.355 28.0977 308.317 29.4033 308.232 30.6711ZM299.944 23.1214C298.847 22.0334 295.63 21.9861 294.23 21.9861C292.877 21.9861 291.477 22.0334 290.171 22.2889C287.551 22.8092 287.503 24.9095 287.503 27.2557C287.503 28.391 287.466 29.9142 288.26 30.7846C289.405 32.0523 292.697 32.0523 294.221 32.0523C295.659 32.0523 297.182 32.0523 298.572 31.6644C300.9 31.0117 300.852 28.8262 300.852 26.6976C300.871 25.5244 300.834 24.0012 299.944 23.1214Z" fill="white"/>
<path d="M334.493 25.8743H327.473C327.473 22.8185 326.499 21.9954 323.538 21.9954C318.93 21.9954 318.798 25.0039 318.798 28.7977V37.3407H311.314V16.7163H318.382V19.81H318.722C320.454 16.6312 323.244 16.1865 326.508 16.1865C328.836 16.1865 331.627 16.4893 333.188 18.4949C334.588 20.283 334.541 22.8563 334.541 25.0323C334.531 25.3067 334.493 25.6094 334.493 25.8743Z" fill="white"/>
<path d="M363.254 28.703H343.708C343.708 29.8761 343.67 31.229 344.635 32.0615C345.648 32.8941 348.486 32.9319 349.706 32.9319C350.927 32.9319 354.361 32.9792 355.165 32.0615C355.506 31.7115 355.591 31.229 355.676 30.7559H363.122C362.951 32.7143 362.573 34.2469 361.135 35.5998C358.552 38.0029 352.384 37.8704 349.12 37.8704C346.158 37.8704 341.211 37.9177 338.76 35.9499C338.003 35.3349 337.492 34.6443 337.067 33.7739C336.14 31.7682 336.225 29.2801 336.225 27.1419C336.225 25.8364 336.225 24.5213 336.348 23.263C336.556 21.1722 337.237 19.299 338.93 18.0312C341.551 16.0729 346.802 16.1959 349.886 16.1959C352.724 16.1959 355.808 16.1107 358.552 16.9338C362.989 18.2867 363.292 22.4683 363.292 26.6121C363.292 27.3122 363.292 28.0123 363.254 28.703ZM355.761 24.001C355.761 23.2157 355.723 22.6102 355.165 21.9953C354.276 20.9925 351.229 20.9925 350.009 20.9925C348.864 20.9925 347.729 20.9925 346.622 21.1627C344.503 21.4655 343.746 22.298 343.708 24.474H355.761V24.001Z" fill="white"/>
<path d="M217.995 84.9957C217.787 86.9162 217.238 88.7894 215.753 90.0572C213.596 91.9304 208.941 91.9304 206.282 91.9304C203.028 91.9304 199.641 91.9777 197.777 88.7516H197.437V100H189.953V70.7857H197.02V73.5766H197.399C199.13 70.1329 203.274 70.2653 206.576 70.2653C210.511 70.2653 215.961 70.2653 217.531 74.8443C218.165 76.7175 218.165 79.253 218.165 81.2114C218.165 82.4697 218.127 83.7374 217.995 84.9957ZM210.01 77.4082C208.95 76.0175 205.819 76.0553 204.296 76.0553C202.432 76.0553 198.752 75.7904 197.862 77.9758C197.437 78.9314 197.437 80.2842 197.437 81.3344C197.437 82.4697 197.474 83.7374 198.118 84.6929C199.092 86.131 202.602 86.131 204.078 86.131C205.516 86.131 207.162 86.0837 208.562 85.6958C210.842 85.043 210.682 82.7346 210.682 80.6816C210.682 79.5463 210.729 78.3732 210.01 77.4082Z" fill="white"/>
<path d="M222.225 91.4104V62.3281H229.708V91.4104H222.225Z" fill="white"/>
<path d="M254.116 91.4105V88.3169H253.737C252.176 91.7606 248.363 91.9403 245.147 91.9403C241.126 91.9403 236.348 91.3727 234.74 86.9261C233.983 84.788 234.059 82.4796 234.059 80.209V70.7861H241.504V80.209C241.504 85.2705 242.432 86.1409 247.379 86.1409C253.132 86.1409 253.68 84.6177 253.68 79.0737V70.7861H261.126V91.4105H254.116Z" fill="white"/>
<path d="M291.164 89.6689C288.837 92.0719 281.524 91.9395 278.515 91.9395C275.261 91.9395 269.509 92.2044 266.888 89.8014C265.45 88.4958 265.157 86.7456 265.109 84.8345H272.725C272.896 86.7077 274.759 86.9253 276.197 87.0578C277.125 87.1429 278.061 87.1429 278.988 87.1429C280.303 87.1429 283.851 87.2281 284.863 86.2725C285.157 86.0076 285.289 85.6197 285.289 85.2224C285.289 83.5194 282.962 83.6046 281.817 83.6046C280.417 83.6046 279.026 83.5573 277.626 83.5573C276.188 83.5573 274.75 83.5573 273.312 83.5573C268.827 83.5573 265.28 82.4693 265.28 77.1429C265.28 73.8695 266.547 71.6935 269.717 70.9083C272.631 70.2082 276.103 70.2555 279.064 70.2555C282.195 70.2555 287.654 70.0379 290.105 72.1287C291.42 73.264 291.581 74.9669 291.713 76.6226H284.097C284.012 76.1874 283.927 75.8846 283.548 75.6197C282.744 75.0521 279.745 75.0521 278.809 75.0521C277.579 75.0521 274.286 75.0048 273.227 75.7522C272.933 76.0171 272.763 76.3198 272.763 76.7077C272.763 77.843 273.652 78.0133 274.542 78.0984C276.443 78.2687 278.648 78.2309 280.549 78.2309L284.74 78.2782C289.433 78.3255 292.735 79.2337 292.735 84.7304C292.725 86.4806 292.432 88.3539 291.164 89.6689Z" fill="white"/>
<path d="M297.589 97.6921H292.215L315.517 56.0459H320.928L297.589 97.6921Z" fill="white"/>
<path d="M12.2611 26.9063C12.2611 19.0445 18.4674 12.6395 26.0927 12.6395C28.543 12.6395 30.842 13.3018 32.8382 14.456V0.917692C30.6906 0.321665 28.4295 0 26.0927 0C11.684 0 0 12.0435 0 26.9063C0 41.7692 11.684 53.8127 26.0927 53.8127C28.4295 53.8127 30.6906 53.491 32.8382 52.895V39.3567C30.842 40.5109 28.543 41.1731 26.0927 41.1731C18.4674 41.1731 12.2611 34.7682 12.2611 26.9063Z" fill="white"/>
<path d="M32.8379 25.9229H45.1463L55.5815 15.166H32.8379V25.9229Z" fill="white"/>
<path d="M32.8379 27.8906V38.6475H55.5815L45.1463 27.8906H32.8379Z" fill="white"/>
<path d="M356.225 92.9995V100H345.657V92.9995H316.527V78.6002L338.211 62.3467H356.225V84.5321H363.292V92.9995H356.225ZM345.657 71.0979H343.415L326.442 83.0657V84.5321H345.666L345.657 71.0979Z" fill="white"/>
</g>
<defs>
<clipPath id="clip0_4_5940">
<rect width="363.292" height="100" fill="white"/>
</clipPath>
</defs>
</svg>
