<svg width="734" height="100" viewBox="0 0 734 100" fill="none" xmlns="http://www.w3.org/2000/svg">
<g clip-path="url(#clip0_4_6002)">
<path d="M94.1624 33.5044C88.493 33.4961 65.793 35.3155 65.793 66.5489C65.793 102.235 95.4152 99.9322 95.4152 99.9322C95.4152 99.9322 124.354 99.6294 124.354 66.5489C124.354 33.4655 95.7402 33.5322 95.4152 33.5044C95.4152 33.5044 94.9707 33.51 94.1624 33.5044ZM95.4152 50.4294C95.4152 50.4294 106.012 48.7016 106.012 66.5489C106.012 83.0739 95.4152 81.285 95.4152 81.285C95.4152 81.285 84.3652 81.4072 84.3652 66.5489C84.3652 48.6378 95.4152 50.6378 95.4152 50.4294Z" fill="white"/>
<path d="M135.68 7.44092H154.232V57.9826L168.591 33.5159H188.413L168.591 62.8159L188.413 99.9798H168.591L154.232 69.0465V99.9798H135.68V7.44092Z" fill="white"/>
<path d="M199.762 16.4444L206.773 26.4611L233.439 10.3389L225.22 0L200.081 16.2833L199.762 16.4444Z" fill="white"/>
<path d="M256.385 99.9815H272.79V61.7815C272.79 61.7815 273.474 51.737 281.904 51.737C290.335 51.737 290.335 61.7815 290.335 61.7815V99.9815H305.829V61.7815C305.829 61.7815 306.174 51.737 314.607 51.737C323.035 51.737 323.035 61.7815 323.035 61.7815V99.9815H339.099V51.737C339.099 51.737 340.24 33.5176 323.035 33.5176C305.829 33.5176 305.829 44.3565 305.829 44.3565C305.829 44.3565 307.882 33.5176 290.335 33.5176C272.79 33.5176 272.79 44.3565 272.79 44.3565C272.79 44.3565 275.296 33.5176 265.84 33.5176C256.385 33.5176 256.385 33.5176 256.385 33.5176V99.9815Z" fill="white"/>
<path d="M378.253 33.545C372.584 33.5339 349.887 35.3561 349.887 66.5811C349.887 102.273 379.509 99.97 379.509 99.97C379.509 99.97 408.451 99.6644 408.451 66.5811C408.451 33.5033 379.834 33.5644 379.509 33.545C379.509 33.545 379.065 33.545 378.253 33.545ZM379.509 50.4644C379.509 50.4644 390.103 48.7394 390.103 66.5811C390.103 83.1116 379.509 81.32 379.509 81.32C379.509 81.32 368.459 81.4477 368.459 66.5811C368.459 48.6783 379.509 50.6755 379.509 50.4644Z" fill="white"/>
<path d="M418.729 99.9815H436.615V61.7815C436.615 61.7815 436.159 51.737 446.073 51.737C455.987 51.737 455.987 61.7815 455.987 61.7815V99.9815H472.617V51.737C472.617 51.737 472.731 33.5176 455.987 33.5176C439.237 33.5176 436.615 44.3565 436.615 44.3565C436.615 44.3565 438.212 33.5176 431.601 33.5176C424.995 33.5176 418.729 33.5176 418.729 33.5176V99.9815Z" fill="white"/>
<path d="M513.917 33.5166H590.692C590.692 33.5166 598.103 33.2305 598.103 40.5972C598.103 47.9666 598.103 96.1416 598.103 96.1416C598.103 96.1416 598.267 99.9805 594.559 99.9805C590.856 99.9805 583.445 99.9805 583.445 99.9805C583.445 99.9805 579.737 99.8889 579.737 96.1416C579.737 92.4 579.737 61.7805 579.737 61.7805C579.737 61.7805 579.415 57.3944 576.192 57.3944C572.97 57.3944 565.076 57.3944 565.076 57.3944C565.076 57.3944 561.367 56.9611 561.367 61.7805C561.367 66.6 561.367 96.1416 561.367 96.1416C561.367 96.1416 560.884 99.9805 557.665 99.9805C554.44 99.9805 547.19 99.9805 547.19 99.9805C547.19 99.9805 543.159 100.214 543.159 96.1416C543.159 92.0722 543.159 61.7805 543.159 61.7805C543.159 61.7805 544.287 57.3944 539.292 57.3944C534.298 57.3944 528.82 57.3944 528.82 57.3944C528.82 57.3944 525.112 56.9611 525.112 61.7805C525.112 66.6 525.112 96.1416 525.112 96.1416C525.112 96.1416 525.112 99.9805 521.409 99.9805C517.701 99.9805 510.292 99.9805 510.292 99.9805C510.292 99.9805 506.906 99.7222 506.906 96.1416C506.906 92.5611 506.906 40.5972 506.906 40.5972C506.906 40.5972 507.07 34.0527 513.917 33.5166Z" fill="white"/>
<path d="M627.089 66.6004C627.089 66.6004 630.656 66.3282 630.656 70.156C630.656 73.981 630.656 96.1421 630.656 96.1421C630.656 96.1421 630.278 99.981 627.206 99.981C624.128 99.981 619.684 99.981 619.684 99.981C619.684 99.981 615.992 99.881 615.992 96.1421C615.992 92.4032 615.992 70.156 615.992 70.156C615.992 70.156 616.151 66.6004 619.798 66.6004C623.442 66.6004 626.864 66.731 627.089 66.6004Z" fill="white"/>
<path d="M619.798 55.4392C619.798 55.4392 615.992 55.5086 615.992 51.7364C615.992 47.967 615.992 40.5975 615.992 40.5975C615.992 40.5975 615.984 36.9142 619.856 36.9142C623.728 36.9142 627.148 36.9142 627.148 36.9142C627.148 36.9142 630.656 36.8392 630.656 40.5975C630.656 44.3558 630.656 51.7364 630.656 51.7364C630.656 51.7364 631.02 55.4392 627.206 55.4392C623.389 55.4392 619.914 55.3892 619.798 55.4392Z" fill="white"/>
<path d="M648.85 96.1418C648.85 96.1418 648.964 99.9807 652.611 99.9807C656.255 99.9807 663.322 99.9807 663.322 99.9807C663.322 99.9807 667.08 99.7668 667.08 96.1418C667.08 92.5196 667.08 61.7807 667.08 61.7807C667.08 61.7807 667.194 57.3946 670.727 57.3946C674.258 57.3946 681.664 57.3946 681.664 57.3946C681.664 57.3946 685.422 56.9613 685.422 61.7807C685.422 66.6002 685.422 96.1418 685.422 96.1418C685.422 96.1418 685.197 99.9807 689.069 99.9807C692.944 99.9807 696.477 99.9807 696.477 99.9807C696.477 99.9807 699.894 99.7668 699.894 96.1418C699.894 92.5196 699.894 44.3557 699.894 44.3557C699.894 44.3557 699.78 36.9141 692.602 36.9141C685.422 36.9141 656.255 36.9141 656.255 36.9141C656.255 36.9141 648.85 36.978 648.85 44.3557C648.85 51.7363 649.194 96.5474 648.85 96.1418Z" fill="white"/>
<path d="M729.761 66.6004C729.761 66.6004 733.325 66.3282 733.325 70.156C733.325 73.981 733.325 96.1421 733.325 96.1421C733.325 96.1421 732.953 99.981 729.875 99.981C726.797 99.981 722.356 99.981 722.356 99.981C722.356 99.981 718.664 99.881 718.664 96.1421C718.664 92.4032 718.664 70.156 718.664 70.156C718.664 70.156 718.825 66.6004 722.47 66.6004C726.117 66.6004 729.533 66.731 729.761 66.6004Z" fill="white"/>
<path d="M722.47 55.4392C722.47 55.4392 718.664 55.5086 718.664 51.7364C718.664 47.967 718.664 40.5975 718.664 40.5975C718.664 40.5975 718.656 36.9142 722.528 36.9142C726.4 36.9142 729.82 36.9142 729.82 36.9142C729.82 36.9142 733.325 36.8392 733.325 40.5975C733.325 44.3558 733.325 51.7364 733.325 51.7364C733.325 51.7364 733.692 55.4392 729.875 55.4392C726.059 55.4392 722.583 55.3892 722.47 55.4392Z" fill="white"/>
<path d="M218.379 33.5044C196.496 33.5044 191.49 50.3877 191.49 66.5488C191.49 82.7099 201.171 99.9322 219.86 99.9322C238.551 99.9322 240.254 96.135 240.254 96.135V84.9655C240.124 84.9266 224.951 84.9655 216.899 84.9655C208.84 84.9655 210.401 74.0294 210.401 74.0294H245.154V61.8266C245.154 61.8266 245.162 33.5044 218.379 33.5044ZM219.632 48.0127C228.876 48.0127 228.974 51.6961 228.974 51.6961V61.8266H210.401V51.6961C210.401 51.6961 210.387 48.0127 219.632 48.0127Z" fill="white"/>
<path d="M0 12.5542V99.932H20.5083V69.0764H36.4583C36.4583 69.0764 57.0806 67.3514 57.0806 50.4292V33.5042C57.0806 33.5042 56.9528 12.5542 36.4583 12.5542C16.1694 12.5542 0.0888889 12.8459 0 12.5542ZM20.5083 29.4764C20.5389 29.482 28.1917 29.4764 31.4472 29.4764C37.0611 31.1542 36.4583 36.9625 36.4583 36.9625V44.3292C36.4583 50.4542 31.4472 51.6959 31.4472 51.6959H20.5083V29.4764Z" fill="white"/>
</g>
<defs>
<clipPath id="clip0_4_6002">
<rect width="733.333" height="100" fill="white"/>
</clipPath>
</defs>
</svg>
