<svg width="378" height="100" viewBox="0 0 378 100" fill="none" xmlns="http://www.w3.org/2000/svg">
<g clip-path="url(#clip0_4_6017)">
<path d="M53.0847 50.4116C58.6155 43.968 66.8297 39.8809 76.0056 39.8809C77.8461 39.8809 79.6469 40.0557 81.3968 40.3676C82.5773 37.1524 83.2203 33.6797 83.2203 30.0549C83.2203 13.4565 69.713 0 53.0565 0C36.3962 0 22.8926 13.4565 22.8926 30.0568C22.8926 33.6854 23.5413 37.1618 24.7236 40.3789C26.4886 40.0594 28.3046 39.8809 30.1639 39.8809C39.3398 39.8828 47.5521 43.9699 53.0847 50.4116ZM81.3968 40.3695C77.7763 50.2462 69.1058 57.6932 58.5024 59.6231C59.681 62.8402 60.3278 66.3185 60.3278 69.9396C60.3278 77.3978 57.5973 84.2153 53.0847 89.4675C58.6174 95.9111 66.8297 100 76.0056 100C92.6659 100 106.169 86.5417 106.169 69.9396C106.169 55.1733 95.4831 42.9044 81.3968 40.3695ZM47.6671 59.6287C37.0411 57.7177 28.3517 50.2631 24.7236 40.3808C10.6637 42.9326 0 55.1921 0 69.9396C0 86.5417 13.5055 100 30.1639 100C39.3398 100 47.5521 95.9111 53.0847 89.4694C48.5741 84.2153 45.8436 77.3978 45.8436 69.9414C45.8436 66.3185 46.4885 62.8439 47.6671 59.6287ZM47.6671 59.6287C49.417 59.9444 51.216 60.1136 53.0565 60.1136C54.9177 60.1136 56.7355 59.9426 58.5024 59.6212C57.2559 56.2181 55.4023 53.1119 53.0847 50.4097C50.7653 53.1119 48.9135 56.2275 47.6671 59.6287Z" fill="white"/>
<path d="M168.436 37.0735C168.436 42.9759 166.423 47.5009 162.401 50.6484C158.377 53.7941 152.679 55.3669 145.302 55.3669H135.832V80.5906H131.557V19.5337H146.559C161.143 19.5337 168.436 25.3797 168.436 37.0735ZM135.832 51.6913H144.255C151.155 51.6913 156.143 50.5563 159.216 48.2863C162.288 46.0182 163.825 42.3351 163.825 37.2408C163.825 32.5354 162.373 29.0496 159.467 26.7796C156.561 24.5115 152.064 23.3765 145.973 23.3765H135.832V51.6913Z" fill="white"/>
<path d="M233.268 49.9792C233.268 59.6681 230.84 67.3312 225.976 72.9686C221.113 78.6097 214.409 81.4285 205.862 81.4285C197.338 81.4285 190.648 78.6097 185.786 72.9686C180.925 67.3312 178.494 59.6418 178.494 49.8947C178.494 40.1795 180.946 32.5296 185.848 26.9467C190.753 21.3638 197.451 18.5732 205.944 18.5732C214.496 18.5732 221.185 21.3788 226.02 26.988C230.851 32.5991 233.268 40.2622 233.268 49.9792ZM183.146 49.9792C183.146 58.721 185.102 65.4784 189.013 70.2551C192.924 75.03 198.541 77.4184 205.862 77.4184C213.237 77.4184 218.875 75.0525 222.771 70.3171C226.667 65.5836 228.616 58.8074 228.616 49.9792C228.616 41.1811 226.667 34.4369 222.771 29.7466C218.875 25.0544 213.265 22.7092 205.944 22.7092C198.652 22.7092 193.029 25.0751 189.077 29.8086C185.122 34.5403 183.146 41.2657 183.146 49.9792Z" fill="white"/>
<path d="M251.626 53.9876V80.5906H247.35V19.5337H261.934C269.535 19.5337 275.151 20.9318 278.784 23.7298C282.416 26.5278 284.232 30.7409 284.232 36.3632C284.232 40.4579 283.15 43.9098 280.985 46.721C278.818 49.5341 275.532 51.5523 271.115 52.7775L287.753 80.5924H282.641L266.838 53.9876H251.626ZM251.626 50.3121H263.318C268.487 50.3121 272.496 49.1658 275.347 46.8676C278.196 44.5713 279.624 41.1832 279.624 36.6977C279.624 32.0487 278.224 28.6682 275.432 26.5504C272.637 24.4345 268.081 23.3765 261.766 23.3765H251.626V50.3121Z" fill="white"/>
<path d="M314.32 80.5906H310.005V23.5438H290.096V19.5337H334.227V23.5438H314.32V80.5906Z" fill="white"/>
<path d="M377.143 64.845C377.143 69.9431 375.263 73.9795 371.505 76.9579C367.747 79.9363 362.753 81.4265 356.523 81.4265C349.035 81.4265 343.293 80.6034 339.297 78.9592V74.6992C343.713 76.5652 349.34 77.4991 356.185 77.4991C361.216 77.4991 365.205 76.3509 368.152 74.0565C371.099 71.7565 372.572 68.7423 372.572 65.0122C372.572 62.7028 372.084 60.7879 371.103 59.2696C370.126 57.7531 368.535 56.3682 366.329 55.1148C364.119 53.8614 360.881 52.5103 356.604 51.0634C350.347 48.9212 346.023 46.6023 343.634 44.1125C341.243 41.6189 340.049 38.2984 340.049 34.1512C340.049 29.5849 341.844 25.8623 345.437 22.9797C349.027 20.0971 353.642 18.6577 359.285 18.6577C365.041 18.6577 370.447 19.7439 375.504 21.9143L373.954 25.5898C368.869 23.4739 364.007 22.4141 359.37 22.4141C354.845 22.4141 351.241 23.4589 348.56 25.5485C345.874 27.6362 344.535 30.4775 344.535 34.0685C344.535 36.3235 344.945 38.1763 345.769 39.6232C346.591 41.072 347.943 42.3724 349.812 43.53C351.684 44.6837 354.897 46.0705 359.451 47.6847C364.228 49.329 367.818 50.9206 370.221 52.4671C372.619 54.0118 374.375 55.7669 375.478 57.7287C376.591 59.6886 377.143 62.062 377.143 64.845Z" fill="white"/>
</g>
<defs>
<clipPath id="clip0_4_6017">
<rect width="377.143" height="100" fill="white"/>
</clipPath>
</defs>
</svg>
