<svg width="472" height="100" viewBox="0 0 472 100" fill="none" xmlns="http://www.w3.org/2000/svg">
<g clip-path="url(#clip0_4_6029)">
<path d="M301.776 0H239.937C220.864 0 211.517 11.7089 211.517 26.9125V73.1018C211.517 82.5357 207.034 89.3089 197.567 89.3089H143.48C143.1 89.3089 142.787 89.6214 142.787 89.9786V99.3C142.787 99.6804 143.1 100 143.48 100H204.701C223.767 100 233.137 88.3429 233.137 73.1321V26.9125C233.137 17.4714 237.587 10.6821 247.107 10.6821H301.776C302.205 10.6821 302.542 10.3786 302.542 9.99821V0.691071C302.542 0.326786 302.205 0 301.776 0Z" fill="white"/>
<path d="M119.745 0H0.746429C0.314286 0 0 0.326786 0 0.691071V9.99821C0 10.3786 0.314286 10.6982 0.746429 10.6982H112.587C122.043 10.6982 126.53 17.4714 126.53 26.9125C126.53 36.3179 122.043 43.0768 112.587 43.0768H24.1107C10.3696 43.0768 0 54.5429 0 69.7536V99.2768C0 99.6804 0.314286 100 0.748214 100H20.9089C21.3036 100 21.6339 99.6804 21.6339 99.2768V69.7536C21.6339 60.3714 27.0589 53.7518 34.9321 53.7518H119.745C138.78 53.7518 148.113 42.1304 148.113 26.9196C148.113 11.7321 138.78 0 119.745 0Z" fill="white"/>
<path d="M462.566 48.7518C462.3 48.4554 462.3 47.9464 462.566 47.6571C468.494 42.7786 471.428 35.4268 471.428 26.9196C471.428 11.7321 462.114 0 443.023 0H324.055C323.65 0 323.352 0.326786 323.352 0.723214V9.99821C323.352 10.3786 323.65 10.6982 324.055 10.6982H435.878C445.305 10.6982 449.855 17.4714 449.855 26.9125C449.855 36.3179 445.335 43.0768 435.878 43.0768H435.739L324.055 43.1C323.65 43.1 323.352 43.3893 323.352 43.8125V53.0804C323.352 53.4536 323.65 53.7518 324.055 53.7518H435.878C448.209 53.8946 449.832 65.8268 449.832 71.9304L449.855 73.0786C449.855 82.5357 445.305 89.3393 435.878 89.3393H324.055C323.65 89.3393 323.352 89.6286 323.352 90.0071V99.3C323.352 99.6804 323.65 100 324.055 100H443.023C462.132 100 471.428 87.3982 471.428 73.0786V71.9304C471.428 62.7982 468.494 54.0786 462.566 48.7518Z" fill="white"/>
</g>
<defs>
<clipPath id="clip0_4_6029">
<rect width="471.429" height="100" fill="white"/>
</clipPath>
</defs>
</svg>
