<svg width="468" height="100" viewBox="0 0 468 100" fill="none" xmlns="http://www.w3.org/2000/svg">
<g clip-path="url(#clip0_4_6033)">
<path d="M312.055 0H246.684C227.73 0 218.442 11.6894 218.442 26.9015V73.1229C218.442 82.5329 213.981 89.3101 204.546 89.3101H143.113C142.723 89.3101 142.418 89.627 142.418 90.0171V99.3052C142.418 99.6953 142.735 100 143.125 100H211.665C230.631 100 239.919 88.3471 239.919 73.1351V26.8893C239.919 17.4671 244.38 10.6777 253.803 10.6777H312.067C312.457 10.6777 312.762 10.3608 312.762 9.98294V0.706972C312.749 0.316919 312.433 0 312.055 0Z" fill="white"/>
<path d="M118.954 0.0244141H0.706972C0.316919 0.0244141 0 0.329143 0 0.719197V9.99516C0 10.3852 0.316919 10.6899 0.706972 10.6899H111.848C121.258 10.6899 125.731 17.4793 125.731 26.8894C125.731 36.2994 121.282 43.0888 111.86 43.0888H23.9274C10.2877 43.0888 0 54.5588 0 69.7709V99.2931C0 99.6953 0.316919 100 0.706972 100H20.746C21.136 100 21.4529 99.6831 21.4529 99.2931V69.7709C21.4529 60.3486 26.8893 53.7787 34.6782 53.7787H118.954C137.921 53.7787 147.196 42.1258 147.196 26.9137C147.196 11.7138 137.921 0.0244141 118.954 0.0244141Z" fill="white"/>
<path d="M467.212 78.6325L446.441 78.6203H447.173C446.783 78.6203 446.441 78.2912 446.441 77.9134V10.6413C446.441 0.304882 439.286 -3.08371 429.242 3.13277L308.74 77.1454C303.999 80.0465 302.414 83.3254 303.56 85.751C304.547 87.8597 307.144 89.298 312.361 89.298L424.294 89.3102C424.611 89.3346 424.854 89.554 424.928 89.8466V99.281C424.928 99.6832 425.244 100 425.634 100H445.759C446.137 100 446.466 99.6832 446.466 99.281V90.0416C446.466 89.6515 446.795 89.3102 447.173 89.3102H467.212C467.614 89.3102 467.943 88.9933 467.943 88.6033V79.3273C467.943 78.9616 467.614 78.6325 467.212 78.6325ZM424.952 77.889C424.952 78.2912 424.635 78.6203 424.245 78.6203H330.425C329.669 78.6203 329.267 78.4253 329.157 78.145C329.047 77.7061 329.303 77.3892 329.84 77.0114L423.221 19.5028C423.867 19.1128 424.952 19.1737 424.952 20.4536V77.889Z" fill="white"/>
</g>
<defs>
<clipPath id="clip0_4_6033">
<rect width="467.942" height="100" fill="white"/>
</clipPath>
</defs>
</svg>
