<svg width="307" height="100" viewBox="0 0 307 100" fill="none" xmlns="http://www.w3.org/2000/svg">
<g clip-path="url(#clip0_4_6038)">
<path d="M55.9043 86.95C58.7914 86.95 60.5227 86.3633 60.5227 83.6246C60.5227 81.5965 59.2641 80.5121 56.377 80.5121H52.3878V86.95H55.9043ZM50.8652 95.4098V79.207H56.7976C60.9955 79.207 62.099 81.3025 62.099 83.7333C62.099 87.3528 58.8436 88.2535 55.8521 88.2535H52.3878V95.4098H50.8652Z" fill="white"/>
<path d="M64.1465 95.4098H65.4588V79.207H64.1465V95.4098Z" fill="white"/>
<path d="M76.481 89.2858C75.3268 89.7576 74.1188 89.851 72.9646 89.9414C70.9171 90.0977 69.6585 90.8421 69.6585 92.4137C69.6585 93.8382 70.9186 94.5091 72.1787 94.5091C74.3307 94.5091 76.4826 93.4721 76.4826 91.1086L76.481 89.2858ZM74.1726 88.6149C74.696 88.5674 75.5371 88.4326 75.9561 88.2274C76.4288 88.0283 76.481 87.4202 76.481 87.0173C76.481 85.6449 75.6414 84.6554 73.5417 84.6554C71.7045 84.6554 70.3937 85.2619 70.1297 87.2854H68.7652C68.9754 84.539 71.0214 83.4346 73.5939 83.4346C75.9561 83.4346 77.7933 84.3613 77.7933 87.0587V93.4032C77.7933 94.4616 78.108 94.7082 79.2116 94.3038V95.3623C79.0535 95.4312 78.5807 95.5874 78.1617 95.5874C77.9514 95.5874 77.7933 95.5675 77.5846 95.52C76.6391 95.3898 76.481 94.5979 76.481 93.7846C75.379 95.0483 73.8042 95.7238 72.125 95.7238C70.0775 95.7238 68.2402 94.6178 68.2402 92.3723C68.2402 90.4178 69.6047 89.223 72.3338 88.8615L74.1726 88.6149Z" fill="white"/>
<path d="M81.1538 98.5791C81.5207 98.6465 81.8875 98.72 82.2559 98.72C83.8306 98.72 84.0409 96.5112 84.5659 95.4988L79.998 83.7549H81.5207L85.3011 93.771L89.0278 83.7549H90.4967L86.1406 95.2522C85.0371 98.1747 84.3034 99.999 82.4124 99.999C81.9412 99.999 81.5207 99.9316 81.1538 99.8428V98.5791Z" fill="white"/>
<path d="M93.6984 90.569C93.9624 93.4717 95.8518 94.5286 98.3706 94.5286C101.258 94.5286 102.466 92.9585 102.466 91.1771C102.466 86.1576 92.5963 89.4907 92.5963 83.1263C92.5963 80.8731 94.4336 78.7822 98.1081 78.7822C101.73 78.7822 103.568 80.9818 103.516 83.6241H102.097C102.097 81.1457 100.156 80.0873 98.1081 80.0873C94.9585 80.0873 93.8565 81.9989 94.1189 83.6654C94.8004 87.8456 104.04 84.8326 104.04 91.1082C104.04 94.0844 101.835 95.8351 98.1081 95.8351C94.6961 95.8351 92.1758 94.0844 92.1758 90.569H93.6984Z" fill="white"/>
<path d="M111.075 95.4523C110.76 95.5197 110.183 95.725 109.5 95.725C108.187 95.725 107.452 95.1383 107.452 93.4044V84.8757H105.771V83.7544H107.452V80.5117H108.817V83.7544H110.97V84.8757H108.817V92.8652C108.817 94.0171 108.817 94.5088 109.971 94.5088C110.339 94.5088 110.706 94.4414 111.075 94.3526V95.4523Z" fill="white"/>
<path d="M121.206 89.2858C120.051 89.7576 118.897 89.851 117.741 89.9414C115.694 90.0977 114.434 90.8421 114.434 92.4137C114.434 93.8382 115.694 94.5091 116.956 94.5091C119.106 94.5091 121.206 93.4721 121.206 91.1086V89.2858ZM118.948 88.6149C119.421 88.5674 120.262 88.4326 120.734 88.2274C121.153 88.0283 121.206 87.4202 121.206 87.0173C121.206 85.6449 120.418 84.6554 118.319 84.6554C116.429 84.6554 115.169 85.2619 114.906 87.2854H113.542C113.752 84.539 115.798 83.4346 118.319 83.4346C120.681 83.4346 122.57 84.3613 122.57 87.0587V93.4032C122.57 94.4616 122.834 94.7082 123.988 94.3038V95.3623C123.778 95.4312 123.305 95.5874 122.939 95.5874C122.728 95.5874 122.519 95.5675 122.308 95.52C121.416 95.3898 121.258 94.5979 121.258 93.7846C120.104 95.0483 118.583 95.7238 116.902 95.7238C114.854 95.7238 112.965 94.6178 112.965 92.3723C112.965 90.4178 114.329 89.223 117.06 88.8615L118.948 88.6149Z" fill="white"/>
<path d="M130.55 95.4523C130.235 95.5197 129.657 95.725 128.975 95.725C127.663 95.725 126.928 95.1383 126.928 93.4044V84.8757H125.301V83.7544H126.928V80.5117H128.294V83.7544H130.446V84.8757H128.294V92.8652C128.294 94.0171 128.294 94.5088 129.448 94.5088C129.815 94.5088 130.183 94.4414 130.55 94.3526V95.4523Z" fill="white"/>
<path d="M134.592 95.4098H133.278V83.7548H134.592V95.4098ZM133.174 81.2075V79.207H134.696V81.2075H133.174Z" fill="white"/>
<path d="M142.571 84.6554C139.737 84.6554 138.634 87.0587 138.634 89.5784C138.634 92.4811 139.999 94.5091 142.571 94.5091C145.405 94.5091 146.561 92.0782 146.561 89.5784C146.561 86.8335 145.459 84.6554 142.571 84.6554ZM137.164 89.5784C137.164 86.1841 139.001 83.4346 142.571 83.4346C146.244 83.4346 148.03 86.158 148.03 89.5784C148.03 93.273 145.878 95.7238 142.571 95.7238C139.632 95.6778 137.164 93.6544 137.164 89.5784Z" fill="white"/>
<path d="M151.284 95.4097H149.92V83.7547H151.284V85.3722C152.334 84.2265 153.436 83.4346 155.011 83.4346C156.48 83.4346 157.742 83.8849 158.581 85.1011C159.157 85.939 159.211 86.8136 159.211 87.7771V95.4097H157.845V87.8031C157.845 85.7138 156.953 84.6554 154.801 84.6554C153.12 84.6554 151.966 85.7337 151.545 86.9223C151.283 87.6668 151.283 88.3224 151.283 89.1342V95.4097" fill="white"/>
<path d="M164.512 91.6232C164.354 91.5497 164.145 91.513 163.831 91.513H163.41V92.5913H163.883C164.093 92.5913 164.302 92.5714 164.408 92.53C164.617 92.4458 164.722 92.2896 164.722 92.0583C164.722 91.8423 164.617 91.6952 164.512 91.6232ZM163.935 91.1453C164.303 91.1453 164.566 91.1775 164.775 91.2495C165.089 91.3812 165.195 91.6324 165.195 92.0154C165.195 92.2819 165.141 92.4764 164.933 92.602C164.827 92.6694 164.67 92.7184 164.514 92.7491C164.722 92.7843 164.881 92.89 164.985 93.0478C165.089 93.2101 165.143 93.3679 165.143 93.5195V93.7386C165.143 93.8121 165.143 93.8902 165.195 93.9653C165.195 94.048 165.195 94.1001 165.195 94.1261V94.1629H164.722C164.722 94.1522 164.722 94.1414 164.722 94.1368C164.722 94.1246 164.722 94.1093 164.722 94.0939L164.67 94.0005V93.76C164.67 93.4031 164.566 93.1718 164.408 93.0631C164.303 92.9942 164.093 92.9635 163.831 92.9635H163.412V94.1629H162.887V91.1453H163.935ZM162.308 90.9891C161.835 91.4502 161.625 92.0108 161.625 92.6587C161.625 93.325 161.835 93.8856 162.308 94.3467C162.781 94.8123 163.306 95.0436 163.989 95.0436C164.672 95.0436 165.195 94.8123 165.669 94.3467C166.141 93.8856 166.353 93.325 166.353 92.6587C166.353 92.0108 166.141 91.4502 165.669 90.9891C165.197 90.528 164.672 90.2968 163.989 90.2968C163.306 90.2968 162.781 90.5265 162.308 90.9891ZM165.93 94.6025C165.405 95.1371 164.724 95.4097 163.989 95.4097C163.252 95.4097 162.571 95.1371 162.047 94.6025C161.521 94.0694 161.26 93.42 161.26 92.6587C161.26 91.9097 161.521 91.2602 162.047 90.7318C162.571 90.1926 163.252 89.9307 163.989 89.9307C164.722 89.9307 165.405 90.1911 165.93 90.7318C166.455 91.2556 166.718 91.9051 166.718 92.6587C166.718 93.42 166.454 94.0694 165.93 94.6025Z" fill="white"/>
<path d="M175.955 86.95C178.842 86.95 180.626 86.3633 180.626 83.6246C180.626 81.5965 179.315 80.5121 176.428 80.5121H172.437V86.95H175.955ZM170.916 95.4098V79.207H176.848C181.048 79.207 182.148 81.3025 182.148 83.7333C182.148 87.3528 178.947 88.2535 175.903 88.2535H172.437V95.4098H170.916Z" fill="white"/>
<path d="M188.185 84.6554C185.352 84.6554 184.198 87.0587 184.198 89.5784C184.198 92.4811 185.614 94.5091 188.185 94.5091C191.02 94.5091 192.176 92.0782 192.176 89.5784C192.124 86.8335 191.072 84.6554 188.185 84.6554ZM182.779 89.5784C182.779 86.1841 184.564 83.4346 188.185 83.4346C191.861 83.4346 193.593 86.158 193.593 89.5784C193.593 93.273 191.441 95.7238 188.185 95.7238C185.194 95.6778 182.779 93.6544 182.779 89.5784Z" fill="white"/>
<path d="M196.952 95.4097H195.588V83.7547H196.952V85.9405H197.006C197.74 84.0687 198.843 83.4346 200.785 83.4346V84.9035C197.74 84.8346 196.954 87.0817 196.954 89.6902V95.4097" fill="white"/>
<path d="M208.345 95.4523C208.028 95.5197 207.451 95.725 206.82 95.725C205.456 95.725 204.721 95.1383 204.721 93.4044V84.8757H203.094V83.7544H204.721V80.5117H206.085V83.7544H208.291V84.8757H206.085V92.8652C206.085 94.0171 206.139 94.5088 207.241 94.5088C207.609 94.5088 208.028 94.4414 208.343 94.3526V95.4523" fill="white"/>
<path d="M218.055 89.2858C216.901 89.7576 215.745 89.851 214.591 89.9414C212.543 90.0977 211.284 90.8421 211.284 92.4137C211.284 93.8382 212.545 94.5091 213.803 94.5091C215.957 94.5091 218.056 93.4721 218.056 91.1086V89.2858H218.055ZM215.797 88.6149C216.268 88.5674 217.109 88.4326 217.582 88.2274C218.003 88.0283 218.055 87.4202 218.055 87.0173C218.055 85.6449 217.267 84.6554 215.168 84.6554C213.28 84.6554 212.018 85.2619 211.756 87.2854H210.391C210.6 84.539 212.649 83.4346 215.168 83.4346C217.53 83.4346 219.421 84.3613 219.421 87.0587V93.4032C219.421 94.4616 219.682 94.7082 220.838 94.3038V95.3623C220.627 95.4312 220.155 95.5874 219.788 95.5874C219.577 95.5874 219.367 95.5675 219.158 95.52C218.267 95.3898 218.109 94.5979 218.109 93.7846C216.953 95.0483 215.432 95.7238 213.749 95.7238C211.703 95.7238 209.812 94.6178 209.812 92.3723C209.812 90.4178 211.177 89.223 213.908 88.8615L215.797 88.6149Z" fill="white"/>
<path d="M228.764 94.5092C231.022 94.5092 232.701 92.8641 232.755 89.9415C232.857 87.0174 231.547 84.6554 228.764 84.6554C226.297 84.6554 224.827 86.9025 224.827 89.5325C224.825 92.3509 226.193 94.5092 228.764 94.5092ZM224.825 95.4098H223.461V79.207H224.825V85.6189C225.668 84.2036 227.346 83.4346 228.974 83.4346C232.541 83.4346 234.171 86.3419 234.171 89.6045C234.171 93.0417 232.701 95.7238 228.922 95.7238C227.399 95.7238 225.668 94.8906 224.829 93.3619V95.4098" fill="white"/>
<path d="M237.162 95.4098H238.527V79.207H237.162V95.4098Z" fill="white"/>
<path d="M250.286 88.7681C250.286 86.4996 249.025 84.6554 246.611 84.6554C244.197 84.6554 242.937 86.567 242.674 88.7681H250.286ZM242.674 89.8985C242.674 92.4137 244.039 94.5091 246.611 94.5091C248.342 94.5091 249.761 93.5395 250.127 91.8331H251.65C250.967 94.0312 249.603 95.7253 246.611 95.7253C242.883 95.7253 241.256 93.0692 241.256 89.6289C241.256 86.2285 243.251 83.4346 246.611 83.4346C249.813 83.4346 251.754 85.7138 251.754 89.8985H242.674Z" fill="white"/>
<path d="M0 0H95.6417V28.3036H3.77888V52.836H0V24.5309H91.8628V3.76962H0V0Z" fill="white"/>
<path d="M215.115 28.3041V52.8365H211.336V24.5314H303.197V3.77018H211.336V-0.000976562H306.976V28.3041H215.115Z" fill="white"/>
<path d="M144.409 0.000555182V49.0639H95.6426V52.8365H148.398V3.77018H197.164V-0.000976562H144.409" fill="white"/>
</g>
<defs>
<clipPath id="clip0_4_6038">
<rect width="306.977" height="100" fill="white"/>
</clipPath>
</defs>
</svg>
