<svg width="601" height="100" viewBox="0 0 601 100" fill="none" xmlns="http://www.w3.org/2000/svg">
<g clip-path="url(#clip0_4_6063)">
<path d="M0 69.3366V99.2177C0 99.6245 0.34418 99.953 0.704005 99.953H19.9155C20.291 99.953 20.6195 99.6245 20.6195 99.2177V69.3366C20.6195 60.6383 25.2034 54.5838 31.6333 54.5838H82.3217C98.4825 54.5838 108.495 44.2115 108.495 27.3623C108.495 10.5444 98.4825 0.03125 82.3217 0.03125H0.735294C0.34418 0.03125 0 0.344141 0 0.766544V11.6552C0 12.0619 0.34418 12.4061 0.735294 12.4061H75.9543C83.3229 12.4061 87.5782 17.8191 87.5782 27.331C87.5782 36.8272 83.3073 42.3185 75.9543 42.3185H22.0432C9.59011 42.3185 0 53.8955 0 69.3366Z" fill="white"/>
<path d="M178.082 12.4061H216.489C216.912 12.4061 217.271 12.062 217.271 11.6552V0.766583C217.271 0.328536 216.896 0 216.489 0L171.761 0.0312891C155.585 0.0312891 145.588 10.4819 145.588 27.331V72.6377C145.588 82.1496 141.458 87.5782 133.996 87.5782H94.5712C94.1645 87.5782 93.8359 87.9537 93.8359 88.3605V99.2178C93.8359 99.6245 94.1645 99.9531 94.5712 99.9531H140.441C156.477 99.9531 166.474 89.4869 166.474 72.6846V27.331C166.489 17.8035 170.76 12.4061 178.082 12.4061Z" fill="white"/>
<path d="M363.203 99.2177C363.203 99.6245 363.547 99.953 363.938 99.953H383.385C383.776 99.953 384.089 99.6245 384.089 99.2177V0.813439C384.089 0.344102 383.776 0.0625 383.385 0.0625H363.938C363.547 0.0625 363.203 0.359747 363.203 0.813439V99.2177Z" fill="white"/>
<path d="M302.472 88.955L349.39 0.876115C349.624 0.438067 349.39 1.9555e-05 348.983 1.9555e-05H336.984C336.577 1.9555e-05 336.123 0.312911 335.92 0.672735L297.982 71.214C295.244 76.455 290.551 77.0651 287.703 71.8398L249.546 0.657091C249.39 0.281621 248.858 -0.015625 248.451 -0.015625H227.174C226.658 -0.015625 226.486 0.453712 226.736 0.923048L273.701 88.9393C276.439 93.9925 279.693 97.2935 283.182 98.8267C288.736 101.424 294.806 99.515 299.656 93.2416C300.657 91.9744 301.58 90.5663 302.472 88.955Z" fill="white"/>
<path d="M495.464 0.0625H398.436C397.983 0.0625 397.701 0.359746 397.701 0.813439V11.5612C397.701 11.9367 397.998 12.2809 398.436 12.2809H435.358C436.062 12.2809 436.687 12.8597 436.687 13.6107V99.202C436.687 99.6088 437.016 99.9373 437.423 99.9373H456.462C456.916 99.9373 457.244 99.6088 457.244 99.202V13.6263C457.244 12.8754 457.823 12.2965 458.574 12.2965H495.464C495.886 12.2965 496.231 11.9524 496.231 11.5769V0.813439C496.231 0.344102 495.886 0.0625 495.464 0.0625Z" fill="white"/>
<path d="M600.485 99.0927L553.582 11.0608C550.891 5.97636 547.543 2.70665 544.102 1.07961C538.501 -1.43916 532.509 0.45383 527.597 6.71165C526.58 7.94757 525.657 9.4338 524.828 11.0608L477.471 99.1553C477.252 99.5777 477.471 99.9845 477.972 99.9845H490.331C490.707 99.9845 491.207 99.7029 491.411 99.3431L501.517 80.4914L501.533 80.4444C501.861 79.803 502.737 79.2711 503.457 79.2711H565.253C565.941 79.2711 566.739 79.7717 567.162 80.3819L567.193 80.4757L577.315 99.3431C577.456 99.7029 577.972 99.9845 578.363 99.9845H600.031C600.578 100 600.719 99.5308 600.485 99.0927ZM558.526 67.0214H510.231C509.386 67.0214 509.058 66.4426 509.418 65.7386H509.433L529.239 28.7548C532.055 23.5921 536.686 22.9351 539.533 28.1134L559.402 65.8794C559.668 66.5051 559.339 67.0214 558.526 67.0214Z" fill="white"/>
</g>
<defs>
<clipPath id="clip0_4_6063">
<rect width="600.594" height="100" fill="white"/>
</clipPath>
</defs>
</svg>
