<svg width="489" height="100" viewBox="0 0 489 100" fill="none" xmlns="http://www.w3.org/2000/svg">
<g clip-path="url(#clip0_4_6071)">
<path d="M147.527 25.5859V51.0378V76.4896H152.016H156.503V53.7693V31.0489H162.013C165.987 31.0489 167.781 31.1563 168.455 31.4359C169.788 31.9896 171.159 33.673 171.722 35.4359C172.016 36.3619 172.259 38.3674 172.346 40.5933C172.524 45.1545 171.992 47.9859 170.59 49.823C169.127 51.7433 168.235 52.0452 164.103 52.0452H160.557V54.8045V57.5711L166.129 57.4637L171.703 57.3545L173.675 56.4304C177.279 54.7415 179.894 51.2878 180.95 46.8396C181.54 44.3563 181.529 38.8026 180.931 36.1359C180.355 33.573 179.157 30.9933 177.809 29.4322C177.248 28.7767 176.155 27.8415 175.394 27.3545C172.783 25.6896 171.775 25.5859 159.044 25.5859H147.527ZM187.192 25.5859V51.0378V76.4896H191.681H196.17V51.0378V25.5859H191.681H187.192ZM299.75 25.5859C295.731 25.5859 291.594 25.7267 290.557 25.8915C288.224 26.26 285.496 27.4878 283.953 28.8748C282.398 30.2693 281.07 32.3656 280.353 34.5693C279.905 35.9396 279.766 37.1896 279.746 39.8211C279.722 43.4508 280.031 44.9952 281.285 47.4396C282.101 49.0304 284.279 51.3267 285.774 52.1859C287.507 53.1841 289.729 53.7137 293.544 54.0193C296.448 54.2526 297.125 54.397 298.07 55.0174C298.813 55.5045 299.464 56.3026 300.014 57.4156C300.79 58.9841 300.835 59.3082 300.829 62.6822C300.827 66.0452 300.777 66.3767 300.031 67.7878C299.527 68.7452 298.798 69.5859 298.033 70.0896L296.829 70.8822L289.203 70.9711L281.583 71.0508V73.7748V76.4896H290.25C295.524 76.4896 299.525 76.36 300.457 76.1656C304.005 75.423 306.957 73.1396 308.39 70.0267C309.598 67.4063 310.024 64.7119 309.866 60.6693C309.701 56.4082 309.064 54.0878 307.35 51.5415C305.222 48.3785 302.842 47.2915 296.794 46.7415C294.555 46.5378 292.263 46.1785 291.698 45.9433C290.453 45.4174 289.288 44.0989 288.777 42.6341C288.268 41.1915 288.275 37.0063 288.794 35.2415C289.303 33.4933 290.85 31.8878 292.477 31.4008C293.264 31.1656 295.907 31.0526 300.357 31.0526H307.063V28.3193V25.5859H299.75ZM402.898 25.5859V29.3248V33.0637H407.387H411.875V29.3248V25.5859H407.387H402.898ZM316.588 31.3359L316.683 49.6711C316.761 67.7174 316.772 68.0304 317.396 69.6693C317.744 70.5822 318.488 71.9508 319.05 72.7137C320.201 74.2711 321.7 75.3619 323.592 76.0193C324.505 76.3378 326.051 76.4619 328.994 76.4711L333.12 76.4896V73.7582V71.0267H330.425C327.859 71.0267 327.687 70.9915 326.959 70.2359C326.505 69.7656 326.063 68.8508 325.885 68.0045C325.687 67.0915 325.605 62.3378 325.657 54.9174L325.738 43.273L330.588 43.1896L335.437 43.11V40.3896V37.6637H330.514H325.594V34.4989V31.3359H321.098H316.588ZM378.575 31.3359V49.4452C378.575 66.96 378.598 67.6193 379.175 69.3619C379.861 71.4378 381.257 73.4952 382.777 74.6452C383.355 75.0841 384.503 75.6785 385.327 75.9563C386.475 76.3508 387.759 76.4711 390.809 76.4785L394.79 76.4896V73.7563V71.0248H392.22C390.074 71.0248 389.529 70.9322 388.901 70.4396C388.485 70.1156 388.014 69.373 387.85 68.7878C387.666 68.1304 387.551 62.96 387.551 55.4211V43.1267H392.483H397.414L397.333 40.4674L397.25 37.8063L392.4 37.7267L387.553 37.6433V34.4896V31.3359H383.064H378.575ZM370.661 37.5896L361.077 37.7452C350.774 37.9008 349.707 38.0267 346.681 39.5508C343.3 41.2545 340.94 44.5619 339.872 49.0952C339.424 50.9878 339.346 52.6156 339.346 59.8063C339.346 67.9748 339.37 68.3545 340.007 69.9193C341.29 73.0693 343.2 75.0137 345.95 75.9563C347.164 76.3748 348.427 76.4693 352.59 76.4767L357.733 76.4859V73.7526V71.023H354.133C350.722 71.023 350.49 70.9804 349.681 70.3026C349.142 69.8563 348.707 69.1082 348.503 68.3082C348.101 66.7211 348.081 54.21 348.477 51.1785C349.037 46.873 350.016 44.8582 352.051 43.773C352.753 43.4026 353.961 43.2674 357.37 43.1804L361.787 43.0637V59.7804V76.4896H366.422H371.051V65.747C371.051 59.8433 370.959 51.0896 370.855 46.3008L370.661 37.5896ZM234.677 37.6008L225.051 37.7433C214.588 37.9045 213.085 38.0933 210.229 39.6137C206.911 41.3785 204.544 44.8656 203.542 49.4545C202.907 52.3693 202.611 64.3082 203.1 67.1933C203.525 69.7137 204.713 72.2489 206.131 73.6822C207.175 74.7378 208.907 75.7804 210.355 76.2174C210.753 76.3378 213.457 76.4452 216.363 76.46L221.646 76.4859V73.7526V71.0248H217.946C213.772 71.0248 213.224 70.8285 212.437 69.0471C212.085 68.2526 211.948 66.6933 211.857 62.4878C211.727 56.51 212.146 50.0248 212.798 47.873C213.383 45.9396 214.474 44.4545 215.755 43.8304C216.692 43.373 217.553 43.2841 221.211 43.2804L225.553 43.2711L225.625 59.8804L225.7 76.4859H230.188H234.677V57.0396V37.6008ZM244.342 37.6637C241.735 37.6637 239.603 37.6971 239.609 37.7359C239.613 37.7748 242.59 46.4563 246.222 57.0322L252.829 76.2637L249.109 85.7896C247.064 91.0359 245.39 95.3619 245.39 95.4063C245.39 95.4508 247.166 95.4508 249.337 95.4063L253.281 95.3267L264.814 66.5656C271.163 50.7489 276.361 37.7748 276.361 37.7359C276.364 37.6971 274.49 37.6637 272.19 37.6637C269.157 37.6637 267.946 37.7637 267.785 38.0248C267.663 38.2211 265.444 43.8119 262.863 50.4526C260.283 57.0933 258.053 62.5619 257.905 62.6137C257.753 62.6619 255.703 57.0693 253.355 50.1822L249.085 37.6637H244.342ZM402.898 37.6637V57.0767V76.4859H407.387H411.875V57.0767V37.6637H407.387H402.898ZM457.187 37.8063L457.101 57.147H457.114L457.031 76.4859H461.674H466.305V59.7804V43.0637L470.718 43.1804C475.409 43.3026 476.19 43.497 477.507 44.897C478.54 45.9952 479.277 47.9933 479.605 50.5933C479.777 51.9545 479.914 58.2063 479.914 64.7582V76.4859H484.403H488.888L488.879 65.0545C488.879 52.9322 488.664 50.0545 487.487 46.7674C485.887 42.297 482.942 39.6452 478.15 38.3545C476.564 37.9285 474.874 37.8526 466.738 37.8341L457.187 37.8063ZM434.494 37.8896C431.963 37.8896 429.438 38.2045 427.627 38.823C425.214 39.6471 423.7 40.6119 422.177 42.2915C420.529 44.1137 419.337 46.5822 418.635 49.597C418.203 51.447 418.103 52.9989 418.127 57.5063C418.151 62.2489 418.248 63.46 418.761 65.3341C419.635 68.5156 420.774 70.6582 422.507 72.4008C424.213 74.1119 426.735 75.4285 429.575 76.0656C430.853 76.3526 432.624 76.4433 435.329 76.373C439.996 76.2489 442.214 75.6545 444.937 73.8026C447.218 72.2526 448.946 69.8082 449.926 66.7285C451.322 62.3341 451.568 55.0878 450.494 49.7433C449.974 47.147 448.703 44.3304 447.29 42.6156C445.961 41.0045 443.785 39.5915 441.457 38.823C439.572 38.2045 437.024 37.8896 434.494 37.8896ZM434.601 43.2433C435.916 43.2433 437.235 43.497 438.266 44.0174C439.614 44.6952 440.463 45.8785 441.196 48.1137C441.679 49.5767 441.798 50.9082 441.914 55.7452C442.061 62.0619 441.77 65.0378 440.781 67.2841C440.087 68.8693 438.961 70.1008 437.724 70.6267C437.194 70.8508 435.803 71.023 434.512 71.023C432.681 71.023 431.979 70.8933 430.957 70.3582C430.153 69.9359 429.377 69.2119 428.876 68.4082C427.566 66.3082 427.137 63.5582 427.12 57.3619C427.105 51.4637 427.411 49.0915 428.507 46.6933C428.875 45.8804 429.624 44.8859 430.179 44.4637C431.233 43.6674 432.914 43.2433 434.601 43.2433Z" fill="white"/>
<path d="M71.4968 20.7963L71.4097 99.9981L50.0449 93.0981V0L77.3171 7.16296C94.7727 11.8222 105.454 20.8815 105.28 36.7556C105.106 55.2204 96.5079 62.6389 79.7486 57.8093V21.3981C79.7449 16.9981 71.4968 16.7407 71.4968 20.7963Z" fill="white"/>
<path d="M121.261 82.6577L101.111 76.4448L106.672 74.5485C117.876 71.0096 113.183 67.2133 101.544 69.3688L90.4294 73.0818L71.409 67.2133L73.146 66.6077C83.7423 62.9837 94.5979 60.5688 105.628 61.3466C121.002 62.467 130.989 65.8318 132.378 72.0448C133.246 75.7522 129.772 79.7244 121.607 82.5707L121.261 82.6577ZM50.0442 55.2207V60.6577L41.6201 58.0689L50.0442 55.2207ZM90.2553 93.5281L71.409 87.5763V86.5411L101.111 76.4448L121.261 82.6577L90.2553 93.5281ZM50.0442 74.4596V80.8448L40.2312 77.7374L50.0442 74.4596ZM71.4053 67.2151L90.4294 73.0818L71.4053 79.5522V67.2151ZM28.9368 74.2022L10.6127 68.4207C10.7868 68.4207 10.9609 68.3355 11.046 68.3355L41.6164 58.0689L50.0442 60.6577L50.0423 66.6948L28.9368 74.2022ZM40.2275 77.7374L50.0442 80.8448L50.0423 86.7985C42.1386 89.5596 33.4516 90.4226 23.8998 88.8707C13.6516 87.2318 0.364565 85.8503 0.0164169 80.0688C-0.333583 74.3744 4.97012 70.3188 10.6127 68.4207L28.9368 74.2022L24.0738 75.9244C18.0812 78.0855 23.6386 83.3466 30.1553 81.104L40.2275 77.7374ZM71.5794 100L71.4053 99.5707V87.5781L90.2535 93.53L71.5794 100Z" fill="white"/>
</g>
<defs>
<clipPath id="clip0_4_6071">
<rect width="488.889" height="100" fill="white"/>
</clipPath>
</defs>
</svg>
