<svg width="249" height="100" viewBox="0 0 249 100" fill="none" xmlns="http://www.w3.org/2000/svg">
<g clip-path="url(#clip0_4_6075)">
<path d="M52.8112 46.575C55.3509 46.575 57.6063 47.5573 59.5709 49.5219C61.5355 51.4865 62.5178 53.5545 62.5178 55.7194C62.5178 60.8312 59.6678 64.6246 53.9615 67.0933C48.2551 69.5684 42.0512 70.8027 35.3496 70.8027C25.7335 70.8027 17.4357 67.313 10.4627 60.34C3.48972 53.3606 0 45.0693 0 35.4531C0 25.8047 3.52204 17.5004 10.5661 10.5404C17.6102 3.58032 25.8692 0.103516 35.3496 0.103516C42.2903 0.103516 48.5524 1.32492 54.1424 3.76126C59.7325 6.19761 62.5178 10.004 62.5178 15.1869C62.5178 17.1192 61.5872 19.1031 59.7195 21.1517C57.8519 23.2003 55.5512 24.2214 52.8047 24.2214C51.0728 24.2214 48.9402 23.6462 46.394 22.4959C42.6651 20.8028 38.9686 19.9562 35.3108 19.9562C31.1103 19.9562 27.4008 21.5136 24.2019 24.6285C20.9965 27.7434 19.4003 31.3495 19.4003 35.4467C19.4003 39.4792 20.99 43.0659 24.1825 46.2131C27.3685 49.3603 31.0779 50.9372 35.3173 50.9372C38.9427 50.9372 42.6393 50.0712 46.4004 48.3457C48.9789 47.1631 51.1115 46.575 52.8112 46.575Z" fill="white"/>
<path d="M75.2617 59.9777L73.058 64.3463C70.99 68.3789 68.0108 70.3887 64.114 70.3887C61.3739 70.3887 59.0345 69.3547 57.1022 67.2932C55.1699 65.2317 54.207 62.944 54.207 60.4365C54.207 59.0859 54.4074 57.9679 54.8145 57.0825L77.8725 7.58015C78.8548 5.44108 80.2378 3.76084 82.015 2.53944C83.7921 1.31803 85.6598 0.704102 87.6244 0.704102C89.6213 0.704102 91.5148 1.3245 93.2919 2.55236C95.0691 3.78669 96.4521 5.454 97.4344 7.54784L120.279 57.0761C120.719 58.0584 120.938 59.1764 120.938 60.4301C120.938 62.9698 119.988 65.264 118.088 67.3126C116.188 69.3612 113.868 70.3823 111.128 70.3823C107.264 70.3823 104.285 68.366 102.184 64.3399L99.8643 59.9713H75.2617V59.9777ZM92.1481 41.2883L87.5985 31.3878L83.0619 41.2883H92.1481Z" fill="white"/>
<path d="M135.989 20.8732C135.989 21.6552 136.247 22.1657 136.777 22.4242C137.301 22.6763 138.748 22.9994 141.12 23.3871C143.492 23.7749 145.754 24.3953 147.925 25.2419C150.09 26.0884 152.332 27.6523 154.652 29.9401C156.972 32.2278 158.704 34.858 159.855 37.8372C161.005 40.8164 161.58 44.1187 161.58 47.7377C161.58 53.4957 159.234 58.7561 154.549 63.5319C149.864 68.3076 144.435 70.6988 138.27 70.6988C131.665 70.6988 126.082 68.9668 121.513 65.49C116.944 62.0197 114.656 57.8643 114.656 53.0239C114.656 50.5553 115.619 48.3968 117.551 46.5486C119.484 44.7068 121.797 43.7826 124.511 43.7826C125.933 43.7826 127.265 44.0347 128.499 44.5452C129.733 45.0557 131.252 46.2965 133.048 48.2805C134.845 50.2645 136.486 51.2532 137.973 51.2532C140.881 51.2532 142.341 49.5601 142.341 46.1737C142.341 43.9054 139.769 42.3803 134.619 41.6048C129.236 40.8228 124.925 38.5093 121.694 34.6447C118.463 30.7866 116.847 26.0303 116.847 20.3756C116.847 15.0247 118.837 10.3136 122.812 6.22932C126.793 2.15151 132.047 0.109375 138.58 0.109375C144.435 0.109375 148.746 1.03351 151.505 2.8753C154.265 4.72357 155.641 7.60582 155.641 11.535C155.641 13.5319 154.691 15.49 152.798 17.4029C150.898 19.3158 148.649 20.2722 146.044 20.2722C145.165 20.2722 143.886 20.0267 142.212 19.5355C140.538 19.0444 139.123 18.7988 137.973 18.7988C137.566 18.7988 137.133 19.0185 136.68 19.458C136.215 19.8909 135.989 20.3627 135.989 20.8732Z" fill="white"/>
<path d="M180.238 59.3706C180.238 62.5889 179.327 65.1804 177.498 67.1385C175.669 69.1031 173.33 70.0854 170.486 70.0854C167.675 70.0854 165.368 69.1031 163.552 67.1385C161.743 65.1739 160.838 62.5825 160.838 59.3706V11.5291C160.838 8.31078 161.749 5.70641 163.578 3.70952C165.407 1.71262 167.707 0.710938 170.486 0.710938C173.259 0.710938 175.585 1.71262 177.446 3.70952C179.308 5.70641 180.238 8.31724 180.238 11.5291V59.3706Z" fill="white"/>
<path d="M212.783 0C222.528 0 230.858 3.54789 237.78 10.6372C244.694 17.733 248.158 25.9984 248.158 35.4466C248.158 44.8947 244.707 53.1472 237.805 60.2042C230.903 67.2612 222.567 70.7962 212.783 70.7962C203.037 70.7962 194.714 67.2677 187.812 60.2042C180.91 53.1408 177.459 44.8947 177.459 35.453C177.459 26.0049 180.91 17.7394 187.812 10.6437C194.714 3.54789 203.037 0 212.783 0ZM212.783 51.3442C217.222 51.3442 220.997 49.7674 224.099 46.6201C227.2 43.4729 228.751 39.7441 228.751 35.4466C228.751 31.317 227.181 27.6141 224.047 24.3505C220.913 21.0805 217.151 19.452 212.776 19.452C208.608 19.452 204.911 21.0805 201.687 24.3247C198.468 27.5753 196.853 31.2847 196.853 35.4466C196.853 39.7118 198.404 43.4277 201.506 46.5943C204.621 49.7674 208.375 51.3442 212.783 51.3442Z" fill="white"/>
<path d="M120.377 95.9607C120.377 97.1756 120.034 98.1514 119.343 98.8946C118.658 99.6378 117.779 100.006 116.726 100.006C115.672 100.006 114.793 99.6378 114.096 98.8946C113.404 98.1514 113.055 97.1756 113.055 95.9607V84.0181C111.982 84.3153 111.355 84.4575 111.174 84.4575C110.405 84.4575 109.662 84.1215 108.932 83.4429C108.202 82.7643 107.84 81.9824 107.84 81.0841C107.84 79.5654 108.279 78.5185 109.158 77.9434L114.651 74.4149C115.239 74.0206 115.853 73.8203 116.487 73.8203C117.65 73.8203 118.587 74.1822 119.298 74.9125C120.015 75.6427 120.371 76.4118 120.371 77.2325V95.9607H120.377Z" fill="white"/>
<path d="M131.725 73.8203C135.428 73.8203 138.582 75.1387 141.173 77.7689C143.765 80.3991 145.064 83.4558 145.064 86.9326C145.064 90.3965 143.765 93.4403 141.173 96.0641C138.575 98.6878 135.428 99.9997 131.725 99.9997C128.022 99.9997 124.869 98.6878 122.277 96.0641C119.686 93.4403 118.387 90.3965 118.387 86.9326C118.387 83.4558 119.679 80.4056 122.271 77.7689C124.856 75.1387 128.009 73.8203 131.725 73.8203ZM131.725 92.7747C133.354 92.7747 134.763 92.1995 135.958 91.0492C137.147 89.8989 137.748 88.5289 137.748 86.9262C137.748 85.2912 137.154 83.9017 135.971 82.7579C134.788 81.614 133.373 81.0453 131.732 81.0453C130 81.0453 128.565 81.6269 127.428 82.7967C126.284 83.9664 125.715 85.3429 125.715 86.9262C125.715 88.5353 126.303 89.9118 127.486 91.0557C128.656 92.206 130.071 92.7747 131.725 92.7747Z" fill="white"/>
<path d="M155.784 73.8203C159.487 73.8203 162.64 75.1387 165.232 77.7689C167.823 80.3991 169.122 83.4558 169.122 86.9326C169.122 90.3965 167.823 93.4403 165.232 96.0641C162.634 98.6878 159.487 99.9997 155.784 99.9997C152.081 99.9997 148.927 98.6878 146.336 96.0641C143.744 93.4403 142.445 90.3965 142.445 86.9326C142.445 83.4558 143.738 80.4056 146.329 77.7689C148.914 75.1387 152.068 73.8203 155.784 73.8203ZM155.784 92.7747C157.412 92.7747 158.821 92.1995 160.017 91.0492C161.206 89.8989 161.807 88.5289 161.807 86.9262C161.807 85.2912 161.212 83.9017 160.03 82.7579C158.847 81.614 157.432 81.0453 155.79 81.0453C154.058 81.0453 152.624 81.6269 151.486 82.7967C150.342 83.9664 149.774 85.3429 149.774 86.9262C149.774 88.5353 150.362 89.9118 151.544 91.0557C152.714 92.206 154.129 92.7747 155.784 92.7747Z" fill="white"/>
<path d="M179.844 73.8203C183.547 73.8203 186.701 75.1387 189.292 77.7689C191.884 80.3991 193.183 83.4558 193.183 86.9326C193.183 90.3965 191.884 93.4403 189.292 96.0641C186.695 98.6878 183.547 99.9997 179.844 99.9997C176.141 99.9997 172.988 98.6878 170.396 96.0641C167.805 93.4403 166.506 90.3965 166.506 86.9326C166.506 83.4558 167.798 80.4056 170.39 77.7689C172.975 75.1387 176.122 73.8203 179.844 73.8203ZM179.844 92.7747C181.473 92.7747 182.882 92.1995 184.077 91.0492C185.266 89.8989 185.867 88.5289 185.867 86.9262C185.867 85.2912 185.273 83.9017 184.09 82.7579C182.908 81.614 181.492 81.0453 179.851 81.0453C178.119 81.0453 176.684 81.6269 175.547 82.7967C174.403 83.9664 173.834 85.3429 173.834 86.9262C173.834 88.5353 174.422 89.9118 175.605 91.0557C176.775 92.206 178.19 92.7747 179.844 92.7747Z" fill="white"/>
<path d="M61.3024 89.8088V95.9611C61.3024 97.176 60.9599 98.1518 60.2684 98.895C59.577 99.6382 58.6981 100.007 57.6253 100.007C56.5655 100.007 55.693 99.6382 55.008 98.895C54.323 98.1518 53.9805 97.176 53.9805 95.9611V77.1618C53.9805 76.27 54.3553 75.488 55.0985 74.8224C55.8481 74.1567 56.7658 73.8271 57.8515 73.8271H63.7388C66.1428 73.8271 68.0945 74.6026 69.6067 76.1472C71.1124 77.6917 71.8685 79.6046 71.8685 81.8794C71.8685 83.7858 71.1447 85.5823 69.6907 87.2755C68.2431 88.9687 66.6469 89.8153 64.9085 89.8153H61.3024V89.8088ZM61.3024 83.0038H63.8551C64.1718 83.0038 64.4367 82.881 64.6435 82.6419C64.8439 82.3964 64.9473 82.1314 64.9473 81.8341C64.9473 81.5433 64.8439 81.2719 64.6435 81.0199C64.4367 80.7678 64.1782 80.645 63.8551 80.645H61.3024V83.0038Z" fill="white"/>
<path d="M82.5575 88.4255L88.0053 75.9982C88.2897 75.3842 88.7162 74.8672 89.2849 74.4472C89.86 74.0336 90.4287 73.8203 90.9845 73.8203C92.2576 73.8203 93.2593 74.1693 93.996 74.8672C94.7327 75.5652 95.0946 76.4311 95.0946 77.4651C95.0946 77.9627 95.0106 78.3828 94.8426 78.7318L86.157 97.4535C85.7887 98.2613 85.2717 98.8882 84.6061 99.3341C83.9469 99.78 83.2296 100.006 82.467 100.006C81.769 100.006 81.084 99.7735 80.4119 99.3147C79.7463 98.8559 79.2293 98.2355 78.8739 97.4535L70.1754 78.7318C70.0268 78.3505 69.9492 77.924 69.9492 77.4651C69.9492 76.5475 70.2788 75.7073 70.9444 74.9512C71.6101 74.1951 72.4437 73.8203 73.4389 73.8203C75.2161 73.8203 76.4246 74.5441 77.0644 75.9852L82.5575 88.4255Z" fill="white"/>
<path d="M93.3242 87.3986C93.3242 85.4017 94.9398 83.7861 96.9367 83.7861H103.141C105.138 83.7861 106.753 85.4017 106.753 87.3986C106.753 89.3955 105.138 91.0112 103.141 91.0112H96.9367C94.9398 91.0112 93.3242 89.3955 93.3242 87.3986Z" fill="white"/>
</g>
<defs>
<clipPath id="clip0_4_6075">
<rect width="248.158" height="100" fill="white"/>
</clipPath>
</defs>
</svg>
