<svg width="395" height="100" viewBox="0 0 395 100" fill="none" xmlns="http://www.w3.org/2000/svg">
<g clip-path="url(#clip0_4_6093)">
<path d="M65.9971 21.71C67.7706 26.5218 68.6603 31.4468 68.6603 36.4894C68.6603 40.8997 67.9721 44.9394 66.5985 48.6041C64.3044 54.7894 60.6676 59.9453 55.6853 64.0688C50.5294 68.3071 44.7412 70.7703 38.325 71.4571V80.3071C38.325 80.6526 38.0676 82.0247 37.5515 84.4321C36.5206 89.1865 35.5765 94.6012 34.7176 100.673C31.8515 87.9541 30.2765 81.1953 29.9897 80.3938V71.3703C23.7471 70.7409 18.1015 68.335 13.0618 64.1556C4.35147 56.9409 0 47.7159 0 36.4894C0 31.7923 0.773529 27.21 2.32059 22.7423C3.75147 18.5041 5.92941 14.6968 8.85147 11.3159C12.0015 7.59382 15.5544 5.01441 19.5059 3.58205C15.325 6.04382 11.8588 9.16735 9.10735 12.9468C5.38529 18.1012 3.52353 23.9762 3.52353 30.5615C3.52353 32.9659 3.75147 35.3438 4.21176 37.6923C5.18529 42.6188 7.56324 47.1997 11.3456 51.4365C15.2397 55.8497 19.5632 58.6276 24.3191 59.7718C26.7838 60.6306 28.6721 61.0938 29.9912 61.1482V52.2085C29.9912 51.2938 29.9618 50.26 29.9059 49.1159C29.5059 47.2262 28.4176 46.1379 26.6397 45.8512C26.5279 45.7365 26.3809 45.6776 26.2118 45.6776H41.7647C42.1647 45.6776 42.3368 45.7365 42.2794 45.8512C40.1603 46.1953 38.9279 47.2835 38.5853 49.1159C38.4103 50.0335 38.3265 51.0938 38.3265 52.2953V61.1482C41.25 60.5159 43.2529 60.06 44.3426 59.7718C48.9838 58.5703 53.2221 55.9056 57.0603 51.7806C62.4471 45.9365 65.1368 38.8644 65.1368 30.5585C65.1368 24.8865 63.7029 19.6879 60.8397 14.9629C57.975 10.2379 54.0515 6.44235 49.0676 3.57617C56.9162 6.56147 62.5588 12.6056 65.9971 21.71Z" fill="white"/>
<path d="M90.6541 10.075C90.1379 6.06916 88.4511 3.66769 85.5879 2.86475H106.467C102.226 4.2971 100.336 6.7574 100.795 10.2471V54.7074C100.795 57.8559 101.195 60.5736 102 62.8618C105.206 69.2721 109.932 72.6192 116.178 72.9059C108.329 72.6765 102.228 70.303 97.8732 65.7824C93.0599 60.803 90.6555 55.2545 90.6555 49.1309L90.6541 10.075ZM148.014 10.0148C148.523 5.99563 150.316 3.61328 153.385 2.86328H132.331C136.497 4.12799 138.35 6.51034 137.892 10.0148V55.675C137.892 58.7206 137.458 61.1059 136.597 62.8265C133.317 69.3192 128.631 72.678 122.533 72.9059C127.297 72.7912 131.37 71.8721 134.756 70.1515C136.535 69.2339 138.573 67.7692 140.869 65.7574C145.631 61.5662 148.013 56.0515 148.013 49.2147L148.014 10.0148Z" fill="white"/>
<path d="M215.291 66.4778L211.854 58.0557C209.904 53.244 207.299 50.3219 204.032 49.291C202.887 49.1793 201.341 49.0631 199.394 48.9484C198.878 48.891 198.562 48.8616 198.447 48.8616L199.904 48.4322C202.875 47.5719 204.362 46.141 204.362 44.1337C204.362 43.5043 204.131 42.6454 203.677 41.5557C201.387 36.1131 199.702 32.0145 198.615 29.266C196.499 24.341 194.9 21.5616 193.812 20.9322C192.953 20.4748 191.554 22.194 189.61 26.0866C187.55 30.2704 186.237 33.0778 185.666 34.5101L182.752 41.9851C182.352 43.016 182.15 43.9042 182.15 44.6498C182.15 47.2866 183.974 48.691 187.619 48.8631C182.807 48.8631 179.484 50.0925 177.654 52.5542C175.703 55.8822 174.071 59.8028 172.754 64.3292L172.238 67.3366C172.584 69.5116 173.872 70.8028 176.107 71.2028H162.357C164.878 70.0557 167.943 66.216 171.553 59.6822C173.502 56.2425 175.877 51.4557 178.684 45.3219C182.866 36.1513 185.331 30.6778 186.075 28.8984C188.94 22.2513 190.829 17.8351 191.746 15.6572L196.816 2.41602L208.934 31.0793H208.847C210.222 33.9998 211.081 35.8322 211.427 36.5778C214.463 42.9366 218.328 51.1542 223.028 61.2381C225.375 66.3351 228.125 69.6572 231.277 71.2028H211.081C214.232 71.0322 215.635 69.4557 215.291 66.4778Z" fill="white"/>
<path d="M262.791 64.2426C262.791 68.0265 264.405 70.2603 267.622 70.9471H248.373C251.133 70.2588 252.716 68.0265 253.122 64.2426V9.83382C253.122 5.93529 251.567 3.64412 248.461 2.95735H267.708C265.352 3.47353 263.713 5.67647 262.791 9.57353V28.7426C262.791 32.4132 265.21 35.0176 270.048 36.5662C265.21 37.5956 262.791 40.6632 262.791 45.7632V64.2426ZM290.305 33.3324C298.555 22.6794 307.061 11.5676 315.829 0L276.473 36.7441H276.557L276.473 36.8309H276.732C282.973 39.1809 288.445 41.9882 293.144 45.2544C304.314 53.0515 310.33 62.5044 311.189 73.6221C311.361 71.9632 311.448 70.3294 311.448 68.7265C311.448 57.9015 308.411 49.025 302.338 42.0941C298.842 38.0868 294.832 35.1632 290.305 33.3324Z" fill="white"/>
<path d="M351.421 39.217C349.817 40.4817 349.015 42.2288 349.015 44.4626V50.3979C349.015 52.1185 349.502 55.6435 350.478 60.9743C351.217 62.6346 352.22 64.2126 353.481 65.7023C356.284 68.9685 359.548 70.717 363.268 70.9479C357.549 70.7758 352.231 68.7699 347.314 64.9288C341.881 60.8008 339.161 55.9567 339.161 50.3979V9.81258C338.177 5.74052 336.417 3.27876 333.877 2.41699H354.074C350.7 3.21846 349.017 5.76993 349.017 10.0685V29.5023C349.017 32.1376 349.733 34.0317 351.165 35.1802C351.218 35.7508 355.139 36.2082 362.925 36.5538C357.773 36.7243 353.94 37.614 351.421 39.217ZM367.224 2.41699H390.509L390.593 25.5729C389.903 19.2023 387.361 13.9802 382.946 9.90523C378.998 6.29052 373.753 3.79493 367.224 2.41699ZM371.264 71.2052C379.167 70.5758 386.786 63.1302 394.118 48.8626V71.2052C393.031 69.6567 391.312 68.8846 388.965 68.8846C387.302 68.8846 385.352 69.2714 383.118 70.042C380.886 70.817 376.934 71.2052 371.264 71.2052Z" fill="white"/>
</g>
<defs>
<clipPath id="clip0_4_6093">
<rect width="394.118" height="100" fill="white"/>
</clipPath>
</defs>
</svg>
