<svg width="450" height="100" viewBox="0 0 450 100" fill="none" xmlns="http://www.w3.org/2000/svg">
<g clip-path="url(#clip0_4_6099)">
<path d="M21.1772 68.6487C21.1772 79.337 27.5106 80.6599 30.3788 80.6599C35.7522 80.6599 37.8829 76.6093 37.8829 72.3832C37.8829 67.5365 35.2722 66.038 21.6455 60.0793C15.4408 57.4686 0.0228912 50.9947 0.0228912 33.7154C0.0228912 15.1952 12.1746 5.41992 28.3769 5.41992C41.6174 5.41992 59.1074 12.5962 59.4586 34.7222H38.9014C38.9014 31.5965 38.2107 25.0055 31.2685 25.0055C27.3233 25.0055 23.4951 27.862 23.4951 32.2169C23.4951 36.4431 24.8766 37.567 40.7628 45.0242C57.2577 52.7273 62.2566 62.5377 62.2566 71.3764C62.2566 86.0451 54.0383 99.9879 30.6129 99.9879C12.9824 99.9996 -0.574159 86.6772 0.0228912 68.6487H21.1772Z" fill="white"/>
<path d="M155.044 99.9997H129.43L125.766 5.52539L152.691 39.1241L155.044 99.9997Z" fill="white"/>
<path d="M91.8394 99.9997H66.2131L62.5488 5.52539H88.1751L91.8394 99.9997Z" fill="white"/>
<path d="M269.901 99.9997H243.467L189.533 22.9218L203.792 5.52539L269.901 99.9997Z" fill="white"/>
<path d="M210.395 95.2351L187.285 99.9997L134.546 24.6193L125.766 5.52539H147.622L210.395 95.2351Z" fill="white"/>
<path d="M155.044 99.9997H127.463L65.9668 12.1046L88.9942 5.52539L152.188 95.7384L155.044 99.9997Z" fill="white"/>
<path d="M72.7598 67.1987V86.8662H128.695V67.1987H72.7598Z" fill="white"/>
<path d="M210.582 99.9997H187.285L184.721 93.8654L181.291 5.52539H203.792L207.491 20.1941L210.582 99.9997Z" fill="white"/>
<path d="M285.717 82.7204C283.504 78.7752 282.182 71.9501 288.386 61.7885C294.708 51.4514 301.24 49.2856 305.619 49.2856C307.843 49.2856 309.447 49.8475 310.184 50.1753L341.477 5.51367H249.917H229.676H209.061L261.835 80.8122L262.034 81.2688L275.275 99.988L275.743 99.3207L286.513 83.9496C286.232 83.5633 285.963 83.1536 285.717 82.7204Z" fill="white"/>
<path d="M429.092 22.4419C430.977 24.0458 450.071 8.70979 449.532 1.53348C448.923 -6.59108 426.189 19.9718 429.092 22.4419Z" fill="white"/>
<path d="M445.855 45.3755C443.818 43.2917 437.227 53.383 430.449 52.2591C426.878 51.6621 427.23 48.2086 427.546 46.7335C427.628 46.3472 427.944 46.0428 428.342 45.9609C435.331 44.5092 447.682 30.8473 443.491 25.9772C439.569 21.4116 428.529 28.541 424.689 33.5048C420.1 39.4284 415.804 47.6232 412.327 51.8377C405.455 60.1613 406.274 52.224 407.445 49.7422C409.915 44.5209 411.952 34.453 408.698 32.3107C405.865 30.4493 401.521 35.893 400.058 38.0236C396.382 43.3619 393.608 42.2381 395.305 37.7075C397.518 31.8424 400.21 23.4603 396.839 22.3013C392.214 20.7092 386.853 37.2509 385.354 42.8234C383.938 48.1149 376.399 67.4312 371.669 64.5514C368.59 62.6665 371.809 54.1439 373.226 51.065C376.445 44.0995 377.23 40.9854 374.865 40.0255C369.69 37.9182 362.748 55.022 360.746 58.4287C357.269 64.3523 350.866 71.634 350.55 64.5514C350.234 57.4687 361.437 48.5832 357.106 45.2233C352.786 41.8635 345.504 56.8248 345.504 56.8248C341.02 67.0215 338.901 64.9845 338.901 64.9845C338.269 54.2376 333.949 47.8457 328.74 47.8457C323.46 47.8457 318.976 53.7108 316.951 60.2901C316.026 64.6684 312.198 72.9803 304.284 77.7099C299.906 80.3205 291.102 81.3156 294.626 71.4467C294.626 71.4467 297.67 63.8255 302.844 65.8976C306.848 67.5015 313.088 55.1273 309.248 52.8328C309.248 52.8328 300.117 47.9159 290.739 63.2636C280.8 79.5127 291.383 87.0051 296.921 86.9466C303.5 86.8763 312.631 75.907 313.954 74.0456C314.879 72.7579 316.178 71.3413 316.787 72.992C319.328 79.9459 323.928 81.4209 327.277 81.3156C332.369 81.1634 334.476 76.0007 336.794 73.2378C338.925 70.7092 345.118 63.8489 345.247 68.3327C345.446 75.1109 354.834 78.7635 358.124 71.5872C361.156 64.9728 363.989 65.9562 364.469 68.8478C365.523 75.1578 369.445 73.9637 369.445 73.9637C375.321 73.9637 381.866 61.73 384.184 56.6609C386.162 52.3294 387.38 54.4952 387.122 58.1243C386.63 64.9026 384.336 71.4701 383.247 76.2465C381.971 81.8073 384.09 90.0489 387.93 90.0489C390.693 90.0489 391.606 74.9705 391.255 70.7092C391.255 65.9913 396.768 67.0332 400.667 66.7054C407.012 66.1669 411.191 60.6647 416.787 52.8913C417.103 52.4582 417.782 52.5518 417.946 53.0669C420.323 60.372 424.923 60.8286 428.096 60.3135C436.946 58.8735 447.166 46.7101 445.855 45.3755ZM436.045 31.3273C437.801 33.493 431.456 41.7581 428.564 40.0489C426.328 38.726 434.453 29.3722 436.045 31.3273ZM329.349 74.2563C325.544 77.3352 322.734 74.2915 322.746 71.0838C322.758 68.2975 322.09 64.3055 324.982 60.7232C327.382 57.7497 329.911 56.7663 329.747 60.0091C329.653 61.9524 329.255 63.7085 330.906 66.9747C332.954 71.0018 332.088 72.032 329.349 74.2563ZM401.24 52.8211C399.555 56.2161 398.197 58.136 395.949 57.5741C394.415 57.1877 394.486 54.0035 395.996 50.5265C397.834 46.3004 400.421 43.2214 401.873 43.8536C403.324 44.4858 403.558 48.1735 401.24 52.8211Z" fill="white"/>
</g>
<defs>
<clipPath id="clip0_4_6099">
<rect width="449.543" height="100" fill="white"/>
</clipPath>
</defs>
</svg>
