<svg width="574" height="100" viewBox="0 0 574 100" fill="none" xmlns="http://www.w3.org/2000/svg">
<g clip-path="url(#clip0_4_6111)">
<path d="M83.3105 72.7031H122.51V79.389H83.3105V72.7031Z" fill="white"/>
<path d="M87.252 69.5356H93.3746V87.6928H87.252V69.5356Z" fill="white"/>
<path d="M112.941 83.1185V69.5356H118.501V82.5554C118.501 91.1196 112.538 98.8124 100.344 98.8124H87.3945V91.3524H101.681C109.187 91.3524 112.941 87.8854 112.941 83.1185Z" fill="white"/>
<path d="M148.307 85.045V87.5217C148.307 90.0446 146.661 91.3528 144.425 91.3528H126.904V98.8126H144.276C149.391 98.8126 153.482 95.3559 153.482 90.4694V83.4028" fill="white"/>
<path d="M129.396 69.4697H161.245V76.536H129.396V69.4697Z" fill="white"/>
<path d="M126.908 79.3223H163.534V85.9907H126.908V79.3223Z" fill="white"/>
<path d="M199.265 85.0451V87.5218C199.265 90.0447 197.62 91.3529 195.384 91.3529H170.598V98.8127H195.235C200.35 98.8127 204.441 95.356 204.441 90.4694V79.3223" fill="white"/>
<path d="M167.416 79.3223H204.44V85.9907H167.416V79.3223Z" fill="white"/>
<path d="M170.004 69.4697H202.35V76.536H170.004V69.4697Z" fill="white"/>
<path d="M234.696 77.2334H211.332V83.9017H234.696V77.2334Z" fill="white"/>
<path d="M214.256 69.4203V87.5213C214.256 90.0442 215.901 91.3524 218.137 91.3524H245.561V98.8122H218.285C213.171 98.8122 209.08 95.3555 209.08 90.4689V69.4189" fill="white"/>
<path d="M245.574 79.4858H211.332V84.7465H245.574V79.4858Z" fill="white"/>
<path d="M236.787 69.54H240.32V77.3281H236.787V69.54Z" fill="white"/>
<path d="M242.062 69.54H245.595V77.3281H242.062V69.54Z" fill="white"/>
<path d="M249.504 92.0581H280.437V98.8144H249.504V92.0581Z" fill="white"/>
<path d="M252.652 77.9829H273.381V84.739H252.652V77.9829Z" fill="white"/>
<path d="M268.824 77.9829H273.381V95.366H268.824V77.9829Z" fill="white"/>
<path d="M281.912 80.0933H317.803V87.4124H281.912V80.0933Z" fill="white"/>
<path d="M131.248 25.7057C137.373 25.7057 142.338 30.6705 142.338 36.7948V48.2439C142.338 54.3683 137.373 59.3331 131.248 59.3331H81.7993V49.4996H124.78C127.73 49.4996 130.123 47.1072 130.123 44.1563V41.0768C130.123 38.1259 127.73 35.7337 124.78 35.7337L110.872 35.7324H92.8563C86.7321 35.7324 81.7676 30.6652 81.7676 24.4148V12.7297C81.7676 6.4792 86.7321 1.41211 92.8563 1.41211H137.575V11.4483H99.3247C96.3739 11.4483 93.9819 13.8899 93.9819 16.9017V20.0445C93.9819 23.0563 96.3739 25.7035 99.3247 25.7037L111.169 25.7046L131.248 25.7057Z" fill="white"/>
<path d="M149.193 19.0156V28.8723H175.025C177.229 28.8723 179.232 30.6513 179.232 32.8358L149.867 40.5213C147.803 41.0743 146.367 42.945 146.367 45.0817V48.3067C146.367 54.4313 151.332 59.3965 157.456 59.3965L180.921 59.3958C187.044 59.3956 192.008 54.4313 192.008 48.3067V30.1045C192.008 23.9802 187.044 19.0156 180.919 19.0156L149.193 19.0156ZM179.43 41.915V45.783C179.43 48.0823 177.567 49.9463 175.267 49.9463H162.454C160.47 49.9463 158.988 48.5682 158.615 47.1758L179.43 41.915Z" fill="white"/>
<path d="M213.087 28.9337H221.647V18.6085H213.093V1.30127H200.795V18.7068H195.688V28.9337H200.796V54.3002C200.796 57.1839 203.133 59.5215 206.017 59.5215H220.961V49.1911L213.087 49.1852V28.9337Z" fill="white"/>
<path d="M270.61 59.3262V49.4695H241.858C239.653 49.4695 237.649 47.6906 237.649 45.506L267.014 37.8206C269.08 37.2675 270.514 35.3969 270.514 33.2601V30.0351C270.514 23.9108 265.549 18.9453 259.425 18.9453L235.96 18.9461C229.838 18.9462 224.873 23.9108 224.873 30.0351V48.2373C224.873 54.3616 229.838 59.3262 235.962 59.3262H270.61ZM237.451 36.4269V32.5588C237.451 30.2595 239.314 28.3956 241.614 28.3956H254.427C256.412 28.3956 257.893 29.7736 258.267 31.166L237.451 36.4269Z" fill="white"/>
<path d="M276.908 1.30127H288.813V59.5215H276.908V1.30127Z" fill="white"/>
<path d="M295.197 1.30127H307.102V59.5215H295.197V1.30127Z" fill="white"/>
<path d="M314.201 19.0156V28.8723H340.033C342.238 28.8723 344.24 30.6513 344.24 32.8358L314.875 40.5213C312.812 41.0743 311.377 42.945 311.377 45.0817V48.3067C311.377 54.4313 316.34 59.3965 322.464 59.3965L345.929 59.3958C352.053 59.3956 357.016 54.4313 357.016 48.3067V30.1045C357.016 23.9802 352.053 19.0156 345.929 19.0156L314.201 19.0156ZM344.44 41.915V45.783C344.44 48.0823 342.575 49.9463 340.277 49.9463H327.464C325.479 49.9463 323.997 48.5682 323.625 47.1758L344.44 41.915Z" fill="white"/>
<path d="M384.69 59.9098C379.953 59.9098 377.074 58.2692 374.955 54.5996L356.861 18.8052H370.235L386.361 49.9779L402.49 18.8052H415.863L397.77 54.5996C395.65 58.2692 392.772 59.9098 388.033 59.9098H386.361H384.69Z" fill="white"/>
<path d="M419.102 18.8052H431.006V59.5216H419.102V18.8052Z" fill="white"/>
<path d="M425.105 14.5774C428.798 14.5774 431.792 11.5835 431.792 7.89048C431.792 4.19744 428.798 1.20361 425.105 1.20361C421.411 1.20361 418.418 4.19744 418.418 7.89048C418.418 11.5835 421.411 14.5774 425.105 14.5774Z" fill="white"/>
<path d="M482.622 59.3262V49.4694H453.87C451.665 49.4694 449.661 47.6905 449.661 45.5062L479.026 37.8205C481.091 37.2675 482.526 35.3968 482.526 33.2601V30.0351C482.526 23.9107 477.561 18.9453 471.437 18.9453L447.972 18.9461C441.85 18.9462 436.885 23.9107 436.885 30.0351V48.2372C436.885 54.3616 441.85 59.3262 447.974 59.3262H482.622ZM449.463 36.4268V32.5588C449.463 30.2594 451.326 28.3955 453.626 28.3955H466.439C468.424 28.3955 469.904 29.7738 470.278 31.1659L449.463 36.4268Z" fill="white"/>
<path d="M509.404 59.9098C504.667 59.9098 501.787 58.269 499.67 54.5996L481.576 18.8052H494.95L511.076 49.9779L522.189 18.8052H533.3L522.089 54.1079C520.463 57.679 517.487 59.9098 512.748 59.9098H511.076H509.404Z" fill="white"/>
<path d="M546.085 59.9098C550.822 59.9098 553.7 58.269 555.82 54.5996L573.913 18.8052H560.539L544.413 49.9779L533.3 18.8052H522.189L533.398 54.1079C535.026 57.679 538.002 59.9098 542.742 59.9098H544.413H546.085Z" fill="white"/>
<path d="M1.76172 98.8346H36.3697C26.3169 95.1262 11.1322 80.3755 5.52038 71.457C11.5249 87.8775 12.6862 95.0581 1.76172 98.8346Z" fill="white"/>
<path d="M57.291 1.08057H70.6236V29.2471C66.8145 17.8738 62.4232 7.82682 57.291 1.08057Z" fill="white"/>
<path d="M44.5254 1.08057H52.0426C59.3004 12.8605 65.6343 23.8843 70.6232 37.2948V45.658C62.895 28.2165 54.8687 11.2489 44.5254 1.08057Z" fill="white"/>
<path d="M70.6254 60.2759V52.9118C60.2126 27.6368 45.4683 10.1621 33.0063 1.04248H17.4609C45.5174 12.1402 61.8115 35.0731 70.6254 60.2759Z" fill="white"/>
<path d="M65.7926 90.3862C57.2952 104.356 35.2491 101.752 16.0288 78.8827C0.652222 60.5875 -4.6046 35.9664 4.4144 21.7246C12.7939 8.4929 37.8146 14.1502 51.717 30.947C65.4052 47.4859 76.8143 72.2677 65.7926 90.3862ZM50.5246 64.1601C44.297 64.1601 39.2485 68.1694 39.2485 73.1149C39.2485 78.0607 44.297 82.0698 50.5246 82.0698C56.7522 82.0698 61.8004 78.0607 61.8004 73.1149C61.8004 68.1694 56.7522 64.1601 50.5246 64.1601ZM46.6254 39.2957C44.5417 39.2929 42.6726 39.9807 41.3039 41.4205C38.6333 44.2294 38.8422 49.8872 41.7996 54.957C42.3637 54.8753 42.933 54.8322 43.5035 54.8292C49.177 54.8322 54.0065 58.6888 54.8965 63.9266C57.2241 64.0748 59.2906 63.4555 60.6674 62.0466C64.0341 58.6012 62.855 50.4805 57.5076 44.7849C54.1657 41.2251 50.0976 39.3009 46.6254 39.2957ZM21.5847 33.5631C19.3073 33.5492 17.2634 34.3503 15.8234 36.052C13.0839 39.2885 13.7537 44.7883 16.6634 49.6388C17.7111 49.4094 18.7933 49.2933 19.8805 49.2929C26.3654 49.2964 31.6859 53.3525 31.9233 58.4742C33.4928 58.1516 34.8811 57.3812 35.9378 56.1325C39.4828 51.944 37.2487 44.0451 31.9096 38.5872C28.7396 35.3464 24.9128 33.5838 21.5847 33.5631ZM26.1998 59.0709C19.9722 59.0709 14.9239 63.0801 14.9239 68.0259C14.9239 72.9714 19.9722 76.9807 26.1998 76.9807C32.4274 76.9807 37.4757 72.9714 37.4757 68.0259C37.4757 63.0801 32.4274 59.0709 26.1998 59.0709Z" fill="white"/>
</g>
<defs>
<clipPath id="clip0_4_6111">
<rect width="573.913" height="100" fill="white"/>
</clipPath>
</defs>
</svg>
