<svg width="809" height="100" viewBox="0 0 809 100" fill="none" xmlns="http://www.w3.org/2000/svg">
<g clip-path="url(#clip0_4_7934)">
<path d="M613.123 18.9761H572.706C569.357 18.9761 566.619 21.693 566.619 25.0628C566.619 28.4116 569.336 31.1496 572.706 31.1496H586.838V74.7469C586.838 78.0957 589.555 80.8337 592.925 80.8337C596.295 80.8337 599.012 78.1168 599.012 74.7469V31.1496H613.144C616.493 31.1496 619.231 28.4327 619.231 25.0628C619.21 21.7141 616.493 18.9761 613.123 18.9761Z" fill="white"/>
<path d="M560.216 28.2433C557.078 21.8196 550.97 16.2383 544.294 16.2383C537.617 16.2383 531.509 21.8196 528.371 28.2433C522.895 39.4059 517.714 53.8752 512.533 72.4935C511.627 75.7791 513.544 79.17 516.809 80.0757C517.356 80.2231 517.925 80.3074 518.472 80.3074C521.168 80.3074 523.654 78.5171 524.412 75.8002C525.549 71.6932 526.707 67.8179 527.845 64.1321H560.764C561.901 67.8179 563.039 71.6932 564.197 75.8002C565.103 79.0858 568.515 81.0024 571.779 80.0757C575.065 79.17 576.981 75.7581 576.055 72.4935C570.852 53.8752 565.671 39.4059 560.216 28.2433ZM531.868 51.9796C534.374 44.9872 536.88 38.9005 539.45 33.6772C540.545 31.4447 542.314 28.5803 544.294 28.5803C546.295 28.5803 548.064 31.4447 549.159 33.6772C551.728 38.9215 554.235 44.9872 556.741 51.9796H531.868Z" fill="white"/>
<path d="M407.816 28.2433C404.678 21.8196 398.57 16.2383 391.893 16.2383C385.217 16.2383 379.109 21.8196 375.971 28.2433C370.495 39.4059 365.314 53.8752 360.133 72.4935C359.227 75.7791 361.144 79.17 364.408 80.0757C364.956 80.2231 365.524 80.3074 366.072 80.3074C368.768 80.3074 371.253 78.5171 372.011 75.8002C373.149 71.6932 374.307 67.8179 375.444 64.1321H408.342C409.48 67.8179 410.617 71.6932 411.775 75.8002C412.681 79.0858 416.093 81.0024 419.358 80.0757C422.643 79.17 424.56 75.7581 423.633 72.4935C418.452 53.8752 413.271 39.4059 407.816 28.2433ZM379.446 51.9586C381.952 44.9662 384.459 38.8794 387.028 33.6561C388.123 31.4236 389.893 28.5593 391.872 28.5593C393.873 28.5593 395.642 31.4236 396.738 33.6561C399.307 38.9005 401.813 44.9662 404.32 51.9586H379.446Z" fill="white"/>
<path d="M358.532 51.3476C358.532 51.1791 358.532 51.0106 358.511 50.8632C358.511 50.8211 358.511 50.7789 358.49 50.7368C358.469 50.5683 358.448 50.4209 358.427 50.2524C358.427 50.2103 358.405 50.1682 358.405 50.126C358.363 49.9786 358.342 49.8101 358.279 49.6627C358.258 49.6206 358.258 49.5784 358.237 49.5363C358.195 49.3889 358.132 49.2415 358.068 49.094C358.047 49.0519 358.026 49.0098 358.026 48.9676C357.963 48.8202 357.9 48.6939 357.837 48.5464C357.816 48.5043 357.795 48.4622 357.774 48.42C357.689 48.2937 357.626 48.1673 357.542 48.0409C357.521 47.9988 357.5 47.9567 357.458 47.9356C357.373 47.8093 357.289 47.704 357.184 47.5776C357.163 47.5355 357.121 47.5144 357.1 47.4723C356.994 47.367 356.91 47.2406 356.805 47.1353C356.763 47.0932 356.742 47.0721 356.699 47.03C356.594 46.9247 356.489 46.8194 356.384 46.7351C356.341 46.7141 356.299 46.6719 356.278 46.6509C356.173 46.5666 356.047 46.4824 355.92 46.3981C355.878 46.3771 355.836 46.335 355.794 46.3139C355.667 46.2297 355.562 46.1665 355.436 46.0822C355.394 46.0612 355.33 46.0401 355.288 45.998C355.162 45.9348 355.036 45.8716 354.909 45.8084C354.846 45.7874 354.783 45.7663 354.741 45.7452C354.614 45.7031 354.488 45.6399 354.362 45.6189C354.298 45.5978 354.235 45.5767 354.151 45.5557C354.025 45.5136 353.898 45.4925 353.793 45.4714C353.709 45.4504 353.646 45.4504 353.561 45.4293C353.435 45.4083 353.33 45.3872 353.203 45.3661C353.119 45.3661 353.035 45.3451 352.951 45.3451C352.866 45.3451 352.803 45.324 352.719 45.324C352.677 45.324 352.635 45.324 352.592 45.324C352.571 45.324 352.529 45.324 352.508 45.324H329.509C326.16 45.324 323.422 48.0409 323.422 51.4108C323.422 54.7596 326.139 57.4976 329.509 57.4976H345.6C342.82 68.7865 333.827 70.661 327.571 70.661C315.166 70.661 306.489 61.2676 306.489 47.8303C306.489 38.0157 316.535 29.0856 327.571 29.0856C334.332 29.0856 339.345 30.6231 344.863 34.372C347.643 36.2676 351.413 35.5304 353.309 32.7714C355.204 29.9912 354.467 26.2212 351.708 24.3257C344.189 19.2077 336.754 16.9331 327.592 16.9331C318.978 16.9331 310.743 20.1766 304.362 26.0949C298.001 31.971 294.357 39.9112 294.357 47.8303C294.357 58.0241 297.748 66.8489 304.172 73.3147C310.259 79.4436 318.578 82.8135 327.592 82.8135C336.059 82.8135 343.494 80.3703 349.117 75.7579C353.793 71.9247 358.132 64.6374 358.595 51.6214C358.595 51.5582 358.595 51.5161 358.595 51.4529C358.595 51.4318 358.595 51.4108 358.595 51.4108C358.532 51.4108 358.532 51.3897 358.532 51.3476Z" fill="white"/>
<path d="M288.313 68.6603H259.775V54.9282H279.741C283.09 54.9282 285.828 52.2113 285.828 48.8414C285.828 45.4926 283.111 42.7546 279.741 42.7546H259.775V31.1076H288.313C291.662 31.1076 294.4 28.3907 294.4 25.0209C294.4 21.6721 291.683 18.9341 288.313 18.9341H253.688C250.34 18.9341 247.602 21.651 247.602 25.0209V74.7049C247.602 78.0537 250.319 80.7917 253.688 80.7917H288.313C291.662 80.7917 294.4 78.0748 294.4 74.7049C294.379 71.3772 291.662 68.6603 288.313 68.6603Z" fill="white"/>
<path d="M511.838 60.6571C511.038 50.7793 503.056 43.2603 493.473 43.2603C493.262 43.2603 493.073 43.2603 492.862 43.2603H487.323C487.281 43.2603 487.239 43.2603 487.218 43.2603H473.759H473.507C470.137 43.3867 467.293 40.6908 466.999 37.0893C466.809 34.2881 468.178 31.4869 469.947 31.0868L470.284 31.0025C478.203 28.7489 495.095 29.3387 501.013 31.4869C504.172 32.6243 507.647 30.9815 508.785 27.8222C509.922 24.663 508.279 21.1879 505.12 20.0505C496.4 16.9124 476.94 16.5333 467.083 19.2923C459.48 21.1036 454.214 29.107 454.867 37.9949V38.0581C455.667 47.936 463.65 55.4549 473.233 55.4549C473.443 55.4549 473.633 55.4549 473.844 55.4549H479.383C479.425 55.4549 479.467 55.4549 479.488 55.4549H492.946H493.199C496.569 55.3285 499.412 58.0244 499.707 61.6259C499.897 64.4271 498.528 67.2283 496.758 67.6285L496.421 67.7127C488.502 69.9663 471.611 69.3766 465.693 67.2283C462.534 66.091 459.058 67.7338 457.921 70.893C456.784 74.0522 458.427 77.5274 461.586 78.6647C466.367 80.3917 474.391 81.2763 482.289 81.2763C488.776 81.2763 495.179 80.6655 499.623 79.4229C507.226 77.6116 512.491 69.6082 511.838 60.7203V60.6571Z" fill="white"/>
<path d="M242.378 60.6571C241.577 50.7793 233.595 43.2603 224.012 43.2603C223.801 43.2603 223.612 43.2603 223.401 43.2603H217.862C217.82 43.2603 217.778 43.2603 217.757 43.2603H204.298H204.046C200.676 43.3867 197.832 40.6908 197.538 37.0893C197.348 34.2881 198.717 31.4869 200.486 31.0868L200.823 31.0025C208.742 28.7489 225.634 29.3387 231.552 31.4869C234.711 32.6243 238.186 30.9815 239.324 27.8222C240.461 24.663 238.818 21.1879 235.659 20.0505C226.939 16.9124 207.479 16.5333 197.622 19.2923C190.019 21.1036 184.753 29.107 185.406 37.9949V38.0581C186.207 47.936 194.189 55.4549 203.772 55.4549C203.982 55.4549 204.172 55.4549 204.383 55.4549H209.922C209.964 55.4549 210.006 55.4549 210.027 55.4549H223.485H223.738C227.108 55.3285 229.951 58.0244 230.246 61.6259C230.436 64.4271 229.067 67.2283 227.298 67.6285L226.961 67.7127C219.041 69.9663 202.15 69.3766 196.232 67.2283C193.073 66.091 189.597 67.7338 188.46 70.893C187.323 74.0522 188.966 77.5274 192.125 78.6647C196.906 80.3917 204.93 81.2763 212.828 81.2763C219.315 81.2763 225.718 80.6655 230.162 79.4229C237.765 77.6116 243.03 69.6082 242.378 60.7203V60.6571Z" fill="white"/>
<path d="M676.055 16.3647C672.749 16.3647 670.074 19.0396 670.074 22.3462V59.2881C670.074 64.9958 661.944 70.0084 652.656 70.0084C643.389 70.0084 635.238 64.9958 635.238 59.2881V22.3462C635.238 19.0396 632.563 16.3647 629.257 16.3647C625.95 16.3647 623.275 19.0396 623.275 22.3462V59.2881C623.275 65.6276 626.687 71.7144 632.627 75.9477C638.039 79.8231 645.158 81.9503 652.635 81.9503C660.112 81.9503 667.21 79.8231 672.644 75.9477C678.583 71.7144 681.995 65.6276 681.995 59.2881V22.3462C682.037 19.0396 679.362 16.3647 676.055 16.3647Z" fill="white"/>
<path d="M730.33 57.1185C729.93 56.7393 730.161 56.0443 730.73 56.0022C741.83 55.3072 745.136 46.9879 745.705 39.9112C745.705 39.8901 745.705 39.8691 745.705 39.848C746.063 34.8354 744.104 29.5068 740.482 25.6104C737.659 22.5776 732.499 18.9761 723.864 18.9761C717.461 18.9761 710.258 19.0814 704.129 19.2709C694.062 19.5869 693.346 19.8396 692.398 20.1976C689.997 21.0612 688.396 23.3358 688.396 25.8842V74.4099C688.396 77.864 691.282 80.6441 694.757 80.4757C698.022 80.3282 700.549 77.506 700.549 74.2414V31.5708C705.878 31.3602 714.702 31.1286 723.864 31.1286C727.276 31.1286 729.867 32.0553 731.573 33.8876C733.3 35.741 733.637 37.9314 733.573 38.9634C733.426 40.8379 732.92 46.3771 722.979 46.3771H717.777C715.102 46.3771 712.617 47.8935 711.543 50.3366C710.406 52.9272 711.017 55.9179 713.081 57.8345L735.953 79.2751C737.133 80.3703 738.628 80.9179 740.102 80.9179C741.724 80.9179 743.346 80.265 744.546 79.0013C746.842 76.5582 746.716 72.704 744.273 70.4083L730.33 57.1185Z" fill="white"/>
<path d="M802.571 19.0816C799.265 19.0816 796.59 21.7564 796.59 25.0631V59.1195L762.365 21.0614C760.701 19.208 758.089 18.5762 755.773 19.4818C753.456 20.3664 751.939 22.5989 751.939 25.0631V74.7472C751.939 78.0538 754.614 80.7286 757.921 80.7286C761.228 80.7286 763.902 78.0538 763.902 74.7472V40.6907L798.127 78.7489C799.286 80.0336 800.907 80.7286 802.571 80.7286C803.287 80.7286 804.025 80.6023 804.72 80.3285C807.036 79.4439 808.553 77.2114 808.553 74.7472V25.0631C808.553 21.7564 805.878 19.0816 802.571 19.0816Z" fill="white"/>
<path d="M52.4439 90.775C50.5273 89.2586 48.716 87.5737 46.9679 85.8677C46.1044 85.0252 45.2619 84.1617 44.3984 83.3193C43.8087 82.7506 43.1557 82.2241 42.6081 81.6133C34.3731 82.4136 26.6014 82.6664 19.6932 82.3083C16.176 82.1188 13.2063 84.8568 13.0589 88.374C12.9325 91.8492 15.6915 94.7346 19.1667 94.9242C21.4624 95.0295 23.8213 95.0926 26.2434 95.0926C35.2156 95.0926 45.0513 94.3134 55.2872 92.818C54.2973 92.1651 53.3495 91.4911 52.4439 90.775Z" fill="white"/>
<path d="M158.384 37.5529C157.773 33.825 155.751 30.8343 152.508 28.8755C140.903 21.841 114.597 29.8233 72.6424 43.8082C57.9625 48.6944 44.1041 53.2016 32.6255 56.2555C23.0636 58.8039 17.7983 59.4568 15.0392 59.2252C13.2068 59.0567 12.7646 57.3718 13.2911 56.3187C13.4806 55.9396 13.7334 55.5394 14.0282 55.0971C17.04 50.7584 23.9903 45.9143 33.7629 41.1333C33.9735 39.8697 34.2262 38.606 34.5 37.3633C34.837 35.9101 35.2372 34.4779 35.6373 33.0247C35.848 32.3296 36.0586 31.6557 36.3113 30.9817C36.564 30.3499 36.8379 29.7391 37.1327 29.1283C37.8277 27.654 38.6281 26.2429 39.3442 24.7686C24.7907 30.7079 10.0897 38.5849 3.64493 47.852C-1.19922 54.8023 -0.335696 60.7627 1.22285 64.5327C5.20348 74.1156 18.725 72.4097 31.425 69.4821C44.0619 66.5546 59.8791 61.2892 76.602 55.729C92.7561 50.3372 109.458 44.777 122.916 41.5756C135.574 38.5428 141.471 38.606 144.083 39.0483C145.305 39.2589 146.042 40.5226 145.62 41.6809C145.01 43.3659 143.683 45.0508 142.756 46.0828C139.534 49.6843 134.395 53.4122 127.781 57.0769C127.676 58.1089 127.508 59.1199 127.297 60.1308C127.002 61.563 126.623 62.9741 126.202 64.3642C125.844 65.5647 125.423 66.7441 125.107 67.9446C124.77 69.2083 124.454 70.4931 124.054 71.7568C123.885 72.2833 123.695 72.8098 123.485 73.3153C136.438 67.397 146.4 60.9311 152.15 54.5074C157.204 48.905 159.31 43.1974 158.384 37.5529Z" fill="white"/>
<path d="M104.002 8.23506C105.434 9.11964 106.846 10.0463 108.215 11.0152C108.53 11.2258 108.846 11.4575 109.141 11.6891C109.415 11.9208 109.689 12.1525 109.942 12.3842C110.447 12.8686 110.953 13.3741 111.416 13.8795C112.385 14.9116 113.29 15.9857 114.28 16.9966C114.554 17.2915 114.849 17.5653 115.144 17.8391C123.695 16.7228 131.34 16.2174 137.448 16.449C140.923 16.5965 143.872 13.8795 143.998 10.3833C144.124 6.90819 141.429 3.95958 137.932 3.83321C128.56 3.47516 115.986 4.67567 102.17 7.09774C102.781 7.47685 103.391 7.85595 104.002 8.23506Z" fill="white"/>
<path d="M80.0977 4.2123C86.2897 4.2123 92.2712 5.41281 97.9157 7.81382C103.371 10.1306 108.257 13.4162 112.469 17.6285C116.681 21.8408 119.988 26.727 122.284 32.182C124.664 37.8265 125.885 43.829 125.885 50C125.885 56.171 124.685 62.1735 122.284 67.818C119.967 73.273 116.681 78.1592 112.469 82.3715C108.257 86.5838 103.371 89.8905 97.9157 92.1862C92.2712 94.5661 86.2687 95.7877 80.0977 95.7877C73.9266 95.7877 67.9241 94.5872 62.2796 92.1862C56.8247 89.8694 51.9384 86.5838 47.7261 82.3715C43.5138 78.1592 40.2072 73.273 37.9115 67.818C35.5315 62.1735 34.31 56.171 34.31 50C34.31 43.829 35.5105 37.8265 37.9115 32.182C40.2282 26.727 43.5138 21.8408 47.7261 17.6285C51.9384 13.4162 56.8247 10.1095 62.2796 7.81382C67.9031 5.43387 73.9056 4.2123 80.0977 4.2123ZM80.0977 0C52.486 0 30.0977 22.3884 30.0977 50C30.0977 77.6116 52.486 100 80.0977 100C107.709 100 130.098 77.6116 130.098 50C130.098 22.3884 107.709 0 80.0977 0Z" fill="white"/>
</g>
<defs>
<clipPath id="clip0_4_7934">
<rect width="808.551" height="100" fill="white"/>
</clipPath>
</defs>
</svg>
