<svg width="484" height="100" viewBox="0 0 484 100" fill="none" xmlns="http://www.w3.org/2000/svg">
<g clip-path="url(#clip0_4_7904)">
<path d="M25.0936 70.2831C24.1737 69.5522 23.3167 68.7582 22.4723 67.939C22.0564 67.5358 21.6532 67.1199 21.2373 66.7166C20.96 66.4394 20.645 66.1873 20.3803 65.8975C16.4358 66.2755 12.7307 66.4016 9.41624 66.2251C7.74013 66.1369 6.31606 67.4476 6.24044 69.1237C6.17743 70.7872 7.50068 72.1609 9.1642 72.2617C10.2606 72.3121 11.3948 72.3373 12.5542 72.3373C16.8517 72.3373 21.5524 71.9592 26.4421 71.2535C25.9758 70.9384 25.5221 70.6234 25.0936 70.2831Z" fill="white"/>
<path d="M75.7547 44.8261C75.4648 43.0492 74.4944 41.6125 72.9443 40.6799C67.3993 37.3151 54.8095 41.1336 34.7465 47.8255C27.727 50.1569 21.0981 52.3119 15.6035 53.7738C11.0288 54.9963 8.5083 55.2987 7.19766 55.1979C6.31549 55.1223 6.11385 54.3157 6.3659 53.8116C6.45411 53.6352 6.58014 53.4336 6.71876 53.2319C8.15544 51.1525 11.4825 48.8337 16.158 46.5527C16.2588 45.9477 16.3848 45.3428 16.5108 44.7505C16.6747 44.0574 16.8637 43.3642 17.0527 42.6711C17.1535 42.3435 17.2544 42.0158 17.3804 41.6881C17.5064 41.3857 17.6324 41.0958 17.7711 40.806C18.0987 40.1002 18.4894 39.4197 18.8297 38.7266C11.8731 41.5621 4.84101 45.3302 1.75342 49.7663C-0.565419 53.0933 -0.14954 55.9414 0.594001 57.7436C2.49696 62.3309 8.96199 61.5117 15.0363 60.1128C21.0855 58.714 28.6469 56.1935 36.6494 53.5344C44.3747 50.9509 52.3646 48.2918 58.8045 46.7669C64.8536 45.3176 67.6765 45.3428 68.9242 45.5571C69.5039 45.6579 69.8568 46.2628 69.6551 46.8173C69.3653 47.6239 68.7225 48.4304 68.2815 48.9219C66.744 50.6484 64.2865 52.4254 61.1233 54.1771C61.0729 54.6686 60.9973 55.1601 60.8965 55.639C60.7578 56.3195 60.5688 57 60.3672 57.668C60.1907 58.2477 59.9891 58.8022 59.8379 59.3819C59.674 59.9868 59.5228 60.6043 59.3338 61.2092C59.2581 61.4613 59.1573 61.7133 59.0565 61.9528C65.2569 59.1172 70.0206 56.0297 72.7679 52.9547C75.1876 50.2578 76.1958 47.523 75.7547 44.8261Z" fill="white"/>
<path d="M49.7426 30.7998C50.4231 31.2283 51.1037 31.6694 51.759 32.1357C51.9102 32.2365 52.0615 32.3499 52.2001 32.4633C52.3261 32.5768 52.4647 32.6902 52.5782 32.791C52.8176 33.0178 53.057 33.2699 53.2839 33.5093C53.7502 34.0008 54.1787 34.5175 54.6575 34.9964C54.7836 35.135 54.9348 35.2737 55.0734 35.3997C59.1692 34.8704 62.8239 34.6184 65.735 34.7318C67.3986 34.8074 68.81 33.4967 68.873 31.8332C68.9361 30.1697 67.638 28.7582 65.9745 28.6952C61.488 28.5188 55.4767 29.0985 48.873 30.2579C49.1629 30.4344 49.4528 30.6234 49.7426 30.7998Z" fill="white"/>
<path d="M38.3139 28.8719C41.2754 28.8719 44.1362 29.4517 46.8331 30.5985C49.4418 31.7075 51.7732 33.2828 53.7896 35.2866C55.806 37.3029 57.3813 39.6344 58.4777 42.2431C59.6119 44.94 60.2042 47.8133 60.2042 50.7623C60.2042 53.7113 59.6245 56.5846 58.4777 59.2815C57.3687 61.8902 55.7934 64.2217 53.7896 66.238C51.7732 68.2544 49.4418 69.8297 46.8331 70.9261C44.1362 72.0603 41.2628 72.6527 38.3139 72.6527C35.3649 72.6527 32.4916 72.073 29.7947 70.9261C27.186 69.8171 24.8545 68.2418 22.8381 66.238C20.8218 64.2343 19.2465 61.8902 18.15 59.2815C17.0158 56.5846 16.4235 53.7113 16.4235 50.7623C16.4235 47.8133 17.0032 44.94 18.15 42.2431C19.2591 39.6344 20.8344 37.3029 22.8381 35.2866C24.8545 33.2702 27.186 31.6949 29.7947 30.5985C32.479 29.4643 35.3523 28.8719 38.3139 28.8719ZM38.3139 26.8682C25.1066 26.8682 14.3945 37.5802 14.3945 50.7875C14.3945 63.9948 25.1066 74.7069 38.3139 74.7069C51.5212 74.7069 62.2332 63.9948 62.2332 50.7875C62.2332 37.5802 51.5212 26.8682 38.3139 26.8682Z" fill="white"/>
<path d="M257.669 0.794198C258.047 0.605162 258.488 0.390921 258.993 0.164078C260.656 -0.617271 261.979 1.71417 260.454 2.74757C259.925 3.11304 259.446 3.4407 259.056 3.70535C254.166 7.1332 249.894 11.166 249.894 24.8018C249.894 41.9284 264.071 58.6266 264.071 71.0399C264.071 80.6682 261.349 89.5025 239.988 99.8616C239.282 100.202 238.451 99.9372 238.06 99.2693C237.644 98.551 237.921 97.631 238.64 97.2403C247.172 92.6783 249.679 83.2265 249.314 75.1105C248.558 58.2233 234.884 43.7054 235.136 29.8553C235.287 21.5881 238.564 10.4098 257.669 0.794198Z" fill="white"/>
<path d="M244.324 69.6029C243.114 69.1492 240.657 67.8512 239.107 64.4233L222.181 26.8934C221.463 25.2929 219.22 25.2299 218.413 26.78L205.887 50.5607C205.244 51.7957 203.958 52.5645 202.572 52.5645H187.55H187.046C186.542 52.5645 186.038 52.9678 185.962 53.4593C185.861 54.102 186.328 54.6565 186.945 54.7069C191.117 55.085 193.624 57.8701 193.587 62.3691C193.561 66.5153 190.096 69.918 185.937 69.918H184.853C173.725 69.918 173.246 57.1392 173.246 54.3414C173.246 51.09 173.246 44.562 173.246 44.562C173.246 39.7605 175.175 31.3421 184.551 31.3421C193.309 31.3421 198.224 35.3748 202.232 40.7182C202.887 41.6004 204.286 40.8695 203.946 39.8235L200.43 28.809C200.089 27.7504 198.842 27.2841 197.884 27.8638C195.301 29.4517 193.788 29.187 193.788 29.187C192.515 29.2249 188.47 28.078 183.555 28.078C175.716 28.078 169.377 31.1908 165.042 35.3748C164.614 35.7907 163.895 35.6521 163.681 35.085L161.74 30.3591C161.337 29.3761 160.82 28.746 159.762 28.746H137.43V28.7334H125.811C125.067 28.7334 124.349 28.7082 123.606 28.6703C119.623 28.4561 105.635 27.7252 98.4764 27.7252C89.5035 27.7252 82.4713 30.5355 81.7656 37.1518C81.2363 42.1297 84.6894 44.7258 86.6679 46.5405C87.7391 47.5235 92.7801 50.7119 95.3636 51.9092C98.0605 53.1568 108.823 58.5506 107.714 62.8228C106.605 67.0572 102.963 68.1032 98.7662 68.1032C92.1752 68.1032 85.1052 62.6464 79.8626 57.7567C78.9553 56.8997 77.5438 57.9583 78.1109 59.0799C80.2785 63.3143 83.051 68.4687 84.8658 71.1908C85.3825 71.9596 86.3151 72.3376 87.2224 72.0982C89.1758 71.6067 91.7089 71.3421 93.2464 71.4177C95.225 71.5059 99.3711 72.0478 101.186 72.0478C116.284 72.0478 121.009 68.078 121.501 61.1971C122.181 51.7327 110.877 45.4315 103.996 42.6716C97.8463 40.1889 95.4644 36.4586 95.729 34.6061C96.1575 31.3925 99.2199 30.8506 101.778 30.9514C109.718 31.2538 124.689 35.1228 124.689 40.567C124.689 40.567 124.689 64.7762 124.689 65.8348C124.689 67.2463 123.152 69.792 121.198 69.792H121.161C120.808 69.792 120.455 69.918 120.203 70.17C119.522 70.8506 120.001 71.6445 120.644 71.6445H129.075H137.43H161.261C162.03 71.6445 162.698 71.1908 163.001 70.4725L164.299 67.3093C164.551 66.7044 165.319 66.5153 165.811 66.9564C170.058 70.8001 176.284 73.2072 184.79 73.2072C186.769 73.2072 190.89 72.6653 192.805 71.9596C193.41 71.7453 194.066 71.6193 194.708 71.6193H210.65H213.221C214.166 71.6193 214.62 70.4347 213.914 69.8046C213.599 69.5273 213.322 69.2753 213.12 69.0862C211.608 67.7126 211.671 66.78 211.633 65.986C211.595 65.2047 211.759 64.4359 212.125 63.7302L223.417 42.2809L233.07 63.6924C233.398 64.4107 233.549 65.1921 233.486 65.9734C233.473 66.0743 233.473 66.1625 233.461 66.2381C233.284 67.2463 232.377 69.2879 230.675 69.2879H230.398C229.982 69.2879 229.566 69.4265 229.251 69.7037C228.306 70.5481 228.886 71.6067 229.718 71.6067H243.996C244.652 71.6067 245.181 71.0144 245.042 70.3339C244.954 70.0314 244.689 69.7289 244.324 69.6029ZM161.413 39.7983C159.472 42.8606 158.413 46.0995 158.413 48.9476C158.413 52.7409 159.119 56.4586 160.594 59.7857C160.921 60.5166 160.77 61.3736 160.216 61.9407C157.481 64.7132 151.507 68.5821 142.963 68.5821H140.871C138.968 68.5821 137.418 67.0446 137.418 65.1291V53.4971V52.8795C137.418 52.2368 138.388 51.4303 139.485 51.6445C141.161 51.9722 144.097 53.0182 146.454 54.3792C148.105 55.337 149.592 56.3326 151.306 57.7567C152.062 58.3742 153.196 57.8323 153.196 56.8619V53.2072V45.986V42.3313C153.196 41.361 152.049 40.8191 151.306 41.4366C149.592 42.848 148.105 43.8436 146.454 44.814C144.11 46.1625 141.072 47.5865 139.409 47.9772C138.123 48.2797 137.67 47.7756 137.43 47.2841V46.5784V35.1606C137.43 33.3458 138.905 31.8714 140.72 31.8714H144.941C151.86 31.8714 158.187 35.8411 161.211 38.4624C161.602 38.7775 161.69 39.3698 161.413 39.7983Z" fill="white"/>
<path d="M483.768 29.2508C483.668 28.9483 483.365 28.7593 483.038 28.7593H479.723H473.485H470.171C469.843 28.7593 469.553 28.9483 469.44 29.2508C469.301 29.6666 469.528 30.0825 469.906 30.2085C471.103 30.5992 473.964 31.8595 473.964 34.8588V52.8928C473.964 53.586 473.157 53.9514 472.628 53.5104L453.674 37.7826C447.763 32.8676 439.383 29.6036 433.85 27.8141C432.628 27.4234 431.784 29.0365 432.817 29.8053C432.993 29.9439 433.183 30.0825 433.372 30.2211C439.685 34.9722 440.366 41.7775 440.366 42.5463V66.7933V67.9653C440.366 68.8727 439.622 69.6162 438.715 69.6162C436.598 69.6162 431.872 66.1758 429.452 63.6553C427.184 61.286 426.1 58.0094 423.554 55.0227C421.525 52.6534 419.811 51.7712 419.811 51.7712C432.552 51.7712 432.93 41.4373 432.93 40.2778C432.93 38.5513 432.93 28.7341 416.976 28.7341H380.164H373.901C373.573 28.7341 373.283 28.9231 373.17 29.2255C373.031 29.6414 373.258 30.0699 373.636 30.1833C374.833 30.574 377.694 31.8342 377.694 34.8336V57.5305C377.694 65.3692 372.212 67.9905 367.814 67.9905C359.799 67.9905 356.724 63.2646 356.724 57.3289V53.8884V34.8336C356.724 31.8216 359.585 30.5614 360.782 30.1833C361.097 30.0825 361.298 29.8053 361.298 29.4776V29.465C361.298 29.0617 360.971 28.7215 360.555 28.7215H346.188H343.983H315.01H300.252C299.358 28.7215 298.526 29.2382 298.135 30.0447L295.766 34.9596C295.363 35.804 296.321 36.6358 297.102 36.1191C300.278 33.964 305.621 31.494 313.435 31.1915C314.292 31.1663 314.997 31.8468 314.997 32.7038V63.8191C314.997 65.2936 314.455 66.4404 313.712 67.31C313.145 67.9905 312.288 68.3686 311.393 68.3686H309.477C308.86 68.3686 308.23 68.2048 307.7 67.8519C306.478 67.0579 305.331 65.9489 304.625 64.3862L287.7 26.8563C286.97 25.2558 284.739 25.1928 283.932 26.7429L266.327 60.1518L261.248 69.7801L261.601 71.62H266.705H267.612H278.702C279.648 71.62 280.101 70.4354 279.395 69.8053C279.395 69.8053 279.383 69.8053 279.383 69.7927C279.068 69.5154 278.803 69.276 278.602 69.0869C277.102 67.7385 277.152 66.8059 277.114 66.0119C277.077 65.218 277.24 64.424 277.606 63.7309L288.91 42.2816L298.564 63.6931C298.891 64.4114 299.043 65.1928 298.98 65.9741C298.967 66.075 298.967 66.1632 298.954 66.2388C298.778 67.247 297.871 69.2886 296.169 69.2886H296.144C295.804 69.2886 295.464 69.3894 295.199 69.6036C294.09 70.4606 294.682 71.6074 295.539 71.6074H309.767H310.599H321.84H325.155H331.947C332.527 71.6074 333.031 71.1663 333.056 70.5866C333.082 70.1203 332.792 69.6792 332.363 69.528C330.939 68.9861 327.789 67.3604 327.789 63.8065V32.7038C327.789 31.8216 328.507 31.1537 329.389 31.1915C335.426 31.431 340 32.9559 343.214 34.6446C343.731 34.9218 344.058 35.4511 344.058 36.0308V56.0813H344.109C344.625 65.2936 348.998 72.3635 365.016 72.3635C374.304 72.3635 383 67.499 383 58.5387C383 57.4423 383 35.5646 383 35.5646C383 34.2035 383.428 33.2457 383.97 32.5778C384.764 31.6074 385.974 31.0907 387.234 31.0907H389.125C390.385 31.0907 391.607 31.6074 392.389 32.5778C392.93 33.2583 393.359 34.2161 393.359 35.5646V63.378C393.359 67.5116 390.082 69.0743 388.545 69.5784C388.179 69.6918 387.889 69.9943 387.801 70.385C387.675 71.0655 388.179 71.6578 388.835 71.6578H395.678H403.403H410.561C411.002 71.6578 411.418 71.3932 411.569 70.9773C411.784 70.385 411.469 69.7675 410.927 69.591C409.427 69.0995 406.075 67.5368 406.075 63.378V37.0138V33.8758C406.075 31.5192 408.104 30.6622 409.49 30.6622H413.472C417.177 30.6622 420.857 33.7876 420.857 39.005C420.857 46.6547 415.879 48.5072 413.838 48.5072C412.477 48.5072 411.418 48.5324 410.284 48.1165C410.284 48.1165 410.271 48.1165 410.271 48.1039C409.553 47.7637 408.797 48.4316 409.024 49.1751C409.036 49.2129 409.036 49.2382 409.049 49.2382C410.246 53.2835 412.389 59.4713 415.325 63.4158C419.874 69.5532 428.507 74.4429 443 74.4429H449.225C449.616 74.4429 449.981 74.2035 450.095 73.8506C450.259 73.3465 449.981 72.8424 449.515 72.6912C448.268 72.3131 445.621 71.1915 445.621 68.3686V48.0031C445.621 47.31 446.428 46.9445 446.957 47.3856L477.039 72.3635C477.908 73.0819 479.206 72.4644 479.206 71.3428V34.8714C479.206 31.8595 482.067 30.5992 483.264 30.2211C483.668 30.0951 483.907 29.6792 483.768 29.2508Z" fill="white"/>
</g>
<defs>
<clipPath id="clip0_4_7904">
<rect width="483.806" height="100" fill="white"/>
</clipPath>
</defs>
</svg>
