<svg width="389" height="100" viewBox="0 0 389 100" fill="none" xmlns="http://www.w3.org/2000/svg">
<g clip-path="url(#clip0_4_6176)">
<path d="M386.087 36.7267L376.325 36.6884H375.905L375.796 37.0958L372.505 49.0105L372.486 49.0825V49.159L372.437 66.3619H365.461L367.083 47.4958C367.168 46.4811 366.824 46.3737 366.318 47.2531L339.186 94.4119C338.683 95.2958 337.439 95.9252 336.43 95.8178L328.608 94.984C327.597 94.8766 326.542 93.9899 326.258 93.0134L320.622 73.6237H323.575H324.13V73.0664V52.8208H331.752L336.564 70.7002C336.827 71.6796 337.44 71.7546 337.93 70.8649L363.303 24.4208H373.646H374.043L374.172 24.0399L378.836 10.0178L386.555 10.6899C387.565 10.7796 388.318 11.6796 388.228 12.6928L386.087 36.7267ZM381.719 85.8428H376.987H376.643L376.493 86.1517L375.577 88.0119L371.903 88.4987L371.458 88.5561L371.425 89.009L370.711 99.1722L364.55 98.5325C363.543 98.4266 362.787 97.5119 362.874 96.4972L365.365 67.4708H372.987H373.54L373.542 66.9164L373.589 49.234L376.742 37.8016L385.986 37.8384L381.719 85.8428ZM378.608 99.9899L371.812 99.2869L372.499 89.5369L376.018 89.0737L376.309 89.034L376.44 88.7693L377.337 86.9546H381.622L380.609 98.3414C380.518 99.3517 379.617 100.096 378.608 99.9899ZM310.661 39.3384C310.374 38.3634 310.03 38.3884 309.889 39.3958L305.768 69.0943H298.169L295.615 67.7031L295.493 67.634L295.355 67.6325L290.618 67.6046L296.359 28.9414H303.903H304.308L304.43 28.5561L306.608 21.6899H323.371L331.447 51.7134H323.574H323.017V52.2649V72.5149H320.293L310.661 39.3384ZM300.727 92.0561L288.996 91.0281C287.984 90.9399 287.278 90.0458 287.428 89.0384L289.193 77.1722L304.397 78.9869L302.817 90.3869C302.678 91.3928 301.739 92.1428 300.727 92.0561ZM295.211 68.7428L297.765 70.134L297.89 70.2031H298.03H305.617L304.549 77.8855L289.355 76.0752L290.452 68.7105L295.211 68.7428ZM302.2 2.21341L316.744 3.67959C317.756 3.78253 318.797 4.66929 319.061 5.65165L323.077 20.5781H306.209H305.803L305.68 20.9649L303.502 27.8325H296.528L300.093 3.85753C300.24 2.85165 301.19 2.11194 302.2 2.21341ZM370.631 11.0031C371.119 10.109 372.346 9.45018 373.356 9.53988L377.702 9.91782L373.247 23.3105H363.909L370.631 11.0031Z" fill="white"/>
<path d="M297.708 1.49409L291.76 36.7103H285.586H285.03V37.2647V40.2132L283.575 41.6397L283.41 41.8014L283.408 42.0338L283.373 53.7264L283.372 54.2823H283.926H288.791L286.77 66.2382L282.578 69.5397L278.66 69.5073H278.47L278.32 69.622L275.179 72.0338L274.961 72.1985V72.4735V77.3779L263.967 81.4456L251.698 60.7294L265.261 49.3882L271.811 61.0632C272.31 61.95 272.829 61.85 272.966 60.8441L278.151 23.1014H283.369H283.569L283.725 22.972L285.797 21.2294L285.995 21.0647V20.8044V12.0823L287.317 10.6691L287.467 10.5103V10.2912V7.4588L288.751 6.31909L288.936 6.15439V5.90292V1.50439L296.207 0.0367397C297.201 -0.166201 297.876 0.492622 297.708 1.49409ZM284.517 42.2676L285.973 40.8397L286.139 40.6764V40.4426V37.8191H291.573L288.982 53.172H284.486L284.517 42.2676ZM282.863 89.4073C282.695 90.4103 281.741 91.3867 280.744 91.5735L272.869 93.0662C271.875 93.2529 270.63 92.6926 270.111 91.8191L264.545 82.4132L275.71 78.2838L276.07 78.15V77.7632V72.747L278.842 70.6206L282.761 70.6514L282.957 70.6529L283.11 70.5338L286.5 67.8632L282.863 89.4073ZM225.847 13.6412L241.395 10.4191C242.385 10.2132 243.607 10.7706 244.106 11.6559L247.366 17.4706H243.969H243.686L243.517 17.6985L242.539 19.0353H237.323H236.767V19.5912V26.4191H231.382L224.976 15.6044C224.46 14.7294 224.85 13.8456 225.847 13.6412ZM237.325 27.5279H237.88V26.9706V20.1426H242.823H243.105L243.272 19.9162L244.248 18.5779H247.989L264.714 48.4044L251.13 59.7603L232.039 27.5279H237.325ZM280.644 4.9588C280.782 3.95292 281.71 2.96468 282.703 2.76174L287.829 1.72645V5.65292L286.544 6.79115L286.357 6.9588V7.2088V10.0691L285.035 11.4823L284.886 11.6441V11.8632V20.5456L283.166 21.9897H278.301L280.644 4.9588Z" fill="white"/>
<path d="M41.5868 63.0382C42.7206 65.2838 43.2897 67.9558 43.2897 71.0573C43.2897 74.05 42.6662 76.6397 41.4206 78.8279C40.175 81.0147 38.5544 82.8147 36.5588 84.2279C34.5662 85.6411 32.3074 86.6926 29.7882 87.3867C27.2662 88.0794 24.7309 88.425 22.1853 88.425C17.0882 88.425 12.8103 87.4838 9.34559 85.6C5.88529 83.7191 2.76912 80.8647 0 77.0411L5.90294 69.5735C6.44853 68.8838 7.37794 68.8573 7.96176 69.5117C7.96176 69.5117 8.64118 70.2706 9.80294 71.1838C10.9691 72.1 12.2279 72.9014 13.5853 73.5941C14.9397 74.2867 16.3265 74.8544 17.7397 75.3C19.1529 75.7397 20.4662 75.9647 21.6853 75.9647C22.9029 75.9647 23.8338 75.7397 24.4691 75.3C25.1059 74.8544 25.4265 74.025 25.4265 72.8058C25.4265 71.7514 24.8559 70.7558 23.7221 69.8132C22.5868 68.8735 21.1735 67.8882 19.4853 66.8632C17.7941 65.8426 15.9647 64.7323 13.9985 63.5397C12.0338 62.35 10.2074 60.95 8.51765 59.3426C6.82647 57.7382 5.41471 55.8956 4.27794 53.8176C3.14265 51.7397 2.575 49.3441 2.575 46.6308C2.575 43.9691 3.075 41.6441 4.07059 39.65C5.06765 37.6529 6.41029 35.9794 8.10147 34.6206C9.78823 33.2661 11.7426 32.2397 13.9603 31.5456C16.1735 30.8558 18.5279 30.5088 21.0221 30.5088C25.4529 30.5088 29.4265 31.3264 32.9456 32.9588C36.4632 34.5926 39.8 37.0176 42.9588 40.2294L38.1779 47.6088C37.7 48.35 36.7632 48.4823 36.0971 47.9029C36.0971 47.9029 34.8971 46.8617 33.5676 46.0014C32.2412 45.1441 30.9368 44.4117 29.6632 43.8014C28.3882 43.1911 27.1956 42.7353 26.0897 42.4308C24.9809 42.125 24.0132 41.972 23.1809 41.972C22.1853 41.972 21.45 42.222 20.9809 42.722C20.5059 43.2206 20.2735 43.8573 20.2735 44.6323C20.2735 45.6294 20.8397 46.5558 21.9765 47.4147C23.1103 48.275 24.5368 49.1617 26.2559 50.0764C27.9721 50.9911 29.8147 52.0147 31.7824 53.1485C33.7471 54.2853 35.5897 55.6573 37.3074 57.2632C39.0235 58.872 40.45 60.797 41.5868 63.0382ZM61.9 59.822C62.5324 59.1338 63.25 58.6103 64.0515 58.25C64.85 57.8941 65.6368 57.7117 66.4118 57.7117C68.7294 57.7117 70.4515 58.2941 71.5853 59.4514C72.7147 60.6117 73.2279 61.7941 73.2279 61.7941C73.5765 62.6 74.5559 63.0853 75.4059 62.875L85.45 60.3617C84.4015 55.7838 82.275 52.0838 79.075 49.2691C75.875 46.4544 71.5691 45.047 66.1618 45.047C62.85 45.047 59.8985 45.5588 57.3029 46.5794C54.7088 47.6014 52.5309 49.0617 50.7647 50.9676C48.9985 52.872 47.6603 55.1632 46.75 57.8382C45.8382 60.5176 45.3838 63.5088 45.3838 66.8191C45.3838 69.6911 45.7971 72.4235 46.625 75.0176C47.4529 77.6132 48.7368 79.8882 50.4765 81.847C52.2118 83.8058 54.4044 85.3661 57.0559 86.525C59.7044 87.6823 62.8779 88.2617 66.5735 88.2617C68.6706 88.2617 70.7132 87.9411 72.7 87.3103C74.6868 86.6764 76.5088 85.7088 78.1647 84.4117C79.8206 83.1147 81.2676 81.475 82.5103 79.4853C83.7515 77.4985 84.8191 73.9779 84.8191 73.9779C85.075 73.1367 84.5926 72.2529 83.7515 72.0088L74.025 69.2191C73.8588 70.1029 73.5015 70.9014 72.95 71.6191C72.3971 72.3367 71.7765 72.9573 71.0868 73.4808C70.3956 74.0073 69.6926 74.4235 68.975 74.7264C68.2574 75.0294 67.5956 75.1794 66.9882 75.1794C64.8368 75.1794 63.0838 74.3514 61.7338 72.697C60.3794 71.0382 59.7044 68.8632 59.7044 66.1544C59.7044 64.722 59.9103 63.4794 60.325 62.4279C60.7397 61.3853 61.2632 60.5161 61.9 59.822ZM130.203 66.8382C130.063 63.4044 129.926 59.9058 129.787 56.3353C129.65 52.7661 129.462 46.4382 129.462 46.4382C129.435 45.5588 128.694 44.8529 127.816 44.872L114.221 45.1676C114.387 47.8264 114.54 50.1235 114.678 52.0603C114.815 53.9985 114.928 55.8529 115.009 57.622C115.093 59.3941 115.149 61.222 115.178 63.1014C115.201 64.9853 115.219 67.2 115.219 69.7455C115.219 71.6838 114.582 73.2176 113.309 74.3514C112.037 75.4882 110.516 76.0529 108.744 76.0529C106.863 76.0529 105.45 75.4853 104.509 74.3514C103.566 73.2176 103.099 71.8485 103.099 70.2441C103.099 67.3706 103.229 64.6764 103.512 61.8588C103.788 59.0926 104.065 56.547 104.344 54.2191C104.676 51.5617 105.243 48.1617 105.243 48.1617C105.385 47.2926 104.787 46.5867 103.907 46.5985L89.7309 46.747C89.3412 49.5147 89.0103 52.2823 88.7338 55.05C88.4574 57.4308 88.2221 59.95 88.0294 62.6058C87.8338 65.2632 87.7397 67.6426 87.7397 69.7455C87.7397 72.7353 88.1 75.4279 88.8191 77.825C89.5368 80.2206 90.6456 82.2588 92.1397 83.9353C93.6323 85.6103 95.5574 86.9029 97.9088 87.8103C100.262 88.7147 103.071 89.172 106.337 89.172C107.276 89.172 108.244 89.0456 109.243 88.7956C110.237 88.547 111.191 88.2014 112.107 87.7588C113.018 87.3147 113.86 86.8044 114.638 86.2235C114.985 85.9632 115.597 85.1353 116.099 85.3088C116.749 85.5382 116.382 87 116.382 87.4853C116.382 88.3647 117.1 89.0691 117.979 89.05L130.993 88.7588C130.882 84.6882 130.759 80.8779 130.619 77.3206C130.476 73.7647 130.338 70.2706 130.203 66.8382ZM188.437 52.8691C187.168 50.9117 185.429 49.3808 183.224 48.275C181.015 47.172 178.146 46.6206 174.613 46.6206C171.963 46.6206 169.688 47.1985 167.782 48.3573C167.276 48.6661 166.779 48.9956 166.304 49.35C165.875 49.6706 165.459 50.0103 165.072 50.3764C164.784 50.6485 164.534 51.0661 164.113 51.1411C164.007 51.1588 163.896 51.1867 163.782 51.175C163.4 51.1397 163.293 50.8823 163.096 50.5956C162.544 49.7941 161.831 49.1206 161.037 48.5647C159.654 47.6014 157.919 47.1147 155.822 47.1147C154.774 47.1147 153.779 47.2823 152.841 47.6132C151.9 47.9426 151.062 48.3735 150.318 48.8956C149.687 49.3382 149.144 49.8735 148.543 50.3485C148.247 50.5823 148.131 50.9029 147.715 50.8779C147.29 50.85 147.349 50.3029 147.321 50.0117C147.282 49.6632 147.244 49.3161 147.212 48.9691C147.185 48.7147 147.157 48.4603 147.131 48.2073C147.041 47.3338 146.251 46.6367 145.372 46.6573L133.472 46.9514C133.638 50.3176 133.763 53.5456 133.847 56.6382C133.929 59.7279 133.984 62.8588 134.012 66.0308C134.038 69.2058 134.038 72.5573 134.012 76.0897C133.984 79.6206 133.974 86.1647 133.974 86.1647C133.972 87.0426 134.687 87.7485 135.563 87.7367L147.112 87.5397C147.987 87.525 148.719 86.7926 148.737 85.9176L149.203 63.175C149.203 62.4 149.396 61.6161 149.781 60.8161C150.165 60.0147 151.076 59.6147 152.512 59.6147C153.175 59.6147 153.7 59.8603 154.087 60.3603C154.469 60.8573 154.788 61.5191 155.037 62.347C155.287 63.1735 155.451 64.1264 155.535 65.2014C155.616 66.2764 155.657 67.3941 155.657 68.5529C155.657 71.4235 155.657 73.7676 155.657 75.5897C155.657 77.4103 155.643 78.997 155.616 80.3485C155.588 81.7058 155.547 82.9735 155.493 84.1573C155.437 85.3456 155.387 86.6617 155.387 86.6617C155.356 87.5382 156.043 88.2706 156.919 88.2941L170.476 88.5867C170.365 87.7603 170.269 86.7397 170.187 85.525C170.104 84.3117 170.047 83.0691 170.021 81.7985C169.994 80.5323 169.966 79.3161 169.938 78.1573C169.909 76.9985 169.897 76.0588 169.897 75.3411C169.897 70.0456 170.116 66.1014 170.56 63.5044C171.001 60.9103 172.159 59.6117 174.035 59.6117C175.194 59.6117 176.091 60.0956 176.728 61.0632C177.36 62.0279 177.679 63.6426 177.679 65.9044C177.679 68.0588 177.416 70.8044 176.891 74.1426C176.368 77.4823 174.721 84.7147 174.721 84.7147C174.526 85.5691 175.078 86.3558 175.95 86.4706L189.6 88.175C190.204 84.7544 190.716 81.4441 191.131 78.2397C191.544 75.0426 191.753 71.922 191.753 68.8838C191.753 65.6294 191.518 62.6353 191.05 59.9014C190.578 57.175 189.706 54.8279 188.437 52.8691ZM251.472 59.9058C251.003 57.175 250.135 54.8279 248.868 52.8691C247.599 50.9117 245.857 49.3808 243.65 48.275C241.441 47.172 238.575 46.6206 235.043 46.6206C232.396 46.6206 230.119 47.1985 228.212 48.3573C227.725 48.6558 227.25 48.9691 226.788 49.3058C226.356 49.625 225.94 49.9632 225.549 50.3308C225.226 50.6323 224.809 51.3603 224.294 51.2117C223.931 51.1044 223.61 50.697 223.396 50.4014C222.872 49.6823 222.196 49.072 221.468 48.5676C220.087 47.6014 218.347 47.1147 216.253 47.1147C215.2 47.1147 214.21 47.2823 213.272 47.6132C212.334 47.9441 211.491 48.3735 210.749 48.8956C210.001 49.422 209.394 49.9735 208.926 50.5514C208.851 50.6456 208.776 50.7367 208.696 50.822C208.576 50.9456 208.391 51.1132 208.204 51.0661C207.994 51.0176 207.869 50.7014 207.824 50.5161C207.738 50.1897 207.729 49.8441 207.697 49.5088C207.653 49.075 207.61 48.6397 207.562 48.2073C207.471 47.3338 206.679 46.6367 205.806 46.6573L193.906 46.9514C194.069 50.3176 194.196 53.5456 194.278 56.6382C194.36 59.7279 194.415 62.8588 194.444 66.0308C194.471 69.2058 194.471 72.5603 194.444 76.0911C194.416 79.6235 194.404 86.1647 194.404 86.1647C194.401 87.0426 195.118 87.7514 195.997 87.7367L207.547 87.5411C208.422 87.525 209.153 86.797 209.172 85.9176L209.635 63.1779C209.635 62.4029 209.831 61.6191 210.216 60.8176C210.6 60.0161 211.512 59.6161 212.947 59.6161C213.609 59.6161 214.134 59.8617 214.521 60.3603C214.903 60.8588 215.224 61.5191 215.472 62.347C215.721 63.175 215.882 64.1294 215.968 65.2029C216.051 66.2794 216.093 67.397 216.093 68.5558C216.093 71.4279 216.093 73.7706 216.093 75.5926C216.093 77.4103 216.078 78.9985 216.051 80.35C216.024 81.7058 215.981 82.9735 215.926 84.1603C215.872 85.3485 215.821 86.6617 215.821 86.6617C215.787 87.5397 216.475 88.272 217.354 88.2941C217.363 88.2941 217.372 88.2941 217.379 88.2941C217.819 88.3029 218.253 88.3132 218.696 88.3235C219.64 88.3411 220.585 88.3647 221.532 88.3853C222.688 88.4088 223.846 88.4338 225.004 88.4603C226.096 88.4838 227.188 88.5058 228.278 88.5323C228.949 88.547 229.732 88.6941 230.391 88.5411C230.947 88.4132 230.824 87.972 230.807 87.5279C230.791 86.8529 230.668 86.1985 230.618 85.5264C230.538 84.3132 230.481 83.0705 230.451 81.8014C230.425 80.5353 230.399 79.3176 230.369 78.1588C230.341 77 230.326 76.0632 230.326 75.3441C230.326 70.047 230.549 66.1029 230.988 63.5058C231.431 60.9132 232.588 59.6147 234.466 59.6147C235.625 59.6147 236.522 60.1 237.159 61.0632C237.791 62.0279 238.112 63.6441 238.112 65.9073C238.112 68.0588 237.851 70.8058 237.324 74.1441C236.799 77.4867 235.153 84.7147 235.153 84.7147C234.957 85.5706 235.509 86.3603 236.381 86.4706C236.756 86.5147 237.125 86.5632 237.494 86.6088C239.362 86.8441 241.225 87.0764 243.091 87.3103C244.275 87.4573 245.46 87.5838 246.646 87.722C247.365 87.8044 248.075 87.9632 248.793 88.047C249.235 88.0941 249.8 88.3206 250.157 87.925C250.499 87.5441 250.478 86.8485 250.557 86.3808C250.678 85.6705 250.75 84.9573 250.809 84.2426C250.896 83.1485 251.037 82.075 251.19 80.9867C251.322 80.0735 251.441 79.1588 251.56 78.2426C251.974 75.0426 252.181 71.9235 252.181 68.8882C252.178 65.6308 251.943 62.6367 251.472 59.9058Z" fill="white"/>
</g>
<defs>
<clipPath id="clip0_4_6176">
<rect width="388.235" height="100" fill="white"/>
</clipPath>
</defs>
</svg>
