<svg width="1070" height="100" viewBox="0 0 1070 100" fill="none" xmlns="http://www.w3.org/2000/svg">
<g clip-path="url(#clip0_4_6180)">
<path d="M438.993 100C436.763 100 435.843 99.5542 435.035 98.9967L439.494 79.1807C447.243 78.0101 450.448 72.6868 452.092 58.5843C456.161 23.2721 479.74 21.2097 482.387 21.0982C482.694 21.0703 482.973 21.0703 483.251 21.0703C484.088 21.0703 484.784 21.1261 485.843 21.3211L481.105 42.3356C473.441 43.3947 471.713 49.9722 468.591 69.0079C463.881 97.4917 443.842 99.805 439.885 99.9722C439.578 99.9722 439.271 100 438.993 100Z" fill="white"/>
<path d="M843.786 100C841.556 100 840.636 99.5542 839.828 98.9967L844.287 79.1807C852.035 78.0101 855.241 72.6868 856.885 58.5843C860.954 23.2721 884.505 21.2097 887.18 21.0982C887.487 21.0703 887.766 21.0703 888.044 21.0703C888.881 21.0703 889.577 21.1261 890.636 21.3211L885.898 42.3356C878.234 43.3947 876.506 49.9722 873.384 69.0079C868.674 97.4917 848.635 99.805 844.678 99.9722C844.343 99.9722 844.064 100 843.786 100Z" fill="white"/>
<path d="M406.356 100C404.126 100 403.207 99.5542 402.398 98.9967L406.858 79.1807C414.606 78.0101 417.811 72.6868 419.455 58.5843C423.524 23.2721 447.103 21.2097 449.751 21.0982C450.057 21.0703 450.336 21.0703 450.615 21.0703C451.451 21.0703 452.148 21.1261 453.207 21.3211L448.469 42.3356C440.804 43.3947 439.076 49.9722 435.955 69.0079C431.245 97.4917 411.206 99.805 407.248 99.9722C406.941 99.9722 406.635 100 406.356 100Z" fill="white"/>
<path d="M773.469 0H753.207V100H773.469V0Z" fill="white"/>
<path d="M958.755 21.0703C936.43 21.0703 917.701 37.2911 915.75 59.5876C913.799 81.8841 930.299 100 952.623 100C974.948 100 996.715 82.6367 996.575 59.5876C996.408 37.1796 981.051 21.0703 958.755 21.0703ZM972.969 74.2754C967.673 79.5987 960.065 82.8039 952.623 82.8039C946.743 82.8039 941.475 80.6021 937.824 76.6166C934.117 72.5753 932.361 67.0848 932.891 61.1205C934.034 48.1049 945.154 38.2944 958.755 38.2944C971.38 38.2944 979.268 46.5162 979.379 59.727C979.407 66.388 975.923 71.3212 972.969 74.2754Z" fill="white"/>
<path d="M395.401 99.8326H377.619L386.343 61.0924C386.371 60.5907 386.399 60.0611 386.399 59.5316C386.315 46.3209 378.4 38.099 365.774 38.099C352.173 38.099 341.053 47.9095 339.91 60.9251C339.381 66.8895 341.137 72.38 344.844 76.4212C348.495 80.4067 353.762 82.6085 359.643 82.6085C364.855 82.6085 370.15 81.0478 374.665 78.2886L370.094 98.5784L369.983 98.6063C369.983 98.6063 363.127 99.8326 359.643 99.8326C337.318 99.8326 320.819 81.7445 322.77 59.4201C324.721 37.0957 343.45 20.9028 365.774 20.9028C388.099 20.9028 403.428 37.04 403.595 59.4201C403.623 61.5383 403.428 63.6007 403.093 65.5795L395.401 99.8326Z" fill="white"/>
<path d="M591.669 40.3567H605.075L608.67 24.3868H595.264L600.755 0H582.109L565.721 72.6589C565.721 72.6589 565.359 74.3032 565.22 74.8607C562.238 87.5697 565.554 100 582.082 100C582.082 100 584.088 100 584.451 100L593.425 84.0301H585.593C582.277 84.0301 582.527 80.6856 583.336 77.2018C585.342 68.5619 591.669 40.3567 591.669 40.3567Z" fill="white"/>
<path d="M632.415 40.3567H645.82L649.416 24.3868H636.01L641.528 0H622.883L606.495 72.6589C606.495 72.6589 606.133 74.3032 605.993 74.8607C603.011 87.5697 606.328 100 622.855 100C622.855 100 624.862 100 625.224 100L634.198 84.0301H626.367C623.05 84.0301 623.301 80.6856 624.109 77.2018C626.088 68.5619 632.415 40.3567 632.415 40.3567Z" fill="white"/>
<path d="M316.919 99.8883C303.68 98.6341 291.891 92.9764 284.115 84.0856C276.256 75.0834 272.828 63.4892 274.165 50.5572C278.569 8.7233 315.135 0.222748 345.208 0.473584L341.362 17.6977C300.42 18.3666 292.922 36.9006 291.278 52.3688C289.16 72.5472 304.74 82.2462 320.737 82.9429L316.919 99.8883Z" fill="white"/>
<path d="M831.022 24.3867L813.965 99.9999H832.61C835.871 85.535 844.093 49.0801 849.639 24.3867C849.667 24.3867 831.022 24.3867 831.022 24.3867Z" fill="white"/>
<path d="M919.399 15.9699C921.518 6.63322 922.995 0 922.995 0H904.349L900.754 15.9699H919.399Z" fill="white"/>
<path d="M898.858 24.3867L881.801 99.9999H900.446C903.707 85.535 911.929 49.0801 917.475 24.3867C917.503 24.3867 898.858 24.3867 898.858 24.3867Z" fill="white"/>
<path d="M1012.8 24.3867L995.738 99.9999H1014.38C1017.64 85.535 1025.87 49.0801 1031.41 24.3867C1031.44 24.3867 1012.8 24.3867 1012.8 24.3867Z" fill="white"/>
<path d="M1029.07 24.3867L1025.48 40.3566H1046.46C1049.03 40.3566 1050.95 42.7535 1050.37 45.2619L1038.02 99.9999H1056.66C1059.17 88.8516 1064.66 64.5762 1069.57 42.7814C1071.69 33.3611 1064.52 24.4146 1054.85 24.4146L1029.07 24.3867Z" fill="white"/>
<path d="M843.396 0H836.54H829.015C823.051 0 817.532 3.0379 814.355 8.0825L756.328 100H780.297L833.335 15.9699H851.59C853.68 6.63322 855.185 0 855.185 0H843.396Z" fill="white"/>
<path d="M670.57 78.7069L726.256 51.4494C722.911 33.3892 708.725 21.0425 689.216 21.0425C666.891 21.0425 648.162 37.2632 646.211 59.5598C644.26 81.8842 660.76 99.9723 683.084 99.9723C686.707 99.9723 690.303 99.5263 693.787 98.6623C694.177 98.5787 694.539 98.4672 694.929 98.3558L699.639 77.4249C694.79 80.8251 688.881 82.7482 683.084 82.7482C678.318 82.8039 673.998 81.3546 670.57 78.7069ZM663.324 61.0926C664.467 48.077 675.587 38.2666 689.188 38.2666C696.1 38.2666 701.563 40.7192 705.158 45.0949L663.38 65.552C663.212 64.1027 663.185 62.5977 663.324 61.0926Z" fill="white"/>
<path d="M508.336 78.7069L564.022 51.4494C560.677 33.3892 546.491 21.0425 526.981 21.0425C504.657 21.0425 485.928 37.2632 483.977 59.5598C482.026 81.8842 498.525 99.9723 520.85 99.9723C524.473 99.9723 528.068 99.5263 531.552 98.6623C531.942 98.5787 532.305 98.4672 532.695 98.3558L537.405 77.4249C532.556 80.8251 526.647 82.7482 520.85 82.7482C516.084 82.8039 511.764 81.3546 508.336 78.7069ZM501.09 61.0926C502.232 48.077 513.353 38.2666 526.954 38.2666C533.865 38.2666 539.328 40.7192 542.923 45.0949L501.145 65.552C500.978 64.1027 500.978 62.5977 501.09 61.0926Z" fill="white"/>
<path d="M91.3143 80.6188L91.5163 79.7244C89.8141 80.2149 87.5059 80.6188 84.4477 80.6188H77.3502C73.4264 80.6188 69.7623 78.8589 67.2811 75.7718C64.8287 72.7135 63.9055 68.732 64.771 64.8948L71.6377 34.4854H85.7749L78.7351 65.7315C78.6197 66.2796 78.7351 66.8567 79.0813 67.2894C79.4275 67.7222 79.9469 67.9819 80.5239 67.9819H90.4776C92.6415 67.9819 94.488 66.5105 94.9496 64.4043L101.73 34.4854H115.867L105.452 80.6477L91.3143 80.6188Z" fill="white"/>
<path d="M216.992 80.6189L227.408 34.4565H241.545L241.343 35.3509C243.045 34.8605 245.353 34.4565 248.411 34.4565H257.788L254.932 47.0935H242.381C240.218 47.0935 238.371 48.5649 237.909 50.6711L231.158 80.59L216.992 80.6189Z" fill="white"/>
<path d="M180.553 80.6188C176.63 80.6188 172.965 78.8589 170.484 75.7718C168.032 72.7135 167.109 68.732 167.974 64.8948L171.783 47.9301C173.6 40.0248 180.525 34.4854 188.689 34.4854H204.731C208.655 34.4854 212.319 36.2453 214.8 39.3324C217.252 42.3906 218.176 46.3722 217.31 50.2094L216.848 52.2578C215.637 57.5665 211.886 61.6634 207.01 63.4234H214.281L213.444 67.174C211.655 75.1082 204.731 80.6765 196.566 80.6765H180.553V80.6188ZM181.938 65.7315C181.823 66.2796 181.938 66.8567 182.284 67.2894C182.631 67.7222 183.15 67.9819 183.727 67.9819H195.873C197.778 67.9819 199.393 66.6836 199.826 64.8371L199.942 64.3177H182.256L181.938 65.7315ZM200.432 51.652C201.817 51.652 203.029 50.6999 203.317 49.3438C203.433 48.7957 203.317 48.2475 202.971 47.8147C202.625 47.3819 202.105 47.1511 201.557 47.1511H189.815C187.651 47.1511 185.804 48.6226 185.343 50.7287L185.141 51.652H200.432Z" fill="white"/>
<path d="M111.02 85.1485L122.445 34.4854H136.582L136.38 35.3797C138.082 34.8893 140.39 34.4854 143.449 34.4854H152.162C156.085 34.4854 159.75 36.2453 162.231 39.3324C164.683 42.3906 165.606 46.3722 164.741 50.2094L161.423 64.9813C159.634 72.9155 152.71 78.4838 144.545 78.4838H134.36C130.84 78.4838 128.475 77.9356 126.917 77.3298L125.128 85.2062L111.02 85.1485ZM137.39 47.1223C135.226 47.1223 133.379 48.5937 132.918 50.6999L130.033 63.5099C129.917 64.0581 130.033 64.6351 130.379 65.0679C130.725 65.5007 131.244 65.7603 131.821 65.7603H143.391C145.555 65.7603 147.401 64.2889 147.892 62.1827L150.777 49.3727C150.892 48.8245 150.777 48.2475 150.431 47.8147C150.084 47.3819 149.565 47.1223 148.988 47.1223H137.39Z" fill="white"/>
<path d="M12.8971 80.6189C8.97332 80.6189 5.30919 78.859 2.82796 75.7719C0.375589 72.7136 -0.547657 68.7321 0.317886 64.8949L0.635252 63.4523L2.13553 63.3658H14.7725L14.2531 65.7027C14.1377 66.2509 14.2531 66.8279 14.5994 67.2607C14.9456 67.6935 15.4649 67.9531 16.0419 67.9531H39.7578C41.9217 67.9531 43.7682 66.4817 44.2586 64.3756L45.355 59.4997C45.557 58.663 45.355 57.7686 44.8068 57.0762C44.2586 56.3837 43.4508 56.0086 42.5853 56.0086H19.5907C15.3783 56.0086 11.4545 54.1333 8.80021 50.8154C6.17473 47.5263 5.19378 43.2852 6.11703 39.1594L7.18453 34.3701C9.00217 26.4648 15.9554 20.9253 24.0915 20.9253H51.9908C55.9435 20.9253 59.6076 22.6852 62.06 25.7723C64.5124 28.8594 65.4356 32.8121 64.5412 36.6493L64.2238 38.0919L62.7524 38.1496H50.2309L50.7502 35.8126C50.8656 35.2645 50.7502 34.6874 50.404 34.2547C50.0578 33.8219 49.5385 33.5622 48.9614 33.5622H25.2167C23.0528 33.5622 21.2063 35.0337 20.7447 37.1398L20.1388 39.8807C19.9369 40.7174 20.1388 41.6118 20.687 42.3042C21.2352 42.9966 22.043 43.3717 22.9086 43.3717H49.048C52.4813 43.3717 55.6838 44.9008 57.8188 47.584C59.9538 50.2672 60.7617 53.7294 59.9827 57.0762L57.6746 67.1453C55.8569 75.0506 48.9326 80.5901 40.8253 80.5901L12.8971 80.6189Z" fill="white"/>
</g>
<defs>
<clipPath id="clip0_4_6180">
<rect width="1069.96" height="100" fill="white"/>
</clipPath>
</defs>
</svg>
