<svg width="714" height="100" viewBox="0 0 714 100" fill="none" xmlns="http://www.w3.org/2000/svg">
<g clip-path="url(#clip0_4_6242)">
<path d="M99.9303 34.4731L97.9003 33.5422C98.0288 33.1281 98.1536 32.6114 98.1536 32.0946C98.1536 30.7497 86.2379 23.5012 65.5746 23.5012C45.7996 23.5012 37.3052 28.4704 37.3052 34.8872C37.3052 51.8617 111.971 27.0228 111.971 64.4936C111.971 78.1553 95.7455 88.7131 63.2914 88.7131C32.3605 88.7131 23.4844 80.6399 20.5697 80.6399C19.8098 80.6399 19.4281 81.1567 18.7967 81.4681L17.1484 81.1567L27.6692 63.5592L29.6991 64.3874C29.6991 64.805 29.4423 65.2191 29.4423 66.0438C29.4423 72.1527 45.7996 76.4989 62.0249 76.4989C85.0963 76.4989 92.9557 71.1192 92.9557 65.4209C92.9557 45.137 19.3032 70.2874 19.3032 35.9242C19.3032 18.5355 41.7397 11.2905 66.3345 11.2905C88.3928 11.2905 103.858 19.1549 105.382 19.1549C107.03 19.1549 107.283 18.7443 107.665 18.4329L109.691 18.9496L99.9303 34.4731Z" fill="white"/>
<path d="M121.73 86.2286C124.52 86.2286 125.027 85.4004 125.027 83.1211V16.8792C125.027 14.5999 124.517 13.7752 121.73 13.7752V12.3241H204.006C207.049 12.3241 208.315 11.4959 208.315 10.0483H210.088V27.2282H208.315C208.315 25.3665 207.049 24.5383 204.006 24.5383H143.029V42.964H182.836C185.875 42.964 187.145 42.1358 187.145 40.2741H188.918V57.6593H187.145C187.145 56.8311 186.892 56.2117 186.129 55.7976C185.497 55.3835 184.356 55.1747 182.836 55.1747H143.029V75.4656H205.147C208.187 75.4656 209.457 74.6338 209.457 72.981H211.23V89.9555H209.457C209.457 88.5044 208.187 87.6762 205.147 87.6762H121.73V86.2286Z" fill="white"/>
<path d="M323.669 47.9297V49.3808C322.399 49.5896 321.261 50.4143 321.261 52.6936V73.0836C321.261 74.74 321.893 75.3594 323.541 75.6709V77.1184C315.557 80.8453 296.031 88.7132 274.102 88.7132C244.944 88.7132 219.336 76.9096 219.336 50.0002C219.336 23.0872 249.254 11.2871 275.621 11.2871C286.017 11.2871 295.907 13.255 303.131 15.1167C309.852 17.4986 314.793 19.3638 315.682 19.3638C316.823 19.3638 317.965 18.8436 318.471 18.2242L320.245 18.8436L307.951 35.8181L306.174 34.8873C306.299 34.4732 306.427 33.8538 306.427 33.1282C306.427 29.9181 292.735 23.5013 275.875 23.5013C254.58 23.5013 237.338 32.0948 237.338 49.5896C237.338 67.9091 254.58 76.4955 274.102 76.4955C290.077 76.4955 299.456 72.0466 303.259 69.7708V61.1809H281.454C278.921 61.1809 277.398 62.2144 277.398 63.6619H275.621V45.4486H277.398C277.398 46.8962 278.921 47.9297 281.454 47.9297H323.669Z" fill="white"/>
<path d="M329.996 87.6794V86.2282C332.279 86.1256 333.039 85.6089 334.812 82.2961L369.421 18.7441C370.056 17.707 370.816 16.5674 370.816 15.6365C370.816 14.5004 369.803 13.9801 368.151 13.7749V12.3237H395.789V13.7749C393.891 13.9801 393.128 14.5995 393.128 15.3251C393.128 16.1533 393.634 16.9815 394.269 18.0185L431.033 82.2961C432.806 85.5062 433.313 86.2282 435.974 86.2282V87.6794H410.748V86.2282C412.396 86.2282 413.031 85.7115 413.031 85.1948C413.031 84.0551 411.89 82.6075 403.395 67.8026H359.914C352.561 81.259 350.659 83.3295 350.659 84.6745C350.659 85.6089 351.419 86.1256 352.561 86.2282V87.6758H329.996V87.6794ZM396.046 56.0025L380.834 28.8842L365.872 56.0025H396.046Z" fill="white"/>
<path d="M713.514 99.9999H0V0H713.514V99.9999ZM6.42162 93.6327H707.092V6.37077H6.42162V93.6327Z" fill="white"/>
<path d="M457.953 12.3237V87.6758H701.932V12.3237H457.953ZM468.296 65.2189C466.269 51.8048 511.188 33.9207 569.711 24.499C568.391 24.8352 565.833 25.4865 565.833 25.4865C565.833 25.4865 560.082 26.8774 558.494 27.2632C528.641 34.5011 507.724 47.54 509.469 59.0994C511.26 70.9349 536.197 77.3446 567.92 75.1537C569.682 75.0298 575.936 74.7325 577.299 74.6724C518.555 82.6748 470.322 78.6399 468.296 65.2189ZM614.587 68.1176C601.619 71.041 585.412 73.5256 585.412 73.5256V39.8986L593.767 67.261C593.767 67.261 613.67 64.058 628.818 57.8004C641.986 52.3605 650.152 45.5367 649.599 38.2705C648.707 26.4633 623.399 20.1633 592.151 22.156C590.067 22.2905 583.15 22.6444 581.787 22.701C640.52 14.6951 688.746 18.7334 690.776 32.151C692.499 43.5618 660.259 58.1968 614.587 68.1176Z" fill="white"/>
</g>
<defs>
<clipPath id="clip0_4_6242">
<rect width="713.513" height="100" fill="white"/>
</clipPath>
</defs>
</svg>
