<svg width="262" height="100" viewBox="0 0 262 100" fill="none" xmlns="http://www.w3.org/2000/svg">
<g clip-path="url(#clip0_4_6209)">
<path d="M34.5806 99.1309C31.7588 98.9586 28.9311 98.5943 26.143 98.1022C14.8014 96.0973 9.52612 93.4151 6.36078 92.1705C4.84791 91.5745 3.36969 91.0121 1.72513 91.6161C1.539 91.6844 1.31721 91.6804 1.11226 91.6844C0.0686988 91.6953 -0.254074 91.2903 0.201372 90.3547C0.740976 89.2418 1.37662 88.1705 2.01523 87.1091C3.74692 84.2329 5.50137 81.3685 7.2489 78.5002C7.32909 78.3656 7.42117 78.2418 7.49939 78.1062C7.85682 77.5081 8.24692 76.9557 9.06276 77.0715C9.83008 77.1775 9.99741 77.8121 10.1568 78.4111C10.5083 79.721 11.3053 80.6963 12.3529 81.5071C14.834 83.4309 17.635 84.725 20.5746 85.7507C24.3855 87.0834 28.3083 87.918 32.2944 88.5438C37.0123 89.2864 41.7548 89.3814 46.4925 89.1062C50.5083 88.8725 54.4628 88.1458 58.2499 86.6626C60.5538 85.7606 62.2994 84.1705 63.7014 82.223C65.5558 79.6418 64.7974 76.0943 62.2657 74.0774C58.8301 71.3359 54.8331 70.2517 50.5994 69.524C46.7925 68.8715 42.9925 68.9418 39.1816 68.9913C37.3915 69.0141 33.1152 69.1834 31.4766 70.7062C30.8746 71.2408 30.3935 71.2804 30.1073 71.022C29.8192 70.7606 29.8073 70.3477 29.8043 69.9893C29.7727 66.2616 29.7697 62.5339 29.7935 58.8101C29.8024 57.5903 30.3707 57.222 31.3133 57.8844C32.5053 58.719 33.8291 59.0854 35.2113 59.2646C37.5053 59.5596 44.9954 59.2982 46.5261 59.0992C50.6172 58.5626 50.2588 58.627 52.6469 57.9864C55.2024 57.3012 57.641 55.5032 58.9142 54.018C58.9331 53.9933 58.9548 53.9695 58.9746 53.9458C60.7489 51.8052 60.1529 49.3398 58.5034 47.5765C56.9172 45.8804 54.9261 44.7982 52.7083 44.1428C49.0717 43.0695 45.3469 42.4804 41.5707 42.6586C34.7281 42.9804 28.0222 44.0289 21.837 47.2141C20.4212 47.9468 19.0925 48.8626 17.7855 49.7834C16.6697 50.5675 16.1073 51.7161 16.0756 53.1002C16.0598 53.82 16.1736 54.6408 15.3202 54.9547C14.4598 55.2715 14.0162 54.523 13.5232 54.024C10.3746 50.819 7.23801 47.5992 4.0984 44.3844C3.91622 44.1992 3.71523 44.024 3.58256 43.8052C3.20236 43.1903 3.43603 42.6804 4.16375 42.5953C4.97662 42.5022 5.8489 42.6309 6.60434 42.3844C7.72117 42.019 8.76573 41.424 9.8281 40.9022C12.6538 39.5151 15.4053 37.9517 18.3073 36.7547C22.9024 34.8606 27.741 33.8428 32.6826 33.2289C37.4103 32.6388 45.7548 32.3963 51.7925 33.2893C55.8261 33.9012 59.8261 34.7121 63.5717 36.3844C66.8756 37.8596 70.1014 39.5072 72.5677 42.2893C74.3499 44.2992 75.5479 46.5477 75.9489 49.2745C76.3331 51.8874 75.9053 54.2765 74.7885 56.62C74.0222 58.2349 72.8727 59.2784 71.2925 60.2289C68.1944 62.0913 66.3588 62.5547 65.9667 62.7943C65.342 63.1765 65.3152 63.6824 65.9509 64.0468C66.5232 64.3745 67.1806 64.5685 67.8192 64.7675C71.5489 65.9339 74.7529 67.9834 77.4212 70.7963C79.3746 72.8468 80.5291 75.3072 80.9172 78.2131C81.3152 81.1874 80.6182 83.819 79.3321 86.4062C78.335 88.419 76.6776 89.8339 74.936 91.119C71.4093 93.72 67.4865 95.4775 63.2766 96.726C60.1459 97.6537 56.9717 98.2824 53.7568 98.7091C42.7677 99.9121 37.1538 99.2874 34.5806 99.1309ZM162.703 99.6369C161.467 98.3319 158.141 98.2141 157.624 98.2141C134.334 98.2141 111.043 98.2121 87.7519 98.2141C85.3826 98.2141 84.9568 98.5042 85.2489 95.4992C85.7232 90.5804 87.5271 86.0091 91.0925 82.4775C91.7756 81.7824 92.0043 81.5477 93.5647 80.1299C100.177 74.127 113.352 69.3151 113.352 69.3151C113.352 69.3151 124.377 65.2359 130.568 62.7943C133.348 61.6992 136.064 60.4349 138.541 58.7171C147.52 51.627 142.858 44.5883 131.017 42.9477C122.726 41.7606 115.171 43.7874 108.187 48.2497C107.274 48.8329 106.504 49.4151 105.624 50.0477C104.064 51.3705 102.724 52.9121 102.432 54.618C102.276 55.5369 102.426 56.1715 102.444 56.321C102.504 56.7992 102.649 57.5567 102.296 57.9012C101.871 58.318 100.988 57.9002 100.595 57.5289C96.9954 54.121 93.3915 50.721 89.7885 47.32C89.5628 47.1062 89.1479 46.6497 89.1479 46.6497C89.1479 46.6497 88.7529 46.1933 88.74 45.8784C88.7241 45.527 89.0687 45.1963 89.4826 45.0666C91.4459 44.7032 92.3519 44.5883 93.5291 43.723C96.7014 41.4042 100.012 39.3279 103.553 37.6002C108.282 35.2883 113.257 33.9141 118.467 33.2101C122.473 32.6715 134.239 30.8349 147.984 36.9557C151.607 38.5487 154.716 40.8042 157.061 43.9864C158.449 45.8685 163.675 56.1953 153.023 64.4398C149.214 67.5002 144.67 69.3923 140.076 70.9992C136.144 72.3755 133.26 73.4062 126.827 75.2705C121.942 76.723 118.436 77.8626 112.847 80.521C108.401 82.6319 105.482 85.2012 105.482 85.2012C105.482 85.2012 104.026 86.325 104.309 87.2052C104.551 87.9695 105.768 87.8933 106.483 87.8943C123.68 87.9052 140.877 87.9012 158.075 87.9022C159.855 87.9022 161.58 87.7774 162.937 86.3784C163.137 86.1735 163.658 86.0646 163.895 86.1824C164.121 86.2933 164.279 86.7646 164.282 87.0755C164.308 91.1121 164.309 95.2349 164.287 99.2705C164.283 99.6626 164.154 99.8032 163.961 99.9171C163.667 100.087 163.042 99.9982 162.703 99.6369ZM185.969 33.2468C189.633 33.2468 193.301 33.2468 196.968 33.2497C197.331 33.2497 197.695 33.222 198.052 33.2636C198.872 33.3616 198.996 33.7081 198.483 34.3755C197.566 35.5725 197.574 35.7022 198.617 36.8081C198.654 36.8448 198.691 36.8804 198.726 36.9161C203.844 42.1022 208.962 47.2883 214.079 52.4735C214.334 52.7319 214.574 53.0131 214.867 53.22C215.38 53.5893 215.93 53.5963 216.435 53.1913C216.717 52.9656 216.965 52.6982 217.219 52.4388C222.274 47.3339 227.326 42.2299 232.38 37.122C232.561 36.9369 232.751 36.7596 232.913 36.5586C233.588 35.72 233.571 35.425 232.942 34.525C232.376 33.7606 232.376 33.2903 233.53 33.2626C233.784 33.2557 234.044 33.2497 234.302 33.2497C241.741 33.2497 249.18 33.2468 256.614 33.2517C257.077 33.2517 257.55 33.2458 257.997 33.3438C258.188 33.3864 258.417 33.6715 258.45 33.8765C258.482 34.0765 258.341 34.4279 258.175 34.5111C257.673 34.7646 257.135 34.9814 256.586 35.1002C254.503 35.5577 252.807 36.5874 251.302 38.123C244.828 44.7309 238.288 51.2745 231.782 57.8537C230.151 59.5052 228.545 61.1903 226.946 62.8765C225.933 63.9408 225.931 64.4468 226.957 65.4953C228.759 67.3388 230.61 69.1289 232.403 70.9804C233.732 72.3487 234.968 73.8101 236.306 75.1685C239.866 78.7745 243.469 82.3359 247.033 85.9359C249.432 88.3586 251.809 90.8032 254.169 93.2646C255.525 94.6864 257.107 95.6745 259.015 96.1656C259.709 96.3398 260.39 96.6062 261.045 96.8982C261.224 96.9794 261.41 97.3151 261.384 97.5052C261.355 97.7002 261.1 97.9497 260.894 98.0151C260.561 98.122 260.185 98.123 259.827 98.123C252.234 98.1289 244.643 98.127 237.05 98.123C236.741 98.123 236.421 98.1299 236.13 98.0487C235.646 97.9081 235.463 97.618 235.762 97.1161C236.012 96.6943 236.409 96.2141 236.366 95.7992C236.315 95.3606 235.865 94.9309 235.514 94.5705C229.623 88.5507 223.723 82.5408 217.825 76.5279C217.607 76.3072 217.389 76.0854 217.166 75.8715C215.864 74.6081 215.386 74.5923 214.082 75.8943C210.31 79.6517 206.535 83.4091 202.797 87.2022C200.371 89.6666 198.005 92.1923 195.616 94.6972C194.717 95.6398 194.718 95.6992 195.4 96.9517C195.79 97.6646 195.644 97.9784 194.829 98.0973C194.477 98.1487 194.109 98.127 193.748 98.127C186.414 98.1289 179.08 98.1378 171.745 98.1161C171.089 98.1131 169.984 98.2913 169.928 97.4874C169.811 96.6477 170.824 96.6062 171.418 96.4656C174.089 95.8398 176.13 94.3151 178.018 92.3745C184.038 86.1873 190.16 80.1012 196.216 73.9547C198.099 72.0438 199.896 70.0547 201.758 68.124C202.473 67.3784 203.268 66.7161 204.001 65.9893C205.532 64.4656 205.537 64.0606 204.064 62.5705C199.599 58.0458 195.123 53.5329 190.662 49.0032C187.034 45.327 183.391 41.6606 179.812 37.9359C178.432 36.5042 176.813 35.6091 174.907 35.1646C174.557 35.0824 174.211 34.9725 173.866 34.8666C173.376 34.7151 172.769 34.5982 172.837 33.9279C172.904 33.2468 173.502 33.2468 174.035 33.2497C174.344 33.2497 174.655 33.2468 174.965 33.2468C178.632 33.2468 182.301 33.2468 185.969 33.2468Z" fill="white"/>
<path fill-rule="evenodd" clip-rule="evenodd" d="M112.98 15.5971C112.98 16.8419 113.984 17.8285 115.188 17.8159H124.206V15.0402H115.737V14.2628H122.411V11.501H112.994L112.98 15.5971Z" fill="white"/>
<path fill-rule="evenodd" clip-rule="evenodd" d="M112.994 6.44867C112.994 5.30085 113.972 4.23619 115.188 4.24123H124.206V7.00304H115.737V7.78044H122.411V10.58H112.98L112.994 6.44867Z" fill="white"/>
<path fill-rule="evenodd" clip-rule="evenodd" d="M114.865 0.517452C111.804 0.517452 109.322 3.02602 109.322 6.11794V15.9216C109.322 19.0148 111.804 21.5221 114.865 21.5221H124.207V18.7616H115.097C113.49 18.7616 112.065 17.2219 112.065 15.5991V6.43797C112.065 4.81389 113.49 3.31329 115.097 3.31329H124.207V0.513672H114.865V0.517452Z" fill="white"/>
<path fill-rule="evenodd" clip-rule="evenodd" d="M132.551 15.1159V7.00304H141.459V4.24123H132.051C130.834 4.23619 129.857 5.30085 129.857 6.44867L129.846 15.5972C129.846 16.842 130.847 17.8286 132.051 17.816H137.79L137.775 11.4519H133.457V14.1886H135.053V15.1146L132.551 15.1159Z" fill="white"/>
<path fill-rule="evenodd" clip-rule="evenodd" d="M106.681 0.491211H97.7325C93.9625 0.491211 90.9043 3.58061 90.9043 7.39071C90.9043 11.2021 93.9625 14.2171 97.7325 14.1844H100.459V15.1155H90.9641V17.8168H100.15C101.877 17.8168 103.278 16.4006 103.278 14.6581C103.278 12.9131 101.877 11.5221 100.15 11.5221L97.7699 11.512C95.5296 11.512 93.7131 9.67626 93.7131 7.41339C93.7131 5.14925 95.5283 3.3135 97.7699 3.3135H106.688L106.681 0.491211Z" fill="white"/>
<path fill-rule="evenodd" clip-rule="evenodd" d="M106.682 6.92838H97.3804V7.85444L100.171 7.85948C103.943 7.85948 106.999 10.8745 106.999 14.6846C106.999 18.496 103.943 21.5186 100.171 21.5186L90.9648 21.4997V18.7543H100.151C102.391 18.7543 104.207 16.9198 104.207 14.6557C104.207 12.3928 102.391 10.581 100.151 10.581L97.7706 10.5722C96.0439 10.5722 94.6426 9.15597 94.6426 7.41094C94.6426 5.6659 96.0439 4.25098 97.7706 4.25098H106.688L106.682 6.92838Z" fill="white"/>
<path fill-rule="evenodd" clip-rule="evenodd" d="M151.865 3.76871C151.754 3.50538 151.715 3.44238 151.416 3.44238C151.115 3.44238 151.043 3.59988 150.928 3.86321L145.256 21.5227L148.24 21.5265L151.449 11.7366L152.505 15.0428H150.387V17.8285H156.415L151.865 3.76871Z" fill="white"/>
<path fill-rule="evenodd" clip-rule="evenodd" d="M131.73 21.525C128.669 21.525 126.186 19.0165 126.186 15.9245V6.12085C126.186 3.02767 128.669 0.52036 131.73 0.52036H141.459V3.31997H131.964C130.355 3.31997 128.93 4.82058 128.93 6.44466V15.6045C128.93 17.2286 130.353 18.767 131.964 18.767H138.69V10.5319H133.46V7.78273H141.47V20.8799L147.176 3.03523C147.79 1.26751 149.455 0 151.416 0C153.416 0 155.114 1.32295 155.691 3.1524L161.617 21.5263H150.388V18.7657H157.682L152.737 3.44093C152.447 2.59802 151.931 2.49849 151.416 2.49849C150.878 2.49849 150.38 2.7215 150.1 3.49133L144.294 21.5263L131.73 21.525Z" fill="white"/>
</g>
<defs>
<clipPath id="clip0_4_6209">
<rect width="261.386" height="100" fill="white"/>
</clipPath>
</defs>
</svg>
