<svg width="528" height="100" viewBox="0 0 528 100" fill="none" xmlns="http://www.w3.org/2000/svg">
<g clip-path="url(#clip0_4_6250)">
<path d="M386.073 58.5995H378.617V33.2471C378.617 33.2471 397.277 33.2471 406.068 33.2471C410.812 33.2471 414.516 36.6292 414.645 41.405V58.5995H407.607C407.607 58.5995 407.607 47.6754 407.607 42.8412C407.607 40.4971 406.234 38.875 403.924 38.66C402.654 38.5432 401.371 38.6388 399.996 38.6388C399.996 45.2649 399.996 58.5995 399.996 58.5995H392.63C392.63 58.5995 392.63 45.2251 392.63 38.5007C390.421 38.5007 388.301 38.5007 386.073 38.5007C386.073 45.1162 386.073 58.5995 386.073 58.5995Z" fill="white"/>
<path d="M499.424 58.5995H491.969V33.2471C491.969 33.2471 510.628 33.2471 519.419 33.2471C524.164 33.2471 527.867 36.6292 527.999 41.405V58.5995H520.959C520.959 58.5995 520.959 47.6754 520.959 42.8412C520.959 40.4971 519.588 38.875 517.276 38.66C516.009 38.5432 514.723 38.6388 513.35 38.6388C513.35 45.2649 513.35 58.5995 513.35 58.5995H505.982C505.982 58.5995 505.982 45.2251 505.982 38.5007C503.772 38.5007 501.652 38.5007 499.424 38.5007C499.424 45.1162 499.424 58.5995 499.424 58.5995Z" fill="white"/>
<path d="M295.828 48.9286C298.209 52.0877 300.683 55.3609 303.122 58.5997C300.321 58.5997 294.751 58.5997 294.751 58.5997L288.338 49.1994H281.208C281.208 49.1994 281.208 55.4751 281.208 58.5997C278.705 58.5997 276.318 58.5997 273.863 58.5997C273.863 50.2453 273.863 41.6839 273.863 33.2473C274.22 33.2473 274.573 33.2473 274.93 33.2473C281.35 33.2473 287.768 33.2446 294.189 33.2473C299.421 33.2499 303.167 37.9912 302.117 43.1042C301.536 45.9288 299.73 47.6623 297.066 48.5649C296.697 48.6897 296.322 48.7879 295.828 48.9286ZM281.226 44.6492C284.481 44.6492 290.912 44.6492 290.912 44.6492C291.419 44.6412 291.947 44.4209 292.425 44.2165C293.492 43.7599 294.231 43.0272 294.236 41.7529C294.239 40.4043 293.748 39.3292 292.454 38.8381C291.731 38.562 290.928 38.3921 290.157 38.3788H281.224C281.226 38.3788 281.226 42.5918 281.226 44.6492Z" fill="white"/>
<path d="M374.448 58.5888H355.728C354.336 58.5703 352.9 58.3181 351.575 57.8986C348.122 56.8075 346.316 54.0679 346.519 50.5265C346.728 46.9028 349.004 44.1207 352.422 43.3854C353.22 43.2128 354.051 43.1279 354.867 43.1226H366.81C367.138 43.1226 366.483 43.1226 366.81 43.1226C366.768 40.3564 364.498 38.1184 361.591 38.1078H348.534V33.2471H363.811C369.68 33.2471 374.268 37.6618 374.448 43.5447V58.5915V58.5888ZM367.045 47.8931C363.967 47.8931 360.926 47.8931 357.885 47.8931C355.942 47.8931 354.624 49.0611 354.593 50.8026C354.566 52.4936 355.836 53.6139 357.811 53.6166H367.045C367.045 53.6166 367.045 49.9292 367.045 47.8931Z" fill="white"/>
<path d="M153.747 58.5891V53.6115H170.236C171.757 53.6115 172.686 52.8496 173.014 51.3471C173.254 50.2401 172.562 49.1039 171.234 48.6101C170.63 48.3844 169.959 48.257 169.318 48.2491H159.148C154.998 48.188 152.575 45.7059 152.202 41.2937C151.912 37.8586 154.428 33.9349 157.836 33.25C157.836 33.25 172.507 33.25 179.527 33.25C179.527 34.7738 179.527 36.7489 179.527 38.3576C179.181 38.3576 178.832 38.3576 178.481 38.3576C173.645 38.3576 168.803 38.3523 163.966 38.3603C163.51 38.363 163.045 38.4001 162.596 38.4824C161.458 38.6974 160.614 39.4009 160.408 40.5053C160.202 41.5884 160.682 42.5999 161.582 43.2848C161.86 43.4945 162.308 43.5954 162.681 43.598H173.639C176.356 43.675 178.909 44.3758 180.289 47.0624C182.697 51.7506 180.841 58.4856 173.75 58.5891H153.747Z" fill="white"/>
<path d="M472.928 32.6689C475.745 32.7619 478.48 33.0857 481.041 34.2724C484.605 35.921 487.266 38.5173 488.024 42.4568C488.972 47.4158 488.103 52.0509 484.151 55.5923C481.91 57.6045 479.074 58.4886 476.173 58.9903C471.664 59.7708 467.347 59.0381 463.258 56.9621C459.433 55.0242 457.83 51.666 457.395 47.5963C457.178 45.5495 457.223 43.5001 457.857 41.5118C459.356 36.8289 462.83 34.429 467.371 33.4016C469.185 32.9928 470.23 32.73 472.928 32.6689ZM481.136 45.9212C481.115 45.4593 481.097 44.9974 481.07 44.5355C480.856 41.0737 478.837 38.4642 475.685 37.6332C473.839 37.1448 471.962 37.2005 470.117 37.5908C467.435 38.1536 465.682 39.8074 464.916 42.4382C464.304 44.5328 464.306 46.6911 464.663 48.8254C465.077 51.297 466.566 52.9801 468.939 53.6411C470.365 54.0393 471.912 54.1879 473.396 54.1534C478.457 54.0287 481.258 50.989 481.136 45.9212Z" fill="white"/>
<path d="M269.894 43.4148C269.894 45.074 269.894 46.6164 269.894 48.2331C264.035 48.2331 258.22 48.2331 252.404 48.2331C252.449 51.2728 254.582 53.4363 257.472 53.439C261.224 53.4443 269.764 53.4416 269.764 53.4416V58.5758H255.624C248.591 58.2493 244.309 53.2638 244.544 46.7146C244.621 44.5564 244.763 42.43 245.563 40.3938C247.29 35.9896 251.266 33.25 255.952 33.25C260.231 33.25 269.899 33.25 269.899 33.25V38.3762C269.899 38.3762 260.353 38.347 258.051 38.3576C255.242 38.3709 252.905 40.4761 252.533 43.4148C258.309 43.4148 264.078 43.4148 269.894 43.4148Z" fill="white"/>
<path d="M203.384 53.4151C203.384 53.4151 203.384 39.8629 203.384 33.25C205.802 33.25 208.152 33.25 210.57 33.25C210.57 41.5114 210.57 58.5918 210.57 58.5918L191.652 58.5997C189.315 58.6077 187.433 57.6998 185.968 55.9158C184.577 54.2195 183.721 52.3877 183.785 50.0489C183.922 44.9891 183.824 33.25 183.824 33.25H191.034L191.005 49.449C190.952 51.8302 192.267 53.2187 194.453 53.4151H203.384Z" fill="white"/>
<path d="M221.899 50.0309C221.899 52.9564 221.899 55.7756 221.899 58.5923C219.533 58.5923 217.242 58.5923 214.887 58.5923C214.887 50.2645 214.887 33.2505 214.887 33.2505H234.021C237.409 33.1576 240.809 35.6955 241.815 39.4652C243.285 44.9657 239.468 50.0043 233.768 50.0282C230.146 50.0441 226.524 50.0309 222.902 50.0309C222.611 50.0309 222.324 50.0309 221.899 50.0309ZM222.136 45.0984H231.836C232.226 45.0931 232.657 44.8436 232.997 44.6126C234.058 43.8959 234.795 41.9314 234.454 40.8536C233.921 39.1732 232.855 38.3635 231.094 38.3582H222.136V45.0984Z" fill="white"/>
<path d="M344.549 33.25V38.1108H332.246C330.158 38.1692 328.371 39.162 327.149 40.8902C326.731 41.4822 326.475 42.2308 326.417 43.2449C332.494 43.2449 338.329 43.2449 344.237 43.2449C344.237 45.082 344.237 46.8129 344.237 48.6101C338.302 48.6101 332.389 48.6101 326.351 48.6101C326.351 51.894 326.351 55.3185 326.351 58.6024C323.885 58.6024 319.086 58.6024 319.086 58.6024C319.086 58.6024 319.086 48.2491 319.086 43.6166C319.086 38.1984 323.173 33.4279 328.574 33.2527L344.549 33.25Z" fill="white"/>
<path d="M455.166 53.6275V58.5997H441.871C436.361 58.5997 432.169 55.3424 430.827 49.9507C429.782 45.743 430.265 41.4902 432.633 37.824C434.603 34.7765 437.491 33.258 441.121 33.25H455.308V38.2647H443.262C440.899 38.2647 439.378 39.3638 438.594 41.607C437.681 44.2245 437.523 47.142 438.378 49.818C439.17 52.2975 441.055 53.6275 443.639 53.6275H455.166Z" fill="white"/>
<path d="M295.582 81.6904C295.582 80.1586 295.582 78.6826 295.582 77.1163C301.432 77.1163 307.24 77.1163 313.106 77.1163C313.106 74.5678 313.106 72.1096 313.106 69.5531C307.364 69.5531 301.657 69.5531 295.901 69.5531C295.901 68.0452 295.901 66.6382 295.901 65.1729C302.903 65.1729 309.862 65.1729 316.892 65.1729C316.892 70.6654 316.892 76.1633 316.892 81.6904C309.788 81.6904 302.697 81.6904 295.582 81.6904Z" fill="white"/>
<path d="M152.794 69.4418C152.794 67.8569 152.794 66.4446 152.794 64.9766C158.645 64.9766 164.45 64.9766 170.306 64.9766C170.754 68.1861 170.541 71.2894 169.469 74.3052C169.371 74.5839 169.199 75.0777 169.199 75.0777C169.199 75.0777 172.449 79.673 173.917 81.7251C172.257 81.7251 169.017 81.7251 169.017 81.7251C169.017 81.7251 167.346 79.4553 166.694 78.5208C166.359 78.789 166.055 79.0305 165.754 79.2695C163.714 80.9101 161.456 81.8764 158.774 81.7649C158.774 81.7649 154.439 81.7649 152.203 81.7649V77.2439C152.203 77.2439 155.273 77.2599 156.807 77.2413C158.75 77.2174 160.67 77.074 162.515 76.344C165.366 75.2157 167.058 72.646 166.908 69.4418C162.227 69.4418 157.541 69.4418 152.794 69.4418Z" fill="white"/>
<path d="M426.9 33.25H419.125V58.6157H426.9V33.25Z" fill="white"/>
<path d="M232.85 81.701V77.1482H241.899C245.585 77.3367 248.476 74.99 248.381 70.4159C248.375 70.1239 248.338 69.8319 248.309 69.4682C242.8 69.4682 237.316 69.4682 231.754 69.4682C231.754 67.9922 231.754 66.5931 231.754 65.1543C238.417 65.1543 251.778 65.1543 251.778 65.1543V73.2989C251.76 74.0714 251.517 74.8732 251.245 75.6085C249.885 79.2561 247.132 81.3825 243.391 81.7037L232.85 81.701Z" fill="white"/>
<path d="M253.465 72.8716C253.465 71.5044 253.465 70.2302 253.465 68.9453C259.341 68.9453 271.089 68.9453 271.089 68.9453V74.7193C271.089 77.0262 269.476 78.0244 262.95 78.0244C262.95 78.0244 262.892 79.0571 262.686 79.3464C261.997 81.064 260.661 81.7728 258.716 81.7728H254.426C254.426 80.4269 254.426 79.1367 254.426 77.7324C255.83 77.7324 257.232 77.7324 258.634 77.7324C260.036 77.7324 260.397 77.4218 260.627 76.0068C260.696 75.5821 260.746 75.1547 260.82 74.6503C262.628 74.6503 264.431 74.6582 266.235 74.6476C267.457 74.6423 267.824 74.2547 267.874 72.8743C263.088 72.8716 258.301 72.8716 253.465 72.8716Z" fill="white"/>
<path d="M340.056 65.3135V74.6235C339.306 79.8161 334.647 81.7965 331.223 81.6903H319.137V77.1163H331.568C334.127 77.2464 336.727 74.8412 336.687 71.8334C336.664 69.9486 336.685 68.0611 336.685 66.1736C336.685 65.9134 336.685 65.648 336.685 65.3135C337.868 65.3135 338.995 65.3135 340.056 65.3135Z" fill="white"/>
<path d="M199.826 64.9629C201.13 64.9629 202.337 64.9629 203.659 64.9629C203.659 66.7946 203.659 68.5998 203.659 70.4077C203.659 70.7714 203.68 71.1377 203.657 71.4988C203.379 75.7888 206.365 77.0497 209.148 77.0497C209.507 77.0497 209.866 77.0497 210.275 77.0497C210.275 78.5948 210.275 80.1026 210.275 81.6079C204.111 81.9662 200.085 79.2054 199.842 73.1155C199.744 70.7395 199.823 68.3529 199.823 65.9717C199.826 65.6478 199.826 65.3239 199.826 64.9629Z" fill="white"/>
<path d="M293.596 76.4842L272.914 73.856V69.8262L293.596 72.311V76.4842Z" fill="white"/>
<path d="M293.596 71.0027L272.914 68.3772V64.3447L293.596 66.8322V71.0027Z" fill="white"/>
<path d="M293.613 77.9046C293.613 79.3567 293.613 80.6681 293.613 82.0618C286.696 81.1831 279.83 80.3124 272.902 79.4337C272.902 78.2045 272.902 76.7232 272.902 75.3428C279.782 76.102 286.673 77.1374 293.613 77.9046Z" fill="white"/>
<path d="M187.75 81.5736C187.75 79.9834 187.75 78.5127 187.75 77.0393C188.656 76.9703 189.54 76.965 190.406 76.8296C192.93 76.4288 194.4 74.6687 194.408 72.1042C194.419 69.8265 194.411 67.5461 194.411 65.1914C195.683 65.1914 196.911 65.1914 198.262 65.1914C198.262 67.055 198.289 68.9292 198.262 70.8034C198.244 72.0565 198.305 73.3387 198.062 74.5545C197.204 78.8525 194.598 81.0532 190.121 81.4355C189.347 81.5045 188.568 81.5284 187.75 81.5736Z" fill="white"/>
<path d="M188.059 71.2207C188.059 72.6542 188.059 74.0347 188.059 75.4523C182.768 75.4523 177.52 75.4523 172.219 75.4523C172.219 74.0373 172.219 72.6622 172.219 71.2207C177.486 71.2207 182.731 71.2207 188.059 71.2207Z" fill="white"/>
<path d="M210.465 71.0635C215.795 71.0635 221.038 71.0635 226.321 71.0635C226.321 72.4625 226.321 73.8031 226.321 75.2234C221.041 75.2234 215.779 75.2234 210.465 75.2234C210.465 73.8615 210.465 72.4864 210.465 71.0635Z" fill="white"/>
<path d="M331.669 65.1729C331.669 66.6064 331.669 68.1488 331.669 69.5531C327.495 69.5531 323.355 69.5531 319.152 69.5531C319.152 68.1859 319.152 66.6223 319.152 65.1729C323.276 65.1729 327.429 65.1729 331.669 65.1729Z" fill="white"/>
<path d="M210.644 67.8357C210.642 69.5507 209.264 70.9285 207.571 70.9099C205.929 70.8886 204.57 69.5321 204.543 67.8755C204.514 66.1792 205.885 64.7775 207.579 64.7695C209.29 64.7642 210.647 66.1208 210.644 67.8357ZM208.789 67.7959C208.765 67.0977 208.147 66.4924 207.498 66.4951C206.811 66.5004 206.167 67.188 206.249 67.8809C206.339 68.6534 206.827 69.1047 207.571 69.0755C208.332 69.0436 208.717 68.5127 208.789 67.7959Z" fill="white"/>
<path d="M60.2263 60.9337C60.2263 69.296 46.7465 76.0761 30.1145 76.0761C13.4851 76.0761 0 69.2987 0 60.9364C0 60.9364 0 60.9364 0 60.9337C0 52.5741 13.4798 45.7939 30.1092 45.7939C46.7386 45.7939 60.2237 52.5714 60.2237 60.931C60.2263 60.9337 60.2263 60.9337 60.2263 60.9337Z" fill="white"/>
<path d="M112.083 84.8605C112.086 93.2201 98.6059 100 81.9765 100C65.3445 100 51.862 93.2228 51.8594 84.8631C51.8594 84.8605 51.8594 84.8605 51.8594 84.8605C51.8567 76.4982 65.3392 69.7207 81.9686 69.7207C98.6006 69.7207 112.08 76.4955 112.083 84.8578C112.083 84.8605 112.083 84.8605 112.083 84.8605Z" fill="white"/>
<path d="M61.3341 0C46.1541 0 33.82 12.1983 33.4609 27.3885C34.0919 27.3434 34.7202 27.3169 35.3591 27.3169C50.7635 27.3169 63.2507 39.8869 63.2507 55.3903C63.2507 55.6213 63.2401 55.8469 63.2349 56.0752C77.7549 55.0956 89.223 42.9371 89.223 28.0735C89.223 12.57 76.7385 0 61.3341 0Z" fill="white"/>
<path d="M114.131 24.5908C98.7319 24.5908 86.25 37.1502 86.25 52.6457C86.25 52.9908 86.2553 53.3386 86.2685 53.6784C86.6381 53.6651 87.005 53.6465 87.3826 53.6465C102.433 53.6465 114.701 65.6537 115.248 80.666C130.132 80.0794 142.012 67.7669 142.012 52.6483C142.015 37.1502 129.53 24.5908 114.131 24.5908Z" fill="white"/>
</g>
<defs>
<clipPath id="clip0_4_6250">
<rect width="528" height="100" fill="white"/>
</clipPath>
</defs>
</svg>
