<svg width="695" height="100" viewBox="0 0 695 100" fill="none" xmlns="http://www.w3.org/2000/svg">
<g clip-path="url(#clip0_4_6282)">
<path d="M92.8828 80.0321C92.8828 86.0034 91.0765 90.8221 87.4639 94.4954C83.8478 98.1652 78.9673 100 72.8154 100H1.61526V80.0321H72.8154V60.0606H19.7792C13.9191 60.0606 9.15663 58.2014 5.49537 54.4794C1.83063 50.7608 0 45.9629 0 40.0892V19.968C0 17.1303 0.538421 14.4877 1.61179 12.0435C2.68516 9.59578 4.12674 7.4893 5.93305 5.72752C7.73937 3.96574 9.83747 2.56955 12.2308 1.54243C14.6277 0.515303 17.1426 0 19.7792 0H86.1474V19.968H19.7792V40.0892H72.8154C75.6464 40.0892 78.283 40.6045 80.725 41.6316C83.167 42.6587 85.2928 44.0549 87.0992 45.8167C88.9055 47.5785 90.3193 49.6815 91.3475 52.1292C92.3722 54.5768 92.8828 57.223 92.8828 60.0606V80.0321Z" fill="white"/>
<path d="M208.631 100H128.788C115.501 100 108.859 93.3464 108.859 80.0321V19.968C108.859 17.1303 109.398 14.4877 110.471 12.0435C111.545 9.59578 112.986 7.4893 114.796 5.72752C116.602 3.96574 118.704 2.56955 121.094 1.54243C123.487 0.515303 126.051 0 128.788 0H205.261V19.968H128.788V80.0321H188.56V60.0606H148.855V40.0892H208.631V100Z" fill="white"/>
<path d="M283.588 60.0603H223.812V40.0889H283.588V60.0603Z" fill="white"/>
<path d="M352.982 100H293.207V80.0321H313.274V19.968H293.207V0H333.203V80.0321H352.982V100Z" fill="white"/>
<path d="M386.124 0C383.487 0 380.979 0.511821 378.586 1.53895C376.193 2.56607 374.094 3.96226 372.288 5.72404C370.482 7.48582 369.04 9.58881 367.963 12.0365C366.89 14.4842 366.352 17.1269 366.352 19.9645V80.0321C366.352 93.3464 372.941 100 386.124 100H445.906C459.186 100 465.824 93.3464 465.824 80.0321V19.9645C465.824 17.2278 465.313 14.6409 464.289 12.1932C463.264 9.74897 461.854 7.61464 460.047 5.80412C458.241 3.99012 456.112 2.56607 453.67 1.53895C451.228 0.511821 448.64 0 445.906 0H386.124ZM386.124 19.9645H445.906V80.0321H386.124V19.9645Z" fill="white"/>
<path d="M500.585 0C497.948 0 495.44 0.511821 493.047 1.53895C490.653 2.56607 488.555 3.96226 486.749 5.72404C484.943 7.48582 483.501 9.58881 482.424 12.0365C481.351 14.4842 480.812 17.1269 480.812 19.9645V80.0321C480.812 93.3464 487.402 100 500.585 100H560.367C573.647 100 580.285 93.3464 580.285 80.0321V19.9645C580.285 17.2278 579.778 14.6409 578.75 12.1932C577.725 9.74897 576.301 7.61464 574.498 5.80412C572.688 3.99012 570.562 2.56607 568.12 1.53895C565.678 0.511821 563.101 0 560.367 0H500.585ZM500.585 19.9645H560.367V80.0321H500.585V19.9645Z" fill="white"/>
<path d="M615.048 0C612.415 0 609.893 0.511821 607.497 1.53895C605.103 2.56607 603.008 3.96226 601.202 5.72404C599.396 7.48582 597.954 9.58881 596.877 12.0365C595.804 14.4842 595.266 17.1269 595.266 19.9645V80.0321C595.266 93.3464 601.866 100 615.048 100H674.82C688.1 100 694.738 93.3464 694.738 80.0321V19.9645C694.738 17.2278 694.227 14.6409 693.203 12.1932C692.178 9.74897 690.768 7.61464 688.961 5.80412C687.155 3.99012 685.026 2.56607 682.584 1.53895C680.142 0.511821 677.55 0 674.82 0H615.048ZM615.048 19.9645H674.82V80.0321H615.048V19.9645Z" fill="white"/>
</g>
<defs>
<clipPath id="clip0_4_6282">
<rect width="694.737" height="100" fill="white"/>
</clipPath>
</defs>
</svg>
