<svg width="284" height="100" viewBox="0 0 284 100" fill="none" xmlns="http://www.w3.org/2000/svg">
<g clip-path="url(#clip0_4_6291)">
<path d="M60.94 75.5889L59.1478 66.3257L55.0103 75.5815H60.94M125.886 99.101H116.092L114.786 69.5929L102.049 99.101H95.5148L90.0645 72.425L81.5757 99.101H64.9152L62.4076 84.8374H51.0867L44.663 99.101H34.4336L55.4455 51.4131H67.5334L73.9572 89.9558L86.4802 51.4131H96.1712L100.958 77.5433L112.065 51.4131H123.821L125.886 99.101Z" fill="white"/>
<path d="M153.981 99.101L155.619 88.8716H138.523L139.88 80.3754H154.748L156.378 70.1387H141.355L142.66 61.6498H159.756L161.386 51.4131H134.275L126.656 99.101H153.981Z" fill="white"/>
<path d="M281.26 51.4131H269.829L260.138 66.9821L254.038 51.4131H242.828L254.37 76.5624L250.815 99.101H260.61L263.619 79.1806L281.26 51.4131Z" fill="white"/>
<path d="M223.077 90.0216C228.261 92.3448 234.604 87.7943 237.244 79.8587C239.885 71.923 237.834 63.6111 232.65 61.2953C227.465 58.9795 221.122 63.53 218.482 71.4583C215.834 79.394 217.899 87.7058 223.077 90.0216ZM208.245 71.1559C211.284 57.9765 222.553 49.318 233.417 51.833C244.273 54.3405 250.608 67.0627 247.57 80.2422C244.524 93.429 233.254 102.08 222.398 99.5725C211.542 97.0576 205.207 84.3428 208.245 71.1559Z" fill="white"/>
<path d="M13.5265 55.661C4.19692 61.4357 -0.294564 70.2491 0.900215 82.2264C2.28675 96.1212 20.2822 104.876 35.5193 96.0548C36.8542 95.2804 36.3306 95.4058 36.8247 94.9633L39.8706 75.5887H21.6982L20.3043 84.5127H27.9007L27.0305 89.3065C22.6791 91.0544 15.2744 90.398 12.1105 84.7339C10.1118 81.1496 8.26064 73.1475 16.6831 65.7871C23.542 59.7984 35.4087 58.7143 42.2676 61.8709C42.2676 61.8709 43.1378 56.8558 43.7942 52.1725C30.6222 47.6073 20.3854 51.4129 13.5265 55.661Z" fill="white"/>
<path d="M176.297 51.6858L168.73 99.0123C168.73 99.0123 184.395 99.0123 190.775 99.0123C199.854 99.0123 213.122 85.6337 201.041 74.6964C213.468 61.8414 201.152 51.7891 194.558 51.6858C189.263 51.5973 176.187 51.6858 176.187 51.6858H176.297ZM181.703 80.3162C181.703 80.3162 183.754 80.3162 189.912 80.3162C197.693 80.3162 197.479 89.8228 188.835 89.8228C183.429 89.8228 180.191 89.8228 180.191 89.8228L181.703 80.3162ZM184.727 61.7308C184.727 61.7308 184.941 61.7308 191.099 61.7308C198.017 61.7308 196.609 70.5958 190.015 70.5958C184.609 70.5958 183.208 70.5958 183.208 70.5958L184.727 61.7308Z" fill="white"/>
<path d="M110.487 54.2593C110.34 52.681 111.881 51.501 112.862 50.2841C118.091 43.7718 123.445 37.3996 128.984 31.175C129.36 30.7472 128.866 30.113 128.357 30.3711C122.641 33.3359 116.955 36.5367 111.003 39.0738C107.92 40.3202 104.602 42.5328 101.541 40.1358C101.511 40.1137 101.482 40.0842 101.452 40.0547C99.2178 37.6651 99.8447 35.991 100.966 33.7932C101.202 33.3359 100.7 32.8565 100.25 33.1073C93.0153 37.2743 85.5737 41.1683 77.7634 44.2585C76.5612 44.7379 75.3001 44.8854 74.0832 44.5535C73.2719 44.3323 72.586 43.7939 72.1066 43.1006C71.0077 41.4855 69.7171 39.7744 70.8897 37.8643C74.6806 31.1602 81.0822 26.3664 86.798 21.366C89.158 19.3968 91.6213 17.5383 94.0109 15.6134C94.4608 15.252 94.682 15.3331 94.977 15.783C95.7146 16.8819 96.4816 17.9587 97.2412 19.0428C97.4035 19.2715 97.3519 19.5886 97.1232 19.7508C91.8868 23.5786 86.916 27.7824 82.0041 32.0158C79.9022 33.9628 77.7413 35.9615 75.868 38.115C75.1231 40.1358 77.4241 38.9558 78.346 38.6313C91.6287 33.6457 103.643 25.7985 114.779 17.1031C115.369 16.8155 116.033 15.488 116.638 16.3656C117.287 17.3318 117.965 18.2832 118.637 19.2346C118.961 19.6918 118.895 20.3187 118.482 20.7022C113.666 25.2158 109.042 30.172 105.376 35.6665C104.771 37.3333 108.282 35.814 108.555 35.6591C119.772 29.8622 129.972 22.2805 141.256 16.6311C142.392 16.078 142.739 16.2181 143.506 17.2433C144.037 17.9439 144.538 18.6593 145.047 19.3747C145.379 19.8393 145.335 20.4736 144.936 20.8792C142.237 23.6966 139.589 26.5729 136.986 29.4787C136.595 29.9212 137.126 30.5702 137.635 30.2605C145.888 25.2453 154.716 21.1521 164.245 19.2198C166.428 18.7109 168.5 20.4146 169.149 22.2879C170.425 26.005 167.084 28.4019 164.569 30.7915C156.508 38.2183 143.189 48.7205 132.443 40.5931C132.192 40.3792 131.949 40.1801 131.602 40.4751C128.859 42.8425 126.086 45.1731 123.379 47.5847C120.259 50.4316 117.479 53.6398 114.639 56.7742C113.644 58.1607 110.561 55.0042 110.487 54.2593ZM161.907 26.8236C162.379 26.3221 162.873 25.8427 163.33 25.3265C163.662 24.9503 163.315 24.3603 162.836 24.4709C150.888 27.3251 136.912 36.5662 136.639 36.758C136.315 36.9792 136.367 37.4881 136.728 37.6504C145.563 41.6699 155.667 32.4509 161.885 26.8531C161.892 26.8458 161.899 26.8384 161.907 26.8236Z" fill="white"/>
<path d="M282.866 37.9755C282.608 37.3633 282.335 36.8397 281.561 36.6332C275.816 35.1508 272.253 34.3395 264.052 34.2215C252.849 34.0666 241.705 34.8115 230.606 36.2792C228.747 36.5226 227.324 34.6566 228.061 32.9308C228.592 31.6918 229.131 30.4602 229.669 29.1843C230.222 28.0854 230.274 26.9865 230.178 25.8581C230.097 24.9288 229.743 24.0438 229.175 23.3062C227.575 21.2117 225.687 19.3531 224.123 17.2291C223.681 16.6243 223.526 15.8499 223.74 15.1345C223.983 14.3159 224.389 13.4973 224.455 12.686C225.384 6.32859 214.631 4.61755 216.217 11.919C216.726 14.7732 219.661 16.0712 218.053 17.1406C207.632 25.8802 185.086 44.1632 171.088 41.2132C169.997 41.1468 169.731 40.1511 169.864 39.2071C170.034 38.0492 172.866 34.1035 173.647 34.4059C180.742 36.5226 188.088 32.8718 194.047 29.2285C196.894 27.429 199.542 25.3639 202.116 23.1956C202.875 22.5613 202.883 21.669 202.831 20.7987C202.588 16.6907 198.937 15.0755 195.234 15.7762C187.137 16.6465 162.142 31.5074 165.719 41.9138C166.243 43.4331 167.511 44.5689 169.038 45.063C184.681 50.1666 209.417 28.6606 220.347 19.3826C220.863 18.6525 221.652 20.6069 222.058 20.9536C222.84 22.3253 225.679 24.6854 225.281 26.1309C224.13 30.2094 221.343 33.7421 220.362 37.887C220.133 39.5538 221.505 41.5303 222.537 42.1203C223.046 42.4153 224.071 42.4743 224.883 42.3563C229.109 41.7516 233.327 41.1247 237.561 40.5715C245.57 39.657 253.926 39.0449 261.736 39.2071C265.144 39.2809 274.289 39.1186 274.289 40.9919C274.289 42.3563 274.023 42.7029 275.624 42.5776C277.777 42.4374 279.931 42.1867 282.092 42.1867C283.877 42.2014 283.014 38.3368 282.866 37.9755ZM197.587 19.6039C198.531 19.5744 198.944 20.7913 198.17 21.3371C193.066 24.8993 184.297 32.5547 176.273 30.91C179.931 26.8094 191.562 19.8915 197.587 19.6039Z" fill="white"/>
<path d="M38.639 24.3975C36.7952 23.7043 35.1948 22.4136 34.295 20.6583C31.7063 15.6211 34.3909 11.4467 40.6819 9.69882C53.9424 5.28846 71.2077 -1.11319 84.6084 4.8312C85.7073 5.31796 86.644 6.13661 87.2119 7.19126C90.5971 13.5044 84.483 19.0653 76.9972 20.2674C76.4441 20.3559 75.8836 20.0757 75.6107 19.5816C74.5487 17.6861 74.5044 15.6358 75.3673 15.0016C77.1669 13.6814 81.4814 13.2389 83.9004 11.4099C84.1733 11.2034 84.2028 10.8272 83.9815 10.5691C77.1669 2.78828 48.6766 12.3244 37.8129 17.0592C33.3805 20.0241 57.6005 23.9624 60.8161 25.3194C65.3297 27.2296 69.8286 31.2712 67.8742 35.9471C64.8208 43.2559 47.6957 44.045 38.7938 45.2619C29.302 46.5599 19.7364 47.2311 10.1855 48.0202C5.28841 48.8241 -1.55575 49.4805 0.737931 42.5921C0.87806 42.1643 1.15832 41.7808 1.5197 41.5227C3.65113 39.996 7.45672 40.5639 8.99813 42.3413C23.188 41.4416 37.3704 39.8412 51.3685 37.3557C80.8766 32.5914 50.808 28.9775 38.639 24.3975Z" fill="white"/>
</g>
<defs>
<clipPath id="clip0_4_6291">
<rect width="283.207" height="100" fill="white"/>
</clipPath>
</defs>
</svg>
