<svg width="407" height="100" viewBox="0 0 407 100" fill="none" xmlns="http://www.w3.org/2000/svg">
<g clip-path="url(#clip0_4_6301)">
<path d="M19.779 0C15.9591 0 12.2435 3.13976 11.5625 7.02759L8.84332 20.5275C8.77157 22.2279 9.00985 24.5492 9.54055 24.9821C10.2161 28.7272 22.7135 46.0696 22.354 48.7095C22.0183 51.3575 20.5439 59.1494 20.5439 59.1494C20.0904 61.7745 18.2966 63.878 15.6708 63.878C13.0409 63.878 11.2471 61.7826 11.7006 59.1494L14.0678 46.2062H4.73508L1.60092 64.1607C0.961908 67.8044 3.43335 70.7 7.10228 70.7H20.4052C24.091 70.7 27.5988 67.8044 28.2744 64.1607C28.2744 64.1607 31.701 47.3906 31.6847 46.2062C31.6726 45.0131 31.3395 44.8832 31.3395 44.8832C31.3395 43.5196 20.2183 25.1749 19.0811 24.4917C18.593 24.2076 18.1903 22.3909 18.174 21.2931C18.1537 20.2021 19.6389 12.8722 19.6389 12.8722C20.0904 10.2465 22.5794 8.14091 25.2093 8.14091C27.8371 8.14091 28.9351 10.2465 28.4815 12.8722L26.4643 24.4917H35.8647L39.139 7.02556C39.8796 3.13976 37.3878 0 33.5686 0H19.779ZM45.4073 0L34.2658 64.1628C33.6275 67.8064 36.0962 70.702 39.7672 70.702H53.0708C56.7539 70.702 60.3274 67.8064 61.009 64.1628L72.9168 0H64.5595L53.2068 62.3521C53.0423 63.2584 52.1617 64.0221 51.2586 64.0221H44.6404C43.715 64.0221 43.097 63.2645 43.2473 62.3521L54.3217 0H45.4073ZM77.4441 0L64.0024 70.702H72.9168L79.047 38.691H90.3977C94.091 38.691 97.5913 35.7731 98.2662 32.149L103.141 7.02759C103.878 3.13164 101.392 0 97.573 0H86.3585H77.4441ZM109.272 0L95.3439 70.702H115.401L116.792 61.9334H106.904L110.945 38.0653H120.833L122.225 30.688H112.339L116.725 8.76859H126.616L128.005 0H109.272ZM133.23 0L119.859 70.702H128.774L134.833 38.691H141.172C142.004 39.4674 142.104 40.896 142.213 41.6136C142.378 42.6539 142.553 43.983 142.425 45.0232C142.309 46.0554 137.548 70.7 137.548 70.7H146.464C146.464 70.7 151.478 43.8531 151.478 43.4222C151.494 42.9833 151.478 41.6075 150.993 40.8473C150.666 40.3596 150.104 39.2395 149.458 38.831C148.213 38.0328 146.81 37.5059 146.81 37.5059H146.182C148.734 36.5022 153.542 34.8478 154.054 32.149L158.927 7.02759C159.668 3.13164 157.178 0 153.357 0H133.23ZM180.937 0L167.494 70.702H177.732L186.018 29.7147L189.293 70.702H198.209L211.65 0H201.412L194.448 36.9513L189.85 0H180.937ZM216.314 0L202.875 70.702H211.789L225.228 0H216.314ZM229.892 0L216.452 70.702H226.762L235.049 29.7147L238.322 70.702H247.238L260.678 0H250.37L243.476 36.9513L238.879 0H229.892ZM264.44 0L262.767 8.76859H268.337L257.334 70.702H267.503L278.716 8.76859H284.077L285.47 0H264.44ZM288.954 0L275.026 70.702H295.082L296.475 61.9334H286.587L290.697 38.0653H300.584L301.979 30.688H292.088L296.404 8.76859H306.294L307.688 0H288.954ZM311.588 0L298.147 70.702H308.452L316.742 29.7147L320.017 70.702H328.931L342.373 0H332.065L325.168 36.9513L320.572 0H311.588ZM347.04 0L333.594 70.702H353.931C357.625 70.702 361.187 67.8064 361.873 64.1628L372.664 7.02962C373.397 3.13164 370.915 0 367.094 0H347.04ZM385.272 0C381.448 0 377.806 3.13976 377.123 7.02759L367.161 64.1607C366.516 67.8064 368.931 70.702 372.597 70.702H387.291C390.975 70.702 394.547 67.8044 395.232 64.1607L406.023 7.02759C406.766 3.13976 404.268 0 400.455 0H385.272ZM354.628 8.14294H358.739C361.367 8.14294 363.16 10.2465 362.707 12.8742L353.931 59.1515C353.473 61.7765 350.919 63.9531 348.289 63.9531H344.25L354.628 8.14294ZM390.495 8.14294H390.773C393.401 8.14294 395.126 10.2465 394.673 12.8742L386.317 59.1515C385.862 61.7684 383.44 63.9531 380.816 63.9531C378.184 63.9531 377.088 61.7765 377.54 59.1515L385.827 12.8742L385.894 12.6645L385.965 12.4555L386.033 12.1769L386.102 11.9679L386.173 11.6892L386.24 11.4802L386.311 11.2705L386.448 11.0635L386.517 10.8539L386.659 10.6449L386.728 10.4372L386.867 10.2282L387.009 10.0875L387.145 9.88056L387.287 9.67156L387.495 9.53087L387.635 9.39086L387.776 9.25085L387.981 9.11016L388.192 8.97218L388.333 8.8342L388.54 8.69351L388.75 8.62452L388.959 8.48451L389.099 8.41552L389.376 8.3445L389.584 8.27686H389.793L390 8.20584H390.281L390.495 8.14294ZM86.0085 8.42161H90.3286C91.2763 8.42161 93.2874 10.5901 93.1148 11.5532L89.4215 29.0201C89.2503 29.9244 88.0305 32.009 87.1274 32.009L81.8183 32.0942L80.9262 31.6634C80.9262 31.6634 80.2871 30.8368 80.5051 30.3424L84.6844 8.97827C85.0689 8.66307 85.5367 8.42161 86.0085 8.42161ZM141.513 8.42161H141.585H141.654H141.723H141.792H145.834C146.783 8.42161 148.805 10.5901 148.618 11.5532L144.924 28.9484C144.764 29.8608 142.496 32.011 141.585 32.011H137.753C136.962 32.011 136.417 31.4909 136.36 30.7611C136.36 30.6454 136.344 30.479 136.36 30.3424L140.47 8.97827L140.537 8.90928L140.608 8.84232L140.745 8.7713H140.814L140.883 8.70163L140.952 8.63264H141.021L141.09 8.56365H141.162L141.3 8.49466H141.369H141.436H141.505V8.42567H141.513V8.42161ZM0 76.8253V100H397.528V76.8253H0ZM292.23 79.2616H292.297H292.365H292.436H292.503H292.572H295.637C296.465 79.2616 297.057 79.9224 296.89 80.7922L296.123 84.6895H294.244L294.659 82.1152C294.755 81.5335 294.411 81.0702 293.825 81.0702C293.244 81.0702 292.668 81.5315 292.572 82.1152L292.226 83.9969C292.165 84.1065 292.34 84.6347 292.432 84.6916C292.69 84.8404 295.149 88.9129 295.149 89.2132C295.206 89.364 295.241 89.4371 295.216 89.4939C295.147 90.0018 294.449 93.4588 294.449 93.4588C294.301 94.2515 293.528 94.9178 292.71 94.9178H289.784C288.972 94.9178 288.45 94.2515 288.6 93.4588L289.3 89.4939H291.317L290.833 92.3468C290.74 92.9265 291.078 93.4588 291.665 93.4588C292.23 93.4588 292.831 92.9306 292.922 92.3468L293.339 90.0485C292.967 89.0894 290.502 85.5898 290.343 84.7585C290.236 84.6652 290.191 84.1633 290.205 83.7852C290.227 83.3726 290.762 80.7922 290.762 80.7922H290.833V80.7226V80.6556V80.5866L290.9 80.4466V80.3796L290.967 80.3086V80.239L291.037 80.172V80.101L291.106 80.034L291.177 79.963V79.896H291.244L291.315 79.8264L291.382 79.7553L291.452 79.6884V79.6174H291.521L291.588 79.5504L291.655 79.4814H291.726L291.795 79.4124H291.864L291.934 79.3448H292.003H292.143L292.23 79.2616ZM308.245 79.2616H310.752L311.1 85.1772L314.304 79.2616H316.814L311.659 88.3088L310.407 94.9178H308.178L309.294 87.8192L308.245 79.2616ZM331.019 79.2616H331.087H331.158H331.225H331.296H331.363H334.428C335.254 79.2616 335.832 79.9224 335.681 80.7922L334.914 84.6895H333.033L333.452 82.1152C333.546 81.5335 333.206 81.0702 332.616 81.0702C332.035 81.0702 331.455 81.5315 331.363 82.1152L331.015 83.9969C330.942 84.1065 331.109 84.6347 331.223 84.6916C331.469 84.8404 333.94 88.9129 333.94 89.2132C334.013 89.364 334.011 89.4371 334.011 89.4939C333.916 90.0018 333.314 93.4588 333.314 93.4588C333.163 94.2515 332.382 94.9178 331.569 94.9178H328.577C327.765 94.9178 327.241 94.2515 327.389 93.4588L328.087 89.4939H330.108L329.622 92.3468C329.527 92.9285 329.889 93.4608 330.456 93.4608C331.036 93.4608 331.596 92.9326 331.709 92.3468L332.126 90.0505C331.746 89.0914 329.293 85.5918 329.132 84.7606C329.027 84.6652 328.982 84.1653 328.994 83.7872C329.014 83.3726 329.551 80.7943 329.551 80.7943L329.618 80.7246V80.6576V80.5886L329.687 80.4486V80.3796L329.757 80.3086V80.241L329.826 80.172V80.101L329.895 80.034L329.964 79.963V79.896H330.035L330.1 79.8264L330.17 79.7553L330.239 79.6884L330.308 79.6174L330.377 79.5504L330.446 79.4814H330.515L330.586 79.4124H330.654L330.723 79.3448H330.79H330.928L331.019 79.2616ZM347.245 79.2616H351.915L351.565 81.1412H350.379L347.943 94.9198H345.645L348.081 81.1412H346.898L347.245 79.2616ZM365.491 79.2616H369.67L369.321 81.1412H367.161L366.189 86.0815H368.415L368.066 87.6812H365.906L365.003 92.9711H367.159L366.882 94.9178H362.424L365.491 79.2616ZM382.695 79.2616H385.272L385.687 88.3088L389.657 79.3306L392.163 79.2616L389.52 94.9178H387.57L388.821 86.6389L385.337 94.9178H383.944L383.529 86.4272L381.996 94.9178H379.696L382.695 79.2616ZM8.63551 79.8203H12.7458L12.4655 81.7655H10.2385L9.33342 86.6389H11.4935L11.2126 88.3109H8.98345L8.14948 93.5988H10.3075L9.95957 95.5475H5.50135L8.63551 79.8203ZM27.8574 79.8203H29.8076L30.8514 88.0309L32.3826 79.8203H34.6828L31.6847 95.5434H29.7366L28.9696 86.4251L27.1595 95.5434H24.8614L27.8574 79.8203ZM48.7506 79.8203H53.3476L53.0708 81.7655H51.8848L49.3775 95.5454H47.1524L49.5866 81.7655H48.3337L48.7506 79.8203ZM69.0177 79.8203H73.1957L72.8478 81.7655H70.6877L69.7136 86.6389H71.8716L71.5927 88.3109H69.4347L68.5297 93.5988H70.6897L70.4108 95.5475H65.9553L69.0177 79.8203ZM88.6587 79.8203H93.1148C93.9407 79.8203 94.4633 80.5501 94.2988 81.4179L93.255 86.9838C93.1392 87.5878 92.0778 88.0796 91.5119 88.3088H91.6527H91.7217H91.7928V88.3758H91.8619H91.9329H91.9999H92.0717L92.1407 88.4455H92.2098H92.2788H92.3499V88.5124H92.419H92.49V88.5835H92.5598C92.6532 88.7519 92.6979 89.2517 92.6979 89.3478C92.6979 89.4411 91.5809 95.5414 91.5809 95.5414H89.5617C89.5617 95.5414 90.6414 90.0627 90.6779 89.8375C90.7009 89.5933 90.6515 89.2991 90.6089 89.0732C90.5926 88.9047 90.5845 88.6159 90.3997 88.4455H89.0066L87.6825 95.5414H85.6626L88.6587 79.8203ZM108.574 79.8203H113.24L112.963 81.7655H111.779L109.272 95.5454H107.043L109.481 81.7655H108.228L108.574 79.8203ZM131.766 79.8203H134.414L133.578 95.5434H130.93L131.278 91.9241H129.677L128.353 95.5434H125.988L131.766 79.8203ZM150.294 79.8203H152.311L149.316 95.5434H147.365L150.294 79.8203ZM168.261 79.8203H170.211L171.254 88.0309L172.79 79.8203H175.017L172.092 95.5434H170.073L169.375 86.4251L167.563 95.5434H165.267L168.261 79.8203ZM191.314 79.8203H193.891L194.306 88.9372L198.28 79.892H200.784L198.137 95.5475H196.187L197.44 87.2665L193.956 95.5475H192.563L192.146 87.0596L190.616 95.5475H188.386L191.314 79.8203ZM216.594 79.8203H220.703L220.422 81.7655H218.195L217.292 86.6389H219.45L219.169 88.3109H216.944L216.039 93.5988H218.264L217.916 95.5475H213.531L216.594 79.8203ZM236.788 79.8203H238.739L239.784 88.0309L241.316 79.8203H243.543L240.62 95.5434H238.67L237.903 86.4251L236.091 95.5434H233.792L236.788 79.8203ZM257.474 79.8203H262.14L261.793 81.7655H260.609L258.172 95.5454H255.941L258.382 81.7655H257.129L257.474 79.8203ZM90.5378 81.6966C90.4281 81.6966 90.3367 81.7615 90.2575 81.8366L89.3525 86.5672C89.3525 86.6064 89.3525 86.6003 89.3525 86.6389C89.3525 86.789 89.4581 86.9148 89.6307 86.9148H90.4667C90.6738 86.9148 91.1951 86.4982 91.2337 86.2892L91.9979 82.3912C92.0345 82.168 91.6506 81.6945 91.4408 81.6945L90.5378 81.6966ZM131.766 86.4272L130.303 90.3941H131.418L131.766 86.4272Z" fill="white"/>
</g>
<defs>
<clipPath id="clip0_4_6301">
<rect width="406.154" height="100" fill="white"/>
</clipPath>
</defs>
</svg>
