<svg width="395" height="100" viewBox="0 0 395 100" fill="none" xmlns="http://www.w3.org/2000/svg">
<g clip-path="url(#clip0_4_6307)">
<path d="M27.4608 30.9416C22.0352 29.1031 18.6234 27.6146 17.2254 26.476C16.5814 26.0001 16.0572 25.3802 15.6945 24.6657C15.3319 23.9512 15.1409 23.1618 15.1367 22.3604C15.0828 21.3199 15.3112 20.2842 15.7976 19.363C16.284 18.4419 17.0103 17.6697 17.8995 17.1284C19.7385 15.9703 22.2433 15.3872 25.3888 15.3872C30.1435 15.3293 34.8513 16.334 39.1691 18.3281L40.2343 6.66435C38.0046 5.92886 35.7201 5.37169 33.4024 4.9981C30.6152 4.52063 27.792 4.28647 24.9644 4.29828C17.1977 4.29828 11.0953 5.93675 6.65717 9.21371C2.21906 12.4907 0 17.1423 0 23.1685C0 28.295 1.44516 32.1996 4.33548 34.8823C7.2258 37.5649 11.6334 39.8588 17.5583 41.7639C21.9964 43.2524 24.9699 44.6992 26.4789 46.1044C27.1564 46.67 27.7063 47.3732 28.0922 48.1674C28.4781 48.9616 28.6912 49.8288 28.7174 50.7116C28.7279 51.7539 28.4555 52.7795 27.9294 53.6789C27.4032 54.5783 26.6431 55.3179 25.73 55.8187C23.3821 57.1638 20.702 57.8166 17.9993 57.7015C14.7101 57.6889 11.4437 57.1547 8.32146 56.1186C6.10308 55.5074 3.97001 54.6202 1.97219 53.4776L0.832146 65.9994C2.85704 66.5993 5.47552 67.2102 8.68761 67.8323C12.0221 68.4742 15.411 68.7895 18.8065 68.7737C26.4234 68.7737 32.4814 67.1075 36.9806 63.775C41.4797 60.4425 43.7293 55.7631 43.7293 49.7369C43.7293 44.7881 42.5199 40.9002 40.1011 38.0731C37.6824 35.2461 33.4689 32.8689 27.4608 30.9416Z" fill="white"/>
<path d="M202.027 5.37305L182.163 56.7018H157.424V5.37305H142.77V67.7907L192.906 67.7074L197.999 54.0191H222.747L227.74 67.7074H243.817L219.26 5.37305H202.027ZM201.844 43.1969L210.589 17.8866L218.994 43.1969H201.844Z" fill="white"/>
<path d="M286.618 49.4536C285.73 47.0154 284.673 44.4827 283.447 41.8555C282.931 40.6382 282.144 39.5551 281.146 38.6888C280.148 37.8225 278.965 37.1959 277.689 36.8568C282.044 35.9681 285.228 34.1214 287.242 31.3165C289.228 28.6227 290.293 25.359 290.279 22.0105C290.279 16.3453 288.337 12.1575 284.454 9.44702C280.571 6.73659 274.981 5.3786 267.686 5.37305H243.82V67.7074H258.474V42.3887H262.96C264.008 42.325 265.057 42.497 266.031 42.892C267.004 43.287 267.877 43.895 268.585 44.6715C269.996 46.3708 271.056 48.3331 271.706 50.445L277.938 67.7074H293.666L287.009 50.2618L286.618 49.4536ZM272.471 29.7336C270.599 31.0249 267.953 31.6581 264.624 31.6581H258.458V16.1037H264.175C267.869 16.1037 270.64 16.7119 272.496 17.9282C274.352 19.1446 275.317 21.1358 275.317 23.8851C275.393 25.0202 275.174 26.1556 274.681 27.1806C274.188 28.2056 273.438 29.0852 272.504 29.7336H272.471Z" fill="white"/>
<path d="M332.251 41.3223C332.251 46.6321 331.288 50.67 329.363 53.436C327.438 56.2019 324.412 57.5905 320.284 57.6016C316.232 57.6016 313.236 56.2602 311.256 53.5776C309.275 50.8949 308.318 46.9959 308.318 41.8639V5.37305H293.664V44.6298C293.664 52.5612 295.958 58.568 300.546 62.6503C305.134 66.7326 311.744 68.7738 320.376 68.7738C329.186 68.7738 335.81 66.6576 340.248 62.4254C344.686 58.1931 346.905 51.8058 346.905 43.2635V5.37305H332.251V41.3223Z" fill="white"/>
<path d="M390.417 38.0979C388.003 35.3209 383.793 32.9353 377.785 30.9414C372.367 29.1002 368.947 27.6089 367.549 26.4759C366.904 26.0013 366.378 25.3817 366.016 24.6669C365.653 23.9521 365.463 23.162 365.46 22.3602C365.407 21.3197 365.635 20.284 366.121 19.3629C366.608 18.4417 367.334 17.6696 368.223 17.1282C370.062 15.9702 372.567 15.387 375.712 15.387C380.451 15.334 385.141 16.3387 389.443 18.3279L390.516 6.66417C388.286 5.92965 386.002 5.3725 383.684 4.99792C380.914 4.52333 378.107 4.28918 375.296 4.2981C367.53 4.2981 361.427 5.93657 356.989 9.21353C352.551 12.4905 350.332 17.1421 350.332 23.1684C350.332 28.2921 351.788 32.1994 354.668 34.8821C357.547 37.5647 361.949 39.8808 367.857 41.7637C372.295 43.2522 375.269 44.699 376.778 46.1043C377.455 46.6699 378.005 47.373 378.391 48.1672C378.777 48.9614 378.99 49.8286 379.016 50.7114C379.024 51.7519 378.749 52.7749 378.221 53.6714C377.694 54.5679 376.933 55.3042 376.02 55.8018C373.673 57.147 370.992 57.7997 368.29 57.6847C365.015 57.6732 361.763 57.1446 358.653 56.1184C355.441 55.077 353.311 54.1939 352.296 53.4774L351.148 65.9743C353.17 66.5741 355.783 67.1823 359.003 67.8071C362.332 68.4484 365.715 68.7637 369.105 68.7486C376.722 68.7486 382.78 67.0823 387.279 63.7498C391.778 60.4173 394.022 55.7379 394.011 49.7117C394.022 44.774 392.824 40.9028 390.417 38.0979Z" fill="white"/>
<path d="M92.4511 0.000282836C58.1929 -0.0504634 36.7272 37.0466 53.8123 66.7764C53.9958 67.0943 54.1824 67.4107 54.372 67.7257H56.9272L90.7451 33.8674C93.8406 36.957 98.0854 32.7839 99.3167 31.4257L97.1959 29.3003C94.2496 26.3689 91.7272 30.8585 91.7272 30.8585L85.2869 24.4018C85.2869 24.4018 95.3391 19.8122 100.806 25.2868C102.762 27.251 104.044 28.5346 104.9 29.3839L112.39 21.8869C110.93 17.8585 114.372 13.76 118.585 14.5063C122.799 15.2555 124.624 20.2898 121.87 23.5689C120.369 25.357 117.911 26.0152 115.72 25.2197L108.23 32.7167L112.299 36.8003C117.775 42.2719 113.172 52.3376 113.172 52.3376L106.732 45.8794C106.732 45.8794 111.217 43.3809 108.288 40.4077L106.164 38.3242C104.809 39.5645 100.641 43.8137 103.735 46.9063L82.9317 67.7331H130.564C148.379 38.4286 127.827 0.806253 93.572 0.0122231C93.1988 0.00326791 92.8242 -0.0012097 92.4511 0.000282836Z" fill="white"/>
<path d="M24.4984 99.5828H18.5236L16.6429 94.4841H7.48932L5.59202 99.5828H0L8.96222 76.4053H15.3697L24.4984 99.5828ZM15.2616 90.4684L12.1493 81.0708L8.89564 90.4684H15.2616Z" fill="white"/>
<path d="M42.366 92.9261V76.4053H47.4338V99.5828H40.8682L40.6768 99.2162L32.2388 83.1952V99.5828H27.1211V76.4053H33.8948L42.366 92.9261Z" fill="white"/>
<path d="M84.264 99.5828H78.2892L76.4335 94.4841H67.23L65.341 99.5828H59.7656L68.7278 76.4053H75.1354L84.264 99.5828ZM75.0355 90.4684L71.9066 81.0708L68.6529 90.4684H75.0355Z" fill="white"/>
<path d="M92.0677 90.1602V99.5828H86.6172V76.4053H95.4795C98.2007 76.4053 100.289 76.9218 101.729 77.9216C102.453 78.4545 103.03 79.163 103.406 79.9806C103.781 80.7982 103.943 81.698 103.876 82.5954C103.883 83.835 103.492 85.0442 102.761 86.0445C101.881 87.1642 100.607 87.9036 99.1992 88.1107C99.6744 88.2376 100.114 88.4718 100.485 88.7953C100.856 89.1188 101.147 89.523 101.338 89.9769C101.796 90.9516 102.17 91.893 102.52 92.8012L102.661 93.1011L105.157 99.5828H99.3324L97.0024 93.1594C96.7572 92.3773 96.3583 91.6521 95.8291 91.0266C95.5667 90.7384 95.2423 90.5137 94.8805 90.3694C94.5186 90.225 94.1288 90.1649 93.7404 90.1935L92.0677 90.1602ZM92.0677 86.1778H94.3478C95.3711 86.2367 96.3885 85.9871 97.2687 85.4613C97.6225 85.2271 97.9082 84.9034 98.0967 84.523C98.2852 84.1426 98.3699 83.719 98.3421 83.2952C98.3732 82.8675 98.2938 82.439 98.1117 82.0509C97.9295 81.6628 97.6507 81.3281 97.3019 81.0791C96.3457 80.5647 95.2648 80.3281 94.1814 80.3959H92.0677V86.1778Z" fill="white"/>
<path d="M113.345 91.0932V99.5828H107.895V76.4053H115.009C118.122 76.4053 120.502 77.0051 122.133 78.1882C123.764 79.3712 124.629 81.1874 124.629 83.6285C124.688 84.6674 124.508 85.706 124.104 86.6648C123.701 87.6236 123.083 88.4772 122.299 89.1604C120.751 90.4545 118.593 91.0988 115.825 91.0932H113.345ZM113.345 87.0526L115.201 87.1109C116.234 87.1736 117.255 86.8566 118.072 86.2195C118.423 85.9085 118.699 85.5223 118.881 85.0896C119.062 84.6569 119.144 84.1888 119.12 83.7201C119.144 83.2596 119.06 82.8 118.875 82.3777C118.69 81.9554 118.409 81.5821 118.055 81.2874C117.228 80.6892 116.22 80.3949 115.201 80.4543H113.345V87.0526Z" fill="white"/>
<path d="M132.361 88.036C132.313 89.0792 132.482 90.121 132.855 91.096C133.229 92.0709 133.8 92.9579 134.533 93.7013C135.287 94.4198 136.179 94.9783 137.154 95.3434C138.129 95.7084 139.168 95.8725 140.208 95.8258C140.747 95.836 141.285 95.7913 141.814 95.6925C142.193 95.6218 142.566 95.5216 142.929 95.3925V90.2688H138.769V86.2448H148.205V98.7417C147.054 99.0851 145.884 99.3632 144.702 99.5748C143.193 99.8589 141.66 100.001 140.125 99.9997C135.948 99.9997 132.677 98.9527 130.314 96.8588C127.959 94.776 126.777 91.8601 126.777 88.036C126.777 84.212 127.992 81.2711 130.414 79.1883C132.835 77.1055 136.189 76.0391 140.458 76.0391C141.819 76.0275 143.18 76.1194 144.527 76.314C145.569 76.4835 146.59 76.7628 147.573 77.1471V77.3804L147.207 81.6293C146.304 81.1512 145.341 80.798 144.344 80.5796C143.298 80.3449 142.229 80.2276 141.157 80.2297C138.832 80.1067 136.545 80.8618 134.749 82.3458C133.964 83.0652 133.344 83.9464 132.932 84.9287C132.52 85.911 132.325 86.9711 132.361 88.036Z" fill="white"/>
<path d="M167.061 88.036C167.014 89.0784 167.182 90.1193 167.554 91.0939C167.926 92.0685 168.495 92.9561 169.224 93.7013C169.98 94.4204 170.873 94.9793 171.85 95.3444C172.826 95.7094 173.866 95.8732 174.908 95.8258C175.446 95.8352 175.984 95.7906 176.514 95.6925C176.89 95.623 177.261 95.5227 177.621 95.3925V90.2688H173.46V86.2448H182.88V98.7417C181.729 99.0879 180.56 99.3661 179.377 99.5748C177.87 99.8596 176.341 100.002 174.808 99.9997C170.631 99.9997 167.36 98.9527 164.997 96.8588C162.642 94.776 161.469 91.8601 161.469 88.036C161.469 84.212 162.684 81.2711 165.105 79.1883C167.527 77.1055 170.872 76.0391 175.149 76.0391C176.508 76.0275 177.865 76.1194 179.21 76.314C180.25 76.481 181.268 76.7603 182.247 77.1471V77.3804L181.881 81.6293C180.983 81.1486 180.022 80.7953 179.027 80.5796C177.984 80.3458 176.918 80.2284 175.848 80.2297C173.521 80.1078 171.232 80.8627 169.432 82.3458C168.649 83.0653 168.03 83.9469 167.621 84.9295C167.211 85.9121 167.02 86.9721 167.061 88.036Z" fill="white"/>
<path d="M209.827 99.5828H203.877L202.013 94.4841H192.859L190.962 99.5828H185.387L194.349 76.4053H200.765L209.827 99.5828ZM200.59 90.4684L197.478 81.0708L194.224 90.4684H200.59Z" fill="white"/>
<path d="M231.735 76.4053H239.931V99.5828H234.664L234.722 81.1957L228.514 99.2162H223.671L217.58 81.1707L217.655 99.5828H212.379V76.4053H220.809L226.184 92.5679L231.735 76.4053Z" fill="white"/>
<path d="M259.922 99.5828H244.586V76.4053H259.739V80.3959H250.036V85.6779H259.024V89.6686H250.036V95.5505H259.922V99.5828Z" fill="white"/>
<path d="M289.072 99.5828H273.777V76.4053H288.914V80.3959H279.186V85.6779H288.19V89.6686H279.186V95.5505H289.072V99.5828Z" fill="white"/>
<path d="M308.494 92.9261V76.4053H313.612V99.5828H307.013L306.797 99.2162L298.367 83.1952V99.5828H293.258V76.4053H300.04L308.494 92.9261Z" fill="white"/>
<path d="M323.006 88.036C322.959 89.0784 323.127 90.1192 323.499 91.0939C323.871 92.0685 324.44 92.956 325.169 93.7012C325.923 94.4197 326.815 94.9782 327.79 95.3433C328.765 95.7084 329.804 95.8725 330.844 95.8257C331.386 95.8355 331.926 95.7909 332.459 95.6924C332.833 95.6253 333.201 95.5249 333.557 95.3925V90.2688H329.396V86.2448H338.833V98.7416C337.683 99.0878 336.513 99.366 335.33 99.5748C333.826 99.8592 332.299 100.001 330.769 99.9997C326.592 99.9997 323.319 98.9527 320.95 96.8588C318.595 94.776 317.422 91.86 317.422 88.036C317.422 84.212 318.628 81.271 321.05 79.1882C323.472 77.1054 326.825 76.039 331.102 76.039C332.464 76.0278 333.824 76.1197 335.172 76.3139C336.206 76.4807 337.219 76.7601 338.192 77.1471V77.3803L337.851 81.5626C336.949 81.0833 335.986 80.73 334.988 80.5129C333.945 80.2782 332.879 80.1608 331.81 80.163C329.474 80.034 327.174 80.7893 325.369 82.2791C324.578 83.0067 323.956 83.8995 323.548 84.8943C323.139 85.8891 322.954 86.9617 323.006 88.036Z" fill="white"/>
<path d="M348.869 99.5828H343.418V76.4053H348.869V99.5828Z" fill="white"/>
<path d="M368.851 92.9261V76.4053H373.968V99.5828H367.361L367.161 99.2162L358.732 83.1952V99.5828H353.664V76.4053H360.429L368.851 92.9261Z" fill="white"/>
<path d="M394.028 99.5828H378.691V76.4053H393.836V80.3959H384.142V85.6779H393.121V89.6686H384.142V95.5505H394.028V99.5828Z" fill="white"/>
</g>
<defs>
<clipPath id="clip0_4_6307">
<rect width="394.03" height="100" fill="white"/>
</clipPath>
</defs>
</svg>
