<svg width="565" height="100" viewBox="0 0 565 100" fill="none" xmlns="http://www.w3.org/2000/svg">
<g clip-path="url(#clip0_4_6332)">
<path d="M502.054 92.1914H63.9141L70.3689 99.9344L494.986 100L502.054 92.1914Z" fill="white"/>
<path d="M512.254 79.9609L282.905 80.0049L53.7227 79.9609L61.21 88.9422L282.797 88.8943L504.77 88.9422L512.258 79.9609H512.254Z" fill="white"/>
<path d="M522.39 67.8076H43.582L51.0055 76.711L282.902 76.675L514.965 76.711L522.39 67.8076Z" fill="white"/>
<path d="M71.2105 44.3697C71.2105 44.3697 64.562 33.2754 64.526 33.3094C59.2375 25.5404 53.8851 22.1253 44.8659 22.1253H23.7339L16.3484 12.2193H50.7516L44.826 1.06717C44.826 1.06717 19.9273 0.667741 8.01027 1.06717C1.05415 1.09913 -1.4483 7.85753 0.804503 12.1295C0.714631 12.2153 11.2417 26.535 11.2417 26.535C15.8551 31.5838 19.0925 32.9958 29.8493 33.2834L50.3781 33.2734L57.5759 44.4236H24.0974L35.3035 57.8645C35.3035 57.8645 64.1845 57.8645 64.2884 57.7407C72.8822 57.7167 73.1158 47.5152 71.2165 44.3697H71.2105ZM52.575 1.06717L84.8492 57.7407H97.9066L84.8472 33.2734C84.8472 33.2734 95.7816 33.4332 101.274 33.0717C110.786 33.2714 114.267 30.5094 111.487 22.1932L107.034 12.2034C102.86 3.87319 101.054 1.66832 88.504 1.06518L52.575 1.06717ZM73.8168 12.2173H92.4903L96.8781 22.1273H78.3744L73.8168 12.2173ZM168.067 57.7427L164.079 44.5315C164.079 44.5315 148.477 44.2858 140.612 44.4256C139.45 41.7135 136.136 33.2754 136.136 33.2754H159.621L156.557 22.2371H132.186L127.682 12.2153H152.901L149.875 0.965319L122.336 1.06518C115.504 1.06518 111.521 8.04526 112.805 12.2892L126.879 44.5914C131.283 52.9874 135.455 56.4545 143.49 57.4491C152.487 58.5456 168.067 57.7427 168.067 57.7427ZM186.269 1.06717C186.269 1.06717 175.393 0.919384 168.305 1.21097C161.42 1.3308 156.769 6.46151 157.871 12.2992C157.846 12.2153 167.164 44.4236 167.136 44.2838C170.054 51.4137 176.006 57.7407 184.258 57.6388L198.913 57.7387L196.431 44.4236H180.917L171.444 12.2153H188.432L186.269 1.06717ZM191.26 12.2153H201.957L211.078 57.7407H222.012L214.609 12.2153H222.959L221.543 1.12909L189.095 1.06717L191.26 12.2153ZM264.88 33.2734C269.956 33.2734 275.906 27.3818 275.824 22.6745C275.568 19.2194 275.59 15.5226 275.207 12.1894C274.108 5.03354 266.511 1.193 260.807 1.06518C249.14 1.31882 225.671 1.06518 225.671 1.06518L233.057 57.7407H245.261L240.536 12.2173H261.708L261.822 22.1273H256.473C248.88 22.1273 248.209 27.7573 251.513 33.1716C257.224 42.027 269.427 57.8565 269.427 57.8565L284.442 57.8645C284.444 57.8645 273.302 44.4216 264.88 33.2734Z" fill="white"/>
<path d="M284.582 0.0186746L282.125 57.7567L294.583 57.8705L294.539 44.4236H311.655L311.058 57.8905L322.402 57.8705C322.402 57.8705 326.65 36.1554 326.568 22.2511C326.901 9.98652 317.922 1.06519 305.4 0.156479C298.518 -0.0711978 284.582 0.0186746 284.582 0.0186746ZM313.073 22.1273L313.283 32.0891L295.853 31.9853L295.494 12.2193C307.938 12.2154 312.688 14.9235 313.073 22.1253V22.1273ZM348.818 56.7761C355.878 55.1264 360.306 49.6582 365.065 39.6204C377.1 14.2565 383.146 1.06719 383.146 1.06719H369.643L350.839 40.7888C349.134 43.6048 346.15 44.6633 343.023 44.4236C345.431 29.2352 350.793 1.06519 350.793 1.06519H337.444C337.444 1.06519 328.503 54.9567 328.503 57.8645C328.503 57.9444 343.118 58.1102 348.818 56.7781V56.7761ZM402.678 1.06719L387.312 1.1271L370.919 57.8645L385.39 57.7846L402.678 1.06719ZM410.537 1.1291L392.578 57.8645H422.721C431.641 57.8645 442.351 44.2319 442.351 44.2319L457.883 11.9577C461.412 3.96108 455.834 1.06719 447.159 1.22296C434.668 1.06319 410.533 1.1291 410.533 1.1291H410.537ZM441.988 12.2134L429.442 44.4236C429.442 44.4236 417.649 44.2958 411.749 44.4236L421.851 12.2154H441.988V12.2134ZM487.679 44.4236H463.116L468.49 33.2735H494.987L500.363 22.1233H474.232L479.469 12.2134L507.521 12.2373L513.195 1.06519C513.195 1.06519 493.363 0.653773 481.929 1.41469C472.83 2.2575 466.507 7.12259 464.282 12.3192L449.3 44.5135C445.146 53.1013 450.636 57.4691 455.427 57.6149C464.252 57.8945 481.031 57.7846 481.031 57.7846L487.679 44.4236ZM533.214 1.34679C523.53 1.79815 518.262 5.57279 513.385 12.0416C506.944 20.6094 493.265 44.5934 493.265 44.5934C487.565 55.6037 495.654 57.3952 502.053 57.6748C502.362 57.8645 517.936 57.8645 518.154 57.7307C525.358 57.5749 526.871 57.0038 530.315 54.9746C532.108 53.9161 535.943 49.776 540.432 44.3817L563.769 12.2713C566.977 7.87751 560.909 1.06719 554.81 1.25292C554.812 1.25292 533.556 1.06719 533.214 1.34679ZM528.455 12.2154H549.625L526.838 44.4236H507.367L528.455 12.2154Z" fill="white"/>
</g>
<defs>
<clipPath id="clip0_4_6332">
<rect width="564.66" height="100" fill="white"/>
</clipPath>
</defs>
</svg>
