<svg width="384" height="100" viewBox="0 0 384 100" fill="none" xmlns="http://www.w3.org/2000/svg">
<path d="M50.085 0C23.6833 0 2.055 20.2533 0 45.99L26.9367 57.0717C29.22 55.5183 31.9767 54.6067 34.9433 54.6067C35.21 54.6067 35.4733 54.6167 35.7367 54.6317L47.715 37.3567C47.715 37.275 47.715 37.1933 47.715 37.1133C47.715 26.715 56.215 18.2567 66.6683 18.2567C77.12 18.2567 85.62 26.715 85.62 37.1133C85.62 47.5117 77.12 55.9717 66.6683 55.9717C66.5233 55.9717 66.38 55.9667 66.2367 55.9633L49.1533 68.0917C49.1617 68.3117 49.17 68.5367 49.17 68.7617C49.17 76.5667 42.7883 82.915 34.9433 82.915C28.0583 82.915 22.3 78.025 20.995 71.55L1.73167 63.6267C7.69667 84.6133 27.0767 100 50.085 100C77.8417 100 100.342 77.6133 100.342 50.0017C100.342 22.385 77.8417 0 50.085 0Z" fill="white"/>
<path d="M31.4936 75.8668L25.3203 73.3301C26.4153 75.5968 28.307 77.4935 30.8203 78.5368C36.2536 80.7885 42.517 78.2235 44.7803 72.8135C45.877 70.1985 45.8853 67.3101 44.797 64.6885C43.712 62.0635 41.6653 60.0184 39.0336 58.9268C36.4203 57.8451 33.622 57.8851 31.1636 58.8068L37.542 61.4318C41.5486 63.0935 43.442 67.6701 41.772 71.6568C40.107 75.6451 35.502 77.5301 31.4936 75.8668Z" fill="white"/>
<path d="M79.2974 37.1129C79.2974 30.1845 73.6324 24.5479 66.6674 24.5479C59.7041 24.5479 54.0391 30.1845 54.0391 37.1129C54.0391 44.0412 59.7041 49.6762 66.6674 49.6762C73.6324 49.6745 79.2974 44.0412 79.2974 37.1129ZM57.2024 37.0912C57.2024 31.8778 61.4507 27.6545 66.6891 27.6545C71.9291 27.6545 76.1774 31.8778 76.1774 37.0912C76.1774 42.3045 71.9291 46.5279 66.6891 46.5279C61.4507 46.5279 57.2024 42.3028 57.2024 37.0912Z" fill="white"/>
<path d="M156.048 27.3904L151.39 35.5354C147.803 33.0421 142.94 31.5404 138.695 31.5404C133.843 31.5404 130.842 33.5388 130.842 37.1188C130.842 41.4671 136.175 42.4788 144.1 45.3088C152.62 48.3054 157.517 51.8288 157.517 59.5921C157.517 70.2121 149.122 76.1771 137.055 76.1771C131.173 76.1771 124.078 74.6671 118.625 71.3671L122.023 62.3354C126.453 64.6638 131.753 66.0438 136.478 66.0438C142.847 66.0438 145.873 63.7071 145.873 60.2521C145.873 56.2971 141.257 55.1088 133.807 52.6538C125.315 49.8338 119.43 46.1321 119.43 37.5404C119.43 27.8504 127.23 22.2871 138.453 22.2871C146.275 22.2871 152.562 24.7521 156.048 27.3904Z" fill="white"/>
<path d="M192.466 32.5387V75.2854H181.498V32.5387H165.578V23.1787H208.34V32.5387H192.466Z" fill="white"/>
<path d="M231.461 32.5104V44.252H252.453V53.6104H231.461V65.8387H255.816V75.2854H220.496V23.1787H255.816V32.5104H231.461Z" fill="white"/>
<path d="M280.297 65.169L276.83 75.2873H265.332L284.97 23.1807H296.01L316.204 75.2857H304.317L300.774 65.1673H280.297V65.169ZM290.429 35.609L283.275 56.4723H297.729L290.429 35.609Z" fill="white"/>
<path d="M372.49 43.3187L358.157 73.767H351.968L337.867 43.592V75.2854H327.363V23.1787H337.843L355.445 60.792L372.423 23.1787H382.993V75.2854H372.492L372.49 43.3187Z" fill="white"/>
</svg>
