<svg width="333" height="100" viewBox="0 0 333 100" fill="none" xmlns="http://www.w3.org/2000/svg">
<g clip-path="url(#clip0_4_6347)">
<path fill-rule="evenodd" clip-rule="evenodd" d="M245.751 99.4663C245.103 99.0835 243.528 97.7613 242.253 96.5249C239.477 93.8352 238.598 93.5376 237.038 94.7613C236.068 95.5222 235.913 95.8831 235.993 97.2C236.044 98.0489 235.939 98.7446 235.763 98.7446C235.07 98.7446 232.972 96.2193 232.037 94.2586C230.127 90.2533 229.816 86.4277 231.302 85.2326C231.717 84.8964 232.822 84.7553 234.59 84.8072C238.337 84.9164 240.283 86.0402 244.616 90.5941C248.228 94.3911 248.765 94.6747 250.875 93.8971C252.26 93.3878 252.39 92.3032 251.529 88.4637C250.695 84.7446 249.896 82.6561 249.044 81.9717C248.584 81.6008 248.342 81.742 247.698 82.7493C247.267 83.425 246.392 84.4623 245.753 85.0535L244.592 86.1294L240.626 83.7546C238.444 82.4483 235.291 80.8445 233.618 80.1907C231.944 79.5362 230.422 78.8518 230.233 78.6694C229.736 78.1887 229.771 77.0256 230.428 72.2013C231.225 66.3258 231.243 50.5835 230.466 48.463C230.161 47.6401 229.908 46.8478 229.904 46.702C229.866 46.2746 231.717 44.6947 236.646 40.8565C240.946 37.5083 245.818 33.1048 247.329 31.2C248.361 29.8997 249.438 30.481 250.751 33.0442C252.426 36.3185 254.312 38.7333 258.544 43.0262C260.613 45.1248 262.305 47.1461 262.305 47.5163C262.305 47.8864 261.844 48.4823 261.281 48.8405L260.256 49.4903L260.518 57.3884C260.662 61.7313 260.943 66.9677 261.142 69.0242C261.729 75.0808 261.624 82.2313 260.916 84.5635C258.727 91.7566 253.151 98.5003 248.323 99.7912C247.197 100.091 246.726 100.034 245.765 99.4677L245.751 99.4663ZM248.98 61.5475C248.98 48.2286 248.942 48.0708 248.086 46.3298C247.222 44.6301 244.928 42.2946 244.124 42.2946C243.91 42.2946 243.446 42.925 243.098 43.696C242.558 44.8871 242.44 47.0675 242.315 58.1827L242.167 71.2673L243.176 72.5722C244.426 74.1914 246.299 75.2067 247.821 75.0922L248.979 75.0029L248.98 61.5475ZM35.1528 89.9423C34.6841 89.6261 33.7434 88.5728 33.0616 87.6055C31.2453 85.0322 27.0796 81.0709 24.6435 79.6015C21.2327 77.5442 15.7287 75.9617 13.7007 76.4543C11.4864 76.9936 10.6608 78.9936 11.4917 81.8032C11.9271 83.2759 11.3006 83.6301 9.87318 82.7213C6.64482 80.6694 3.03962 73.6208 3.03896 69.3598C3.03896 65.682 3.53563 64.7985 6.28263 63.5915C10.7307 61.6374 14.1355 61.3831 21.3279 62.4677C24.5569 62.9543 25.1501 62.7992 26.1675 61.2033C27.6182 58.927 27.3978 58.6414 22.8106 56.8738C10.3359 52.0642 2.4331 45.9317 0.574907 39.6194C-0.279953 36.714 -0.211378 35.5296 0.982364 32.6381C3.47571 26.5955 8.27797 19.9523 21.8379 3.78922L24.5037 0.611459L27.0556 0.498277C29.1355 0.408396 30.3459 0.627438 33.5882 1.67604C35.7766 2.38376 38.3519 3.29322 39.3099 3.69668C44.9431 6.07284 50.0762 7.04422 51.9264 6.08483C52.3812 5.85047 55.1828 1.94967 55.6362 1.33183C56.7667 -0.206118 58.523 -0.585612 60.0776 1.12877C62.8852 5.39308 56.6675 19.6035 51.8505 26.202C50.6488 27.7819 50.6208 28.6228 51.746 29.3851C59.3372 34.5296 61.5203 36.1607 64.0037 38.5422C65.6169 40.0888 67.6708 42.5529 68.5663 44.0163C70.794 47.6567 71.2187 50.0349 70.6095 55.4776C69.766 63.0269 67.8938 67.7852 64.6888 70.5262C55.6195 78.2826 43.2613 87.3145 38.6388 89.5642C36.3432 90.6807 36.2613 90.69 35.1528 89.939V89.9423ZM52.9078 73.8651C54.5123 72.724 55.9258 71.5356 56.0483 71.2246C56.3412 70.4823 55.3139 68.5915 54.025 67.5029C53.4611 67.0269 51.9544 66.1401 50.6774 65.5322C48.4644 64.4796 46.6768 63.9131 38.0043 61.5156L34.1974 60.463L32.7001 62.0183C31.1701 63.6068 30.7806 65.0456 31.6841 65.7646C31.9497 65.9756 33.0856 66.439 34.2094 66.7939C37.2021 67.738 44.3252 72.4657 46.79 75.1421C48.0603 76.5209 49.6355 76.1927 52.9078 73.8651ZM63.3765 60.9503C63.979 57.3045 62.4025 54.1008 57.8705 49.7606C54.1089 46.1581 49.5236 43.3045 46.4131 42.6294C43.9025 42.0848 43.4438 42.2506 42.2134 44.1381C40.8259 46.2693 40.9218 47.246 42.5962 48.0189C43.3459 48.3665 44.2793 48.6494 44.6708 48.6494C46.23 48.6494 53.6961 52.1521 56.475 54.1874C57.9724 55.2839 58.792 56.3345 60.2533 59.0349C61.28 60.9304 62.3459 62.4816 62.6222 62.4816C62.9111 62.4816 63.2314 61.8325 63.3765 60.9503ZM34.4817 44.9989C35.6328 44.1814 37.3745 41.7759 37.3745 41.0063C37.3745 39.8445 34.9431 38.6774 31.1129 38.0003C27.3912 37.3432 25.4351 36.7093 21.8319 34.9936C18.1109 33.2213 12.7753 29.1221 11.7713 27.2646C10.772 25.4137 9.80727 25.8538 9.4584 28.3192C9.13017 30.6288 10.1262 32.2932 13.9185 35.7839C16.4364 38.1015 22.3832 41.9204 23.4737 41.9204C23.7001 41.9204 24.1841 42.0802 24.5529 42.2752C26.6821 43.4064 31.748 45.0436 33.7094 45.2353C33.9204 45.2739 34.2693 45.1494 34.4817 44.9969V44.9989ZM44.983 26.1254C46.0949 24.953 47.4051 22.459 47.4051 21.5136C47.4051 20.7679 47.1515 20.7093 43.0649 20.4943C38.0057 20.2293 37.0423 19.9643 29.9025 16.8891C23.5663 14.1607 21.479 13.7799 19.4651 14.9863C17.0083 16.457 17.1155 18.7413 19.7107 20.2859C22.6362 22.0269 28.4504 23.7007 39.0523 25.8525C40.9311 26.2353 42.5663 26.6408 42.6854 26.7566C43.1595 27.2153 44.224 26.9244 44.981 26.1254H44.983ZM177.25 87.6887C176.934 87.3844 175.225 85.3292 173.45 83.1254C167.407 75.6208 166.627 74.1048 168.126 72.7892C168.916 72.0968 168.929 71.8205 168.929 55.6701C168.929 45.0695 168.789 38.9983 168.529 38.5309C168.272 38.0662 167.722 37.8079 166.986 37.8079C164.657 37.8079 165.531 36.3498 173.746 26.5389C175.234 24.7613 176.956 22.5961 177.572 21.726L178.691 20.1461L179.361 21.0056C180.216 22.1035 180.502 24.1834 180.502 29.2752C180.502 33.7772 180.55 33.8685 183.589 35.6973C185.52 36.8591 186.297 38.676 186.563 42.6521C186.829 46.6314 186.61 46.7906 183.521 44.8698C180.365 42.9064 180.458 42.4703 180.586 58.4583L180.695 72.2673L181.778 73.1687C182.373 73.6654 183.284 74.0709 183.803 74.0709C184.387 74.0709 184.746 74.2852 184.746 74.6348C184.746 75.1294 183.241 78.5389 179.846 85.7353C178.745 88.0702 178.125 88.5362 177.25 87.6887ZM84.2181 86.5016C83.6202 85.73 83.031 85.0149 82.9071 84.9124C82.3958 84.485 77.5822 78.2693 76.8252 77.0569C75.1961 74.4503 75.0869 73.7719 76.1528 72.8744L77.1109 72.0669V56.3398C77.1109 46.5908 76.9551 40.0788 76.7067 39.21C76.3406 37.9357 76.1841 37.8079 74.973 37.8079C74.24 37.8079 73.6408 37.7033 73.6408 37.5742C73.6408 36.8065 76.4418 32.8844 79.8932 28.8205C82.0829 26.2406 84.4697 23.2326 85.1961 22.1354L86.5177 20.1394L87.4091 21.1447C88.254 22.0961 88.3013 22.4404 88.3013 27.6707C88.3013 33.8458 88.2194 33.6408 91.533 35.5649C93.4631 36.6847 94.3119 38.5955 94.6501 42.5768C94.9744 46.3918 94.5995 46.6854 91.6688 44.9204C88.3599 42.9264 88.4943 42.3791 88.4943 57.8878C88.4943 68.6308 88.6035 71.5369 89.0283 72.3085C89.509 73.18 90.1461 73.5549 92.254 74.2113C92.8878 74.4064 92.8805 74.5469 92.1375 76.479C91.7007 77.6108 90.6888 79.8445 89.8898 81.4444C89.0902 83.0436 88.1029 85.1507 87.6947 86.1261C86.7547 88.3798 85.7613 88.4863 84.2234 86.5016H84.2181ZM315.147 85.6947C312.383 82.9057 310.668 82.3205 308.484 83.4237C307.677 83.8312 306.856 84.1647 306.659 84.1647C306.082 84.1647 304.68 82.5828 304.102 81.2786C303.582 80.1048 303.653 79.9131 306.974 73.4284C308.847 69.7719 310.481 66.3971 310.606 65.9277C310.902 64.8179 309.929 64.196 306.651 63.3971C303.042 62.5176 303.003 62.4537 303.825 58.7073C304.57 55.3092 304.815 45.3505 304.207 43.1847C303.825 41.8265 303.86 41.7872 307.428 39.5875C310.426 37.7386 315.151 33.2413 315.876 31.5455C316.554 29.959 317.134 30.0136 318.598 31.8032C319.443 32.8378 320.451 33.5123 321.976 34.0655C324.609 35.0196 326.001 34.9317 326.524 33.7759C327.131 32.4357 327.945 32.947 329.327 35.5342C330.317 37.3871 330.55 38.1934 330.353 39.0828C330.162 39.951 326.034 48.6887 324.911 50.6028C324.822 50.7553 325.323 51.216 326.023 51.6301C326.988 52.2 327.972 52.3824 330.093 52.3831H332.89L332.851 53.5981C332.813 54.2659 332.586 55.1388 332.272 55.5382C331.841 56.0902 331.705 57.4297 331.705 61.1208C331.705 63.7919 331.51 67.4717 331.267 69.2966C330.938 71.7799 330.938 72.7233 331.267 73.0422C332.578 74.3125 331.021 76.5269 326.719 79.5123C324.925 80.7566 322.554 82.9084 320.936 84.7599C319.427 86.4856 317.994 87.8977 317.751 87.8977C317.509 87.8977 316.325 86.9044 315.121 85.6894L315.147 85.6947ZM320.381 73.4969C320.811 72.5016 320.924 70.9204 320.844 67.0882C320.755 62.72 320.641 61.943 320.062 61.5888C319.588 61.3005 319.196 61.2919 318.747 61.5502C318.151 61.9131 315.902 65.7253 315.401 67.2206C315.281 67.5835 314.564 68.9776 313.813 70.3145C313.061 71.6507 312.445 73.1155 312.444 73.5689C312.444 74.3318 312.651 74.4037 315.239 74.5229C316.778 74.5935 318.435 74.6827 318.924 74.726C319.608 74.7846 319.942 74.4956 320.381 73.479V73.4969ZM317.928 53.4157C318.977 52.6241 322.472 46.3125 322.472 45.2107C322.472 44.2906 322.176 44.0409 319.912 43.0456C317.287 41.8924 316.476 41.71 316.171 42.2007C316.078 42.3531 315.875 44.7633 315.72 47.5535C315.474 52.0349 315.517 52.6987 316.091 53.2546C316.867 54.0063 317.117 54.0289 317.927 53.4144L317.928 53.4157ZM138.307 85.463C137.128 84.5322 136.027 83.5396 135.861 83.2559C135.693 82.9717 134.639 81.7879 133.517 80.6221C130.928 77.9324 130.737 77.0203 130.733 67.3844C130.732 63.3511 130.55 59.427 130.333 58.6641C130.072 57.7426 129.356 56.8145 128.213 55.9084C126.499 54.5462 125.88 52.9017 126.974 52.6101C127.239 52.5402 128.41 52.2713 129.579 52.0123C133.751 51.0888 133.961 50.2446 130.291 49.1527C128.577 48.6421 127.832 48.2047 127.436 47.4736C126.946 46.5702 126.998 46.2926 128.04 44.2952C131.054 38.5123 139.864 29.21 142.326 29.21C143.783 29.21 147.53 31.7646 150.604 34.8505C153.43 37.6887 157.223 40.3372 158.946 40.6754C160.385 40.9563 161.777 43.4304 161.396 45.0309C161.239 45.6847 160.99 51.6867 160.841 58.3691C160.692 65.0515 160.433 70.8977 160.267 71.3605C160.006 72.0868 160.096 72.2013 160.934 72.2013C163.275 72.2013 162.411 74.4683 157.8 80.4264C154.348 84.8878 152.608 86.6121 151.954 86.2206C151.708 86.0722 150.906 85.0442 150.174 83.9357C149.406 82.7726 148.564 81.9231 148.181 81.925C147.818 81.925 146.061 83.1055 144.281 84.5429C142.5 85.9796 140.91 87.1554 140.747 87.1554C140.584 87.1554 139.486 86.3937 138.307 85.463ZM147.478 75.4384L148.675 74.0029L148.788 62.2013C148.85 55.7107 148.749 50.2599 148.578 50.0875C148.132 49.6567 143.324 51.5083 142.446 52.4477C141.802 53.1354 141.717 54.0669 141.601 61.6734C141.433 72.451 141.562 73.5382 143.344 75.5442C145.017 77.4384 145.829 77.4171 147.478 75.4384ZM142.94 45.8698C145.068 44.8918 146.553 43.987 146.553 43.6654C145.092 40.6814 138.993 37.989 136.533 39.67C135.063 40.684 134.757 41.8531 135.378 44.0855C135.971 46.2266 137.106 47.5276 138.378 47.5276C138.9 47.5276 140.953 46.7819 142.94 45.8698ZM202.486 86.2273C201.746 85.716 199.682 83.7659 197.9 81.8938C195.339 79.2027 194.596 78.1634 194.349 76.9344C194.178 76.0788 194.029 72.0143 194.022 67.9024C193.983 63.7906 193.823 59.7972 193.602 59.0289C193.356 58.1714 192.451 56.9157 191.263 55.7819C189.568 54.1661 189.378 53.8338 189.749 53.1601C189.984 52.7353 190.534 52.3884 190.97 52.3884C191.408 52.3884 192.705 52.1228 193.851 51.8005C196.813 50.9663 196.719 50.0795 193.574 49.1654C192.049 48.7233 191.002 48.1714 190.624 47.6108C190.084 46.8139 190.112 46.5855 190.962 44.8092C192.806 40.955 199.563 32.8798 202.977 30.451C204.52 29.3538 205.058 29.1641 206.072 29.3611C207.895 29.716 209.996 31.2233 213.962 35.0282C217.232 38.1634 221.182 40.7992 222.612 40.7992C223.462 40.7992 225.023 43.9916 224.663 44.9943C224.495 45.463 224.232 51.3132 224.079 57.9956C223.926 64.678 223.677 70.5942 223.526 71.1428C223.292 71.9983 223.383 72.1574 224.158 72.2646C225.848 72.4983 225.553 74.1195 223.199 77.5422C220.507 81.457 216.075 86.4929 215.486 86.3079C215.241 86.2293 214.377 85.2513 213.571 84.1361C212.766 83.0209 211.856 82.0535 211.548 81.9883C210.904 81.8478 209.59 82.706 206.454 85.3065C205.232 86.3198 204.144 87.1507 204.035 87.1521C203.926 87.1521 203.232 86.7373 202.491 86.2273H202.486ZM210.096 76.2207C212.092 74.1055 212.137 73.7799 212.137 61.5882C212.137 55.3185 211.992 50.1001 211.805 49.9916C211.423 49.7613 206.868 51.4264 205.871 52.1587C204.866 52.8964 204.268 59.194 204.553 66.0336C204.834 72.8119 205.144 74.1627 206.781 75.7985C208.26 77.2779 209.006 77.3731 210.094 76.2207H210.096ZM203.173 47.1907C203.54 47.0029 205.096 46.2992 206.627 45.6234C208.158 44.9483 209.49 44.194 209.588 43.9483C208.6 40.5096 201.647 38.0882 199.435 39.8971C198.108 40.981 197.912 42.2959 198.748 44.5369C199.661 46.985 200.135 47.5276 201.354 47.5276C201.986 47.5276 202.804 47.3751 203.173 47.1887V47.1907ZM106.544 85.9404C105.487 84.8198 98.3286 74.4137 98.3286 73.9989C98.3286 73.8199 98.7001 72.6274 99.1535 71.3491C99.9125 69.2073 99.9924 68.0342 100.169 56.473L100.361 43.9217L99.3452 43.1481C98.7866 42.722 98.3292 42.1694 98.3292 41.9204C98.3292 41.4969 101.582 36.7839 104.963 32.3072C105.802 31.196 106.649 30.4357 106.931 30.5416C107.204 30.6421 107.767 31.5848 108.183 32.6354C109.09 34.9284 111.446 37.6574 112.259 37.3558C113.042 37.0635 114.892 34.3991 115.5 32.6874C115.777 31.9057 116.205 31.2659 116.449 31.2659C116.926 31.2659 123.371 42.8671 123.392 43.7639C123.431 44.0562 122.412 45.5549 121.199 47.0895C117.784 51.4111 117.518 51.5775 116.764 49.8651C116.518 49.2985 115.453 47.6907 114.404 46.2899C113.042 44.4736 112.378 43.8605 112.081 44.1467C111.8 44.4204 111.662 49.4244 111.652 59.7766L111.614 75.0049L112.675 76.4936C114.149 78.5622 114.04 79.3472 112.06 80.9191C110.804 81.9164 110.169 82.8172 109.531 84.5156C108.585 87.0302 107.867 87.3698 106.519 85.9404H106.544ZM277.335 83.8412C275.743 82.2713 272.904 79.6414 271.026 77.9963L267.609 75.0049L267.669 60.7992C267.707 52.9863 267.887 45.9204 268.079 45.0975C268.376 43.8485 268.313 43.4883 267.72 42.9077C267.121 42.3218 267.069 41.9949 267.396 40.8505C268.603 36.6101 273.526 29.5202 274.785 30.21C275.602 30.6581 278.692 33.0742 280.137 34.3944C281.89 35.9976 281.967 36.9943 280.518 39.3039L279.462 40.9856L279.353 55.8405C279.271 66.2386 279.392 70.9284 279.669 71.4736C280.186 72.4091 283.392 74.4444 284.349 74.4444C284.724 74.4444 285.212 74.1208 285.432 73.7213C285.689 73.2539 285.827 67.214 285.822 56.6181L285.783 40.238L284.636 39.1481C282.796 37.3971 283.066 36.5482 286.546 33.1354C288.223 31.4896 289.775 30.1447 289.994 30.1447C290.387 30.1447 294.737 35.2147 297.275 38.6321C298.284 39.9896 298.497 40.5436 298.211 41.0622C297.485 42.3764 296.992 50.0495 296.992 60.0376C296.992 69.3165 297.055 70.2939 297.737 71.5908C298.473 72.9883 298.473 73.0296 297.737 74.6807C296.764 76.8804 294.124 81.222 292.205 83.7752L290.671 85.8159L289.398 83.2147C288.697 81.7839 287.773 80.3811 287.343 80.0968C286.636 79.6308 286.446 79.7033 285.314 80.8678C284.626 81.5748 283.543 83.186 282.906 84.447C282.049 86.1461 281.549 86.7346 280.978 86.7186C280.546 86.68 278.931 85.4384 277.312 83.8412H277.335Z" fill="white"/>
</g>
<defs>
<clipPath id="clip0_4_6347">
<rect width="332.889" height="100" fill="white"/>
</clipPath>
</defs>
</svg>
