<svg width="350" height="100" viewBox="0 0 350 100" fill="none" xmlns="http://www.w3.org/2000/svg">
<path d="M281.966 0.893555L262.393 26.42L242.82 0.911717H206.326C198.103 0.911717 191.42 7.59423 191.42 15.8083V17.7593H183.453C182.751 13.2374 180.508 9.09846 177.071 6.00793C173.406 2.71684 168.684 0.902636 163.77 0.902636H89.7429H39.237C32.4542 0.902636 26.2184 2.41589 20.6938 5.39701C15.1053 8.41461 10.4649 12.9183 7.29236 18.4156C1.22071 28.927 1.01099 42.4106 6.66328 53.1317H0.892578V99.1066H68.875C82.5225 99.1066 91.3201 93.6457 96.3616 88.9507H105.852V99.0975H151.827V93.9557C151.827 91.1934 154.079 88.9416 156.841 88.9416H228.826C231.588 88.9416 233.84 91.1934 233.84 93.9557V99.0428H272.85L348.162 0.893555H281.966ZM39.2551 9.26249H89.7611H163.788C170.17 9.26249 175.339 14.4317 175.339 20.8133V26.1191H199.808V15.7992C199.808 12.189 202.734 9.26249 206.344 9.26249H238.708L262.402 40.1496L286.096 9.26249H331.205L268.738 90.6828H242.218V86.4892C242.218 83.2254 239.574 80.5817 236.31 80.5817H149.384C146.12 80.5817 143.476 83.2254 143.476 86.4892V90.7377H114.23V80.5817H92.8242C92.414 81.0649 91.9765 81.5389 91.5207 82.0039C87.6005 85.9878 80.4804 90.7377 68.8932 90.7377H9.27059V61.4915H28.142C22.362 59.34 17.6305 55.429 14.5491 50.0867C9.72646 41.7359 9.72646 30.9419 14.5491 22.5911C19.4448 14.1218 28.4429 9.26249 39.2551 9.26249ZM233.694 58.3189V58.4375H233.776L233.694 58.3189Z" fill="white"/>
<path d="M223.61 45.6924H160.059V60.0054H223.61V45.6924Z" fill="white"/>
<path d="M163.779 16.7295H89.7525V20.8137C89.7525 18.5619 87.9292 16.7295 85.6683 16.7295H39.2465C11.4135 16.7295 11.4135 55.9491 39.2465 55.9491H68.8755C77.5454 55.9491 77.5454 68.9585 68.8755 68.9585H16.7285V83.2716H68.8755C99.6531 83.2716 99.6531 41.636 68.8755 41.636H39.2465C31.7983 42.0098 31.0233 30.2494 39.2465 29.8756H89.7525H121.688V83.2716H136.001V29.8756H167.873V20.8137C167.864 18.5619 166.04 16.7295 163.779 16.7295Z" fill="white"/>
<path d="M231.306 16.7295H208.725L259.741 83.2169H265.047L316.063 16.7295H293.482L262.394 57.2437L231.306 16.7295Z" fill="white"/>
</svg>
