<svg width="362" height="100" viewBox="0 0 362 100" fill="none" xmlns="http://www.w3.org/2000/svg">
<g clip-path="url(#clip0_4_6357)">
<path d="M307.78 0.531507C307.78 0.956164 307.319 1.06164 305.836 1.06164C304.139 1.06164 303.891 1.13425 303.891 1.76986C303.891 2.40685 304.139 2.47808 306.543 2.47808C308.415 2.47808 309.193 2.33699 309.193 2.01918C309.193 1.80548 309.299 1.23973 309.406 0.779452C309.582 0.105479 309.476 0 308.697 0C308.133 0 307.78 0.176712 307.78 0.531507Z" fill="white"/>
<path d="M314.849 0.531507C314.849 0.956164 314.39 1.06164 312.905 1.06164C311.243 1.06164 310.961 1.16849 310.961 1.73425C310.961 2.23014 311.314 2.44247 312.587 2.61918C313.505 2.7274 314.708 2.83288 315.238 2.83288C316.191 2.83288 316.262 2.7274 316.262 1.41644C316.262 0.247945 316.157 0 315.555 0C315.166 0 314.849 0.247945 314.849 0.531507Z" fill="white"/>
<path d="M300.355 1.77072C300.355 2.30223 300.603 2.47894 301.239 2.47894C301.876 2.47894 302.123 2.30223 302.123 1.77072C302.123 1.24058 301.876 1.0625 301.239 1.0625C300.603 1.0625 300.355 1.24058 300.355 1.77072Z" fill="white"/>
<path d="M250.768 1.66494C250.627 1.77042 250.52 4.21425 250.52 7.04576C250.52 12.8896 250.097 14.2704 247.764 16.3238C245.149 18.6266 244.548 18.7677 234.899 18.7677H226.133V19.6526V20.5375H235.782C246.597 20.5375 247.057 20.4307 249.637 17.8827C252.005 15.4745 252.288 14.4471 252.288 7.5074C252.288 1.84165 252.253 1.41699 251.652 1.41699C251.299 1.41699 250.874 1.52247 250.768 1.66494Z" fill="white"/>
<path d="M96.6323 5.02822C96.4912 6.44466 96.0666 8.32001 95.6776 9.17069L94.9707 10.7638L95.8543 11.6488L96.7378 12.5351L97.3392 11.1529C97.9748 9.59535 98.5063 6.3022 98.5406 3.96521C98.5406 2.61863 98.4707 2.47754 97.6926 2.47754C96.9145 2.47754 96.8447 2.65562 96.6323 5.02822Z" fill="white"/>
<path d="M152.512 7.15288C152.299 12.6762 151.876 14.1638 149.967 16.1447C147.776 18.4488 146.186 18.7666 137.349 18.7666H129.998V19.6515V20.5721L138.939 20.4652C147.705 20.3597 147.917 20.3597 149.613 19.4748C153.183 17.6323 154.386 14.3748 154.386 6.62137C154.386 2.47754 154.386 2.47754 153.536 2.47754C152.688 2.47754 152.688 2.51316 152.512 7.15288Z" fill="white"/>
<path d="M185.488 3.29261C185.488 4.07069 185.701 4.14329 197.788 5.80631C204.539 6.72685 210.653 7.57754 211.395 7.68302L212.703 7.89535V5.91316C212.703 4.4611 212.562 3.92959 212.138 3.75288C211.077 3.32685 210.865 3.54055 211.006 4.77891C211.077 5.45151 211.113 6.01864 211.113 6.01864C211.077 6.01864 205.351 5.24055 198.353 4.24877C191.391 3.29261 185.629 2.47754 185.594 2.47754C185.524 2.47754 185.488 2.83233 185.488 3.29261Z" fill="white"/>
<path d="M228.925 4.95745C228.324 6.97526 226.38 9.09992 224.684 9.59581C223.588 9.94923 223.305 10.1985 223.305 10.8698C223.305 11.6136 223.481 11.6849 224.825 11.6849C227.405 11.6849 229.879 9.34786 230.869 5.91362C231.046 5.38211 231.717 5.31088 238.786 5.31088H246.527L246.455 4.49718L246.386 3.71773L237.866 3.61225L229.349 3.54102L228.925 4.95745Z" fill="white"/>
<path d="M74.5059 5.13395V6.01889H82.9894H91.4716V5.13395V4.24902H82.9894H74.5059V5.13395Z" fill="white"/>
<path d="M313.081 5.13395V6.01889H306.719H300.356V12.5696C300.356 16.1805 300.251 19.0846 300.11 19.0846C299.933 19.049 298.837 19.049 297.636 19.0846C295.515 19.1203 295.408 19.1559 295.408 20.0066V20.9271L298.696 20.8203L301.947 20.7148L302.053 14.234L302.123 7.78875H308.486H314.848V6.01889C314.848 4.35587 314.777 4.24902 313.964 4.24902C313.258 4.24902 313.081 4.42574 313.081 5.13395Z" fill="white"/>
<path d="M127.875 6.19548V7.08041H138.656H149.435V6.19548V5.31055H138.656H127.875V6.19548Z" fill="white"/>
<path d="M283.744 6.90349V7.78842H288.869H293.993V6.90349V6.01855H288.869H283.744V6.90349Z" fill="white"/>
<path d="M180.185 9.34839C180.185 13.81 180.009 13.9525 174.283 14.1648L169.758 14.3415L169.581 16.0402C169.228 18.9087 168.557 19.2635 163.537 19.4402C159.437 19.5456 159.296 19.5813 159.402 20.3251C159.509 21.0333 159.721 21.0689 163.396 21.1744C165.553 21.2457 167.814 21.1744 168.485 21.0689C170.253 20.7511 171.348 19.4402 171.348 17.7059V16.2895H175.059C179.089 16.2895 180.926 15.7922 181.563 14.5881C181.776 14.1648 181.953 12.1813 181.953 10.1265V6.37305H181.069C180.185 6.37305 180.185 6.41003 180.185 9.34839Z" fill="white"/>
<path d="M158.342 8.92398L158.449 9.73768L167.213 9.84453L175.943 9.91439V9.02946V8.14453H167.072H158.236L158.342 8.92398Z" fill="white"/>
<path d="M120.099 9.91351V11.3299L110.839 11.4012L101.543 11.5067V12.3916V13.2793L111.722 13.3847L121.866 13.456V10.9765C121.866 8.5683 121.831 8.49707 120.983 8.49707C120.206 8.49707 120.099 8.63954 120.099 9.91351Z" fill="white"/>
<path d="M275.968 9.91351V11.3299H266.779H257.59V12.3916V13.456H267.662H277.735V10.9765C277.735 8.5683 277.701 8.49707 276.851 8.49707C276.075 8.49707 275.968 8.63954 275.968 9.91351Z" fill="white"/>
<path d="M185.557 9.98453C185.664 10.7982 187.006 11.0119 211.04 14.2695L212.702 14.5174V12.3914C212.702 10.3749 212.667 10.2681 211.854 10.2681C211.112 10.2681 210.971 10.4804 210.864 11.4366L210.758 12.6051L198.74 10.9051C192.131 9.98453 186.44 9.24069 186.087 9.20508C185.628 9.20508 185.451 9.41878 185.557 9.98453Z" fill="white"/>
<path d="M289.683 12.4291C288.764 16.2182 286.75 18.4127 284.169 18.4127C283.321 18.4127 283.073 18.5908 282.968 19.299C282.791 20.1483 282.827 20.1839 284.983 20.1839C288.482 20.1839 290.284 18.5552 291.38 14.4469C291.627 13.4209 291.875 11.9689 291.875 11.225C291.875 10.0908 291.769 9.91406 291.097 9.91406C290.39 9.91406 290.213 10.2346 289.683 12.4291Z" fill="white"/>
<path d="M309.369 10.2674C309.085 10.7277 310.429 13.5962 311.206 14.2332C311.736 14.6222 311.771 14.6222 311.525 13.9866C311.348 13.5962 311.029 12.5688 310.818 11.6839C310.429 10.125 309.828 9.55921 309.369 10.2674Z" fill="white"/>
<path d="M231.046 12.25C230.87 12.7473 230.729 13.2076 230.729 13.313C230.729 13.3843 233.733 13.4555 237.408 13.4555C243.17 13.4555 244.123 13.3843 244.3 12.8884C244.901 11.2952 244.866 11.2952 237.938 11.3295L231.4 11.4007L231.046 12.25Z" fill="white"/>
<path d="M91.648 15.5801C91.507 15.7911 90.5878 16.4294 89.5987 16.9966L87.7604 18.0582H80.6207H73.4453V18.9431V19.8281H81.5042C89.3864 19.8281 89.5631 19.7924 90.9412 18.9431C94.0165 17.0664 93.6987 17.0308 96.0659 19.2623L98.222 21.2445H101.438H104.655L103.843 20.3596C103.064 19.5445 102.781 19.4746 99.8837 19.4746H96.7371L94.7234 17.5966C93.6275 16.6061 92.6727 15.65 92.6028 15.4733C92.4261 15.1185 91.896 15.1541 91.648 15.5801Z" fill="white"/>
<path d="M185.487 16.2893C185.487 17.1742 184.85 17.0317 198.74 18.9441C205.173 19.7934 210.935 20.6071 211.57 20.7153L212.702 20.9276V18.7674C212.702 16.7482 212.666 16.6427 211.854 16.6427C211.112 16.6427 210.97 16.8537 210.864 17.8112L210.758 18.9797L198.74 17.2797C192.131 16.3591 186.44 15.6153 186.123 15.5811C185.733 15.5811 185.487 15.8276 185.487 16.2893Z" fill="white"/>
<path d="M313.08 17.3156C313.08 18.3772 313.044 18.4128 311.348 18.4128C310.393 18.4128 309.156 18.2361 308.591 18.0238L307.602 17.669L308.732 18.8375C309.792 19.8649 310.111 20.0073 312.373 20.1128L314.847 20.2539V18.4498C314.847 17.4566 314.706 16.6429 314.529 16.6429C314.352 16.6429 313.963 16.5361 313.645 16.4306C313.185 16.2539 313.08 16.4662 313.08 17.3156Z" fill="white"/>
<path d="M26.1904 29.5663C17.7781 32.1868 11.5932 44.7211 12.0164 58.2471C12.1932 64.5868 13.0781 66.1087 18.6616 70.2156C22.4438 72.9786 22.974 78.8923 19.7219 82.1485C17.9904 83.8841 16.3644 84.2731 10.9918 84.2731H6.43288L3.21644 91.4252L0 98.6142L6.07945 98.7197C9.6137 98.7909 13.0068 98.6498 14.2438 98.4375C19.7219 97.3745 24.7767 92.9128 28.2055 86.043C32.4466 77.617 33.6479 65.7183 30.8562 60.2307C30.0425 58.6375 27.9219 56.3717 25.3069 54.3882C23.6096 53.1142 22.5849 51.4841 22.337 49.5375C22.0904 47.6252 22.726 45.0759 23.7164 43.9772C25.3425 42.2074 26.2603 41.995 32.6233 41.7841L38.5959 41.606L39.8685 36.2937C40.5753 33.3553 41.2466 30.5594 41.3877 29.9923L41.6356 29.0361L34.6726 29.0718C29.937 29.0718 27.1795 29.2485 26.1904 29.5663Z" fill="white"/>
<path d="M44.9931 29.4593C44.8876 29.8141 40.6808 50.5278 35.9095 74.3579C35.5205 76.4099 35.1671 80.0579 35.026 83.7401C34.8136 90.4332 35.1671 92.699 36.8999 95.3551C39.3383 99.073 46.5136 100.632 51.3903 98.436C56.904 96.0278 61.8876 89.3004 64.4328 80.9798C65.0342 78.925 73.4109 36.7894 74.6123 29.8141C74.6821 29.4593 73.7287 29.3524 70.441 29.3524L66.1999 29.3182L65.4218 33.1771C64.9629 35.2661 62.9479 45.2154 60.9342 55.2716C58.8835 65.2935 56.7986 74.8168 56.304 76.4099C54.8547 80.9798 52.415 83.6346 49.1643 84.1305C47.2205 84.4141 46.1246 83.9538 45.1342 82.4305C44.4986 81.3688 44.4273 80.8373 44.5698 77.0127C44.7109 73.4017 45.3821 69.5058 49.0232 51.2004C51.3903 39.3373 53.2999 29.4949 53.2999 29.3182C53.2999 28.8209 45.1698 28.9634 44.9931 29.4593Z" fill="white"/>
<path d="M79.2423 29.5656C79.1012 30.0971 64.9629 98.6848 64.9629 98.9313C64.9629 99.0738 66.9067 99.1094 69.3108 99.0738L73.6218 98.967L76.4492 84.9807L79.278 70.9944L84.3314 70.8875C87.0889 70.8533 89.3506 70.6766 89.3506 70.5341C89.3506 70.393 89.9862 67.2766 90.7643 63.593C91.5423 59.9122 92.178 56.83 92.178 56.7601C92.178 56.6889 89.8807 56.6533 87.0533 56.6533C84.2259 56.6533 81.9286 56.6176 81.9286 56.5478C81.9286 56.4765 82.493 53.6437 83.1656 50.2807C83.8369 46.9163 84.4026 44.0848 84.4026 44.0122C84.4026 43.9423 86.841 43.9067 89.8451 43.9067H95.2533L96.5601 37.2492C97.267 33.604 97.9396 30.345 98.0451 30.0272C98.2218 29.4601 97.515 29.3889 88.7848 29.319C82.741 29.2478 79.3122 29.3533 79.2423 29.5656Z" fill="white"/>
<path d="M109.497 29.9211C109.356 30.3101 103.136 45.8554 95.7124 64.4458C88.2905 83.0334 82.1055 98.4732 82.0343 98.7197C81.8932 99.0745 82.8823 99.1458 86.7357 99.0745L91.6124 98.9677L93.7685 93.3033L95.9247 87.6362H102.286H108.614L108.719 93.0197L108.826 98.4019L118.51 98.5088C126.922 98.6143 128.264 98.543 128.407 98.0827C128.477 97.7992 130.138 89.3375 132.118 79.3156C135.334 62.8499 136.006 59.6992 136.006 61.2923C135.97 62.391 138.162 95.5334 138.338 96.9499L138.515 98.4732L141.059 98.3663L143.569 98.2608L151.91 80.4855C159.58 64.1608 161.206 60.8691 160.64 62.8499C160.393 63.7375 152.97 97.9759 152.97 98.2608C152.97 98.3663 155.056 98.4019 157.636 98.3663L162.301 98.2608L168.593 66.5691C172.056 49.1471 175.096 33.7101 175.38 32.2937L175.874 29.7444H171.385H166.932L156.893 48.1567C151.38 58.2827 146.785 66.4978 146.715 66.4266C146.608 66.3211 145.548 58.0006 144.347 47.9088L142.155 29.5663H137.773H133.355L126.251 63.6663C122.327 82.3965 119.04 97.8704 118.899 97.9759C118.793 98.1184 118.686 82.68 118.686 63.7019V29.2129H114.233C110.097 29.2129 109.744 29.2485 109.497 29.9211ZM108.79 63.5595V72.943H105.256C103.312 72.943 101.721 72.8362 101.721 72.6595C101.721 72.3759 108.578 54.1759 108.719 54.1759C108.755 54.1759 108.79 58.391 108.79 63.5595Z" fill="white"/>
<path d="M180.858 29.8153C180.858 29.8851 177.783 45.2879 174.036 64.0906L167.25 98.2605L171.634 98.3659C174.072 98.4016 176.087 98.4016 176.157 98.3317C176.298 98.2235 190.083 30.4865 190.083 29.992C190.083 29.7796 180.928 29.6016 180.858 29.8153Z" fill="white"/>
<path d="M211.466 30.5236C211.006 32.6113 208.462 45.1113 208.462 45.3592C208.462 45.5359 210.052 45.6784 212.032 45.6784C215.248 45.6784 215.566 45.7483 215.389 46.2784C215.072 47.4126 205.281 97.3387 205.281 97.9058C205.281 98.3661 205.952 98.4373 209.699 98.4373C213.976 98.4373 214.117 98.4017 214.294 97.6222C214.611 96.3126 224.72 46.0674 224.72 45.8551C224.72 45.7482 226.31 45.6784 228.254 45.6784C230.199 45.6784 231.789 45.5715 231.789 45.4647C231.789 45.3236 232.602 41.8181 233.557 37.64C234.546 33.4606 235.324 29.9921 235.324 29.8852C235.324 29.8154 229.987 29.7441 223.483 29.7441H211.643L211.466 30.5236Z" fill="white"/>
<path d="M237.973 30.5236C237.76 31.4085 229.95 70.0743 228.925 75.4209C228.041 79.9537 227.652 88.488 228.218 91.425C229.419 97.4441 232.565 99.925 239.21 99.9948C242.285 100.03 242.78 99.925 244.865 98.9318C250.273 96.3483 254.726 90.2222 257.413 81.725C258.084 79.5647 266.919 35.2318 267.556 30.877C267.662 30.062 267.662 30.0619 263.421 30.0619H259.215L254.867 51.5921C250.202 74.5715 249.566 77.3688 248.258 79.988C246.208 83.9907 241.543 86.1852 239.104 84.2729C236.452 82.1839 236.736 78.9976 242.002 52.2633C244.37 40.4373 246.278 30.4866 246.278 30.2387C246.278 29.851 245.43 29.7441 242.214 29.7441C238.291 29.7441 238.15 29.7798 237.973 30.5236Z" fill="white"/>
<path d="M271.021 30.0616C271.021 30.4507 257.625 97.0206 257.379 97.7986C257.202 98.4014 257.591 98.437 262.114 98.437C265.756 98.437 267.098 98.3315 267.205 98.011C267.31 97.7644 268.229 92.9836 269.254 87.389C270.314 81.7589 271.269 77.2973 271.41 77.474C271.516 77.6164 272.153 82.3959 272.824 88.0617L273.99 98.437H279.751C282.932 98.437 285.513 98.3315 285.513 98.2233C285.513 98.0822 284.417 92.311 283.039 85.3699C281.695 78.3945 280.565 72.5521 280.565 72.3041C280.565 72.0932 281.272 71.4904 282.156 70.9589C285.76 68.8699 289.542 63.4164 291.486 57.5384C294.031 49.7849 294.313 39.9767 292.157 34.9479C291.239 32.789 288.835 30.6644 286.75 30.1329C284.912 29.6726 271.021 29.6014 271.021 30.0616ZM280.423 44.9699C283.887 47.1301 284.064 54.211 280.742 58.6014C278.939 60.9384 274.202 62.9932 274.202 61.4343C274.202 60.7616 276.676 44.9343 276.888 44.2973C277.101 43.6589 278.832 44.0123 280.423 44.9699Z" fill="white"/>
<path d="M344.078 30.5586C334.393 33.9572 325.522 46.8805 322.27 62.3189C319.407 76.0928 321.317 89.4079 327.113 95.4271C329.41 97.8696 332.025 98.9668 335.384 98.9668C337.751 98.9668 338.388 98.7901 340.685 97.6572C349.91 93.0545 357.191 81.0161 360.689 64.5504C361.573 60.4422 361.644 59.3449 361.644 52.5819C361.644 44.3668 361.219 41.96 359.063 37.3915C355.989 30.9819 350.299 28.3983 344.078 30.5586ZM347.365 48.6874C350.087 50.1038 351.359 53.4668 351.359 59.3093C351.395 77.6504 336.514 90.9298 332.308 76.3052C330.965 71.6312 331.814 63.6298 334.252 58.2819C337.574 50.9175 343.441 46.6326 347.365 48.6874Z" fill="white"/>
<path d="M301.24 31.5843C301.099 32.4337 298.66 47.7652 295.797 65.683L290.602 98.2597L298.554 98.3652C308.133 98.472 309.228 98.2597 312.126 95.6035C316.544 91.5323 319.443 82.5378 319.443 72.7652C319.443 68.198 319.054 66.8515 317.074 64.7624L315.484 63.0624L316.933 61.3638C320.61 57.1844 322.623 50.6693 322.623 42.7734C322.623 35.9391 321.174 32.257 317.888 30.7693C316.615 30.2035 315.484 30.0967 308.945 30.0967H301.452L301.24 31.5843ZM310.571 45.0049C311.207 45.2515 311.914 45.8542 312.233 46.4556C312.904 47.7652 313.01 51.7323 312.41 53.5022C311.95 54.9542 310.147 56.7939 308.733 57.3254C307.284 57.8926 305.906 57.8227 306.118 57.2556C306.223 56.972 306.789 54.2104 307.426 51.1296C308.026 48.0501 308.592 45.2871 308.663 45.0391C308.84 44.5076 309.122 44.5076 310.571 45.0049ZM306.366 72.3035C308.415 73.3665 309.193 74.535 309.44 76.9076C309.97 82.2542 307.002 86.1131 301.877 86.6446C300.074 86.857 299.933 86.8213 300.11 86.1844C300.215 85.8309 300.886 82.5734 301.593 78.9611C302.3 75.3487 302.937 72.198 303.007 71.9501C303.255 71.2775 304.633 71.4542 306.366 72.3035Z" fill="white"/>
</g>
<defs>
<clipPath id="clip0_4_6357">
<rect width="361.644" height="100" fill="white"/>
</clipPath>
</defs>
</svg>
