<svg width="204" height="100" viewBox="0 0 204 100" fill="none" xmlns="http://www.w3.org/2000/svg">
<g clip-path="url(#clip0_4_6391)">
<path d="M28.8318 0H8.77495L0 10.0951V31.5464L10.0279 41.6404H18.8029V27.7606H15.0429V12.6186H25.0709V22.7136H38.8598V10.0951L28.8318 0Z" fill="white"/>
<path d="M10.0279 70.6624H31.3388L40.1138 60.5684V37.8558L30.0858 27.7607H21.3109V41.6405H25.0709V56.7826H15.0429V46.6876H0V60.5684L10.0279 70.6624Z" fill="white"/>
<path d="M42.6211 60.5683L53.2765 70.6623H61.425V58.0448H57.664V0H42.6211V60.5683Z" fill="white"/>
<path d="M82.7365 60.5683L72.0821 70.6623H63.9336V58.0448H67.6936V0H82.7365V60.5683Z" fill="white"/>
<path d="M104.047 0V12.6186H109.061V34.0699H104.047V47.9497H114.075L124.104 37.8557V10.7257L113.448 0H104.047Z" fill="white"/>
<path d="M101.539 0H86.4961V70.6623H101.539V0Z" fill="white"/>
<path d="M142.906 13.8808H159.203V0H129.117V70.6623H159.203V58.0448H142.906V13.8808Z" fill="white"/>
<path d="M155.443 27.7607H145.414V40.3793H155.443V27.7607Z" fill="white"/>
<path d="M181.766 0H193.049L203.077 10.0951V29.0219L196.182 35.9618L203.077 42.9027V70.6623H189.287V42.9027H181.766V29.0219H188.034V12.6186H181.766V0Z" fill="white"/>
<path d="M179.257 0H164.215V70.6623H179.257V0Z" fill="white"/>
<path d="M30.0876 78.2324L26.9531 81.3876V95.899L31.0268 99.9996H53.9045V87.0652H41.3696V90.852H50.1435V95.899H32.5946V82.0182H53.9045V78.2324H30.0876Z" fill="white"/>
<path d="M86.4961 99.6838L96.5251 78.2324H106.553L117.836 99.6838H111.567L102.793 83.2805H100.285L92.7641 99.6838H86.4961Z" fill="white"/>
<path d="M83.9888 87.6969V82.0182L80.2289 78.2324H58.918V99.6838H63.9319V90.852H72.7069L78.9738 99.6838H83.9888L77.7209 90.852H80.2289L83.9888 87.6969ZM78.9738 87.0652H63.9319V82.0192H78.9738V87.0652Z" fill="white"/>
<path d="M119.086 78.2324V99.6838H124.101V90.852H140.397V87.0652H124.101V82.0182H142.904V78.2324H119.086Z" fill="white"/>
<path d="M145.414 78.2324L155.443 88.3275L144.16 99.6838H151.681L159.203 92.1122L166.724 99.6838H174.245L162.963 88.3275L174.245 78.2324H166.724L159.203 85.804L151.681 78.2324H145.414Z" fill="white"/>
</g>
<defs>
<clipPath id="clip0_4_6391">
<rect width="203.077" height="100" fill="white"/>
</clipPath>
</defs>
</svg>
