<svg width="755" height="100" viewBox="0 0 755 100" fill="none" xmlns="http://www.w3.org/2000/svg">
<g clip-path="url(#clip0_4_6408)">
<path d="M754.115 98.7062C748.786 98.7062 743.46 98.7062 737.789 98.7062C722.663 78.149 707.369 57.4205 691.729 36.1805C691.729 57.4205 691.729 77.9776 691.729 98.7062C685.543 98.7062 679.7 98.7062 673.512 98.7062C673.512 66.329 673.512 34.1233 673.512 1.57475C678.669 1.57475 683.652 1.57475 689.152 1.57475C704.449 22.4747 719.915 43.5462 735.555 64.4462C735.726 64.4462 735.897 64.2748 736.069 64.2748C736.069 43.3748 736.069 22.4747 736.069 1.40332C742.257 1.40332 748.1 1.40332 754.286 1.40332C754.115 33.9519 754.115 66.1576 754.115 98.7062Z" fill="white"/>
<path d="M288.723 1.57366C289.237 1.57366 289.58 1.40223 289.926 1.40223C301.268 1.40223 312.611 1.2308 323.954 1.57366C337.703 2.08795 349.217 13.2222 350.934 26.9279C352.48 40.8051 343.546 54.1651 330.311 57.9337C329.797 58.1051 329.28 58.2765 328.594 58.448C337.874 71.8108 347.154 84.9994 356.606 98.5337C349.043 98.5337 341.826 98.5337 334.437 98.5337C325.5 85.8565 316.563 73.008 307.111 59.648C307.111 73.008 307.111 85.6851 307.111 98.5337C300.923 98.5337 294.908 98.5337 288.894 98.5337C288.723 66.1565 288.723 33.9508 288.723 1.57366ZM307.111 19.3908C307.111 26.7565 307.111 33.9508 307.111 41.3165C311.923 41.3165 316.563 41.6594 321.031 41.3165C326.703 40.8051 330.828 36.0079 330.654 30.5251C330.654 24.7022 326.703 20.0765 321.031 19.5622C316.563 19.0479 311.923 19.3908 307.111 19.3908Z" fill="white"/>
<path d="M66.854 1.40332C73.0397 1.40332 78.8825 1.40332 85.0683 1.40332C85.0683 2.43189 85.0683 3.28903 85.0683 4.14618C85.0683 22.989 85.2425 42.0033 85.0683 60.849C84.8968 71.469 92.974 79.8633 102.428 81.2319C113.771 82.7747 124.597 73.5233 124.768 62.0462C124.768 42.689 124.768 23.5033 124.768 4.14618C124.768 3.28903 124.768 2.43189 124.768 1.40332C130.957 1.40332 136.971 1.40332 143.157 1.40332C143.157 2.26046 143.157 2.94618 143.157 3.46046C143.157 22.8176 142.985 42.1747 143.157 61.5319C143.503 81.0605 127.863 95.9662 113.083 99.049C87.3025 104.36 66.6797 83.9747 66.6797 63.4176C66.6797 43.2033 66.6797 22.8176 66.6797 2.60332C66.854 2.43189 66.854 2.08903 66.854 1.40332Z" fill="white"/>
<path d="M245.756 40.9756C257.099 40.9756 268.27 40.9756 279.442 40.9756C279.442 46.9728 279.442 52.9671 279.442 59.1356C268.27 59.1356 257.099 59.1356 245.756 59.1356C245.756 66.3299 245.756 73.3528 245.756 80.7214C256.928 80.7214 268.099 80.7214 279.442 80.7214C279.442 86.8871 279.442 92.7128 279.442 98.7071C262.256 98.7071 244.896 98.7071 227.539 98.7071C227.539 66.5014 227.539 34.1242 227.539 1.74707C244.725 1.74707 262.082 1.74707 279.442 1.74707C279.442 7.74421 279.442 13.5671 279.442 19.7356C268.27 19.7356 257.099 19.7356 245.756 19.7356C245.756 26.7585 245.756 33.6099 245.756 40.9756Z" fill="white"/>
<path d="M395.445 64.1033C402.837 43.2033 410.225 22.3033 417.614 1.40332C424.488 1.40332 431.02 1.40332 438.065 1.40332C426.722 33.9519 415.554 66.329 404.382 98.7062C398.194 98.7062 392.351 98.7062 385.994 98.7062C374.822 66.5005 363.48 34.1233 352.137 1.57475C359.011 1.57475 365.885 1.57475 372.76 1.57475C380.151 22.3033 387.54 43.2033 395.102 64.1033C394.931 64.1033 395.102 64.1033 395.445 64.1033Z" fill="white"/>
<path d="M172.03 59.3068C172.03 72.4982 172.03 85.5154 172.03 98.7068C165.841 98.7068 159.998 98.7068 153.812 98.7068C153.812 66.3297 153.812 33.9525 153.812 1.7468C153.984 1.57537 154.327 1.40395 154.498 1.40395C166.184 1.40395 177.873 1.06109 189.387 1.57537C204.51 2.26109 216.024 15.1097 216.024 30.1839C216.024 44.7468 205.541 57.0782 191.104 58.9639C186.464 59.6497 181.653 59.1354 177.013 59.1354C175.467 59.3068 173.918 59.3068 172.03 59.3068ZM172.544 19.3925C172.544 26.7582 172.544 33.9525 172.544 41.3182C177.355 41.3182 181.995 41.6611 186.464 41.3182C192.135 40.8068 196.261 36.0097 196.09 30.5268C196.09 24.7039 192.135 20.0782 186.464 19.5639C181.995 19.0497 177.355 19.3925 172.544 19.3925Z" fill="white"/>
<path d="M526.055 10.8275C521.761 15.796 518.838 19.736 514.712 24.0189C514.198 23.1618 512.306 21.7903 511.792 21.1046C508.355 16.8218 503.715 15.6246 498.558 16.4818C493.403 17.336 490.138 20.4218 488.763 25.3875C487.732 28.9846 488.418 32.4132 491.512 34.8103C493.918 36.696 496.669 38.2361 499.418 39.6075C503.198 41.4903 507.152 43.0332 510.932 45.0875C522.103 51.0846 526.229 61.7046 524.852 73.1818C523.135 88.0875 510.246 99.2218 495.121 99.5646C485.669 99.7361 477.592 96.9932 471.061 90.1418C470.889 89.9703 470.718 89.6275 470.546 89.4561C470.546 89.2846 468.312 87.916 468.141 87.5732C471.921 83.4618 475.015 78.3218 478.795 74.2103C480.169 75.7532 484.295 79.6932 485.841 80.8903C491.512 85.0018 499.761 83.976 504.058 78.6646C508.355 73.1818 507.666 65.4732 501.823 60.8503C498.903 58.4503 495.121 56.9075 491.855 55.0246C487.389 52.456 482.403 50.3989 478.452 47.1446C468.826 39.0932 467.623 24.5332 474.843 13.7389C486.529 -3.04967 512.481 -4.58967 526.055 10.8275Z" fill="white"/>
<path d="M57.2286 10.655C53.2771 14.9378 50.8714 18.8778 46.5743 24.3607C45.8857 23.3321 44.1686 21.4464 43.6514 20.7635C40.3857 16.9921 34.3714 15.2807 29.2171 16.9921C24.2314 18.535 21.3114 21.9607 20.6229 27.1007C20.28 30.0121 20.9657 32.9235 23.3714 34.8093C25.9514 36.695 28.8714 38.4064 31.6229 39.9493C35.4029 41.8321 39.3543 43.375 43.1371 45.4293C53.62 51.0835 57.5714 60.335 57.2286 71.8121C56.8857 86.715 42.9657 99.735 27.3257 100.078C17.8743 100.249 9.79714 97.335 3.09429 90.4835C2.92286 90.1407 0.171429 88.2578 0 87.915C4.46857 82.6035 6.36 79.8635 10.6543 74.5521C12.0314 76.095 16.4971 80.2064 17.8743 81.2321C23.3714 85.3435 31.4514 84.4893 35.9171 79.3493C40.3857 74.3807 40.0429 67.015 34.8886 62.0464C32.48 59.8207 29.56 58.1064 26.8086 56.5664C23.3714 54.6807 19.5914 53.3093 16.1543 51.4264C-0.342858 42.8607 -0.514286 23.5035 7.73429 12.7121C19.7629 -3.05074 43.9971 -4.41931 57.2286 10.655Z" fill="white"/>
<path d="M461.097 98.7056C455.079 98.7056 449.065 98.7056 443.051 98.7056C443.051 66.3285 443.051 34.1228 443.051 1.57422C449.065 1.57422 455.079 1.57422 461.097 1.57422C461.097 33.9514 461.097 66.1571 461.097 98.7056Z" fill="white"/>
<path d="M536.715 1.57422C542.729 1.57422 548.743 1.57422 554.761 1.57422C554.761 33.9514 554.761 66.3285 554.761 98.7056C548.743 98.7056 542.729 98.7056 536.715 98.7056C536.715 66.1571 536.715 33.9514 536.715 1.57422Z" fill="white"/>
<path d="M612.503 36.1807L574.523 98.7064H650.483L612.503 36.1807Z" fill="white"/>
<path d="M562.32 53.1376C562.32 53.309 562.32 53.4804 562.32 53.6518C562.491 55.8804 562.837 58.2776 563.351 60.5061C563.351 60.849 563.523 61.0176 563.523 61.3604C563.694 62.389 564.04 63.2461 564.383 64.2747C564.554 64.6176 564.726 65.129 564.897 65.4718C565.071 65.9861 565.243 66.5004 565.586 67.1861C565.757 67.7004 566.1 68.2147 566.274 68.729C566.446 69.069 566.446 69.2404 566.617 69.5833C567.131 70.7833 567.649 71.8118 568.334 72.8404C568.509 73.009 568.509 73.3518 568.68 73.5233C569.537 75.0661 570.397 76.609 571.429 77.9776C572.289 79.1776 573.149 80.2061 574.006 81.2318L584.146 64.6176C581.569 59.9918 580.194 54.8518 580.194 49.5404C580.194 48.1718 580.366 46.8004 580.537 45.429C580.537 44.9147 580.709 44.5747 580.709 44.0604C580.88 43.5461 580.88 43.2033 581.054 42.689C581.226 42.1747 581.226 41.6604 581.397 41.1461C581.569 40.8061 581.569 40.2918 581.74 39.949C586.037 27.2718 598.411 17.849 612.331 17.849C629.689 17.849 644.469 32.7547 644.469 50.2261C644.469 51.5976 644.297 52.9661 644.126 54.3376C644.126 54.8518 643.954 55.1947 643.954 55.709C643.78 56.2233 643.78 56.5661 643.609 57.0776C643.437 57.5918 643.437 58.1061 643.266 58.6204C643.094 58.9633 643.094 59.4776 642.923 59.8204C642.406 61.5318 641.546 63.0747 640.689 64.789L650.829 81.4033C651.686 80.3776 652.546 79.1776 653.406 78.149C657.186 72.8404 660.109 66.6718 661.483 60.3347C661.654 59.8204 661.654 59.3061 661.826 58.7918C661.826 58.449 661.997 57.9347 661.997 57.5918C662.171 56.5661 662.343 55.5376 662.343 54.509C662.343 54.3376 662.343 53.9947 662.343 53.8233C662.514 52.7976 662.514 51.5976 662.514 50.569C662.514 49.369 662.514 48.1718 662.343 47.1433C662.343 46.9718 662.343 46.8004 662.343 46.629C662.171 44.4033 661.826 42.0033 661.311 39.7776C661.311 39.4347 661.14 39.2633 661.14 38.9204C660.966 37.8918 660.623 37.0347 660.28 36.009C660.109 35.6661 659.937 35.1518 659.763 34.809C659.591 34.2947 659.42 33.7804 659.077 33.0947C658.906 32.5833 658.56 32.069 658.389 31.5547C658.217 31.2118 658.217 31.0404 658.046 30.6976C657.529 29.4976 657.014 28.4718 656.326 27.4433C656.154 27.2718 656.154 26.929 655.983 26.7576C655.123 25.2147 654.266 23.6747 653.234 22.3033C643.78 9.11184 628.486 0.0346983 612.331 0.377555C595.489 0.0346983 580.537 9.4547 571.429 22.3033C567.649 27.6147 564.726 33.7804 563.351 40.1204C563.18 40.6347 563.18 41.1461 563.009 41.6604C563.009 42.0033 562.837 42.5176 562.837 42.8604C562.663 43.889 562.491 44.9147 562.491 45.9433C562.491 46.1147 562.491 46.4576 562.491 46.629C562.32 47.6576 562.32 48.8547 562.32 49.8833C562.149 50.9118 562.149 52.1118 562.32 53.1376Z" fill="white"/>
</g>
<defs>
<clipPath id="clip0_4_6408">
<rect width="754.286" height="100" fill="white"/>
</clipPath>
</defs>
</svg>
