<svg width="285" height="100" viewBox="0 0 285 100" fill="none" xmlns="http://www.w3.org/2000/svg">
<g clip-path="url(#clip0_4_6421)">
<path d="M126.833 54.4858C136.047 54.4858 145.677 57.3436 152.364 62.0066C151.427 62.9673 150.395 64.0258 149.517 64.9251C145.624 63.8732 141.144 63.2525 137.377 63.2525C134.981 63.2525 132.61 63.6347 130.329 64.388C128.179 65.0977 126.212 66.0999 124.48 67.3666C122.787 68.6051 121.381 70.0747 120.414 71.6147C119.384 73.2562 118.84 75.0014 118.84 76.6621C118.84 78.614 119.25 80.4162 120.058 82.0169C120.798 83.4814 121.857 84.7554 123.207 85.8043C125.576 87.6451 128.778 88.7006 131.993 88.7006C134.157 88.7006 136.821 88.334 139.698 87.6406C141.948 87.0984 144.296 86.3658 146.57 85.4999L147.466 91.1903C143.934 92.9088 139.865 94.3288 135.637 95.3147C130.905 96.4184 126.103 96.9784 121.364 96.9784C118.553 96.9784 115.561 96.5266 112.71 95.671C109.633 94.748 106.85 93.414 104.441 91.7073C100.561 88.9584 95.937 83.9554 95.937 75.7317C95.937 70.0525 98.8614 64.7851 104.172 60.8999C106.917 58.8917 110.196 57.3191 113.92 56.2273C117.862 55.0725 122.207 54.4858 126.833 54.4858ZM126.833 53.2266C107.293 53.2266 94.6777 63.4792 94.6777 75.7325C94.6777 91.0658 109.876 98.2384 121.364 98.2384C131.191 98.2384 141.196 95.8251 148.853 91.9058L147.568 83.7495C142.264 85.9406 136.289 87.4421 131.993 87.4421C126.482 87.4421 120.098 84.0177 120.098 76.6621C120.098 70.7843 128.004 64.511 137.376 64.511C140.964 64.511 145.705 65.1229 149.896 66.3377C151.356 64.8421 153.056 63.0999 154.276 61.8458C147.331 56.5036 136.849 53.2266 126.833 53.2266Z" fill="white"/>
<path d="M218.646 52.7309L209.38 86.805L208.947 88.3946H210.595H212.015L210.196 95.0835C210.009 95.2724 209.408 95.7169 208.219 96.1332C207.058 96.5398 205.001 97.0317 201.805 97.0657C201.744 97.0665 201.684 97.0665 201.623 97.0665C197.553 97.0665 194.792 95.5946 193.414 92.6924L192.704 91.1946L191.451 92.2813C191.439 92.2917 191.427 92.3013 191.415 92.3109C191.38 92.3391 191.336 92.3739 191.288 92.4161C189.092 94.3509 186.598 95.705 183.663 96.5561C180.949 97.3428 177.747 97.7258 173.872 97.7258C171.188 97.7258 168.589 97.2665 166.146 96.3606C163.752 95.4732 161.613 94.1961 159.787 92.565C157.938 90.9146 156.491 88.9709 155.486 86.7887C154.433 84.5035 153.899 82.0235 153.899 79.4161C153.899 76.0887 154.574 72.8591 155.906 69.8176C157.251 66.7435 159.208 63.9991 161.722 61.6591C164.35 59.2132 167.498 57.2983 171.078 55.968C174.915 54.542 179.175 53.8198 183.742 53.8198C189.144 53.8198 195.147 54.6969 200.648 56.2887L201.878 56.6443L202.213 55.4095L202.942 52.7295H218.646M183.447 88.3302C185.954 88.3302 188.51 87.7717 190.643 86.7569C192.9 85.6835 194.372 84.245 194.791 82.7065L194.792 82.7035L194.792 82.7006L199.01 66.8524C199.233 66.0258 199.072 65.1998 198.557 64.5258C197.19 62.7376 193.738 62.4709 191.801 62.4709C188.961 62.4709 185.893 63.025 183.384 63.9902C180.268 65.1887 178.086 66.9665 177.073 69.1302C175.952 71.525 175.02 73.5191 174.301 75.0583C173.355 77.085 173.049 79.248 173.415 81.3124C173.661 82.7065 174.167 83.9235 174.915 84.9295C175.864 86.2043 177.186 87.1176 178.843 87.6443C180.28 88.0991 181.828 88.3302 183.447 88.3302ZM220.293 51.4717H201.981L200.999 55.0806C195.346 53.4443 189.287 52.562 183.743 52.562C164.204 52.562 152.641 65.4161 152.641 79.4176C152.641 90.8946 162.384 98.9858 173.872 98.9858C181.405 98.9858 187.3 97.6087 192.121 93.362C192.171 93.3176 192.226 93.2776 192.277 93.2332C193.292 95.3717 195.675 98.3265 201.623 98.3265C201.688 98.3265 201.752 98.3265 201.818 98.3257C208.515 98.2539 211.101 96.268 211.361 95.6013L213.664 87.1361H210.595L220.293 51.4717ZM183.447 87.0709C182.035 87.0709 180.6 86.8791 179.225 86.4428C176.155 85.4672 175.021 83.1576 174.655 81.0917C174.325 79.2265 174.642 77.3065 175.444 75.5902C175.978 74.4458 176.849 72.582 178.215 69.6635C180.127 65.5791 186.768 63.7309 191.801 63.7302C195.472 63.7302 198.287 64.7124 197.794 66.5258L193.576 82.3761C192.927 84.7658 188.338 87.0709 183.447 87.0709Z" fill="white"/>
<path d="M246.363 52.7309L245.625 55.4435L245.001 57.7398L247.25 56.965C248.203 56.6369 250.779 55.7917 254.099 55.0413C258.194 54.1154 261.98 53.6465 265.352 53.6465C271.956 53.6465 276.631 55.445 279.249 58.9917L279.288 59.045C279.939 59.9272 280.831 61.1346 281.588 62.8458C282.487 64.8761 282.993 67.1872 283.092 69.7154C283.373 76.9302 280.436 86.1295 274.359 97.068H260.244L264.362 88.2139L264.376 88.1858L264.387 88.1569C266.83 82.1509 268.154 77.1991 268.437 73.0198C268.665 69.6472 267.867 66.9598 266.066 65.0332C263.476 62.2613 259.61 61.962 258.068 61.962C257.79 61.962 257.59 61.9717 257.496 61.9776C252.288 61.9902 245.987 64.2072 243.516 65.162L242.921 65.3917L242.754 66.0065L234.307 97.068H218.604L230.66 52.7324H246.363M248.01 51.4717H229.698L216.957 98.3257H235.27L243.969 66.3354C246.081 65.5198 252.448 63.2354 257.539 63.2354C257.539 63.2354 257.734 63.2198 258.067 63.2198C260.169 63.2198 267.793 63.842 267.179 72.9332C266.893 77.1798 265.501 82.0717 263.22 87.6806L258.27 98.325H275.099C290.213 71.4909 282.926 61.8502 280.263 58.2428C276.959 53.7658 271.198 52.3865 265.353 52.3865C257.215 52.3865 248.912 55.0606 246.841 55.7739L248.01 51.4717Z" fill="white"/>
<path d="M66.9352 44.9585C69.7493 44.9585 72.6115 45.3377 75.4426 46.0859C80.213 47.3466 83.5834 49.8503 85.7463 53.7407C86.7789 55.5985 87.5441 57.8088 88.0197 60.3103C88.5352 63.0185 88.7271 66.1481 88.5908 69.6111C88.4449 73.3066 87.9212 77.4881 87.033 82.0385C86.1434 86.5963 84.8649 91.6474 83.2293 97.0666H74.253C76.7175 90.6037 78.293 84.1763 78.8264 78.3755C79.3626 72.5422 78.7864 67.7859 77.2041 64.9829C76.0656 62.9666 74.6271 62.3526 73.6212 62.1926C73.1456 62.117 72.6567 62.0785 72.1678 62.0785C70.673 62.0785 69.1026 62.4355 67.4997 63.14C66.0486 63.7777 64.5301 64.7185 62.9864 65.9355C60.2901 68.0629 57.3975 71.1296 54.3908 75.0511C51.7093 78.5481 47.3864 84.6163 40.6619 97.0659H5.52635C10.6664 89.4807 15.2375 83.1451 19.4641 77.7466C24.9249 70.7718 29.9641 65.1414 34.8686 60.5348C46.0278 50.054 56.5167 44.9585 66.9352 44.9585ZM66.9352 43.6992C43.7538 43.6992 23.5649 67.9392 3.1582 98.3259H41.413C48.5952 84.9555 61.2478 63.3385 72.1664 63.3385C72.5878 63.3385 73.0064 63.3703 73.4219 63.437C78.8189 64.2948 79.9345 79.7607 72.4026 98.3259H84.1604C95.8664 60.1585 87.9123 48.0792 75.7626 44.8681C72.7715 44.0777 69.8286 43.6992 66.9352 43.6992Z" fill="white"/>
<path d="M62.4318 86.0859C65.04 86.0859 67.5718 86.2785 69.5607 86.6289C70.8118 86.8489 71.5993 87.083 72.0844 87.2718C71.5985 87.4607 70.8111 87.6948 69.5607 87.9148C67.5718 88.2652 65.04 88.4578 62.4318 88.4578C59.8237 88.4578 57.2918 88.2652 55.303 87.9148C54.0518 87.6948 53.2644 87.46 52.7793 87.2718C53.2652 87.083 54.0526 86.8489 55.303 86.6289C57.2918 86.2785 59.8237 86.0859 62.4318 86.0859ZM62.4318 84.8267C56.0711 84.8267 50.9141 85.9215 50.9141 87.2718C50.9141 88.6222 56.0711 89.717 62.4318 89.717C68.7933 89.717 73.9496 88.6222 73.9496 87.2718C73.9496 85.9215 68.7926 84.8267 62.4318 84.8267Z" fill="white"/>
<path d="M95.1726 44.9585C97.6785 44.9585 100.098 45.4777 102.361 46.5014C103.981 47.234 105.461 48.1955 106.778 49.3703C103.917 50.5681 101.288 52.0385 98.9422 53.7548C97.9563 54.4763 97.0104 55.2533 96.1141 56.077C95.4674 53.6459 94.5867 51.4207 93.4844 49.4385C92.7037 48.034 91.7985 46.7214 90.7815 45.5177C92.2111 45.1459 93.6815 44.9585 95.1726 44.9585ZM95.1726 43.6992C92.8296 43.6992 90.5889 44.1333 88.5215 44.9192C90.0178 46.4103 91.3104 48.1185 92.3844 50.0496C93.7615 52.5266 94.763 55.3592 95.3956 58.5533C96.6689 57.2044 98.0948 55.9355 99.6867 54.7711C102.459 52.7422 105.6 51.0955 109.036 49.8377C105.61 46.0666 100.667 43.6992 95.1726 43.6992Z" fill="white"/>
<path d="M213.797 95.9429H232.109L244.85 49.0889H226.538L213.797 95.9429Z" fill="white"/>
<path d="M128.835 85.0603C123.325 85.0603 116.941 81.6359 116.941 74.2803C116.941 68.4025 124.847 62.1292 134.219 62.1292C137.807 62.1292 142.548 62.741 146.738 63.9559C148.198 62.4603 149.898 60.7181 151.118 59.464C144.173 54.1196 133.691 50.8433 123.674 50.8433C104.135 50.8433 91.5195 61.0959 91.5195 73.3492C91.5195 88.6825 106.717 95.8551 118.205 95.8551C128.033 95.8551 138.037 93.4418 145.694 89.5225L144.41 81.3662C139.106 83.5588 133.131 85.0603 128.835 85.0603Z" fill="white"/>
<path d="M217.135 49.0889H198.822L197.841 52.6978C192.188 51.0615 186.128 50.1792 180.585 50.1792C161.045 50.1792 149.482 63.0333 149.482 77.0348C149.482 88.5118 159.226 96.6029 170.714 96.6029C178.247 96.6029 184.142 95.2259 188.962 90.9792C189.013 90.9348 189.068 90.8948 189.119 90.8504C190.145 93.0126 192.568 96.0081 198.66 95.9429C205.357 95.8711 207.942 93.8852 208.203 93.2185L210.505 84.7533H207.437L217.135 49.0889ZM194.637 64.1429L190.419 79.9933C189.582 83.0726 182.208 86.0111 176.068 84.06C172.997 83.0844 171.864 80.7748 171.498 78.7089C171.168 76.8437 171.485 74.9237 172.286 73.2074C172.82 72.0629 173.691 70.1992 175.057 67.28C178.362 60.217 195.806 59.8415 194.637 64.1429Z" fill="white"/>
<path d="M240.092 64.2388C240.092 64.2388 248.183 60.8529 254.381 60.8529C254.381 60.8529 264.733 60.0158 264.021 70.5507C263.735 74.7973 262.343 79.6892 260.062 85.2981L255.113 95.9425H271.941C287.055 69.1084 279.768 59.4677 277.105 55.8603C268.493 44.1914 243.191 53.5647 243.191 53.5647" fill="white"/>
<path d="M72.6059 42.4854C45.6363 35.3587 22.9533 61.7639 0 95.9431H38.2548C45.7148 82.0565 59.0748 59.275 70.2644 61.0535C75.6615 61.9113 76.777 77.3772 69.2452 95.9431H81.003C92.7096 57.7757 84.7556 45.6965 72.6059 42.4854Z" fill="white"/>
<path d="M59.2736 87.3342C65.6347 87.3342 70.7914 86.2395 70.7914 84.889C70.7914 83.5386 65.6347 82.4438 59.2736 82.4438C52.9125 82.4438 47.7559 83.5386 47.7559 84.889C47.7559 86.2395 52.9125 87.3342 59.2736 87.3342Z" fill="white"/>
<path d="M89.2262 47.6678C90.6033 50.1448 91.6048 52.9774 92.2373 56.1715C93.5107 54.8226 94.9366 53.5537 96.5285 52.3892C99.3011 50.3603 102.442 48.7137 105.877 47.4559C102.452 43.6848 97.5099 41.3174 92.0144 41.3174C89.6714 41.3174 87.4307 41.7515 85.3633 42.5374C86.8596 44.0285 88.1529 45.7359 89.2262 47.6678Z" fill="white"/>
<path d="M160.937 29.5489C152.348 29.2082 151.702 28.866 151.049 26.7089C148.66 18.8252 162.699 13.0297 162.699 13.0297L159.748 5.82227C159.748 5.82227 145.302 16.7971 147.946 26.7593C148.505 28.866 149.26 32.9904 160.991 32.5504C162.49 32.4941 166.488 32.203 166.252 35.5815C165.812 41.8882 151.674 44.4993 151.674 44.4993L156.712 51.6134C168.91 48.8571 169.088 35.5467 169.088 35.5467C169.233 30.3445 163.505 29.6504 160.937 29.5489Z" fill="white"/>
<path d="M235.786 6.81787L220.793 13.5823L225.712 36.9527L226.074 38.6697L226.098 38.7868L226.214 39.3394L243.678 32.5327L243.457 27.3964L228.917 35.2268L227.137 26.7727L236.943 23.3956L235.806 20.0942L226.413 23.3297L224.698 15.1816L236.768 12.3505L235.786 6.81787Z" fill="white"/>
<path d="M260.354 13.609C256.936 13.2008 253.731 13.8305 251.3 15.1675L251.469 13.9231L246.206 13.2305L245.062 39.029L248 39.3394L249.611 27.5379C251.664 29.5001 254.711 30.9386 258.236 31.3594C259.432 31.5023 260.602 31.5164 261.725 31.4201C268.372 33.712 265.32 42.206 265.32 42.206L269.317 43.0186C270.426 36.3275 267.887 31.8897 266.055 30.4001C269.166 29.1245 271.347 26.8134 271.688 23.9623C272.271 19.0616 267.197 14.426 260.354 13.609ZM268.687 23.6053C268.288 26.9438 263.651 29.2512 258.56 28.6438C255.7 28.3023 253.196 27.1008 251.62 25.5216L249.7 26.8845L251.167 16.1371L252.551 17.7275C254.454 16.5631 257.17 15.9845 260.03 16.326C265.121 16.9327 269.085 20.266 268.687 23.6053Z" fill="white"/>
<path d="M194.651 30.808L191.314 17.4702L187.927 18.3176L191.264 31.6554C193.596 40.9791 179.61 44.4784 177.278 35.1547L173.135 18.5998L169.748 19.4473L173.89 36.0021C177.354 49.8421 198.114 44.648 194.651 30.808Z" fill="white"/>
<path d="M160.728 2.45478L165.53 14.1851L163.571 14.994C163.45 15.0444 151.372 20.2392 153.144 26.0918C153.27 26.5081 153.333 26.6214 153.353 26.6511C154.003 27.1437 158.607 27.3266 161.082 27.4244C166.558 27.6414 170.046 29.7222 171.007 33.2326L167.17 17.9007L174.682 16.0214L179.34 34.6385C180.215 38.1348 182.944 38.5126 184.079 38.5126H184.08C185.806 38.5126 187.487 37.7333 188.466 36.4785C189.364 35.3281 189.618 33.8385 189.201 32.1711L185.349 16.7711L192.861 14.8926L195.522 25.5288L195.91 13.5866L205.584 14.7237C207.064 14.2792 208.643 14.0503 210.267 14.0503C210.937 14.0503 211.618 14.0903 212.291 14.1696C214.904 14.477 217.282 15.3526 219.262 16.6222L218.363 12.3474L237.404 3.75699L239.214 13.9607L227.207 16.777L227.998 20.5355L237.124 17.3918L239.646 24.7126L229.605 28.1711L230.412 32.0074L243.559 24.9274L244.184 10.82L253.389 12.0311C254.932 11.5881 256.589 11.36 258.301 11.36C259.064 11.36 259.838 11.4066 260.604 11.4977C268.601 12.4518 274.519 18.157 273.796 24.214C273.469 26.9488 271.892 29.3422 269.359 31.0437C270.982 33.5911 272.344 37.7466 271.412 43.3659L271.051 45.5407L262.487 43.7992L263.318 41.4874C263.669 40.4888 264.372 37.4348 263.386 35.3933C262.988 34.5696 262.338 33.9718 261.407 33.574C261.032 33.5963 260.655 33.6074 260.281 33.6074C259.518 33.6074 258.745 33.5614 257.984 33.4703C255.532 33.1777 253.229 32.4422 251.238 31.3363L249.827 41.6696L242.851 40.9325L243.112 35.0355L224.652 42.2303L222.664 32.7844C220.246 35.6555 216.234 37.4577 211.606 37.4577C210.931 37.4577 210.246 37.4177 209.569 37.3377C207.392 37.0822 205.326 36.4251 203.504 35.4289L202.461 44.3066L194.942 43.4229L195.029 40.7222C194.912 40.8903 194.79 41.0563 194.663 41.2192C192.195 44.3807 188.204 46.2688 183.99 46.2688C183.989 46.2688 183.989 46.2688 183.989 46.2688C177.994 46.2681 173.335 42.5326 171.83 36.5192L171.077 33.5081C171.228 34.1614 171.296 34.8614 171.275 35.6066C171.207 40.7592 168.184 51.2148 157.244 53.6874L155.86 54L148.078 43.0133L151.35 42.4096C156.398 41.4711 163.973 38.6051 164.195 35.434C164.212 35.1733 164.174 35.0385 164.154 35.0163C164.14 35.0007 163.789 34.6459 162.162 34.6459C161.845 34.6459 161.555 34.6577 161.316 34.6681L161.134 34.6755C160.532 34.6977 159.94 34.7096 159.376 34.7096C149.254 34.7096 146.933 31.0488 145.998 27.4681L145.955 27.3051C142.98 16.0948 157.889 4.61329 158.526 4.12959L160.728 2.45478ZM260.188 26.6148C263.776 26.6148 266.388 24.9281 266.575 23.3533C266.679 22.4866 266.122 21.4711 265.049 20.5681C263.725 19.4548 261.804 18.6777 259.778 18.4363C259.32 18.3814 258.857 18.354 258.401 18.354C256.62 18.354 254.892 18.7866 253.659 19.54L252.773 20.0822L252.343 23.2363L253.124 24.0192C254.426 25.3229 256.552 26.2622 258.812 26.5325C259.269 26.5874 259.732 26.6148 260.188 26.6148ZM211.566 30.2844C214.817 30.2844 217.658 28.6192 217.898 26.5726C218.018 25.5592 217.478 24.42 216.42 23.4459C215.175 22.3014 213.365 21.5155 211.454 21.2911C211.069 21.2459 210.678 21.2229 210.293 21.2229C208.556 21.2229 206.863 21.6992 205.647 22.5303L204.964 22.997L204.488 27.0525L205.044 27.6651C206.267 29.0118 208.272 29.9659 210.405 30.217C210.79 30.2614 211.181 30.2844 211.566 30.2844ZM161.272 0.459961L159.967 1.45181L157.762 3.12663C157.327 3.457 153.408 6.4844 149.898 10.9118C147.833 13.5155 146.317 16.097 145.392 18.5829C144.209 21.7651 143.988 24.8081 144.736 27.6259L144.778 27.7844C145.2 29.4 146.047 31.7459 148.522 33.4644C150.947 35.1488 154.497 35.9674 159.375 35.9674C159.952 35.9674 160.559 35.9555 161.179 35.9325L161.364 35.9251L161.375 35.9244C161.609 35.9148 161.874 35.9037 162.161 35.9037C162.381 35.9037 162.568 35.9111 162.726 35.9229C162.295 36.6303 161.177 37.5911 159.035 38.6237C156.794 39.7037 153.761 40.6792 151.119 41.1703L147.849 41.774L145.911 42.1318L147.05 43.74L154.832 54.7266L155.318 55.4125L156.137 55.2274L157.521 54.9148C160.261 54.2955 162.714 53.16 164.812 51.5392C166.627 50.137 168.177 48.3726 169.417 46.297C170.458 44.554 171.264 42.6311 171.809 40.5807C171.838 40.4711 171.866 40.3629 171.892 40.2563C172.783 41.98 173.979 43.4614 175.438 44.6311C177.801 46.5259 180.758 47.5274 183.989 47.5281C187.584 47.5281 191.034 46.2644 193.661 44.0577L193.645 44.5385L194.794 44.6733L202.312 45.557L203.563 45.7037L203.709 44.4533L204.547 37.3251C206.08 37.9637 207.712 38.3874 209.419 38.5881C210.144 38.6733 210.879 38.717 211.604 38.717C214.049 38.717 216.355 38.2585 218.458 37.3548C219.721 36.8126 220.884 36.1111 221.901 35.2837L223.417 42.4896L223.723 43.9429L225.107 43.4037L241.766 36.9103L241.59 40.8763L241.538 42.06L242.716 42.1844L249.692 42.9214L250.907 43.0496L251.072 41.8392L252.247 33.2326C253.981 33.9792 255.881 34.4874 257.832 34.72C258.643 34.817 259.467 34.8659 260.28 34.8659C260.57 34.8659 260.864 34.8592 261.156 34.8466C261.67 35.1126 262.021 35.4651 262.251 35.94C262.986 37.4607 262.489 40.0459 262.131 41.0637L261.301 43.3718L260.809 44.7414L262.235 45.0318L270.799 46.7733L272.079 47.0333L272.292 45.7451L272.653 43.5703C273.106 40.8429 273.08 38.2274 272.576 35.7955C272.251 34.2251 271.716 32.7214 271.012 31.3851C273.304 29.5296 274.723 27.0726 275.047 24.3614C275.249 22.6644 275.007 20.9696 274.329 19.3237C273.687 17.7674 272.683 16.3237 271.344 15.0333C268.653 12.4392 264.892 10.7392 260.754 10.2451C259.938 10.1481 259.113 10.0985 258.301 10.0985C256.569 10.0985 254.888 10.3163 253.298 10.7466L244.348 9.56885L242.987 9.38959L242.926 10.7614L242.332 24.1548L241.028 24.857L240.836 24.2992L238.315 16.9785L237.904 15.7881L236.714 16.1985L228.936 18.8777L228.692 17.7192L239.501 15.1837L240.661 14.9118L240.453 13.7377L238.643 3.53404L238.36 1.9407L236.885 2.60588L217.844 11.1963L216.921 11.6126L217.13 12.6037L217.478 14.2555C215.896 13.5777 214.191 13.1222 212.438 12.9163C211.717 12.8311 210.987 12.7881 210.267 12.7881C208.618 12.7881 207.008 13.0074 205.478 13.44L196.058 12.3326L194.697 12.1726L194.652 13.5422L194.557 16.477L194.084 14.5837L193.778 13.3622L192.556 13.6674L185.044 15.5459L183.823 15.8511L184.129 17.0726L187.981 32.4726C188.306 33.7681 188.135 34.854 187.475 35.6992C186.741 36.6407 185.409 37.2488 184.082 37.2488C183.695 37.2488 182.942 37.1888 182.238 36.7881C181.419 36.3222 180.856 35.4948 180.564 34.3288L175.907 15.7118L175.601 14.4903L174.379 14.7963L166.867 16.6755L165.646 16.9814L165.952 18.2029L168.409 28.0222C168.398 28.0163 168.389 28.0103 168.378 28.0044C166.498 26.8985 164.061 26.2785 161.135 26.1622C159.961 26.1155 158.355 26.0518 156.9 25.9459C155.447 25.84 154.704 25.7311 154.333 25.657C153.701 23.374 156.155 21.0089 158.338 19.42C160.998 17.4829 163.962 16.1933 164.059 16.1518L166.013 15.3451L167.174 14.8659L166.698 13.7037L161.896 1.97329L161.272 0.459961ZM253.94 20.8444L254.316 20.614C255.355 19.9777 256.844 19.6126 258.4 19.6126C258.807 19.6126 259.221 19.637 259.628 19.6859C261.417 19.8992 263.097 20.5718 264.238 21.5311C265.045 22.2103 265.366 22.86 265.324 23.2029C265.289 23.4955 264.875 24.0163 264.049 24.4711C263.012 25.0414 261.641 25.3555 260.187 25.3555C259.781 25.3555 259.367 25.3311 258.96 25.2822C257.001 25.0481 255.106 24.2237 254.015 23.1303L253.674 22.7889L253.94 20.8444ZM206.149 23.7126L206.358 23.5696C207.369 22.8785 208.804 22.4822 210.294 22.4822C210.631 22.4822 210.972 22.5022 211.307 22.5414C212.961 22.7355 214.514 23.4029 215.568 24.3726C216.315 25.06 216.719 25.8266 216.649 26.4251C216.581 27.0051 216.061 27.6192 215.225 28.1096C214.232 28.6911 212.899 29.0251 211.567 29.0251C211.23 29.0251 210.889 29.0051 210.552 28.9659C208.712 28.7496 207.001 27.9466 205.977 26.8185L205.806 26.6303L206.149 23.7126ZM231.067 29L237.38 26.8251L231.298 30.1007L231.067 29Z" fill="white"/>
<path d="M212.044 16.2806C208.81 15.9006 205.764 16.5769 203.416 17.9717L203.573 16.6273L197.96 15.9673L197.129 41.5391L200.596 41.9465L201.815 31.5799C203.775 33.4814 206.581 34.8451 209.816 35.2258C216.432 36.0036 222.294 32.3932 222.91 27.1614C223.525 21.9303 218.66 17.0584 212.044 16.2806ZM220.011 26.8206C219.592 30.3843 215.08 32.9058 210.158 32.3265C207.393 32.0014 204.981 30.7547 203.471 29.0932L201.969 30.2791L203.263 19.2717L204.449 20.7739C206.302 19.5073 208.938 18.854 211.703 19.1791C216.625 19.7584 220.43 23.2577 220.011 26.8206Z" fill="white"/>
</g>
<defs>
<clipPath id="clip0_4_6421">
<rect width="284.37" height="100" fill="white"/>
</clipPath>
</defs>
</svg>
