<svg width="357" height="100" viewBox="0 0 357 100" fill="none" xmlns="http://www.w3.org/2000/svg">
<g clip-path="url(#clip0_4_6449)">
<path d="M21.2887 0.331216C11.3833 2.11185 3.41397 9.48267 0.901831 19.1727C-0.00438288 22.6716 -0.0660348 24.7215 0.036718 51.8656C0.0987012 76.7942 0.119256 77.374 0.53093 79.2993C2.81668 89.6725 10.1479 97.0643 20.5677 99.5075C21.9271 99.8181 23.6566 99.8801 34.7973 99.9421C46.3292 100.025 47.5238 100.004 47.8327 99.6938C48.1416 99.3832 48.1622 95.387 48.1622 50.085C48.1622 16.5016 48.1002 0.683143 47.956 0.393202C47.7502 0.0206121 47.4001 -5.16261e-05 35.3327 0.0206108C25.5307 0.0412732 22.586 0.103596 21.2887 0.331216ZM39.925 50.023V91.9707L31.5437 91.8674C23.8213 91.7844 22.9977 91.7431 21.4534 91.3498C14.8225 89.6312 9.90066 84.4963 8.52112 77.8086C8.06801 75.7174 8.06801 24.204 8.50057 22.1541C9.73593 16.3359 13.7516 11.5119 19.1676 9.3377C21.8856 8.24059 23.1419 8.11628 31.9557 8.09562L39.925 8.07496V50.023Z" fill="white"/>
<path d="M23.0598 20.7255C21.7625 20.9741 19.7853 21.9679 18.7352 22.8997C16.5728 24.7837 15.5022 27.4548 15.6669 30.6018C15.7491 32.2375 15.8522 32.6724 16.5111 33.9974C17.479 36.0057 18.9411 37.4757 20.9385 38.4695C22.3183 39.153 22.6684 39.2357 24.4599 39.298C26.0867 39.36 26.6634 39.298 27.755 38.9251C32.2234 37.4137 34.9211 33.045 34.1591 28.5729C33.2738 23.2516 28.2492 19.6904 23.0598 20.7255Z" fill="white"/>
<path d="M58.1911 0.144969C58.1085 0.206957 58.0469 22.651 58.0469 50.0231C58.0469 95.1801 58.0674 99.7558 58.3764 99.8801C58.9322 100.087 74.9123 100.004 76.8891 99.7975C85.2499 98.845 92.6222 93.7307 96.6375 86.1323C97.1526 85.1592 97.8321 83.5232 98.1821 82.5087C99.4795 78.6162 99.4384 79.6516 99.4384 49.8987C99.4384 26.1503 99.3969 22.6097 99.1089 21.0983C97.0701 10.3109 88.8949 2.17389 78.1453 0.310603C76.7038 0.061987 74.4797 0 67.3135 0C62.3714 0 58.2527 0.0619865 58.1911 0.144969ZM80.1842 45.24C83.3967 46.0889 86.0324 48.5527 87.1031 51.7C87.7829 53.6463 87.7623 56.5034 87.0825 58.284C85.8266 61.5554 83.3552 63.8539 80.1842 64.7027C75.0359 66.0484 69.5582 62.9221 68.055 57.7871C67.6019 56.2138 67.6225 53.5633 68.1372 51.9483C69.6818 46.8757 75.0359 43.8943 80.1842 45.24Z" fill="white"/>
<path d="M343.099 15.2798C337.961 16.9794 334.912 21.9451 335.774 27.344C336.304 30.8099 338.293 33.5427 341.342 35.109C345.486 37.1753 349.894 36.6421 353.209 33.6427C355.695 31.3765 356.755 29.0103 356.755 25.6443C356.755 22.4783 355.827 20.1121 353.739 18.0125C351.121 15.3798 346.414 14.18 343.099 15.2798ZM348.966 20.1454C350.955 21.1786 352.049 22.8449 352.214 25.1111C352.413 28.0771 351.154 30.21 348.535 31.3098C344.094 33.1761 339.055 28.877 340.315 24.2446C340.845 22.1784 341.74 21.0119 343.397 20.1788C345.187 19.3123 347.276 19.279 348.966 20.1454Z" fill="white"/>
<path d="M120.922 25.6442V35.8421L123.01 35.7421L125.065 35.6421L125.231 29.2101L125.397 22.7781L130.203 29.2768L135.009 35.8088L136.998 35.7421L138.986 35.6421V25.6442V15.6463L136.931 15.5463L134.843 15.4463V22.0116V28.6103L129.971 22.0449L125.065 15.4796H123.01H120.922V25.6442Z" fill="white"/>
<path d="M154.068 25.6441V35.8086H156.223H158.377V25.6441V15.4795H156.223H154.068V25.6441Z" fill="white"/>
<path d="M173.458 15.9127C173.358 16.146 173.325 20.6784 173.358 25.9773L173.458 35.642L175.546 35.742L177.601 35.842V29.11V22.3447L182.573 29.0767L187.545 35.8086H189.533H191.522V25.6441V15.4795H189.368H187.213L187.147 21.8782L187.047 28.2769L182.274 21.8782L177.535 15.4795H175.579C174.286 15.4795 173.557 15.6128 173.458 15.9127Z" fill="white"/>
<path d="M205.675 15.7128C205.543 15.8128 205.443 16.8126 205.443 17.879V19.8119H208.758H212.073V27.8103V35.8086H214.227H216.382V27.8103V19.8119H219.53H222.679V17.6457V15.4795H214.293C209.653 15.4795 205.775 15.5795 205.675 15.7128Z" fill="white"/>
<path d="M237.264 25.6441V35.8086H245.053H252.842V33.8091V31.8095H247.042H241.241V29.4766V27.1438H246.545H251.848V25.3108V23.4778H246.545H241.241V21.4783V19.4787L246.975 19.412L252.677 19.312L252.776 17.3791L252.875 15.4795H245.053H237.264V25.6441Z" fill="white"/>
<path d="M269.251 15.9127C269.151 16.146 269.118 20.6784 269.151 25.9773L269.251 35.642L271.339 35.742L273.394 35.842V29.0767V22.3447L278.366 29.0767L283.338 35.8086H285.326H287.315V25.6441V15.4795H285.161H283.006L282.94 21.8782L282.84 28.2769L278.067 21.8782L273.328 15.4795H271.372C270.079 15.4795 269.35 15.6128 269.251 15.9127Z" fill="white"/>
<path d="M304.219 25.611V35.8089H308.627C313.732 35.8089 316.151 35.309 318.339 33.776C324.802 29.3102 323.808 19.7455 316.549 16.3796C315.19 15.7464 314.262 15.6464 309.622 15.5464L304.219 15.4131V25.611ZM315.058 20.4454C317.842 21.7451 319.035 25.3111 317.643 28.2771C316.582 30.4767 314.428 31.4765 310.649 31.4765H308.196V25.6443V19.8122H310.947C312.903 19.8122 314.063 20.0121 315.058 20.4454Z" fill="white"/>
<path d="M294.209 44.8405C289.602 45.4404 285.492 47.6066 282.111 51.2392C274.719 59.2375 274.951 71.4017 282.674 79.1334C285.525 82.0328 288.11 83.5325 291.823 84.4657C297.922 86.032 304.087 84.7989 309.125 80.9664C311.081 79.5 313.633 76.634 313.434 76.1341C313.368 76.0008 312.009 74.7677 310.384 73.3346L307.468 70.7685L306.573 71.9349C302.297 77.5671 293.646 78.167 288.641 73.1347C287.911 72.4015 286.917 71.0351 286.42 70.0686C285.591 68.469 285.492 67.9691 285.492 64.9697C285.492 62.1036 285.591 61.4038 286.32 59.9707C288.773 54.8718 294.839 52.1057 300.109 53.6387C302.562 54.3385 304.882 55.8049 306.341 57.5712L307.468 58.9376L308.926 57.7378C309.722 57.1046 311.114 55.8716 312.009 55.0717L313.666 53.572L312.373 51.9724C308.064 46.7068 301.104 43.974 294.209 44.8405Z" fill="white"/>
<path d="M130.269 46.1401C122.38 48.2396 118.303 53.5386 120.06 59.5373C121.319 63.9697 125.496 66.136 136.6 68.1355C144.057 69.4686 146.245 70.5684 146.245 72.9346C146.245 74.5676 145.284 75.7673 143.196 76.7338C141.406 77.567 141.008 77.6336 136.5 77.6336C131.164 77.6336 129.075 77.2004 125.131 75.4007C123.905 74.8342 122.844 74.4343 122.778 74.5009C122.38 75.0008 119.231 80.8996 119.33 80.9662C119.662 81.3328 124.965 83.2658 127.153 83.8657C130.799 84.8321 138.588 85.0654 142.566 84.3322C149.991 82.9325 153.67 79.4999 154.001 73.7344C154.266 68.9687 152.941 66.5026 148.864 64.3697C145.947 62.8366 143.428 62.1035 136.997 60.8037C131.396 59.704 129.805 59.1707 128.644 58.071C127.617 57.1045 127.617 55.3715 128.678 54.3051C131.064 51.9056 139.616 51.8056 146.245 54.1384C147.339 54.505 148.333 54.705 148.466 54.5717C148.698 54.3051 151.084 48.6729 151.084 48.3396C151.084 48.0397 146.013 46.54 143.162 46.0068C139.318 45.2736 133.351 45.3402 130.269 46.1401Z" fill="white"/>
<path d="M158.51 46.3733C158.609 46.7066 160.929 55.0049 163.68 64.8029C166.432 74.6008 168.752 82.8991 168.851 83.1991C169.017 83.7323 169.547 83.799 173.624 83.799H178.232L178.596 82.5326C181.878 70.6017 185.192 59.404 185.358 59.8039C185.457 60.0705 187.015 65.536 188.805 71.9681L192.053 83.6323L196.694 83.7323L201.334 83.8323L206.605 65.2361C209.488 55.0049 211.908 46.44 212.007 46.2067C212.107 45.9067 211.179 45.8068 207.964 45.8068H203.82L203.356 47.3731C203.091 48.2729 201.5 54.2717 199.81 60.7037C198.086 67.169 196.628 72.4679 196.495 72.4679C196.396 72.4679 194.838 67.4023 193.048 61.2036C191.258 55.0382 189.501 49.0394 189.137 47.873L188.507 45.7734L185.126 45.8734L181.745 45.9734L177.867 59.304C175.746 66.6358 173.989 72.7012 173.956 72.8012C173.923 72.9012 172.431 67.5023 170.674 60.8037C168.884 54.1051 167.227 48.0063 167.028 47.2065L166.63 45.8068H162.487C158.675 45.8068 158.344 45.8401 158.51 46.3733Z" fill="white"/>
<path d="M221.354 64.8029V83.799H225.663H229.971L229.905 64.8695L229.806 45.9734L225.596 45.8734L221.354 45.7734V64.8029Z" fill="white"/>
<path d="M238.922 49.9725V54.1383H244.888H250.854V68.9685V83.7988H254.998H259.141V68.9685V54.1383L265.041 54.0716L270.908 53.9716V49.9725V45.9733L254.931 45.8733L238.922 45.8066V49.9725Z" fill="white"/>
<path d="M322.117 64.8029V83.799H326.095H330.072V76.3005V68.802H338.856H347.64V76.3005V83.799H351.617H355.595L355.528 64.8695L355.429 45.9734L351.551 45.8734L347.64 45.7734V53.3052V60.8037H338.856H330.072V53.3052V45.8068H326.095H322.117V64.8029Z" fill="white"/>
</g>
<defs>
<clipPath id="clip0_4_6449">
<rect width="356.757" height="100" fill="white"/>
</clipPath>
</defs>
</svg>
