<svg width="361" height="100" viewBox="0 0 361 100" fill="none" xmlns="http://www.w3.org/2000/svg">
<g clip-path="url(#clip0_4_6469)">
<path fill-rule="evenodd" clip-rule="evenodd" d="M255.971 8.19086C255.971 11.9447 252.558 15.3581 248.464 15.3581C244.709 15.3581 241.295 11.9447 241.295 8.19086C241.295 4.09546 244.709 0.682617 248.805 0.682617C252.9 0.682617 255.971 4.09546 255.971 8.19086Z" fill="white"/>
<path fill-rule="evenodd" clip-rule="evenodd" d="M240.613 50.1706C240.613 34.4705 244.368 21.8428 248.464 21.8428C252.9 21.8428 256.653 34.4705 256.653 50.1706C256.653 65.8686 252.9 78.4964 248.464 78.4964C244.368 78.4964 240.613 65.8686 240.613 50.1706Z" fill="white"/>
<path fill-rule="evenodd" clip-rule="evenodd" d="M37.5432 36.5195C32.0817 33.7887 28.3278 32.7641 24.2319 32.7641C20.478 32.7641 17.7478 34.8123 17.7478 37.8831C17.7478 40.6139 19.4539 41.979 24.2319 43.3442L30.717 45.0508C37.2017 46.7575 39.5904 48.8052 41.2971 51.1935C43.3453 53.5832 44.3684 56.6565 44.3684 60.0683C44.3684 70.9904 35.154 78.4962 21.5026 78.4962C15.0175 78.4962 7.85027 76.4514 0 72.3536L5.12 62.1175C9.2159 64.8478 16.7241 68.2596 22.5262 68.2596C26.6216 68.2596 29.6929 65.5294 29.6929 62.1175C29.6929 58.7017 26.9627 56.6565 21.5026 55.6324L15.358 54.6078C11.6046 53.9257 7.50874 51.536 5.46203 49.1472C3.75486 46.7575 2.38973 43.0036 2.38973 39.5908C2.38973 29.3513 10.581 22.1846 23.2088 22.1846C31.4001 22.1846 37.2017 24.9148 41.9801 27.3036L37.5432 36.5195Z" fill="white"/>
<path fill-rule="evenodd" clip-rule="evenodd" d="M61.0917 22.8652L70.3076 53.9248C71.3307 56.9941 73.0369 64.8469 73.0369 64.8469C73.0369 64.8469 74.061 59.0433 74.7436 56.313C75.0856 54.6069 76.1092 51.5351 76.7918 49.1463L84.9831 23.8893H99.3165L80.2046 77.8137C76.4508 88.0537 73.7195 92.4901 69.9656 95.2204C66.5523 97.9512 61.7743 99.3143 56.9958 99.9994L52.2189 91.123C55.2902 90.1024 59.0445 88.7352 61.0917 87.3716C62.4579 86.3475 63.822 84.9809 64.8466 82.9357C66.2112 80.8865 66.5523 79.8624 67.9179 76.7891C67.9179 76.7891 64.8466 77.1321 59.3856 61.7736L46.7578 24.5724L61.0917 22.8652Z" fill="white"/>
<path fill-rule="evenodd" clip-rule="evenodd" d="M117.065 22.8652C117.748 24.2314 118.431 25.5965 118.771 28.3268C122.526 24.5724 126.963 22.8652 131.741 22.8652C136.178 22.8652 139.933 24.2314 142.663 27.3027C143.345 27.9852 144.028 29.0093 144.71 29.6919C149.489 24.9139 153.925 22.8652 159.727 22.8652C163.823 22.8652 167.918 24.2314 170.308 26.2791C173.037 28.6678 174.061 31.7401 174.061 39.2478V76.7891H160.751V41.9781C160.751 35.4935 159.727 34.1288 156.314 34.1288C153.584 34.1288 150.172 36.176 147.099 38.5648V76.7891H133.789V42.3197C133.789 35.8345 132.765 34.1288 129.01 34.1288C126.622 34.1288 122.867 35.4935 120.137 38.2242V76.7891H106.486V39.9304C106.486 32.0806 105.803 29.0093 104.438 26.2791L117.065 22.8652Z" fill="white"/>
<path fill-rule="evenodd" clip-rule="evenodd" d="M329.351 22.5244C330.716 24.5726 331.398 26.9609 331.398 29.0095C333.447 27.6449 335.153 26.2793 337.542 25.2552C340.273 23.549 344.026 22.8655 347.099 22.8655C352.9 22.8655 358.362 25.9377 359.727 30.3742C360.749 32.4229 360.749 34.8116 360.749 38.2245V76.7893H347.099V42.3199C347.099 36.1763 346.075 34.4696 342.66 34.4696C339.589 34.4696 336.177 36.5188 332.763 39.2481V76.7893H319.111V38.565C319.111 33.788 318.429 29.3506 317.064 25.9377L329.351 22.5244Z" fill="white"/>
<path fill-rule="evenodd" clip-rule="evenodd" d="M307.849 41.2968C307.849 35.8347 307.508 34.1291 306.825 31.7403C304.778 25.9377 298.635 22.5244 289.76 22.5244C284.983 22.5244 280.547 23.549 275.426 25.9377C271.672 27.3029 269.625 28.327 266.894 30.0332L272.696 39.9306C278.157 36.1763 283.618 34.1291 288.054 34.1291C292.833 34.1291 294.197 35.8347 294.197 41.9783V44.026C292.833 44.026 292.15 44.026 291.126 44.026C274.062 44.026 265.529 49.8286 265.529 62.1168C265.529 72.6954 272.014 78.4955 283.618 78.4955C294.881 78.4955 307.849 72.0138 307.849 60.7497V41.2968ZM293.515 65.5287C291.468 67.9164 289.079 69.2835 286.348 69.2835C282.936 69.2835 280.206 65.5287 280.206 61.4313C280.206 55.2887 283.618 53.5825 293.175 53.5825H293.856L293.515 65.5287Z" fill="white"/>
<path fill-rule="evenodd" clip-rule="evenodd" d="M210.238 22.5247C205.461 22.5247 201.706 23.8899 198.976 26.6201C198.976 25.9381 199.316 23.5493 199.316 22.1842V9.55545C199.316 5.80108 198.976 3.75486 198.635 0L184.301 3.41284C185.324 6.48415 185.324 9.89699 185.324 16.3826V59.3864C185.324 67.5782 192.491 77.8142 208.191 77.8142C213.31 77.8142 217.748 77.1326 221.501 74.0593C227.986 68.9408 231.057 60.0679 231.057 49.4874C231.057 32.7637 223.207 22.5247 210.238 22.5247ZM213.993 63.1373C212.628 65.868 210.579 67.2352 207.167 67.2352C203.412 67.2352 201.365 65.529 199.316 63.8233V38.2248C201.024 36.1766 203.753 34.1294 207.167 34.1294C210.922 34.1294 213.652 36.1766 214.674 40.6135C215.358 43.0033 215.358 45.0505 215.358 49.8289C215.358 56.3136 215.015 60.0679 213.993 63.1373Z" fill="white"/>
</g>
<defs>
<clipPath id="clip0_4_6469">
<rect width="360.748" height="100" fill="white"/>
</clipPath>
</defs>
</svg>
