<svg width="1060" height="100" viewBox="0 0 1060 100" fill="none" xmlns="http://www.w3.org/2000/svg">
<g clip-path="url(#clip0_4_6478)">
<path d="M82.8122 49.2351H74.242L94.6445 13.8988C98.5801 7.04578 105.929 2.78906 113.825 2.78906H155.987L151.701 10.2119H113.825C108.572 10.2119 103.685 13.0491 101.077 17.6014L82.8122 49.2351ZM105.772 20.3035C107.422 17.4193 110.508 15.6258 113.825 15.6258H148.574L150.428 12.4166H113.827C109.363 12.4166 105.21 14.8289 102.991 18.7038L85.3615 49.2351H89.0681L105.772 20.3035ZM109.02 33.9352H138.005L143.017 25.2553L144.542 22.612L147.303 17.8325H113.827C111.299 17.8325 108.948 19.1992 107.689 21.398L91.6174 49.2331H100.188L109.02 33.9352ZM43.1605 33.9352C43.1546 33.9959 43.1507 34.0233 43.1546 34.0233C43.0861 34.2524 42.7748 34.9103 41.6822 36.743C39.3737 40.6179 37.0104 45.462 37.0104 51.9939C37.0104 64.1884 46.9316 74.1097 59.1261 74.1097H143.33L134.59 89.2491H143.16L150.025 77.3561C150.669 76.2713 151.01 75.026 151.01 73.7553C151.01 69.8569 147.84 66.6869 143.941 66.6869H59.1261C51.0239 66.6869 44.4332 60.0962 44.4332 51.9939C44.4332 47.5395 45.8821 44.1932 48.0594 40.5435C50.084 37.1444 50.5931 35.9715 50.5931 33.5827C50.5931 29.6843 47.4231 26.5143 43.5247 26.5143H18.654L22.9381 33.9371L43.1605 33.9352ZM143.939 61.271H59.1242C54.0098 61.271 49.8491 57.1083 49.8491 51.9939C49.8491 49.1685 50.6264 46.815 52.7117 43.316C54.9536 39.5547 56.0109 37.3676 56.0109 33.5808C56.0109 26.6984 50.411 21.0965 43.5266 21.0965H9.32014L8.11205 19.0053L0 22.6727L12.5528 26.6964L11.1724 24.3057H43.5227C48.637 24.3057 52.7978 28.4684 52.7978 33.5808C52.7978 36.461 52.1576 37.9706 49.9528 41.6713C47.568 45.6735 46.6379 48.5674 46.6379 51.9939C46.6379 58.8783 52.2398 64.4802 59.1222 64.4802H143.937C149.052 64.4802 153.213 68.6429 153.213 73.7553C153.213 75.4216 152.764 77.0565 151.91 78.4996L145.706 89.2471H149.41L154.681 80.1208C155.821 78.2 156.424 75.9992 156.424 73.7553C156.426 66.8709 150.824 61.271 143.939 61.271ZM67.0619 76.5181H58.4917L51.1394 89.251H59.7096L67.0619 76.5181ZM65.9655 89.2491L73.3158 76.5161H69.6113L62.2609 89.2491H65.9655ZM84.4354 76.5181H75.8652L68.5148 89.251H77.085L84.4354 76.5181ZM143.939 51.6415H59.4884C59.5334 51.0991 59.7683 50.2846 60.9823 48.2443C63.6217 43.8192 65.6385 39.9267 65.6385 33.5808C65.6385 21.3863 55.7192 11.465 43.5227 11.465H42.9412L38.0501 16.3561L33.159 11.465H9.96433L14.2504 18.8878H43.5227C51.625 18.8878 58.2137 25.4785 58.2137 33.5788C58.2137 38.0627 56.8509 40.6727 54.6031 44.4419C52.7215 47.6021 52.0538 49.5758 52.0538 51.99C52.0538 55.8884 55.2258 59.0584 59.1222 59.0584H143.937C152.04 59.0584 158.63 65.6491 158.63 73.7494C158.63 76.381 157.925 78.9636 156.59 81.2192L151.957 89.2412H160.528L162.999 84.959C164.994 81.5678 166.049 77.6929 166.049 73.7475C166.053 61.5628 156.134 51.6415 143.939 51.6415ZM45.3828 10.5252L38.0501 3.19437L30.7193 10.5252H34.1243L38.052 6.5974L41.9798 10.5252H45.3828Z" fill="white"/>
<path d="M182.375 4.87599H222.354C248.711 4.87599 258.011 25.1884 258.011 45.9669C258.011 71.2429 245.165 87.2888 217.59 87.2888H182.375V4.87599ZM206.739 66.1657H216.262C231.433 66.1657 233.65 53.3544 233.65 45.6203C233.65 40.4257 232.099 25.9971 214.49 25.9971H206.739V66.1657ZM266.315 4.87599H312.718C326.559 4.87599 338.521 12.8412 338.521 28.4211C338.521 36.962 334.755 45.9649 326.673 49.0821C333.318 51.7391 337.412 59.3538 338.299 69.6275C338.63 73.6669 338.74 83.4785 340.956 87.2868H316.593C315.373 83.1319 314.931 78.8634 314.6 74.5911C313.934 66.7433 313.268 58.5491 303.635 58.5491H290.677V87.2907H266.315V4.87599ZM290.679 40.8878H303.414C307.954 40.8878 314.155 40.0791 314.155 32.6935C314.155 27.5008 311.387 24.4992 302.084 24.4992H290.679V40.8878ZM374.73 4.87599H398.54L427.332 87.2868H402.084L398.763 75.5133H373.622L370.078 87.2868H345.605L374.73 4.87599ZM393.887 57.854L386.799 32.4624H386.578L378.938 57.854H393.887ZM488.458 78.8615C483.03 86.1316 474.616 89.2468 465.979 89.2468C442.611 89.2468 428.215 70.3187 428.215 46.8891C428.215 15.4963 449.368 2.91406 467.197 2.91406C487.351 2.91406 500.088 14.341 503.63 33.7312H480.263C479.378 27.7299 474.507 23.4595 468.748 23.4595C452.027 23.4595 452.579 41.812 452.579 47.4667C452.579 55.1969 455.569 68.7033 470.407 68.7033C476.054 68.7033 481.812 65.7017 483.03 59.5848H472.29V41.9236H504.627V87.2849H489.233L488.458 78.8615ZM556.673 2.91406C580.705 2.91406 596.761 20.918 596.761 46.0824C596.761 71.2468 580.703 89.2507 556.673 89.2507C532.642 89.2507 516.582 71.2468 516.582 46.0824C516.582 20.92 532.642 2.91406 556.673 2.91406ZM556.673 68.7033C562.874 68.7033 572.398 64.4329 572.398 46.0785C572.398 27.726 562.874 23.4556 556.673 23.4556C550.472 23.4556 540.948 27.726 540.948 46.0785C540.946 64.4329 550.472 68.7033 556.673 68.7033ZM607.166 4.87599H632.084L655.118 48.9665H655.339V4.87599H678.373V87.2868H654.673L630.421 42.274H630.2V87.2868H607.166V4.87599Z" fill="white"/>
<path d="M792.696 22.408V89.2487H768.258V22.408H743.186V1.35156H817.77V22.408H792.696Z" fill="white"/>
<path d="M859.981 89.2497L854.8 71.9272H830.245L824.743 89.2497H801.898L830.196 1.35059H859.944L888.691 89.2497H859.981ZM835.03 52.7386H849.86L842.443 27.2414L835.03 52.7386Z" fill="white"/>
<path d="M967.051 89.2487H944.156L919.054 50.4115C915.831 45.4304 912.583 39.3821 909.307 32.2608C910.784 37.9272 911.524 42.7361 911.524 46.6854V89.2507H888.693V1.35156H915.285L936.639 33.5472C940.894 39.944 944.115 45.5694 946.308 50.4194C944.873 42.9084 944.158 35.2232 944.158 27.3657V1.35156H967.053V89.2487H967.051Z" fill="white"/>
<path d="M1016.39 90.6012C1003.69 90.6012 993.327 86.5031 985.321 78.3029C977.313 70.1027 973.309 59.1359 973.309 45.3965C973.309 32.2602 977.135 21.4109 984.79 12.8465C992.446 4.28217 1003.07 0 1016.66 0C1029.24 0 1039.48 4.03546 1047.4 12.1064C1055.32 20.1773 1059.29 30.9523 1059.29 44.4312C1059.29 58.384 1055.29 69.5682 1047.3 77.9798C1039.32 86.3954 1029.02 90.6012 1016.39 90.6012ZM1016.26 70.6392C1020.94 70.6392 1024.31 68.6538 1026.36 64.683C1028.41 60.7141 1029.44 53.4479 1029.44 42.8864C1029.44 27.6041 1025.22 19.9619 1016.79 19.9619C1007.7 19.9619 1003.16 28.6771 1003.16 46.1053C1003.16 62.4606 1007.53 70.6392 1016.26 70.6392Z" fill="white"/>
<path d="M719.594 99.9998H741.533C742.534 99.9998 743.438 99.4007 743.83 98.4804L761.086 57.8281" stroke="white" stroke-width="1.1116" stroke-miterlimit="10"/>
<path d="M752.516 57.8281L741.224 87.2864L739.184 57.8281" stroke="white" stroke-width="1.1116" stroke-miterlimit="10"/>
<path d="M719.594 93.1996H734.966L731.867 57.8281" stroke="white" stroke-width="1.1116" stroke-miterlimit="10"/>
<path d="M715.445 61.2287H706.239C704.831 61.2287 703.678 60.0774 703.678 58.6676V55.4898C703.678 54.082 704.829 52.9287 706.239 52.9287H715.445C717.726 52.9287 719.594 54.7967 719.594 57.0777C719.594 59.3627 717.728 61.2287 715.445 61.2287Z" stroke="white" stroke-width="1.1116" stroke-miterlimit="10"/>
<path d="M714.577 79.3405H703.437C701.734 79.3405 700.34 77.9464 700.34 76.2429V72.3993C700.34 70.6959 701.734 69.3018 703.437 69.3018H714.577C717.337 69.3018 719.597 71.5613 719.597 74.3221C719.595 77.0809 717.337 79.3405 714.577 79.3405Z" stroke="white" stroke-width="1.1116" stroke-miterlimit="10"/>
<path d="M689.965 87.0315L696.732 44.9812C696.797 44.5857 697.138 44.2939 697.539 44.2939H714.934C722.012 44.2939 728.137 49.8253 728.235 56.9036C728.28 60.2146 727.06 63.2436 725.03 65.5403C727.109 68.0094 728.331 71.2225 728.231 74.7176C728.017 82.1933 721.529 87.9792 714.049 87.9792H703.439C703.341 87.9792 693.846 87.9792 690.766 87.9792C690.263 87.9772 689.887 87.5269 689.965 87.0315Z" stroke="white" stroke-width="1.1116" stroke-miterlimit="10"/>
</g>
<defs>
<clipPath id="clip0_4_6478">
<rect width="1059.28" height="100" fill="white"/>
</clipPath>
</defs>
</svg>
