<svg width="464" height="100" viewBox="0 0 464 100" fill="none" xmlns="http://www.w3.org/2000/svg">
<g clip-path="url(#clip0_4_6504)">
<path d="M0 0H22.9404V6.78421H16.2263V98.8825H8.11228V6.78421H0V0Z" fill="white"/>
<path d="M43.7228 92.1427H52.6772V27.6182H60.5087V92.1427C60.5087 96.3199 56.7351 99.2761 52.8631 99.2761H43.7228C39.6315 99.2761 35.9824 95.9322 35.9824 92.0585V27.6182H43.7228V92.1427Z" fill="white"/>
<path d="M212.146 43.3776H224.105V99.3425H207.249C203.646 99.3425 199.207 96.5671 199.207 92.3618V7.76535C199.207 4.21097 202.912 0.426758 207.074 0.426758H216.272C220.353 0.426758 224.053 4.17764 224.053 7.68465V27.725H215.991V7.9636H206.83V92.425H216.202V50.2268H212.146V43.3776Z" fill="white"/>
<path d="M327.809 64.9956V98.9166H320.258V33.9517C320.258 31.0166 323.161 27.8184 326.832 27.8184H339.282V34.0798H327.809V58.0833H337.256V65.0271L327.809 64.9956Z" fill="white"/>
<path d="M354.598 27.8359H362.524V53.7114L367.001 58.2342L371.382 53.8377V27.8359H379.215V52.4552C379.215 55.4605 371.478 63.3815 371.478 63.3815C371.478 63.3815 379.31 71.2973 379.31 74.5044V99.0605H371.942V73.4938L367.187 68.6605L362.429 73.4307V99.0605H354.598V74.5623C354.598 71.55 362.892 63.3184 362.892 63.3184C362.892 63.3184 354.598 55.4886 354.598 52.3324V27.8359Z" fill="white"/>
<path d="M94.4538 65.156C97.11 65.156 100.643 61.9631 100.643 57.6894V34.3385C100.643 30.9806 96.831 27.8525 92.4942 27.8525H76.4082V99.2017H83.824V65.6789H86.6222L94.8731 99.0753H102.147L94.4538 65.156ZM92.9854 58.1771H84.1012V34.7648H92.9854V58.1771Z" fill="white"/>
<path d="M258.531 64.9695C261.19 64.9695 264.726 61.7713 264.726 57.4993V34.1502C264.726 30.7906 260.91 27.6572 256.576 27.6572H240.492V99.0151H247.899V65.4888H250.699L258.955 98.8818H266.227L258.531 64.9695ZM256.957 57.9116H248.08V34.4993H256.957V57.9116Z" fill="white"/>
<path d="M140.28 66.8375C140.249 63.6392 136.928 61.6182 136.928 61.6182C136.928 61.6182 140.28 59.4357 140.28 56.4006V34.6182C140.28 30.5077 136.68 27.834 133.01 27.834H116.084V99.0603H133.01C136.437 99.0603 140.28 96.9094 140.28 92.2778C140.28 92.2778 140.321 70.0305 140.28 66.8375ZM132.659 92.0814H123.779V65.534H132.659V92.0814ZM132.659 58.1621H123.779V34.7498H132.659V58.1621Z" fill="white"/>
<path d="M172.701 27.3076H168.223H163.887C159.444 27.3076 156.213 31.1234 156.213 34.0252V91.8725C156.213 95.6111 160.355 99.0024 163.851 99.0024H173.434C177.178 99.0024 180.916 95.1199 180.916 92.0217V33.8304C180.916 31.2234 177.385 27.3076 172.701 27.3076ZM172.978 91.6497H164.399V34.3532H172.978V91.6497Z" fill="white"/>
<path d="M297.122 27.8184H287.336C282.926 27.8184 280.34 31.4692 280.34 34.3394V98.9166H287.752V64.9956H297.122V98.9166H304.538V34.7306C304.535 30.471 301.603 27.8184 297.122 27.8184ZM296.91 57.9534H288.033V34.9938H296.91V57.9534Z" fill="white"/>
<path d="M426.755 26.8418C406.648 26.8418 390.352 43.219 390.352 63.419C390.352 83.6225 406.652 99.9997 426.755 99.9997C446.86 99.9997 463.159 83.6225 463.159 63.419C463.159 43.219 446.86 26.8418 426.755 26.8418ZM424.934 54.2769H421.294V52.4471L419.474 50.619H404.911V78.0506H419.474L421.294 76.2225V74.3944H424.934V78.0506L421.294 81.7102H403.092L401.273 79.8804V48.7892L403.092 46.9611H421.294L424.934 50.619V54.2769ZM452.236 78.0506L448.597 81.7102H428.574V78.0506H430.397V50.619H428.574V46.9593H448.597L452.236 50.619V78.0506ZM434.038 78.0506H448.597V50.619H434.038V78.0506Z" fill="white"/>
</g>
<defs>
<clipPath id="clip0_4_6504">
<rect width="463.158" height="100" fill="white"/>
</clipPath>
</defs>
</svg>
