<svg width="329" height="100" viewBox="0 0 329 100" fill="none" xmlns="http://www.w3.org/2000/svg">
<g clip-path="url(#clip0_4_6516)">
<path d="M16.8027 68.541H20.1754V79.1385H20.2439C21.8276 76.5533 24.5155 75.4576 27.58 75.4576C32.4336 75.4576 35.9433 78.1798 35.9433 83.5813V93.3912H32.5706V83.7525C32.5706 79.9004 30.2679 77.7946 27.0236 77.7946C23.8221 77.7946 20.1754 79.7548 20.1754 85.2334V93.3912H16.8027V68.541Z" fill="white"/>
<path d="M51.8401 94.0419C44.8121 94.0419 41.0371 90.6692 41.0371 84.7456C41.0371 79.1301 44.6153 75.4492 51.8401 75.4492C58.868 75.4492 62.643 78.8219 62.643 84.7456C62.643 90.6692 58.868 94.0419 51.8401 94.0419ZM44.6067 84.7541C44.6067 88.6833 47.1234 91.7136 51.8401 91.7136C56.5567 91.7136 59.0734 88.6833 59.0734 84.7541C59.0734 80.825 56.5567 77.7947 51.8401 77.7947C47.1234 77.7947 44.6067 80.825 44.6067 84.7541Z" fill="white"/>
<path d="M67.7366 80.0377C67.7366 78.728 67.6681 77.4868 67.5996 76.1086H70.7669C70.8354 76.9732 70.9038 77.9661 70.9038 79.1731H70.9723C72.9326 76.5195 75.4151 75.458 78.2399 75.458C81.1332 75.458 83.5387 76.8704 84.5402 79.798C85.7814 77.4183 88.4693 75.458 91.6708 75.458C96.5929 75.458 99.6232 77.872 99.6232 83.4789V93.3916H96.2505V84.7458C96.2505 80.5428 95.0435 77.7864 91.3627 77.7864C88.4008 77.7864 85.3705 79.8151 85.3705 85.4991V93.383H81.9978V84.5404C81.9978 79.8922 80.4142 77.7949 77.3154 77.7949C74.3536 77.7949 71.1178 79.9264 71.1178 85.0283V93.3916H67.7451L67.7366 80.0377Z" fill="white"/>
<path d="M124.019 85.6446H107.84C108.183 89.1885 110.46 91.7052 114.243 91.7052C116.691 91.7052 119.268 90.6694 120.03 88.1956H123.608C122.923 92.8095 118.241 94.0507 114.414 94.0507C108.08 94.0507 104.459 90.5753 104.459 85.0968C104.459 78.7965 108.243 75.458 114.517 75.458C120.646 75.458 124.019 78.7622 124.019 84.6174V85.6446ZM120.432 83.3077C120.364 79.3101 117.402 77.7949 114.44 77.7949C110.965 77.7949 108.482 79.4813 107.969 83.3077H120.432Z" fill="white"/>
<path d="M159.433 87.8189C159.091 92.1932 154.614 94.0507 150.206 94.0507C143.768 94.0507 140.361 90.3698 140.361 84.7886C140.361 78.9677 144.29 75.458 150.522 75.458C154.691 75.458 158.714 77.1101 159.305 81.6213H155.727C155.419 79.1046 153.381 77.8035 150.557 77.8035C146.91 77.8035 143.948 80.1832 143.948 84.7972C143.948 88.478 146.114 91.7223 150.385 91.7223C153.553 91.7223 155.684 90.2414 155.864 87.8275L159.433 87.8189Z" fill="white"/>
<path d="M174.088 94.0419C167.06 94.0419 163.285 90.6692 163.285 84.7456C163.285 79.1301 166.863 75.4492 174.088 75.4492C181.116 75.4492 184.891 78.8219 184.891 84.7456C184.891 90.6692 181.116 94.0419 174.088 94.0419ZM166.863 84.7541C166.863 88.6833 169.38 91.7136 174.097 91.7136C178.813 91.7136 181.33 88.6833 181.33 84.7541C181.33 80.825 178.813 77.7947 174.097 77.7947C169.38 77.7947 166.863 80.825 166.863 84.7541Z" fill="white"/>
<path d="M189.992 80.0377C189.992 78.728 189.924 77.4868 189.855 76.1086H193.023C193.091 76.9732 193.16 77.9661 193.16 79.1731H193.228C195.188 76.5195 197.671 75.458 200.496 75.458C203.389 75.458 205.795 76.8704 206.796 79.798C208.037 77.4183 210.725 75.458 213.927 75.458C218.849 75.458 221.879 77.872 221.879 83.4789V93.3916H218.506V84.7458C218.506 80.5428 217.299 77.7864 213.619 77.7864C210.657 77.7864 207.626 79.8151 207.626 85.4991V93.383H204.245V84.5404C204.245 79.8922 202.662 77.7949 199.563 77.7949C196.601 77.7949 193.365 79.9264 193.365 85.0283V93.3916H189.992V80.0377Z" fill="white"/>
<path d="M227.992 80.0377C227.992 78.728 227.924 77.4868 227.855 76.1086H231.228C231.297 76.7592 231.365 77.5553 231.365 78.5568C233.12 76.5623 235.876 75.458 238.941 75.458C244.103 75.458 248.58 79.1389 248.58 84.7544C248.58 90.3698 244.103 94.0507 238.941 94.0507C236.185 94.0507 233.497 93.4001 231.365 91.1231V100.009H227.992V80.0377ZM238.17 91.6967C242.202 91.6967 244.984 89.1115 244.984 84.7372C244.984 80.363 242.194 77.7778 238.17 77.7778C234.173 77.7778 231.357 80.363 231.357 84.7372C231.365 89.1201 234.181 91.6967 238.17 91.6967Z" fill="white"/>
<path d="M272.803 89.4708C272.803 90.7805 272.872 92.0218 272.94 93.4H269.773C269.705 92.5354 269.636 91.5424 269.636 90.3354H269.568C267.607 92.9891 265.125 94.0505 262.026 94.0505C257.173 94.0505 253.654 91.3284 253.654 85.9269V76.1084H257.027V85.7472C257.027 89.5992 259.33 91.705 262.574 91.705C265.776 91.705 269.431 89.7448 269.431 84.2663V76.1084H272.803V89.4708Z" fill="white"/>
<path d="M281.466 72.9417L284.839 71.5293V76.109H289.932V78.4545H284.839V88.4014C284.839 90.259 285.353 91.2605 287.458 91.2605C288.075 91.2605 289.076 91.192 290.044 91.0551V93.4006C288.939 93.5375 287.844 93.606 286.808 93.606C283.401 93.606 281.466 92.5017 281.466 88.6497V78.4545H276.955V76.109H281.466V72.9417Z" fill="white"/>
<path d="M312.49 85.6446H296.311C296.653 89.1885 298.93 91.7052 302.714 91.7052C305.162 91.7052 307.739 90.6694 308.501 88.1956H312.079C311.394 92.8095 306.712 94.0507 302.885 94.0507C296.551 94.0507 292.93 90.5753 292.93 85.0968C292.93 78.7965 296.713 75.458 302.988 75.458C309.117 75.458 312.49 78.7622 312.49 84.6174V85.6446ZM308.903 83.3077C308.835 79.3101 305.873 77.7949 302.911 77.7949C299.435 77.7949 296.953 79.4813 296.439 83.3077H308.903Z" fill="white"/>
<path d="M317.342 80.0379C317.342 78.7282 317.274 77.487 317.205 76.1088H320.372C320.441 77.1446 320.509 78.3858 320.509 79.55H320.578C322.127 76.7594 323.642 75.8691 327.494 75.8691H328.633V78.8994C328.119 78.7282 327.631 78.694 327.015 78.694C322.949 78.694 320.715 81.5531 320.715 85.0285V93.3918H317.342V80.0379Z" fill="white"/>
<path d="M70.8446 0.522461H53.8184V59.4679H70.8446V0.522461Z" fill="white"/>
<path d="M50.6249 0.522461H0V16.1876H16.8036V59.4679H33.8298V16.1876H50.6249V0.522461Z" fill="white"/>
<path d="M170.895 0C157.627 0 146.875 7.40455 146.875 20.8184C146.875 35.6703 157.832 41.0118 168.233 41.0118C171.477 41.0118 176.099 39.2998 179.138 36.9457C180.611 51.2498 164.492 52.0459 162.951 43.5884H148.099C150.573 56.9081 162.215 60.5889 171.314 60.5633C183.384 60.529 194.906 50.9159 194.906 27.6066C194.906 8.26057 184.163 0 170.895 0ZM170.321 29.3871C165.322 29.3871 161.265 25.3381 161.265 20.3304C161.265 15.3227 165.314 11.2738 170.321 11.2738C175.329 11.2738 179.378 15.3313 179.378 20.3304C179.378 25.3381 175.32 29.3871 170.321 29.3871Z" fill="white"/>
<path d="M118.455 0C105.187 0 94.4355 7.40455 94.4355 20.8184C94.4355 35.6703 105.393 41.0118 115.793 41.0118C119.037 41.0118 123.66 39.2998 126.699 36.9457C128.171 51.2498 112.052 52.0459 110.512 43.5884H95.6511C98.125 56.9081 109.767 60.5889 118.866 60.5633C130.936 60.529 142.458 50.9159 142.458 27.6066C142.458 8.26057 131.715 0 118.455 0ZM117.873 29.3871C112.874 29.3871 108.817 25.3381 108.817 20.3304C108.817 15.3227 112.866 11.2738 117.873 11.2738C122.881 11.2738 126.93 15.3313 126.93 20.3304C126.939 25.3381 122.881 29.3871 117.873 29.3871Z" fill="white"/>
<path d="M89.4113 22.5645H75.8691V33.7184H89.4113V22.5645Z" fill="white"/>
<path d="M261.189 60.5547H244.12C243.255 60.5547 242.562 59.8528 242.562 58.9968V47.4747H218.747C217.883 47.4747 217.189 46.7728 217.189 45.9168V33.0166C217.189 32.64 217.326 32.2804 217.575 31.9979L244.882 0.539291C245.181 0.196884 245.609 0 246.063 0H261.197C262.062 0 262.755 0.701935 262.755 1.55795V32.1863H267.044C267.909 32.1863 268.602 32.8882 268.602 33.7442V45.9082C268.602 46.7728 267.9 47.4662 267.044 47.4662H262.755V58.9882C262.747 59.8528 262.045 60.5547 261.189 60.5547ZM245.669 57.4388H259.622V45.9168C259.622 45.0522 260.324 44.3588 261.18 44.3588H265.469V35.3107H261.18C260.316 35.3107 259.622 34.6088 259.622 33.7528V3.11591H246.756L220.297 33.5987V44.3503H244.111C244.976 44.3503 245.669 45.0522 245.669 45.9082V57.4388Z" fill="white"/>
<path d="M244.11 35.3104H228.043C227.435 35.3104 226.878 34.9509 226.622 34.3945C226.365 33.8381 226.459 33.1875 226.861 32.7252L242.937 14.2181C243.365 13.7302 244.05 13.5504 244.658 13.7816C245.266 14.0127 245.668 14.5948 245.668 15.2454V33.7525C245.668 34.6085 244.975 35.3104 244.11 35.3104ZM231.467 32.1945H242.552V19.4227L231.467 32.1945Z" fill="white"/>
<path d="M327.067 60.5547H315.245C314.577 60.5547 313.987 60.1267 313.773 59.5018L309.647 47.4747H291.276L287.159 59.5018C286.945 60.1353 286.354 60.5547 285.687 60.5547H273.839C273.334 60.5547 272.863 60.315 272.572 59.9041C272.281 59.4932 272.204 58.9711 272.367 58.4917L292.055 1.0529C292.269 0.419449 292.86 0 293.528 0H307.387C308.054 0 308.645 0.428009 308.859 1.0529L328.539 58.4917C328.702 58.9711 328.625 59.4932 328.333 59.9041C328.042 60.315 327.572 60.5547 327.067 60.5547ZM316.358 57.4388H324.884L306.274 3.11591H294.641L276.022 57.4388H284.557L288.674 45.4117C288.888 44.7783 289.479 44.3588 290.146 44.3588H310.751C311.419 44.3588 312.009 44.7869 312.223 45.4117L316.358 57.4388ZM307.464 37.8788H293.442C292.937 37.8788 292.466 37.6391 292.175 37.2282C291.884 36.8173 291.807 36.2952 291.97 35.8158L298.989 15.3484C299.203 14.7149 299.802 14.2955 300.462 14.2955C301.129 14.2955 301.72 14.7235 301.934 15.3484L308.945 35.8158C309.107 36.2952 309.03 36.8173 308.739 37.2282C308.44 37.6391 307.969 37.8788 307.464 37.8788ZM295.625 34.7629H305.281L300.453 20.6728L295.625 34.7629Z" fill="white"/>
<path d="M218.576 3.11621L191.791 60.555H196.242L223.019 3.11621H218.576Z" fill="white"/>
</g>
<defs>
<clipPath id="clip0_4_6516">
<rect width="328.625" height="100" fill="white"/>
</clipPath>
</defs>
</svg>
