<svg width="677" height="100" viewBox="0 0 677 100" fill="none" xmlns="http://www.w3.org/2000/svg">
<g clip-path="url(#clip0_4_6538)">
<path d="M19.9103 100.178V20.1777H59.7282V100.178H19.9103ZM0 20.1777V0.177734H79.6385V20.1777H0Z" fill="white"/>
<path d="M119.457 100.178V80.1803H199.096V100.175L119.457 100.178ZM139.367 80.1829V20.1777H179.185V80.1803L139.367 80.1829ZM119.457 20.1777V0.177734H199.096V20.1777H119.457Z" fill="white"/>
<path d="M238.914 100.178V80.1803H298.642V100.175L238.914 100.178ZM298.642 80.1803V60.1777H318.547V80.1803H298.642ZM219.004 80.1803V20.1777H258.824V80.1803H219.004ZM298.642 40.1777V20.1777H318.547V40.1752L298.642 40.1777ZM238.914 20.1777V0.177734H298.642V20.1777H238.914Z" fill="white"/>
<path d="M358.367 40.1768H418.095V60.1768H358.367V40.1768Z" fill="white"/>
<path d="M477.83 100.178V80.1803H537.558V100.175L477.83 100.178ZM537.558 80.1803V60.1777H557.465V80.1803H537.558ZM457.922 80.1803V60.1777H497.74V80.1803H457.922ZM477.83 60.1777V40.1777H537.558V60.1777H477.83ZM537.558 40.1777V20.1777H557.465V40.1752L537.558 40.1777ZM457.922 40.1777V20.1777H497.74V40.1752L457.922 40.1777ZM477.83 20.1777V0.177734H537.558V20.1777H477.83Z" fill="white"/>
<path d="M597.283 100.178V80.1803H657.011V100.175L597.283 100.178ZM657.011 80.1803V40.1777H637.103V20.1777H676.921V80.1803H657.011ZM577.375 80.1803V20.1777H617.193V80.1803H577.375ZM617.193 60.1777V40.1777H637.103V60.1777H617.193ZM597.283 20.1777V0.177734H657.011V20.1777H597.283Z" fill="white"/>
</g>
<defs>
<clipPath id="clip0_4_6538">
<rect width="676.923" height="100" fill="white"/>
</clipPath>
</defs>
</svg>
