<svg width="976" height="100" viewBox="0 0 976 100" fill="none" xmlns="http://www.w3.org/2000/svg">
<g clip-path="url(#clip0_4_6545)">
<path d="M406.802 57.4808C396.946 38.5082 387.46 20.398 378.22 2.65735H336.579V96.2884H363.067V39.001C363.559 38.7546 364.052 38.6314 364.545 38.385C374.401 57.7272 384.257 77.0694 394.236 96.4116H419.245C428.855 76.823 438.464 57.604 447.951 38.2618C448.443 38.385 448.936 38.5082 449.429 38.7546V96.2884H475.547V2.53414H434.275C425.282 20.6444 416.165 38.6314 406.802 57.4808ZM794.139 64.5031C793.646 64.6263 793.153 64.8727 792.66 64.9959C777.753 44.0521 762.723 23.1083 748.309 2.90374H704.327V96.2884H730.938V34.689C731.308 34.5658 731.677 34.5658 732.047 34.4426C746.584 55.2632 760.998 75.9606 775.289 96.4116H819.148V2.78054H793.892C794.139 23.4779 794.139 44.0521 794.139 64.5031ZM186.153 31.7322H135.519V1.79495H103.487V97.5204H135.888V64.1335H186.276V97.5204H217.446V1.79495H186.153V31.7322ZM677.223 4.13573C654.801 1.42536 632.379 1.42536 609.957 4.13573C598.13 5.61411 590.984 12.5132 588.767 24.4635C585.563 41.3417 585.44 58.22 588.52 74.975C591.354 89.882 597.76 95.3028 613.16 96.7812C623.016 97.7668 632.995 97.8899 643.836 98.3827C654.062 97.8899 665.027 97.6435 675.991 96.5348C689.297 95.1796 695.826 89.266 698.783 76.3302C702.602 59.5751 701.986 42.6969 699.276 25.8187C697.428 13.2524 689.913 5.61411 677.223 4.13573ZM673.035 61.4231C672.788 68.4455 670.201 72.0182 663.302 72.2646C649.873 72.7574 636.321 72.3878 622.893 72.1414C617.718 72.0182 614.638 68.6919 614.392 63.6407C614.022 54.524 613.776 45.5305 614.392 36.4138C614.885 29.6379 618.211 26.9275 625.357 26.5579C631.517 26.1883 637.553 26.4347 643.713 26.4347C649.627 26.4347 655.54 26.1883 661.454 26.4347C669.585 26.8043 672.788 30.1307 673.035 38.385C673.281 46.2697 673.281 53.908 673.035 61.4231ZM312.432 4.62852C289.271 1.30216 265.986 1.30216 242.825 4.38213C231.367 5.86051 224.838 12.8828 222.62 24.0939C219.294 40.7258 219.171 57.3576 222.127 73.9894C224.838 89.7588 231.121 95.3028 247.137 96.9044C256.993 97.89 266.972 98.0131 277.936 98.5059C287.915 97.8899 299.003 97.7667 309.845 96.658C321.302 95.5492 329.064 89.3892 331.405 77.5622C334.977 59.3287 334.977 40.9721 331.281 22.7387C329.064 12.5132 322.781 6.10691 312.432 4.62852ZM306.518 62.9015C306.272 68.0759 303.438 72.0182 297.894 72.1414C284.219 72.3878 270.421 72.3878 256.746 72.1414C251.325 72.0182 248.122 68.5687 247.876 63.1479C247.629 54.2776 247.383 45.4073 247.999 36.537C248.369 30.3771 251.325 28.0363 257.609 27.7899C264.384 27.5435 271.16 27.6667 277.936 27.6667C284.343 27.6667 290.626 27.4203 297.032 27.6667C303.069 27.9131 306.149 30.6235 306.518 36.6602C306.888 45.5305 306.765 54.2776 306.518 62.9015ZM565.113 39.2474C555.626 38.385 546.14 38.2618 536.53 37.8922C529.754 37.6458 522.979 37.8922 516.203 37.769C511.767 37.6458 508.318 35.7978 507.948 30.7466C507.579 25.5723 510.905 23.9707 515.094 23.7243C524.211 23.2315 533.327 22.9851 542.321 22.8619C548.727 22.7387 554.764 23.7243 555.626 31.7322C564.127 32.225 572.012 32.5946 580.759 33.0874C580.389 28.1595 580.512 23.9707 579.773 19.9052C578.048 9.80287 573.736 4.99812 563.634 4.01253C541.828 1.67175 520.022 1.42536 498.339 5.12132C490.577 6.47651 484.048 10.5421 482.569 18.7964C481.214 26.1883 480.845 33.9498 481.584 41.4649C482.569 51.5672 487.128 55.756 497.353 57.7272C501.296 58.4664 505.361 58.836 509.303 58.9592C522.239 59.3288 535.175 59.452 548.111 59.9447C555.257 60.1911 558.706 63.0247 558.46 67.7063C558.337 72.0182 555.133 74.1126 548.111 74.7286C547.002 74.8518 546.017 74.8518 544.908 74.8518H521.377C514.355 74.8518 507.579 74.359 505.977 65.7351H481.214C481.214 69.0614 480.968 71.7718 481.214 74.4822C482.816 89.3892 487.128 94.3172 502.035 95.9188C511.891 96.9044 521.87 96.9044 531.849 96.9044C543.06 96.7812 554.271 96.658 565.482 95.5492C576.324 94.4404 581.375 89.3892 582.976 78.6709C583.962 72.2646 584.331 65.6119 583.962 59.0824C583.223 45.9001 577.802 40.3561 565.113 39.2474ZM975.857 44.0521V20.8908C957.5 13.9916 939.513 7.2157 921.403 0.686164C919.555 0.0701704 917.091 -0.299425 915.366 0.316569C897.379 6.9693 879.516 13.8684 861.775 20.6444V43.9289C865.594 42.5737 868.797 41.4649 872.37 40.233V59.2056C868.551 57.9736 865.225 56.988 861.529 55.756V78.7941C877.421 85.0773 893.314 91.2372 909.083 98.0132C915.366 100.724 920.664 100.6 926.947 98.0132C943.086 91.2372 959.472 85.0773 975.734 78.6709V55.6328C971.915 56.8648 968.465 57.9736 964.769 59.2056V40.233C968.588 41.4649 972.161 42.6969 975.857 44.0521ZM913.272 94.9332C897.01 88.7732 881.364 82.8597 865.594 76.823V61.5463C881.733 67.7063 897.379 73.6198 913.272 79.5333V94.9332ZM938.528 69.6774C931.752 72.3878 924.976 75.0982 917.954 77.8086C911.547 75.0982 905.141 72.511 898.611 69.8006V30.6235C905.018 27.9131 911.424 25.3259 917.954 22.6155C924.853 25.3259 931.629 28.0363 938.528 30.7466V69.6774ZM924.853 20.8908V5.61411C941.115 11.774 956.761 17.8108 972.531 23.7243V39.1242C956.392 32.9642 940.745 26.9275 924.853 20.8908ZM0.123199 29.6379H35.2348V97.3972H66.8969V29.1451H100.161V1.67175H0C0.123199 11.0349 0.123199 19.9052 0.123199 29.6379Z" fill="white"/>
</g>
<defs>
<clipPath id="clip0_4_6545">
<rect width="975.86" height="100" fill="white"/>
</clipPath>
</defs>
</svg>
