<svg width="429" height="100" viewBox="0 0 429 100" fill="none" xmlns="http://www.w3.org/2000/svg">
<g clip-path="url(#clip0_4_7883)">
<path d="M73.121 67.4662V58.7094L65.1609 55.7927C64.4675 53.116 63.5442 50.5993 62.1675 48.2726L62.2475 48.2626L66.0309 40.3892L59.8508 34.1991L51.9707 37.9492L51.9607 37.9592C49.6373 36.5858 47.114 35.7158 44.4373 35.0225L41.5172 26.999H32.7438L29.8237 35.0225C27.1404 35.7158 24.617 36.6825 22.2936 38.0558L22.277 37.9925L14.3902 34.2191L8.19011 40.3992L11.9468 48.2693L11.9568 48.2793C10.5801 50.5993 9.21679 53.1227 8.52678 55.7994L0 58.7094V67.4662L8.52678 70.3829C9.21679 73.0563 10.4368 75.583 11.8102 77.8997L11.8702 77.9097L8.15677 85.7865L14.3735 91.9766L22.2736 88.2298L22.2903 88.2232C24.6103 89.5899 27.1404 90.8732 29.8171 91.5632L32.7438 100H41.5172L44.4373 91.5632C47.1173 90.8732 49.644 89.6999 51.964 88.3265L51.9807 88.2865L59.8708 92.0032L66.0675 85.7998L62.3108 77.9164L62.3042 77.9064C63.6775 75.583 64.4675 73.0563 65.1609 70.3829L73.121 67.4662ZM37.1272 77.6797C29.0571 77.6797 22.5103 71.1463 22.5103 63.0895C22.5103 55.0327 29.0571 48.496 37.1272 48.496C45.2073 48.496 51.7474 55.0327 51.7474 63.0895C51.7474 71.1463 45.2073 77.6797 37.1272 77.6797Z" fill="white"/>
<path d="M101.153 14.5669L99.2362 9.9468L94.2728 10.1935C93.3194 8.93012 92.2194 7.8301 90.9861 6.90676L90.9894 6.89676L91.2527 1.92003L86.6227 0L83.2793 3.70338V3.71005C81.7493 3.49671 80.1793 3.48005 78.6192 3.70338L75.2725 0L70.6425 1.91336L70.9025 6.89009C69.6425 7.8401 68.5425 8.95345 67.6124 10.1868L67.6091 10.1835L62.619 9.9268L60.709 14.5469L64.4091 17.8802L64.4191 17.8869C64.2424 19.3169 64.1691 20.9903 64.3891 22.5503L60.6523 25.9003L62.5724 30.5237L67.5824 30.2504C68.5324 31.5137 69.6625 32.6071 70.8958 33.5304V33.5404L70.6425 38.5172L75.7192 40.4305L79.5059 36.7271V36.7205C80.4859 36.9005 82.1593 36.9438 83.7226 36.7271L86.846 40.4305L91.3627 38.5172L91.0494 33.5404C92.3128 32.5938 93.3894 31.4737 94.3128 30.2437L94.3095 30.2471L99.2862 30.5037L101.203 25.877L97.4928 22.547L97.4795 22.5403C97.6995 21.0136 97.6862 19.4569 97.4695 17.8969L101.153 14.5669ZM84.1426 27.9204C79.8826 29.6771 75.0025 27.6604 73.2358 23.4036C71.4658 19.1503 73.4925 14.2769 77.7526 12.5135C82.0159 10.7501 86.8994 12.7702 88.666 17.0236C90.4294 21.2836 88.4027 26.157 84.1426 27.9204Z" fill="white"/>
<path d="M185.433 15.9224L182.251 33.3714H167.116L158.235 84.0784H137.4L146.282 33.3714H131.26L134.441 15.9224H185.433ZM209.449 38.714L204.405 67.0667H213.064C215.917 67.0667 218.038 66.7278 219.427 66.05C220.815 65.3466 221.73 63.7577 222.167 61.2869L227.211 32.9341H218.439C215.658 32.9341 213.578 33.273 212.189 33.9545C210.801 34.6542 209.886 36.2431 209.449 38.714ZM222.058 14.2861C231.344 14.2861 237.958 16.0937 241.905 19.7016C245.852 23.2912 247.827 28.8269 247.827 36.316C247.827 43.8014 246.631 51.644 244.244 59.8328C241.879 67.9997 238.115 74.3481 232.951 78.878C227.809 83.4334 220.276 85.7147 210.36 85.7147C200.465 85.7147 193.545 83.9217 189.598 80.3357C185.651 76.7278 183.676 71.1739 183.676 63.6848C183.676 60.1243 184.19 55.4232 185.21 49.5813C186.234 43.7176 187.59 38.6666 189.27 34.4246C190.95 30.1608 193.217 26.4654 196.067 23.3386C201.551 17.3036 210.214 14.2861 222.058 14.2861ZM278.534 38.714L273.486 67.0667H282.149C285.002 67.0667 287.123 66.7278 288.512 66.05C289.9 65.3466 290.812 63.7577 291.252 61.2869L296.296 32.9341H287.524C284.744 32.9341 282.663 33.273 281.271 33.9545C279.886 34.6542 278.971 36.2431 278.534 38.714ZM291.143 14.2861C300.429 14.2861 307.043 16.0937 310.99 19.7016C314.937 23.2912 316.912 28.8269 316.912 36.316C316.912 43.8014 315.717 51.644 313.33 59.8328C310.965 67.9997 307.2 74.3481 302.036 78.878C296.894 83.4334 289.361 85.7147 279.445 85.7147C269.551 85.7147 262.63 83.9217 258.683 80.3357C254.736 76.7278 252.761 71.1739 252.761 63.6848C252.761 60.1243 253.275 55.4232 254.295 49.5813C255.32 43.7176 256.675 38.6666 258.355 34.4246C260.035 30.1608 262.302 26.4654 265.152 23.3386C270.637 17.3036 279.299 14.2861 291.143 14.2861ZM365.05 66.6294L361.978 84.0784H320.309L332.371 15.9224H353.206L344.215 66.6294H365.05ZM365.05 82.8794L371.191 64.8874C377.331 66.5565 382.958 67.3947 388.078 67.3947C393.195 67.3947 397.324 67.1761 400.469 66.7388L401.344 61.2869L392.244 60.4122C385.301 59.7599 380.374 58.2001 377.477 55.7256C374.598 53.2511 373.162 49.7635 373.162 45.2555C373.162 43.2949 373.384 41.1119 373.822 38.714C375.505 29.4064 378.548 23.0106 382.958 19.523C387.393 16.0318 394.255 14.2861 403.538 14.2861C412.823 14.2861 421.012 15.1936 428.104 17.0121L422.4 34.4611C416.041 33.3714 410.925 32.8248 407.047 32.8248C403.173 32.8248 399.886 33.007 397.178 33.3714L396.3 38.714L403.65 39.4756C411.107 40.2774 416.406 42.0449 419.551 44.7818C422.692 47.4968 424.266 51.1447 424.266 55.7256C424.266 60.3758 423.242 65.1754 421.194 70.1207C420.17 72.6644 419.048 74.7963 417.831 76.5165C416.635 78.2147 415.101 79.6542 413.228 80.8423C411.373 82.0522 409.682 82.9632 408.144 83.5682C406.61 84.1987 404.675 84.6579 402.331 84.9494C398.898 85.4596 394.693 85.7147 389.722 85.7147C380.658 85.7147 372.433 84.7672 365.05 82.8794Z" fill="white"/>
</g>
<defs>
<clipPath id="clip0_4_7883">
<rect width="428.107" height="100" fill="white"/>
</clipPath>
</defs>
</svg>
