<svg width="233" height="100" viewBox="0 0 233 100" fill="none" xmlns="http://www.w3.org/2000/svg">
<g clip-path="url(#clip0_4_6551)">
<path d="M214.32 42.3467H206.809V68.8292H214.32V42.3467Z" fill="white"/>
<path d="M87.6829 42.3467H80.1719V68.8292H87.6829V42.3467Z" fill="white"/>
<path d="M74.7532 42.3467H67.2422V68.8292H74.7532V42.3467Z" fill="white"/>
<path d="M19.0032 42.3467H11.4922V68.8292H19.0032V42.3467Z" fill="white"/>
<path d="M232.598 48.2899V42.3477L206.806 42.3477V48.2899L232.598 48.2899Z" fill="white"/>
<path d="M227.297 58.5623V52.6201L206.817 52.6201V58.5623H227.297Z" fill="white"/>
<path d="M232.602 68.8328V62.8906L206.81 62.8906V68.8328H232.602Z" fill="white"/>
<path d="M104.492 48.2889V42.3467L80.1661 42.3467V48.2889L104.492 48.2889Z" fill="white"/>
<path d="M102.152 58.5574V52.6152L80.1704 52.6152V58.5574L102.152 58.5574Z" fill="white"/>
<path d="M112.376 42.3467C109.323 42.3467 106.852 44.8181 106.852 47.8709V48.2889V63.3049C106.852 66.3578 109.323 68.8292 112.376 68.8292H132.686C135.739 68.8292 138.21 66.3578 138.21 63.3049V47.8709C138.21 44.8181 135.739 42.3467 132.686 42.3467H112.376ZM130.699 62.887H114.363V48.2889H130.699V62.887Z" fill="white"/>
<path d="M173.539 47.8708V63.3048C173.539 66.3576 176.01 68.829 179.063 68.829H198.507C201.56 68.829 204.032 66.3576 204.032 63.3048V58.5619H196.078V62.8929H181.05V48.2887H196.078V52.6197H204.032V47.8768C204.032 44.8239 201.56 42.3526 198.507 42.3526H179.063C176.01 42.3465 173.539 44.8179 173.539 47.8708Z" fill="white"/>
<path d="M30.4961 48.2908V42.3486L0.00363541 42.3486V48.2908L30.4961 48.2908Z" fill="white"/>
<path d="M71.6276 75.8616C71.6276 76.5098 71.1067 77.0307 70.4525 77.0307C69.8043 77.0307 69.2773 76.5037 69.2773 75.8616C69.2773 75.2075 69.8043 74.6865 70.4525 74.6865C71.1006 74.6865 71.6276 75.2075 71.6276 75.8616Z" fill="white"/>
<path d="M133.76 75.8616C133.76 76.5098 133.233 77.0307 132.585 77.0307C131.937 77.0307 131.41 76.5037 131.41 75.8616C131.41 75.2075 131.937 74.6865 132.585 74.6865C133.233 74.6865 133.76 75.2075 133.76 75.8616Z" fill="white"/>
<path d="M8.73661 72.3184H6.27734V73.7358H8.73661V72.3184Z" fill="white"/>
<path d="M18.3984 74.0205V79.3993H20.2156V73.7358H24.0984V79.3993H25.9155V74.0205C25.9155 73.0816 25.1523 72.3184 24.2134 72.3184H20.1005C19.1617 72.3184 18.3984 73.0816 18.3984 74.0205Z" fill="white"/>
<path d="M25.9095 75.1465H18.3984V76.5639H25.9095V75.1465Z" fill="white"/>
<path d="M117.391 74.0205V79.3993H119.208V73.7358H123.091V79.3993H124.908V74.0205C124.908 73.0816 124.145 72.3184 123.206 72.3184H119.093C118.154 72.3184 117.391 73.0816 117.391 74.0205Z" fill="white"/>
<path d="M124.902 75.1475H117.391V76.5649H124.902V75.1475Z" fill="white"/>
<path d="M32.0398 72.3184H30.2227V79.3993H32.0398V72.3184Z" fill="white"/>
<path d="M39.5516 72.3184H37.7344V79.3993H39.5516V72.3184Z" fill="white"/>
<path d="M50.6773 73.7358V72.3184H44.8623C43.9234 72.3184 43.1602 73.0816 43.1602 74.0205V77.6972C43.1602 78.6361 43.9234 79.3993 44.8623 79.3993H50.6773V77.9819H44.9773V73.7358H50.6773Z" fill="white"/>
<path d="M54.7539 74.0205V77.6972C54.7539 78.6361 55.5171 79.3993 56.456 79.3993H60.5689C61.5078 79.3993 62.271 78.6361 62.271 77.6972V74.0205C62.271 73.0816 61.5078 72.3184 60.5689 72.3184H56.456C55.5111 72.3184 54.7539 73.0816 54.7539 74.0205ZM60.4478 77.9819H56.565V73.7358H60.4478V77.9819Z" fill="white"/>
<path d="M98.5788 75.1475H92.8789V76.5649H98.5788V75.1475Z" fill="white"/>
<path d="M100.091 73.7358V72.3184H94.2763C93.3374 72.3184 92.5742 73.0816 92.5742 74.0205V77.6972C92.5742 78.6361 93.3374 79.3993 94.2763 79.3993H100.091V77.9819H94.3914V73.7358H100.091Z" fill="white"/>
<path d="M112.501 75.1475H108.219V76.5649H112.501V75.1475Z" fill="white"/>
<path d="M106.805 73.7358H112.505V72.3184H106.69C105.752 72.3184 104.988 73.0816 104.988 74.0205V77.6972C104.988 78.6361 105.752 79.3993 106.69 79.3993H110.803C111.742 79.3993 112.505 78.6361 112.505 77.6972V75.1471H110.688V77.9819H106.805V73.7358Z" fill="white"/>
<path d="M8.09453 72.3184H6.27734V79.3993H8.09453V72.3184Z" fill="white"/>
<path d="M13.7938 72.3184H11.9766V79.3993H13.7938V72.3184Z" fill="white"/>
<path d="M8.75035 72.3184H8.43537L7.48438 72.9847L11.9789 79.3993H13.3478L13.5901 79.2297L8.75035 72.3184Z" fill="white"/>
<path d="M218.832 74.0205V77.6972C218.832 78.6361 219.595 79.3993 220.534 79.3993H224.647C225.586 79.3993 226.349 78.6361 226.349 77.6972V74.0205C226.349 73.0816 225.586 72.3184 224.647 72.3184H220.534C219.595 72.3184 218.832 73.0816 218.832 74.0205ZM224.532 77.9819H220.649V73.7358H224.532V77.9819Z" fill="white"/>
<path d="M206.809 72.3184V79.3993H212.624C213.562 79.3993 214.326 78.6361 214.326 77.6972V74.0205C214.326 73.0816 213.562 72.3184 212.624 72.3184H206.809ZM212.509 77.9819H208.626V73.7358H212.509V77.9819Z" fill="white"/>
<path d="M189.907 75.1475H184.207V76.5649H189.907V75.1475Z" fill="white"/>
<path d="M191.716 73.7358V72.3184H185.901C184.962 72.3184 184.199 73.0816 184.199 74.0205V77.6972C184.199 78.6361 184.962 79.3993 185.901 79.3993H191.716V77.9819H186.022V73.7358H191.716Z" fill="white"/>
<path d="M143.815 72.3184H141.355V73.7358H143.815V72.3184Z" fill="white"/>
<path d="M143.173 72.3184H141.355V79.3993H143.173V72.3184Z" fill="white"/>
<path d="M148.872 72.3184H147.055V79.3993H148.872V72.3184Z" fill="white"/>
<path d="M143.828 72.3184H143.513L142.562 72.9847L147.057 79.3993H148.426L148.668 79.2297L143.828 72.3184Z" fill="white"/>
<path d="M155.638 72.3184H153.82V79.3993H155.638V72.3184Z" fill="white"/>
<path d="M176.989 72.3184H175.172V79.3993H176.989V72.3184Z" fill="white"/>
<path d="M197.252 72.3184H194.793V73.7358H197.252V72.3184Z" fill="white"/>
<path d="M196.61 72.3184H194.793V79.3993H196.61V72.3184Z" fill="white"/>
<path d="M202.305 72.3184H200.488V79.3993H202.305V72.3184Z" fill="white"/>
<path d="M197.258 72.3184H196.943L195.992 72.9847L200.487 79.3993H201.856L202.098 79.2297L197.258 72.3184Z" fill="white"/>
<path d="M163.205 72.3184H160.746V73.7358H163.205V72.3184Z" fill="white"/>
<path d="M162.563 72.3184H160.746V79.3993H162.563V72.3184Z" fill="white"/>
<path d="M168.259 72.3184H166.441V79.3993H168.259V72.3184Z" fill="white"/>
<path d="M163.211 72.3184H162.896L161.945 72.9847L166.44 79.3993H167.809L168.051 79.2297L163.211 72.3184Z" fill="white"/>
<path d="M36.6905 72.3184L34.8854 77.57L33.0743 72.3184H31.5781L34.0192 79.3993H35.7516L38.1927 72.3184H36.6905Z" fill="white"/>
<path d="M179.835 72.3184H172.324V73.7358H179.835V72.3184Z" fill="white"/>
<path d="M117.39 11.1454L133.496 39.4452H139.838L117.39 0L94.9414 39.4452H101.283L117.39 11.1454Z" fill="white"/>
<path d="M174.293 100L164.22 82.2949H157.878L164.813 94.4883H69.968L76.9036 82.2949H70.5616L60.4883 100H174.293Z" fill="white"/>
<path d="M87.689 73.7358V72.3184H81.874C80.9351 72.3184 80.1719 73.0816 80.1719 74.0205V74.8685C80.1719 75.8074 80.9351 76.5706 81.874 76.5706H85.8718V77.988H80.1719V79.4054H85.9869C86.9258 79.4054 87.689 78.6422 87.689 77.7033V76.8553C87.689 75.9164 86.9258 75.1532 85.9869 75.1532H81.9891V73.7358H87.689Z" fill="white"/>
<path d="M44.3878 53.3891V58.5924L56.6236 68.8353H65.8792L54.5278 59.3253H56.7387C59.7916 59.3253 62.2629 56.8539 62.2629 53.801V47.8709C62.2629 44.8181 59.7916 42.3467 56.7387 42.3467H33.1758V48.2889V68.8292H40.6868V48.2889H54.7155V53.3891H44.3878Z" fill="white"/>
<path d="M152.565 53.3889V58.5922L164.801 68.8351H174.057L162.705 59.3312H164.916C167.969 59.3312 170.44 56.8598 170.44 53.8069V47.8768C170.44 44.8239 167.969 42.3525 164.916 42.3525H141.359V48.2948V68.8351H148.87V48.2887H162.899V53.3889H152.565Z" fill="white"/>
</g>
<defs>
<clipPath id="clip0_4_6551">
<rect width="232.6" height="100" fill="white"/>
</clipPath>
</defs>
</svg>
