<svg width="331" height="100" viewBox="0 0 331 100" fill="none" xmlns="http://www.w3.org/2000/svg">
<g clip-path="url(#clip0_4_6625)">
<path d="M115.477 9.79395H102.098V43.3795H115.477V9.79395Z" fill="white"/>
<path d="M172.819 14.6604V25.417C172.819 27.945 170.772 29.9914 168.244 29.9914H164.547V43.3706H171.537C179.637 43.3706 186.198 36.8014 186.198 28.7102V17.9622C186.198 15.4342 188.244 13.3878 190.772 13.3878H194.469V0H187.479C179.379 0 172.819 6.56922 172.819 14.6604Z" fill="white"/>
<path d="M209.055 9.79364V0H195.676V43.3792H209.055V22.2012C209.055 21.2124 209.855 20.4041 210.852 20.4041C211.841 20.4041 212.649 21.2038 212.649 22.2012V43.3792H226.028V19.3809C226.028 14.0843 221.738 9.79364 216.441 9.79364H209.055Z" fill="white"/>
<path d="M330.182 43.3792L322.796 23.9983L329.322 14.0241H315.195L309.228 23.1298V0H298.617V43.3792H309.228V34.2476C309.228 32.5537 311.575 32.1238 312.177 33.7059L315.866 43.3792H330.182Z" fill="white"/>
<path d="M86.294 0V9.79364H81.2811C72.0033 9.79364 64.4883 17.3087 64.4883 26.5864C64.4883 35.8641 72.0033 43.3792 81.2811 43.3792H86.294H91.2897H98.5038V0H86.294ZM81.496 36.8788C78.5382 36.8788 76.1392 34.4798 76.1392 31.5219C76.1392 28.5641 78.5382 26.1651 81.496 26.1651C84.4539 26.1651 86.8529 28.5641 86.8529 31.5219C86.8529 34.4798 84.4539 36.8788 81.496 36.8788Z" fill="white"/>
<path d="M52.9764 9.79395H35.2722V20.4044H45.9257C46.6909 20.4044 47.31 21.0235 47.31 21.7888C47.31 22.554 46.6909 23.1731 45.9257 23.1731H41.9618C36.4588 23.1731 31.807 27.4896 31.6522 32.9926C31.4975 38.7019 36.0804 43.3795 41.7468 43.3795H47.3186H49.1845H58.9781H60.6978H62.5637V19.3812C62.5637 14.0846 58.273 9.79395 52.9764 9.79395ZM45.7709 36.8791C42.813 36.8791 40.4141 34.4801 40.4141 31.5222C40.4141 28.5644 42.813 26.1654 45.7709 26.1654C48.7288 26.1654 51.1277 28.5644 51.1277 31.5222C51.1277 34.4801 48.7288 36.8791 45.7709 36.8791Z" fill="white"/>
<path d="M249.305 9.79395H231.601V20.4044H242.255C243.02 20.4044 243.639 21.0235 243.639 21.7888C243.639 22.554 243.02 23.1731 242.255 23.1731H238.282C232.779 23.1731 228.127 27.4896 227.973 32.9926C227.818 38.7019 232.401 43.3795 238.067 43.3795H243.639H245.505H255.298H257.018H258.884V19.3812C258.893 14.0846 254.602 9.79395 249.305 9.79395ZM242.1 36.8791C239.142 36.8791 236.743 34.4801 236.743 31.5222C236.743 28.5644 239.142 26.1654 242.1 26.1654C245.058 26.1654 247.457 28.5644 247.457 31.5222C247.457 34.4801 245.058 36.8791 242.1 36.8791Z" fill="white"/>
<path d="M24.0241 24.9699C29.0026 23.1986 32.5623 18.4437 32.5623 12.8547C32.5623 5.75236 26.81 0 19.7077 0C19.4411 0 0 0 0 0V43.3792H12.2098V35.0129C12.2098 33.4738 14.3078 33.0009 14.9613 34.4024L19.1745 43.3792H32.6741L24.0241 24.9699ZM14.282 28.1341C11.3242 28.1341 8.92519 25.7352 8.92519 22.7773C8.92519 19.8194 11.3242 17.4205 14.282 17.4205C17.2399 17.4205 19.6389 19.8194 19.6389 22.7773C19.6389 25.7352 17.2399 28.1341 14.282 28.1341Z" fill="white"/>
<path d="M135.675 8.48633C125.675 8.48633 117.566 16.5947 117.566 26.5947C117.566 36.5947 125.675 44.703 135.675 44.703C145.675 44.703 153.783 36.5947 153.783 26.5947C153.783 16.5947 145.675 8.48633 135.675 8.48633ZM135.675 36.8784C132.717 36.8784 130.318 34.4795 130.318 31.5216C130.318 28.5637 132.717 26.1647 135.675 26.1647C138.633 26.1647 141.032 28.5637 141.032 31.5216C141.032 34.4795 138.641 36.8784 135.675 36.8784Z" fill="white"/>
<path d="M283.928 33.4484C283.154 35.4519 281.211 36.8792 278.933 36.8792C275.975 36.8792 273.576 34.4802 273.576 31.5224C273.576 28.5645 275.975 26.1655 278.933 26.1655C281.211 26.1655 283.154 27.5929 283.928 29.5963H296.783C296.946 28.6161 297.041 27.6101 297.041 26.5869C297.041 16.5869 288.933 8.47852 278.933 8.47852C268.933 8.47852 260.824 16.5869 260.824 26.5869C260.824 36.5869 268.933 44.6952 278.933 44.6952C286.499 44.6952 292.982 40.0434 295.691 33.4484H283.928Z" fill="white"/>
<path d="M33.9209 66.2767V99.3291H19.7506V66.2767H0V54.9697H53.6715V66.2767H33.9209Z" fill="white"/>
<path d="M114.264 78.5725C112.802 81.1004 110.205 81.7023 107.48 82.1666C114.195 82.6309 115.261 85.8898 115.261 92.0807V99.3291H101.959C101.959 96.6722 102.097 93.8777 101.564 91.281C100.962 88.3575 98.9069 88.091 96.2414 88.091H74.023V99.3291H60.5234V54.9697H93.1804C95.5707 54.9697 98.0385 55.0385 100.429 55.0385C105.485 55.1073 111.134 54.5742 114.126 59.5613C115.854 62.4246 115.726 66.4143 115.726 69.6043C115.726 72.5278 115.794 75.9843 114.264 78.5725ZM96.6369 66.0703H74.023V76.9818H93.0428C94.0402 76.9818 95.0376 76.913 96.035 76.913C100.893 76.784 102.217 76.6464 102.217 71.324C102.226 66.8012 101.091 66.0703 96.6369 66.0703Z" fill="white"/>
<path d="M173.595 96.466C170.405 99.9225 163.423 99.7936 159.098 99.8537C155.642 99.9913 152.185 99.9913 148.72 99.9913C142.933 99.9913 135.951 100.189 130.302 98.9251C128.17 98.4608 126.312 97.5923 124.782 96.0618C122.52 93.8692 122.254 91.0059 122.254 88.0137C122.254 86.8787 122.323 85.7523 122.391 84.6173H135.427C135.427 85.6147 135.427 86.5433 135.762 87.4806C135.96 88.0825 136.226 88.478 136.759 88.8735C138.023 89.8709 141.815 89.742 143.277 89.742C145.203 89.742 147.069 89.8107 148.995 89.8107C151.385 89.8107 153.716 89.742 156.115 89.742C157.774 89.742 161.97 89.9397 163.097 88.349C163.561 87.6181 163.561 86.6207 163.561 85.8211C163.561 82.4333 160.904 82.5623 158.178 82.4935C151.059 82.2957 143.948 81.8916 136.828 81.625C132.968 81.496 128.049 81.3585 125.255 78.2372C122.925 75.6405 122.727 71.9174 122.727 68.5898C122.727 60.6792 124.79 55.6921 133.303 54.8236C139.021 54.2217 144.945 54.2905 150.723 54.2905C156.312 54.2905 162.228 54.1616 167.68 55.4857C173.733 57.0162 174.997 61.0059 174.997 66.7927V68.9251H161.893V68.2716C161.893 67.0076 161.755 66.079 160.629 65.3481C159.365 64.4797 156.373 64.5485 154.911 64.5485H143.406C142.013 64.5485 138.084 64.4797 136.888 65.3481C136.02 65.95 135.822 67.0076 135.822 68.0051C135.822 68.8047 136.02 69.8709 136.691 70.3954C137.155 70.791 137.826 70.9285 138.419 70.9973C139.95 71.2639 141.54 71.2639 143.071 71.3327C146.063 71.4702 149.055 71.5992 152.048 71.668C157.172 71.8056 164.481 71.7368 169.477 73.061C171.076 73.5253 172.469 74.196 173.733 75.3224C176.459 77.7127 176.596 82.3043 176.596 85.6319C176.588 89.355 176.261 93.6113 173.595 96.466Z" fill="white"/>
<path d="M262.933 97.1278C258.548 100.318 247.972 99.8536 242.718 99.8536H236.665C231.213 99.8536 222.236 100.249 217.576 97.1278C214.446 95.004 214.18 90.7478 214.18 87.2826C214.18 84.3591 214.446 81.2293 216.57 79.0367C218.169 77.3772 220.629 77.0419 222.821 76.6463C221.824 76.5775 220.758 76.5173 219.76 76.2508C215.306 75.0556 214.704 70.6618 214.704 66.6721C214.704 60.2233 216.63 56.4314 223.346 55.3652C228.866 54.4967 234.653 54.4365 240.242 54.4365C243.303 54.4365 246.364 54.5053 249.416 54.6343C253.337 54.8321 258.926 54.9696 262.254 57.231C265.315 59.2946 265.779 63.4821 265.779 66.8699C265.779 69.4666 265.444 72.4589 263.715 74.4537C262.116 76.3196 259.992 76.5174 257.662 76.6463C260.052 77.0419 262.116 77.3084 263.913 79.0367C266.243 81.2293 266.304 85.09 266.304 88.0823C266.329 91.4099 265.865 95.0728 262.933 97.1278ZM252.623 82.6996C251.626 81.7022 247.972 81.771 246.708 81.771C244.317 81.7022 241.918 81.6334 239.528 81.6334C237.335 81.6334 229.554 81.4357 228.092 82.5019C227.095 83.2327 227.095 84.8922 227.095 86.0272C227.095 87.0247 227.163 88.1511 227.963 88.8905C229.494 90.2233 237.671 89.8879 239.605 89.8879C241.936 89.8879 244.257 89.8192 246.587 89.759C248.247 89.759 252.236 89.9567 253.105 88.0307C253.44 87.2998 253.44 86.3024 253.44 85.5027C253.423 84.5655 253.363 83.3617 252.623 82.6996ZM246.708 64.5397C244.051 64.4709 241.454 64.4107 238.797 64.4107C236.071 64.4107 233.208 64.3419 230.482 64.7461C228.221 65.0814 227.619 66.2766 227.619 68.4692C227.619 70.7994 228.419 71.5904 230.68 71.857C235.401 72.3213 240.457 72.1235 245.177 72.1235C246.708 72.1235 251.162 72.1235 252.228 71.0573C252.89 70.3953 252.89 69.1313 252.89 68.2628C252.89 64.4107 249.769 64.6085 246.708 64.5397Z" fill="white"/>
<path d="M320.266 99.063C314.943 99.9314 307.764 99.8626 302.372 99.8626C299.045 99.8626 295.786 99.7939 292.458 99.7337C285.141 99.5961 276.629 99.3381 275.038 90.4903C274.307 86.3631 274.505 81.376 274.505 77.1885C274.505 74.5316 274.505 71.9349 274.574 69.278C274.642 65.5548 274.909 61.2986 277.635 58.4353C279.432 56.5694 281.96 55.6408 284.488 55.2453C289.81 54.3768 296.921 54.4456 302.381 54.4456C305.64 54.4456 308.967 54.5746 312.226 54.6434C323.602 54.9099 330.18 56.1051 330.18 69.278V85.1077C330.18 92.4766 328.314 97.7302 320.266 99.063ZM313.817 66.8016C312.286 66.1395 310.025 66.0707 308.366 66.0707C305.709 66.0707 303.043 66.0019 300.317 66.0019C297.592 66.0019 294.599 65.9332 291.934 66.535C291.134 66.7328 290.335 66.9994 289.741 67.67C287.944 69.5359 288.082 74.7896 288.082 77.1799C288.082 79.3725 287.944 84.566 289.475 86.3545C290.137 87.1541 290.936 87.4895 291.934 87.7474C294.797 88.4095 299.518 88.4095 302.51 88.3493L308.366 88.2203C310.025 88.1516 312.286 88.1516 313.817 87.4207C317.145 85.9589 316.68 80.1034 316.68 77.1799C316.68 74.2565 317.145 68.3321 313.817 66.8016Z" fill="white"/>
<path d="M203.601 77.6875H185.957V89.4502H203.601V77.6875Z" fill="white"/>
</g>
<defs>
<clipPath id="clip0_4_6625">
<rect width="330.181" height="100" fill="white"/>
</clipPath>
</defs>
</svg>
