<svg width="503" height="100" viewBox="0 0 503 100" fill="none" xmlns="http://www.w3.org/2000/svg">
<g clip-path="url(#clip0_4_6642)">
<path d="M298.713 21.9749L274.74 64.2357C273.797 65.893 272.54 67.3502 271.039 68.4932C270.411 66.5787 269.582 64.0071 269.168 63.2499L292.741 21.9606H273.111L249.366 63.9785L255.138 80.5371H266.296C264.867 82.7373 263.41 84.3374 261.753 85.409C259.896 86.5948 257.624 87.2234 254.738 87.2234C252.881 87.2234 250.981 87.052 249.366 86.8091C247.509 86.5376 245.437 86.0947 243.58 85.4947L239.851 84.1946L233.422 95.5527L234.693 96.1528C236.565 97.1386 238.851 97.8958 241.508 98.3672C244.209 98.8816 247.094 99.1102 249.78 99.1102C257.624 99.1102 264.667 97.4814 270.639 94.2097C277.054 90.838 281.983 85.8519 285.726 79.4513L318.372 21.9463H298.713" fill="white"/>
<path d="M358.376 25.2034C357.147 22.5031 354.032 21.1602 349.475 21.1602C348.675 21.1602 347.875 21.1887 347.103 21.2316C344.646 21.3887 342.217 21.8888 339.845 22.6031L336.674 23.5747L337.574 21.9888H320.758L277.383 98.5669H296.956C296.956 98.5669 305.814 82.937 305.885 82.8084C307.743 83.5084 310.5 83.5799 312.514 83.3942C317.443 82.9513 322.415 81.894 327.387 78.908C332.33 75.9506 336.488 71.9789 339.774 67.0499C341.646 64.3211 343.289 61.7351 344.732 59.3492L349.475 51.2485C351.132 48.3768 352.575 45.5337 354.032 42.8049C355.49 39.9904 356.49 37.8045 357.133 36.1472C359.204 31.5039 359.404 27.8322 358.376 25.2034ZM333.373 43.6193L329.244 51.4342L323.658 60.8636L319.915 66.9642C319.701 67.3213 319.215 68.0785 318.715 68.85C317.843 70.2216 316.329 71.0359 314.715 71.0359H312.557L332.945 35.0471H334.959C336.102 35.0471 336.874 36.2186 336.402 37.2616C335.516 39.2617 334.202 42.1334 333.373 43.6193Z" fill="white"/>
<path d="M111.681 3.90137L78.2356 83.4226H57.5767L64.5916 69.0785H57.1481L47.8472 83.4226H26.9883L82.3502 3.90137H111.681ZM72.0208 55.0058C76.1497 46.005 81.3216 34.8469 87.9364 21.5743C77.1784 36.8185 69.5491 47.9766 64.9916 55.0058H72.0208Z" fill="white"/>
<path d="M80.707 83.4226L125.74 3.90137H146.198L101.152 83.4226H80.707Z" fill="white"/>
<path d="M56.3335 19.8595L20.3161 83.4365H0L36.0174 19.8595H24.0878L33.1315 3.88672H79.7784L68.6631 19.8595H56.3335Z" fill="white"/>
<path d="M271.866 19.8595L235.863 83.4365H215.547L251.564 19.8595H239.635L248.678 3.88672H292.882L283.839 19.8595H271.866Z" fill="white"/>
<path d="M232.564 10.4595C232.164 7.70216 230.706 5.63055 228.22 4.21614C225.734 2.81602 222.234 2.14453 218.091 2.14453C213.748 2.14453 209.419 2.85888 205.275 4.34472C201.161 5.84485 197.232 7.94504 193.717 10.6881C190.203 13.4455 187.317 16.4886 185.245 19.8175C182.959 23.1464 179.459 28.804 174.916 36.7761L167.272 50.4202C162.729 58.5923 159.643 64.3357 158.186 67.6074C156.528 70.8791 156.114 73.9365 156.528 76.7082C156.928 79.5084 158.586 81.58 161.072 82.9801C163.558 84.3517 166.858 85.0518 171.201 85.0518C175.544 85.0518 179.873 84.3088 184.016 82.8516C187.931 81.38 191.86 79.2798 195.375 76.5082C198.889 73.7793 201.775 70.7362 204.047 67.4216C206.333 64.0642 209.633 58.4209 214.148 50.4202L221.82 36.7761C226.563 28.6183 229.649 22.8749 231.106 19.5746C232.564 16.3029 233.192 13.2598 232.564 10.4595ZM212.19 18.2316L183.131 69.3504C181.988 71.3648 179.445 72.0506 177.473 70.8791C176.83 70.5076 176.616 69.6647 176.987 69.0075L206.061 17.8888C207.204 15.8743 209.747 15.1885 211.719 16.3601C212.347 16.7315 212.562 17.5744 212.19 18.2316Z" fill="white"/>
<path d="M171.815 19.8595L135.798 83.4365H115.496L151.499 19.8595H139.584L148.613 3.88672H192.817L183.773 19.8595H171.815Z" fill="white"/>
<path d="M379.363 83.3654H402.608L430.625 59.6347L452.855 40.8188L501.031 0.000976562H477.772L430.368 40.1616L379.363 83.3654Z" fill="white"/>
<path d="M429.938 0.000976562L432.938 83.3654H455.368L452.368 0.000976562H429.938Z" fill="white"/>
<path d="M403.45 27.9318C402.835 23.4457 399.135 21.1455 392.306 21.1455C384.662 21.1455 377.219 23.9458 370.39 29.4319C363.575 34.6753 357.374 42.4474 351.588 52.5197C345.816 62.6491 343.344 70.4212 343.959 75.6645C344.559 81.1793 348.502 83.951 355.717 83.951C361.917 83.951 367.504 82.5937 372.233 79.9078C376.99 77.0932 381.105 72.7929 384.419 67.1495C384.419 67.1495 385.262 65.7208 385.548 65.2494C385.662 65.0493 386.005 64.4779 386.005 64.4779H370.861L370.475 65.1493L368.904 67.8781C368.204 69.1783 367.532 69.7212 367.346 69.9212C367.089 70.1926 366.775 70.3927 366.418 70.4927L366.161 70.5641C365.375 70.7927 364.518 70.4927 364.032 69.8212C363.618 69.2497 363.518 68.5068 363.789 67.8496C364.532 66.0066 366.261 62.4062 370.218 55.5199H392.534L397.292 46.962C402.021 38.6185 404.078 32.2322 403.45 27.9318ZM385.805 36.6754C385.277 37.9041 384.348 39.8614 382.576 43.0331H377.204C379.247 39.6471 380.376 37.9327 381.062 36.9612C383.619 33.1894 386.834 34.1324 385.805 36.6754Z" fill="white"/>
</g>
<defs>
<clipPath id="clip0_4_6642">
<rect width="502.41" height="100" fill="white"/>
</clipPath>
</defs>
</svg>
