<svg width="326" height="100" viewBox="0 0 326 100" fill="none" xmlns="http://www.w3.org/2000/svg">
<g clip-path="url(#clip0_4_6655)">
<path d="M0 70.0099L9.47778 25.2815L23.3988 25.4272L16.2395 58.1926L35.3988 58.0815L42.1494 25.3815L54.3148 25.4519L51.3025 38.2494L136.381 0L86.5494 66.4753L119.295 50.9148L125.057 25.5235L169.72 25.9296L166.788 37.2852L134.062 36.8037L132.77 42.2198L155.869 42.3568L153.164 53.5284L129.806 53.1938L129.202 57.9951L162.522 58.1926L160.132 70.2679L114.953 69.8111L116.898 60.0284L31.379 99.9506L70.6766 42.9222L48.6259 52.8247L45.1173 70.6L0 70.0099Z" fill="white"/>
<path d="M278.294 30.6234L279.575 25.3209L293.366 25.3925L300.226 37.5345L312.929 25.248L325.926 25.4184L325.613 30.1567L306.127 47.4456L316.75 64.6184L316.919 69.9814L302.915 70.0974L295.811 57.9011L283.216 69.9653L269.566 70.1172L270.229 65.6209L289.275 47.7073L278.294 30.6234Z" fill="white"/>
<path d="M233.403 57.8397L237.614 37.6089L257.571 37.5965L253.603 58.1509L233.403 57.8397ZM262.103 70.5546L272.398 25.662L227.615 25.6533L217.82 70.4459L262.103 70.5546Z" fill="white"/>
<path d="M185.348 41.4988L186.011 37.3815L206.917 37.4408L206.16 41.6828L185.348 41.4988ZM182.358 57.8717L183.02 53.7556L203.925 53.8136L203.169 58.0568L182.358 57.8717ZM204.212 69.5235L212.586 63.226L214.523 53.3951L208.923 46.405L217.624 40.8087L219.922 30.5988L214.292 25.5001L176.84 25.4297L167.24 69.5408L204.212 69.5235Z" fill="white"/>
</g>
<defs>
<clipPath id="clip0_4_6655">
<rect width="325.926" height="100" fill="white"/>
</clipPath>
</defs>
</svg>
