<svg width="400" height="100" viewBox="0 0 400 100" fill="none" xmlns="http://www.w3.org/2000/svg">
<g clip-path="url(#clip0_4_6660)">
<path d="M169.741 54.2891C159.243 64.7482 159.243 81.6987 169.741 92.1598C180.243 102.613 197.263 102.613 207.765 92.1598C216.845 83.1149 218.069 69.2139 211.447 58.8583L196.983 73.2633C196.971 75.3507 196.171 77.4322 194.575 79.0216C191.359 82.2185 186.147 82.2185 182.931 79.0216C179.721 75.8188 179.721 70.6301 182.931 67.4272C186.147 64.2283 191.359 64.2283 194.575 67.4272L194.821 67.6881L208.019 54.546L207.767 54.2891C197.263 43.8359 180.243 43.8359 169.741 54.2891Z" fill="white"/>
<path d="M64.982 99.8925L129.964 26.2246H102.848L61.312 68.3399C60.044 69.6246 57.986 69.6246 56.718 68.3399C55.452 67.0572 55.452 64.9677 56.718 63.679L93.662 26.2246H0L64.982 99.8925Z" fill="white"/>
<path d="M354.99 73.1038L332.486 99.4538H350.874L368.394 81.6906C369.41 80.6608 371.056 80.6608 372.072 81.6906C373.086 82.7164 373.086 84.3835 372.072 85.4173L358.228 99.4577H400L377.498 73.1058L400 46.7559H381.612L364.092 64.521C363.076 65.5548 361.432 65.5548 360.416 64.521C359.4 63.4932 359.4 61.8281 360.416 60.7943L374.26 46.7559H332.486L354.99 73.1038Z" fill="white"/>
<path d="M251.418 46.7539V99.4558H268.306V65.2023H281.112L296.864 46.7539H278.478L260.952 64.5191C259.942 65.5528 258.296 65.5528 257.282 64.5191C256.266 63.4933 256.266 61.8261 257.282 60.7923L271.124 46.7539H251.418Z" fill="white"/>
<path d="M238.826 46.9793H249.032L265.89 29.6285H238.828V0L197.66 46.9793H215.664L227.992 35.5741C229.008 34.5463 230.654 34.5463 231.662 35.5741C232.678 36.6079 232.678 38.273 231.662 39.3028L221.94 49.1664V99.4562H238.83V46.9793H238.826Z" fill="white"/>
<path d="M112.126 54.2891C101.63 64.7482 101.63 81.6987 112.126 92.1598C122.628 102.613 139.648 102.613 150.15 92.1598C159.232 83.1149 160.456 69.2139 153.832 58.8584L139.368 73.2633C139.358 75.3507 138.556 77.4322 136.96 79.0217C134.32 81.6449 130.342 82.113 127.226 80.4379L151.742 56.022C151.32 55.5201 148.62 52.853 147.808 52.2136C137.256 43.8858 121.876 44.5789 112.126 54.2891ZM123.538 76.3825C122.294 73.4107 122.886 69.8473 125.316 67.4272C127.748 65.0072 131.326 64.4156 134.31 65.6565L123.538 76.3825Z" fill="white"/>
<path d="M295.39 54.2891C284.894 64.7482 284.894 81.6987 295.39 92.1598C305.894 102.613 322.914 102.613 333.416 92.1598C342.498 83.1149 343.722 69.2139 337.1 58.8584L322.636 73.2633C322.624 75.3507 321.826 77.4322 320.228 79.0217C317.59 81.6449 313.61 82.113 310.494 80.4379L335.01 56.022C334.586 55.5201 331.886 52.853 331.076 52.2136C320.522 43.8858 305.142 44.5789 295.39 54.2891ZM306.804 76.3825C305.558 73.4107 306.15 69.8473 308.582 67.4272C311.012 65.0072 314.592 64.4156 317.574 65.6565L306.804 76.3825Z" fill="white"/>
</g>
<defs>
<clipPath id="clip0_4_6660">
<rect width="400" height="100" fill="white"/>
</clipPath>
</defs>
</svg>
