<svg width="326" height="100" viewBox="0 0 326 100" fill="none" xmlns="http://www.w3.org/2000/svg">
<g clip-path="url(#clip0_4_6669)">
<path d="M119.811 99.2962H102.341L83.8105 52.5967H96.3339L109.986 87.5364H112.175L125.657 52.5967H138.129L119.811 99.2962Z" fill="white"/>
<path d="M143.188 99.2962V52.5967H155.151V99.2962H143.188Z" fill="white"/>
<path d="M186.892 99.9913C181.945 99.9913 176.837 100.059 172.01 98.8035C168.132 97.7514 165.663 95.2993 164.874 90.3273C164.144 85.7795 164.314 80.8754 164.314 76.2513C164.314 73.4514 164.314 70.6514 164.424 67.9194C164.535 63.6516 164.594 59.0275 167.233 55.9475C168.132 54.8954 169.201 54.1997 170.38 53.7076C175.327 51.6798 185.941 51.8834 191.168 51.8834C195.436 51.8834 199.822 51.7392 204.031 52.7234C205.719 53.1391 207.229 53.8433 208.578 55.1754C211.556 58.0432 211.556 63.5752 211.556 67.7751C211.556 68.2672 211.497 68.8272 211.497 69.3193H200.094C200.034 68.0551 200.034 65.7473 199.254 64.9073C198.745 64.3473 197.845 64.1352 197.175 64.0673C194.137 63.5752 190.939 63.5752 187.91 63.5752C186.281 63.5752 184.711 63.5752 183.082 63.6431C181.394 63.711 178.984 63.711 177.575 65.0431C175.607 66.9351 175.777 73.4429 175.777 76.1749C175.777 78.6949 175.556 85.0668 177.465 86.8147C178.195 87.4425 178.984 87.7989 179.883 87.9346C182.301 88.3589 184.94 88.2825 187.409 88.2825H193.196C195.274 88.2825 199.322 88.7067 200.272 85.6947C200.662 84.4305 200.722 82.6148 200.722 81.2827H212.125C212.184 82.4026 212.235 83.5905 212.235 84.7105C212.235 88.6983 212.176 93.4581 209.597 96.3344C206.118 100.254 196.174 99.9743 191.736 99.9743H186.892V99.9913Z" fill="white"/>
<path d="M226.438 99.296C226.438 97.4718 226.327 95.5882 226.327 93.764C226.327 89.9798 226.268 86.2042 226.777 82.4879C227.787 74.716 233.183 73.7402 238.571 73.1718L252.723 71.7718C254.522 71.5597 256.49 71.5597 258.23 70.7876C259.859 70.0833 259.859 68.8955 259.859 66.9355C259.859 65.6034 259.859 64.1356 258.9 63.2956C257.491 61.9635 251.425 62.3114 249.796 62.3114C246.368 62.3114 242.66 62.0993 239.232 62.8035C236.645 63.2956 236.933 65.6034 236.933 68.4034V69.9476H225.869V68.0555C225.869 64.2035 225.929 58.8836 228.228 55.8716C230.816 52.5116 236.543 52.3674 239.971 52.1638C242.389 52.0195 244.798 52.0195 247.216 52.0195H248.286L257.551 52.0874C261.148 52.0874 265.755 52.1553 268.445 55.5916C270.524 58.2557 270.524 63.5756 270.524 67.0034C270.524 70.5076 270.464 74.2154 268.895 77.2953C266.816 81.4273 260.919 81.9873 257.432 82.2673C254.734 82.4794 252.095 82.6915 249.397 82.8951C247.259 83.0394 245.129 83.243 242.991 83.4551C242.032 83.523 239.623 83.7351 238.723 84.1594C236.925 84.9993 236.925 86.5435 236.925 88.5714H271.135V99.2875H226.438V99.296Z" fill="white"/>
<path d="M317.444 99.0158C312.947 99.9236 306.881 99.8558 302.333 99.8558C299.525 99.8558 296.776 99.7879 293.967 99.7115C287.79 99.5758 280.595 99.2958 279.246 89.9796C278.627 85.6355 278.797 80.3835 278.797 75.98C278.797 73.18 278.797 70.448 278.856 67.648C278.915 63.7281 279.136 59.2483 281.444 56.2362C282.963 54.2763 285.092 53.292 287.23 52.8763C291.727 51.9684 297.734 52.0363 302.342 52.0363C305.091 52.0363 307.899 52.1805 310.656 52.2484C320.261 52.5284 325.827 53.7926 325.827 67.648V84.3119C325.81 92.0838 324.24 97.6158 317.444 99.0158ZM311.989 65.0602C310.699 64.356 308.79 64.2881 307.381 64.2881C305.133 64.2881 302.885 64.2203 300.585 64.2203C298.286 64.2203 295.757 64.1524 293.509 64.7802C292.839 64.9924 292.16 65.2723 291.659 65.9681C290.141 67.928 290.251 73.46 290.251 75.98C290.251 78.2878 290.141 83.7519 291.43 85.644C291.99 86.484 292.669 86.8318 293.509 87.1118C295.927 87.816 299.915 87.816 302.443 87.7397L307.39 87.5954C308.798 87.5276 310.707 87.5276 311.997 86.7555C314.805 85.2113 314.415 79.0514 314.415 75.9715C314.407 72.9 314.797 66.6638 311.989 65.0602Z" fill="white"/>
<path d="M0 51.8838H73.7825V56.8388H0V51.8838Z" fill="white"/>
<path d="M0 62.6758H73.7825V67.6308H0V62.6758Z" fill="white"/>
<path d="M0 73.4688H73.7825V78.4153H0V73.4688Z" fill="white"/>
<path d="M0 84.2607H73.7825V89.2073H0V84.2607Z" fill="white"/>
<path d="M0 95.0449H73.7825V100H0V95.0449Z" fill="white"/>
<path d="M287.137 13.4145H281.087V30.7741H287.4V21.704C287.4 19.3368 288.851 18.1489 291.481 18.1489C294.111 18.1489 294.773 18.938 294.9 21.1694H300.823C300.823 15.2556 300.034 13.0157 293.721 13.0157C289.903 13.0157 288.588 13.8048 287.145 16.698L287.137 13.4145ZM316.205 27.3547C310.156 27.3547 309.239 26.8287 309.239 23.7997H325.81C325.547 15.3829 325.547 13.4145 314.364 13.4145C304.895 13.4145 302.783 15.1199 302.783 22.6203C302.783 29.5947 305.549 31.3001 313.176 31.4359C321.729 31.4359 325.801 31.0371 325.801 25.3863H319.616C319.362 26.7014 318.836 27.3547 316.205 27.3547ZM309.104 20.1258C309.367 18.2847 309.893 17.6229 314.101 17.6229C318.708 17.6229 319.362 17.8859 319.625 20.1258H309.104ZM73.9263 20.7791H80.2389C79.7128 14.8569 77.9989 13.4145 69.1919 13.4145C59.197 13.4145 56.957 14.9926 56.957 22.3573C56.957 29.722 59.0612 31.4359 68.4028 31.4359C78.2705 31.4359 80.2389 30.1207 80.2389 23.9354H73.9263C73.9263 25.6493 73.273 26.4384 68.4028 26.4384C64.1944 26.4384 63.2696 25.3863 63.2696 21.967C63.2696 18.675 64.1859 18.675 69.1919 18.675C72.8742 18.675 73.5275 19.0737 73.9263 20.7791ZM220.583 21.8312C220.583 14.7296 218.479 13.2872 208.349 13.2872C197.429 13.2872 196.122 15.1284 196.122 22.493C196.122 29.8577 197.963 31.4359 208.349 31.4359C219.396 31.4359 220.583 29.5947 220.583 21.8312ZM202.562 22.23C202.562 18.675 203.351 18.2847 207.958 18.2847C213.091 18.2847 214.008 18.4119 214.008 22.23C214.008 25.7851 213.346 26.4384 208.484 26.4384C203.215 26.4384 202.562 25.9124 202.562 22.23ZM277.269 21.8312C277.269 14.7296 275.292 13.2872 265.17 13.2872C254.386 13.2872 253.071 14.9926 253.071 22.3658C253.071 29.8662 254.912 31.4443 265.17 31.4443C276.217 31.4359 277.269 29.5947 277.269 21.8312ZM259.384 22.23C259.384 18.675 260.173 18.2847 264.771 18.2847C269.905 18.2847 270.821 18.4119 270.821 22.23C270.821 25.7851 270.168 26.4384 265.297 26.4384C260.045 26.4384 259.384 25.9124 259.384 22.23ZM108.255 21.8312C108.255 14.7296 106.278 13.2872 96.1561 13.2872C85.2364 13.2872 83.9212 14.9926 83.9212 22.3658C83.9212 29.8662 85.7624 31.4443 96.1561 31.4443C107.203 31.4359 108.255 29.5947 108.255 21.8312ZM90.4968 22.23C90.4968 18.675 91.2859 18.2847 95.7573 18.2847C100.891 18.2847 101.807 18.4119 101.807 22.23C101.807 25.7851 101.145 26.4384 96.2834 26.4384C91.1501 26.4384 90.4968 25.9124 90.4968 22.23ZM242.55 6.0498V16.1805C241.108 14.2035 239.793 13.1599 234.532 13.1599C226.115 13.1599 224.537 15.3999 224.537 22.2385C224.537 29.2129 226.777 31.1813 234.931 31.1813C240.064 31.1813 241.642 29.8662 242.822 27.6347V30.791H249.134V6.0498H242.55ZM237.943 18.1489C241.49 18.1489 242.677 18.675 242.677 21.4325C242.677 25.6408 242.414 26.0396 237.417 26.0396C232.419 26.0396 231.104 25.9039 231.104 22.3573C231.104 18.2847 232.682 18.1489 237.943 18.1489ZM118.25 13.4145H112.336V30.7741H118.649V21.8312C118.649 19.201 119.964 18.2847 123.519 18.2847C126.811 18.2847 127.727 19.464 127.727 22.7561V30.7741H134.176V21.5682C134.176 19.0652 136.144 18.2847 139.173 18.2847C142.066 18.2847 143.382 19.0737 143.382 21.5682V30.7741H149.694V20.5161C149.694 15.3914 146.538 13.0157 140.751 13.0157C135.754 13.0157 133.913 14.8569 133.251 16.8338C131.936 14.5938 130.095 13.0157 125.097 13.0157C120.363 13.0157 119.048 14.5938 118.259 17.4871L118.25 13.4145ZM160.733 13.4145H154.81V30.7741H161.123V21.8312C161.123 19.201 162.701 18.2847 165.857 18.2847C169.149 18.2847 170.066 19.3368 170.066 22.7561V30.7741H176.514V21.5682C176.514 19.0652 178.355 18.2847 181.384 18.2847C184.278 18.2847 185.72 19.201 185.72 21.5682V30.7741H192.033V20.5161C192.033 15.3914 188.876 13.0157 183.09 13.0157C178.092 13.0157 176.378 14.7211 175.589 16.8338C174.274 14.5938 172.433 13.0157 167.436 13.0157C162.837 13.0157 161.649 14.5938 160.733 17.4871V13.4145Z" fill="white"/>
<path d="M28.3896 32.9968C26.6587 33.964 24.6733 34.524 22.5522 34.524C15.9596 34.524 10.5888 29.1617 10.5888 22.5607C10.5888 15.9596 15.9511 10.5973 22.5522 10.5973C24.6733 10.5973 26.6587 11.1488 28.3896 12.1246V0.763618C26.5315 0.263024 24.5715 0 22.5522 0C10.0967 0 0 10.0967 0 22.5607C0 35.0246 10.0967 45.1213 22.5607 45.1213C24.58 45.1213 26.5315 44.8498 28.3981 44.3577V32.9968H28.3896Z" fill="white"/>
<path d="M37.849 12.71H28.3887V21.7376H37.849V12.71Z" fill="white"/>
<path d="M48.0562 12.71L39.0286 21.7376H34.8711V12.71H48.0562Z" fill="white"/>
<path d="M37.849 23.3838H28.3887V32.4114H37.849V23.3838Z" fill="white"/>
<path d="M48.0562 32.403L39.0286 23.3838H34.8711V32.403H48.0562Z" fill="white"/>
</g>
<defs>
<clipPath id="clip0_4_6669">
<rect width="325.81" height="100" fill="white"/>
</clipPath>
</defs>
</svg>
