<svg width="734" height="100" viewBox="0 0 734 100" fill="none" xmlns="http://www.w3.org/2000/svg">
<g clip-path="url(#clip0_4_6686)">
<path d="M67.683 73.3559L53.4343 100L0 0H28.4973L67.683 73.3559Z" fill="white"/>
<path d="M57 39.9993L78.373 0H106.87L71.2487 66.6434L57 39.9993Z" fill="white"/>
<path d="M114.137 0H139.143L139.074 100H114.137V0Z" fill="white"/>
<path d="M149.758 0H174.768L174.695 100H149.758V0Z" fill="white"/>
<path d="M181.82 25.0009V0H192.509C206.281 0 218.036 4.88182 227.775 14.6418C237.51 24.4054 242.379 36.1909 242.379 50.0019C242.379 63.8092 237.51 75.5946 227.775 85.3583C218.036 95.1182 206.281 100 192.509 100H181.82V74.9991H192.509C199.395 74.9991 205.272 72.5582 210.142 67.6801C215.011 62.7983 217.446 56.9055 217.446 50.0019C217.446 43.0945 215.011 37.2018 210.142 32.32C205.272 27.4418 199.395 25.0009 192.509 25.0009H181.82Z" fill="white"/>
<path d="M253.211 0H278.218L278.148 100H253.211V0Z" fill="white"/>
<path d="M285.27 0H324.452V25.0009H285.27V0Z" fill="white"/>
<path d="M285.27 74.999H324.452V100H285.27V74.999Z" fill="white"/>
<path d="M285.27 37.4995H324.452V62.5004H285.27V37.4995Z" fill="white"/>
<path d="M409.877 53.5713H434.954C434.195 65.8567 429.351 76.4511 420.423 85.3582C410.684 95.1182 398.929 100 385.153 100C371.381 100 359.626 95.1182 349.887 85.3582C341.006 76.4511 336.185 65.8567 335.426 53.5713H360.502C361.217 58.9531 363.567 63.6437 367.557 67.6433C372.4 72.5471 378.267 74.9991 385.153 74.9991C392.043 74.9991 397.931 72.5471 402.823 67.6433C406.812 63.6437 409.166 58.9531 409.877 53.5713Z" fill="white"/>
<path d="M360.502 46.4287H335.426C336.185 34.1433 341.006 23.5489 349.887 14.6418C359.626 4.88182 371.381 0 385.153 0C398.929 0 410.684 4.88182 420.423 14.6418C429.351 23.5489 434.195 34.1433 434.954 46.4287H409.877C409.166 41.047 406.812 36.3342 402.823 32.2869C397.931 27.4271 392.043 25.0009 385.153 25.0009C378.267 25.0009 372.4 27.4271 367.557 32.2869C363.567 36.3342 361.217 41.047 360.502 46.4287Z" fill="white"/>
<path d="M445.855 0H470.792V100H445.855V0Z" fill="white"/>
<path d="M477.918 25.0009V0H491.312C499.911 0 507.248 3.04746 513.327 9.14238C519.406 15.2373 522.446 22.5968 522.446 31.2135C522.446 39.8816 519.406 47.2632 513.327 53.3581C507.248 59.453 499.911 62.5005 491.312 62.5005H477.918V37.4996H491.312C493.021 37.4996 494.484 36.893 495.694 35.6799C496.904 34.4631 497.513 32.978 497.513 31.2135C497.513 29.5004 496.904 28.0374 495.694 26.8206C494.484 25.6075 493.021 25.0009 491.312 25.0009H477.918Z" fill="white"/>
<path d="M577.659 60.0006L556.286 99.9999H527.789L563.411 33.3564L577.659 60.0006Z" fill="white"/>
<path d="M588.064 66.0699L566.977 26.6441L581.225 0L634.66 100H606.159L601.388 91.0709H568.187L581.508 66.0699H588.064Z" fill="white"/>
<path d="M688.236 74.7861V99.8569C675.982 99.0959 665.411 94.2619 656.53 85.3585C646.791 75.5948 641.926 63.8093 641.926 50.002C641.926 36.1911 646.791 24.4056 656.53 14.642C665.411 5.73853 675.982 0.9045 688.236 0.143555V25.2143C682.868 25.9275 678.189 28.2875 674.2 32.2871C669.308 37.191 666.859 43.0947 666.859 50.002C666.859 56.9057 669.308 62.7874 674.2 67.6435C678.189 71.6908 682.868 74.0729 688.236 74.7861Z" fill="white"/>
<path d="M712.6 36.0734C711.698 34.739 710.653 33.4781 709.465 32.2871C705.428 28.2875 700.724 25.9275 695.359 25.2143V0.143555C707.613 0.904501 718.181 5.73853 727.061 14.642C729.437 17.0241 731.527 19.5495 733.331 22.2147L712.6 36.0734Z" fill="white"/>
<path d="M733.331 77.7858C731.527 80.4546 729.437 82.9764 727.061 85.3585C718.181 94.2619 707.613 99.0959 695.359 99.8569V74.7861C700.724 74.0729 705.428 71.6908 709.465 67.6435C710.653 66.4524 711.698 65.2136 712.6 63.9307L733.331 77.7858Z" fill="white"/>
</g>
<defs>
<clipPath id="clip0_4_6686">
<rect width="733.333" height="100" fill="white"/>
</clipPath>
</defs>
</svg>
