<svg width="389" height="100" viewBox="0 0 389 100" fill="none" xmlns="http://www.w3.org/2000/svg">
<g clip-path="url(#clip0_4_6706)">
<path d="M0 0.0117188L20.8909 99.9884L41.6732 0.0117188H30.426L20.8909 56.204L11.2491 0.0117188H0Z" fill="white"/>
<path d="M46.2812 0.0117188H57.5304V99.9884H46.2812V0.0117188Z" fill="white"/>
<path d="M67.5898 0V99.9941H78.8428V48.3298L94.4907 99.9922H104.864L92.3457 52.7164C99.3009 48.5526 101.349 43.1004 101.349 43.1004V11.3365C96.7405 1.12571 88.7933 0 88.7933 0H67.5898ZM78.8428 10.1779H90.0958V44.9256H78.8428V10.1779Z" fill="white"/>
<path d="M104.879 0.0117188H138.518V10.1683H127.268V99.9884H116.019V10.1702H104.879V0.0117188Z" fill="white"/>
<path d="M200.755 0L179.023 99.8875V99.9922H190.17L192.526 86.5147H208.244L210.494 99.9922H221.747L200.755 0ZM200.755 43.0985L205.889 77.5304H194.776L200.755 43.0985Z" fill="white"/>
<path d="M226.254 0.0117188H237.505V89.8299H254.325V99.9884H226.256L226.254 0.0117188Z" fill="white"/>
<path d="M346.562 0.0117188H356.847L367.345 43.1044L376.88 0.0117188H388.234L372.487 58.8216V99.9884H361.238V58.8236L346.562 0.0117188Z" fill="white"/>
<path d="M326.376 0.0114766C313.59 0.0114766 309.48 11.3383 309.48 11.3383C309.585 11.4972 309.48 86.5184 309.48 88.6575C311.175 100.81 326.376 99.9881 326.376 99.9881C343.241 99.9881 343.236 88.6575 343.236 88.6575V11.3364C338.876 -0.54847 326.376 0.0114766 326.376 0.0114766ZM320.732 11.3364H331.986V89.8142H320.732V11.3364Z" fill="white"/>
<path d="M142.91 0.0117188H154.268V88.6558H165.624V0.0117188H176.764V88.6558C176.764 88.6558 173.123 99.9884 160.373 99.9884C147.625 99.9884 142.91 88.6558 142.91 88.6558V0.0117188Z" fill="white"/>
<path d="M266.758 0V99.9941H289.369C299.863 97.2661 300.513 89.8143 300.513 89.8143C300.513 89.8143 300.497 63.1074 300.497 56.2039C299.709 51.8445 296.12 51.6992 296.12 51.6992C296.12 51.6992 296.105 50.4843 296.12 49.5233C300.086 49.2191 300.515 44.9236 300.515 44.9236C300.515 44.9236 300.497 18.2419 300.515 11.3346C298.797 3.18143 289.369 0 289.369 0H266.758ZM278.044 11.4063H289.367V44.9236H278.044V11.4063ZM278.011 55.0685H289.367V89.8143H278.011V55.0685Z" fill="white"/>
</g>
<defs>
<clipPath id="clip0_4_6706">
<rect width="388.235" height="100" fill="white"/>
</clipPath>
</defs>
</svg>
