<svg width="248" height="100" viewBox="0 0 248 100" fill="none" xmlns="http://www.w3.org/2000/svg">
<g clip-path="url(#clip0_4_6718)">
<path fill-rule="evenodd" clip-rule="evenodd" d="M71.4366 0.131914C67.9059 0.483739 64.8734 1.62244 61.4125 3.89543C60.5449 4.46478 58.9455 5.81345 57.8583 6.89225L55.8813 8.85377H54.5402C52.0529 8.85377 49.7427 10.2037 48.2157 12.5492C47.2884 13.9735 47.2871 13.9741 46.0152 14.1122C45.3158 14.1885 44.0325 14.355 43.1642 14.483C41.8809 14.6728 41.3542 14.6507 40.3482 14.3657C39.5003 14.1261 37.765 13.9842 34.8316 13.9155C31.6074 13.8398 30.3444 13.7276 29.7142 13.4603C29.2534 13.2655 28.679 13.1059 28.4378 13.1059C28.1725 13.1059 27.6756 12.6677 27.1793 11.9956C25.1121 9.19866 24.0059 8.83044 18.1167 8.97987C15.6637 9.04229 13.2005 9.06625 12.6432 9.03283C9.6082 8.85377 8.02404 8.98933 6.91843 9.52274C1.17586 12.2919 -2.14921 25.6998 1.57381 31.0749C3.87959 34.4046 9.03191 35.7432 13.0843 34.0654C15.4333 33.0931 16.7312 33.9298 15.1153 35.3749C14.1741 36.216 11.7953 39.8509 10.6497 42.1977C8.90942 45.762 8.20556 48.4498 7.45664 54.3937C7.34811 55.2556 7.09614 57.0683 6.89749 58.422C6.69883 59.7757 6.39419 61.8904 6.22029 63.1212C6.04702 64.352 5.80076 66.0644 5.67446 66.9257C5.54753 67.787 5.29556 69.5493 5.11404 70.8418C4.69706 73.8115 4.14616 77.6639 3.70442 80.6885C2.90092 86.2017 3.0634 88.2231 4.56568 91.3712C8.61619 99.8629 21.3992 101.292 28.1573 94.008C30.4605 91.5263 31.6163 89.0736 32.2294 85.3662C32.7346 82.3171 32.4128 82.5611 36.1206 82.4066C42.0599 82.1588 47.117 80.5737 51.7261 77.5145L53.0779 76.6173L54.0915 77.7226C58.3838 82.4028 65.6179 83.7698 71.3471 80.9829L72.4972 80.4237L73.6002 80.9792C77.9091 83.1487 83.9918 82.7408 88.4999 79.9811C89.3402 79.4672 89.2584 79.3512 89.7934 81.807C91.7228 90.6606 98.5196 97.3346 107.715 99.4033C119.698 102.1 129.096 95.4166 129.103 84.1922L129.104 81.9892L130.286 82.1532C139.611 83.4445 149.786 80.0454 156.963 73.2396L157.904 72.3481L160.229 74.6804C167.389 81.8593 178.966 84.6355 186.645 81.0151C187.416 80.6519 187.484 80.6563 188.516 81.145C192.335 82.9526 197.567 82.9463 201.502 81.1292L202.83 80.5157L203.867 81.0308C207.39 82.7811 212.666 82.7698 216.685 81.0044L217.955 80.4464L218.976 80.9962C222.364 82.8209 228.394 82.7666 232.147 80.8789C237.583 78.1425 239.932 74.4389 240.958 66.978C241.418 63.6426 241.808 60.8841 242.724 54.5059C242.909 53.2134 243.226 50.9977 243.427 49.5822C243.629 48.1667 243.938 46.0022 244.115 44.7708C244.525 41.9203 244.798 39.9915 245.208 37.0508C245.387 35.7583 245.912 32.1833 246.373 29.1064C248.007 18.1923 247.404 14.7238 243.206 10.913C239.279 7.34748 232.014 6.49188 226.808 8.98176C225.98 9.37772 225.938 9.37646 225.006 8.92817C219.993 6.51394 212.314 7.48115 208.293 11.0322C205.516 13.4861 203.215 17.5277 203.215 19.9539C203.215 20.3537 203.12 21.1664 203.003 21.7603C202.886 22.3543 202.62 24.0251 202.412 25.4734C201.956 28.6461 202.039 28.5812 200.008 27.37C189.306 20.9854 173.8 22.9772 163.831 32.0156C161.669 33.9758 161.897 33.9557 160.554 32.3119C156.961 27.9128 148.728 23.8473 143.412 23.8473C142.883 23.8473 142.128 23.783 141.734 23.7048L141.017 23.5623L141.164 21.8587C142.006 12.0442 131.975 4.61358 122.458 8.00195C116.696 10.0543 113.068 14.4414 112.224 20.3789C111.197 27.6033 111.389 27.2142 109.343 26.1972C105.716 24.3946 103.16 23.8675 97.6799 23.7918C93.7684 23.7376 93.6275 23.7193 93.6922 23.2881C95.8197 9.11858 85.8051 -1.30187 71.4366 0.131914ZM79.7826 4.81661C88.9423 8.13751 92.652 18.6046 87.7973 27.428C87.3569 28.2281 86.8752 29.1096 86.726 29.387C86.3573 30.0755 86.6308 30.2621 87.4952 29.9103C93.8376 27.3277 100.447 26.904 105.121 28.7804C108.127 29.9872 110.327 31.3769 112.235 33.2722C114.126 35.1505 114.109 35.1606 114.562 31.8624C115.618 24.1645 116.063 21.1468 116.289 20.155C118.162 11.8853 128.757 8.36386 134.422 14.128C136.857 16.6059 137.51 19.1015 136.881 23.5302C136.16 28.6058 136.158 28.1865 136.905 27.9999C145.133 25.9419 155.398 30.6984 160.182 38.7847C161.044 40.2412 161.992 40.9802 161.992 40.1952C161.992 39.8844 164.11 37.4083 165.691 35.8699C169.753 31.9179 174.246 29.5068 180.238 28.0623C181.918 27.6575 189.148 27.6575 190.826 28.0629C195.884 29.2836 200.526 31.9702 203.018 35.1202C204.297 36.7368 204.836 36.7444 205.057 35.1486C205.143 34.5332 205.378 32.8214 205.58 31.3441C207.162 19.7622 207.444 18.522 208.998 16.2812C212.499 11.2308 220.654 9.88402 224.932 13.6488C225.754 14.372 225.694 14.3777 227.13 13.437C232.589 9.86196 239.913 11.4073 242.485 16.6778C243.303 18.353 243.475 21.6222 242.922 24.9665C242.485 27.6058 241.917 31.4828 240.701 40.1271C240.524 41.3888 240.222 43.5035 240.031 44.8269C239.504 48.4713 239.298 49.9215 238.938 52.4914C236.601 69.1829 236.387 70.3532 235.286 72.4345C232.112 78.4344 223.423 80.3209 218.824 76.0076C218.206 75.4281 217.594 75.413 217.091 75.9641C214.465 78.8468 208.076 79.116 204.285 76.5032C203.089 75.6785 202.333 75.5738 201.801 76.1576C200.124 77.9994 194.706 79.0429 191.824 78.0794C190.688 77.7005 188.518 76.4433 188.247 76.0076C187.979 75.5763 187.287 75.7484 186.059 76.5523C183.909 77.9609 182.696 78.3102 179.635 78.4029C171.131 78.6614 163.354 74.2012 159.524 66.8696C158.671 65.2378 158.426 65.1704 157.563 66.3305C147.071 80.4382 125.91 82.5498 116.598 70.4175C115.445 68.9169 115.068 68.9862 114.885 70.7321C114.808 71.4698 114.666 72.7522 114.571 73.5833L114.397 75.094L115.499 75.0965C123.008 75.1148 127.351 82.9218 123.764 89.9538C119.076 99.1454 103.007 97.3882 96.3293 86.9545C93.3996 82.377 92.7021 77.797 93.823 70.5064C94.1625 68.3002 94.504 65.9421 95.185 61.1073C95.5398 58.5878 95.5683 58.3892 96.104 54.7297C97.0674 48.1453 97.0713 48.4637 96.0272 48.4637C95.0187 48.4637 94.0248 49.552 93.8566 50.8401C93.7785 51.441 93.5735 52.8886 93.4022 54.0582C93.2308 55.2272 92.9262 57.3419 92.7256 58.7574C92.5251 60.1729 92.268 61.9352 92.1538 62.6735C92.0402 63.4125 91.7895 65.1748 91.5965 66.5903C90.9872 71.0682 90.0339 73.2214 87.7409 75.3033C83.5659 79.0939 77.1589 79.4117 73.5298 76.0076C72.8869 75.4048 72.4711 75.4193 71.5902 76.0757C67.164 79.3751 61.2005 79.0914 57.5994 75.4105C56.5153 74.3027 55.2174 71.8859 55.2174 70.9755C55.2174 69.9408 54.6513 70.0757 52.9269 71.5209C50.2212 73.7882 45.4332 76.6602 44.36 76.6602C44.1861 76.6602 43.9481 76.744 43.8307 76.8462C43.7126 76.9483 43.0081 77.2024 42.2649 77.4105C38.0024 78.6028 33.7418 78.8127 31.0794 77.9609C29.2204 77.3657 29.3232 77.2699 28.9418 79.9533C27.9174 87.1588 27.3976 88.7306 25.2822 91.02C19.0744 97.7381 7.86347 94.6619 7.30432 86.0863C7.18373 84.242 7.24719 83.7099 9.14679 70.618C9.33465 69.3261 9.64247 67.1609 9.83097 65.8065C10.1394 63.596 10.392 61.8476 11.0756 57.1912C11.193 56.3911 11.4494 54.6288 11.6455 53.2751C12.8806 44.7399 18.2182 35.9058 23.9627 32.8888C24.6589 32.5231 24.7903 31.7684 24.1874 31.5994C23.0012 31.2678 22.2357 31.2268 21.106 31.4343C19.0008 31.8208 16.4481 31.0969 15.3717 29.8082C14.9535 29.3075 14.5415 29.3479 13.6981 29.9734C8.75963 33.6341 3.18208 30.8989 3.18208 24.817C3.18208 20.2893 5.58497 14.2371 7.98469 12.7201C9.01096 12.0713 11.7141 11.8695 12.2504 12.4023C12.5753 12.7251 13.8263 12.7358 14.1455 12.4187C14.4597 12.1066 16.9089 12.1066 17.2224 12.4187C17.5702 12.7642 18.3185 12.7138 19.1829 12.285C21.4468 11.1633 24.6317 12.8336 24.9674 15.3178L25.0918 16.2396L26.3573 16.2118C27.6051 16.1847 28.5819 16.4861 29.803 17.2755C30.3787 17.6475 30.4631 17.6456 31.6709 17.2383C32.8831 16.8285 32.9961 16.8266 34.3911 17.1904C35.4428 17.464 36.007 17.5088 36.424 17.3518C37.5245 16.9363 38.7697 17.1015 40.128 17.8436L41.4271 18.5529L42.6343 18.0353C43.5298 17.6513 44.6189 17.4539 46.8524 17.2698L49.8626 17.022L50.3221 15.7913C51.4912 12.6595 54.2076 11.1854 56.5629 12.4048C57.8774 13.0851 58.1642 13.0082 59.028 11.744C63.3534 5.41055 72.7606 2.27061 79.7826 4.81661ZM71.7743 8.27181C71.6505 8.31594 71.0933 8.47862 70.5354 8.63309C59.1778 11.7831 55.4973 27.6039 65.0226 32.3302C66.2139 32.921 66.2411 33.061 65.3558 34.0622C63.8808 35.7312 63.7354 36.3693 62.0808 48.4637C61.8872 49.8792 61.6385 51.5406 61.5274 52.156C61.4163 52.7714 61.2653 53.8287 61.1923 54.5059C61.1187 55.1824 60.9632 56.3407 60.8457 57.079C60.729 57.818 60.4751 59.5803 60.2821 60.9957C60.0886 62.4106 59.7693 64.5821 59.5719 65.8198C58.6986 71.3141 60.1724 73.891 64.3409 74.1577C68.5253 74.4244 71.4576 71.6911 71.9774 67.0373C72.0529 66.3608 72.2103 65.2025 72.3277 64.4642C72.4445 63.7259 72.7022 61.9636 72.8995 60.5481C73.0976 59.1326 73.4041 56.9674 73.5818 55.7367C73.7589 54.5059 74.0591 52.3912 74.2482 51.0368C74.4374 49.6831 74.6881 47.9713 74.8055 47.233C74.9229 46.494 75.1812 44.6315 75.3799 43.093C75.5785 41.554 75.8368 39.7501 75.9543 39.083C76.3021 37.1013 76.217 35.4525 75.7162 34.4771C75.1006 33.2766 75.14 33.0982 76.0939 32.7861C86.6194 29.3346 88.9867 14.4779 79.8271 9.35692C78.3375 8.52464 73.0608 7.81343 71.7743 8.27181ZM8.964 15.7869C7.64768 17.3411 6.55857 21.068 6.40307 24.5497L6.29708 26.9305L6.97492 27.6827C8.40104 29.2666 11.2806 28.6165 13.5127 26.2067C14.4622 25.1821 16.2469 21.8209 16.2469 21.0586C16.2469 20.324 16.6995 19.819 17.3576 19.819C18.3039 19.819 18.4137 19.2288 17.5994 18.5189C17.0308 18.0233 16.9229 17.7641 16.9229 16.8947C16.9229 15.7686 16.4557 15.1198 15.6446 15.1198C14.5644 15.1198 14.0681 16.8789 14.7681 18.2244C16.0527 20.6922 10.8617 27.9047 8.94115 26.3214C8.21952 25.7262 8.34646 22.9198 9.18042 21.0163C9.35052 20.6286 9.48951 20.2307 9.48951 20.1323C9.48951 20.034 9.95917 19.0252 10.5342 17.8902C11.7312 15.5265 11.7141 15.1198 10.4174 15.1198C9.70848 15.1198 9.41525 15.2541 8.964 15.7869ZM19.8659 15.5397C19.1353 16.8966 20.5234 18.2509 21.5217 17.1544C22.2497 16.3556 21.9235 15.2446 20.9359 15.1633C20.2943 15.1103 20.0518 15.1954 19.8659 15.5397ZM53.6872 15.7352C53.2867 16.3026 52.6381 18.1878 52.0897 20.3789C51.9666 20.8713 51.7077 21.8845 51.5141 22.6311C51.3211 23.3776 51.1631 24.3877 51.1631 24.875C51.1631 26.7496 48.8326 28.1241 47.7841 26.8681C47.4997 26.5282 47.8748 25.2149 49.0445 22.4545C49.855 20.5409 49.1023 19.4268 47.6413 20.3776C47.2643 20.6229 46.8543 20.6872 46.3123 20.5863C43.3718 20.0384 41.0305 22.0857 40.4599 25.7042C40.2435 27.0755 38.825 27.7918 37.8603 27.0156C37.2948 26.5604 37.3506 25.9583 38.2169 23.1758C38.8497 21.1437 38.8922 20.3341 38.3743 20.1708C37.3906 19.8612 36.8486 20.3663 36.193 22.2055C34.447 27.102 32.0434 29.0125 33.4841 24.3593C34.6209 20.6878 34.6024 20.7786 34.2826 20.3959C33.9767 20.0296 32.5785 19.9047 32.3792 20.2257C32.2268 20.4697 31.3269 23.7357 31.1117 24.8227C30.8826 25.9816 30.2257 26.8025 29.2267 27.1802C28.1325 27.5938 28.0354 27.4305 28.526 25.9961C28.969 24.7017 28.6872 23.2616 27.7898 22.2326C27.5645 21.9747 27.5061 21.6443 27.6115 21.2256C27.9986 19.6853 27.9231 19.4892 26.9184 19.4161C25.7087 19.3284 25.2054 19.7975 25.2879 20.9362C25.3952 22.411 22.6077 26.4765 21.0445 27.1253C20.1185 27.51 18.8396 27.0163 19.0452 26.353C19.11 26.1443 19.3702 25.2685 19.624 24.4066C19.8779 23.5453 20.1946 22.4823 20.3279 22.0453C20.823 20.4192 20.0728 19.5504 18.771 20.2421C18.3128 20.4861 17.4738 23.2742 17.0054 26.1096C16.7039 27.9343 20.373 29.4324 21.954 28.1297C22.2675 27.8719 22.4541 27.8763 23.1713 28.1594C24.2661 28.5919 29.7745 28.5541 30.312 28.1108C30.5989 27.8744 30.802 27.8895 31.4506 28.1953C32.5689 28.7224 33.7323 28.4639 34.6729 27.4797C35.081 27.0522 35.4358 26.7401 35.4612 26.7855C35.4866 26.8309 35.6605 27.1663 35.8483 27.5301C36.37 28.5421 39.2737 28.8939 40.2771 28.0667C40.5138 27.8712 40.7645 27.9059 41.3376 28.213C42.4813 28.8246 43.8408 28.5667 44.8011 27.5553C45.6884 26.6209 45.9816 26.5547 45.9816 27.2886C45.9816 28.4141 49.1601 28.9721 50.4396 28.0717C50.9187 27.735 51.0139 27.7388 51.7825 28.1279C53.2099 28.851 55.192 28.6178 56.2875 27.5976C57.2827 26.6714 56.6258 25.9318 55.5144 26.7281C53.8605 27.9135 52.5854 27.3618 52.9948 25.6373C53.9024 21.8152 54.4038 20.2925 55.1476 19.097C55.927 17.8455 56.2646 16.3985 55.941 15.6936C55.5576 14.8569 54.2908 14.8802 53.6872 15.7352ZM125.349 15.768C124.286 16.0403 122.701 17.0283 121.996 17.8568C120.811 19.2496 120.52 20.2723 119.748 25.7496C119.558 27.1033 119.248 29.2684 119.06 30.561C118.871 31.8529 118.567 33.9676 118.383 35.2602C118.2 36.5527 117.955 38.2141 117.84 38.9525C117.726 39.6914 117.573 40.7488 117.502 41.3024C117.43 41.8566 117.277 42.9638 117.163 43.7639C117.049 44.564 116.793 46.3767 116.593 47.7922C116.394 49.2077 116.131 50.9196 116.009 51.5967C113.504 65.5171 123.766 76.0839 137.716 73.9477C161.593 70.292 166.975 37.1662 144.49 32.2577C137.699 30.7747 133.154 33.4866 133.157 39.0174C133.16 42.4921 134.81 43.9619 139.105 44.3143C150.142 45.2191 147.227 61.6666 136.03 61.6666C130.36 61.6666 127.562 57.7953 128.59 51.3729C128.738 50.4498 129.02 48.5362 129.218 47.1207C129.416 45.7052 129.682 43.8925 129.808 43.093C129.935 42.2929 130.13 40.9335 130.241 40.0716C130.352 39.2103 130.603 37.3976 130.796 36.0433C130.989 34.6896 131.241 32.8264 131.356 31.9033C131.47 30.9803 131.664 29.6209 131.786 28.8826C133.323 19.5573 133.051 17.5618 130.033 16.0189C129.374 15.6816 126.321 15.5183 125.349 15.768ZM215.264 16.3505C213.136 17.3739 211.629 19.4186 211.304 21.7212C211.088 23.2508 210.549 26.9362 210.06 30.2249C209.878 31.4557 209.638 33.2432 209.528 34.1971C209.418 35.1505 209.273 36.107 209.206 36.3226C209.139 36.5382 208.979 37.571 208.851 38.617C208.723 39.663 208.461 41.5766 208.27 42.8692C208.078 44.1611 207.78 46.2254 207.606 47.4568C207.432 48.6875 207.127 50.8023 206.928 52.156C206.728 53.5097 206.481 55.272 206.379 56.0721C206.276 56.8722 206.087 58.1811 205.959 58.9813C205.83 59.7814 205.561 61.6445 205.361 63.1212C205.16 64.5985 204.9 66.3526 204.782 67.019C203.873 72.1501 207.376 75.35 212.282 73.8714C215.618 72.8657 216.765 71.094 217.504 65.8065C217.711 64.3299 217.972 62.5676 218.084 61.8904C218.196 61.2139 218.448 59.4516 218.642 57.9743C218.836 56.4977 219.143 54.2821 219.322 53.0513C219.502 51.8206 219.804 49.7058 219.993 48.3515C220.182 46.9978 220.434 45.2859 220.551 44.5476C220.668 43.8087 220.823 42.7009 220.894 42.0855C220.965 41.4701 221.118 40.3125 221.235 39.5124C221.351 38.7122 221.606 36.95 221.801 35.5963C221.996 34.2419 222.26 32.4796 222.388 31.6795C222.516 30.88 222.713 29.52 222.824 28.6587C222.936 27.7968 223.187 25.9847 223.382 24.6304C224.007 20.3076 224.013 20.1557 223.623 18.9873C222.661 16.1122 218.493 14.797 215.264 16.3505ZM230.255 16.5201C228.542 17.3732 227.315 18.8171 226.802 20.5794C226.501 21.6147 226.358 22.4949 225.724 27.2042C225.506 28.829 225.029 32.1682 224.51 35.7079C224.321 37.0004 224.06 38.8629 223.931 39.8478C223.802 40.8326 223.653 41.7891 223.599 41.9739C223.545 42.1586 223.396 43.1655 223.267 44.2116C223.139 45.2576 222.888 47.1207 222.709 48.3515C221.893 53.963 221.645 55.6616 221.338 57.7505C221.157 58.9813 220.91 60.794 220.788 61.7788C220.667 62.7631 220.451 64.1231 220.308 64.7996C218.829 71.7989 222.23 75.8329 227.85 73.7434C231.247 72.4811 232.059 70.8935 233.054 63.5689C233.616 59.4277 234.057 56.3161 234.292 54.8413C234.409 54.103 234.563 52.9952 234.633 52.3798C234.704 51.7644 234.859 50.6566 234.977 49.9183C235.096 49.1793 235.352 47.4171 235.546 46.0022C236.261 40.7923 236.561 38.6977 236.78 37.3863C236.903 36.6479 237.108 35.2381 237.237 34.2533C237.364 33.2684 237.617 31.4557 237.798 30.2249C237.978 28.9942 238.227 27.1764 238.351 26.1859C238.475 25.1947 238.679 23.8467 238.804 23.1897C239.951 17.1797 235.656 13.8285 230.255 16.5201ZM46.5395 22.2717C46.7362 22.5882 45.4751 24.9299 44.5098 26.0409C42.8964 27.899 41.9298 26.5907 43.2017 24.2698C44.0922 22.6443 46.0444 21.476 46.5395 22.2717ZM26.6093 24.6689C26.6093 26.0144 25.3381 27.4759 24.7104 26.8517C24.1893 26.3347 24.2667 25.986 25.1851 24.7168C26.0095 23.5768 26.6093 23.5566 26.6093 24.6689ZM35.2816 32.3416C27.0161 34.1398 19.7853 40.3686 17.2154 47.9038C16.2742 50.6636 16.3574 50.2386 15.2207 58.0859C15.0341 59.3785 14.7808 61.0903 14.6583 61.8904C14.5365 62.6906 14.3365 64.1004 14.2147 65.0235C14.0928 65.9465 13.8371 67.7592 13.6473 69.0518C13.4575 70.3437 13.2075 72.1564 13.0926 73.0795C12.8577 74.9609 12.6153 76.5763 12.0504 80.017C10.7874 87.7086 12.2973 90.7426 17.2611 90.4828C21.1409 90.2798 23.4442 88.0011 24.108 83.7093C24.334 82.2496 24.4717 81.278 25.378 74.7579C25.5665 73.4042 25.8229 71.6924 25.9486 70.954C26.0736 70.2151 26.2698 68.8557 26.3846 67.9326C26.4989 67.0096 26.7401 65.2473 26.9209 64.0165C27.6438 59.096 28.0005 56.5544 28.1935 54.9536C29.0109 48.1573 33.8789 43.6624 39.6748 44.3528C49.8868 45.569 47.2903 60.9655 36.7343 61.7858C31.6271 62.1824 28.8618 64.741 28.8618 69.0688C28.8618 73.4855 32.5753 75.227 39.1112 73.8758C62.1132 69.1211 66.4252 37.0004 44.6983 32.2577C42.4928 31.776 37.6825 31.8189 35.2816 32.3416ZM93.2873 32.3466C86.1497 34.0465 80.1888 39.4222 78.0195 46.1138C77.5816 47.4663 77.1684 49.7638 76.5115 54.5059C76.3154 55.9214 76.0577 57.6837 75.939 58.422C75.8203 59.1603 75.6141 60.5702 75.4801 61.555C75.3462 62.5392 75.0924 64.4024 74.9153 65.6949C74.094 71.7006 75.6287 74.1986 80.1406 74.1986C84.7572 74.1986 86.7368 71.6041 87.6545 64.352C87.7713 63.4289 88.0163 61.6666 88.1985 60.4359C88.7779 56.5242 89.2596 53.0999 89.457 51.482C90.3449 44.2179 98.4834 41.4096 100.937 47.5205C101.281 48.3767 101.152 49.9517 100.28 55.5128C100.165 56.2512 99.9083 58.0134 99.7103 59.4289C99.5129 60.8444 99.2044 63.0096 99.0254 64.2404C98.8471 65.4711 98.5424 67.6363 98.3495 69.0518C98.1566 70.4673 97.9014 72.111 97.7827 72.705C96.0564 81.348 101.112 89.5434 109.252 91.2962C116.187 92.7892 120.761 90.1947 120.767 84.7635C120.771 81.0845 119.189 79.6128 114.827 79.2371C110.892 78.8978 109.645 76.6784 110.506 71.5455C110.684 70.4818 110.995 68.403 111.195 66.9257C111.397 65.449 111.654 63.6363 111.767 62.8974C111.881 62.159 112.132 60.3968 112.326 58.9813C112.787 55.6106 113.3 52.0456 113.57 50.3401C114.635 43.6044 112.13 37.6385 106.818 34.2564C103.342 32.044 97.8265 31.2653 93.2873 32.3466ZM181.027 32.2527C172.452 34.2306 165.66 39.885 162.766 47.4568C157.474 61.3028 165.354 74.169 179.187 74.2667C188.338 74.3317 190.199 62.8097 181.186 61.8835C176.473 61.3993 173.864 58.7757 173.851 54.5059C173.822 45.1428 186.825 40.3566 190.803 48.2657C191.987 50.6182 191.976 50.8414 190.032 63.7927C189.425 67.8406 189.353 70.408 189.821 71.3872C192.501 76.9981 202.089 73.9862 202.089 67.5335C202.089 67.1111 202.234 65.8954 202.412 64.8318C202.59 63.7681 202.904 61.6893 203.111 60.212C203.318 58.7354 203.624 56.6206 203.791 55.5128C205.226 46.0136 203.13 39.7444 197.022 35.2608C193.088 32.3743 186.153 31.0698 181.027 32.2527Z" fill="white"/>
</g>
<defs>
<clipPath id="clip0_4_6718">
<rect width="247.21" height="100" fill="white"/>
</clipPath>
</defs>
</svg>
