<svg width="352" height="100" viewBox="0 0 352 100" fill="none" xmlns="http://www.w3.org/2000/svg">
<g clip-path="url(#clip0_4_6723)">
<path d="M76.4434 9.92993C72.9272 14.9586 44.4726 59.8979 37.4403 70.4007H36.5287C26.8268 55.8241 3.06034 15.4678 0 10.6301L19.9899 0C21.9433 4.07382 35.2916 31.5721 38.1566 37.6828C40.9565 31.5084 55.4768 2.92806 56.7791 0L76.4434 9.92993Z" fill="white"/>
<path d="M102.164 53.5311C109.587 53.7858 117.661 51.7488 117.661 48.2479C117.661 46.7839 116.359 45.8927 110.173 42.4554C105.355 39.782 99.8203 36.0264 99.8203 29.7884C99.8203 21.4498 111.15 12.3474 130.489 10.6924L132.572 23.1685C123.066 23.1685 118.247 24.7598 118.247 27.8152C118.247 29.5974 120.657 30.7432 125.67 33.0984C129.707 35.008 136.284 38.3816 136.284 45.1289C136.284 53.3402 127.494 63.7793 104.313 66.3891L102.164 53.5311Z" fill="white"/>
<path d="M138.242 61.807C139.544 58.8153 154.911 19.8594 159.339 10.375H160.12C164.743 17.7588 176.073 36.0273 178.417 39.8465C181.412 35.4544 192.156 18.0134 196.193 11.5844H196.975C202.249 22.5965 217.551 56.4601 219.634 60.5339L204.202 67.2175C201.793 61.2341 194.5 42.329 193.654 40.2921C192.742 41.6288 182.975 56.3328 177.245 64.1621H176.464C170.604 55.5053 162.595 42.8382 161.358 40.6104C160.055 44.4932 154.586 63.7166 153.218 67.2175L138.242 61.807Z" fill="white"/>
<path d="M244.893 42.4566C244.893 49.9041 245.154 63.2713 245.219 64.9899H227.508C227.638 61.6799 227.768 44.2389 227.768 42.3293V34.2453C227.768 32.9722 227.508 13.8126 227.508 12.0303H245.219C245.154 13.367 244.893 25.4611 244.893 34.3726V42.4566Z" fill="white"/>
<path d="M277.908 12.0303C277.842 13.7489 277.517 29.0894 277.517 38.5101V52.1319C279.34 52.1319 288.326 52.1319 294.446 51.8137L294.511 65.6901C292.688 65.6901 266.252 64.9263 260.132 64.9263C260.392 60.9798 260.392 45.0027 260.392 43.2205V33.3542C260.392 32.1448 260.262 13.4306 260.066 12.0303H277.908Z" fill="white"/>
<path d="M337.941 65.6889C335.206 65.6889 307.663 64.9251 303.691 64.9251C303.952 60.9786 303.952 45.0016 303.952 43.2829V33.353C303.952 32.1436 303.822 14.1933 303.691 12.0291C307.989 12.0291 333.579 10.8833 336.378 10.6924L336.704 22.9775C333.904 22.9775 321.923 23.3594 320.556 23.3594V33.2257C322.053 33.2257 330.844 32.8438 334.23 32.5255L334.49 44.4287C332.406 44.4287 322.314 44.1104 320.621 44.1104V52.9583C322.574 52.9583 334.099 53.0856 337.681 52.8309L337.941 65.6889Z" fill="white"/>
<path d="M73.6445 69.8919C78.6432 69.8919 82.6953 65.9306 82.6953 61.0441C82.6953 56.1576 78.6432 52.1963 73.6445 52.1963C68.6459 52.1963 64.5938 56.1576 64.5938 61.0441C64.5938 65.9306 68.6459 69.8919 73.6445 69.8919Z" fill="white"/>
<path d="M10.7392 89.4963V99.8718H7.87422V89.4963H4.29297V86.9502H14.3856V89.4963H10.7392Z" fill="white"/>
<path d="M37.3039 86.9504L35.8063 90.8969C35.2203 92.4246 34.6993 93.8886 34.1133 95.3526C33.5273 96.8167 33.0064 98.3443 32.4204 99.8084H29.4251L24.8672 86.8867H28.1229L31.3134 97.1349H31.3785C31.3785 96.8803 31.4437 96.4984 31.5739 95.9892C31.639 95.4799 31.7692 94.9071 31.9646 94.2705C32.0948 93.634 32.2901 92.8701 32.4855 92.0427C32.6808 91.2152 32.9413 90.3877 33.2017 89.4965L33.9831 86.8867H37.3039V86.9504Z" fill="white"/>
<path d="M63.875 99.8718V86.9502H66.74V97.3257H71.884V99.8718H63.875Z" fill="white"/>
<path d="M83.5977 99.8718V88.7324H90.0439V90.833H86.1371V93.2518H89.8486V95.2887H86.1371V97.8985H90.1741V99.9991H83.5977V99.8718Z" fill="white"/>
<path d="M107.887 99.8718L107.235 97.7075H103.459L102.808 99.8718H100.008L104.175 88.7324H106.78L110.752 99.8718H107.887ZM105.152 90.9603C105.087 91.1513 105.022 91.4695 105.022 91.7878C104.956 92.1061 104.891 92.4243 104.826 92.8062C104.761 93.1882 104.696 93.5064 104.566 93.8883C104.501 94.2703 104.436 94.5249 104.305 94.8431L104.11 95.6706H106.649L105.152 90.9603Z" fill="white"/>
<path d="M123.455 99.8729H120.98V88.7336C122.348 88.6699 123.78 88.6699 125.213 88.6699C125.799 88.6699 126.385 88.7336 126.841 88.9245C127.296 89.1155 127.687 89.3065 128.013 89.6247C128.338 89.943 128.599 90.2613 128.794 90.7068C128.989 91.1524 129.055 91.598 129.055 92.0436C129.055 92.4255 128.989 92.7437 128.859 93.062C128.729 93.3803 128.599 93.6985 128.338 93.9532C128.143 94.2078 127.883 94.4624 127.557 94.717C127.231 94.908 126.906 95.0989 126.58 95.2262L129.771 99.8093H126.645L124.171 95.7355C124.041 95.7355 123.911 95.7355 123.78 95.7355C123.65 95.7355 123.52 95.7355 123.455 95.7355V99.8729ZM123.455 93.7622C123.65 93.7622 123.845 93.8259 124.041 93.8259C124.236 93.8259 124.431 93.8259 124.627 93.8259C125.148 93.8259 125.604 93.6349 125.929 93.3803C126.255 93.1257 126.385 92.7437 126.385 92.2982C126.385 92.1072 126.32 91.9162 126.255 91.7253C126.19 91.5343 126.059 91.407 125.929 91.2161C125.799 91.0888 125.604 90.9614 125.408 90.8978C125.213 90.8341 124.952 90.7705 124.627 90.7705H123.455V93.6985V93.7622Z" fill="white"/>
<path d="M147.35 99.8729C147.285 99.8729 147.22 99.8093 147.155 99.682C147.024 99.5547 146.959 99.4274 146.829 99.2364C146.699 99.0454 146.569 98.8545 146.373 98.5999C146.243 98.3452 146.048 98.1543 145.918 97.9633C145.787 97.7724 145.657 97.5814 145.592 97.4541C145.462 97.3268 145.397 97.1995 145.397 97.1358L142.076 92.1072H142.011C142.076 92.4255 142.141 92.7437 142.206 93.1893C142.271 93.6349 142.271 94.0168 142.336 94.4624C142.401 94.908 142.401 95.4172 142.401 95.8628C142.401 96.372 142.401 96.8176 142.401 97.2631V99.8093H139.992V88.6699H142.727L147.806 96.372H147.871C147.741 95.7355 147.676 94.9716 147.545 94.0168C147.48 93.1257 147.415 92.1709 147.415 91.1524V88.6699H149.759V99.8093H147.35V99.8729Z" fill="white"/>
<path d="M160.82 99.8718V88.7324H163.295V99.8718H160.82Z" fill="white"/>
<path d="M181.729 99.8729C181.664 99.8729 181.599 99.8093 181.534 99.682C181.403 99.5547 181.338 99.4274 181.208 99.2364C181.078 99.0454 180.948 98.8545 180.752 98.5999C180.622 98.3452 180.427 98.1543 180.296 97.9633C180.166 97.7724 180.036 97.5814 179.971 97.4541C179.841 97.3268 179.776 97.1995 179.776 97.1358L176.455 92.1072H176.39C176.455 92.4255 176.52 92.7437 176.585 93.1893C176.65 93.6349 176.65 94.0168 176.715 94.4624C176.78 94.908 176.78 95.4172 176.78 95.8628C176.78 96.372 176.78 96.8176 176.78 97.2631V99.8093H174.371V88.6699H177.106L182.185 96.372H182.25C182.12 95.7355 182.055 94.9716 181.924 94.0168C181.859 93.1257 181.794 92.1709 181.794 91.1524V88.6699H184.138V99.8093H181.729V99.8729Z" fill="white"/>
<path d="M238.639 88.1598C238.639 88.4144 238.639 88.7327 238.639 88.9873C238.639 89.2419 238.639 89.4965 238.574 89.6875C238.574 89.8784 238.574 90.0694 238.509 90.1967C238.053 89.8784 237.532 89.6875 237.011 89.5602C236.49 89.4329 235.969 89.3692 235.449 89.3692C234.928 89.3692 234.472 89.4329 234.211 89.6238C233.886 89.8148 233.691 90.0057 233.691 90.324C233.691 90.6423 233.821 90.9605 234.081 91.1515C234.342 91.4061 234.732 91.5971 235.123 91.788C235.514 91.979 235.969 92.2336 236.49 92.4246C237.011 92.6155 237.402 92.9338 237.858 93.2521C238.248 93.5703 238.639 93.9523 238.9 94.3978C239.16 94.8434 239.29 95.4163 239.29 96.0528C239.29 96.6894 239.16 97.1986 238.9 97.6442C238.639 98.0897 238.248 98.4716 237.728 98.7899C237.207 99.1082 236.686 99.2991 236.035 99.4901C235.383 99.6811 234.667 99.7447 233.951 99.7447C233.495 99.7447 233.039 99.7447 232.518 99.6811C231.998 99.6174 231.542 99.5538 231.151 99.4265C231.151 98.9172 231.151 98.408 231.216 97.8988C231.216 97.3259 231.281 96.8803 231.281 96.562C231.802 96.8167 232.323 97.0713 232.844 97.1349C233.365 97.2622 233.951 97.3259 234.537 97.3259C235.188 97.3259 235.644 97.2622 235.969 97.1349C236.295 97.0076 236.49 96.753 236.49 96.3711C236.49 96.0528 236.36 95.7345 236.1 95.5436C235.839 95.289 235.449 95.098 235.058 94.8434C234.667 94.6524 234.211 94.3978 233.691 94.1432C233.17 93.8886 232.779 93.634 232.323 93.3157C231.932 92.9975 231.542 92.6155 231.281 92.17C231.021 91.7244 230.891 91.2152 230.891 90.5786C230.891 90.0057 231.021 89.4329 231.281 88.9873C231.542 88.5417 231.932 88.1598 232.453 87.8415C232.909 87.5233 233.495 87.2686 234.146 87.1413C234.797 87.014 235.449 86.8867 236.165 86.8867C236.556 86.8867 237.011 86.8867 237.467 86.9504C237.923 87.014 238.379 87.0777 238.704 87.205C238.639 87.5869 238.639 87.8415 238.639 88.1598Z" fill="white"/>
<path d="M257.584 99.8729V95.2262L253.742 88.6699H256.607L259.016 93.3166C259.016 93.253 259.081 93.062 259.212 92.8711C259.342 92.6164 259.472 92.3618 259.602 92.0436C259.733 91.7253 259.928 91.407 260.058 91.0888C260.254 90.7705 260.384 90.4522 260.514 90.1976L261.295 88.7336H264.16L262.988 90.5159C262.533 91.2161 262.012 91.9799 261.491 92.7437C260.97 93.5076 260.514 94.1441 260.058 94.7807V99.9366H257.584V99.8729Z" fill="white"/>
<path d="M280.05 89.6884C280.05 89.943 280.05 90.1976 280.05 90.3886C280.05 90.5795 280.05 90.8341 279.985 91.0251C279.985 91.2161 279.985 91.3434 279.92 91.4707C279.53 91.2161 279.074 91.0251 278.618 90.8978C278.162 90.8341 277.706 90.7705 277.251 90.7705C276.795 90.7705 276.404 90.8341 276.144 90.9614C275.883 91.0888 275.688 91.3434 275.688 91.598C275.688 91.9163 275.818 92.1072 276.079 92.3618C276.339 92.5528 276.599 92.7437 276.99 92.9347C277.381 93.1257 277.772 93.3166 278.162 93.5076C278.618 93.6985 279.009 93.9532 279.334 94.2078C279.66 94.4624 279.985 94.8443 280.246 95.2262C280.506 95.6081 280.637 96.1174 280.637 96.6903C280.637 97.1995 280.506 97.7087 280.246 98.0906C279.985 98.4726 279.66 98.8545 279.269 99.1091C278.878 99.3637 278.358 99.5547 277.772 99.682C277.185 99.8093 276.599 99.8729 275.948 99.8729C275.558 99.8729 275.167 99.8729 274.711 99.8093C274.255 99.7456 273.865 99.682 273.539 99.5547C273.539 99.1091 273.539 98.6635 273.604 98.2179C273.604 97.7087 273.669 97.3268 273.669 97.0722C274.125 97.3268 274.581 97.5177 275.037 97.5814C275.493 97.7087 276.013 97.7087 276.469 97.7087C276.99 97.7087 277.446 97.6451 277.706 97.5178C277.967 97.3904 278.097 97.1995 278.097 96.8812C278.097 96.563 277.967 96.372 277.706 96.1174C277.446 95.9264 277.185 95.7355 276.795 95.5445C276.404 95.3535 276.013 95.1626 275.623 94.9716C275.232 94.7807 274.776 94.526 274.451 94.2714C274.06 94.0168 273.8 93.6985 273.539 93.3166C273.279 92.9347 273.148 92.4891 273.148 91.9163C273.148 91.407 273.279 90.9615 273.539 90.5159C273.8 90.134 274.125 89.752 274.516 89.4974C274.907 89.2428 275.427 88.9882 275.948 88.8609C276.469 88.7336 277.055 88.6699 277.706 88.6699C278.032 88.6699 278.423 88.6699 278.813 88.7336C279.204 88.7972 279.595 88.8609 279.855 88.9882C280.05 89.2428 280.05 89.4338 280.05 89.6884Z" fill="white"/>
<path d="M295.673 90.8966V99.8718H293.133V90.8966H290.008V88.7324H298.733V90.8966H295.673Z" fill="white"/>
<path d="M307.918 99.8718V88.7324H314.364V90.833H310.457V93.2518H314.169V95.2887H310.457V97.8985H314.494V99.9991H307.918V99.8718Z" fill="white"/>
<path d="M325.244 88.6691H328.109L330.843 96.8168H330.909C330.909 96.7531 330.974 96.5621 330.974 96.3712C331.039 96.1166 331.104 95.862 331.169 95.48C331.234 95.1618 331.364 94.7799 331.495 94.3343C331.625 93.8887 331.755 93.4431 331.885 92.9976L332.211 91.9791C332.341 91.5972 332.471 91.2789 332.536 90.9606C332.667 90.6424 332.732 90.3878 332.862 90.1331C332.927 89.8785 333.057 89.6239 333.122 89.3693C333.188 89.1147 333.318 88.8601 333.383 88.6055H336.183L337.485 99.7448H334.881L334.164 91.8518C334.164 91.9154 334.164 92.0427 334.099 92.2974C334.034 92.552 333.969 92.8702 333.839 93.1885C333.708 93.5068 333.643 93.9524 333.513 94.3343C333.383 94.7162 333.253 95.1618 333.122 95.6073L332.797 96.6258C332.602 97.135 332.471 97.6443 332.276 98.1535C332.081 98.6627 331.885 99.1719 331.69 99.6812H329.346L326.806 91.8518H326.741C326.741 91.9154 326.741 92.1701 326.741 92.552C326.741 92.9339 326.741 93.3795 326.676 93.8887C326.676 94.3979 326.611 94.9708 326.611 95.6073C326.611 96.2439 326.546 96.8168 326.546 97.326L326.416 99.8085H323.746L325.244 88.6691Z" fill="white"/>
<path d="M343.599 15.9769H342.427V11.5212H340.734V10.5664H345.292V11.5212H343.599V15.9769Z" fill="white"/>
<path d="M351.218 15.9771H350.111V11.3941L349.069 15.9771H347.897L346.856 11.3941V15.9771H345.879V10.5029H347.572L348.549 14.7677L349.525 10.5029H351.218V15.9771Z" fill="white"/>
<path d="M205.888 93.8885H204.521H203.219H200.354V95.6072H203.088C203.088 95.6708 203.088 95.6708 203.088 95.7345C202.958 96.1801 202.828 96.562 202.568 96.8166C202.307 97.1349 202.047 97.3895 201.656 97.5168C201.265 97.6441 200.875 97.7714 200.354 97.7714C199.898 97.7714 199.507 97.6441 199.117 97.4531C198.791 97.2622 198.465 97.0075 198.205 96.6893C197.944 96.371 197.749 95.9891 197.684 95.5435C197.619 95.0979 197.489 94.6524 197.489 94.2068C197.489 93.6976 197.554 93.252 197.619 92.8064C197.684 92.3608 197.879 91.9789 198.14 91.7243C198.4 91.406 198.661 91.1514 199.051 91.0241C199.442 90.8968 199.833 90.7695 200.354 90.7695C200.809 90.7695 201.2 90.8968 201.591 91.0878C201.982 91.2787 202.242 91.5333 202.502 91.8516C202.568 91.9789 202.633 92.1062 202.698 92.2335H205.563C205.563 92.1699 205.563 92.1699 205.498 92.1062C205.302 91.4697 204.977 90.8332 204.521 90.3239C204.065 89.8147 203.544 89.4328 202.958 89.1145C202.372 88.7963 201.591 88.6689 200.744 88.6689C199.833 88.6689 199.051 88.7963 198.335 89.1145C197.619 89.4328 196.968 89.8147 196.447 90.3239C195.926 90.8332 195.535 91.4697 195.21 92.1062C194.949 92.8064 194.754 93.5703 194.754 94.3341C194.754 95.0979 194.884 95.7981 195.079 96.4347C195.275 97.0712 195.6 97.7077 195.991 98.1533C196.382 98.6625 196.968 99.0445 197.554 99.3627C198.14 99.681 198.921 99.8083 199.833 99.8083C200.679 99.8083 201.526 99.681 202.242 99.3627C202.958 99.0445 203.609 98.6625 204.13 98.1533C204.651 97.6441 205.042 97.0712 205.367 96.371C205.693 95.6708 205.823 94.907 205.823 94.1431C205.888 94.0795 205.888 94.0158 205.888 93.8885Z" fill="white"/>
</g>
<defs>
<clipPath id="clip0_4_6723">
<rect width="351.22" height="100" fill="white"/>
</clipPath>
</defs>
</svg>
