<svg width="473" height="96" viewBox="0 0 473 96" fill="none" xmlns="http://www.w3.org/2000/svg">
<g clip-path="url(#clip0_4_6760)">
<path fill-rule="evenodd" clip-rule="evenodd" d="M0 0V100H100V0H61.4704C61.4835 0.190424 61.4919 0.381146 61.4955 0.571987C61.4955 3.62447 60.2828 6.55191 58.1244 8.71034C55.966 10.8688 53.0385 12.0814 49.9861 12.0815C46.9336 12.0814 44.0061 10.8688 41.8477 8.71033C39.6893 6.5519 38.4766 3.62447 38.4766 0.571987C38.4969 0.380725 38.522 0.190003 38.5519 0L0 0ZM80.8092 46.7773C81.9258 46.7774 83.0316 46.9974 84.0632 47.4249C85.0948 47.8523 86.0321 48.4788 86.8216 49.2685C87.6111 50.0583 88.2373 50.9958 88.6644 52.0276C89.0915 53.0593 89.3111 54.1651 89.3108 55.2818C89.3107 57.5366 88.415 59.6989 86.8206 61.2933C85.2263 62.8876 83.0639 63.7834 80.8092 63.7835C78.5544 63.7834 76.392 62.8876 74.7977 61.2933C73.2033 59.6989 72.3076 57.5366 72.3075 55.2818C72.3072 54.1651 72.5268 53.0593 72.9539 52.0276C73.381 50.9958 74.0072 50.0583 74.7967 49.2685C75.5862 48.4788 76.5235 47.8523 77.5551 47.4249C78.5867 46.9974 79.6925 46.7774 80.8092 46.7773ZM22.5558 48.0525H31.8583V59.7796H43.5854V69.082H31.8583V80.8092H22.5558V69.082H10.8287V59.7796H22.5558V48.0525ZM96.8025 56.1077H96.9922V56.1942H96.8025V56.1077ZM65.5608 65.0474C67.8156 65.0475 69.978 65.9433 71.5723 67.5376C73.1667 69.132 74.0624 71.2944 74.0625 73.5491C74.0624 75.8039 73.1667 77.9662 71.5723 79.5606C69.978 81.1549 67.8156 82.0507 65.5608 82.0508C63.3061 82.0507 61.1437 81.1549 59.5493 79.5606C57.955 77.9662 57.0593 75.8039 57.0592 73.5491C57.0593 71.2944 57.955 69.132 59.5493 67.5376C61.1437 65.9433 63.3061 65.0475 65.5608 65.0474Z" fill="white"/>
<path d="M138.137 81.8331H149.852L162.766 33.7617L176.705 81.8331H188.164L205.439 18.166H194.322L182.691 66.1457L169.436 18.533H157.292L144.465 67.1548L133.177 18.166H120.605L138.137 81.8331Z" fill="white"/>
<path d="M205.781 81.8331H217.497L222.372 65.8705H245.119L249.908 81.8331H262.137L241.613 18.166H227.417L205.781 81.8331ZM225.536 55.3204L233.745 28.3491L241.955 55.3204H225.536Z" fill="white"/>
<path d="M285.313 82.7509C299.766 82.7509 308.488 75.0448 308.488 63.1187C308.488 40.0921 277.275 48.0734 277.275 35.2299C277.275 30.3677 281.379 27.6156 288.819 27.6156C293.694 27.6156 299.082 28.6247 303.357 30.3677L306.522 21.0103C301.476 18.6251 295.319 17.249 289.418 17.249C275.308 17.249 265.815 25.0469 265.815 37.0647C265.815 58.8069 296.944 51.6513 296.944 64.5865C296.944 69.2652 293.095 72.1091 285.826 72.1091C280.439 72.1091 273.854 70.8248 267.953 68.1643L264.789 77.7052C271.117 80.8244 278.472 82.7509 285.313 82.7509Z" fill="white"/>
<path d="M318.066 81.8331H328.756V39.0826L344.406 72.017H352.872L368.778 37.89V81.8331H379.468V18.166H368.778L349.195 59.4487L328.927 18.166H318.066V81.8331Z" fill="white"/>
<path d="M391.355 63.0272H416.583V53.4863H391.355V63.0272Z" fill="white"/>
<path d="M451.642 82.4753H462.332V68.6226H472.85V58.8065H462.332V18.166H451.898L423.25 62.4761V68.6226H451.642V82.4753ZM434.966 58.7148L451.642 31.8352V58.7148H434.966Z" fill="white"/>
</g>
<defs>
<clipPath id="clip0_4_6760">
<rect width="472.85" height="95.9406" fill="white"/>
</clipPath>
</defs>
</svg>
