<svg width="210" height="100" viewBox="0 0 210 100" fill="none" xmlns="http://www.w3.org/2000/svg">
<g clip-path="url(#clip0_4_6770)">
<path d="M144.273 11.3854C144.273 17.6634 149.558 22.7582 156.064 22.7582C162.827 22.7582 168.138 17.7679 168.138 11.3854C168.136 5.00174 162.827 0 156.064 0C149.558 0 144.273 5.10209 144.273 11.3854Z" fill="white"/>
<path d="M166.361 34.1572H146.23V99.2886H166.361V34.1572Z" fill="white"/>
<path d="M185.195 11.3854C185.195 17.6634 190.491 22.7582 196.994 22.7582C203.76 22.7582 209.059 17.7679 209.059 11.3854C209.059 5.00174 203.76 0 196.994 0C190.491 0 185.195 5.10209 185.195 11.3854Z" fill="white"/>
<path d="M207.28 34.1572H187.145V99.2886H207.28V34.1572Z" fill="white"/>
<path d="M114.219 5.47725L96.5676 74.6832C96.5676 74.6832 83.0707 22.7361 80.8756 15.3678C78.6805 7.98701 74.1606 4.75391 67.753 4.75391C61.3411 4.75391 56.815 7.98701 54.6199 15.3678C52.4321 22.7361 38.9331 74.6832 38.9331 74.6832L21.2686 5.47725H0C0 5.47725 20.4272 79.317 23.2045 87.8665C25.3641 94.5417 30.4808 99.9992 38.0665 99.9992C46.7383 99.9992 50.7941 93.6762 52.6714 87.8665C54.53 82.0922 67.753 33.3239 67.753 33.3239C67.753 33.3239 80.9749 82.0922 82.8282 87.8665C84.7056 93.6762 88.7613 99.9992 97.431 99.9992C105.022 99.9992 110.129 94.5417 112.303 87.8665C115.074 79.317 135.487 5.47725 135.487 5.47725H114.219Z" fill="white"/>
</g>
<defs>
<clipPath id="clip0_4_6770">
<rect width="210" height="100" fill="white"/>
</clipPath>
</defs>
</svg>
