<svg width="333" height="100" viewBox="0 0 333 100" fill="none" xmlns="http://www.w3.org/2000/svg">
<g clip-path="url(#clip0_4_6776)">
<path d="M38.7946 74.609C39.7401 70.9826 40.6241 67.5653 41.5226 64.131C45.676 48.3166 49.7531 32.4856 54.0858 16.716C54.5359 15.0514 55.0746 13.4184 55.8551 11.8734C57.8341 7.93085 60.9208 5.50172 65.3582 4.96367C69.422 4.46876 73.2444 5.03837 76.4058 7.91587C78.6257 9.92423 79.8851 12.5327 80.6938 15.352C83.8276 26.4749 86.7051 37.6576 89.644 48.827C91.8616 57.2812 94.0515 65.7358 96.2541 74.1756C96.2691 74.2204 96.299 74.2653 96.3289 74.3251C96.6449 74.2952 96.5398 74.0111 96.5847 73.8451C100.182 59.7683 103.765 45.7082 107.362 31.632C109.522 23.1922 111.68 14.7525 113.808 6.31273C113.974 5.66834 114.214 5.45691 114.903 5.45691C121.349 5.48681 127.795 5.47182 134.256 5.47182C135.321 5.47182 135.306 5.47182 135.02 6.522C131.258 20.059 127.511 33.6104 123.718 47.1469C119.94 60.6242 116.267 74.1457 112.205 87.546C110.841 92.0288 108.397 95.7914 104.229 98.1757C98.5786 101.399 89.7037 100.724 85.0864 93.1232C83.4368 90.4101 82.5234 87.4264 81.6692 84.4144C76.9312 67.6849 72.3891 50.8951 67.8321 34.1053C67.7867 33.9243 67.727 33.7599 67.6523 33.5357C67.3367 34.0157 67.2918 34.5095 67.1573 34.9744C62.9458 50.475 58.7475 65.975 54.3848 81.4456C53.4714 84.6835 52.7368 87.9667 51.2682 91.0251C49.7232 94.2331 47.6096 96.9013 44.3569 98.551C38.7348 101.384 31.4049 99.9 27.2366 95.1919C24.6885 92.3144 23.3394 88.8817 22.2909 85.2685C16.2487 64.4316 10.4772 43.5188 4.66082 22.6071C3.13239 17.1516 1.61839 11.6641 0.073368 6.19315C-0.106005 5.56318 0.0285597 5.45691 0.643542 5.45691C7.22389 5.47182 13.8064 5.47182 20.3872 5.45691C21.0166 5.45691 21.2109 5.68332 21.3604 6.25294C26.037 24.6459 30.7307 43.04 35.4222 61.4329C36.4723 65.5548 37.5203 69.6634 38.5704 73.7853C38.6152 73.9962 38.675 74.1905 38.7946 74.609Z" fill="white"/>
<path d="M282.89 74.985C272.14 74.985 261.378 74.985 250.63 74.985C248.305 74.985 245.997 74.7004 243.748 74.0262C237.408 72.1523 233.9 67.7747 232.685 61.4031C232.357 59.6489 232.207 57.8813 232.207 56.1121C232.207 41.8859 232.207 27.6597 232.207 13.4334C232.207 10.5692 232.7 7.81137 234.29 5.36732C236.538 1.92022 239.896 0.391854 243.87 0.136104C247.962 -0.133512 252.068 0.0912264 256.162 0.0314355C256.792 0.0165226 256.732 0.376871 256.732 0.780425C256.732 5.66844 256.715 10.5393 256.732 15.4268C256.762 22.8165 256.536 30.2083 256.836 37.5829C257.061 43.3993 258.695 48.795 262.593 53.3077C265.59 56.7864 269.413 58.9149 273.835 60.0242C279.382 61.4031 284.958 61.448 290.49 60.0242C299.395 57.7152 304.687 51.8988 306.77 43.0251C307.4 40.3408 307.609 37.6128 307.609 34.8699C307.594 23.566 307.609 12.2637 307.594 0.959798C307.594 0.195895 307.805 0.0165226 308.539 0.0314355C312.422 0.106209 316.319 -0.103059 320.202 0.136104C327.502 0.571157 332.074 5.38231 332.119 12.7137C332.164 21.6639 332.134 30.6268 332.134 39.5764C332.134 45.3778 332.149 51.1643 332.119 56.9657C332.104 59.5592 331.715 62.1228 330.815 64.5662C328.821 70.067 324.789 73.1704 319.197 74.3999C317.338 74.8206 315.434 74.9999 313.53 74.9999C303.308 74.985 293.099 74.985 282.89 74.985Z" fill="white"/>
<path d="M146.023 66.6348C146.023 56.112 146.038 45.6035 146.008 35.0791C146.008 34.3295 146.202 34.1353 146.953 34.1353C153.054 34.1651 159.171 34.1651 165.271 34.1353C165.976 34.1353 166.125 34.3445 166.125 35.0193C166.11 56.1569 166.11 77.3088 166.125 98.4447C166.125 99.1339 165.946 99.3155 165.256 99.3155C159.124 99.2856 152.994 99.2856 146.861 99.3155C146.157 99.3155 146.008 99.104 146.008 98.4297C146.023 87.8322 146.023 77.2341 146.023 66.6348Z" fill="white"/>
<path d="M186.902 66.6348C186.902 56.112 186.917 45.6035 186.887 35.0791C186.887 34.3146 187.083 34.1353 187.832 34.1353C193.918 34.1651 199.99 34.1651 206.076 34.1353C206.75 34.1353 207.006 34.2399 207.006 35.0043C206.976 56.1419 206.991 77.2939 207.006 98.4297C207.006 99.1189 206.825 99.3005 206.135 99.3005C200.005 99.2706 193.873 99.2706 187.743 99.3005C187.023 99.3005 186.887 99.089 186.887 98.4148C186.917 87.8322 186.902 77.2341 186.902 66.6348Z" fill="white"/>
<path d="M295.3 18.5452C295.3 24.4368 295.419 30.3429 295.255 36.234C295.15 40.2811 293.696 43.8943 290.623 46.6821C284.806 51.9587 273.699 50.9252 270.1 41.3756C269.366 39.427 268.992 37.4036 268.975 35.335C268.96 23.7919 268.96 12.2638 268.945 0.720713C268.945 0.180992 269.096 0.0166016 269.635 0.0166016C277.955 0.0315145 286.29 0.0315145 294.61 0.0166016C295.209 0.0166016 295.345 0.195974 295.345 0.765591C295.33 6.68657 295.33 12.6075 295.33 18.5452C295.345 18.5452 295.315 18.5452 295.3 18.5452Z" fill="white"/>
<path d="M144.031 11.6494C144.046 5.5634 148.934 0.45176 154.736 0.0913418C159.022 -0.163292 162.695 1.09608 165.423 4.46897C169.801 9.86465 168.196 17.7796 162.125 21.1387C156.174 24.4368 148.934 22.6073 145.56 16.9553C144.527 15.2476 144.076 13.3737 144.031 11.6494Z" fill="white"/>
<path d="M208.819 11.3183C208.804 16.7461 205.103 21.1536 199.555 22.4728C193.873 23.8219 187.937 20.868 185.794 15.5913C183.05 8.8765 187.323 1.66626 194.234 0.330509C199.241 -0.643219 203.528 0.825422 206.706 4.94898C208.159 6.85267 208.744 9.08577 208.819 11.3183Z" fill="white"/>
</g>
<defs>
<clipPath id="clip0_4_6776">
<rect width="332.139" height="100" fill="white"/>
</clipPath>
</defs>
</svg>
