<svg width="437" height="100" viewBox="0 0 437 100" fill="none" xmlns="http://www.w3.org/2000/svg">
<g clip-path="url(#clip0_4_6784)">
<path d="M198.044 23.4004L182.383 78.8499H174.768L163.358 38.3225C162.869 36.5951 162.574 34.7085 162.471 32.6742H162.312C162.153 34.5835 161.824 36.436 161.312 38.243L149.822 78.8499H142.287L126.047 23.4004H133.207L145.004 65.9279C145.492 67.7122 145.799 69.5647 145.935 71.4968H146.129C146.254 70.133 146.651 68.2805 147.322 65.9279L159.573 23.4004H165.801L177.553 66.2348C177.962 67.7009 178.28 69.4284 178.485 71.4172H178.644C178.746 70.0762 179.098 68.3032 179.689 66.0871L191.02 23.4004H198.044Z" fill="white"/>
<path d="M207.498 29.1966C206.361 29.1966 205.395 28.8102 204.6 28.0374C203.804 27.2646 203.406 26.2758 203.406 25.0939C203.406 23.9119 203.804 22.9232 204.6 22.139C205.395 21.3548 206.361 20.957 207.498 20.957C208.657 20.957 209.646 21.3548 210.453 22.139C211.259 22.9232 211.669 23.9119 211.669 25.0939C211.669 26.2304 211.259 27.1964 210.453 27.9919C209.634 28.7988 208.657 29.1966 207.498 29.1966ZM210.589 78.85H204.247V39.2432H210.589V78.85Z" fill="white"/>
<path d="M255.106 78.8496H248.764V56.2675C248.764 47.8574 245.695 43.6638 239.558 43.6638C236.388 43.6638 233.762 44.8571 231.694 47.2437C229.625 49.6304 228.58 52.6421 228.58 56.2675V78.8496H222.238V39.2428H228.58V45.8231H228.739C231.728 40.8225 236.058 38.3223 241.729 38.3223C246.059 38.3223 249.366 39.7202 251.662 42.5159C253.958 45.3117 255.106 49.3576 255.106 54.6423V78.8496Z" fill="white"/>
<path d="M299.656 78.8498H293.315V72.1218H293.155C290.212 77.2246 285.677 79.7704 279.54 79.7704C274.562 79.7704 270.585 77.9974 267.607 74.4516C264.629 70.9057 263.141 66.087 263.141 59.9726C263.141 53.4264 264.789 48.1759 268.096 44.2322C271.392 40.2886 275.79 38.3111 281.279 38.3111C286.723 38.3111 290.678 40.4591 293.155 44.7323H293.315V20.2295H299.656V78.8498ZM293.315 60.95V55.1085C293.315 51.9149 292.258 49.2101 290.144 46.9939C288.03 44.7664 285.348 43.664 282.097 43.664C278.233 43.664 275.187 45.0846 272.971 47.9258C270.755 50.7557 269.641 54.6766 269.641 59.6772C269.641 64.2345 270.71 67.8372 272.835 70.4852C274.96 73.1219 277.813 74.4402 281.404 74.4402C284.939 74.4402 287.803 73.1673 290.007 70.6102C292.212 68.0645 293.315 64.8368 293.315 60.95Z" fill="white"/>
<path d="M327.854 79.7702C322.001 79.7702 317.33 77.9177 313.841 74.2241C310.352 70.5191 308.602 65.6208 308.602 59.5065C308.602 52.858 310.42 47.6642 314.057 43.9252C317.694 40.1861 322.603 38.3223 328.786 38.3223C334.695 38.3223 339.298 40.1407 342.605 43.7774C345.913 47.4142 347.572 52.4489 347.572 58.8928C347.572 65.2117 345.788 70.2691 342.219 74.065C338.65 77.8722 333.854 79.7702 327.854 79.7702ZM328.32 43.6524C324.251 43.6524 321.023 45.0389 318.648 47.812C316.273 50.585 315.091 54.4036 315.091 59.2792C315.091 63.9729 316.296 67.6665 318.682 70.3827C321.08 73.0876 324.285 74.44 328.308 74.44C332.411 74.44 335.559 73.1103 337.764 70.4509C339.969 67.8029 341.071 64.0184 341.071 59.1314C341.071 54.1763 339.969 50.3577 337.764 47.6756C335.571 45.0048 332.411 43.6524 328.32 43.6524Z" fill="white"/>
<path d="M406.397 39.2432L394.521 78.8386H387.952L379.792 50.4944C379.485 49.4148 379.269 48.1874 379.167 46.8236H379.008C378.928 47.7555 378.655 48.9488 378.201 50.4149L369.359 78.8499H363.017L351.027 39.2545H357.676L365.87 69.0306C366.131 69.9285 366.313 71.1218 366.415 72.5879H366.722C366.802 71.4514 367.029 70.2353 367.416 68.9511L376.542 39.2545H382.338L390.532 69.1102C390.793 70.0648 390.986 71.2468 391.111 72.6674H391.418C391.475 71.6673 391.691 70.4853 392.077 69.1102L400.124 39.2545H406.397V39.2432Z" fill="white"/>
<path d="M410.16 77.4176V70.61C413.615 73.1558 417.422 74.44 421.571 74.44C427.139 74.44 429.924 72.5875 429.924 68.8712C429.924 67.8143 429.685 66.9164 429.208 66.1777C428.73 65.4503 428.083 64.7912 427.276 64.2229C426.469 63.6547 425.514 63.1546 424.412 62.7C423.321 62.2568 422.139 61.7795 420.877 61.2908C419.127 60.5975 417.581 59.8929 416.252 59.1883C414.922 58.4836 413.82 57.6767 412.922 56.7903C412.035 55.9038 411.365 54.8923 410.91 53.7558C410.456 52.6193 410.24 51.301 410.24 49.7667C410.24 47.9143 410.66 46.2663 411.513 44.8344C412.365 43.4024 413.501 42.2091 414.911 41.243C416.331 40.277 417.945 39.5497 419.764 39.061C421.582 38.5723 423.457 38.3223 425.389 38.3223C428.821 38.3223 431.879 38.9132 434.595 40.1066V46.5277C431.685 44.6184 428.333 43.6638 424.548 43.6638C423.366 43.6638 422.298 43.8002 421.343 44.0729C420.389 44.3457 419.57 44.7321 418.888 45.2208C418.207 45.7095 417.672 46.3004 417.297 46.9823C416.922 47.6642 416.74 48.4257 416.74 49.244C416.74 50.2782 416.934 51.1419 417.297 51.8352C417.672 52.5284 418.218 53.1535 418.945 53.6876C419.661 54.2332 420.548 54.7219 421.571 55.1537C422.605 55.5856 423.775 56.0629 425.094 56.5857C426.844 57.2562 428.424 57.9495 429.81 58.6541C431.197 59.3587 432.39 60.1657 433.367 61.0521C434.345 61.9386 435.106 62.9614 435.629 64.1207C436.152 65.2799 436.425 66.6664 436.425 68.2575C436.425 70.2236 435.993 71.917 435.129 73.3603C434.265 74.8037 433.106 76.0084 431.663 76.9516C430.219 77.9063 428.56 78.6223 426.673 79.0769C424.798 79.5429 422.821 79.7702 420.752 79.7702C416.684 79.7702 413.149 78.986 410.16 77.4176Z" fill="white"/>
<path d="M40.8796 49.8809H0V84.3052L40.8796 90.6923V49.8809Z" fill="white"/>
<path d="M43.9922 49.8809V91.181L100.374 100V49.8809H43.9922Z" fill="white"/>
<path d="M40.8796 9.16016L0 15.445V46.7667H40.8796V9.16016Z" fill="white"/>
<path d="M43.9922 8.67144V46.7667H100.374V0L43.9922 8.67144Z" fill="white"/>
</g>
<defs>
<clipPath id="clip0_4_6784">
<rect width="436.413" height="100" fill="white"/>
</clipPath>
</defs>
</svg>
