<svg width="570" height="100" viewBox="0 0 570 100" fill="none" xmlns="http://www.w3.org/2000/svg">
<g clip-path="url(#clip0_4_6825)">
<path d="M0.125 26.0059H3.05976V3.308L12.2469 26.0059H14.648L23.956 3.44169V26.0059H27.2512V0.640625H22.3261L13.7533 21.9064L5.08703 0.640625H0.125V26.0059Z" fill="white"/>
<path d="M32.1289 3.4171H35.2198V0.640625H32.1289V3.4171ZM32.1289 26.0053H35.2198V7.21228H32.1289V26.0053Z" fill="white"/>
<path d="M53.1935 13.8032L56.1283 13.4086C55.4502 9.11607 52.5898 6.69629 48.5877 6.69629C43.0315 6.69629 39.1914 10.5685 39.1914 16.6091C39.1914 22.7027 42.8315 26.5145 48.0984 26.5145C52.3497 26.5145 55.3278 24.1808 56.1294 19.9551L53.3187 19.4867C52.654 22.4401 50.7545 24.0925 48.2294 24.0925C44.9139 24.0925 42.5764 21.3268 42.5764 16.6102C42.5764 11.8241 45.0299 9.0503 48.2887 9.0503C50.7534 9.04763 52.7829 10.7909 53.1935 13.8032Z" fill="white"/>
<path d="M59.8398 26.0056H62.9757V16.5655C62.9757 12.2179 65.557 9.55209 69.557 9.55209H70.081V6.74139C69.7014 6.69656 69.3195 6.67335 68.9372 6.67188C66.0382 6.67188 64.0869 8.23337 62.8227 11.4066V7.21145H59.8398V26.0056Z" fill="white"/>
<path d="M79.9891 26.513C85.5864 26.513 89.4618 22.6349 89.4618 16.6076C89.4618 10.5327 85.5875 6.69531 79.9891 6.69531C74.4442 6.69531 70.5977 10.5322 70.5977 16.6076C70.5977 22.6344 74.4442 26.513 79.9891 26.513ZM79.9891 24.1798C76.4094 24.1798 73.9998 21.391 73.9998 16.6092C73.9998 11.7932 76.3661 9.04932 79.9891 9.04932C83.6271 9.04932 86.0271 11.8237 86.0271 16.6092C86.0271 21.3654 83.5907 24.1798 79.9896 24.1798" fill="white"/>
<path d="M120.071 26.513C125.682 26.513 129.558 22.6349 129.558 16.6076C129.558 10.5327 125.684 6.69531 120.071 6.69531C114.539 6.69531 110.688 10.5322 110.688 16.6076C110.689 22.6344 114.54 26.513 120.071 26.513ZM120.071 24.1798C116.505 24.1798 114.089 21.391 114.089 16.6092C114.089 11.7932 116.448 9.04932 120.071 9.04932C123.721 9.04932 126.127 11.8237 126.127 16.6092C126.128 21.3654 123.677 24.1798 120.071 24.1798Z" fill="white"/>
<path d="M137.856 7.21146C137.856 6.99274 137.816 6.74033 137.816 6.52055C137.816 3.86172 139.003 2.6152 141.546 2.6152C142.132 2.6152 142.988 2.68204 144.08 2.8644V0.529637C143.057 0.347937 142.02 0.258984 140.981 0.263862C136.745 0.263862 134.746 2.50985 134.746 7.07188V7.21039H131.027V9.27135H134.746V26.3163H137.856V9.27135H145.754V19.0082C145.754 21.4302 145.754 23.1911 146.615 24.2842C147.808 25.8377 149.52 26.5109 152.001 26.5109C152.862 26.5109 153.755 26.3943 154.632 26.2275V23.874C153.849 24.0681 153.095 24.0879 152.466 24.0879C149.259 24.0879 148.904 22.5986 148.904 19.0917V9.27028H153.878V7.20932H148.904V2.46172L145.754 2.7521V7.20878H137.856" fill="white"/>
<path d="M91.6523 20.9038C92.624 24.2567 95.8181 26.2396 100.416 26.2396C105.223 26.2396 108.407 23.7984 108.407 20.4701C108.407 17.6198 106.308 16.145 101.967 15.1781C97.9513 14.284 95.5711 14.2284 95.5711 11.9278C95.5711 10.1728 97.1604 9.01287 99.8171 9.01287C102.328 9.01287 103.961 10.0278 104.623 11.9273L107.515 11.3835C106.499 8.3626 103.792 6.69629 99.9326 6.69629C95.3641 6.69629 92.4395 9.11607 92.4395 12.2578C92.4395 15.3444 94.5454 16.5337 99.1112 17.5102C102.943 18.3498 105.153 18.5594 105.153 20.8257C105.153 22.6252 103.344 23.954 100.417 23.954C97.532 23.954 95.3181 22.6637 94.4727 20.3829L91.6523 20.9038Z" fill="white"/>
<path d="M155.539 5.92269C156.793 5.92269 157.806 6.91253 157.806 8.13606C157.806 9.38954 156.817 10.3874 155.568 10.3874C155.275 10.3871 154.984 10.329 154.713 10.2163C154.443 10.1036 154.197 9.93862 153.99 9.73074C153.783 9.52286 153.619 9.27619 153.507 9.00485C153.395 8.7335 153.338 8.44282 153.339 8.14943C153.339 6.93446 154.337 5.92269 155.539 5.92269ZM155.614 5.55371C154.147 5.55371 152.969 6.7013 152.969 8.13606C152.969 9.59328 154.124 10.7569 155.576 10.7569C155.918 10.7568 156.256 10.6892 156.572 10.5581C156.887 10.4269 157.174 10.2348 157.415 9.99269C157.657 9.75057 157.848 9.46323 157.978 9.14712C158.108 8.83101 158.175 8.49234 158.174 8.1505C158.175 6.73767 157.013 5.55371 155.614 5.55371ZM156.799 9.66975L156.173 8.289C156.545 8.15799 156.754 7.8735 156.754 7.50665C156.754 7.00398 156.331 6.64676 155.726 6.64676H154.448V9.66975H154.894V8.3874H155.726L156.301 9.66975H156.799ZM154.894 8.03286V7.0259H155.726C156.068 7.0259 156.279 7.20558 156.279 7.50184C156.279 7.82858 156.051 8.03286 155.674 8.03286H154.894Z" fill="white"/>
<path d="M392.363 82.6511C395.5 93.3447 405.817 99.2928 422.231 99.2928C440.279 99.2928 451.281 91.0661 451.281 80.1452C451.281 75.6704 449.485 71.8249 446.014 68.9174C441.739 65.3666 436.686 64.6565 430.513 63.6105C419.873 61.8431 414.54 62.272 414.595 58.9356C414.608 57.1255 416.725 55.2116 420.971 55.2116C426.265 55.2116 429.628 56.9656 431.649 60.2763L448.922 57.4757C445.132 48.2153 435.79 43.0977 422.111 43.0977C405.068 43.0977 395.164 51.0158 395.164 61.6281C395.164 66.21 397.537 70.5656 401.569 73.4998C406.607 77.1185 412.222 77.9629 418.639 79.0084C426.586 80.3602 430.86 79.9715 431.195 82.9474C431.452 84.9977 428.395 86.5912 423.115 86.5912C415.694 86.5912 411.566 84.5276 410.548 80.5608L392.363 82.6511Z" fill="white"/>
<path d="M153.797 44.2608L173.114 44.2073V51.8597C176.158 45.8961 181.706 42.749 189.086 42.749C202.033 42.749 207.142 49.0324 207.142 62.6603V98.1287H186.068V65.595C186.068 60.5699 184.208 57.3276 180.607 57.3276C176.915 57.3276 174.631 59.9405 174.631 64.9656V98.1298H153.797L153.797 44.2608Z" fill="white"/>
<path d="M335.991 98.1283H351.534L359.506 68.0197L366.77 98.1283H382.527L400.401 44.2363H385.3L377.382 71.3834L370.374 44.2363H354.081L347.34 70.647L339.635 44.2363H318.289L335.991 98.1283Z" fill="white"/>
<path d="M47.214 98.0859H68.6851L78.6257 57.2586L88.8894 98.0859H109.929L130.24 26.6014H112.228L101.41 67.7907L90.8182 26.334H71.246L60.9348 68.2062L50.4364 26.3345H26.9883L47.214 98.0859Z" fill="white"/>
<path d="M128.469 39.9217H149.566V26.6152H128.469L128.469 39.9217ZM128.469 44.2077H149.566V98.0864H128.469L128.469 44.2077Z" fill="white"/>
<path d="M243.219 64.4159C243.219 62.272 243.325 59.726 241.877 58.0378C240.887 56.6437 238.874 55.9073 237.095 55.9073C232.029 55.9196 229.174 61.7351 229.161 71.7314C229.161 76.5148 230.089 84.9966 237 84.9966C239.198 84.9966 240.672 84.0586 241.879 82.2501C243.433 79.9185 243.22 78.0014 243.22 75.349V64.4159H243.219ZM244.582 98.0864V90.8255H244.382C241.141 96.8137 236.382 99.118 229.255 99.118C212.916 99.118 206.973 84.5667 206.973 71.1934C206.973 57.3004 212.804 42.748 229.925 42.748C235.365 42.748 240.056 44.9854 243.484 48.2554V26.2266H264.897V98.0875H244.583" fill="white"/>
<path d="M303.874 71.2496C303.874 61.1865 300.483 56.3363 295.259 56.3363C290.004 56.3363 286.642 61.1865 286.642 71.2496C286.642 81.3635 290.044 86.2026 295.259 86.2026C300.525 86.2026 303.874 81.3635 303.874 71.2496ZM264.922 71.2496C264.922 54.1234 277.101 42.7764 295.23 42.7764C313.415 42.7764 325.525 54.124 325.525 71.2496C325.525 88.2924 313.414 99.7363 295.23 99.7363C277.102 99.7363 264.922 88.2924 264.922 71.2496Z" fill="white"/>
<path d="M451.092 43.3661C450.308 42.5549 449.416 42.2549 448.33 42.2549C447.242 42.2549 446.255 42.5549 445.476 43.364C444.753 44.1649 444.363 45.2123 444.388 46.2912C444.388 47.3987 444.781 48.311 445.476 49.0191C446.258 49.8265 447.242 50.1314 448.33 50.1314C449.417 50.1314 450.299 49.8281 451.092 49.0191C451.788 48.3158 452.181 47.4051 452.181 46.2912C452.181 45.0763 451.789 44.1763 451.092 43.364V43.3661ZM450.502 43.8677C451.091 44.4773 451.389 45.2864 451.389 46.2902C451.389 47.1939 451.094 47.9078 450.502 48.6148C449.913 49.2223 449.225 49.5255 448.34 49.5255C447.448 49.5255 446.664 49.2223 446.071 48.6148C445.38 47.9078 445.079 47.1961 445.079 46.2902C445.079 45.2854 445.38 44.4741 446.071 43.8677C446.664 43.1549 447.448 42.8549 448.34 42.8549C449.223 42.8549 449.908 43.1543 450.502 43.8677Z" fill="white"/>
<path d="M450.105 45.2864C450.105 44.3698 449.612 43.9688 448.529 43.9688H446.758V48.5115H447.445V46.4955H448.237L449.419 48.5115H450.203L448.927 46.4955C449.718 46.3917 450.105 45.9869 450.105 45.2864ZM449.318 45.1794C449.318 45.6837 449.019 45.9885 448.333 45.9885H447.444V44.5773H448.333C449.019 44.5762 449.318 44.7757 449.318 45.1794Z" fill="white"/>
<path d="M459.272 80.8212L469.302 80.0093C470.153 84.1367 471.776 87.1307 474.172 88.9914C476.569 90.8522 479.641 91.7825 483.391 91.7825C486.599 91.7825 489.401 91.1397 491.797 89.8541C494.232 88.5686 496.223 86.8601 497.769 84.7287C499.315 82.5635 500.61 79.654 501.653 76.0003C502.697 72.3465 503.219 68.6251 503.219 64.836C503.219 64.43 503.199 63.8211 503.161 63.0091C501.073 65.9186 498.213 68.2868 494.58 70.1137C490.986 71.9067 487.082 72.8032 482.869 72.8032C475.834 72.8032 469.882 70.5704 465.012 66.1047C460.142 61.639 457.707 55.7523 457.707 48.4448C457.707 40.9005 460.239 34.8278 465.302 30.2267C470.404 25.6257 476.781 23.3252 484.434 23.3252C489.961 23.3252 495.005 24.6277 499.566 27.2327C504.165 29.8377 507.644 33.5591 510.002 38.397C512.398 43.201 513.596 50.1702 513.596 59.3046C513.596 68.8112 512.417 76.3893 510.06 82.0391C507.702 87.6551 504.185 91.9347 499.508 94.8781C494.87 97.8214 489.42 99.293 483.159 99.293C476.511 99.293 471.08 97.686 466.867 94.4721C462.654 91.2243 460.123 86.674 459.272 80.8212ZM502.001 47.9881C502.001 42.7443 500.397 38.583 497.189 35.5044C494.02 32.4258 490.193 30.8865 485.71 30.8865C481.072 30.8865 477.033 32.5442 473.593 35.8596C470.153 39.1751 468.433 43.4716 468.433 48.7493C468.433 53.4857 470.056 57.3424 473.303 60.3196C476.588 63.2629 480.627 64.7345 485.42 64.7345C490.251 64.7345 494.213 63.2629 497.305 60.3196C500.436 57.3424 502.001 53.2319 502.001 47.9881Z" fill="white"/>
<path d="M511.766 98.0239L534.261 70.0117L513.447 44.1309H526.492L535.942 56.7668C537.72 59.1688 539.15 61.1818 540.232 62.8056C541.933 60.5728 543.498 58.5937 544.928 56.8683L555.306 44.1309H567.771L546.494 69.5042L569.394 98.0239H556.581L543.943 81.2775L540.58 76.761L524.404 98.0239H511.766Z" fill="white"/>
</g>
<defs>
<clipPath id="clip0_4_6825">
<rect width="569.519" height="100" fill="white"/>
</clipPath>
</defs>
</svg>
