<svg width="349" height="100" viewBox="0 0 349 100" fill="none" xmlns="http://www.w3.org/2000/svg">
<path d="M345.83 16.7988L346.131 23.1971H345.367C345.219 22.0704 345.018 21.2656 344.763 20.7827C344.347 20.0047 343.791 19.4347 343.093 19.0725C342.409 18.6969 341.504 18.5091 340.377 18.5091H336.534V39.3539C336.534 41.0306 336.715 42.0768 337.077 42.4926C337.587 43.056 338.372 43.3376 339.431 43.3376H340.377V44.0821H328.808V43.3376H329.774C330.927 43.3376 331.745 42.9889 332.228 42.2914C332.523 41.8621 332.671 40.883 332.671 39.3539V18.5091H329.391C328.117 18.5091 327.212 18.6029 326.675 18.7907C325.977 19.0456 325.381 19.5352 324.884 20.2595C324.388 20.9839 324.093 21.9631 323.999 23.1971H323.234L323.556 16.7988H345.83Z" fill="white"/>
<path d="M307.837 18.2878V29.0119H312.807C313.947 29.0119 314.778 28.7638 315.301 28.2675C315.838 27.7578 316.193 26.7585 316.368 25.2695H317.112V34.5048H316.368C316.354 33.4451 316.213 32.6672 315.945 32.1709C315.69 31.6746 315.328 31.3057 314.859 31.0642C314.403 30.8094 313.719 30.6819 312.807 30.6819H307.837V39.2532C307.837 40.6348 307.924 41.5469 308.098 41.9896C308.232 42.3249 308.514 42.6133 308.943 42.8548C309.534 43.1767 310.151 43.3376 310.795 43.3376H311.78V44.0821H300.07V43.3376H301.036C302.163 43.3376 302.981 43.009 303.491 42.3517C303.813 41.9225 303.974 40.8897 303.974 39.2532V21.6278C303.974 20.2462 303.886 19.334 303.712 18.8914C303.578 18.5561 303.303 18.2676 302.887 18.0262C302.31 17.7043 301.693 17.5433 301.036 17.5433H300.07V16.7988H320.372L320.633 22.7948H319.929C319.58 21.5205 319.171 20.5882 318.702 19.998C318.246 19.3944 317.676 18.9584 316.992 18.6902C316.321 18.4219 315.275 18.2878 313.853 18.2878H307.837Z" fill="white"/>
<path d="M271.802 16.1758V25.6123H271.058C270.816 23.8014 270.38 22.3595 269.75 21.2864C269.133 20.2133 268.247 19.3615 267.094 18.7311C265.94 18.1006 264.746 17.7855 263.512 17.7855C262.117 17.7855 260.964 18.2147 260.052 19.0732C259.14 19.9183 258.683 20.884 258.683 21.9705C258.683 22.8021 258.972 23.56 259.549 24.2441C260.38 25.2502 262.359 26.5915 265.484 28.2682C268.033 29.6364 269.77 30.6894 270.695 31.4271C271.634 32.1515 272.352 33.01 272.848 34.0026C273.358 34.9952 273.613 36.0346 273.613 37.1211C273.613 39.1868 272.808 40.9708 271.198 42.4732C269.602 43.9621 267.543 44.7066 265.021 44.7066C264.23 44.7066 263.486 44.6462 262.788 44.5255C262.372 44.4584 261.507 44.217 260.193 43.8012C258.891 43.372 258.066 43.1573 257.718 43.1573C257.382 43.1573 257.114 43.258 256.913 43.4592C256.725 43.6604 256.584 44.0762 256.49 44.7066H255.746V35.3507H256.49C256.839 37.3091 257.309 38.7778 257.899 39.757C258.489 40.7227 259.388 41.5276 260.595 42.1715C261.816 42.8154 263.15 43.1373 264.599 43.1373C266.276 43.1373 267.597 42.6946 268.563 41.8093C269.542 40.924 270.031 39.8777 270.031 38.6705C270.031 37.9998 269.844 37.3225 269.468 36.6384C269.106 35.9543 268.536 35.3171 267.758 34.7269C267.235 34.3245 265.806 33.4727 263.472 32.1716C261.138 30.8571 259.475 29.8107 258.482 29.0328C257.503 28.2548 256.759 27.3964 256.249 26.4574C255.739 25.5185 255.484 24.4856 255.484 23.3589C255.484 21.4005 256.236 19.7171 257.738 18.3087C259.24 16.8868 261.152 16.1759 263.472 16.1759C264.921 16.1759 266.457 16.5313 268.08 17.2422C268.831 17.5776 269.361 17.7453 269.669 17.7453C270.018 17.7453 270.3 17.6447 270.514 17.4435C270.742 17.2289 270.923 16.8064 271.058 16.1759L271.802 16.1758Z" fill="white"/>
<path d="M241.137 16.1758C244.678 16.1758 247.743 17.5239 250.332 20.22C252.934 22.9028 254.236 26.2562 254.236 30.2803C254.236 34.4251 252.928 37.8656 250.312 40.602C247.696 43.3384 244.531 44.7066 240.815 44.7066C237.059 44.7066 233.901 43.3719 231.339 40.7025C228.79 38.0332 227.516 34.5793 227.516 30.3406C227.516 26.008 228.991 22.4735 231.942 19.7372C234.504 17.363 237.569 16.1758 241.137 16.1758ZM240.755 17.6446C238.314 17.6446 236.355 18.5501 234.88 20.3609C233.042 22.6144 232.123 25.9141 232.123 30.2601C232.123 34.7134 233.076 38.1406 234.98 40.5416C236.442 42.3659 238.374 43.278 240.775 43.278C243.337 43.278 245.45 42.2787 247.113 40.28C248.79 38.2814 249.628 35.1293 249.628 30.8235C249.628 26.1556 248.709 22.6747 246.871 20.381C245.396 18.5567 243.357 17.6446 240.755 17.6446Z" fill="white"/>
<path d="M232.209 44.0821H224.925L215.69 31.3257C215.006 31.3526 214.449 31.366 214.02 31.366C213.846 31.366 213.658 31.366 213.457 31.366C213.255 31.3525 213.048 31.339 212.833 31.3257V39.2532C212.833 40.9701 213.021 42.0366 213.396 42.4524C213.906 43.0426 214.671 43.3376 215.69 43.3376H216.756V44.0821H205.066V43.3376H206.093C207.246 43.3376 208.071 42.9621 208.567 42.211C208.849 41.7951 208.99 40.8092 208.99 39.2532V21.6278C208.99 19.9108 208.802 18.8444 208.427 18.4285C207.903 17.8384 207.125 17.5433 206.093 17.5433H205.066V16.7988H215.006C217.903 16.7988 220.036 17.0135 221.404 17.4428C222.786 17.8586 223.953 18.6365 224.905 19.7766C225.871 20.9034 226.354 22.2515 226.354 23.8209C226.354 25.4976 225.804 26.9529 224.704 28.187C223.617 29.421 221.927 30.2929 219.634 30.8026L225.267 38.6294C226.555 40.4268 227.662 41.6208 228.587 42.211C229.513 42.8012 230.72 43.1767 232.209 43.3376V44.0821ZM212.833 30.0582C213.088 30.0582 213.309 30.065 213.497 30.0786C213.685 30.0786 213.839 30.0786 213.96 30.0786C216.562 30.0786 218.52 29.5151 219.835 28.3884C221.163 27.2616 221.827 25.8264 221.827 24.0826C221.827 22.3791 221.29 20.9975 220.217 19.9378C219.157 18.8647 217.749 18.3283 215.992 18.3283C215.214 18.3283 214.161 18.4556 212.833 18.7105V30.0582Z" fill="white"/>
<path d="M205.042 16.1758L205.666 25.4513H205.042C204.211 22.6747 203.023 20.676 201.481 19.4554C199.938 18.2347 198.087 17.6244 195.928 17.6244C194.117 17.6244 192.48 18.0873 191.018 19.0128C189.556 19.925 188.403 21.3871 187.558 23.3991C186.726 25.4111 186.31 27.9127 186.31 30.9039C186.31 33.372 186.706 35.5115 187.497 37.3224C188.289 39.1332 189.476 40.5216 191.059 41.4874C192.655 42.4531 194.472 42.936 196.511 42.936C198.282 42.936 199.844 42.5603 201.199 41.8092C202.554 41.0446 204.043 39.5357 205.666 37.2822L206.29 37.6845C204.921 40.1124 203.325 41.8897 201.501 43.0164C199.677 44.1432 197.51 44.7066 195.002 44.7066C190.482 44.7066 186.981 43.0298 184.499 39.6764C182.648 37.1815 181.723 34.2439 181.723 30.8637C181.723 28.1407 182.333 25.6391 183.554 23.3588C184.774 21.0785 186.451 19.3146 188.584 18.0671C190.73 16.8062 193.071 16.1758 195.606 16.1758C197.578 16.1758 199.523 16.6587 201.441 17.6244C202.004 17.9195 202.406 18.0671 202.648 18.0671C203.01 18.0671 203.325 17.9398 203.594 17.6849C203.942 17.3227 204.19 16.8196 204.338 16.1758H205.042Z" fill="white"/>
<path d="M183.799 43.3376V44.0821H172.109V43.3376H173.075C174.202 43.3376 175.02 43.009 175.53 42.3517C175.852 41.9225 176.013 40.8897 176.013 39.2532V21.6278C176.013 20.2462 175.926 19.334 175.751 18.8914C175.617 18.5561 175.342 18.2676 174.926 18.0262C174.336 17.7043 173.719 17.5433 173.075 17.5433H172.109V16.7988H183.799V17.5433H182.813C181.7 17.5433 180.889 17.872 180.379 18.5292C180.044 18.9585 179.876 19.9913 179.876 21.6278V39.2532C179.876 40.6348 179.963 41.5469 180.137 41.9896C180.272 42.3249 180.553 42.6133 180.982 42.8548C181.559 43.1767 182.17 43.3376 182.813 43.3376H183.799Z" fill="white"/>
<path d="M151.409 44.0825L139.095 17.2701V38.5602C139.095 40.5184 139.307 41.7405 139.73 42.2261C140.309 42.8841 141.226 43.213 142.479 43.213H143.607V44.0825H132.516V43.213H133.644C134.991 43.213 135.946 42.8057 136.51 41.991C136.855 41.4897 137.027 40.3461 137.027 38.5602V17.7401C137.027 16.3302 136.871 15.3119 136.557 14.6852C136.338 14.2309 135.931 13.8548 135.336 13.5572C134.756 13.2438 133.816 13.0873 132.516 13.0873V12.2178H141.539L153.101 37.1503L164.474 12.2178H173.498V13.0873H172.394C171.031 13.0873 170.067 13.4945 169.503 14.3091C169.159 14.8104 168.986 15.9542 168.986 17.7401V38.5602C168.986 40.5184 169.206 41.7405 169.644 42.2261C170.224 42.8841 171.14 43.213 172.394 43.213H173.498V44.0825H159.963V43.213H161.09C162.453 43.213 163.409 42.8057 163.957 41.991C164.302 41.4897 164.474 40.3461 164.474 38.5602V17.2701L152.184 44.0825H151.409Z" fill="white"/>
<path d="M287.848 16.1758C291.389 16.1758 294.454 17.5239 297.043 20.22C299.645 22.9028 300.946 26.2562 300.946 30.2803C300.946 34.4251 299.639 37.8656 297.023 40.602C294.407 43.3384 291.242 44.7066 287.526 44.7066C283.77 44.7066 280.611 43.3719 278.049 40.7025C275.501 38.0332 274.227 34.5793 274.227 30.3406C274.227 26.008 275.702 22.4735 278.653 19.7372C281.215 17.363 284.28 16.1758 287.848 16.1758ZM287.466 17.6446C285.025 17.6446 283.066 18.5501 281.591 20.3609C279.753 22.6144 278.834 25.9141 278.834 30.2601C278.834 34.7134 279.786 38.1406 281.691 40.5416C283.153 42.3659 285.085 43.278 287.486 43.278C290.048 43.278 292.161 42.2787 293.824 40.28C295.501 38.2814 296.339 35.1293 296.339 30.8235C296.339 26.1556 295.42 22.6747 293.582 20.381C292.107 18.5567 290.068 17.6446 287.466 17.6446Z" fill="white"/>
<path d="M339.928 56.5078V67.2957H339.077C338.801 65.2255 338.302 63.5771 337.582 62.3503C336.876 61.1235 335.864 60.1497 334.545 59.429C333.227 58.7083 331.862 58.348 330.451 58.348C328.856 58.348 327.538 58.8387 326.495 59.8202C325.452 60.7862 324.931 61.8903 324.931 63.1324C324.931 64.0831 325.26 64.9495 325.92 65.7316C326.871 66.8817 329.132 68.4151 332.705 70.3319C335.619 71.896 337.605 73.0998 338.663 73.9432C339.736 74.7712 340.557 75.7527 341.124 76.8874C341.707 78.0222 341.998 79.2106 341.998 80.4527C341.998 82.8142 341.078 84.8537 339.238 86.5711C337.413 88.2733 335.059 89.1243 332.176 89.1243C331.272 89.1243 330.42 89.0553 329.623 88.9173C329.148 88.8407 328.159 88.5646 326.656 88.0892C325.168 87.5985 324.225 87.3532 323.827 87.3532C323.443 87.3532 323.137 87.4682 322.907 87.6982C322.692 87.9282 322.531 88.4036 322.424 89.1243H321.572V78.4285H322.424C322.822 80.6673 323.359 82.3464 324.034 83.4658C324.708 84.5699 325.736 85.49 327.116 86.2261C328.511 86.9622 330.037 87.3301 331.693 87.3301C333.61 87.3301 335.121 86.8241 336.225 85.812C337.344 84.7999 337.904 83.6039 337.904 82.2238C337.904 81.4571 337.689 80.6826 337.26 79.9006C336.846 79.1185 336.194 78.3902 335.305 77.7155C334.706 77.2554 333.073 76.2816 330.405 74.7941C327.737 73.2914 325.835 72.0954 324.701 71.206C323.581 70.3166 322.73 69.3352 322.148 68.2617C321.565 67.1883 321.273 66.0075 321.273 64.7194C321.273 62.4805 322.132 60.5561 323.85 58.946C325.567 57.3205 327.752 56.5078 330.405 56.5078C332.061 56.5078 333.817 56.9142 335.673 57.7269C336.531 58.1103 337.137 58.3019 337.49 58.3019C337.888 58.3019 338.21 58.1869 338.456 57.9569C338.716 57.7115 338.923 57.2286 339.077 56.5078H339.928Z" fill="white"/>
<path d="M183.677 49.2754V50.3218C182.678 50.3218 181.868 50.5009 181.245 50.8591C180.623 51.2173 180.029 51.8866 179.464 52.867C179.087 53.5269 178.493 55.1013 177.682 57.59L166.992 88.501H165.861L157.122 63.9816L148.439 88.501H147.421L136.024 56.6567C135.176 54.2811 134.638 52.8765 134.412 52.4428C134.035 51.7264 133.517 51.1985 132.857 50.8591C132.216 50.5009 131.339 50.3218 130.227 50.3218V49.2754H144.424V50.3218H143.745C142.746 50.3218 141.982 50.5481 141.454 51.0006C140.926 51.453 140.662 51.9999 140.662 52.6409C140.662 53.3008 141.077 54.8184 141.907 57.194L149.458 78.7159L155.821 60.4181L154.69 57.194L153.785 54.6205C153.389 53.6778 152.946 52.8482 152.455 52.1318C152.21 51.7736 151.909 51.4719 151.55 51.2268C151.079 50.8874 150.608 50.6424 150.136 50.4916C149.778 50.3786 149.212 50.322 148.439 50.322V49.2757H163.372V50.322H162.354C161.298 50.322 160.525 50.5482 160.035 51.0007C159.544 51.4532 159.299 52.066 159.299 52.839C159.299 53.8005 159.724 55.4786 160.572 57.873L167.925 78.716L175.221 57.5902C176.051 55.2523 176.466 53.6308 176.466 52.7259C176.466 52.2922 176.324 51.8869 176.042 51.5098C175.778 51.1327 175.438 50.8688 175.024 50.718C174.307 50.454 173.374 50.322 172.224 50.322V49.2757L183.677 49.2754Z" fill="white"/>
<path d="M191.415 87.561V88.4121H178.051V87.561H179.155C180.443 87.561 181.378 87.1853 181.961 86.4339C182.329 85.9432 182.513 84.7624 182.513 82.8916V62.7421C182.513 61.1626 182.413 60.1199 182.214 59.6138C182.061 59.2305 181.746 58.9008 181.271 58.6247C180.596 58.2567 179.891 58.0727 179.155 58.0727H178.051V57.2217H191.415V58.0727H190.288C189.015 58.0727 188.087 58.4484 187.505 59.1997C187.121 59.6904 186.929 60.8712 186.929 62.7421V82.8916C186.929 84.471 187.029 85.5138 187.229 86.0198C187.382 86.4032 187.704 86.7329 188.195 87.0089C188.854 87.3769 189.552 87.561 190.288 87.561H191.415Z" fill="white"/>
<path d="M186.461 57.2217H194.926L213.994 80.6144V62.627C213.994 60.7102 213.779 59.5142 213.35 59.0388C212.783 58.3948 211.886 58.0727 210.659 58.0727H209.578V57.2217H220.435V58.0727H219.33C218.012 58.0727 217.076 58.4714 216.524 59.2688C216.187 59.7595 216.018 60.8789 216.018 62.627V88.918H215.19L194.627 63.8001V83.0066C194.627 84.9234 194.834 86.1196 195.248 86.5949C195.83 87.239 196.727 87.561 197.939 87.561H199.043V88.4121H188.186V87.561H189.267C190.601 87.561 191.544 87.1622 192.096 86.3648C192.434 85.8741 192.602 84.7548 192.602 83.0066V61.3159C191.698 60.2579 191.008 59.5602 190.532 59.2228C190.072 58.8855 189.39 58.5711 188.485 58.2797C188.04 58.1417 187.366 58.0727 186.461 58.0727V57.2217Z" fill="white"/>
<path d="M219.676 88.4121V87.561H220.849C222.168 87.561 223.103 87.1393 223.655 86.2959C223.992 85.7899 224.161 84.655 224.161 82.8916V62.7421C224.161 60.7946 223.946 59.5755 223.517 59.0848C222.919 58.4101 222.03 58.0727 220.849 58.0727H219.676V57.2217H232.373C237.034 57.2217 240.577 57.7506 243 58.8087C245.438 59.8668 247.393 61.6303 248.865 64.0991C250.352 66.568 251.096 69.4202 251.096 72.6558C251.096 76.9954 249.777 80.6221 247.14 83.5356C244.18 86.7865 239.672 88.4121 233.615 88.4121H219.676ZM228.577 86.1579C230.525 86.5873 232.158 86.8018 233.477 86.8018C237.034 86.8018 239.986 85.5521 242.333 83.0526C244.679 80.5531 245.852 77.1642 245.852 72.8859C245.852 68.5769 244.679 65.1803 242.333 62.6961C239.986 60.2119 236.973 58.9698 233.293 58.9698C231.913 58.9698 230.341 59.1921 228.577 59.6368V86.1579Z" fill="white"/>
<path d="M268.213 56.5078C272.261 56.5078 275.765 58.049 278.725 61.1312C281.7 64.1981 283.187 68.0318 283.187 72.6321C283.187 77.3705 281.692 81.3038 278.702 84.432C275.711 87.5603 272.092 89.1243 267.845 89.1243C263.551 89.1243 259.94 87.5986 257.011 84.5471C254.097 81.4955 252.641 77.5467 252.641 72.701C252.641 67.748 254.327 63.7074 257.701 60.5791C260.63 57.8649 264.134 56.5078 268.213 56.5078ZM267.776 58.187C264.985 58.187 262.746 59.222 261.059 61.2921C258.958 63.8683 257.908 67.6406 257.908 72.609C257.908 77.7001 258.997 81.6181 261.174 84.3629C262.846 86.4484 265.054 87.4912 267.799 87.4912C270.728 87.4912 273.143 86.3487 275.044 84.0639C276.961 81.7791 277.92 78.1755 277.92 73.2531C277.92 67.9167 276.869 63.9374 274.768 61.3152C273.082 59.2297 270.751 58.187 267.776 58.187Z" fill="white"/>
<path d="M323.747 57.2217V58.0727C322.934 58.0727 322.275 58.2183 321.769 58.5097C321.263 58.801 320.78 59.3455 320.319 60.1429C320.013 60.6796 319.53 61.9599 318.87 63.9841L310.176 89.1251H309.256L302.148 69.1825L295.087 89.1251H294.258L284.989 63.2251C284.299 61.293 283.862 60.1505 283.678 59.7978C283.371 59.2151 282.949 58.7857 282.413 58.5097C281.891 58.2183 281.178 58.0727 280.273 58.0727V57.2217H291.82V58.0727H291.268C290.456 58.0727 289.834 58.2567 289.405 58.6247C288.976 58.9928 288.761 59.4375 288.761 59.9589C288.761 60.4956 289.098 61.73 289.773 63.6621L295.915 81.1665L301.09 66.2843L300.17 63.6621L299.434 61.569C299.112 60.8023 298.752 60.1275 298.353 59.5448C298.153 59.2534 297.908 59.0081 297.617 58.8087C297.233 58.5327 296.85 58.3333 296.467 58.2106C296.175 58.1188 295.715 58.0729 295.087 58.0729V57.2218H307.231V58.0729H306.403C305.545 58.0729 304.916 58.2569 304.517 58.6249C304.119 58.9929 303.919 59.4914 303.919 60.1201C303.919 60.9021 304.264 62.2669 304.954 64.2143L310.935 81.1667L316.869 63.9844C317.544 62.0829 317.881 60.7641 317.881 60.0281C317.881 59.6754 317.766 59.3457 317.536 59.039C317.322 58.7323 317.046 58.5176 316.708 58.3949C316.125 58.1802 315.366 58.0729 314.431 58.0729V57.2218L323.747 57.2217Z" fill="white"/>
<path d="M93.2426 0.922874C83.6757 0.868885 74.292 3.00395 65.06 7.01623V18.7999C72.613 15.4594 78.7996 13.6587 84.2152 13.3148V40.0631C77.7732 40.5778 71.4165 42.5481 65.06 45.4598V53.8276C72.1003 50.4052 78.4573 48.8625 84.2152 48.4332V73.9718C77.432 75.1749 70.9056 76.9768 65.06 79.7149V91.747C83.1792 81.2203 102.422 82.2561 122.526 92.0057V7.96648C112.56 3.22046 102.809 0.976863 93.2426 0.922874ZM5.95627 7.79324L2.07422 9.77702V13.3148L5.95627 11.5898V7.79324ZM63.3349 7.79324L52.6361 12.9698V23.6694L63.3349 18.0609V7.79324ZM15.6194 9.60526L10.6161 12.6248V17.7151L15.6194 14.8688V9.60526ZM50.479 11.6753L40.5572 16.6801V26.344L50.479 21.3399V11.6753ZM95.2732 11.9326C100.413 11.9198 105.587 12.9542 110.705 15.1268V42.1339C108.202 41.185 103.21 39.9788 99.8601 39.6683C95.3447 39.2497 91.7213 39.4586 91.7213 39.4586L91.722 12.108C92.9035 11.9947 94.0871 11.9355 95.2732 11.9326ZM38.3132 12.2798L29.8583 16.2488V24.7914L38.3132 20.7354V12.2798ZM26.8373 13.4018L19.9342 16.6801V22.8062L26.8373 19.7004V13.4018ZM63.3349 19.9591L52.6361 25.2219V35.9208L63.3349 30.313V19.9591ZM63.3349 32.125L52.6361 37.3016V48.0012L63.3349 42.4789V32.125ZM5.95627 44.1184L2.07422 46.0167V49.64L5.95627 47.9135V44.1184ZM63.3349 44.3764L52.6361 49.5545V60.2541L63.3349 54.6455V44.3764ZM15.6194 45.9297L10.6161 48.95V54.1273L15.6194 51.2795V45.9297ZM96.4599 47.022C101.209 47.03 105.98 47.9364 110.705 49.8132V76.3883C104.665 74.4039 99.0562 73.2816 91.7213 73.6268L91.722 47.3105C93.2973 47.1164 94.877 47.0193 96.4599 47.022ZM50.479 48.0012L40.5572 53.0053V62.7561L50.479 57.6651V48.0012ZM38.3132 48.6912L29.8583 52.6603V61.2029L38.3132 57.1468V48.6912ZM26.8373 49.7255L19.9342 53.0053V59.1313L26.8373 56.0248V49.7255ZM63.3349 56.3713L52.6361 61.6341V72.2475L63.3349 66.7244V56.3713ZM63.3349 68.8822L52.6361 74.0588V84.7569L63.3349 79.2361V68.8822ZM5.95627 80.5299L2.07422 82.5144V86.0522L5.95627 84.3264V80.5299ZM63.3349 81.1329L52.6361 86.3109V97.0105L63.3349 91.402V81.1329ZM15.6194 82.3419L10.6161 85.3614V90.4525L15.6194 87.6902V82.3419ZM50.479 84.4126L40.5572 89.4167V99.0783L50.479 94.0765V84.4126ZM38.3132 85.0172L29.8583 88.9855V97.5281L38.3132 93.4728V85.0172ZM26.8373 86.1377L19.9342 89.4167V95.5428L26.8373 92.4362V86.1377Z" fill="white"/>
<path d="M50.4787 72.1593V81.8237L40.5573 86.9141V77.1653L50.4787 72.1593ZM50.4787 60.339V70.0027L40.5573 75.0939V65.3435L50.4787 60.339ZM38.3127 72.7639V81.307L29.858 85.275V76.8203L38.3127 72.7639ZM38.3127 61.0289V69.5719L29.858 73.6267V65.0853L38.3127 61.0289ZM26.8372 80.1843V73.8858L19.9342 77.1651V83.377L26.8372 80.1843ZM26.8372 68.3636V62.0651L19.9342 65.3436V71.5562L26.8372 68.3636ZM15.6193 70.0895V75.4384L10.6157 78.2858V73.1087L15.6193 70.0895ZM15.6193 58.3547V63.6176L10.6157 66.4651V61.3731L15.6193 58.3547ZM5.9564 56.543V60.2534L2.07422 61.9785V58.4415L5.9564 56.543ZM5.9564 68.364V72.0744L2.07422 73.8003V70.2625L5.9564 68.364Z" fill="white"/>
<path d="M50.4787 35.835V45.4995L40.5573 50.5899V40.8411L50.4787 35.835ZM50.4787 24.0148V33.6785L40.5573 38.7697V29.0192L50.4787 24.0148ZM38.3127 36.4397V44.9827L29.858 48.9508V40.4961L38.3127 36.4397ZM38.3127 24.7047V33.2477L29.858 37.3025V28.761L38.3127 24.7047ZM26.8372 43.8601V37.5616L19.9342 40.8409V47.0527L26.8372 43.8601ZM26.8372 32.0394V25.7409L19.9342 29.0194V35.232L26.8372 32.0394ZM15.6193 33.7653V39.1141L10.6157 41.9616V36.7845L15.6193 33.7653ZM15.6193 22.0305V27.2934L10.6157 30.1408V25.0489L15.6193 22.0305ZM5.9564 20.2188V23.9291L2.07422 25.6543V22.1173L5.9564 20.2188ZM5.9564 32.0397V35.7501L2.07422 37.4761V33.9383L5.9564 32.0397Z" fill="white"/>
</svg>
