<svg width="348" height="100" viewBox="0 0 348 100" fill="none" xmlns="http://www.w3.org/2000/svg">
<g clip-path="url(#clip0_4_6862)">
<path d="M103.164 33.1837L97.4585 37.9038H67.957L72.6969 18.0349L77.4691 14.248H82.2072L77.4691 34.1169L82.2072 31.2801L86.0098 17.1017L88.8634 14.248H95.5375L90.7826 34.1169L95.5375 30.3468L98.3743 18.0349L102.196 14.248H107.919L103.164 33.1837Z" fill="white"/>
<path d="M294.308 33.1846L287.823 37.9047H260.641L263.061 26.5608L267.366 22.4277H272.899L269.65 34.8965L274.421 32.0597L275.631 25.6102L278.815 22.4277H285.454L282.202 34.8965L286.7 31.8877L287.979 26.5608L292.128 22.4277H297.074L294.308 33.1846Z" fill="white"/>
<path d="M223.516 37.9044L228.288 33.1843H248.762C248.762 33.1843 250.525 33.7036 251.529 31.4723C252.445 29.3968 250.665 29.3968 250.665 29.3968H241.155C241.155 29.3968 238.423 28.7733 238.406 25.4189C238.353 17.1718 245.134 15.043 245.134 15.043H265.121L261.144 18.9862H250.665C250.665 18.9862 247.327 19.9385 247.257 22.7227C247.207 23.9848 248.762 23.726 248.762 23.726H257.303C257.303 23.726 262.249 24.5551 261.107 29.882C259.619 36.8861 254.466 37.9044 254.466 37.9044H223.516Z" fill="white"/>
<path d="M207.262 37.9042H215.802L218.395 28.0829C218.709 26.9407 221.717 25.6444 220.921 25.7833C220.142 25.9206 223.653 25.2634 223.653 25.2634C223.653 25.2634 224.76 25.5749 225.313 26.3362C225.885 27.0784 224.76 28.1871 224.604 29.0509C224.449 29.9147 225.556 30.0016 225.556 30.0016H230.329C230.329 30.0016 232.887 29.0509 233.579 28.1003C234.255 27.1323 235.1 26.129 235.1 25.2808C235.1 24.4344 233.216 23.3796 233.216 23.3796L231.297 22.4463H217.031C217.031 22.4463 210.201 26.3553 209.407 27.167C209.129 27.4084 207.262 37.9042 207.262 37.9042Z" fill="white"/>
<path d="M107.416 27.0631C106.758 27.8221 104.616 34.498 105.081 35.5858C105.565 36.643 108.212 37.9028 108.212 37.9028H122.114C122.114 37.9028 128.597 33.8391 129.099 33.2695C129.582 32.6818 131.416 26.1976 131.416 25.5214C131.416 24.8469 129.86 22.4258 129.86 22.4258H113.604C113.606 22.4275 108.092 26.3018 107.416 27.0631ZM118.257 25.5231H122.53C122.53 25.5231 122.044 30.6607 120.974 32.1116C119.884 33.5647 117.481 34.8268 117.481 34.8268C117.481 34.8268 114.783 35.103 114.402 34.8268C114.005 34.5154 114.298 31.7312 114.298 31.7312C114.298 31.7312 114.662 28.7224 115.164 27.8395C115.649 26.9757 118.257 25.5231 118.257 25.5231Z" fill="white"/>
<path d="M159.258 27.0624C158.601 27.8214 156.458 34.4973 156.941 35.5851C157.426 36.6423 160.054 37.9021 160.054 37.9021H179.403C179.403 37.9021 180.043 34.8261 180.839 31.7114C181.598 28.79 182.499 24.295 182.499 23.9633C182.499 23.2715 187.306 17.2041 187.306 17.2041H178.903L174.65 22.425H165.449C165.468 22.4268 159.951 26.3011 159.258 27.0624ZM170.1 25.5224H174.354C174.354 25.5224 173.887 30.66 172.797 32.1108C171.742 33.564 169.321 34.8261 169.321 34.8261C169.321 34.8261 166.625 35.1023 166.226 34.8261C165.862 34.5146 166.123 31.7305 166.123 31.7305C166.123 31.7305 166.487 28.7217 167.004 27.8388C167.489 26.975 170.1 25.5224 170.1 25.5224Z" fill="white"/>
<path d="M129.344 37.9047L133.734 22.4277H152.306C152.306 22.4277 154.762 22.6865 155.591 24.0702C156.456 25.4556 156.18 27.8397 156.18 27.8397L153.655 37.9047H145.909C145.909 37.9047 146.807 32.9756 147.673 29.3971C148.536 25.8169 146.115 25.5234 146.115 25.5234H141.482L138.819 34.8097C138.819 34.8097 136.502 37.507 135.534 37.9047H129.344Z" fill="white"/>
<path d="M319.934 37.9047L324.862 22.4277H343.435C343.435 22.4277 345.873 22.6865 346.737 24.0702C347.603 25.4556 347.326 27.8397 347.326 27.8397L344.714 37.9047H336.224C336.224 37.9047 337.642 33.756 338.542 30.1567C339.406 26.5956 337.279 25.5234 337.279 25.5234H332.628L330.033 34.8079C330.033 34.8079 327.89 37.5053 326.939 37.9047H319.934Z" fill="white"/>
<path d="M184.797 27.0631C184.123 27.8221 182.013 34.498 182.481 35.5858C182.948 36.643 185.576 37.9028 185.576 37.9028H199.496C199.496 37.9028 202.263 36.1735 204.321 34.8077C204.321 34.8077 192.493 34.8946 191.767 34.8077C191.439 34.7724 191.56 33.3389 191.595 32.4925H201.105C201.105 32.4925 202.937 32.0942 205.67 29.8282C208.436 27.5634 208.782 27.3202 208.782 25.5214C208.782 23.7417 207.225 22.4258 207.225 22.4258H190.973C191.006 22.4275 185.474 26.3018 184.797 27.0631ZM195.659 25.5231H201.9C201.9 25.5231 201.208 27.8916 197.803 29.3969H192.598C192.096 28.0485 193.324 26.9757 194.016 26.3869C194.741 25.7298 195.659 25.5231 195.659 25.5231Z" fill="white"/>
<path d="M309.869 37.9045C309.869 37.9045 312.497 29.5879 313.327 26.9236C313.743 25.4728 312.775 25.5231 310.941 25.5231C309.108 25.5231 307.776 25.9209 305.235 30.1565C302.261 35.103 309.627 36.4514 309.627 36.4514L309.108 37.9028H300.6C300.6 37.9028 295.949 38.0938 295.949 32.4925C295.949 25.61 304.75 22.4258 304.75 22.4258H323.339L318.394 37.9028H309.869V37.9045Z" fill="white"/>
<path d="M44.4585 14.3179C44.8893 14.3023 45.3397 14.2832 45.7895 14.2832C55.4724 14.2832 63.7728 23.672 64.3952 28.4443C64.4646 28.9468 64.4994 29.3966 64.5341 29.7776C64.4125 16.7385 44.0949 0 27.7715 0C15.1817 0 9.30368 5.08374 7.36595 10.8246C4.46137 18.0701 8.28358 28.3765 17.2063 35.7077C18.1569 36.4685 19.0902 37.1759 20.0582 37.8348C19.6431 37.8695 19.1944 37.8695 18.7446 37.8695C9.06053 37.8695 0.759579 28.4807 0.137211 23.7085C0.0868421 23.2059 0.0347368 22.7578 0 22.3769C0.119842 35.4136 20.4392 52.1527 36.7626 52.1527C49.3506 52.1527 55.2304 47.0534 57.167 41.3282C60.0727 34.1 56.2511 23.7953 47.3278 16.445C46.3754 15.6837 45.4422 14.9745 44.4585 14.3179ZM26.2825 35.9683C19.0902 30.0711 16.7021 21.4072 20.7309 16.478C24.7946 11.5506 33.9611 12.1208 41.3264 17.8634C48.6229 23.5342 51.4244 32.1791 47.6896 37.3323C49.2117 34.2372 47.5171 29.586 43.5044 26.4214C39.1994 23.0323 33.7868 22.6861 31.4009 25.6097C28.9972 28.5311 30.4324 33.6843 34.6523 37.1933C37.9199 39.9097 41.8793 40.8592 44.7156 39.875C39.9271 42.4177 32.3707 40.9652 26.2825 35.9683Z" fill="white"/>
<path d="M191.088 47.5483C188.335 46.7366 185.233 50.6265 182.584 56.5619C180.225 66.4544 174.978 81.0381 174.641 91.1031C174.486 95.5696 178.611 96.8786 181.411 97.8675C190.278 100.994 195.463 97.9352 198.105 94.7406C200.002 92.4485 197.993 90.538 195.64 91.2385C192.237 92.2447 188.078 92.9279 187.217 89.6412C186.272 86.0159 191.316 71.123 194.799 60.0327C196.703 53.9723 198.315 48.9493 191.092 47.5396L191.088 47.5483Z" fill="white"/>
<path d="M145.145 65.0958C139.144 65.7182 127.218 68.8931 127.218 84.3215C127.218 85.0464 125.042 101.74 146.571 99.8037C168.106 97.8695 171.73 84.3215 171.73 84.3215C171.73 84.3215 177.057 66.4164 163.989 66.9033C156.015 67.1968 152.377 70.7736 152.377 70.7736C152.377 70.7736 157.698 71.8186 158.846 75.6385C161.028 82.8828 160.223 95.1044 148.507 93.9969C136.747 92.8865 142.492 77.3521 146.197 69.4756C147.478 66.7678 147.165 64.8874 145.149 65.0958H145.145Z" fill="white"/>
<path d="M216.756 65.0958C210.753 65.7182 198.827 68.8931 198.827 84.3215C198.827 85.0464 196.653 101.74 218.18 99.8037C239.715 97.8695 243.341 84.3215 243.341 84.3215C243.341 84.3215 248.666 66.4164 235.599 66.9033C227.624 67.1968 223.988 70.7736 223.988 70.7736C223.988 70.7736 229.306 71.8186 230.455 75.6385C232.638 82.8828 231.833 95.1044 220.116 93.9969C208.357 92.8865 214.1 77.3521 217.806 69.4756C219.085 66.7678 218.774 64.8874 216.758 65.0958H216.756Z" fill="white"/>
<path d="M74.9593 76.5781C73.9948 57.4635 100.397 48.8864 109.798 48.1616C119.204 47.4298 129.152 49.4827 129.152 49.4827C129.152 49.4827 127.701 68.3506 123.346 68.8352C118.996 69.3204 119.96 54.563 111.732 55.289C96.6675 56.6154 90.6228 73.0378 90.4433 78.5123C90.3634 81.1598 91.1751 93.0248 102.055 92.0603C112.942 91.0888 115.363 85.2819 117.539 84.3174C119.718 83.3459 123.891 81.436 123.344 86.2534C122.141 96.8939 102.055 99.8014 102.055 99.8014C102.055 99.8014 76.218 101.228 74.9611 76.5798L74.9593 76.5781Z" fill="white"/>
<path d="M253.019 97.8708C243.826 98.356 248.906 87.2222 251.084 80.4509C253.264 73.6743 252.864 66.2458 260.76 66.9047C269.49 67.6243 262.694 78.516 262.694 78.516C262.694 78.516 275.955 63.9746 287.855 64.9687C290.761 65.2083 282.048 84.3229 282.048 84.3229C282.048 84.3229 279.873 77.3066 274.307 78.516C258.309 81.9978 262.212 97.3874 253.022 97.8725L253.019 97.8708Z" fill="white"/>
</g>
<defs>
<clipPath id="clip0_4_6862">
<rect width="347.368" height="100" fill="white"/>
</clipPath>
</defs>
</svg>
