<svg width="660" height="100" viewBox="0 0 660 100" fill="none" xmlns="http://www.w3.org/2000/svg">
<g clip-path="url(#clip0_4_6849)">
<path d="M129.117 72.679L138.123 34.5815L147.19 27.3203H156.193L147.19 65.4178L156.193 59.9783L163.417 32.792L168.839 27.3203H181.52L172.486 65.4178L181.52 58.1889L186.91 34.5815L194.171 27.3203H205.046L196.01 63.6284L185.17 72.679H129.117Z" fill="white"/>
<path d="M495.219 72.6792L499.818 50.9279L507.997 43.0029H518.509L512.337 66.9112L521.402 61.4717L523.7 49.1052L529.75 43.0029H542.364L536.186 66.9112L544.732 61.142L547.162 50.9279L555.044 43.0029H564.443L559.186 63.6286L546.865 72.6792H495.219Z" fill="white"/>
<path d="M424.68 72.6794L433.748 63.6287H472.648C472.648 63.6287 475.997 64.6245 477.905 60.3462C479.646 56.3665 476.264 56.3665 476.264 56.3665H458.195C458.195 56.3665 453.004 55.1709 452.971 48.739C452.872 32.9256 465.754 28.8438 465.754 28.8438H503.729L496.173 36.4046H476.264C476.264 36.4046 469.92 38.2308 469.788 43.5692C469.693 45.9892 472.648 45.493 472.648 45.493H488.876C488.876 45.493 498.273 47.0827 496.104 57.2967C493.277 70.7267 483.486 72.6794 483.486 72.6794H424.68Z" fill="white"/>
<path d="M393.797 72.6797H410.024L414.951 53.848C415.546 51.6577 421.262 49.1722 419.749 49.4387C418.27 49.7017 424.94 48.4418 424.94 48.4418C424.94 48.4418 427.044 49.039 428.094 50.4988C429.181 51.922 427.044 54.0478 426.747 55.7041C426.453 57.3603 428.557 57.5268 428.557 57.5268H437.624C437.624 57.5268 442.485 55.7041 443.8 53.8813C445.084 52.0252 446.689 50.1014 446.689 48.4751C446.689 46.8521 443.11 44.8295 443.11 44.8295L439.463 43.04H412.359C412.359 43.04 399.382 50.5354 397.872 52.0918C397.344 52.5547 393.797 72.6797 393.797 72.6797Z" fill="white"/>
<path d="M204.091 51.8919C202.843 53.3472 198.771 66.1478 199.656 68.2337C200.574 70.2607 205.604 72.6763 205.604 72.6763H232.018C232.018 72.6763 244.336 64.8845 245.289 63.7922C246.208 62.6654 249.692 50.2323 249.692 48.9357C249.692 47.6424 246.736 43 246.736 43H215.85C215.853 43.0033 205.376 50.4321 204.091 51.8919ZM224.691 48.939H232.808C232.808 48.939 231.886 58.7901 229.852 61.572C227.782 64.3583 223.215 66.7783 223.215 66.7783C223.215 66.7783 218.09 67.3079 217.366 66.7783C216.61 66.1811 217.168 60.8426 217.168 60.8426C217.168 60.8426 217.859 55.0734 218.812 53.3805C219.734 51.7243 224.691 48.939 224.691 48.939Z" fill="white"/>
<path d="M302.589 51.892C301.342 53.3474 297.27 66.1479 298.188 68.2338C299.109 70.2609 304.102 72.6764 304.102 72.6764H340.866C340.866 72.6764 342.082 66.7785 343.594 60.8061C345.036 55.2046 346.748 46.5858 346.748 45.9497C346.748 44.6231 355.881 32.9893 355.881 32.9893H339.915L331.834 43.0001H314.353C314.389 43.0035 303.907 50.4323 302.589 51.892ZM323.189 48.9392H331.273C331.273 48.9392 330.385 58.7902 328.314 61.5721C326.31 64.3585 321.71 66.7785 321.71 66.7785C321.71 66.7785 316.588 67.308 315.829 66.7785C315.138 66.1812 315.633 60.8428 315.633 60.8428C315.633 60.8428 316.324 55.0736 317.307 53.3807C318.229 51.7244 323.189 48.9392 323.189 48.9392Z" fill="white"/>
<path d="M245.754 72.6792L254.095 43.0029H289.382C289.382 43.0029 294.048 43.4991 295.624 46.1523C297.268 48.8088 296.743 53.3801 296.743 53.3801L291.945 72.6792H277.227C277.227 72.6792 278.934 63.2278 280.579 56.3663C282.22 49.5015 277.62 48.9386 277.62 48.9386H268.817L263.758 66.7446C263.758 66.7446 259.355 71.9166 257.516 72.6792H245.754Z" fill="white"/>
<path d="M607.875 72.6792L617.239 43.0029H652.527C652.527 43.0029 657.16 43.4991 658.802 46.1523C660.446 48.8088 659.922 53.3801 659.922 53.3801L654.957 72.6792H638.827C638.827 72.6792 641.521 64.7243 643.231 57.8228C644.872 50.9945 640.831 48.9386 640.831 48.9386H631.994L627.063 66.7413C627.063 66.7413 622.992 71.9133 621.186 72.6792H607.875Z" fill="white"/>
<path d="M351.114 51.8919C349.833 53.3472 345.825 66.1478 346.713 68.2337C347.601 70.2607 352.594 72.6763 352.594 72.6763H379.041C379.041 72.6763 384.299 69.3604 388.209 66.7417C388.209 66.7417 365.737 66.9082 364.356 66.7417C363.733 66.674 363.964 63.9254 364.03 62.3024H382.099C382.099 62.3024 385.58 61.5387 390.772 57.1937C396.029 52.851 396.685 52.3848 396.685 48.9357C396.685 45.5233 393.726 43 393.726 43H362.847C362.91 43.0033 352.399 50.4321 351.114 51.8919ZM371.75 48.939H383.608C383.608 48.939 382.294 53.4805 375.825 56.3667H365.935C364.981 53.7813 367.315 51.7243 368.63 50.5953C370.007 49.3353 371.75 48.939 371.75 48.939Z" fill="white"/>
<path d="M588.756 72.6796C588.756 72.6796 593.749 56.733 595.327 51.6244C596.116 48.8425 594.277 48.939 590.793 48.939C587.309 48.939 584.779 49.7017 579.951 57.8232C574.302 67.3079 588.297 69.8933 588.297 69.8933L587.309 72.6763H571.145C571.145 72.6763 562.309 73.0426 562.309 62.3024C562.309 49.1056 579.031 43 579.031 43H614.349L604.953 72.6763H588.756V72.6796Z" fill="white"/>
<path d="M84.4712 27.4539C85.2896 27.4239 86.1454 27.3873 87.0001 27.3873C105.398 27.3873 121.168 45.3898 122.351 54.5403C122.483 55.5039 122.549 56.3664 122.615 57.0936C122.384 32.0952 83.7804 0 52.7659 0C28.8453 0 17.677 9.74779 13.9953 20.7555C8.4766 34.6484 15.7388 54.4104 32.692 68.4676C34.4982 69.9263 36.2714 71.2829 38.1106 72.5461C37.3219 72.6128 36.4694 72.6128 35.6147 72.6128C17.215 72.6128 1.4432 54.6103 0.2607 45.4597C0.165 44.4961 0.066 43.6369 0 42.9065C0.2277 67.9037 38.8344 100 69.8489 100C93.7662 100 104.938 90.2223 108.617 79.2445C114.138 65.3849 106.877 45.6262 89.9228 31.5324C88.1133 30.0726 86.3401 28.7127 84.4712 27.4539ZM49.9367 68.9672C36.2714 57.6597 31.7339 41.0471 39.3888 31.5957C47.1097 22.1476 64.526 23.2411 78.5202 34.2521C92.3835 45.1256 97.7064 61.7016 90.6103 71.5826C93.5022 65.648 90.2825 56.7294 82.6584 50.6616C74.4788 44.1631 64.1949 43.4993 59.6618 49.1053C55.0946 54.7068 57.8215 64.5878 65.8394 71.3162C72.0478 76.5247 79.5707 78.3453 84.9596 76.4581C75.8615 81.3337 61.5043 78.5485 49.9367 68.9672Z" fill="white"/>
</g>
<defs>
<clipPath id="clip0_4_6849">
<rect width="660" height="100" fill="white"/>
</clipPath>
</defs>
</svg>
