<svg width="316" height="100" viewBox="0 0 316 100" fill="none" xmlns="http://www.w3.org/2000/svg">
<g clip-path="url(#clip0_4_6880)">
<path d="M29.6211 0.0270179H31.2962C55.8829 0.0270179 80.4695 0.0180122 105.056 0C106.188 0 106.788 0.324219 107.361 1.32119C124.777 31.6717 142.209 62.0141 159.657 92.3484C160.179 93.2535 160.716 93.5643 161.749 93.5561C169.36 93.5102 176.968 93.5237 184.576 93.5426C185.354 93.5426 185.862 93.4184 186.297 92.6429C199.086 69.8557 211.894 47.0793 224.72 24.3137C224.871 24.0436 224.99 23.7734 225.236 23.2762H198.469C198.926 22.7359 199.155 22.4198 199.42 22.1442C206.202 15.0492 212.993 7.96318 219.795 0.886199C220.28 0.400051 220.925 0.107119 221.61 0.0621409C252.634 0.0225141 283.658 0.0108069 314.68 0.0270179H315.742C315.472 0.543067 315.288 0.91862 315.083 1.27796C296.359 33.835 277.642 66.3965 258.933 98.9625C258.444 99.8163 257.896 100 257.01 100C200.952 99.9838 144.894 99.9838 88.8343 100C87.9941 100 87.4672 99.8244 87.0052 99.03C68.087 66.3758 49.1508 33.735 30.1966 1.10775C30.0426 0.837566 29.9048 0.567383 29.6211 0.0270179ZM236.289 16.8162L193.165 93.467C193.706 93.494 194.035 93.5291 194.373 93.5291C214.093 93.5291 233.816 93.539 253.543 93.5588C254.486 93.5588 254.875 93.1482 255.283 92.4376C271.483 64.2467 287.694 36.0577 303.916 7.87042C304.151 7.46244 304.364 7.03826 304.64 6.51951C304.219 6.48438 303.997 6.44926 303.775 6.44926C277.26 6.44926 250.744 6.45827 224.228 6.47628C223.627 6.52042 223.061 6.77932 222.634 7.20577C219.795 10.094 217.006 13.0363 214.21 15.9678C213.993 16.2337 213.791 16.5115 213.605 16.8L236.289 16.8162ZM40.7796 6.46277C41.1309 7.1004 41.3686 7.56511 41.6307 8.01902C57.9281 36.0982 74.2192 64.181 90.5041 92.2674C91.0444 93.1833 91.5848 93.5615 92.6898 93.5588C112.224 93.521 131.759 93.512 151.295 93.5318H152.889C152.554 92.8942 152.349 92.4511 152.103 92.0404C135.937 63.9414 119.779 35.8343 103.63 7.71912C103.089 6.77618 102.522 6.43575 101.436 6.43845C81.7213 6.47087 62.0052 6.47898 42.2873 6.46277H40.7796Z" fill="white"/>
<path d="M47.9061 52.8662L75.7538 99.878H0L47.9061 52.8662ZM46.5552 63.1737L15.7219 93.4341H64.4818L46.5552 63.1737Z" fill="white"/>
<path d="M119.02 0.0888672H188.578C173.737 15.138 159.061 30.017 144.233 45.0473L119.02 0.0888672ZM145.66 34.4723L173.18 6.55974H130.005L145.66 34.4723Z" fill="white"/>
</g>
<defs>
<clipPath id="clip0_4_6880">
<rect width="315.741" height="100" fill="white"/>
</clipPath>
</defs>
</svg>
