<svg width="587" height="100" viewBox="0 0 587 100" fill="none" xmlns="http://www.w3.org/2000/svg">
<g clip-path="url(#clip0_4_6884)">
<path d="M24.7695 0.0292969L82.564 100H161L103.206 0.0292969H24.7695ZM37.1541 6.27656H97.0126L146.375 91.6699H86.5133L37.1541 6.27656Z" fill="white"/>
<path d="M45.4344 53.6191L0 100H72.246L45.4344 53.6191ZM43.0036 66.6791L59.8615 93.7532H16.5127L43.0036 66.6791Z" fill="white"/>
<path d="M138.37 46.3774L183.805 0H111.559L138.37 46.3774ZM140.801 33.3243L123.942 6.24922H167.288L140.801 33.3243Z" fill="white"/>
<path d="M196.264 65.122C196.155 64.9736 195.921 66.252 195.564 68.9464C195.206 71.6398 195.006 73.6458 194.971 74.9515C195.342 77.7445 196.285 77.765 197.815 79.1733C199.088 79.9643 200.174 79.7426 203.234 80.0893C206.297 80.4438 224.523 80.4497 227.607 80.104C230.681 79.7651 233.254 79.3412 234.934 78.224C238.21 76.1497 240.431 73.1604 241.595 65.0957C242.427 60.742 242.791 59.6238 242.693 57.571C242.569 54.82 241.182 52.9722 238.526 52.0435C235.871 51.1128 231.996 51.563 227.689 51.563H219.183C210.039 51.563 204.501 51.604 201.763 53.5152C198.644 55.6159 197.407 58.4148 196.264 65.122ZM261.649 32.9882H248.701C249.135 29.8407 249.016 27.7361 248.928 25.8142C248.839 23.8561 248.639 22.1392 247.759 21.5103C245.916 19.9077 238.402 20.0503 230.406 20.0503H222.928C214.975 20.0503 210.323 20.0034 207.907 21.8091C204.785 24.2584 202.898 28.0076 202.245 33.0497L200.139 41.719C200.139 41.719 201.542 39.5939 204.694 39.255C210.225 38.6495 219.438 39.213 222.899 39.213C231.334 39.3595 238.305 38.8585 242.838 39.6056C247.372 40.3664 252.308 41.3498 254.667 43.9329C256.753 46.0912 257.893 49.4047 258.099 53.8668C258.238 56.8112 257.659 61.6239 256.371 68.2872C255.651 71.5031 254.812 74.4055 253.849 76.9808C252.892 79.561 251.568 81.9575 249.876 84.1656C248.193 86.3737 246.185 90.198 243.851 91.4764C240.171 93.372 235.452 93.247 231.184 93.7528C226.919 94.2597 220.078 93.7528 213.303 93.7528C207.255 93.7528 201.117 93.8925 196.713 93.3661C192.303 92.8378 188.671 91.5506 185.815 89.5125C182.326 86.9489 180.366 82.7144 179.946 76.8138C179.926 73.7649 180.262 70.3019 180.956 66.4072L188.174 28.1892C189.545 19.8208 192.082 13.2972 198.116 9.40837C201.474 7.29893 205.547 5.90337 210.337 5.22367C215.132 4.53517 223.038 4.19629 229.937 4.19629H240.546C247.759 4.19629 249.767 5.168 254.823 7.10458C259.88 9.04215 262.544 12.9065 262.813 18.7065C262.896 20.3989 262.503 27.9392 261.649 32.9882Z" fill="white"/>
<path d="M311.403 16.4115C302.894 16.4115 295.144 16.8022 292.29 17.5805C289.502 18.3637 287.754 18.2954 286.495 20.3071C285.244 22.3219 284.446 24.4313 284.104 26.6462C283.757 28.8543 283.447 31.8251 283.179 35.5469C283.447 37.7823 284.156 39.3224 285.305 40.1545C287.506 41.5588 295.22 41.6838 305.238 41.6838C314.211 41.6838 320.904 41.4953 324.412 39.9611C325.899 39.3712 327.181 38.0392 328.252 35.9707C329.334 33.8935 329.986 32.3788 330.751 28.4724C331.177 26.1062 331.362 24.1061 331.33 22.4615C331.279 20.3697 330.639 18.9809 329.407 18.2866C328.055 17.5385 325.981 17.0375 323.196 16.7865C320.402 16.5375 316.474 16.4115 311.403 16.4115ZM333.122 47.4174C338.457 49.6255 338.457 54.82 338.596 60.7957C338.617 61.6385 338.814 66.1826 338.539 67.7598C338.265 69.3273 338.354 70.5382 338.259 71.0441C337.081 76.5277 336.696 78.9447 334.859 82.187C333.023 85.4352 331.941 87.7604 328.737 89.4978C325.943 91.0945 322.398 92.2039 318.113 92.8231C313.818 93.4403 306.299 93.7528 299.675 93.7528H291.115C283.705 93.7528 277.909 93.4823 273.727 92.9422C269.551 92.4002 267.088 90.4549 264.631 88.1862C262.312 86.1452 260.112 81.188 259.73 76.4115C259.855 74.1829 260.248 73.0442 260.901 68.8448C261.763 64.9648 261.967 61.8378 262.649 59.7557C263.332 57.6814 264.693 55.235 266.194 53.3267C267.685 51.4253 269.894 50.0288 272.511 48.5229C274.12 47.5932 274.601 47.2387 272.957 45.8499C271.146 44.3294 270.665 42.9055 270.157 41.0451C269.894 40.464 269.758 34.7988 269.728 34.6123C270.529 21.6773 273.884 15.0892 279.891 10.1115C283.421 7.05673 284.978 5.24417 292.808 4.68166C296.824 4.35352 307.841 4.19629 313.467 4.19629C321.229 4.19629 328.775 4.36231 331.988 4.69728C334.812 5.11038 337.26 5.72173 339.352 6.52058C341.446 7.32529 341.23 8.69252 342.825 10.6301C344.225 12.4153 344.966 15.2464 345.058 19.1206C345.117 21.7935 344.946 24.5797 344.535 27.4861C344.127 30.3895 343.377 33.1874 342.284 35.8906C341.198 38.587 339.786 40.7414 338.052 42.3596C335.879 44.7474 336.183 46.4222 333.303 47.3725C332.685 47.5814 332.355 47.4359 332.37 47.3373C332.375 47.2592 332.624 47.2084 333.122 47.4174ZM302.719 53.1861C297.25 53.1861 291.656 53.1656 288.705 53.5006C285.754 53.8336 283.338 54.4713 281.445 55.4108C279.705 56.1999 278.308 57.6306 277.248 59.7019C276.182 61.7762 275.246 64.664 274.427 68.3653C273.733 72.6565 273.822 73.509 273.692 74.7581C273.955 77.0345 274.427 78.3754 276.135 79.1322C277.848 79.8891 280.311 81.2104 283.702 81.3559C286.289 81.6362 293.04 81.7788 299.819 81.7788C306.857 81.7788 312.374 82.271 316.193 80.8345C317.995 80.0346 319.982 79.812 321.125 77.7592C322.275 75.7073 322.771 73.5862 323.645 69.628C324.339 66.6006 324.67 64.2285 324.629 62.5057C324.582 60.5477 324.038 56.9724 322.983 55.9499C322.112 54.9577 320.163 54.2213 317.15 53.735C314.135 53.2437 308.872 53.1861 302.719 53.1861Z" fill="white"/>
<path d="M376.921 93.7528C369.204 93.7528 361.016 93.2587 356.48 92.2752C351.946 91.2879 348.653 89.5564 346.579 87.0807C344.022 84.1773 344.495 80.0317 344.137 74.3606C344.287 69.8224 344.854 65.2744 345.575 60.9989L350.248 36.2266C351.226 30.9159 352.608 26.112 354.403 21.8091C356.194 17.5112 358.718 13.9261 361.965 11.0686C363.825 9.25602 366.265 7.82531 369.286 6.7618C372.302 5.70708 375.742 5.01272 379.594 4.68849C383.439 4.35938 388.174 4.19336 393.779 4.19336C398.018 4.19336 401.831 4.33887 405.21 4.63087C408.595 4.92287 411.56 5.45121 414.111 6.22272C416.666 6.9913 418.831 8.14466 420.607 9.67009C423.829 12.6233 425.512 17.267 425.657 23.6061C425.72 26.1599 425.335 30.5467 424.508 36.7696L419.741 61.6503C417.163 75.7913 414.076 85.0748 406.37 89.5037C403.242 91.2528 399.477 92.3973 395.067 92.9393C390.654 93.4823 383.233 93.7528 376.921 93.7528ZM391.544 17.017C385.661 17.017 381.452 17.1303 378.917 17.35C376.387 17.5649 374.206 18.0385 372.376 18.769C370.97 19.3442 369.711 20.1763 368.589 21.2515C367.475 22.3365 366.363 24.1481 365.252 26.6814C364.147 29.2234 363.175 30.5643 362.349 34.8525L357.065 63.1435C356.462 67.3301 356.081 68.6485 355.937 71.2677C356.096 73.6135 356.48 75.3294 357.106 76.4173C357.732 77.5082 358.663 78.3754 359.879 79.0219C361.433 79.8325 363.418 80.3549 365.831 80.5835C368.247 80.813 372.231 80.9302 377.784 80.9302C384.533 80.9302 389.548 80.7202 392.85 80.3178C396.154 79.9106 398.656 78.9711 400.363 77.514C403.514 74.6556 405.331 70.38 407.189 61.4725L412.074 35.3897C412.783 30.4041 413.104 28.7107 413.051 26.1394C412.968 22.5777 412.845 20.7183 411.312 19.6216C409.839 18.4946 407.773 17.7827 405.125 17.476C402.469 17.1684 397.95 17.017 391.544 17.017Z" fill="white"/>
<path d="M457.425 93.7528C449.707 93.7528 441.52 93.2587 436.983 92.2752C432.45 91.2879 429.157 89.5564 427.083 87.0807C424.525 84.1773 424.998 80.0317 424.641 74.3606C424.794 69.8224 425.355 65.2744 426.079 60.9989L430.752 36.2266C431.73 30.9159 433.111 26.112 434.907 21.8091C436.697 17.5112 439.222 13.9261 442.471 11.0686C444.329 9.25602 446.772 7.82531 449.79 6.7618C452.805 5.70708 456.243 5.01272 460.098 4.68849C463.943 4.35938 468.678 4.19336 474.283 4.19336C478.522 4.19336 482.334 4.33887 485.714 4.63087C489.099 4.92287 492.063 5.45121 494.618 6.22272C497.17 6.9913 499.335 8.14466 501.11 9.67009C504.332 12.6233 506.016 17.267 506.164 23.6061C506.225 26.1599 505.839 30.5467 505.012 36.7696L500.244 61.6503C497.666 75.7913 494.583 85.0748 486.877 89.5037C483.743 91.2528 479.984 92.3973 475.571 92.9393C471.158 93.4823 463.736 93.7528 457.425 93.7528ZM472.047 17.017C466.164 17.017 461.953 17.1303 459.421 17.35C456.89 17.5649 454.707 18.0385 452.876 18.769C451.474 19.3442 450.215 20.1763 449.093 21.2515C447.979 22.3365 446.866 24.1481 445.756 26.6814C444.651 29.2234 443.679 30.5643 442.852 34.8525L437.568 63.1435C436.963 67.3301 436.584 68.6485 436.439 71.2677C436.6 73.6135 436.983 75.3294 437.61 76.4173C438.236 77.5082 439.166 78.3754 440.383 79.0219C441.937 79.8325 443.918 80.3549 446.335 80.5835C448.751 80.813 452.734 80.9302 458.287 80.9302C465.036 80.9302 470.051 80.7202 473.353 80.3178C476.655 79.9106 479.16 78.9711 480.867 77.514C484.018 74.6556 485.835 70.38 487.693 61.4725L492.578 35.3897C493.286 30.4041 493.608 28.7107 493.555 26.1394C493.472 22.5777 493.348 20.7183 491.816 19.6216C490.341 18.4946 488.277 17.7827 485.628 17.476C482.973 17.1684 478.454 17.017 472.047 17.017Z" fill="white"/>
<path d="M537.925 93.7528C530.207 93.7528 522.017 93.2587 517.483 92.2752C512.949 91.2879 509.653 89.5564 507.583 87.0807C505.025 84.1773 505.498 80.0317 505.141 74.3606C505.291 69.8224 505.855 65.2744 506.579 60.9989L511.251 36.2266C512.229 30.9159 513.611 26.112 515.406 21.8091C517.197 17.5112 519.719 13.9261 522.968 11.0686C524.825 9.25602 527.268 7.82531 530.289 6.7618C533.302 5.70708 536.743 5.01272 540.594 4.68849C544.442 4.35938 549.174 4.19336 554.783 4.19336C559.021 4.19336 562.832 4.33887 566.21 4.63087C569.598 4.92287 572.56 5.45121 575.115 6.22272C577.667 6.9913 579.835 8.14466 581.61 9.67009C584.83 12.6233 586.515 17.267 586.66 23.6061C586.723 26.1599 586.335 30.5467 585.511 36.7696L580.744 61.6503C578.163 75.7913 575.08 85.0748 567.374 89.5037C564.243 91.2528 560.48 92.3973 556.068 92.9393C551.658 93.4823 544.236 93.7528 537.925 93.7528ZM552.547 17.017C546.664 17.017 542.452 17.1303 539.921 17.35C537.39 17.5649 535.21 18.0385 533.379 18.769C531.973 19.3442 530.714 20.1763 529.593 21.2515C528.479 22.3365 527.366 24.1481 526.255 26.6814C525.151 29.2234 524.179 30.5643 523.352 34.8525L518.068 63.1435C517.463 67.3301 517.084 68.6485 516.939 71.2677C517.099 73.6135 517.483 75.3294 518.109 76.4173C518.736 77.5082 519.666 78.3754 520.883 79.0219C522.437 79.8325 524.418 80.3549 526.834 80.5835C529.247 80.813 533.234 80.9302 538.784 80.9302C545.536 80.9302 550.551 80.7202 553.853 80.3178C557.157 79.9106 559.66 78.9711 561.367 77.514C564.518 74.6556 566.334 70.38 568.192 61.4725L573.078 35.3897C573.786 30.4041 574.108 28.7107 574.054 26.1394C573.972 22.5777 573.848 20.7183 572.315 19.6216C570.841 18.4946 568.776 17.7827 566.128 17.476C563.472 17.1684 558.951 17.017 552.547 17.017Z" fill="white"/>
</g>
<defs>
<clipPath id="clip0_4_6884">
<rect width="586.667" height="100" fill="white"/>
</clipPath>
</defs>
</svg>
