<svg width="587" height="100" viewBox="0 0 587 100" fill="none" xmlns="http://www.w3.org/2000/svg">
<g clip-path="url(#clip0_4_6899)">
<path d="M550.669 91.4648C544.199 91.4648 538.724 89.3577 534.577 85.2504C525.37 76.157 524.043 59.3155 524.043 50.0912C524.043 37.6361 526.615 8.717 550.668 8.717C574.723 8.717 577.376 37.6361 577.376 50.0912C577.376 62.5205 574.723 91.4648 550.669 91.4648ZM550.669 0.172863C527.776 0.156055 514.67 18.3675 514.67 50.0906C514.67 81.7975 527.775 100 550.669 100C563.691 100 573.395 94.3918 579.533 83.339C585.423 72.7947 586.666 59.4379 586.666 50.0906C586.666 35.0692 583.1 0.172863 550.669 0.172863Z" fill="white"/>
<path d="M473.363 91.4653C459.761 91.4653 449.06 80.6347 449.06 66.8343C449.06 52.502 459.511 41.6785 473.363 41.6785C479.667 41.6785 485.557 44.0899 489.952 48.4679C494.764 53.1983 497.5 59.9055 497.5 66.8343C497.5 80.6341 486.883 91.4653 473.363 91.4653ZM473.363 33.135C462.995 33.135 453.374 38.1697 447.567 46.4833C448.728 28.3878 454.618 8.71697 474.442 8.71697C485.556 8.71697 494.016 15.875 495.841 26.9524L496.173 28.6825H505.38L505.214 26.3863C503.389 10.2261 491.611 0.157227 474.442 0.157227C444.332 0.157227 437.945 29.7817 437.945 54.6337C437.945 84.3151 450.222 100.001 473.362 100.001C492.44 100.001 506.789 85.742 506.789 66.8336C506.79 47.3117 492.773 33.135 473.363 33.135Z" fill="white"/>
<path d="M415.22 46.581C423.349 42.8837 428.49 34.848 428.49 25.3866C428.49 18.6957 426.252 13.1032 421.856 8.7252C416.298 3.18198 407.008 0.000976562 396.64 0.000976562C379.554 0.000976562 367.776 10.0453 365.95 26.2397L365.701 28.5184H374.909L375.24 26.8046C377.066 15.7025 385.525 8.5361 396.639 8.5361C407.838 8.5361 419.201 14.3248 419.201 25.3866C419.201 30.1086 417.707 33.9464 414.723 36.7504C409.994 41.3013 401.119 42.4329 396.556 42.4329C394.898 42.4329 392.492 42.4737 390.087 42.4815C390.003 44.7939 390.003 49.2464 390.087 51.4843C391.58 51.4843 396.556 51.4927 396.556 51.4927C405.183 51.5665 411.902 53.3374 416.132 57.2406C419.616 60.4462 421.357 64.9233 421.357 70.556C421.357 84.1673 408.916 91.2923 396.639 91.2923C388.594 91.2923 382.041 88.8736 377.646 84.3395C373.251 79.8625 371.093 73.393 371.425 65.6857L371.508 63.5288H362.217L362.134 65.5128C361.637 75.73 364.457 84.2897 370.181 90.267C376.235 96.5233 385.442 99.8364 396.639 99.8364C417.292 99.8364 430.647 88.349 430.647 70.556C430.647 59.2984 424.758 50.3941 415.22 46.581Z" fill="white"/>
<path d="M339.326 97.6226L302.249 47.7301L336.091 2.38672H323.4L295.862 39.3745L268.325 2.38672H255.718L289.475 47.7373L252.482 97.6226H265.172L295.862 56.3307L326.634 97.6226H339.326Z" fill="white"/>
<path d="M86.8428 97.6226L49.8496 47.7301L83.6079 2.38672H70.9999L43.4624 39.3745L15.9248 2.38672H3.23428L37.0758 47.7373L0 97.6226H12.6906L43.463 56.3307L74.1522 97.6226H86.8428Z" fill="white"/>
<path d="M131.218 87.6768C131.218 87.6768 107.33 87.6768 102.934 87.6768V53.0266C107.33 53.0266 131.218 53.0266 131.218 53.0266C142.001 53.0266 154.774 55.9369 154.774 69.5974C154.774 85.3074 140.01 87.6768 131.218 87.6768ZM102.934 12.3326C107.33 12.3326 131.218 12.3326 131.218 12.3326C138.849 12.3326 151.705 14.2349 151.705 27.477C151.705 37.4961 144.24 43.4493 131.218 43.4493C131.218 43.4493 107.33 43.4493 102.934 43.4493V12.3326ZM157.262 51.3379C155.272 49.6241 153.115 48.3286 150.958 47.3609C157.926 43.606 162.488 36.538 162.488 28.2971C162.488 22.2214 160.248 2.38672 131.218 2.38672H92.1506V43.4655C92.1506 43.4655 79.5426 43.4655 79.1284 43.4655C77.3868 45.6302 73.5708 50.8613 72.0781 53.0008C73.4882 53.0008 92.1506 53.0008 92.1506 53.0008V97.622H131.218C152.452 97.622 165.64 86.9714 165.64 69.8183C165.64 62.3247 162.737 55.9453 157.262 51.3379Z" fill="white"/>
<path d="M216.486 89.6454C195.833 89.6454 181.4 73.3364 181.4 49.9515C181.4 26.5912 195.832 10.2828 216.486 10.2828C237.056 10.2828 251.406 26.5912 251.406 49.9515C251.406 73.3364 237.055 89.6454 216.486 89.6454ZM216.486 0.206055C189.364 0.206055 170.451 20.656 170.451 49.9521C170.451 79.2649 189.363 99.7227 216.486 99.7227C243.442 99.7227 262.355 79.2649 262.355 49.9521C262.354 20.6554 243.442 0.206055 216.486 0.206055Z" fill="white"/>
</g>
<defs>
<clipPath id="clip0_4_6899">
<rect width="586.667" height="100" fill="white"/>
</clipPath>
</defs>
</svg>
