<svg width="600" height="100" viewBox="0 0 600 100" fill="none" xmlns="http://www.w3.org/2000/svg">
<g clip-path="url(#clip0_4_6894)">
<path fill-rule="evenodd" clip-rule="evenodd" d="M573.104 0L524.879 39.0773L476.899 0H449.756L511.551 50L449.756 100H476.899L524.879 60.6818L573.104 100H599.999L538.447 50L599.999 0H573.104Z" fill="white"/>
<path fill-rule="evenodd" clip-rule="evenodd" d="M441.759 50C441.759 27.6705 435.943 11.1682 424.797 0H326.172C314.541 11.1682 308.725 27.6705 308.725 50C308.725 72.3318 314.541 88.8341 326.172 100H424.797C435.943 88.8341 441.759 72.0841 441.759 50ZM425.281 50C425.281 57.525 423.584 65.2932 420.436 73.3023L415.834 83.7409H334.895L330.291 73.3023C326.9 65.2932 325.445 57.525 325.445 50C325.445 38.1068 328.593 26.9432 334.895 16.5091H415.834C422.134 26.9432 425.281 38.1068 425.281 50Z" fill="white"/>
<path fill-rule="evenodd" clip-rule="evenodd" d="M283.522 54.1295V45.875L290.792 41.9909C289.094 23.3023 283.522 9.225 274.072 0H175.444C165.994 8.98182 160.176 23.0614 158.724 41.75H142.729V58.2545H158.724C160.176 76.9432 165.994 90.7795 175.444 100H274.072C283.522 90.5341 289.094 76.7 290.792 58.2545L283.522 54.1295ZM265.104 16.5091C269.465 24.0318 272.617 32.2841 274.072 41.75H175.444C176.899 32.2841 179.806 24.0318 184.408 16.5091H265.104ZM274.072 58.2545C272.617 67.7205 269.465 76.2136 265.104 83.7409H184.408C179.806 76.2136 176.899 67.7205 175.444 58.2545H274.072Z" fill="white"/>
<path fill-rule="evenodd" clip-rule="evenodd" d="M88.4477 50L150 0H122.857L74.8795 39.0773L26.6545 0H0L61.3091 50L0 100H26.6545L74.8795 60.6818L122.857 100H150L88.4477 50Z" fill="white"/>
</g>
<defs>
<clipPath id="clip0_4_6894">
<rect width="600" height="100" fill="white"/>
</clipPath>
</defs>
</svg>
