<svg width="690" height="100" viewBox="0 0 690 100" fill="none" xmlns="http://www.w3.org/2000/svg">
<g clip-path="url(#clip0_4_6908)">
<path d="M15.2886 100.056C6.84547 100.056 0 93.2107 0 84.7676V15.2886C0 6.84419 6.84547 0 15.2886 0C23.7305 0 30.576 6.84291 30.576 15.2886V84.7663C30.576 93.2107 23.7305 100.056 15.2886 100.056Z" fill="white"/>
<path d="M222.616 35.8349H176.467V27.5182H222.616C230.214 27.5182 236.373 21.3586 236.373 13.7609C236.373 6.16062 230.214 0.000976562 222.616 0.000976562H159.649C152.05 0.000976562 145.891 6.16062 145.891 13.7609C145.891 14.0189 145.891 84.7673 145.891 84.7673C145.891 93.2104 152.736 100.056 161.179 100.056C169.621 100.056 176.467 93.2104 176.467 84.7673V63.3509H222.616C230.214 63.3509 236.373 57.1913 236.373 49.5923C236.375 41.9946 230.215 35.8349 222.616 35.8349Z" fill="white"/>
<path d="M689.062 80.2992L669.27 11.2724C668.1 7.18684 665.361 3.97994 661.897 2.10766C659.782 0.781985 657.287 0.00292969 654.606 0.00292969H581.988C581.511 0.00292969 581.041 0.0271953 580.579 0.0744495C572.799 0.787093 566.699 7.32094 566.699 15.2916V84.7692C566.699 93.2124 573.542 100.058 581.988 100.058C590.43 100.058 597.275 93.2124 597.275 84.7692V27.5189H604.045V84.7705C604.045 93.2137 610.891 100.059 619.334 100.059C627.775 100.059 634.619 93.2137 634.619 84.7705V27.5189H642.316L659.854 88.6747C661.764 95.3414 667.843 99.6875 674.45 99.6875C675.836 99.6875 677.245 99.4972 678.646 99.0949C686.709 96.7769 691.376 88.3644 689.062 80.2992Z" fill="white"/>
<path d="M319.15 0.000976562H267.233C252.789 0.000976562 240.969 11.8183 240.969 26.2641V73.7915C240.969 88.2372 252.789 100.055 267.233 100.055H319.15C333.596 100.055 345.414 88.2372 345.414 73.7915V26.2653C345.414 11.8196 333.596 0.000976562 319.15 0.000976562ZM315.775 68.6038C315.775 70.2858 314.398 71.6613 312.717 71.6613H273.666C271.984 71.6613 270.607 70.2858 270.607 68.6038V31.4518C270.607 29.7724 271.984 28.3956 273.666 28.3956H312.717C314.398 28.3956 315.775 29.7724 315.775 31.4518V68.6038Z" fill="white"/>
<path d="M534.222 0.000976562H482.303C467.862 0.000976562 456.039 11.8183 456.039 26.2641V73.7915C456.039 88.2372 467.862 100.055 482.303 100.055H534.222C548.667 100.055 560.484 88.2372 560.484 73.7915V26.2653C560.484 11.8196 548.667 0.000976562 534.222 0.000976562ZM530.845 68.6038C530.845 70.2858 529.468 71.6613 527.79 71.6613H488.739C487.057 71.6613 485.68 70.2858 485.68 68.6038V31.4518C485.68 29.7724 487.057 28.3956 488.739 28.3956H527.79C529.468 28.3956 530.845 29.7724 530.845 31.4518V68.6038Z" fill="white"/>
<path d="M134.361 0.000976562H44.2604C40.4316 0.000976562 37.3281 3.10442 37.3281 6.93201V84.7673C37.3281 93.2104 44.1736 100.056 52.6168 100.056C61.0599 100.056 67.7279 93.2104 67.7279 84.7673V31.439C67.7279 29.7596 69.1033 28.3841 70.7853 28.3841H107.548C109.229 28.3841 110.716 29.7596 110.716 31.439V84.766C110.716 93.2092 117.562 100.055 126.005 100.055C134.448 100.055 141.294 93.2092 141.294 84.766V26.8554V6.93329C141.294 3.10442 138.19 0.000976562 134.361 0.000976562Z" fill="white"/>
<path d="M439.59 71.6628H384.935C383.253 71.6628 381.877 70.2874 381.877 68.6054V31.4521C381.877 29.7727 383.253 28.3959 384.935 28.3959H439.59C447.428 28.3959 453.789 22.0421 453.789 14.198C453.789 6.35888 447.432 0 439.59 0H419.785H380.858H377.591C363.222 0 351.465 11.7561 351.465 26.1264V73.9285C351.465 88.2937 363.222 100.055 377.591 100.055H380.858H419.785H439.59C447.428 100.055 453.789 93.6999 453.789 85.8544C453.789 78.014 447.432 71.6628 439.59 71.6628Z" fill="white"/>
</g>
<defs>
<clipPath id="clip0_4_6908">
<rect width="689.655" height="100" fill="white"/>
</clipPath>
</defs>
</svg>
