<svg width="322" height="100" viewBox="0 0 322 100" fill="none" xmlns="http://www.w3.org/2000/svg">
<g clip-path="url(#clip0_4_6916)">
<path d="M57.8516 4.39634V8.7939H63.1955H68.5406V4.39634V0H63.1955H57.8516V4.39634Z" fill="white"/>
<path d="M255.297 4.39634V8.7939H260.642H265.986V4.39634V0H260.642H255.297V4.39634Z" fill="white"/>
<path d="M185.5 22.9262V45.225H190.845H196.19V22.9262V0.627441H190.845H185.5V22.9262Z" fill="white"/>
<path d="M0 21.356V32.0353L22.1976 32.1609C43.828 32.3487 44.3317 32.3487 44.3317 33.6048C44.3317 34.8609 43.828 34.8609 22.1976 35.0499L0 35.1755V39.8865V44.5975H27.6683H55.3354V33.9194V23.2414H33.3268H11.3183V21.6707V20.0999H33.3268H55.3354V15.389V10.6792H27.6683H0V21.356Z" fill="white"/>
<path d="M57.8516 27.6377V44.5975H63.1955H68.5406V27.6377V10.6792H63.1955H57.8516V27.6377Z" fill="white"/>
<path d="M71.0547 27.6377V44.5975H76.7132H82.373V32.3487V20.0999H98.7218H115.071V32.3487V44.5975H120.73H126.39V27.6377V10.6792H98.7218H71.0547V27.6377Z" fill="white"/>
<path d="M128.279 27.6377V44.5975H155.632H182.985V39.8865V35.1755H160.977H138.968V27.6377V20.0999H160.977H182.985V15.389V10.6792H155.632H128.279V27.6377Z" fill="white"/>
<path d="M198.705 15.389V20.0999L220.272 20.2255C241.275 20.4146 241.778 20.4146 241.778 21.6707C241.778 22.9268 241.275 22.9268 220.272 23.1158L198.705 23.2414V33.9194V44.5975H226.058H253.411V27.6377V10.6792H226.058H198.705V15.389ZM241.778 33.6048C241.778 34.7987 241.275 34.8609 225.617 35.0499C210.211 35.1755 209.394 35.1121 209.394 34.0451C209.394 33.417 209.583 32.6621 209.834 32.4109C210.086 32.2243 217.317 32.0975 225.995 32.1609C241.275 32.3487 241.778 32.4109 241.778 33.6048Z" fill="white"/>
<path d="M255.297 27.6377V44.5975H260.642H265.986V27.6377V10.6792H260.642H255.297V27.6377Z" fill="white"/>
<path d="M267.873 27.6377V44.5975H273.533H279.193L279.318 32.4743L279.506 20.4146L300.76 20.2255L321.951 20.0999V15.389V10.6792H294.912H267.873V27.6377Z" fill="white"/>
<path d="M96.8369 56.5315V60.301H107.527C113.438 60.301 118.217 60.49 118.217 60.74C118.217 61.0546 112.809 67.8376 106.27 75.8778L94.3223 90.5144V94.9108V99.2461H113.187H132.05V95.4766V91.7071L118.845 91.5815L105.577 91.3925L118.531 75.501L131.484 59.6717L131.297 56.3437L131.108 53.0766L114.004 52.8888L96.8369 52.7632V56.5315Z" fill="white"/>
<path d="M135.761 53.9555C136.139 54.647 139.283 59.547 142.741 64.8226C146.262 70.0994 148.967 74.8726 148.84 75.3762C148.714 75.8774 145.319 81.3421 141.295 87.4994C137.207 93.6543 133.938 98.8055 133.938 98.9311C133.938 99.1201 136.39 99.2457 139.472 99.2457H144.942L150.098 91.2677L155.191 83.2909L160.347 91.2677L165.505 99.2457H171.163C175.502 99.2457 176.634 99.0567 176.319 98.4909C176.068 98.0518 172.484 92.6494 168.396 86.5567L160.977 75.4396L168.208 64.2567L175.377 53.0762L170.597 52.8884C167.956 52.7628 165.441 52.825 165.064 53.014C164.624 53.1396 162.359 56.4055 160.034 60.2372C157.707 64.0701 155.631 67.2104 155.38 67.2104C155.191 67.2104 152.991 64.0067 150.601 60.1116L146.2 53.0762L140.666 52.8884C135.322 52.7006 135.133 52.7628 135.761 53.9555Z" fill="white"/>
<path d="M187.323 54.5217C180.091 58.2912 178.896 67.6498 185.059 72.5498L187.26 74.3083L185.311 75.6266C179.337 79.6473 178.143 88.6925 182.795 94.7851C185.185 97.9266 190.341 100.062 195.498 99.9986C200.779 99.9986 204.427 98.5546 207.13 95.4132C211.972 89.7607 211.846 81.5315 206.879 77.0095C205.495 75.7522 204.049 74.7473 203.609 74.7473C203.232 74.7473 204.049 73.6803 205.433 72.3607C208.326 69.7229 209.645 66.1425 209.017 62.751C207.76 56.1559 203.043 52.7632 194.994 52.7632C191.473 52.7632 190.027 53.0766 187.323 54.5217ZM199.018 61.2425C200.088 62.2473 200.59 63.4412 200.59 64.9498C200.59 67.9644 200.088 69.0315 198.012 70.0364C195.498 71.3559 193.36 71.1668 191.348 69.4717C189.963 68.2778 189.587 67.462 189.587 65.3254C189.587 63.19 189.963 62.3742 191.348 61.1803C193.737 59.1705 197.006 59.1705 199.018 61.2425ZM198.076 78.8315C202.415 81.0925 203.106 87.8766 199.396 91.2059C193.36 96.6071 185.562 88.3156 189.901 81.1546C191.85 78.0144 194.806 77.1351 198.076 78.8315Z" fill="white"/>
<path d="M218.197 76.0047V99.2461H222.913H227.629V76.0047V52.7632H222.913H218.197V76.0047Z" fill="white"/>
</g>
<defs>
<clipPath id="clip0_4_6916">
<rect width="321.951" height="100" fill="white"/>
</clipPath>
</defs>
</svg>
