<svg width="455" height="100" viewBox="0 0 455 100" fill="none" xmlns="http://www.w3.org/2000/svg">
<g clip-path="url(#clip0_4_7697)">
<path d="M374.156 51.6786C374.156 55.7752 370.835 59.0957 366.739 59.0957C362.642 59.0957 359.32 55.7752 359.32 51.6786V25.9616C359.32 21.865 362.642 18.5445 366.739 18.5445C370.835 18.5445 374.156 21.865 374.156 25.9616V51.6786Z" fill="white"/>
<path d="M272.906 51.6786C272.906 55.7752 269.585 59.0957 265.489 59.0957C261.392 59.0957 258.07 55.7752 258.07 51.6786V11.1655C258.07 7.06891 261.392 3.74837 265.489 3.74837C269.585 3.74837 272.906 7.06891 272.906 11.1655V51.6786Z" fill="white"/>
<path d="M374.156 7.41688C374.156 11.5134 370.835 14.834 366.739 14.834C362.642 14.834 359.32 11.5134 359.32 7.41688C359.32 3.32031 362.642 -0.000230058 366.739 -0.000230058C370.835 -0.000230058 374.156 3.32031 374.156 7.41688Z" fill="white"/>
<path d="M93.312 51.6786C93.312 55.7752 89.9915 59.0957 85.8949 59.0957C81.7983 59.0957 78.4766 55.7752 78.4766 51.6786V25.9616C78.4766 21.865 81.7983 18.5445 85.8949 18.5445C89.9915 18.5445 93.312 21.865 93.312 25.9616V51.6786Z" fill="white"/>
<path d="M93.312 7.41688C93.312 11.5134 89.9915 14.834 85.8949 14.834C81.7983 14.834 78.4766 11.5134 78.4766 7.41688C78.4766 3.32031 81.7983 -0.000230058 85.8949 -0.000230058C89.9915 -0.000230058 93.312 3.32031 93.312 7.41688Z" fill="white"/>
<path d="M380.649 31.4719C380.649 24.2811 386.478 18.4849 393.67 18.4849L449.15 18.4874C452.199 18.4874 454.669 21.0528 454.669 24.1003C454.669 27.1478 452.199 29.594 449.15 29.594L401.227 29.5927C398.07 29.5927 395.473 32.152 395.473 35.3102L395.48 51.6522C395.48 55.7488 392.158 59.0693 388.062 59.0693C383.965 59.0693 380.645 55.7488 380.645 51.6522L380.649 31.4719Z" fill="white"/>
<path d="M353.019 31.5335C353.019 24.3427 347.191 18.5133 339.999 18.5133L284.974 18.5182C281.904 18.5182 279.415 21.0074 279.415 24.0783C279.415 27.1479 281.883 29.6162 284.953 29.6162L336.391 29.6026C337.414 29.6026 338.244 30.4328 338.244 31.4572C338.244 32.4817 337.414 33.3106 336.391 33.3106L292.277 33.3032C285.152 33.3032 279.377 39.0256 279.377 46.15C279.377 53.2756 285.152 59.0312 292.277 59.0312L339.999 59.0251C347.191 59.0251 353.019 53.1945 353.019 46.0049V31.5335ZM295.96 48.0661C294.937 48.0661 294.108 47.236 294.108 46.2127C294.108 45.1883 294.937 44.3581 295.96 44.3581H336.391C337.414 44.3581 338.244 45.1883 338.244 46.2127C338.244 47.236 337.414 48.0661 336.391 48.0661H295.96Z" fill="white"/>
<path d="M245.913 47.8327C248.983 47.8327 251.484 50.3379 251.484 53.4088C251.484 56.4785 249.016 58.9467 245.947 58.9467L197.656 58.9541C186.466 58.9541 177.395 49.8829 177.395 38.6926C177.395 27.5036 186.466 18.4718 197.656 18.4718H245.927C248.997 18.4718 251.484 20.9757 251.484 24.0466C251.484 27.1162 249.016 29.5796 245.947 29.5796L201.337 29.5771C196.29 29.5771 192.198 33.6368 192.198 38.6853C192.198 43.7325 196.29 47.8291 201.337 47.8291L245.913 47.8327Z" fill="white"/>
<path d="M111.839 18.5029C104.648 18.5029 98.8184 24.3323 98.8184 31.5232L98.8393 51.6801C98.8393 55.7766 102.16 59.0972 106.256 59.0972C110.353 59.0972 113.673 55.7766 113.673 51.6801L113.68 35.2151C113.68 32.0569 116.239 29.4976 119.397 29.4976H152.27C155.427 29.4976 157.987 32.0569 157.987 35.2151L157.993 51.6801C157.993 55.7766 161.313 59.0972 165.411 59.0972C169.508 59.0972 172.828 55.7766 172.828 51.6801L172.848 31.5232C172.848 24.3323 167.02 18.5029 159.828 18.5029H111.839Z" fill="white"/>
<path d="M12.9009 18.5206C5.77651 18.5206 0 24.2418 0 31.3662C0 38.4918 5.77651 44.2474 12.9009 44.2474L57.3618 44.2339C58.385 44.2339 59.2163 45.064 59.2163 46.0885C59.2163 47.1129 58.385 47.9431 57.3618 47.9431H5.58589C2.515 47.9431 0.0135277 50.4077 0.0135277 53.4786C0.0135277 56.5482 2.4818 59.0165 5.55146 59.0165L61.1693 59.0312C68.2937 59.0312 74.069 53.2756 74.069 46.15C74.069 39.0256 68.2937 33.3044 61.1693 33.3044L16.5437 33.3105C15.5205 33.3105 14.6903 32.4816 14.6903 31.4572C14.6903 30.4327 15.5205 29.6026 16.5437 29.6026L68.493 29.6161C71.5626 29.6161 74.0309 27.1479 74.0309 24.0782C74.0309 21.0073 71.5417 18.5194 68.4721 18.5194L12.9009 18.5206Z" fill="white"/>
<path d="M2.375 90.794L13.9539 76.9473H3.28139V72.9565H20.2715V76.7062L8.69387 90.5517H20.574V94.5425H2.375V90.794Z" fill="white"/>
<path d="M28.9492 83.2367L21.9957 72.9577H27.498L31.7298 79.8497L36.1142 72.9577H41.3139L34.3912 83.2662L41.9177 94.5425H36.2654L31.549 87.0762L26.7428 94.5425H21.3906L28.9492 83.2367Z" fill="white"/>
<path d="M56.0699 87.3522C56.0699 90.2251 58.3069 91.343 60.8465 91.343C62.5093 91.343 65.0489 90.8597 65.0489 88.6533C65.0489 86.324 61.8144 85.9317 58.6402 85.0844C55.4353 84.2395 52.2008 82.9998 52.2008 78.9475C52.2008 74.5337 56.3724 72.4171 60.2722 72.4171C64.7771 72.4171 68.9191 74.3836 68.9191 79.3718H64.3233C64.172 76.7707 62.3285 76.1054 60.0607 76.1054C58.5492 76.1054 56.7955 76.7412 56.7955 78.5552C56.7955 80.2179 57.8236 80.4295 63.2349 81.8204C64.8066 82.2127 69.6447 83.2113 69.6447 88.1085C69.6447 92.0686 66.5296 95.0312 60.6657 95.0312C55.8891 95.0312 51.4149 92.6737 51.4752 87.3522H56.0699Z" fill="white"/>
<path d="M83.7334 86.7289C83.7334 84.2496 82.7347 81.6804 79.9848 81.6804C77.1735 81.6804 76.2658 84.1893 76.2658 86.7289C76.2658 89.2673 77.2337 91.6863 80.0144 91.6863C82.8258 91.6863 83.7334 89.2673 83.7334 86.7289ZM72.125 78.8678H76.2056V80.8626H76.2658C77.294 79.2011 78.9875 78.446 80.922 78.446C85.8192 78.446 88.0255 82.4048 88.0255 86.8506C88.0255 91.021 85.7282 94.9208 81.163 94.9208C79.2888 94.9208 77.5055 94.1054 76.4774 92.5632H76.4171V100H72.125V78.8678Z" fill="white"/>
<path d="M101.329 85.0106C100.937 82.8338 99.9984 81.6852 97.9126 81.6852C95.1922 81.6852 94.4063 83.8017 94.3461 85.0106H101.329ZM94.3461 87.7322C94.4666 90.4526 95.796 91.6923 98.1844 91.6923C99.9086 91.6923 101.3 90.6334 101.571 89.6655H105.351C104.14 93.3538 101.571 94.9268 98.0343 94.9268C93.1064 94.9268 90.0527 91.541 90.0527 86.7041C90.0527 82.0172 93.2872 78.4507 98.0343 78.4507C103.355 78.4507 105.924 82.9248 105.622 87.7322H94.3461Z" fill="white"/>
<path d="M119.168 84.376C118.895 82.6223 117.777 81.6852 115.993 81.6852C113.243 81.6852 112.335 84.467 112.335 86.7644C112.335 89.0027 113.212 91.6923 115.903 91.6923C117.898 91.6923 119.046 90.4231 119.319 88.5181H123.46C122.917 92.6602 120.045 94.9268 115.934 94.9268C111.217 94.9268 108.043 91.6025 108.043 86.9156C108.043 82.048 110.944 78.4519 116.023 78.4519C119.712 78.4519 123.097 80.3865 123.37 84.376H119.168Z" fill="white"/>
<path d="M131.562 78.8856H134.707V81.7572H131.562V89.4966C131.562 90.949 131.925 91.3118 133.376 91.3118C133.83 91.3118 134.253 91.281 134.707 91.19V94.545C133.981 94.6668 133.044 94.6963 132.198 94.6963C129.567 94.6963 127.27 94.0924 127.27 90.9785V81.7572H124.67V78.8856H127.27V74.1987H131.562V78.8856Z" fill="white"/>
<path d="M137.064 78.9125H141.145V81.815H141.207C141.992 79.8497 144.109 78.4895 146.193 78.4895C146.496 78.4895 146.859 78.5497 147.132 78.6408V82.6303C146.738 82.5406 146.104 82.4791 145.59 82.4791C142.445 82.4791 141.357 84.7469 141.357 87.498V94.5425H137.064V78.9125Z" fill="white"/>
<path d="M163.76 94.5037H159.679V92.3269H159.588C158.5 94.0806 156.625 94.9268 154.811 94.9268C150.246 94.9268 149.098 92.3576 149.098 88.4874V78.8738H153.39V87.7015C153.39 90.2718 154.146 91.541 156.142 91.541C158.469 91.541 159.466 90.2411 159.466 87.0669V78.8738H163.76V94.5037Z" fill="white"/>
<path d="M167.328 78.9125H171.379V81.0291H171.439C172.557 79.4266 174.191 78.4895 176.216 78.4895C178.181 78.4895 179.934 79.2151 180.781 81.0906C181.688 79.7292 183.321 78.4895 185.498 78.4895C188.823 78.4895 191.211 80.0317 191.211 84.0828V94.5425H186.918V85.6852C186.918 83.5994 186.737 81.8752 184.289 81.8752C181.87 81.8752 181.416 83.87 181.416 85.8353V94.5425H177.122V85.775C177.122 83.961 177.244 81.8752 174.524 81.8752C173.677 81.8752 171.621 82.42 171.621 85.4725V94.5425H167.328V78.9125Z" fill="white"/>
<path d="M203.941 72.9565H208.657L217.666 87.4377H217.727V72.9565H222.171V94.5425H217.424L208.446 80.092H208.385V94.5425H203.941V72.9565Z" fill="white"/>
<path d="M247.842 86.3186L242.702 78.9126H247.6L250.35 82.9931L253.072 78.9126H257.818L252.678 86.2288L258.453 94.5425H253.555L250.29 89.6145L247.025 94.5425H242.219L247.842 86.3186Z" fill="white"/>
<path d="M236.716 85.0106C236.323 82.8338 235.386 81.6852 233.301 81.6852C230.579 81.6852 229.793 83.8017 229.732 85.0106H236.716ZM229.732 87.7322C229.853 90.4526 231.184 91.6923 233.571 91.6923C235.295 91.6923 236.686 90.6334 236.957 89.6655H240.737C239.527 93.3538 236.957 94.9268 233.42 94.9268C228.492 94.9268 225.439 91.541 225.439 86.7041C225.439 82.0172 228.674 78.4507 233.42 78.4507C238.741 78.4507 241.31 82.9248 241.009 87.7322H229.732Z" fill="white"/>
<path d="M265.829 78.8856H268.974V81.7572H265.829V89.4966C265.829 90.949 266.192 91.3118 267.645 91.3118C268.097 91.3118 268.52 91.281 268.974 91.19V94.545C268.249 94.6668 267.311 94.6963 266.465 94.6963C263.835 94.6963 261.537 94.0924 261.537 90.9785V81.7572H258.938V78.8856H261.537V74.1987H265.829V78.8856Z" fill="white"/>
</g>
<defs>
<clipPath id="clip0_4_7697">
<rect width="454.67" height="100" fill="white"/>
</clipPath>
</defs>
</svg>
