<svg width="351" height="100" viewBox="0 0 351 100" fill="none" xmlns="http://www.w3.org/2000/svg">
<g clip-path="url(#clip0_4_7077)">
<path d="M73.1991 0H62.4238V8.5289H73.1991V0Z" fill="white"/>
<path d="M0.154297 87.2431L16.1254 68.1489H1.40532V62.6426H24.837V67.8111L8.87496 86.9052H25.2662V92.4116H0.154297V87.2431Z" fill="white"/>
<path d="M36.8098 76.8148L27.2216 62.6426H34.8099L40.645 72.1486L46.6901 62.6426H53.8584L44.3159 76.8605L54.6985 92.4116H46.9002L40.3985 82.1111L33.7689 92.4116H26.3906L36.8098 76.8148Z" fill="white"/>
<path d="M65.0354 82.5312C65.0354 86.4943 68.1219 88.0375 71.6193 88.0375C73.9113 88.0375 77.4178 87.3709 77.4178 84.3301C77.4178 81.1158 72.9525 80.577 68.5785 79.4082C64.1588 78.2393 59.6934 76.5317 59.6934 70.9432C59.6934 64.8524 65.4463 61.9395 70.8248 61.9395C77.0343 61.9395 82.7507 64.6515 82.7507 71.5276H76.4134C76.2033 67.9389 73.6648 67.0257 70.5326 67.0257C68.4506 67.0257 66.0307 67.9024 66.0307 70.4044C66.0307 72.6965 67.4461 72.9887 74.9158 74.9063C77.08 75.4451 83.7552 76.8239 83.7552 83.5813C83.7552 89.042 79.4633 93.133 71.3727 93.133C64.7888 93.133 58.6159 89.8821 58.6981 82.5403H65.0354V82.5312Z" fill="white"/>
<path d="M85.7552 70.852H91.3803V73.6006H91.4625C92.8779 71.3086 95.2156 70.2676 97.882 70.2676C104.639 70.2676 107.68 75.7283 107.68 81.8556C107.68 87.6085 104.512 92.987 98.2107 92.987C95.6265 92.987 93.1609 91.8638 91.7455 89.7361H91.6634V99.9909H85.7461V70.852H85.7552ZM101.772 81.7003C101.772 78.2851 100.393 74.7329 96.6036 74.7329C92.7226 74.7329 91.4716 78.1938 91.4716 81.7003C91.4716 85.2069 92.8048 88.5399 96.6401 88.5399C100.521 88.5399 101.772 85.1977 101.772 81.7003Z" fill="white"/>
<path d="M114.866 83.0701C115.03 86.8231 116.866 88.5308 120.162 88.5308C122.536 88.5308 124.454 87.0697 124.828 85.7365H130.043C128.371 90.8228 124.828 92.9961 119.952 92.9961C113.158 92.9961 108.939 88.3299 108.939 81.6547C108.939 75.1895 113.405 70.2676 119.952 70.2676C127.294 70.2676 130.837 76.4405 130.417 83.0701H114.866ZM124.491 79.317C123.952 76.3127 122.655 74.7329 119.779 74.7329C116.026 74.7329 114.939 77.655 114.857 79.317H124.491Z" fill="white"/>
<path d="M147.347 78.4491C146.973 76.0293 145.429 74.7417 142.973 74.7417C139.174 74.7417 137.923 78.577 137.923 81.7456C137.923 84.8321 139.129 88.5395 142.845 88.5395C145.594 88.5395 147.183 86.7863 147.557 84.1655H153.273C152.525 89.8819 148.561 93.0049 142.891 93.0049C136.389 93.0049 132.006 88.4208 132.006 81.9557C132.006 75.244 136.005 70.2764 143.019 70.2764C148.105 70.2764 152.78 72.9428 153.155 78.4491H147.347Z" fill="white"/>
<path d="M162.854 70.8519H167.191V74.815H162.854V85.4898C162.854 87.4896 163.356 87.9919 165.356 87.9919C165.986 87.9919 166.561 87.9462 167.191 87.8275V92.4572C166.187 92.6216 164.899 92.6672 163.73 92.6672C160.105 92.6672 156.936 91.8363 156.936 87.5353V74.815H153.348V70.8519H156.936V64.3867H162.854V70.8519Z" fill="white"/>
<path d="M168.77 70.852H174.395V74.8516H174.477C175.563 72.1396 178.476 70.2676 181.353 70.2676C181.773 70.2676 182.266 70.3498 182.65 70.4776V75.9839C182.111 75.8561 181.234 75.7739 180.522 75.7739C176.184 75.7739 174.687 78.8969 174.687 82.6957V92.4117H168.77V70.852Z" fill="white"/>
<path d="M203.963 92.4112H198.338V89.4069H198.211C196.713 91.8268 194.129 92.9957 191.627 92.9957C185.326 92.9957 183.746 89.4526 183.746 84.1106V70.8516H189.663V83.024C189.663 86.567 190.704 88.3203 193.462 88.3203C196.676 88.3203 198.046 86.5305 198.046 82.1473V70.8516H203.963V92.4112Z" fill="white"/>
<path d="M207.387 70.852H212.975V73.7741H213.057C214.601 71.5643 216.856 70.2676 219.641 70.2676C222.353 70.2676 224.773 71.2721 225.942 73.8563C227.193 71.9843 229.449 70.2676 232.444 70.2676C237.028 70.2676 240.324 72.3952 240.324 77.9838V92.4117H234.407V80.1936C234.407 77.3172 234.161 74.943 230.782 74.943C227.449 74.943 226.819 77.6916 226.819 80.4036V92.4117H220.892V80.3215C220.892 77.8194 221.057 74.943 217.304 74.943C216.135 74.943 213.304 75.6917 213.304 79.9014V92.4117H207.387V70.852Z" fill="white"/>
<path d="M288.32 0H277.545V8.5289H288.32V0Z" fill="white"/>
<path d="M73.1991 11.6973H62.4238V47.4292H73.1991V11.6973Z" fill="white"/>
<path d="M288.32 11.6973H277.545V47.4292H288.32V11.6973Z" fill="white"/>
<path d="M211.488 0H200.713V47.4203H211.488V0Z" fill="white"/>
<path d="M86.8221 11.6973H76.0469V20.217V47.42H86.8221V20.217H124.755V47.42H135.53V20.217V11.6973H124.755H86.8221Z" fill="white"/>
<path d="M350.653 11.6973H301.945H291.17V20.217V47.42H301.945V20.217H350.653V11.6973Z" fill="white"/>
<path d="M0.0913159 14.0441H0V25.2942V33.8231V33.9418H10.7753V33.8231H48.7079V38.9003H0.0913159V47.42H48.7079H59.4832H59.5745V38.9003H59.4832V33.8231V25.2942V25.1755H48.7079V25.2942H10.7753V20.217H59.5745V11.6973H0.0913159V14.0441Z" fill="white"/>
<path d="M138.381 11.6973V20.217V38.9003V47.42H149.156H197.855V38.9003H149.156V20.217H197.855V11.6973H149.156H138.381Z" fill="white"/>
<path d="M273.81 11.6973H263.92H263.519H214.336V20.2262H263.519V25.2942H214.336V25.7508V33.8231V38.9003V47.4292H225.111H263.519H263.92H273.81H274.294H274.696V11.6973H274.294H273.81ZM225.111 38.9003V33.8231H263.519V38.9003H225.111Z" fill="white"/>
</g>
<defs>
<clipPath id="clip0_4_7077">
<rect width="350.653" height="100" fill="white"/>
</clipPath>
</defs>
</svg>
